<svg xmlns="http://www.w3.org/2000/svg" viewBox="0 0 97.43 97.43"><g id="Camada_2" data-name="Camada 2"><g id="Layer_1" data-name="Layer 1"><path d="M0,48.71A48.71,48.71,0,0,1,48.71,0h0A48.71,48.71,0,0,1,97.43,48.71h0A48.72,48.72,0,0,1,48.71,97.43h0A48.71,48.71,0,0,1,0,48.71Zm4.64,0A43.92,43.92,0,0,0,17.55,79.88h0A43.92,43.92,0,0,0,48.71,92.79h0A43.92,43.92,0,0,0,79.88,79.88h0A43.92,43.92,0,0,0,92.79,48.71h0A43.92,43.92,0,0,0,79.88,17.55h0A43.92,43.92,0,0,0,48.71,4.64h0A43.92,43.92,0,0,0,17.55,17.55h0A43.92,43.92,0,0,0,4.64,48.71Z"/><path d="M25.64,32.89c-.49-.24.56-3.84,4.49-7.52a27,27,0,0,1,37.17,0c3.93,3.68,5,7.28,4.49,7.52-1,.75-9.31-8.82-23.08-8.82S26.63,33.64,25.64,32.89Z"/><path d="M39.52,61.26c0,4.36-2.67,7.91-6,7.91s-6-3.55-6-7.91,2.67-7.92,6-7.92S39.52,56.89,39.52,61.26Z"/><ellipse cx="63.87" cy="61.26" rx="5.96" ry="7.91"/></g></g></svg>