<svg xmlns="http://www.w3.org/2000/svg" viewBox="0 0 97.43 97.43"><g id="Camada_2" data-name="Camada 2"><g id="Layer_1" data-name="Layer 1"><path d="M0,48.71A48.71,48.71,0,0,1,48.71,0h0A48.71,48.71,0,0,1,97.43,48.71h0A48.72,48.72,0,0,1,48.71,97.43h0A48.71,48.71,0,0,1,0,48.71ZM17.55,17.55A43.92,43.92,0,0,0,4.64,48.71h0A43.92,43.92,0,0,0,17.55,79.88h0A43.92,43.92,0,0,0,48.71,92.79h0A43.92,43.92,0,0,0,79.88,79.88h0A43.92,43.92,0,0,0,92.79,48.71h0A43.92,43.92,0,0,0,79.88,17.55h0A43.92,43.92,0,0,0,48.71,4.64h0A43.92,43.92,0,0,0,17.55,17.55Z"/><path d="M48.71,79.52C30.91,79.28,23.43,64,23.61,62.63c1.14-.7,9.42,10.12,25.1,10.18s24-10.88,25.11-10.18C74,64,66.52,79.28,48.71,79.52Z"/><path d="M25.21,46.79a2.32,2.32,0,0,1-1.59-2.88h0a14.71,14.71,0,0,1,4.35-7h0A11.19,11.19,0,0,1,35.35,34h0l.74,0h0a10.86,10.86,0,0,1,6.47,2.79h0a13.84,13.84,0,0,1,3.86,6.06h0a2.33,2.33,0,0,1-1.49,2.92h0A2.31,2.31,0,0,1,42,44.3h0a9.18,9.18,0,0,0-2.54-4h0a6.2,6.2,0,0,0-3.71-1.64h-.41A6.55,6.55,0,0,0,31,40.37h0a10,10,0,0,0-3,4.82h0a2.33,2.33,0,0,1-2.23,1.68h0a2.74,2.74,0,0,1-.64-.08Z"/><path d="M69.35,45.19a10,10,0,0,0-2.95-4.82h0a6.51,6.51,0,0,0-4.32-1.74h-.41A6.18,6.18,0,0,0,58,40.28h0a9.08,9.08,0,0,0-2.53,4h0a2.32,2.32,0,0,1-2.93,1.49h0A2.33,2.33,0,0,1,51,42.87h0a13.84,13.84,0,0,1,3.86-6.06h0A10.83,10.83,0,0,1,61.33,34h0l.75,0h0a11.19,11.19,0,0,1,7.38,2.89h0a14.71,14.71,0,0,1,4.35,7h0a2.32,2.32,0,0,1-1.59,2.88h0a2.8,2.8,0,0,1-.64.08h0a2.32,2.32,0,0,1-2.23-1.68Z"/></g></g></svg>