<svg xmlns="http://www.w3.org/2000/svg" viewBox="0 0 97.43 97.43"><g id="Camada_2" data-name="Camada 2"><g id="Layer_1" data-name="Layer 1"><path d="M0,48.71A48.71,48.71,0,0,1,48.71,0h0A48.71,48.71,0,0,1,97.43,48.71h0A48.72,48.72,0,0,1,48.71,97.43h0A48.71,48.71,0,0,1,0,48.71ZM17.55,17.55A43.92,43.92,0,0,0,4.64,48.71h0A43.92,43.92,0,0,0,17.55,79.88h0A43.92,43.92,0,0,0,48.71,92.79h0A43.92,43.92,0,0,0,79.88,79.88h0A43.92,43.92,0,0,0,92.79,48.71h0A43.92,43.92,0,0,0,79.88,17.55h0A43.92,43.92,0,0,0,48.71,4.64h0A43.92,43.92,0,0,0,17.55,17.55Z"/><path d="M48.71,75.72h0A20.54,20.54,0,0,1,33.25,68.9h0a23.44,23.44,0,0,1-4.39-6.81h0a2.31,2.31,0,0,1,1.34-3h0a2.31,2.31,0,0,1,3,1.34h0a.41.41,0,0,0,0,.07h0c0,.07.07.17.14.31h0c.13.28.33.7.61,1.21h0a20.41,20.41,0,0,0,2.7,3.73h0a15.83,15.83,0,0,0,12,5.32h0A15.82,15.82,0,0,0,60.52,66h0a19.09,19.09,0,0,0,3.71-5.57h0a2.31,2.31,0,0,1,3-1.34h0a2.31,2.31,0,0,1,1.35,3h0a23.35,23.35,0,0,1-4.4,6.81h0a20.5,20.5,0,0,1-15.42,6.82h0Z"/><path d="M19,41.86a2.32,2.32,0,0,1-1.79-2.75h0a15.09,15.09,0,0,1,4.23-7.83h0A11.35,11.35,0,0,1,29.26,28h0A11.31,11.31,0,0,1,37,31.19h0a15,15,0,0,1,4.26,7.62h0a2.32,2.32,0,0,1-1.73,2.78h0a2.31,2.31,0,0,1-2.78-1.74h0a10.55,10.55,0,0,0-2.92-5.28h0a6.7,6.7,0,0,0-4.6-1.92h0a6.67,6.67,0,0,0-4.66,2h0a10.45,10.45,0,0,0-2.9,5.43h0a2.33,2.33,0,0,1-2.27,1.84h0a2.61,2.61,0,0,1-.48,0Z"/><path d="M57.91,41.86a2.34,2.34,0,0,1-1.79-2.76h0a15.18,15.18,0,0,1,4.24-7.82h0A11.33,11.33,0,0,1,68.22,28h0A11.29,11.29,0,0,1,76,31.19h0a15,15,0,0,1,4.27,7.62h0a2.32,2.32,0,0,1-1.74,2.78h0a2.32,2.32,0,0,1-2.78-1.74h0a10.33,10.33,0,0,0-2.92-5.27h0a6.65,6.65,0,0,0-4.6-1.93h0a6.7,6.7,0,0,0-4.66,2h0a10.53,10.53,0,0,0-2.9,5.43h0a2.32,2.32,0,0,1-2.27,1.84h0a2.61,2.61,0,0,1-.48,0Z"/></g></g></svg>