<svg xmlns="http://www.w3.org/2000/svg" viewBox="0 0 97.43 97.43"><defs><style>.cls-1{fill-rule:evenodd;}</style></defs><g id="Camada_2" data-name="Camada 2"><g id="Layer_1" data-name="Layer 1"><path d="M0,48.71A48.71,48.71,0,0,1,48.71,0h0A48.71,48.71,0,0,1,97.43,48.71h0A48.72,48.72,0,0,1,48.71,97.43h0A48.71,48.71,0,0,1,0,48.71ZM17.55,17.55A43.92,43.92,0,0,0,4.64,48.71h0A43.92,43.92,0,0,0,17.55,79.88h0A43.92,43.92,0,0,0,48.71,92.79h0A43.92,43.92,0,0,0,79.88,79.88h0A43.92,43.92,0,0,0,92.79,48.71h0A43.92,43.92,0,0,0,79.88,17.55h0A43.92,43.92,0,0,0,48.71,4.64h0A43.92,43.92,0,0,0,17.55,17.55Z"/><path class="cls-1" d="M77.82,64.26C76.57,63,66.88,72.34,48.71,72.35S20.86,63,19.61,64.26C19,66.33,24.16,73.51,29,76.55a35.49,35.49,0,0,0,39.34,0C73.26,73.51,78.45,66.33,77.82,64.26Z"/><path d="M24.37,48.94a3.26,3.26,0,0,1,1.19-4.44h0l9.24-5.33-9.24-5.33a3.26,3.26,0,0,1-1.19-4.44h0a3.25,3.25,0,0,1,4.44-1.19h0l14.11,8.15a3.25,3.25,0,0,1,1.62,2.81h0A3.25,3.25,0,0,1,42.92,42h0L28.81,50.13a3.29,3.29,0,0,1-1.62.44h0a3.26,3.26,0,0,1-2.82-1.63Z"/><path d="M68.62,50.13,54.51,42a3.24,3.24,0,0,1-1.63-2.81h0a3.24,3.24,0,0,1,1.63-2.81h0l14.11-8.15a3.24,3.24,0,0,1,4.43,1.19h0a3.25,3.25,0,0,1-1.18,4.44h0l-9.24,5.33,9.24,5.33a3.25,3.25,0,0,1,1.18,4.44h0a3.24,3.24,0,0,1-2.81,1.62h0a3.28,3.28,0,0,1-1.62-.43Z"/></g></g></svg>