<svg xmlns="http://www.w3.org/2000/svg" viewBox="0 0 97.43 97.43"><defs><style>.cls-1{fill:#fff;}</style></defs><g id="Camada_2" data-name="Camada 2"><g id="Layer_1" data-name="Layer 1"><path d="M0,48.71A48.71,48.71,0,0,1,48.71,0h0A48.71,48.71,0,0,1,97.43,48.71h0A48.72,48.72,0,0,1,48.71,97.43h0A48.71,48.71,0,0,1,0,48.71ZM17.55,17.55A43.92,43.92,0,0,0,4.64,48.71h0A43.92,43.92,0,0,0,17.55,79.88h0A43.92,43.92,0,0,0,48.71,92.79h0A43.92,43.92,0,0,0,79.88,79.88h0A43.92,43.92,0,0,0,92.79,48.71h0A43.92,43.92,0,0,0,79.88,17.55h0A43.92,43.92,0,0,0,48.71,4.64h0A43.92,43.92,0,0,0,17.55,17.55Z"/><path class="cls-1" d="M70.16,91.14a7.54,7.54,0,0,0,.94.06,7.17,7.17,0,0,0,2.08-.3,8,8,0,0,0,3.41-2.11,8.37,8.37,0,0,0,1.94-3,7,7,0,0,0,.4-2.36,9,9,0,0,0-.06-1,12,12,0,0,0-.85-3,26.72,26.72,0,0,0-3.56-5.8c-1.9-2.46-4.15-4.87-6.21-7.12L65,69.77,61.3,73.48,56.79,78l-2.53,2.54c2.24,2.06,4.66,4.31,7.11,6.2a27.08,27.08,0,0,0,5.81,3.57,11.37,11.37,0,0,0,3,.84Z"/><path d="M81.17,82.14a14.29,14.29,0,0,0-1-3.59,29.13,29.13,0,0,0-3.87-6.32c-2.25-2.92-4.9-5.69-7.15-8.16l-.82-.9-.85.86-4.1,4.1-3.71,3.71-4.51,4.51-3.39,3.39-.86.86.9.82C54.26,83.66,57,86.31,60,88.57a29.52,29.52,0,0,0,6.32,3.87,13.75,13.75,0,0,0,3.59,1h0a8.47,8.47,0,0,0,1.23.08,9.68,9.68,0,0,0,2.75-.4,10.3,10.3,0,0,0,4.4-2.71,10.63,10.63,0,0,0,2.46-3.79,9.36,9.36,0,0,0,.54-3.15A11.87,11.87,0,0,0,81.17,82.14Zm-14,8.16a27.08,27.08,0,0,1-5.81-3.57c-2.45-1.89-4.87-4.14-7.11-6.2L56.79,78l4.51-4.51L65,69.77l3.23-3.24c2.06,2.25,4.31,4.66,6.21,7.12A26.72,26.72,0,0,1,78,79.45a12,12,0,0,1,.85,3,9,9,0,0,1,.06,1,7,7,0,0,1-.4,2.36,8.37,8.37,0,0,1-1.94,3,8,8,0,0,1-3.41,2.11,7.17,7.17,0,0,1-2.08.3,7.54,7.54,0,0,1-.94-.06h0A11.37,11.37,0,0,1,67.18,90.3Z"/><path d="M72.56,84.84c.15-.16-4.56-5.46-11.62-12.63l-1,1C67.11,80.28,72.41,85,72.56,84.84Z"/><path d="M41.91,49.47a3.24,3.24,0,0,1-3.11-3.38h0v-.15h0a14,14,0,0,0-.42-3.27h0a6,6,0,0,0-1.89-3.29h0a4.09,4.09,0,0,0-2.59-.74h0a4.07,4.07,0,0,0-2.59.74h0a4.84,4.84,0,0,0-1.43,2h0A12.69,12.69,0,0,0,29,45.93h0c0,.07,0,.12,0,.14h0a3.25,3.25,0,0,1-3.1,3.39h0a3.25,3.25,0,0,1-3.39-3.1h0s0-.2,0-.44h0A19.76,19.76,0,0,1,23.14,41h0a12.32,12.32,0,0,1,4.25-6.81h0a10.59,10.59,0,0,1,6.51-2.07h0a10.61,10.61,0,0,1,6.51,2.07h0a11.2,11.2,0,0,1,3.45,4.5h0a19,19,0,0,1,1.44,7.23h0c0,.24,0,.39,0,.43h0a3.24,3.24,0,0,1-3.24,3.11h-.14Z"/><path d="M71.54,49.47a3.24,3.24,0,0,1-3.11-3.37h0v0h0v-.15h0A13.32,13.32,0,0,0,68,42.67h0a6,6,0,0,0-1.89-3.3h0a4.09,4.09,0,0,0-2.59-.74h0a4.09,4.09,0,0,0-2.59.74h0a4.84,4.84,0,0,0-1.43,2h0a12.41,12.41,0,0,0-.88,4.61h0v.15h0a3.24,3.24,0,0,1-3.1,3.39h0a3.24,3.24,0,0,1-3.39-3.1h0s0-.2,0-.44h0A20.26,20.26,0,0,1,52.77,41h0A12.32,12.32,0,0,1,57,34.2h0a10.61,10.61,0,0,1,6.51-2.07h0A10.59,10.59,0,0,1,70,34.2h0a11.2,11.2,0,0,1,3.45,4.5h0a18.79,18.79,0,0,1,1.44,7.23h0c0,.24,0,.39,0,.43h0a3.24,3.24,0,0,1-3.24,3.11h-.14Z"/><path d="M48.71,81.08h0a22.75,22.75,0,0,1-17.14-7.57h0A25.49,25.49,0,0,1,26.7,66h0a3.45,3.45,0,0,1,2-4.45h0a3.45,3.45,0,0,1,4.44,2h0l0,.06h0c0,.06.07.16.13.3h0c.13.27.33.69.62,1.21h0a20.26,20.26,0,0,0,2.73,3.78h0a15.78,15.78,0,0,0,12.06,5.33h0A15.74,15.74,0,0,0,60.54,69.1h0a19.59,19.59,0,0,0,3.74-5.59h0a3.45,3.45,0,0,1,4.45-2h0a3.45,3.45,0,0,1,2,4.45h0a25.49,25.49,0,0,1-4.87,7.55h0a22.77,22.77,0,0,1-17.09,7.57h-.06Z"/></g></g></svg>