<svg xmlns="http://www.w3.org/2000/svg" viewBox="0 0 97.43 97.43"><g id="Camada_2" data-name="Camada 2"><g id="Layer_1" data-name="Layer 1"><path d="M0,48.71A48.71,48.71,0,0,1,48.71,0h0A48.71,48.71,0,0,1,97.43,48.71h0A48.72,48.72,0,0,1,48.71,97.43h0A48.71,48.71,0,0,1,0,48.71ZM17.55,17.55A43.92,43.92,0,0,0,4.64,48.71h0A43.92,43.92,0,0,0,17.55,79.88h0A43.92,43.92,0,0,0,48.71,92.79h0A43.92,43.92,0,0,0,79.88,79.88h0A43.92,43.92,0,0,0,92.79,48.71h0A43.92,43.92,0,0,0,79.88,17.55h0A43.92,43.92,0,0,0,48.71,4.64h0A43.92,43.92,0,0,0,17.55,17.55Z"/><ellipse cx="33.55" cy="36.17" rx="5.96" ry="7.91"/><ellipse cx="63.87" cy="36.17" rx="5.96" ry="7.91"/><path d="M54.28,70.74l-.45-.26-.12-.09a10.85,10.85,0,0,1,1.27-1A8.58,8.58,0,0,0,57.42,67a5,5,0,0,0-.36-6c-2.46-2.74-7.14-3.51-10.66-3.4-2.73.09-2.74,4.34,0,4.25,2.1-.06,6.2.14,7.54,2,1,1.41-7,4.65-4.37,8.26a9.86,9.86,0,0,0,3.48,2.68c.34.19.91.78,1.1.84l-.53.44A17.87,17.87,0,0,1,46.28,79c-2.69.5-1.55,4.6,1.13,4.1a20.51,20.51,0,0,0,9.39-4.08C60.41,76,57.38,72.42,54.28,70.74Z"/></g></g></svg>