<svg xmlns="http://www.w3.org/2000/svg" viewBox="0 0 103.18 103.18"><defs><style>.cls-1{fill-rule:evenodd;}.cls-2{fill:#fff;}</style></defs><g id="Camada_2" data-name="Camada 2"><g id="Layer_1" data-name="Layer 1"><path d="M0,48.72A48.72,48.72,0,0,1,48.72,0h0A48.71,48.71,0,0,1,97.43,48.72h0A48.71,48.71,0,0,1,48.72,97.43h0A48.71,48.71,0,0,1,0,48.72ZM17.55,17.55A43.92,43.92,0,0,0,4.64,48.72h0A43.92,43.92,0,0,0,17.55,79.88h0A43.92,43.92,0,0,0,48.72,92.79h0A43.92,43.92,0,0,0,79.88,79.88h0A43.92,43.92,0,0,0,92.79,48.72h0A43.92,43.92,0,0,0,79.88,17.55h0A43.92,43.92,0,0,0,48.72,4.64h0A43.92,43.92,0,0,0,17.55,17.55Z"/><path d="M31.66,66.09a3.25,3.25,0,0,1-2.29-4h0L32.13,51.8,21.82,54.57h0a3.25,3.25,0,0,1-4-2.3h0a3.25,3.25,0,0,1,2.29-4h0l15.74-4.21a3.25,3.25,0,0,1,3.14.84h0a3.24,3.24,0,0,1,.84,3.13h0L35.64,63.79a3.25,3.25,0,0,1-3.13,2.41h0a3.61,3.61,0,0,1-.85-.11Z"/><path d="M44.92,39a3.25,3.25,0,0,1-.84-3.14h0l4.21-15.74a3.25,3.25,0,0,1,4-2.29h0a3.23,3.23,0,0,1,2.29,4h0L51.81,32.13l10.3-2.76a3.25,3.25,0,0,1,4,2.29h0a3.25,3.25,0,0,1-2.3,4h0L48.05,39.86a3.4,3.4,0,0,1-.84.11h0A3.27,3.27,0,0,1,44.92,39Z"/><path class="cls-1" d="M80.29,39.13c-1.76,0-2,13.45-14.86,26.3s-26.3,13.1-26.3,14.86c1,1.91,9.76,3.32,15.36,2A35.47,35.47,0,0,0,82.31,54.49C83.61,48.89,82.2,40.15,80.29,39.13Z"/><path class="cls-2" d="M39.42,78.44c-1.12-2.07-2.3-4-3.33-5.61-.76-1.19-1.44-2.19-2-2.93-.47.77-1.08,1.81-1.76,3-.93,1.66-2,3.66-3,5.81-2,4.31-3.74,9.24-3.72,12.87V92a9.13,9.13,0,0,0,2.89,6.38h0a9.09,9.09,0,0,0,6.25,2.48h.29A9.06,9.06,0,0,0,41.49,98,9.11,9.11,0,0,0,44,91.7v-.28C43.86,87.76,41.78,82.76,39.42,78.44Z"/><path d="M41.46,77.34c-1.16-2.14-2.36-4.12-3.41-5.76-.84-1.3-1.57-2.38-2.12-3.16s-.88-1.23-.92-1.29l-1-1.35-.93,1.38-.48.76c-.49.8-1.32,2.16-2.28,3.9s-2,3.75-3.05,6c-2.06,4.48-3.92,9.55-3.93,13.85,0,.15,0,.29,0,.44a11.4,11.4,0,0,0,3.61,8h0a11.52,11.52,0,0,0,5,2.76,11.41,11.41,0,0,0,2.82.35h.36a11.51,11.51,0,0,0,8-3.61,11.55,11.55,0,0,0,3.11-7.86c0-.12,0-.24,0-.35C46.12,87,43.87,81.82,41.46,77.34Zm2,17.25a9.13,9.13,0,0,1-2,3.38,9.06,9.06,0,0,1-6.38,2.88h-.29a9.09,9.09,0,0,1-6.25-2.48h0A9.13,9.13,0,0,1,25.68,92v-.37c0-3.63,1.71-8.56,3.72-12.87,1-2.15,2-4.15,3-5.81.68-1.24,1.29-2.28,1.76-3,.52.74,1.2,1.74,2,2.93,1,1.6,2.21,3.54,3.33,5.61,2.36,4.32,4.44,9.32,4.54,13v.28A9.21,9.21,0,0,1,43.5,94.59Z"/><path class="cls-2" d="M98.38,28.57h0A9.17,9.17,0,0,0,92,25.68h-.36c-3.63,0-8.55,1.71-12.87,3.71-2.15,1-4.15,2.05-5.81,3-1.24.69-2.28,1.3-3,1.77.74.52,1.74,1.2,2.93,2,1.6,1,3.54,2.21,5.61,3.33,4.32,2.35,9.32,4.44,13,4.54h.29a9.16,9.16,0,0,0,2.89-.46,9.15,9.15,0,0,0,6.27-8.39v-.28a9.33,9.33,0,0,0-.28-2.26A9.2,9.2,0,0,0,98.38,28.57Z"/><path d="M102.83,32a11.47,11.47,0,0,0-2.76-5h0a11.4,11.4,0,0,0-8-3.61h-.44c-4.3,0-9.37,1.87-13.84,3.93-2.22,1-4.27,2.1-6,3.05s-3.1,1.79-3.9,2.28l-.75.48-1.4.92,1.35,1c.08.06.55.41,1.3.93s1.86,1.28,3.15,2.11c1.64,1.06,3.63,2.26,5.77,3.42,4.48,2.41,9.61,4.66,14,4.82h.36a11.49,11.49,0,0,0,10.74-7.41,11.59,11.59,0,0,0,.73-3.7c0-.12,0-.23,0-.35A11.55,11.55,0,0,0,102.83,32Zm-2,3.11a9.16,9.16,0,0,1-6.27,8.39A9.16,9.16,0,0,1,91.7,44h-.29c-3.65-.1-8.65-2.19-13-4.54-2.07-1.12-4-2.3-5.61-3.33-1.19-.76-2.19-1.44-2.93-2,.77-.47,1.81-1.08,3-1.77,1.66-.92,3.66-2,5.81-3,4.32-2,9.24-3.73,12.87-3.71H92a9.17,9.17,0,0,1,6.39,2.88h0a9.2,9.2,0,0,1,2.2,4,9.33,9.33,0,0,1,.28,2.26Z"/></g></g></svg>