<svg xmlns="http://www.w3.org/2000/svg" viewBox="0 0 97.43 101.15"><defs><style>.cls-1{fill:#fff;}</style></defs><g id="Camada_2" data-name="Camada 2"><g id="Layer_1" data-name="Layer 1"><path d="M0,48.71A48.71,48.71,0,0,1,48.71,0h0A48.71,48.71,0,0,1,97.43,48.71h0A48.72,48.72,0,0,1,48.71,97.43h0A48.71,48.71,0,0,1,0,48.71ZM17.55,17.55A43.92,43.92,0,0,0,4.64,48.71h0A43.92,43.92,0,0,0,17.55,79.88h0A43.92,43.92,0,0,0,48.71,92.79h0A43.92,43.92,0,0,0,79.88,79.88h0A43.92,43.92,0,0,0,92.79,48.71h0A43.92,43.92,0,0,0,79.88,17.55h0A43.92,43.92,0,0,0,48.71,4.64h0A43.92,43.92,0,0,0,17.55,17.55Z"/><path class="cls-1" d="M41.19,96.33A9,9,0,0,0,44,98.67a10.06,10.06,0,0,0,4.63,1.09h.12A10.45,10.45,0,0,0,53,98.9a8.86,8.86,0,0,0,3.24-2.57,13.8,13.8,0,0,0,1.81-3.13,29.69,29.69,0,0,0,1.84-7.48A28.63,28.63,0,0,0,60.11,82c0-2.52-.24-5.1-.43-7.46-1.36.16-2.81.33-4.84.5s-4,.33-6,.33H48.8c-2.45,0-4.92-.14-7.34-.34-1.78-.16-2.59-.27-3.72-.46-.19,2.35-.42,4.91-.42,7.42a28.89,28.89,0,0,0,.22,3.76,29.69,29.69,0,0,0,1.84,7.48,13.44,13.44,0,0,0,1.81,3.13Z"/><path d="M61,73.68,61,73l-.72.09c-1.59.19-3.15.38-5.52.59-2.13.18-3.95.32-5.91.32h0c-2.39,0-4.8-.14-7.19-.34A39.62,39.62,0,0,1,37.23,73l-.76-.13-.06.76c-.19,2.53-.48,5.41-.48,8.29a30.36,30.36,0,0,0,.23,4,31.19,31.19,0,0,0,1.94,7.83,14.25,14.25,0,0,0,2,3.46h0a10.17,10.17,0,0,0,3.27,2.7,11.38,11.38,0,0,0,5.28,1.25h.13a11.65,11.65,0,0,0,4.79-1,10.11,10.11,0,0,0,3.75-3,14.55,14.55,0,0,0,2-3.46,30.77,30.77,0,0,0,1.94-7.83A30.21,30.21,0,0,0,61.5,82C61.5,79.09,61.2,76.2,61,73.68ZM39.38,93.2a29.69,29.69,0,0,1-1.84-7.48A28.89,28.89,0,0,1,37.32,82c0-2.51.23-5.07.42-7.42,1.13.19,1.94.3,3.72.46,2.42.2,4.89.34,7.34.34h.06c2,0,3.86-.14,6-.33s3.48-.34,4.85-.5c.18,2.36.42,4.94.42,7.46a28.63,28.63,0,0,1-.22,3.75,29.69,29.69,0,0,1-1.84,7.48,13.44,13.44,0,0,1-1.81,3.13A8.86,8.86,0,0,1,53,98.9a10.45,10.45,0,0,1-4.22.86h-.12A10.06,10.06,0,0,1,44,98.67a9,9,0,0,1-2.84-2.34h0A13.8,13.8,0,0,1,39.38,93.2Z"/><path d="M48.71,92.92c.25,0,.73-7.13.82-18.28H47.9C48,85.79,48.47,92.92,48.71,92.92Z"/><path d="M21.65,59.09a2.09,2.09,0,0,1,1.45-2.57h0A2.1,2.1,0,0,1,25.67,58h0c2.34,8.56,11.69,15.31,23,15.3h0c11.36,0,20.71-6.74,23.05-15.3h0a2.09,2.09,0,0,1,2.57-1.46h0a2.09,2.09,0,0,1,1.45,2.57h0c-3,10.73-14.1,18.36-27.07,18.37h0c-13,0-24-7.64-27.06-18.37Z"/><ellipse cx="33.67" cy="36.17" rx="5.92" ry="8.67"/><path d="M69.68,36.17c0,4.79-2.65,8.67-5.92,8.67S57.84,41,57.84,36.17s2.65-8.66,5.92-8.66S69.68,31.39,69.68,36.17Z"/></g></g></svg>