<svg xmlns="http://www.w3.org/2000/svg" viewBox="0 0 97.43 97.43"><g id="Camada_2" data-name="Camada 2"><g id="Layer_1" data-name="Layer 1"><path d="M0,48.71A48.71,48.71,0,0,1,48.71,0h0A48.71,48.71,0,0,1,97.43,48.71h0A48.72,48.72,0,0,1,48.71,97.43h0A48.71,48.71,0,0,1,0,48.71ZM17.55,17.55A43.92,43.92,0,0,0,4.64,48.71h0A43.92,43.92,0,0,0,17.55,79.88h0A43.92,43.92,0,0,0,48.71,92.79h0A43.92,43.92,0,0,0,79.88,79.88h0A43.92,43.92,0,0,0,92.79,48.71h0A43.92,43.92,0,0,0,79.88,17.55h0A43.92,43.92,0,0,0,48.71,4.64h0A43.92,43.92,0,0,0,17.55,17.55Z"/><path d="M48.68,66.92C66.35,66.9,76,60.63,76,60.63c0,10.08-11.23,22.25-27.31,22.3S21.36,70.71,21.36,60.63C21.36,60.63,31,66.9,48.68,66.92Z"/><path d="M24.47,47a43.91,43.91,0,0,0,4.72,1.37,49.42,49.42,0,0,0,6.16,1l.2,0a46.06,46.06,0,0,0,2.88-4.29,48,48,0,0,0,2.79-5.38,27.69,27.69,0,0,0,1.69-5.15,14.14,14.14,0,0,0,0-6,9.59,9.59,0,0,0-2.27-4.44,8,8,0,0,0-2.93-2,8.38,8.38,0,0,0-6.34.13,7.56,7.56,0,0,0-4.62,7.07l-.12-.11a7.59,7.59,0,0,0-9.1-.82,8.4,8.4,0,0,0-3.47,4,7.88,7.88,0,0,0-.56,3.48,9.38,9.38,0,0,0,1.67,4.67,13.82,13.82,0,0,0,4.4,4.14A27,27,0,0,0,24.47,47Z"/><path d="M73,47a43.91,43.91,0,0,1-4.72,1.37,49.42,49.42,0,0,1-6.16,1l-.2,0A46.06,46.06,0,0,1,59,45.1a46.41,46.41,0,0,1-2.79-5.38,27.69,27.69,0,0,1-1.69-5.15,14.14,14.14,0,0,1,0-6,9.59,9.59,0,0,1,2.27-4.44,8,8,0,0,1,2.93-2,8.38,8.38,0,0,1,6.34.13,7.58,7.58,0,0,1,4.62,7.07l.12-.11a7.59,7.59,0,0,1,9.1-.82,8.4,8.4,0,0,1,3.47,4,7.88,7.88,0,0,1,.56,3.48,9.38,9.38,0,0,1-1.67,4.67,13.93,13.93,0,0,1-4.4,4.14A27,27,0,0,1,73,47Z"/></g></g></svg>