<svg xmlns="http://www.w3.org/2000/svg" viewBox="0 0 97.43 97.43"><defs><style>.cls-1{fill-rule:evenodd;}</style></defs><g id="Camada_2" data-name="Camada 2"><g id="Layer_1" data-name="Layer 1"><path d="M0,48.71A48.71,48.71,0,0,1,48.71,0h0A48.71,48.71,0,0,1,97.43,48.71h0A48.72,48.72,0,0,1,48.71,97.43h0A48.71,48.71,0,0,1,0,48.71ZM17.55,17.55A43.92,43.92,0,0,0,4.64,48.71h0A43.94,43.94,0,0,0,17.55,79.88h0A43.92,43.92,0,0,0,48.71,92.79h0A43.92,43.92,0,0,0,79.88,79.88h0A43.94,43.94,0,0,0,92.79,48.71h0A43.92,43.92,0,0,0,79.88,17.55h0A43.92,43.92,0,0,0,48.71,4.64h0A43.92,43.92,0,0,0,17.55,17.55Z"/><path d="M33.94,46.72c0,4.37-2.67,7.91-6,7.91s-6-3.54-6-7.91,2.67-7.92,6-7.92S33.94,42.35,33.94,46.72Z"/><path class="cls-1" d="M28.53,65.87c.73-1.16,7.46,4.58,19.1,3.43S65,61.15,65.84,62.15c.51,1.76-2.42,8.33-5.38,11.28a20.1,20.1,0,0,1-12.29,6.43A18.6,18.6,0,0,1,35.24,76C32,73.62,28.24,67.71,28.53,65.87Z"/><path d="M17.86,34.76c.85.3,4-4.74,10.05-6.92,6-2.41,11.68-.72,12.11-1.51.7-.73-5.54-4.4-13.23-1.45S16.86,34.67,17.86,34.76Z"/><path d="M78.73,43.46c-.84.31-4-4.7-10.12-6.81-6-2.36-11.69-.61-12.12-1.39-.71-.72,5.49-4.46,13.22-1.59S79.74,43.37,78.73,43.46Z"/><path d="M64.91,48.2A22.68,22.68,0,0,0,56,49.31c.71-3.44,4.22-5.94,8.76-5.7a9.86,9.86,0,0,1,8.84,6.65A22.68,22.68,0,0,0,64.91,48.2Z"/></g></g></svg>