<svg xmlns="http://www.w3.org/2000/svg" viewBox="0 0 97.43 97.43"><defs><style>.cls-1{fill-rule:evenodd;}</style></defs><g id="Camada_2" data-name="Camada 2"><g id="Layer_1" data-name="Layer 1"><path d="M0,48.71A48.71,48.71,0,0,1,48.71,0h0A48.71,48.71,0,0,1,97.43,48.71h0A48.72,48.72,0,0,1,48.71,97.43h0A48.71,48.71,0,0,1,0,48.71ZM17.55,17.55A43.92,43.92,0,0,0,4.64,48.71h0A43.92,43.92,0,0,0,17.55,79.88h0A43.92,43.92,0,0,0,48.71,92.79h0A43.92,43.92,0,0,0,79.88,79.88h0A43.92,43.92,0,0,0,92.79,48.71h0A43.92,43.92,0,0,0,79.88,17.55h0A43.92,43.92,0,0,0,48.71,4.64h0A43.92,43.92,0,0,0,17.55,17.55Z"/><path d="M90.17,26.08c-.8-2-1.28-1.76-3.38-1.55-.58.07-1.21.18-1.9.32L75.47,26.2,61.89,28.14l-3.7.53c-2,.35-8.14,1.13-9.48,1.3-1.33-.17-7.42-.95-9.47-1.3l-3.7-.53L22,26.2l-9.42-1.35c-.69-.14-1.32-.25-1.9-.32-2.1-.21-2.58-.44-3.38,1.55-.68,1.68,0,2.29.78,2.63a7.36,7.36,0,0,0,1.4.38Q10.16,34,10.9,39l.92,6.2c.66,3.58,2.9,6.49,6.48,6.49H35.41c3.58,0,4.49-1.82,6.48-6.49l2-4.86,2.22-5.5,2.64-.06,2.65.06,2.22,5.5,2,4.86c2,4.67,2.9,6.49,6.48,6.49H79.13c3.58,0,5.82-2.91,6.48-6.49l.92-6.2L88,29.09a7.46,7.46,0,0,0,1.39-.38C90.13,28.37,90.85,27.76,90.17,26.08Z"/><path class="cls-1" d="M48.71,68.7c-12.3-.13-19-7.58-19.86-6.52-.41,1.78,3.38,7.54,6.89,10.07,2.88,2.46,8.34,4.41,13,4.42s10.1-2,13-4.42C65.2,69.72,69,64,68.58,62.18,67.74,61.12,61,68.57,48.71,68.7Z"/></g></g></svg>