<svg xmlns="http://www.w3.org/2000/svg" viewBox="0 0 97.76 97.43"><defs><style>.cls-1{fill-rule:evenodd;}.cls-2{fill:#fff;}</style></defs><g id="Camada_2" data-name="Camada 2"><g id="Layer_1" data-name="Layer 1"><path d="M0,48.71A48.71,48.71,0,0,1,48.71,0h0A48.71,48.71,0,0,1,97.43,48.71h0A48.72,48.72,0,0,1,48.71,97.43h0A48.71,48.71,0,0,1,0,48.71ZM17.55,17.55A43.92,43.92,0,0,0,4.64,48.71h0A43.92,43.92,0,0,0,17.55,79.88h0A43.92,43.92,0,0,0,48.71,92.79h0A43.92,43.92,0,0,0,79.88,79.88h0A43.92,43.92,0,0,0,92.79,48.71h0A43.92,43.92,0,0,0,79.88,17.55h0A43.92,43.92,0,0,0,48.71,4.64h0A43.92,43.92,0,0,0,17.55,17.55Z"/><path class="cls-1" d="M77.82,64.26C76.57,63,66.88,72.34,48.71,72.35S20.86,63,19.61,64.26C19,66.33,24.16,73.51,29,76.55a35.5,35.5,0,0,0,39.35,0C73.27,73.51,78.45,66.33,77.82,64.26Z"/><path d="M22.51,46.37s0-.2,0-.44h0A19.81,19.81,0,0,1,23.14,41h0a12.27,12.27,0,0,1,4.25-6.81h0a10.59,10.59,0,0,1,6.51-2.07h0a10.61,10.61,0,0,1,6.51,2.07h0a11.2,11.2,0,0,1,3.45,4.5h0a19,19,0,0,1,1.44,7.23h0c0,.24,0,.39,0,.43h0a3.26,3.26,0,0,1-3.38,3.11h0a3.25,3.25,0,0,1-3.11-3.38h0v-.15h0a14,14,0,0,0-.42-3.27h0a6,6,0,0,0-1.89-3.29h0a4.09,4.09,0,0,0-2.59-.74h0a4.07,4.07,0,0,0-2.59.74h0a4.84,4.84,0,0,0-1.43,2h0A12.69,12.69,0,0,0,29,45.93h0c0,.07,0,.12,0,.14h0a3.25,3.25,0,0,1-3.1,3.39h-.15a3.24,3.24,0,0,1-3.24-3.1Z"/><path d="M71.54,49.47a3.26,3.26,0,0,1-3.11-3.37h0v0h0v-.15h0A13.32,13.32,0,0,0,68,42.67h0a6,6,0,0,0-1.89-3.3h0a4.09,4.09,0,0,0-2.59-.74h0a4.09,4.09,0,0,0-2.59.74h0a4.84,4.84,0,0,0-1.43,2h0a12.62,12.62,0,0,0-.88,4.61h0v.14h0a3.24,3.24,0,0,1-3.1,3.39h0a3.24,3.24,0,0,1-3.39-3.1h0s0-.2,0-.44h0A20.38,20.38,0,0,1,52.77,41h0A12.27,12.27,0,0,1,57,34.2h0a10.61,10.61,0,0,1,6.51-2.07h0A10.59,10.59,0,0,1,70,34.2h0a11.2,11.2,0,0,1,3.45,4.5h0a18.79,18.79,0,0,1,1.44,7.23h0c0,.24,0,.39,0,.43h0a3.24,3.24,0,0,1-3.24,3.11h-.14Z"/><path class="cls-2" d="M87.37,13.37c-.85-1.42-1.6-2.6-2.16-3.45-.55.85-1.31,2-2.15,3.45-1.08,1.8-2.3,4-3.46,6.31C77.17,24.53,75,30.1,75.06,34.17h0a10.4,10.4,0,0,0,.63,3.51,10.18,10.18,0,0,0,2.37,3.69h0A10.14,10.14,0,0,0,82.45,44a10.36,10.36,0,0,0,2.81.39h0a10.19,10.19,0,0,0,3.29-.56,10.24,10.24,0,0,0,6.24-6.14,10.26,10.26,0,0,0,.62-3.52c0-4.06-2.13-9.64-4.58-14.49C89.69,17.34,88.45,15.16,87.37,13.37Z"/><path d="M92.93,18.62c-1.21-2.39-2.47-4.61-3.57-6.45-.88-1.45-1.65-2.66-2.22-3.54s-.93-1.38-1-1.45L85.23,5.8l-1,1.36c-.07.09-.24.36-.55.81-.57.86-1.53,2.34-2.64,4.22s-2.35,4.06-3.55,6.46c-2.48,5-4.76,10.72-4.78,15.52v0a12.62,12.62,0,0,0,.78,4.31A12.48,12.48,0,0,0,76.42,43h0a12.58,12.58,0,0,0,5.39,3.17,12.82,12.82,0,0,0,3.41.48h0A12.51,12.51,0,0,0,97.76,34.15C97.73,29.34,95.44,23.63,92.93,18.62Zm1.89,19.05a10.19,10.19,0,0,1-9.53,6.7h0A10.36,10.36,0,0,1,82.45,44a10.14,10.14,0,0,1-4.39-2.59h0a10.18,10.18,0,0,1-2.37-3.69,10.4,10.4,0,0,1-.63-3.51h0c0-4.07,2.11-9.64,4.54-14.49,1.16-2.33,2.38-4.51,3.46-6.31.84-1.41,1.6-2.6,2.15-3.45.56.85,1.31,2,2.16,3.45,1.08,1.79,2.32,4,3.49,6.29,2.45,4.85,4.59,10.43,4.58,14.49A10.26,10.26,0,0,1,94.82,37.67Z"/></g></g></svg>