<svg xmlns="http://www.w3.org/2000/svg" viewBox="0 0 97.43 103.9"><defs><style>.cls-1{fill:#fff;}</style></defs><g id="Camada_2" data-name="Camada 2"><g id="Layer_1" data-name="Layer 1"><path d="M1.54,60.81A48.73,48.73,0,0,1,0,48.68H0A48.71,48.71,0,0,1,36.62,1.54h0A48.73,48.73,0,0,1,48.75,0h0A48.72,48.72,0,0,1,95.89,36.62h0l-2.24.58-2.25.57A44.09,44.09,0,0,0,48.75,4.64h0A44.31,44.31,0,0,0,37.77,6h0A44.09,44.09,0,0,0,4.64,48.68h0A44.31,44.31,0,0,0,6,59.66H6A44.08,44.08,0,0,0,48.68,92.79h0a44.31,44.31,0,0,0,11-1.39h0A44.09,44.09,0,0,0,92.79,48.75h0a44.31,44.31,0,0,0-1.39-11h0l2.25-.57,2.24-.58a48.73,48.73,0,0,1,1.54,12.13h0A48.72,48.72,0,0,1,60.81,95.89h0a48.73,48.73,0,0,1-12.13,1.54h0A48.71,48.71,0,0,1,1.54,60.81Z"/><path d="M17.86,48.74a15.94,15.94,0,0,1-.84-5.1h0A16.08,16.08,0,0,1,28,28.4h0a15.94,15.94,0,0,1,5.1-.84h0a16.09,16.09,0,0,1,15.25,11h0l-.44.15-.45.14A15.14,15.14,0,0,0,33.1,28.49h0a15,15,0,0,0-4.81.79h0A15.14,15.14,0,0,0,18,43.64h0a15,15,0,0,0,.79,4.81h0A15.14,15.14,0,0,0,33.1,58.79h0A15.27,15.27,0,0,0,37.91,58h0A15.16,15.16,0,0,0,48.25,43.64h0a15,15,0,0,0-.79-4.81h0l.45-.14.44-.15a16.2,16.2,0,0,1,.83,5.1h0a16.09,16.09,0,0,1-11,15.25h0a16.2,16.2,0,0,1-5.1.83h0a16.07,16.07,0,0,1-15.24-11Z"/><path d="M38.69,41.77A5.89,5.89,0,1,0,35,49.23,5.89,5.89,0,0,0,38.69,41.77Zm-6.31-.27a1.38,1.38,0,1,1,.87-1.74A1.37,1.37,0,0,1,32.38,41.5Z"/><path d="M60.5,43.09a8.32,8.32,0,0,1-.43-2.63h0a8.29,8.29,0,0,1,5.65-7.85h0a8.37,8.37,0,0,1,2.63-.43h0a8.3,8.3,0,0,1,7.86,5.65h0l-.44.15.44-.15a8.31,8.31,0,0,1,.42,2.63h0A8.27,8.27,0,0,1,71,48.31h0a8,8,0,0,1-2.63.43h0a8.27,8.27,0,0,1-7.85-5.65ZM66,33.49a7.35,7.35,0,0,0-5,7h0a7.39,7.39,0,0,0,.38,2.34h0a7.37,7.37,0,0,0,7,5h0a7.69,7.69,0,0,0,2.34-.38h0a7.37,7.37,0,0,0,5-7h0a7.3,7.3,0,0,0-.39-2.33h0a7.37,7.37,0,0,0-7-5h0a7.29,7.29,0,0,0-2.33.38Z"/><path d="M71.15,39.53a2.95,2.95,0,1,0-1.86,3.73A2.94,2.94,0,0,0,71.15,39.53ZM68,39.39a.69.69,0,0,1-.87-.43.71.71,0,0,1,.44-.88.69.69,0,0,1,.87.44A.68.68,0,0,1,68,39.39Z"/><path d="M83.31,51.8A159.67,159.67,0,0,1,52.6,63.53,159.42,159.42,0,0,1,20,68c7.27,15.07,22.8,21.11,38.15,17.24S84.2,68.5,83.31,51.8ZM81,61.32A161,161,0,0,1,54.51,71a160.67,160.67,0,0,1-27.89,4.27,31.94,31.94,0,0,1-4.26-5.88A162.06,162.06,0,0,0,53,64.93a162.22,162.22,0,0,0,29-10.82A32.05,32.05,0,0,1,81,61.32Z"/><path class="cls-1" d="M35.15,99a9.64,9.64,0,0,0,3.22,2.4,12.45,12.45,0,0,0,5.31,1.13h.14a12.6,12.6,0,0,0,4.82-.89A9.82,9.82,0,0,0,52.33,99a13,13,0,0,0,2.05-3.19,27.9,27.9,0,0,0,2.08-7.62,27,27,0,0,0,.25-3.89c0-2.64-.27-5.39-.48-7.81a52,52,0,0,1-5.58.77c-2.41.19-4.51.33-6.78.33H43.8c-2.75,0-5.44-.08-8.21-.35a34.61,34.61,0,0,1-4.3-.75c-.22,2.47-.51,5.28-.51,8A26.28,26.28,0,0,0,31,88.16a27.9,27.9,0,0,0,2.08,7.62,13,13,0,0,0,2,3.19Z"/><path d="M57.55,75.58l-.06-.76-.76.13a55.06,55.06,0,0,1-6.19.9c-2.41.18-4.47.32-6.69.32h0c-2.72,0-5.37-.08-8.06-.34a31.61,31.61,0,0,1-4.9-.93L30,74.68l-.07.84c-.21,2.62-.58,5.81-.58,8.91a28.26,28.26,0,0,0,.25,3.94,29.21,29.21,0,0,0,2.2,8,14.48,14.48,0,0,0,2.26,3.53h0a11.08,11.08,0,0,0,3.68,2.74,14,14,0,0,0,5.9,1.27h.14a14.1,14.1,0,0,0,5.35-1,11.32,11.32,0,0,0,4.21-3,14.73,14.73,0,0,0,2.26-3.54,28.85,28.85,0,0,0,2.19-8,27.51,27.51,0,0,0,.27-4.1C58.1,81.25,57.76,78.16,57.55,75.58ZM35.15,99a13,13,0,0,1-2-3.19A27.9,27.9,0,0,1,31,88.16a26.28,26.28,0,0,1-.24-3.73c0-2.69.29-5.5.51-8a34.61,34.61,0,0,0,4.3.75c2.77.27,5.46.35,8.21.35h.07c2.27,0,4.37-.14,6.78-.33a52,52,0,0,0,5.58-.77c.21,2.42.48,5.17.48,7.81a27,27,0,0,1-.25,3.89,27.9,27.9,0,0,1-2.08,7.62A13,13,0,0,1,52.33,99a9.82,9.82,0,0,1-3.69,2.64,12.6,12.6,0,0,1-4.82.89h-.14a12.45,12.45,0,0,1-5.31-1.13A9.64,9.64,0,0,1,35.15,99Z"/><path d="M43.74,95.52c.28,0,.81-7.28.92-18.65H42.82C42.92,88.24,43.46,95.52,43.74,95.52Z"/></g></g></svg>