<svg width="100" height="100" viewBox="0 0 100 100" fill="none" xmlns="http://www.w3.org/2000/svg">
<path d="M86.7911 91.3525C86.7911 94.2184 70.2579 96.5424 49.8629 96.5424C29.4685 96.5424 12.9348 94.2184 12.9348 91.3525C12.9348 88.4872 29.4685 86.1631 49.8629 86.1631C70.2579 86.1631 86.7911 88.4872 86.7911 91.3525Z" fill="#022130"/>
<path d="M69.6707 90.2401H57.2202V76.9839H69.6707V90.2401Z" fill="#00A9F7"/>
<path d="M70.6122 85.843C70.4226 86.8555 69.9868 87.5071 69.1608 87.4251C68.0019 87.3127 67.0431 86.1241 66.6079 85.4892C66.4454 85.252 66.356 85.0921 66.356 85.0921C66.356 85.0921 66.2526 85.2196 66.0598 85.414C65.5373 85.9407 64.3591 86.9653 62.7602 87.3503C60.5689 87.8786 59.3416 85.3173 59.3416 85.3173C57.9392 86.8984 57.1884 87.389 56.4418 86.7312C56.1492 86.4726 56.0065 85.9245 55.9642 85.2144C55.7939 82.3882 57.2208 76.9846 57.2208 76.9846H69.6712C69.6712 76.9846 71.1619 82.9201 70.6122 85.843Z" fill="white"/>
<path d="M69.6706 90.2402C69.6706 90.2402 71.0996 90.6478 71.3504 91.3443C71.6012 92.0408 68.8853 91.1395 69.0248 91.2507C69.1638 91.362 71.1691 92.0387 70.3337 92.4567C69.4977 92.8741 66.9359 91.7523 66.9359 91.7523C66.9359 91.7523 69.6665 93.1239 67.7155 93.4233C65.8909 93.7033 56.9344 92.9488 57.2202 90.2402C57.4903 87.6863 69.6706 90.2402 69.6706 90.2402Z" fill="#00A9F7"/>
<path d="M31.4275 90.2401H43.8779V76.9839H31.4275V90.2401Z" fill="#00A9F7"/>
<path d="M30.4862 85.843C30.6759 86.8555 31.1111 87.5071 31.9377 87.4251C33.0966 87.3127 34.0553 86.1241 34.4906 85.4892C34.6525 85.252 34.7424 85.0921 34.7424 85.0921C34.7424 85.0921 34.8459 85.2196 35.0387 85.414C35.5606 85.9407 36.7388 86.9653 38.3382 87.3503C40.529 87.8786 41.7563 85.3173 41.7563 85.3173C43.1587 86.8984 43.91 87.389 44.6567 86.7312C44.9493 86.4726 45.0919 85.9245 45.1342 85.2144C45.3046 82.3882 43.8771 76.9846 43.8771 76.9846H31.4272C31.4272 76.9846 29.9365 82.9201 30.4862 85.843Z" fill="white"/>
<path d="M31.4273 90.2402C31.4273 90.2402 29.9983 90.6478 29.7481 91.3443C29.4973 92.0408 32.2127 91.1395 32.0731 91.2507C31.9342 91.362 29.9288 92.0387 30.7643 92.4567C31.6003 92.8741 34.1621 91.7523 34.1621 91.7523C34.1621 91.7523 31.4315 93.1239 33.3825 93.4233C35.2076 93.7033 44.1636 92.9488 43.8778 90.2402C43.6082 87.6863 31.4273 90.2402 31.4273 90.2402Z" fill="#00A9F7"/>
<path d="M77.3184 74.5772C76.7196 74.9686 76.1073 75.3484 75.4787 75.7131C73.4352 76.9028 71.2455 77.9515 68.9314 78.8402C63.3297 80.9939 57.0097 82.2051 50.3202 82.2051C43.6073 82.2051 37.2642 80.9861 31.6495 78.8188C31.324 78.695 31.0016 78.5654 30.6808 78.4348C28.745 77.6375 26.9006 76.7278 25.1644 75.7147C24.5342 75.3484 23.9187 74.967 23.3168 74.5725C20.7457 72.8901 19.3809 69.8205 19.9473 66.7989C19.9682 66.6944 19.9896 66.5899 20.0126 66.4854L22.739 53.9953L28.745 26.483C29.1243 24.742 29.987 23.1662 31.185 21.8552C36.9141 19.574 43.4207 18.2861 50.3202 18.2861C57.2176 18.2861 63.7227 19.5741 69.4502 21.8537C70.6498 23.1662 71.5125 24.742 71.8918 26.483L77.8749 53.8892L79.2182 60.0426L80.6242 66.4854C80.6472 66.5899 80.6702 66.6944 80.6895 66.7989C81.2575 69.8215 79.8906 72.8932 77.3184 74.5772Z" fill="white"/>
<path d="M83.0821 73.5889C81.4979 75.0357 80.2768 73.4071 80.2768 73.4071C80.2768 73.4071 81.7696 78.202 79.3264 78.3838C76.8833 78.5651 76.3414 76.6659 76.3414 76.6659C76.3414 76.6659 76.703 80.2836 74.4396 80.1937C72.2582 80.107 71.465 78.5865 71.4123 78.4799C71.4713 78.6226 72.5513 81.2638 71.3192 80.7371C70.36 80.3249 69.4519 79.7062 68.9315 78.8405C68.7627 78.5625 68.6368 78.261 68.56 77.9324C68.4011 77.2563 70.7184 71.2748 73.0847 65.4375C75.3053 59.9555 77.5719 54.6026 77.8749 53.8894C77.8958 53.8366 77.9073 53.8089 77.9073 53.8089C77.9073 53.8089 79.004 56.2835 80.1316 59.0788C81.5308 62.5424 82.9739 66.4982 82.4337 66.8367C81.5423 67.3953 81.0559 66.8336 80.9775 66.7307C81.1933 67.051 84.6156 72.1865 83.0821 73.5889Z" fill="white"/>
<g opacity="0.600006">
<g opacity="0.600006">
<path opacity="0.600006" d="M83.0821 73.589C81.498 75.0357 80.2769 73.4071 80.2769 73.4071C80.2769 73.4071 81.7696 78.202 79.3265 78.3839C76.8833 78.5652 76.3415 76.6659 76.3415 76.6659C76.3415 76.6659 76.7031 80.2836 74.4396 80.1938C72.3272 80.1102 71.5152 78.6801 71.4191 78.4951C71.5205 78.7454 72.5221 81.2508 71.3193 80.7372C70.36 80.3249 69.4519 79.7063 68.9315 78.8405C63.3299 80.9942 57.0098 82.2048 50.3199 82.2048C43.6074 82.2048 37.2644 80.9859 31.6492 78.8191C31.1308 79.6958 30.216 80.3213 29.2488 80.7372C28.0461 81.2508 29.0477 78.7454 29.149 78.4951C29.0524 78.6801 28.2409 80.1102 26.1264 80.1938C24.4868 80.2596 24.2266 78.3755 24.2068 77.3347C26.4112 77.8441 28.5712 78.2057 30.6805 78.4345C31.054 78.4758 31.4255 78.5113 31.7949 78.5437C42.9214 79.5213 51.8654 81.2084 59.6077 77.5771C66.3546 79.2204 65.4031 73.6846 65.4031 73.6846C65.4031 73.6846 69.8955 75.2803 71.7174 73.9442C72.5179 73.357 70.9389 70.9164 70.9389 70.9164C70.9389 70.9164 74.0174 71.1923 76.3885 70.5705C81.6652 69.1864 78.3087 60.9656 79.2183 60.0423C79.7241 59.5287 80.0318 59.188 80.1316 59.0788C81.5309 62.5424 82.974 66.4982 82.4337 66.8368C81.5424 67.3953 81.0559 66.8337 80.9776 66.7307C81.1933 67.051 84.6157 72.1866 83.0821 73.589Z" fill="#A2E3FF"/>
</g>
</g>
<path d="M72.175 28.0132C72.175 28.0132 71.3071 14.1922 49.9424 4.70955C49.0437 4.31089 48.0797 4.06114 47.0975 4.01046C41.2957 3.7095 42.6803 9.94282 44.3403 11.1503C44.3403 11.1503 38.0244 6.55969 36.6299 10.3096C35.8608 12.3787 38.0824 16.3627 38.0824 16.3627C38.0824 16.3627 33.2603 13.7136 32.1856 16.1939C31.1103 18.6747 33.0121 20.3284 33.0121 20.3284C33.0121 20.3284 29.8558 21.9643 28.781 27.3392L72.175 28.0132Z" fill="white"/>
<path d="M17.8545 23.6521C17.8706 23.7305 17.8884 23.811 17.9083 23.8909C18.3848 25.8873 19.5531 27.9021 21.8113 29.2966C21.8672 29.3321 21.9241 29.3671 21.9816 29.3995C23.8208 30.4858 26.3575 31.1687 29.7892 31.1295L31.8609 22.256C31.8609 22.256 27.485 23.428 25.138 22.546C25.081 22.5262 25.0256 22.5032 24.9713 22.4786C24.5016 22.2738 24.127 21.9749 23.9075 21.5538C23.6066 20.978 23.3349 20.3839 23.0647 19.8197C23.0402 19.7685 23.0172 19.7199 22.9926 19.6707C22.119 17.8692 21.2271 16.4339 19.3697 17.0395C18.2244 17.4125 17.182 20.4759 17.8545 23.6521Z" fill="#00A9F7"/>
<path d="M21.8114 29.2965C21.8668 29.332 21.9243 29.367 21.9817 29.3994C21.7654 26.2049 24.1271 23.5344 25.1381 22.5459C25.0812 22.526 25.0252 22.5031 24.9714 22.4785C23.9275 23.5151 21.6562 26.1427 21.8114 29.2965Z" fill="#9DDEFD"/>
<path d="M17.8542 23.6522C17.8704 23.7305 17.8882 23.811 17.9081 23.8909C19.1652 21.5575 21.7243 20.327 23.0645 19.8197C23.04 19.7685 23.017 19.7199 22.9924 19.6708C21.6575 20.1781 19.16 21.3856 17.8542 23.6522Z" fill="#9DDEFD"/>
<path d="M81.1319 23.6521C81.1157 23.7305 81.0974 23.811 81.0776 23.8909C80.6016 25.8873 79.4333 27.9021 77.1751 29.2966C77.1192 29.3321 77.0617 29.3671 77.0048 29.3995C75.1656 30.4858 72.6289 31.1687 69.1972 31.1295L67.1255 22.256C67.1255 22.256 71.5014 23.428 73.8484 22.546C73.9053 22.5262 73.9607 22.5032 74.0151 22.4786C74.4848 22.2738 74.8594 21.9749 75.0789 21.5538C75.3798 20.978 75.6515 20.3839 75.9216 19.8197C75.9462 19.7685 75.9692 19.7199 75.9937 19.6707C76.8673 17.8692 77.7592 16.4339 79.6167 17.0395C80.762 17.4125 81.8044 20.4759 81.1319 23.6521Z" fill="#00A9F7"/>
<path d="M77.175 29.2965C77.1196 29.332 77.0621 29.367 77.0046 29.3994C77.2209 26.2049 74.8593 23.5344 73.8483 22.5459C73.9052 22.526 73.9611 22.5031 74.0149 22.4785C75.0589 23.5151 77.3301 26.1427 77.175 29.2965Z" fill="#9DDEFD"/>
<path d="M81.132 23.6522C81.1158 23.7305 81.0976 23.811 81.0777 23.8909C79.8211 21.5575 77.2619 20.327 75.9218 19.8197C75.9463 19.7685 75.9693 19.7199 75.9939 19.6708C77.3288 20.1781 79.8258 21.3856 81.132 23.6522Z" fill="#9DDEFD"/>
<path d="M34.7661 26.2463C34.7661 26.2463 32.8737 28.1827 31.4216 29.5469C29.9691 30.9111 27.7689 29.9868 28.165 27.8744C28.561 25.762 32.4776 23.7817 32.4776 23.7817L34.59 26.0702L34.7661 26.2463Z" fill="white"/>
<path d="M66.0546 25.3662C66.0546 25.3662 73.7686 23.1121 71.8918 26.4832C70.0151 29.8549 66.9789 29.1067 66.9789 29.1067L66.0546 25.3662Z" fill="white"/>
<path d="M66.1101 23.7951C66.7402 23.7381 69.2597 22.306 68.7445 23.8526C68.2293 25.3986 67.4273 26.1432 66.9691 25.9713C66.5109 25.7999 66.1101 23.7951 66.1101 23.7951Z" fill="white"/>
<path d="M32.609 22.4209C32.609 22.4209 29.6882 23.2224 30.4328 24.1389C31.1773 25.0548 32.5515 25.4561 32.609 22.4209Z" fill="white"/>
<path d="M93.334 34.5138C93.9097 34.9453 95.6946 56.4887 76.5657 53.5063L74.6215 43.5267C74.6215 43.5267 81.5993 43.7922 82.5696 40.1723C82.7843 39.374 82.9171 38.5281 83.0064 37.6832C83.3241 34.7013 82.4599 31.5512 83.4239 30.7936C84.659 29.8218 85.9193 33.4808 85.9193 33.4808C85.9193 33.4808 85.9135 29.1337 87.5024 30.4577C89.0542 31.7524 88.9252 33.1067 88.8708 33.2185C88.9806 33.0858 89.7883 29.8395 90.9942 31.5627C92.2022 33.2869 91.6521 35.4004 91.5706 35.4495C91.6505 35.4103 92.1667 33.6381 93.334 34.5138Z" fill="#0090F6"/>
<path d="M77.2579 53.6092C77.0301 53.5795 76.7997 53.5439 76.5656 53.5063L76.469 53.0611L74.1632 42.4864C74.1632 42.4864 81.8527 44.4975 82.4113 38.0238C82.452 37.551 82.5649 37.086 82.7859 36.6654C83.0968 36.0697 83.5957 35.4809 84.1815 36.1382C85.1784 37.2594 85.4271 39.1263 85.4271 39.1263C85.4271 39.1263 86.795 35.3304 88.4136 37.0729C89.9764 38.7548 89.3332 40.0887 89.2872 40.1791C89.2909 40.1739 89.294 40.1687 89.3003 40.1629C89.3055 40.1561 89.3118 40.1478 89.3202 40.1363C89.5741 39.816 91.1008 37.9794 92.418 38.3264C92.5162 38.3509 92.6129 38.3885 92.7075 38.4408C94.1825 39.2412 94.9432 56.0623 77.2579 53.6092Z" fill="white"/>
<g opacity="0.5">
<g opacity="0.5">
<path opacity="0.5" d="M92.7074 38.4406C92.6123 38.3883 92.5161 38.3507 92.4179 38.3261C92.2789 38.3277 92.1609 38.3523 92.0673 38.4019C92.0673 38.4019 92.7204 42.387 90.7428 46.2017C90.4387 47.7378 89.5479 51.192 87.7327 50.7975C87.3565 50.7155 87.1867 50.5201 87.1622 50.2515C84.824 51.8702 81.4195 53.0076 76.4689 53.0609L76.565 53.5061C76.7996 53.5437 77.03 53.5798 77.2578 53.609C94.9426 56.0626 94.1819 39.241 92.7074 38.4406Z" fill="#A2E3FF"/>
</g>
</g>
<path d="M9.08728 34.5138C8.51098 34.9453 6.72614 56.4887 25.8556 53.5063L27.7993 43.5267C27.7993 43.5267 20.8214 43.7922 19.8511 40.1723C19.6369 39.374 19.5042 38.5281 19.4143 37.6832C19.0966 34.7013 19.9614 31.5512 18.9974 30.7936C17.7617 29.8218 16.502 33.4808 16.502 33.4808C16.502 33.4808 16.5072 29.1337 14.9183 30.4577C13.367 31.7524 13.4961 33.1067 13.5499 33.2185C13.4407 33.0858 12.6329 29.8395 11.4265 31.5627C10.219 33.2869 10.7687 35.4004 10.8507 35.4495C10.7708 35.4103 10.254 33.6381 9.08728 34.5138Z" fill="#0090F6"/>
<path d="M25.1634 53.6092C25.3906 53.5795 25.6216 53.5439 25.8557 53.5063L25.9518 53.0611L28.2575 42.4864C28.2575 42.4864 20.568 44.4975 20.01 38.0238C19.9693 37.551 19.8564 37.086 19.6354 36.6654C19.3245 36.0697 18.8255 35.4809 18.2393 36.1382C17.2429 37.2594 16.9942 39.1263 16.9942 39.1263C16.9942 39.1263 15.6258 35.3304 14.0076 37.0729C12.4449 38.7548 13.0875 40.0887 13.1335 40.1791C13.1304 40.1739 13.1267 40.1687 13.1205 40.1629C13.1157 40.1561 13.109 40.1478 13.1011 40.1363C12.8472 39.816 11.3205 37.9794 10.0027 38.3264C9.90452 38.3509 9.80838 38.3885 9.71329 38.4408C8.23882 39.2412 7.47807 56.0623 25.1634 53.6092Z" fill="white"/>
<g opacity="0.5">
<g opacity="0.5">
<path opacity="0.5" d="M16.7651 51.1463C16.8053 51.4885 16.681 51.7064 16.3032 51.7137C15.0132 51.7372 13.7278 50.2883 13.3981 48.6503C9.37966 44.3325 10.3536 38.4017 10.3536 38.4017C10.2601 38.3525 10.1425 38.328 10.003 38.3264C9.90476 38.351 9.80862 38.3886 9.71353 38.4409C8.23906 39.2413 7.47831 56.0624 25.1636 53.6093C25.3909 53.5795 25.6218 53.544 25.8554 53.5064L25.952 53.0612C21.9754 53.0178 18.9961 52.2754 16.7651 51.1463Z" fill="#A2E3FF"/>
</g>
</g>
<path d="M63.0583 49.8078C54.7925 51.9892 46.1061 52.0352 37.8157 49.9421L37.0205 49.7425C35.87 49.4526 34.8354 48.9405 33.9503 48.2628C31.2961 46.2371 29.9784 42.7349 30.9032 39.3037L32.9179 31.8263C34.1907 27.1004 38.4767 23.8176 43.3698 23.8176H56.5993C59.2582 23.8176 61.7396 24.7878 63.654 26.4326C65.2627 27.812 66.4702 29.6695 67.0512 31.8263L69.0889 39.3915C70.3126 43.9345 67.6077 48.6066 63.0583 49.8078Z" fill="#00A9F7"/>
<g opacity="0.199997">
<g opacity="0.199997">
<path opacity="0.57" d="M63.0583 49.8078C54.7925 51.9892 46.1061 52.0352 37.8157 49.9421L37.0205 49.7425C35.87 49.4526 34.8354 48.9405 33.9503 48.2628C33.9587 48.2545 33.9634 48.2513 33.9634 48.2513C67.5993 54.5374 63.9387 28.2164 63.654 26.4326C65.2627 27.812 66.4702 29.6695 67.0512 31.8263L69.0889 39.3915C70.3126 43.9345 67.6076 48.6066 63.0583 49.8078Z" fill="#022130"/>
</g>
</g>
<path d="M57.3109 42.1802C57.0016 43.2079 56.4028 44.2733 55.2836 45.0978C55.2 45.1584 55.1149 45.219 55.025 45.278C54.3557 45.718 53.5176 46.0785 52.4737 46.3074C52.3833 46.3283 52.2934 46.3471 52.2004 46.3648C51.6931 46.4625 51.1382 46.5299 50.531 46.5644C48.4134 46.682 46.8245 46.1469 45.6708 45.3073C44.6399 44.5565 43.9544 43.5617 43.5485 42.5695C42.8692 40.9137 44.2993 39.1628 46.0569 39.4977C48.0027 39.8692 50.9809 40.1033 54.6859 39.3363C56.3521 38.9909 57.8005 40.5485 57.3109 42.1802Z" fill="#BB235A"/>
<path d="M55.2832 45.0982C54.2262 45.8767 52.7057 46.4431 50.5311 46.5643C48.4135 46.6819 46.8246 46.1474 45.6709 45.3072C46.5398 43.4989 48.3889 42.2522 50.5311 42.2522C52.5882 42.2522 54.3751 43.4043 55.2832 45.0982Z" fill="#ED275E"/>
<path d="M55.2834 45.0978C55.1998 45.1584 55.1146 45.219 55.0248 45.2781C54.3555 45.718 53.5174 46.0785 52.4735 46.3074C52.4426 46.2912 52.4259 46.2812 52.4259 46.2812C52.4259 46.2812 52.706 43.6448 53.5848 43.4844C54.4621 43.3255 55.2834 45.0978 55.2834 45.0978Z" fill="white"/>
<path d="M64.9921 40.853C64.9921 41.8546 64.1807 42.6661 63.1796 42.6661C62.178 42.6661 61.3666 41.8546 61.3666 40.853C61.3666 39.8519 62.178 39.0405 63.1796 39.0405C64.1807 39.0405 64.9921 39.8519 64.9921 40.853Z" fill="#FFBADC"/>
<path d="M38.4182 40.853C38.4182 41.8546 37.6067 42.6661 36.6051 42.6661C35.604 42.6661 34.7926 41.8546 34.7926 40.853C34.7926 39.8519 35.604 39.0405 36.6051 39.0405C37.6067 39.0405 38.4182 39.8519 38.4182 40.853Z" fill="#FFBADC"/>
<path d="M45.172 36.1404C44.881 37.1107 44.0037 37.8375 42.9331 37.885C41.5814 37.9456 40.4377 36.8965 40.3771 35.5448C40.317 34.1926 41.3641 33.0494 42.7158 32.9887C43.894 32.936 44.9149 33.7234 45.1966 34.8216C44.4964 34.8671 43.9577 35.144 43.9577 35.4805C43.9577 35.8149 44.4834 36.0897 45.172 36.1404Z" fill="#1F2223"/>
<path d="M58.7271 35.8838C58.436 36.8541 57.5588 37.5809 56.4887 37.6284C55.1365 37.6885 53.9928 36.6393 53.9321 35.2876C53.8721 33.936 54.9191 32.7922 56.2708 32.7321C57.449 32.6794 58.47 33.4668 58.7516 34.565C58.0515 34.61 57.5128 34.8869 57.5128 35.2239C57.5128 35.5578 58.0384 35.8326 58.7271 35.8838Z" fill="#1F2223"/>
<path d="M65.825 24.3022C65.825 24.3022 56.1025 33.0137 53.0689 30.9138C50.0353 28.8139 54.2356 25.3138 54.2356 25.3138C54.2356 25.3138 44.7461 32.7028 43.5016 29.28C42.9571 26.8692 45.5241 25.0024 45.5241 25.0024C45.5241 25.0024 39.7819 29.7664 36.5791 28.4252C34.4755 27.5432 36.0362 25.2181 39.1461 22.2802C44.6536 17.0767 65.6693 22.7468 65.825 24.3022Z" fill="white"/>
<path d="M32.0078 77.9321C31.9571 78.1479 31.8871 78.3511 31.7952 78.5439C31.7507 78.6395 31.7032 78.7304 31.6494 78.8187C31.1305 79.696 30.2162 80.3209 29.2485 80.7368C28.0165 81.264 29.0965 78.6223 29.1555 78.4802C29.1033 78.5868 28.3096 80.1067 26.1266 80.1934C24.4865 80.2592 24.2263 78.3757 24.207 77.3343C24.2002 76.9712 24.2216 76.711 24.2248 76.6703C24.2133 76.7079 24.1297 76.9649 23.9191 77.268C23.5424 77.8061 22.7587 78.4964 21.2419 78.3835C20.1253 78.3004 19.8311 77.2544 19.839 76.1431C19.8505 74.8227 20.2909 73.4073 20.2909 73.4073C20.2909 73.4073 19.0699 75.0354 17.4862 73.5886C15.9511 72.1868 19.3745 67.0512 19.5903 66.7309C19.5119 66.8338 19.026 67.395 18.1341 66.837C17.1555 66.2251 22.6604 53.8086 22.6604 53.8086C22.6604 53.8086 22.6881 53.8724 22.7388 53.9952C23.66 56.1703 32.3088 76.6457 32.0078 77.9321Z" fill="white"/>
<path d="M75.3488 42.3109C75.3488 42.3109 47.7659 70.4831 14.4315 68.7134C14.4315 68.7134 15.3166 71.516 15.906 71.516C16.4964 71.516 53.0765 72.5485 76.9711 42.7534L75.3488 42.3109Z" fill="#FFB553"/>
<path d="M18.6085 86.545C17.3713 86.1197 16.1669 85.6955 15.0211 85.2566C5.56608 81.6341 0.145758 77.042 12.997 62.906C15.1768 60.5051 23.6077 61.3071 27.622 67.7254C28.0034 68.3357 28.3457 68.9972 28.6383 69.7104C32.0078 77.9323 30.0704 90.4857 18.6085 86.545Z" fill="#FFB553"/>
<path d="M18.6085 86.545C17.3713 86.1197 16.1669 85.6955 15.0211 85.2566C26.3524 87.1025 27.5384 69.319 27.622 67.7254C28.0035 68.3357 28.3457 68.9972 28.6383 69.7104C32.0078 77.9323 30.0704 90.4857 18.6085 86.545Z" fill="#F4943A"/>
<path d="M8.69016 68.6711C8.69016 68.6711 6.78881 74.964 14.0718 75.9191C21.3548 76.8743 27.086 71.3818 28.7575 70.5464" stroke="#C67630" stroke-width="1.81132" stroke-miterlimit="10" stroke-linecap="round"/>
<path d="M13.8322 72.698C13.8322 73.2117 13.4158 73.6286 12.9016 73.6286C12.3875 73.6286 11.9711 73.2117 11.9711 72.698C11.9711 72.1844 12.3875 71.7675 12.9016 71.7675C13.4158 71.7675 13.8322 72.1844 13.8322 72.698Z" fill="#C67630"/>
</svg>
