<svg xmlns="http://www.w3.org/2000/svg" viewBox="0 0 2305.55 1320.02"><defs><style>.cls-1{isolation:isolate;}.cls-2{fill:#e17e43;}.cls-3{fill:#ffe0ad;}.cls-4{fill:#f2d19f;}.cls-5{fill:#f18647;}.cls-11,.cls-12,.cls-17,.cls-24,.cls-26,.cls-27,.cls-6{fill:none;stroke-linecap:round;stroke-linejoin:round;}.cls-6{stroke:#e2be91;stroke-width:5.84px;}.cls-7{fill:#f1ebf0;}.cls-10,.cls-20,.cls-22,.cls-7{mix-blend-mode:multiply;}.cls-8{fill:#6baaba;}.cls-9{fill:#f4d3a2;}.cls-10{fill:#f0e9ec;}.cls-11,.cls-12{stroke:#524743;}.cls-11{stroke-width:10.06px;}.cls-12{stroke-width:5.78px;}.cls-13{fill:#524743;}.cls-14{fill:#c8c8c8;mix-blend-mode:screen;opacity:0.3;}.cls-15{fill:#84462c;}.cls-16{fill:#f5a162;}.cls-17,.cls-27{stroke:#e18d58;}.cls-17{stroke-width:4.46px;}.cls-18{fill:#fcc884;}.cls-19{fill:#ea8d55;}.cls-21,.cls-22{fill:#f2f0e8;}.cls-23{fill:#e3965b;}.cls-24,.cls-26{stroke:#af6d36;}.cls-24{stroke-width:3.42px;}.cls-25{fill:#f1876f;}.cls-26{stroke-width:6.83px;}.cls-27{stroke-width:5.13px;}</style></defs><g class="cls-1"><g id="Camada_2" data-name="Camada 2"><g id="Capa_1" data-name="Capa 1"><path class="cls-2" d="M958.28,947.79c41.18,34.57,113.14,133.46,201.42,187.18,39.27,23.9,180.27,17.49,169.63,66.82.59,17.1-36.68,16-68.56,15.59-39.58.62-71.78,1-124.5.37-129.09-1.6-149.12.35-237.62-69.22Z"/><path class="cls-3" d="M1159.7,1135c-3.15-1.9-6.22-4-9.33-6-15.4,15.78-27.07,56-19.33,88.75l5.23.06c52.72.66,84.92.25,124.5-.37,31.88.45,69.15,1.51,68.56-15.59C1340,1152.46,1199,1158.87,1159.7,1135Z"/><path class="cls-4" d="M439,916.63c75.85,108.07,35.22,242.41,8.79,285.16-9.93,16,34.83,18.47,31.76,65.58-33.72,2.89-51.67,1.81-83,0C363.19,1248.47,195.73,922.45,209,804.48Z"/><path class="cls-5" d="M1128.59,911.32c0,36.49-11.91,71-19.07,94.16-14,45.35-85,245.56-240.66,263.68-184.94,21.48-392.93-73.83-530-183-143-93-251.65-156-267.13-281.67C71,741.39,100.27,661,170.29,605.37c46.76-37.19,99.91-47.07,152-40.22,29.88,4,59.37,13.38,87.08,26.39,65.58,30.64,293.81,208.21,391.93,235.91a91.75,91.75,0,0,0,17,3.41C887,837.4,904.05,811.18,950.57,792,1010.24,767.37,1128.59,853,1128.59,911.32Z"/><path class="cls-3" d="M950.57,792c-39,16.1-100.26,33.93-145.65,36.48,1.41,76.73,48.38,158.69,108.68,215.11,23.76,22.21,50.69,52.16,77.81,75.21,9.72,8.25,31.65,27.75,46.35,35.37,36.76-56.39,66.41-119.75,73.19-141.71,7.17-23.18,17.64-64.66,17.64-101.15C1128.59,852.94,1010.23,767.35,950.57,792Z"/><path class="cls-5" d="M878.59,1013.74c46,30.47,120,122,208.22,175.7,39.27,23.91,180.26,17.48,169.65,66.81.56,17.1-36.68,16-68.58,15.61-39.59.6-71.78,1-124.49.35-129.11-1.6-149.14.35-237.62-69.22Z"/><path class="cls-3" d="M1086.81,1189.44c-3.15-1.91-6.22-4-9.32-6-15.41,15.77-27.06,56-19.32,88.74l5.22.06c52.71.66,84.9.25,124.49-.35,31.9.43,69.14,1.49,68.58-15.61C1267.07,1206.92,1126.08,1213.35,1086.81,1189.44Z"/><path class="cls-6" d="M1241,1265.65c-.27-7.53-7.06-14.57-13.6-16.54"/><path class="cls-6" d="M471.59,1263.68c1.35-7.43-5-18-10.27-22"/><path class="cls-6" d="M454.61,1265c1.35-7.45-5-18-10.27-22.06"/><path class="cls-6" d="M1253,1257.39c-.27-7.53-7.06-14.57-13.6-16.54"/><path class="cls-6" d="M1315.71,1211.63c-.27-7.52-7.08-14.57-13.6-16.54"/><path class="cls-6" d="M1326,1201.94c-.27-7.52-7.08-14.57-13.61-16.53"/><path class="cls-7" d="M1120.87,1264.18c-45.94,2-91.6-8.82-137.45-11.92-19.92-1.38-51.24-4.94-68.61-18.07-21.31-16.09-37.52-40.83-54.38-80.4-5.17,23.18,6.48,61.55,14.28,77.66,4.67,9.71-7.16,13.38-21.88,14.59-18.73,1.53-55.49,2.7-91.44-3.41-164.2-27.87-330.95-112.05-360.66-147.18-32.15-38-34.11-90.16-39.18-137.27-3.8-35.45-10.4-77.28-37.54-103.37-4.11-4-8.47-7.64-12.93-11.19,26.38,73.22,44,160.7,17.22,235.66l10.55,6.87a933.07,933.07,0,0,0,127.2,84.67l-.62-.24c5,2.78,10,5.44,14.88,8.05l3.13,1.64c5.32,2.8,10.58,5.5,15.67,8,1.76.89,3.47,1.81,5.25,2.7,0,0,0,0,0-.08,39.87,19.71,69.82,31.15,69.8,31.13,95.61,37.71,198.26,58.3,294.68,47.09a191.18,191.18,0,0,0,45-11c36.24,13.32,74.42,13.09,149.54,14,52.71.66,84.9.25,124.49-.35,28.75.39,61.77,1.24,67.6-11.11C1209.35,1264.45,1168.42,1262.08,1120.87,1264.18Z"/><path class="cls-5" d="M199.71,178.59C164.93,177,99.58,218.27,77.81,238,47,265.92,28.25,286.71,10.44,327c-8.22,18.63-12.93,36.07-9.07,46.7,2.3-2.76,19.93-16.36,21.78-19C11.77,382,11.58,446,31.09,474.85c.58-2.06,11.64-14.78,11.67-15,.06,33.93,26.81,53.07,52.92,88.12,18.55,24.93,76.72,71.94,85.67,80.63l35.82-15.85c-34-46.47-65.21-114.3-72.78-169.89-6.85-50.21-6.5-105.74,6-155.2,7.66-30.24,27.45-76.07,51.88-106.93"/><path class="cls-8" d="M1068.18,984.87c-21.73,6-44.73,7.51-67.39,7.8-33.47.46-69-7-96.92-26.58-24.93-17.49-48.94-46.84-57.22-75.86a338.5,338.5,0,0,1-10.87-55.45c-1.15-10.67,14.27-7.55,24.94-8.7.07,0,15.51-3.94,16.67,6.67,5.21,48,18.74,68.94,47.82,93.41,15.66,13.14,40.88,24,62.47,27,47.42,6.6,126.12-21.88,142.14-34.33,8.47-6.58,8.26,11.15,7,21.81s-6.24,16-15,21.34A209.76,209.76,0,0,1,1068.18,984.87Z"/><path class="cls-5" d="M954.78,784.16c-67-17.33-143.7-164.45-131.53-190.58,8-9.55,62.94,27.77,90.07,45,21.29,13.54,45.59,23.77,69.58,31.88,15.76,10.75,11.69,42.26,5.28,64.71C981,760.36,967,787.34,954.78,784.16Z"/><path class="cls-9" d="M971.92,737.38c-5,9.42-11.51,16.36-18.78,17.35-19.66-7-41.08-24.69-60.18-45.51-.63-.66-1.25-1.33-1.81-2C858.5,671,833.12,625.79,836,610a2.29,2.29,0,0,1,.16-.61,4.58,4.58,0,0,1,.55-1.78c6.72-7.49,51.23,24.71,74.74,38.72C929.9,657.23,954.39,666.8,972.8,678,985.62,685.77,982.49,717.25,971.92,737.38Z"/><path class="cls-10" d="M971.92,737.38c-5,9.42-11.51,16.36-18.78,17.35-19.66-7-41.08-24.69-60.18-45.51-.63-.66-1.25-1.33-1.81-2-32.31-37.4-57.68-81.9-55.16-97.27a2.29,2.29,0,0,1,.16-.61,4.58,4.58,0,0,1,.55-1.78c1.13,0,22,38.79,39,58.48,11.33,13.33,29.38,30.05,43.23,41C930.7,716.48,956.57,729.62,971.92,737.38Z"/><path class="cls-5" d="M872.6,870.85c.93,2.43,1.86,4.88,3,7.24,20.58,43,46.53,67.76,95.75,77.94,32.06,6.65,70.3-4,97.29-13.29,41.3-14.17,81.57-37.15,123.37-62.22,62-37.19,116-119.17,107.29-162-18.38-90.38-85.4-51-156.9-37.42-83.7-94-292-15.32-291.71,98.37C850.72,799.66,862.37,845.3,872.6,870.85Z"/><path class="cls-3" d="M1302,716.24c-20.9-96-88.1-48.67-159.6-35.12-23.1-25.94-55.74-38.67-90.84-41.2.25.23.5.42.75.64,60.67,7.7,103.24,94,101.67,151.78-1,38.19-17.1,74.75-44.53,103.73-16.69,17.64-36,38.14-57.85,52.09,5.75-.83,11.29-3.49,17-5.42,42.75-14.36,82.42-27.56,123-54.6C1300.19,815.65,1312.08,762.64,1302,716.24Z"/><path class="cls-11" d="M1095.94,716.17c-18.2-18.18-46.84.87-29.44,24.83"/><path class="cls-12" d="M1237.36,755c29,10.58,80.21-16.14,53.24-63.65"/><path class="cls-13" d="M1278.46,658.19c9.56,15,16.1,25,14.17,32.81-1.68,6.74-21.37,7.47-29.82,6.39-18.76-2.41-61.29-29.3-41.92-39C1239.83,648.89,1265.11,637.26,1278.46,658.19Z"/><path class="cls-14" d="M1256.85,651.05c1.65-.31,9.75-1.41,9.75,2.38,0,3.2-7.14,5.13-9.31,5.77-3.78,1.12-7.58,2-11.58,2.95-2.63.62-8.47.1-5.48-3.61,1.72-2.1,4.47-3.24,7-4.4A42.33,42.33,0,0,1,1256.85,651.05Z"/><path class="cls-5" d="M873.88,854c-69.11-4.47-172-134.59-164.93-162.55,6.06-10.89,67,15.47,96.92,27.36,23.45,9.32,49.23,14.81,74.3,18.26,17.51,7.62,19.43,39.33,17.33,62.59C895.17,825.65,886.5,854.77,873.88,854Z"/><path class="cls-9" d="M881.92,804.79C878.8,815,873.71,823,866.74,825.36c-20.63-3.16-45-16.56-67.65-33.42-.73-.54-1.48-1.09-2.16-1.63-38.87-29.5-72.25-69.1-72.39-85.2a1.86,1.86,0,0,1,0-.62,5.14,5.14,0,0,1,.21-1.85c5.22-8.61,55,14.65,80.67,24,20.19,7.29,46.07,12.08,66.24,19.66C885.71,751.52,888.55,783,881.92,804.79Z"/><path class="cls-10" d="M881.92,804.79C878.8,815,873.71,823,866.74,825.36c-20.63-3.16-45-16.56-67.65-33.42-.73-.54-1.48-1.09-2.16-1.63-38.73-30.68-72-69.63-72.39-85.2a1.86,1.86,0,0,1,0-.62,5.14,5.14,0,0,1,.21-1.85c1.1-.21,28.91,34,49.29,50.12,13.63,11,34.49,24,50.14,32.17C837.52,792,865.41,800,881.92,804.79Z"/><path class="cls-15" d="M789.12,874c-10.68,17.9-4.46,21.54,7.77,43.66,13.8,24.93-24.1,32.84-22.36,46.8,4.26,34.47,2.85,31.79-12.35,37.73-53.29,20.82-154.86-12.26-212.34-1.76-43.51,8-79.14-75.4-161.37-95.66-19.45-4.79-.25-87.62-69.13-106-54.15-14.47-64.78-85.69-51.95-137.74,7.23-29.41,28.56-70.27,54.86-95.86,29.88,4,59.37,13.38,87.08,26.39,65.58,30.64,293.81,208.21,391.93,235.91C806.31,838.87,798.38,858.46,789.12,874Z"/><path class="cls-5" d="M315.83,856.59c75.86,108,21.2,302.45-5.25,345.2-9.92,16,34.86,18.47,31.78,65.58-33.71,2.89-51.66,1.81-83,0C226,1248.47,58.52,922.45,71.73,804.48Z"/><path class="cls-3" d="M310.58,1201.79c9.59-15.52,21-43.11,28.11-77.1-15.55-23.58-62.56-26.81-89.69-24.07-29.62,3-57.69,11-70.81,35.86,35,69.85,68.2,123.55,81.16,130.89,31.35,1.81,49.3,2.89,83,0C345.44,1220.26,300.66,1217.81,310.58,1201.79Z"/><path class="cls-6" d="M335.75,1263.68c1.34-7.43-5-18-10.27-22"/><path class="cls-6" d="M315.61,1265c1.36-7.45-3.68-16-8.91-20.11"/><path class="cls-16" d="M1517.15,487.71s-1.69.9-4.82,2.61c-4.07,2.22-9.4,5.06-16.71,8.53a255.15,255.15,0,0,1-28.29,11.57,177.61,177.61,0,0,1-43.74,9.18,130.81,130.81,0,0,1-86.75-23.75c-55.39-39.28-73.34-118.29-72.74-182.47.34-37.31-14.92-73.91-47.63-93.57-18.68-11.23-60.23-18.67-48.4-49.92,12.62-33.38,59.69-10.41,80.34.79,10.45,5.66,22.45,11.85,31.5,19.49C1321.17,225,1324.26,244,1346,304c10.89,30.58,12.8,65.18,29.17,93.91,20.59,36.21,57,3,81.83-11.51,26.82-15.67,61.12-11.21,80,14.92a59,59,0,0,1-13.35,82.33,55.65,55.65,0,0,1-6.16,3.88Z"/><path class="cls-17" d="M1175.91,169.24c5.69-.81,16.73,1.55,19.08,6.19"/><path class="cls-17" d="M1183.32,157.44c5.69-.81,16.71,1.53,19.07,6.18"/><path class="cls-16" d="M2304.77,1035c-1.93-21.75-7.84-44.33-18.3-64.54a155.82,155.82,0,0,0-8.49-14.64c-1.47-2.39-3.15-4.63-4.71-6.92s-3.67-4.93-5.54-7.32L2263,936l-6.46-7a143.83,143.83,0,0,0-13.33-11.66c-18-13.63-35.92-21.63-53.1-27.84a278.31,278.31,0,0,0-50.16-12.69c-7.7-1.22-15.8-1.87-23.17-2.65-7.24-.34-14.42-1-20.93-1-13.19-.4-25-.35-35.3-.11l-26.18.59c-6.78.17-12.22.28-16.23.22H2012a27.92,27.92,0,0,0-3.84,55.59l5.9.82c3.75.55,9.69,1.27,17.39,2.12,7.26.79,16,1.78,26.14,2.91,9.89,1.17,20.86,2.45,32.46,4.19,5.9.76,11.55,2,17.66,3,5.84,1.39,11.55,2.44,17.75,4.28a225.11,225.11,0,0,1,35.43,13.67c11.53,5.64,22.41,12.74,29.59,20a60.51,60.51,0,0,1,4.55,5.19,25.26,25.26,0,0,0,1.55,2.36c.52.69-.68-.87-.5-.63l.11.17.19.32.43.66.81,1.3c.52.83,1.22,1.88,1.56,2.51l3,6.72a75,75,0,0,1,2.72,7.55c6.15,20.07,3.41,42.58-4.81,64.34a170.06,170.06,0,0,1-7.43,16.83c-6.62,9.15-14.36,18.45-18.22,23.51-8.78,11.58-22.93,18-34.8,26.74,2.2.5,5.06,2.74,7.94,3.08-14.86,7.39-33.74,11.48-49.95,16.17,4,1.16,11.89,6.26,15.61,7.53-17.52,7.95-28.11,27.36-46.41,35.53,4.7,1.54,15.83-.66,21.11-.39-14.45,16.56-17.71,21.66-21.63,32.28-4.36,11.85-6.26,37.59-3.19,50.68,2.74-4.27,11.87-17.41,16.31-19.27,7.29,20.47-3.43,36.4-14.09,56.52,16.94-5.38,24.93-13.09,38.91-21.35,3.14,4.39,2.77,16.06,4.21,21.35,6.17-5.26,21.54-19.47,24.8-25.86,4.47,3.7-.72,14.3,5.38,21.07,8.38-7.17,29.64-19.32,39.12-26.76.68,4-1.08,14.43,0,18.22,27.92-13.09,42.21-35.6,57.65-61.29,3.37,2.64,10.27,9.21,14.9,10.15,2.83-20.73,16.86-43.76,21.3-63.73,1.54,3.67,4,16.57,6.85,19.49,12-21,10.85-59,14.57-83a283.19,283.19,0,0,0,8.13-31.24A222.67,222.67,0,0,0,2304.77,1035Z"/><path class="cls-18" d="M2274.24,1133.07c-8.94,5.45-24.17-1.52-26.87-1.81-14.21-1.54-14.77-12.88-26.06-21.61-12.29-9.52-32.65,5-45.67,0-.4.52-.83,1-1.18,1.5-8.78,11.58-22.93,18-34.8,26.74,2.2.5,5.06,2.74,7.94,3.08-14.86,7.39-33.74,11.48-49.95,16.17,4,1.16,11.89,6.26,15.61,7.53-17.52,7.95-28.11,27.36-46.41,35.53,4.7,1.54,15.83-.66,21.11-.39-14.45,16.56-17.71,21.66-21.63,32.28-4.36,11.85-6.26,37.59-3.19,50.68,2.74-4.27,11.87-17.41,16.31-19.27,7.29,20.47-3.43,36.4-14.09,56.52,16.94-5.38,24.93-13.09,38.91-21.35,3.14,4.39,2.77,16.06,4.21,21.35,6.17-5.26,21.54-19.47,24.8-25.86,4.47,3.7-.72,14.3,5.38,21.07,8.38-7.17,29.64-19.32,39.12-26.76.68,4-1.08,14.43,0,18.22,27.92-13.09,42.21-35.6,57.65-61.29,3.37,2.64,10.27,9.21,14.9,10.15,2.83-20.73,16.86-43.76,21.3-63.73,1.54,3.67,4,16.57,6.85,19.49,12-21,10.85-59,14.57-83,.43-1.34.79-2.75,1.2-4.11C2286.7,1122.44,2283.73,1127.3,2274.24,1133.07Z"/><path class="cls-19" d="M1626,901.53c-3.17,59.17,25.06,131.7,116,182.43,13.12,7.32,27.81,13.59,33.44,28.91,5.38,14.56,1.81,32-13.54,38.89-11.32,5.06-76.43-2.24-74.71,20,1.23,16.13,39.31,14.29,70.42,14.18,17.27-.09,39.59,1.55,50.41-6.18,14.89-10.64,22-41.46,31.61-56.16,14.83-22.56,22.5-46.78,53-66.29"/><path class="cls-16" d="M2039.9,995.47c-9.59,23.41-28.21,51.08-33.44,76.47-4.69,22.72,12.26,86.54,3.24,106.36-6.79,15-34.75,12.31-53.55,11.68-34.51-1.17-22.83-24-6.22-38,12.8-10.79-5.65-43.12-49.85-70.81-31.86-20-82.71-8.14-133.7-42.94"/><path class="cls-16" d="M1617.72,172.11c-31.84,3.59-60.77,17.39-80.3,25.92-38.19,16.71-109.6,114.47-110.07,252.08-.48,163.55,67.1,310.91,162.54,439.29,95.32,115.57,152,154.16,251.81,166.42,56.94,10.26,152.91.53,191.65-50.47,32.86-43.27,24-108.16,12.9-152.93-6.4-25.68-17.54-50.48-31.61-73.38-33.23-54.23-210.74-235.88-244.59-318.78a79.21,79.21,0,0,1-4.67-14.54c-12.49-59.31-16.81-120.5-14.52-155.07C1754.61,234.07,1668.65,166.35,1617.72,172.11Z"/><g class="cls-20"><path class="cls-21" d="M2046.25,852.42c-6.4-25.68-17.54-50.48-31.61-73.38-33.23-54.23-210.74-235.88-244.59-318.78a79.21,79.21,0,0,1-4.67-14.54c-12.49-59.31-16.81-120.5-14.52-155.07,3.75-56.58-82.21-124.3-133.14-118.54-31.84,3.59-60.77,17.39-80.3,25.92-38.19,16.71-109.6,114.47-110.07,252.08-.25,83.2,12.9,151.33,42.6,225.78,33.77,14.54,103.34,25.48,148.71,11.8a140.21,140.21,0,0,0,76.55-57.3c9.57-14.44,17.73-32.79,31-44.46,65.79-58.06,154.3,45.14,184.25,97.58,22.23,38.93,35.63,86.07,32.77,131.18-2.7,43-18,68.31-43.79,101.12-27.81,35.41-50.37,69.45-96.36,80.85-32.65,8.11-64.27,16.7-97.34,8.91,7.41,5,31,21.8,61.7,33.56,20.51,13.46,52.39,24.88,77.18,26.86,90.13,17.92,152.8-4.48,189.93-58.61a127,127,0,0,1,7-14.75C2064.54,950.08,2056.34,893,2046.25,852.42Z"/></g><path class="cls-18" d="M1446.1,338.39c-15.91,2.33-53.48,41.56-51.76,82,5.44.63,16.51-6.61,21.05-5.75-7.94,13.06-31.3,28.38-25.61,46.28,3.86,4.29,16.5-2.82,19.94-4.22-9.21,21.9-29.86,33.31-27.35,50.82.87,5.56,11.93,9.27,15.2,6.54-3,18.92-6.67,37.7-4.32,57.52,6.6-3.76,10.93-.58,17.44-7.35-.8,15.15.8,29.82,9.51,40.19,26.72-36.22,43.65,24.19,56.87-19.31,17.41,19,23.58,24.44,39.29,19.31,7-2.29,4.75-11.85,14.86-13.57,5.31-.88,18.88,15.39,31.93,15.39,9.73,0,12.92-16.45,13.85-23.69,29.56,17.71,31.32,11.54,45.14-13.77,22.39,25.33,28.91-6.86,45.3-10.19,12.86-2.6,21.49,25.85,33.56,10.19,16.54-26.24,24.87,2.07,44.25-6.78,2.62-4.67,11.16-20.54,11.66-27.63,17.54,4.66,22.55-19.22,17.17-48.95,13.43,12.25,21.14-23.7,8.61-36,17.06-7.31,11.77-23.9-4.54-29.95,2.81-2.73,12.08-3.41,11.89-10.62-.83-6.88-16.42-19.2-25.43-24.85,11.35-21.59-16.42-29.21-27.7-39.47Z"/><path class="cls-22" d="M1595.51,411.47c55.52,2.57,122.43-7.67,167-48.23-6.73-7.57-19-12.7-25.61-18.73l-290.81-6.12c-7.1,1-18.53,9.48-28.84,22.07C1458,399.42,1537,408.78,1595.51,411.47Z"/><path class="cls-23" d="M1503.58,114.61c4.48-36.4,29.18-111.94,40.63-114.61,11.87.09,56.2,71.58,64.87,103.14-19.27,3.09-30.69,2.58-50.76,4.66Z"/><path class="cls-16" d="M1779.39,269.82c-4,26.76-9.34,63.2-26.42,82.6-39.85,45.34-115.6,51.68-194.65,41.57-95.74-12.24-185.33-20.11-165.74-139.92,7.74-15.67,17-27.84,30.84-34.11C1462.58,106.63,1530,67,1632.58,89.25S1794,170.48,1779.39,269.82Z"/><path class="cls-18" d="M1609.25,337.1c4.69-15.53,2.1-45.52-6.93-58.47-28.49-40.79-107.81-18.84-109.13-21.28-10.91-20-46.42-35.39-69.77-37.39-14.28,5-26.54,19.95-30.84,34.11-32.08,113,68.47,133.42,165.74,139.92C1574.1,395.05,1601.18,363.93,1609.25,337.1Z"/><path class="cls-24" d="M1438.05,282.75c-5.71,30.92,42.69,47.55,52.08-2.42"/><path class="cls-24" d="M1533.57,312.11c-7.27,24.34-58.32,17.66-43.44-31.78"/><path class="cls-25" d="M1517.23,262.08c.83,9.81-16.81,17.29-21.44,19-6.53,2.5-10.19,2.57-15.48-3-4.44-4.66-13.7-22-8.41-28.53C1480.47,239,1516.57,254.32,1517.23,262.08Z"/><path class="cls-14" d="M1497.22,252.37c1.41.54,8,3.39,6,5.61-1.72,1.88-8.09-.05-10-.63-3.44-1-6.76-2.09-10.25-3.28-2.26-.76-6.35-3.62-2.13-4.49,2.4-.51,5.06,0,7.6.44A45.64,45.64,0,0,1,1497.22,252.37Z"/><path class="cls-26" d="M1597.21,240.73c-7.32-25-40.86-20.77-48.25-6.43"/><path class="cls-26" d="M1438.05,198.55c15.93-20.64,45.64-4.47,47.3,11.56"/><path class="cls-16" d="M1745,204.86c14-36.13,35-130.39,25.7-138.62-11.11-5.82-100.91,49.2-124.74,74.26.88-.94,12.33,24,36.24,40.25C1702.73,194.67,1729.62,204.86,1745,204.86Z"/><path class="cls-25" d="M1767.71,121c-.29,1.71-.63,3.5-1,5.25-5.06,26.05-13.61,57.22-20.22,74.57a121.84,121.84,0,0,1-21-4,106.68,106.68,0,0,1-22.64-9.5c-7.86-4.37-19.09-11.35-24.77-18.39-2.6-3.21-15.13-15.37-10.88-21.15,19.23-26,91.69-69.47,101.75-64.76,0,0,.13.07.13.07a3.56,3.56,0,0,1,.49.56C1772.42,87.74,1771.13,102.64,1767.71,121Z"/><path class="cls-10" d="M1767.71,121c-.29,1.71-.63,3.5-1,5.25-5.06,26.05-13.61,57.22-20.22,74.57a121.84,121.84,0,0,1-21-4l-.28-.27c9.61-9.29,19.94-30.14,24.54-41.75,10-25.23,12.9-44,19.12-70.53a4.07,4.07,0,0,0,.08-1.25s.13.07.13.07a3.56,3.56,0,0,1,.49.56C1772.15,87.89,1770.92,102.51,1767.71,121Z"/><path class="cls-16" d="M1708.31,522.46s-.13,1.73-.37,5c-.27,4.18-.69,9.6-1.58,16.87a234.67,234.67,0,0,1-4.92,27.21,161.59,161.59,0,0,1-14.24,37.8A118.3,118.3,0,0,1,1627,663.93c-41.75,17.2-85.69,0-125.31-14.84-12.78-4.76-25.23-9.51-37.21-13.79-9.57-3.43-32.9-8.09-37.17-13.06-21.52,11.39-30.88,37.63-41.78,57.89-5.34,9.9-8.24,15.83-8.24,15.83a24.15,24.15,0,0,1-44.85-17.45l.09-.33s2-6.66,6-18.44a338.57,338.57,0,0,1,20.79-49.1c29-54.92,69.52-59.43,125.83-46.89,13.53,3.09,26.82,6.41,39.85,9.59,20,4.82,39.74,11.65,60.52,11.16-1.13,0-2.28.17-3.44.2,26.55-10.45,19-43.31,19.83-65.57,1.08-28.08,21.13-52.06,50.19-53.74a53.3,53.3,0,0,1,56.32,50.13,52,52,0,0,1,0,6.61Z"/><path class="cls-17" d="M1340.71,698.52c-1.07-5.67.76-16.78,5.31-19.34"/><path class="cls-17" d="M1353.65,704.67c-1.06-5.66.78-16.78,5.31-19.34"/><path class="cls-27" d="M1956.75,1186.33c-2.19-6.21-2-19.18,2.7-22.88"/><path class="cls-27" d="M1985.23,1186.17c2.65-6.05,3.48-19-.94-23"/></g></g></g></svg>