<svg xmlns="http://www.w3.org/2000/svg" viewBox="0 0 441.98 426.72"><defs><style>.cls-1,.cls-4{fill:#dbdbdb;}.cls-2{fill:#fff;}.cls-3{fill:#ebebeb;}.cls-4{opacity:0.5;}.cls-5{fill:#c7c7c7;}.cls-6{fill:none;stroke:#c7c7c7;stroke-miterlimit:10;stroke-width:0.25px;}.cls-7{fill:#263238;}.cls-8{fill:#ffc727;}.cls-9{fill:#455a64;}.cls-10{fill:#eb9481;}.cls-11{fill:#37474f;}.cls-12{opacity:0.1;}.cls-13{fill:#a6a6a6;}.cls-14{fill:#ff9bbc;}.cls-15{opacity:0.2;}</style></defs><g id="Camada_2" data-name="Camada 2"><g id="Stars"><rect class="cls-1" x="52.26" y="0.5" width="133.02" height="203.96"/><rect class="cls-2" x="59.51" y="8.67" width="56.17" height="90.72"/><rect class="cls-2" x="121.85" y="8.67" width="56.17" height="90.72"/><rect class="cls-2" x="59.51" y="105.57" width="56.17" height="90.72"/><rect class="cls-2" x="121.85" y="105.57" width="56.17" height="90.72"/><rect class="cls-3" x="52.26" y="0.5" width="31.51" height="291.8"/><polygon class="cls-2" points="77.79 14.38 78.03 45.92 78.12 77.47 78.29 140.57 78.12 203.67 78.03 235.22 77.79 266.77 77.54 235.22 77.46 203.67 77.29 140.57 77.46 77.47 77.55 45.92 77.79 14.38"/><polygon class="cls-2" points="63.32 21.69 63.56 49.86 63.7 78.03 63.82 134.38 63.71 190.72 63.57 218.89 63.32 247.06 63.08 218.89 62.94 190.72 62.82 134.38 62.94 78.03 63.08 49.86 63.32 21.69"/><polygon class="cls-2" points="70.56 28.34 70.8 61.33 70.89 94.31 71.05 160.29 70.89 226.26 70.8 259.25 70.56 292.23 70.31 259.25 70.22 226.26 70.06 160.29 70.22 94.31 70.31 61.33 70.56 28.34"/><polygon class="cls-2" points="57.94 16.04 58.19 50.56 58.27 85.09 58.44 154.14 58.27 223.19 58.19 257.71 57.94 292.23 57.7 257.71 57.61 223.19 57.44 154.14 57.61 85.09 57.7 50.56 57.94 16.04"/><rect class="cls-3" x="153.77" y="0.5" width="31.51" height="291.8" transform="translate(339.04 292.8) rotate(180)"/><polygon class="cls-2" points="159.74 14.38 159.98 45.92 160.07 77.47 160.24 140.57 160.07 203.67 159.99 235.22 159.74 266.77 159.5 235.22 159.41 203.67 159.24 140.57 159.41 77.47 159.5 45.92 159.74 14.38"/><polygon class="cls-2" points="174.21 21.69 174.45 49.86 174.59 78.03 174.71 134.38 174.59 190.72 174.45 218.89 174.21 247.06 173.96 218.89 173.82 190.72 173.71 134.38 173.82 78.03 173.97 49.86 174.21 21.69"/><polygon class="cls-2" points="166.97 28.34 167.22 61.33 167.31 94.31 167.47 160.29 167.31 226.26 167.22 259.25 166.97 292.23 166.73 259.25 166.64 226.26 166.47 160.29 166.64 94.31 166.73 61.33 166.97 28.34"/><polygon class="cls-2" points="179.59 16.04 179.83 50.56 179.92 85.09 180.09 154.14 179.92 223.19 179.83 257.71 179.59 292.23 179.34 257.71 179.25 223.19 179.09 154.14 179.26 85.09 179.34 50.56 179.59 16.04"/><circle class="cls-3" cx="296.04" cy="53.54" r="53.02" transform="translate(48.85 225.01) rotate(-45)"/><path class="cls-4" d="M312.19,104a53,53,0,1,1-.6-101.19,46,46,0,1,0,22.23,13.47A53,53,0,0,1,312.19,104Z"/><path class="cls-5" d="M275.84,49a7.47,7.47,0,1,1-9.39-4.83A7.48,7.48,0,0,1,275.84,49Z"/><path class="cls-5" d="M324.07,33.56a7.47,7.47,0,1,1-9.39-4.84A7.46,7.46,0,0,1,324.07,33.56Z"/><path class="cls-5" d="M302.87,38a11.25,11.25,0,0,1-21.43,6.86Z"/><path class="cls-1" d="M302.65,45.43A11.25,11.25,0,0,1,286,50.77a13.46,13.46,0,0,1,16.7-5.34Z"/><circle class="cls-3" cx="381.34" cy="158.46" r="38.19" transform="translate(137.2 491.52) rotate(-76.32)"/><path class="cls-4" d="M371.65,195.4a38.19,38.19,0,1,1,38.73-61.74,33.18,33.18,0,1,0,8.3,16.77,38.2,38.2,0,0,1-47,45Z"/><path class="cls-5" d="M406.1,157.15a5.38,5.38,0,1,1-3.84-6.57A5.37,5.37,0,0,1,406.1,157.15Z"/><path class="cls-5" d="M370.82,147.89a5.37,5.37,0,1,1-3.84-6.56A5.36,5.36,0,0,1,370.82,147.89Z"/><path class="cls-5" d="M374.45,146.43a12,12,0,0,0,1.9,6.54,9.33,9.33,0,0,0,5.35,3.54,9,9,0,0,0,6.38-.36,13.2,13.2,0,0,0,5.11-4.55,10.31,10.31,0,0,1-4.45,5.79,8.77,8.77,0,0,1-3.68,1.22,11.24,11.24,0,0,1-3.84-.37,11.72,11.72,0,0,1-3.49-1.64,8.72,8.72,0,0,1-2.57-2.9A9.65,9.65,0,0,1,374.45,146.43Z"/><rect class="cls-3" x="318.82" y="231.55" width="88.24" height="122.11"/><rect class="cls-1" x="314.55" y="227.02" width="96.79" height="4.53"/><rect class="cls-3" x="411.34" y="227.02" width="30.44" height="4.53"/><rect class="cls-1" x="407.06" y="231.55" width="29.9" height="122.11"/><rect class="cls-6" x="328.43" y="249.05" width="69.02" height="38.91"/><rect class="cls-5" x="353.28" y="260.38" width="13.48" height="7.75"/><rect class="cls-6" x="357.26" y="260.96" width="13.48" height="6.58"/><rect class="cls-6" x="328.43" y="298.21" width="69.02" height="38.91"/><rect class="cls-5" x="353.28" y="309.54" width="13.48" height="7.75"/><rect class="cls-6" x="357.26" y="310.12" width="13.48" height="6.58"/><path class="cls-3" d="M41.75,196.05l-13.12.28-6.66.11c-2.23.05-4.46,0-6.7.05h-.44v-.45l-.06-11.19v-.5h.5l13.24.06c4.42,0,8.83.11,13.24.16H42v.27c0,1.9-.09,3.78-.13,5.65Zm0,0-.14-5.66c0-1.86-.11-3.7-.13-5.53l.27.27c-4.41.05-8.82.16-13.24.16l-13.24.07.5-.5,0,11.19-.45-.45c2.19,0,4.36,0,6.55.06l6.58.11Z"/><path class="cls-3" d="M27,210.16l-13.12.28-6.66.11c-2.23,0-4.47,0-6.7,0H.06v-.45L0,199v-.5H.5l13.24.06c4.42,0,8.83.11,13.24.16h.28V199c0,1.9-.09,3.78-.14,5.65Zm0,0-.14-5.66c0-1.86-.11-3.7-.13-5.53l.27.27c-4.41,0-8.82.16-13.24.16L.5,199.47,1,199,1,210.16l-.45-.45c2.18,0,4.36,0,6.55.06l6.58.11Z"/><path class="cls-3" d="M437.82,210.16l-13.13.28-6.66.11c-2.22,0-4.46,0-6.69,0h-.44v-.45L410.84,199v-.5h.5l13.24.06c4.41,0,8.83.11,13.24.16h.28V199c0,1.9-.08,3.78-.13,5.65Zm0,0-.14-5.66c-.05-1.86-.11-3.7-.13-5.53l.27.27c-4.41,0-8.83.16-13.24.16l-13.24.07.5-.5-.06,11.19-.44-.45c2.18,0,4.36,0,6.54.06l6.58.11Z"/><path class="cls-3" d="M423.05,11.69,409.92,12l-6.66.11c-2.22.05-4.46,0-6.69.06h-.45v-.45L396.07.5V0h.5l13.24.07c4.41,0,8.82.11,13.24.16h.27V.5c0,1.9-.08,3.79-.13,5.66Zm0,0L422.91,6c-.05-1.86-.12-3.71-.13-5.54l.27.27c-4.42.06-8.83.16-13.24.17L396.57,1l.5-.5L397,11.69l-.44-.44c2.18,0,4.36,0,6.54.05l6.58.11Z"/><path class="cls-3" d="M437.82,25.8l-13.13.28-6.66.11c-2.22,0-4.46,0-6.69.06h-.44V25.8l-.05-11.19v-.5h.5l13.24.07c4.41,0,8.83.11,13.24.16h.28v.27c0,1.9-.08,3.79-.13,5.66Zm0,0-.14-5.65c-.05-1.87-.11-3.71-.13-5.54l.27.27c-4.41.06-8.83.16-13.24.17l-13.24.06.5-.5-.06,11.19-.44-.44c2.18,0,4.36,0,6.54.05l6.58.11Z"/><path class="cls-3" d="M41.75,11.69,28.63,12,22,12.08c-2.23.05-4.46,0-6.7.06h-.44v-.45L14.77.5V0h.5L28.51.07c4.42,0,8.83.11,13.24.16H42V.5c0,1.9-.09,3.79-.13,5.66Zm0,0L41.61,6c0-1.86-.11-3.71-.13-5.54l.27.27c-4.41.06-8.82.16-13.24.17L15.27,1l.5-.5,0,11.19-.45-.44c2.19,0,4.36,0,6.55.05l6.58.11Z"/><ellipse class="cls-3" cx="226.55" cy="409.92" rx="115.81" ry="16.8"/><polygon class="cls-7" points="11.11 353.66 64.97 353.42 118.83 353.33 226.55 353.17 334.26 353.33 388.12 353.42 441.98 353.66 388.12 353.91 334.26 354 226.55 354.16 118.83 354 64.97 353.91 11.11 353.66"/><path class="cls-8" d="M75.35,273.8a64.05,64.05,0,0,0-2.07,11.7c.11.2.09.92,0,.72,0,.65-1,.53-1-.1,0-.42,0-.83,0-1.23-2.29-2.84-5.61-4.64-8.29-7.1a15.53,15.53,0,0,1-4.54-7.23c-2.23-7.67-.14-15.8-2.82-23.45-2.3-6.59-6.44-12.32-9.94-18.3-3.7-6.32-6.43-13-6.7-20.36-.22-5.67.46-13.22,4.77-17.46,4.58-4.51,10.25-1.13,13.76,2.89,10.15,11.65,14.85,26.38,16.75,41.45,1,8.33,2.14,16.72,1.89,25.14A67.25,67.25,0,0,1,75.35,273.8Z"/><path class="cls-7" d="M73.33,288.56a144.39,144.39,0,0,0-.28-23.62s0,0,0-.08c.12-6.39.63-12.74.38-19.14a113.58,113.58,0,0,0-2.81-20.52c0-.08-.14-.06-.12,0a134,134,0,0,1,2.22,20.07q.19,5.42-.09,10.82c-.06,1.17-.17,2.36-.25,3.54h0a126.41,126.41,0,0,0-19-50.27c-.14-.2-.5,0-.37.23a131.69,131.69,0,0,1,15.46,37.27c-4.89-9.05-12.27-16.49-17.74-25.19,0,0-.11,0-.08,0,4.91,9.68,13,17.32,18.22,26.86.89,3.88,1.63,7.81,2.18,11.76a131.3,131.3,0,0,1,1.17,16.33c-3-5.56-6.06-10.88-8.49-16.76-.07-.16-.29-.05-.24.11,2.07,6.11,4.85,12.69,8.75,17.9,0,3.86-.09,7.73-.32,11.59-.61,10.32-2.37,20.49-3.18,30.77a.24.24,0,0,0,.47,0A237.47,237.47,0,0,0,73.33,288.56Z"/><path class="cls-7" d="M62.38,209a.07.07,0,0,0-.12.06c1.89,5.2,2.95,10.48,4.31,15.82a.2.2,0,0,0,.39-.07C66.41,219.44,64.47,214,62.38,209Z"/><path class="cls-8" d="M110.2,230.87a79.44,79.44,0,0,1-4.33,8.9c-3.39,6.16-6.93,11.8-7.57,19-.29,3.2-.39,6.42-1.36,9.51a29,29,0,0,1-3.79,7.44c-3.68,5.35-8.27,10-11.68,15.52a65.14,65.14,0,0,0-7.75,18.71c-.09.36-.66.26-.57-.1,0,0,0-.05,0-.08a.29.29,0,0,1,0-.08c-.53-15.37.69-30.87,5.38-45.6a157.46,157.46,0,0,1,7.45-19c2.52-5.34,5.65-10.48,10.06-14.47,2.86-2.57,9.07-7.46,13.14-4.88C111.12,227,111,229,110.2,230.87Z"/><path class="cls-7" d="M94.75,265.73a126.36,126.36,0,0,1-8.94,12.84c-1.49,1.95-3,3.88-4.48,5.82-.71.92-1.49,1.84-2.14,2.82.41-1.61.81-3.23,1.22-4.85,2-7.77,3.89-15.6,6.84-23.07a154.93,154.93,0,0,1,10.68-20.93c.1-.18-.18-.31-.29-.14-3.25,5.35-6.55,10.68-9.28,16.31a86,86,0,0,0-3.93,9.68,148.43,148.43,0,0,1,5.24-20.68c0-.06-.07-.1-.09,0A70.64,70.64,0,0,0,84.13,265a.05.05,0,0,0,0,0c-.67,2-1.28,4-1.86,6-2.42,8.6-4.54,17.3-6.52,26A93.47,93.47,0,0,1,77.26,280a.1.1,0,0,0-.2,0,54.16,54.16,0,0,0-1.49,18q-1.11,5-2.18,10c-1.51,7.09-3.37,14.3-4.25,21.5a.14.14,0,0,0,.28.05c1.06-3.88,1.69-7.9,2.56-11.83s1.75-7.87,2.67-11.8c1.34-5.72,2.74-11.43,4.16-17.13,1-2.09,2.79-3.94,4.17-5.7,1.52-1.92,3-3.84,4.5-5.8a85.71,85.71,0,0,0,7.4-11.45C94.93,265.71,94.8,265.65,94.75,265.73Z"/><path class="cls-7" d="M95.4,259.15a80.19,80.19,0,0,0-8.74,13.9c0,.06.07.13.1.06,2.95-4.61,5.84-9.25,8.78-13.87C95.59,259.16,95.46,259.08,95.4,259.15Z"/><path class="cls-8" d="M30,245.45c2,3.43,4.26,7.55,3.41,11.67-.54,2.61-2.45,4.73-2.8,7.39-.77,5.87,5.08,9.75,9.32,12.53,10.56,6.93,25,13.1,27,27.25.07.5.94.38.87-.11a.3.3,0,0,0,0-.1s.06,0,.06-.08a54.41,54.41,0,0,0-.2-21.61C66,275.1,62.79,268.55,59,262.14,52.68,251.3,46,240.2,36.34,231.9c-2.66-2.3-8.1-6.43-10.22-1.24C24.06,235.69,27.51,241.27,30,245.45Z"/><path class="cls-7" d="M39.61,268.43c7,7.58,18.13,11.83,24.16,20.32A85,85,0,0,0,45.2,253.88a.28.28,0,0,1,.39-.39,68.79,68.79,0,0,1,15.17,22,99.26,99.26,0,0,0-6.53-16.71c-.1-.2.19-.38.3-.18a63.64,63.64,0,0,1,7,18.78c7.94,19.22,8.67,41.77,7,62,0,.28-.47.29-.46,0,.46-16,.2-32.21-3.63-47.81-.08-.32-.17-.64-.25-1-6.55-9.13-17.63-13.37-24.76-22.05C39.42,268.47,39.53,268.35,39.61,268.43Z"/><path class="cls-7" d="M38,261.92c3.67,3.37,7.29,6.82,11,10.19,0,0,0,.1-.05.07a53.49,53.49,0,0,1-11.14-10A.16.16,0,0,1,38,261.92Z"/><path class="cls-7" d="M37.41,247.32a114.57,114.57,0,0,0,11,15.12.06.06,0,1,1-.09.09,53.2,53.2,0,0,1-11.1-15.1A.11.11,0,0,1,37.41,247.32Z"/><polygon class="cls-9" points="53.95 353.66 86.14 353.66 81.8 310.36 58.91 310.36 53.95 353.66"/><polygon class="cls-7" points="58.1 317.4 82.51 317.4 81.81 310.36 58.91 310.36 58.1 317.4"/><rect class="cls-9" x="54.96" y="305.56" width="30.17" height="6.91" transform="translate(140.09 618.03) rotate(180)"/><path class="cls-10" d="M210.29,307.45l28.46,37.6c5.47,7.15,10.15,13.52,12.26,17,0,0,0,0,0,.06a6.21,6.21,0,0,1,1.16,2.62s0,.05,0,.07c-1,3.08-56.94,48.51-59.42,49.43s-5.32-6.07-4.56-9.57,14.4-30.46,14.4-30.46l-28.07-37.83Z"/><path class="cls-3" d="M232.91,337.33l5.84,7.72c5.47,7.15,10.15,13.52,12.26,17,0,0,0,0,0,.06a11.63,11.63,0,0,1,1.16,2.62s0,.05,0,.07c-1,3.08-56.94,48.51-59.42,49.43s-5.32-6.07-4.56-9.57,14.4-30.46,14.4-30.46l-6-7.75Z"/><path class="cls-8" d="M192.78,414.28c2.49-.93,58.39-46.36,59.42-49.44.41-1.16-5.74-9.7-13.46-19.79l-.24-.31-36.39,28.9.51.6s-13.62,27-14.4,30.47S190.3,415.21,192.78,414.28Z"/><path class="cls-7" d="M191.65,411.59c9.24-7.88,47.23-38.83,57-45.93.08-.06.12,0,0,.06-9,8-47.23,38.66-56.88,46C191.57,411.9,191.46,411.76,191.65,411.59Z"/><path class="cls-7" d="M199.67,376.81c3.15-3.7,8.15-6.82,13.13-6.48.19,0,.17.29,0,.35a67,67,0,0,0-12.75,6.59A.31.31,0,0,1,199.67,376.81Z"/><path class="cls-7" d="M198.31,380.6c3.14-3.71,8.14-6.82,13.12-6.48.2,0,.17.28,0,.34a67.3,67.3,0,0,0-12.75,6.6A.31.31,0,0,1,198.31,380.6Z"/><path class="cls-7" d="M196.94,384.39c3.15-3.71,8.15-6.82,13.13-6.48.19,0,.17.28,0,.34a67.23,67.23,0,0,0-12.75,6.59A.3.3,0,0,1,196.94,384.39Z"/><path class="cls-11" d="M236.64,340.13l-38.95,32.63s-44.83-57.25-54.93-86.14c-7.19-20.57,26-123.5,26-123.5l42.47-2.88S183.78,259.38,186.83,269C190.55,280.74,236.64,340.13,236.64,340.13Z"/><path class="cls-7" d="M193.35,363.39c6.06-5,4.25-3.67,10.36-8.62,3-2.43,22.66-18.35,25.84-20.13.07,0,.16.07.1.13-2.44,2.71-22.38,18.28-25.42,20.65-6.2,4.84-4.47,3.38-10.73,8.15A.12.12,0,0,1,193.35,363.39Z"/><path class="cls-7" d="M223.7,333.05q-10.87-13.6-21.18-27.66c-6.79-9.32-13.5-18.77-19.61-28.56a31,31,0,0,1-3.5-7.09,18.62,18.62,0,0,1-.31-8.75c1-5.79,2.16-11.55,3.38-17.29q3.65-17.28,8.31-34.34c3.11-11.36,6.57-22.61,10.25-33.8.45-1.38.91-2.76,1.37-4.14.07-.2-.25-.28-.33-.08q-6.17,16.82-11.1,34.06T182.22,240q-1.92,8.75-3.58,17.54a37.18,37.18,0,0,0-1,8.72,19.28,19.28,0,0,0,2.08,7.34A63.41,63.41,0,0,0,184,280.6q2.43,3.64,4.9,7.25,5,7.31,10.21,14.43c6.89,9.44,14,18.8,21.63,27.66l2.79,3.26C223.61,333.3,223.79,333.15,223.7,333.05Z"/><path class="cls-7" d="M211.27,160.24s-8,28.92-14.92,57c-7.73-16-20.91-43.56-25.34-54.32Z"/><path class="cls-10" d="M261.78,226.16l25.38-33.36c5.92-6.79,11.23-12.65,14.25-15.42l0,0c1.15-1.05,2-1.65,2.33-1.66a.12.12,0,0,1,.08,0c3.22.39,58.9,46.09,60.31,48.34s-4.89,6.43-8.47,6.38-32.73-8-32.73-8l-27,33.37Z"/><path class="cls-3" d="M303.8,175.68l.07,0c3.22.4,58.9,46.1,60.31,48.35s-4.89,6.43-8.47,6.39-32.73-8-32.73-8l-4.86,6.69C308.93,221.63,292.2,208,282,199.53c2.83-4,5.11-6.72,5.12-6.73,5.92-6.79,11.22-12.65,14.25-15.41,0,0,0,0,.06,0C302.6,176.29,303.41,175.69,303.8,175.68Z"/><path class="cls-8" d="M364.18,224c-1.41-2.25-57.09-47.95-60.31-48.34-1.23-.17-8.36,7.55-16.71,17.14l-.26.3L322.5,223l.48-.62s29.14,8,32.73,8S365.59,226.25,364.18,224Z"/><path class="cls-7" d="M361.78,225.65c-9.58-7.47-47.49-38.52-56.39-46.63-.07-.07,0-.12.05-.06,9.65,7.2,47.31,38.55,56.46,46.54C362.1,225.67,362,225.81,361.78,225.65Z"/><path class="cls-7" d="M326.09,224.74c-4.26-2.34-8.31-6.62-9-11.56,0-.2.24-.23.33-.09a67.1,67.1,0,0,0,9,11.17A.31.31,0,0,1,326.09,224.74Z"/><path class="cls-7" d="M330.08,225.32c-4.26-2.34-8.32-6.62-9-11.56,0-.2.25-.23.34-.09a67.14,67.14,0,0,0,9,11.17A.3.3,0,0,1,330.08,225.32Z"/><path class="cls-7" d="M334.06,225.9c-4.26-2.34-8.31-6.61-9-11.56,0-.19.24-.23.33-.09a66.7,66.7,0,0,0,9,11.17A.31.31,0,0,1,334.06,225.9Z"/><path class="cls-11" d="M169.54,163v0c.25.86,4.15,14.43,8,26.06,2.82,8.49,5.64,15.94,7,16.63,1.56.78,9.07,3.52,11.58,4.37,0,0,16.17,55.91,29.62,74.11,4.61,6.23,25.62,12.47,35.89,5.73,24.09-15.79,59.79-56.89,59.79-56.89l-41.59-34-29.43,39c-7.3-13.53-11.25-40.84-11.25-40.84s-1.66-27-11.55-38.21Z"/><path class="cls-7" d="M311.4,238c-6.27-4.76-4.54-3.31-10.75-8.14-3-2.36-23-17.92-25.44-20.62,0-.06,0-.17.1-.13,3.19,1.77,22.87,17.67,25.86,20.1,6.12,4.95,4.31,3.59,10.37,8.61C311.65,238,311.51,238.13,311.4,238Z"/><path class="cls-7" d="M226.38,190.62c-1.33-.25-2.74-.26-4.1-.38-1.09-.1-2.18-.22-3.27-.38a14.17,14.17,0,0,1-5.86-2c-2-1.32-3.05-3.45-4.09-5.49-.61-1.22-1.25-2.42-1.89-3.63-.31-.58-.62-1.16-.94-1.74a20.23,20.23,0,0,1-1.16-2.09c0-.1-.21,0-.16.06a13.29,13.29,0,0,1,.56,1.53c.23.59.44,1.18.67,1.77.4,1.05.8,2.1,1.23,3.15A25.31,25.31,0,0,0,210,186.9c2.2,3,5.82,4,9.39,4.26,1,.06,2.05.06,3.08.05a22.73,22.73,0,0,0,3.87-.23A.18.18,0,0,0,226.38,190.62Z"/><path class="cls-7" d="M180.58,204.09a95.92,95.92,0,0,1,15.51,6c.19.1.09.4-.12.32-5.21-1.83-10.52-3.56-15.62-5.68A.33.33,0,0,1,180.58,204.09Z"/><path class="cls-7" d="M176.71,169.51c0-.18.3-.24.32,0a166.84,166.84,0,0,0,2,16.87c.41,2.59,3.49,16.86,7.94,15.5.74-.22,1.08-1,1.12-2.14a18,18,0,0,0-.9-4.38c-.7-3-1.31-6-1.78-9a82.64,82.64,0,0,1-1-17.06.15.15,0,0,1,.29,0,156.65,156.65,0,0,0,3,23.45c.82,3.71,3.09,9.23-.8,10.07s-7.17-8.42-7.84-11A86.27,86.27,0,0,1,176.71,169.51Z"/><path class="cls-7" d="M186.87,202.23a23.94,23.94,0,0,1,1.21,2.92,6.47,6.47,0,0,1,.59,2.43c0,.16-.21.19-.3.08a8.51,8.51,0,0,1-1.22-2.31c-.4-.91-.83-1.8-1.21-2.71A.51.51,0,0,1,186.87,202.23Z"/><path class="cls-7" d="M275.45,213.71c-6.39,9.2-13.18,18.14-20.33,26.73-1.94,2.33-3.92,4.61-5.92,6.88-6.51-8.95-9.68-19.76-12.21-30.48-.65-2.75-1.26-5.51-1.89-8.27a89.65,89.65,0,0,1-1.89-8.9c-.39-3.11-.22-6.28-.51-9.4a70.66,70.66,0,0,0-1.42-9,89.47,89.47,0,0,0-6.85-19.44.08.08,0,0,0-.14.06,120.81,120.81,0,0,1,6,17.61,76.93,76.93,0,0,1,1.67,9.29c.36,3.15.32,6.31.53,9.47a55.81,55.81,0,0,0,1.68,8.86c.63,2.75,1.24,5.51,1.87,8.26a150.73,150.73,0,0,0,4.47,16.18A60.46,60.46,0,0,0,248.92,248a.3.3,0,0,0,.47.05c7.34-8.43,14.36-17.17,20.85-26.3,1.85-2.61,3.66-5.23,5.44-7.89C275.78,213.7,275.55,213.57,275.45,213.71Z"/><path class="cls-7" d="M250.71,237.86a11.23,11.23,0,0,0-.68,1.21l-.22.17a2.37,2.37,0,0,0-.38.33,4.86,4.86,0,0,0-.57.85,4.47,4.47,0,0,0-.44,2s0,0,0,0a4.84,4.84,0,0,1,.65-1.83,4.6,4.6,0,0,1,.54-.79l.15-.2c0,.08-.07.15-.1.24a11.92,11.92,0,0,0-.54,2.29,7.87,7.87,0,0,0,0,2.22,10.85,10.85,0,0,0,.35,2.2,0,0,0,0,0,0,0c0-.74-.09-1.47,0-2.22s.23-1.43.32-2.15.25-1.4.42-2.1.31-1.43.51-2.12C250.88,237.83,250.76,237.79,250.71,237.86Z"/><path class="cls-10" d="M204.92,95.18c-7.86,5.66-44.53,20.57-57.9,13.82-13.63-6.88-27.11-43.83-29.79-47-7.35-8.78,24.26-21.22,27.15-15.13,4.82,10.17,15.08,37.34,19.8,37.92,9.9,1.24,19-.05,34.5-.23C209.5,84.4,213.59,88.92,204.92,95.18Z"/><path class="cls-8" d="M147.7,53.59s12.86,29,15.76,29.8c4.82,1.37,31,.47,40.39.63s18.45,8.47-3.8,16.79-41.05,12.63-53.11,9.91c-7.52-1.7-28.18-34.3-28.18-34.3Z"/><path class="cls-12" d="M147.7,53.59s12.86,29,15.76,29.8c4.82,1.37,31,.47,40.39.63s18.45,8.47-3.8,16.79-41.05,12.63-53.11,9.91c-7.52-1.7-28.18-34.3-28.18-34.3Z"/><path class="cls-7" d="M124.37,81.73C134.68,72,146.93,63.45,149,61.8c.09-.08.2.1.1.17-2.07,1.51-15.06,12.9-24.59,20C124.37,82,124.27,81.83,124.37,81.73Z"/><path class="cls-12" d="M213.87,90.64c-.4,2.94-4.15,6.55-13.83,10.16-22.25,8.32-41,12.64-53.1,9.92-1.5-.34-3.53-1.91-5.81-4.22C158.28,102.8,199.63,93.9,213.87,90.64Z"/><path class="cls-10" d="M119.26,65.31c3.1,2.3,25-10.59,25.5-14.52a15.94,15.94,0,0,0-.38-3.95h0s1.54-8.7,5.4-15.49c3.23-5.7,8.68-13.8,5.68-15.65-4.38-2.72-12.5,6.7-16.83,12.39-1.54-3.57-3.2-6.5-4.79-7.85-5.29-4.49-28.33,16.56-27,23.49C108.16,50.39,116.15,63,119.26,65.31Z"/><path class="cls-10" d="M140.61,28.77c-1.24,3.38-4.52,0-4.52,0s3.54,6,.91,9-6.36-1.37-6.63-1.67c.18.32,3.29,6,.33,8.68s-6.16-2.08-6.36-2.4c.08.36,1,5.1-1.67,6.67-4.67,2.7-7.47-9.37-11.27-11.52,0,0-4.37,6-4.54,6.17,0,0-2.9-11.42.29-16.38a3.75,3.75,0,0,1,4.44-1.56s-1.34-3.58.92-5.81c1.16-1.14,4-.3,4-.3s-1-2.91,1.17-4.77c1.7-1.48,4.3-.41,4.3-.41s.38-3.22,2.6-4.17C129.09,8.37,143.26,21.52,140.61,28.77Z"/><path class="cls-7" d="M122.44,14.59s0-.12,0-.09a33.58,33.58,0,0,1,13.8,14.42c.09.19-.19.43-.33.23A68.73,68.73,0,0,0,122.44,14.59Z"/><path class="cls-7" d="M116.48,19.57c-.06-.05,0-.15.09-.11,5.87,3.32,11.68,9.4,14.07,16.66.08.25-.09.55-.21.27C128.48,31.69,121.41,23.41,116.48,19.57Z"/><path class="cls-7" d="M124.33,43c-2.56-6.87-7.07-12.23-12.48-17.07a.08.08,0,0,1,.09-.12c3.3,1.64,6.43,5.09,8.64,8a19.31,19.31,0,0,1,4,9.13C124.59,43,124.39,43.1,124.33,43Z"/><path class="cls-7" d="M136.21,28.77c.11.24-.35.14-.25.38.43,1,2.48,7.26.56,8.62-1.53,1.09-4.06-.22-4.84-1.1l-1.94-2.23,1,2.77a12.1,12.1,0,0,1,.82,3.83,4.35,4.35,0,0,1-1.1,3.36,2.47,2.47,0,0,1-3.08.43,7.43,7.43,0,0,1-2.58-2.72l-1.79-3,.71,3.41a11.64,11.64,0,0,1,.23,2.89,4.67,4.67,0,0,1-.81,2.58,2.23,2.23,0,0,1-2.18.86,4.88,4.88,0,0,1-2.26-1.57,38.78,38.78,0,0,1-3.5-5c-.55-.86-1.11-1.73-1.7-2.57a7.4,7.4,0,0,0-2.15-2.2,7.94,7.94,0,0,1,1.91,2.36c.53.88,1,1.78,1.5,2.68a32.31,32.31,0,0,0,3.31,5.25,5.68,5.68,0,0,0,2.64,2A3.16,3.16,0,0,0,124,48.66a5.69,5.69,0,0,0,1.09-3.17,12.45,12.45,0,0,0-.21-3.22l-1.09.4a8.67,8.67,0,0,0,3,3.25,3.61,3.61,0,0,0,2.38.45,4.08,4.08,0,0,0,2.12-1.12,5.47,5.47,0,0,0,1.4-4.25,13.38,13.38,0,0,0-1-4.2l-.9.54c1,1.09,3.69,2.87,6.29,1.48C140.27,36.5,136.91,29.93,136.21,28.77Z"/><path class="cls-7" d="M136.09,28.75a7.07,7.07,0,0,0,2,1,1.68,1.68,0,0,0,1.66-.34,3.52,3.52,0,0,0,.77-1.78c.12-.72.21-1.47.28-2.26a5.73,5.73,0,0,1,.5,2.33,3.34,3.34,0,0,1-.85,2.43,2.45,2.45,0,0,1-1.3.61,2.48,2.48,0,0,1-1.34-.26A3.87,3.87,0,0,1,136.09,28.75Z"/><path class="cls-3" d="M232.88,174.51c-.2.16-64.71-6.95-65.24-7.82-.75-1.23,18.48-68.1,33.24-81.82,3.69-3.44,13.9-1.91,18,2.53C239.24,109.36,233.61,173.93,232.88,174.51Z"/><path class="cls-8" d="M200.31,84.87l-24.77,90.29-12.68-9.09s20.71-58.5,26.66-67.81S200.31,84.87,200.31,84.87Z"/><path class="cls-12" d="M200.31,84.87l-24.77,90.29-12.68-9.09s20.71-58.5,26.66-67.81S200.31,84.87,200.31,84.87Z"/><path class="cls-8" d="M214.91,84.22s-1,34.74-1,42.9S212,179.84,212,179.84l29.34-5.33s-5.35-43.2-7.22-53.19S224.42,87.16,214.91,84.22Z"/><path class="cls-12" d="M214.91,84.22s-1,34.74-1,42.9S212,179.84,212,179.84l29.34-5.33s-5.35-43.2-7.22-53.19S224.42,87.16,214.91,84.22Z"/><path class="cls-10" d="M221.86,103.75c17.07,17.47,39.67,36.16,52.25,33.49,11.37-2.42,27.71-15.75,45.54-30.11,3.54-2.86-20.1-29.23-23.56-25.82C289.25,88,275.23,105.22,270,107.12c-2.24.81-27.33-11.72-43.77-18C206.28,81.53,215.06,96.79,221.86,103.75Z"/><path class="cls-10" d="M335.31,95c-4.68,5.64-20.92,16.19-25,16.76s-18.14-22.91-16.58-26.88,18.77-21.72,26.09-23.23S340.15,89.13,335.31,95Z"/><path class="cls-10" d="M309,66.2c-.58,3.84,4.27,2.32,4.27,2.32s-6.45,3.87-5.52,8,6.71,2,7.13,1.85c-.34.21-6.18,3.92-4.81,8,1.43,4.27,6.9,1.22,7.25,1-.26.3-3.62,4.28-1.86,7.16,3,5,11.89-5,16.58-5,0,0,2.86,5.6,2.94,5.82,0,0,6.81-6.94,6.36-13.27a4,4,0,0,0-3.39-3.78s3.12-2.68,2.14-5.95c-.51-1.68-3.64-2.36-3.64-2.36s2.4-2.25,1.35-5.11c-.83-2.28-3.85-2.61-3.85-2.61s1.31-3.23-.3-5.29C330.41,52.89,310.23,58,309,66.2Z"/><path class="cls-7" d="M333.47,62.2c.07,0,.07-.11,0-.11A36.16,36.16,0,0,0,313,68.57c-.19.14,0,.5.19.39A73.77,73.77,0,0,1,333.47,62.2Z"/><path class="cls-7" d="M336.53,70c.08,0,.05-.14,0-.14-7.26.1-15.89,2.84-21.9,8.46-.2.19-.2.57.06.37C318.94,75.22,329.89,71.06,336.53,70Z"/><path class="cls-7" d="M317,88c6-5.17,13-7.9,20.61-9.67.1,0,.05-.16,0-.17-4-.15-8.7,1.49-12.28,3.07a20.83,20.83,0,0,0-8.48,6.56C316.76,87.91,316.9,88.12,317,88Z"/><path class="cls-7" d="M313.26,68.52A23.42,23.42,0,0,0,310,71.39a7.91,7.91,0,0,0-2.1,3.57,2.56,2.56,0,0,0,.28,1.85,3.72,3.72,0,0,0,1.37,1.36,4.63,4.63,0,0,0,3.77.1l3-1.1-2.42,2.07a12.75,12.75,0,0,0-2.75,3.2,4.65,4.65,0,0,0-.7,3.74,2.66,2.66,0,0,0,2.69,2A8,8,0,0,0,317,86.94L320.22,85l-2.43,2.86a12,12,0,0,0-1.71,2.61,5,5,0,0,0-.57,2.85,2.39,2.39,0,0,0,1.61,1.94,5.3,5.3,0,0,0,2.95-.32,41.81,41.81,0,0,0,5.86-2.88c1-.53,1.94-1.06,2.94-1.54a7.76,7.76,0,0,1,3.16-1,8.47,8.47,0,0,0-3,1.24c-.94.55-1.87,1.15-2.79,1.75a35.23,35.23,0,0,1-5.84,3.25,6.17,6.17,0,0,1-3.52.5,3.4,3.4,0,0,1-2.49-2.77A6.1,6.1,0,0,1,315,90a13.21,13.21,0,0,1,1.86-2.93l.81.94a9.22,9.22,0,0,1-4.51,1.51,3.92,3.92,0,0,1-2.49-.8,4.36,4.36,0,0,1-1.41-2.15,5.83,5.83,0,0,1,.87-4.74,14,14,0,0,1,3.08-3.47l.56,1a5.52,5.52,0,0,1-4.66-.36,4.69,4.69,0,0,1-1.6-1.77,3.37,3.37,0,0,1-.26-2.37,8.08,8.08,0,0,1,2.51-3.7A18.94,18.94,0,0,1,313.26,68.52Z"/><path class="cls-10" d="M296.09,81.31s8.83-29.79,18.78-20.63c3,2.72,11.85,17.42,8.93,19.27-3.77,2.38-8.62-3.07-11.13-7,0,0-1.58,10.56-9.26,11.65A7.7,7.7,0,0,1,296.09,81.31Z"/><path class="cls-7" d="M314,60a16.16,16.16,0,0,1,3.4,3.31,35.25,35.25,0,0,1,2.73,3.89,54.55,54.55,0,0,1,4.33,8.48,9,9,0,0,1,.61,2.45,3.47,3.47,0,0,1-.18,1.44,2.31,2.31,0,0,1-.39.69,2.41,2.41,0,0,1-.6.52,4,4,0,0,1-2.72.53,7.62,7.62,0,0,1-2.43-.9,14,14,0,0,1-3.7-3.22,31.26,31.26,0,0,1-2.83-3.88l1-.23a19.4,19.4,0,0,1-1,3.51,18.81,18.81,0,0,1-1.63,3.23,12.31,12.31,0,0,1-2.4,2.69,9.28,9.28,0,0,1-3.11,1.74,10.52,10.52,0,0,0,2.85-2A12.69,12.69,0,0,0,310,79.42a16.72,16.72,0,0,0,1.38-3.16,17.58,17.58,0,0,0,.76-3.35l.18-1.4.83,1.17A33,33,0,0,0,316,76.33a14,14,0,0,0,3.42,2.91c1.23.69,2.77,1.07,3.79.41s.58-2.19.1-3.59a46.32,46.32,0,0,0-1.8-4.28c-.66-1.42-1.33-2.83-2.08-4.2A29.94,29.94,0,0,0,314,60Z"/><path class="cls-8" d="M292.62,84.69s-20.69,21.08-23.7,20.89c-5-.32-35.39-14.73-44.31-17.73s-18.46-1.23-4.37,15.41c15.89,18.77,33.68,35.5,52.07,35.51,9.9,0,40.77-21.54,40.77-21.54Z"/><path class="cls-12" d="M292.62,84.69s-20.69,21.08-23.7,20.89c-5-.32-35.39-14.73-44.31-17.73s-18.46-1.23-4.37,15.41c15.89,18.77,33.68,35.5,52.07,35.51,9.9,0,40.77-21.54,40.77-21.54Z"/><path class="cls-7" d="M305.18,119c-6.47-12.61-15.15-24.78-16.51-27-.07-.1-.23,0-.16.13,1.45,2.11,9.88,17.19,16.5,27C305.09,119.27,305.24,119.14,305.18,119Z"/><path class="cls-7" d="M233.42,117.55A20.1,20.1,0,0,1,232.1,116l-1.46-1.59c-1-1-1.91-2-2.86-3.06-1.9-2.06-3.91-4-5.86-6a0,0,0,0,0,0,.05c1.79,2.16,3.55,4.33,5.49,6.37l.13.13-1.15-.77-2.35-1.6c-.05,0-.11,0-.06.08a26.83,26.83,0,0,0,2.27,1.7c.4.27.8.53,1.22.78l.58.34c.72.76,1.45,1.52,2.18,2.27.5.52,1,1,1.53,1.52s1.14.9,1.6,1.45C233.38,117.74,233.5,117.62,233.42,117.55Z"/><path class="cls-10" d="M202.47,97.1c3.06.74,10.6-3.78,14.05-8.15.24-.3.32-3.87.63-8.2.19-2.63.47-5.55.92-8.2l-17.29,1.23a42.63,42.63,0,0,1-.11,10.44,5.68,5.68,0,0,1-.3,1.06s0,.11-.05.18C199.63,87.46,197.68,95.94,202.47,97.1Z"/><path class="cls-7" d="M200.37,85.28s0,.1-.06.18a11,11,0,0,0,1.7.38c9.48,1.38,13.73-9.73,14.81-13.2l-16,1.14a43.19,43.19,0,0,1-.11,10.44A6.56,6.56,0,0,1,200.37,85.28Z"/><path class="cls-10" d="M225.74,52.68c.24,6.24-7.18,22.12-12.27,24.76-7.37,3.83-17.25,1.79-20-6.57-2.62-8.11,7.43-28.63,12.9-30.81C214.48,36.85,225.37,43.46,225.74,52.68Z"/><path class="cls-13" d="M211.8,56.08A14.58,14.58,0,0,1,210.65,55a2.57,2.57,0,0,1-1-1.31.81.81,0,0,1,.5-.85,2,2,0,0,1,1.94.61,3,3,0,0,1,1,1.84A.86.86,0,0,1,211.8,56.08Z"/><path class="cls-13" d="M201.11,51.46a13.49,13.49,0,0,0,1.55.24,2.59,2.59,0,0,0,1.63-.06.79.79,0,0,0,.34-.92A2,2,0,0,0,203,49.59a2.93,2.93,0,0,0-2.09.32A.86.86,0,0,0,201.11,51.46Z"/><path class="cls-7" d="M205.61,68.36a1.79,1.79,0,0,1-1.19.24,3.17,3.17,0,0,1-1-.77s-.08,0-.07,0A1.56,1.56,0,0,0,204.42,69a1.25,1.25,0,0,0,1.27-.59C205.73,68.39,205.66,68.34,205.61,68.36Z"/><path class="cls-7" d="M205.86,64.62a4,4,0,0,1-3.17.58,5,5,0,0,1-1.35-.51,2,2,0,0,1-.25-.14l-.22-.14a.28.28,0,0,1-.11-.33h0a.6.6,0,0,1,.06-.11h0l.05-.1c.33-.84,1-2.08,1-2.08-.37,0-2.23,0-2-.37a60.89,60.89,0,0,1,6.24-10.57.11.11,0,0,1,.19.12c-1.57,3.45-3.73,6.6-5.36,10a6.72,6.72,0,0,1,2,.22c.11.08-1.25,2.37-1.37,2.76a.06.06,0,0,0,0,0,5.61,5.61,0,0,0,4.33.46C205.91,64.45,206,64.56,205.86,64.62Z"/><path class="cls-7" d="M202,64.48a4.72,4.72,0,0,0,1.17,2.11,2.15,2.15,0,0,0,1.17.59c1,.15,1.32-.64,1.46-1.39a5.19,5.19,0,0,0,.06-1.2A6.18,6.18,0,0,1,202,64.48Z"/><path class="cls-14" d="M203.18,66.59a2.15,2.15,0,0,0,1.17.59c1,.15,1.32-.64,1.46-1.39A2.24,2.24,0,0,0,203.18,66.59Z"/><path class="cls-7" d="M210.5,58.72a1.81,1.81,0,0,0-.08-.94,1.28,1.28,0,0,0-.74-.7,1.12,1.12,0,0,0-1,.14,2,2,0,0,0-.61.7,2.91,2.91,0,0,0-.22.51,2.48,2.48,0,0,0-.14,1.14,4,4,0,0,1,.32-.77,4.65,4.65,0,0,1,.41-.64c.31-.42.72-.71,1.08-.55s.57.55.56,1.07a8.5,8.5,0,0,1-.24,1.6A3.65,3.65,0,0,0,210.5,58.72Z"/><path class="cls-7" d="M200,53.89a1.74,1.74,0,0,1,.73-.59,1.29,1.29,0,0,1,1,0,1.13,1.13,0,0,1,.6.84,2,2,0,0,1-.08.92,4.71,4.71,0,0,1-.21.52,2.53,2.53,0,0,1-.73.89,4.75,4.75,0,0,0,.34-.77,5.18,5.18,0,0,0,.18-.73c.08-.52,0-1-.36-1.17a1,1,0,0,0-1.16.34,8.18,8.18,0,0,0-1,1.28A3.75,3.75,0,0,1,200,53.89Z"/><g class="cls-15"><path d="M210,50.06a14.92,14.92,0,0,1-1.87-.56c-.6-.25-1.15-.63-1.77-.87a10.63,10.63,0,0,0-3.66-.56c-.11,0-.12.07,0,.07a9.11,9.11,0,0,1,3.78.88,11.56,11.56,0,0,0,3,1.2,11.58,11.58,0,0,1,6.41,3.23s0,0,0,0A11.67,11.67,0,0,0,210,50.06Z"/><path d="M210.6,48.45a13.83,13.83,0,0,1-1.77-.53c-.57-.24-1.09-.6-1.67-.83a10.35,10.35,0,0,0-3.48-.53c-.11,0-.11.07,0,.07a8.86,8.86,0,0,1,3.59.83,11.19,11.19,0,0,0,2.83,1.14,11,11,0,0,1,6.08,3.06s0,0,0,0A11.06,11.06,0,0,0,210.6,48.45Z"/></g><path class="cls-13" d="M201.44,44.38c4.39,6.1,14.55,2.93,14.55,2.93a6.74,6.74,0,0,0,5,6.32s-2.4,10.28.2,11.2c4,1.4,10-11.61,9.74-14.7s-3.42-5-3.42-5a6.9,6.9,0,0,0-1.29-4.9c-2-3-12.31-3.62-12.31-3.62a9.22,9.22,0,0,0-1.24-4.08A2.61,2.61,0,0,0,209,31.6a6.07,6.07,0,0,1,.08,2.77c-.57,3.06-2.93,2.21-2-.4A4.32,4.32,0,0,1,209,31.6c-.55-2.13-2.25-3.37-3.73-2.87C202.59,29.64,197.78,39.32,201.44,44.38Z"/><path class="cls-9" d="M206.85,63.61A4.79,4.79,0,0,1,205.39,57h0a4.79,4.79,0,1,1,2.53,7.13A4.56,4.56,0,0,1,206.85,63.61Zm-.92-6.27a4.15,4.15,0,1,0,5.73-1.27,3.94,3.94,0,0,0-.93-.44A4.16,4.16,0,0,0,205.93,57.34Z"/><path class="cls-9" d="M197.69,59.31c-1.79-.83-2.33-3.45-1.21-5.85a5.68,5.68,0,0,1,2.33-2.61A3,3,0,0,1,203.44,53a5.67,5.67,0,0,1-.5,3.46c-1.05,2.27-3.22,3.53-5,3A2.52,2.52,0,0,1,197.69,59.31Zm1.43-7.9a5.05,5.05,0,0,0-2.06,2.32c-1,2.08-.57,4.32.9,5s3.44-.45,4.4-2.53a5,5,0,0,0,.45-3.07,2.58,2.58,0,0,0-1.35-1.93l-.23-.09A2.62,2.62,0,0,0,199.12,51.41Z"/><path class="cls-9" d="M205.3,57.56l.58-.27c-.4-.86-1.58-2.31-3.17-1.67l.24.59C204.37,55.64,205.26,57.48,205.3,57.56Z"/><path class="cls-9" d="M224.13,67.69l.64,0c0-.3-.15-2.94-1.35-3.76s-9.25-3.65-9.59-3.77l-.22.6c2.33.83,8.58,3.11,9.45,3.7S224.1,67,224.13,67.69Z"/><path class="cls-10" d="M218.6,65.34s5.28-4.3,7.33-2.27-3,9-6.13,9.26a3,3,0,0,1-3.45-2.67Z"/><path class="cls-7" d="M224.44,65a0,0,0,0,1,0,.08c-2.23.25-3.81,1.8-5.1,3.52a1.67,1.67,0,0,1,2.53.25c0,.05,0,.11-.09.09a1.85,1.85,0,0,0-2.14.06,9.27,9.27,0,0,0-1.4,1.33c-.14.15-.44,0-.31-.23l0,0C218.62,67.52,221.62,64.51,224.44,65Z"/><path class="cls-3" d="M200.22,85l3.7,10.35L217.09,82.9l3.43,4.28s-13.19,20-13.23,19.08l-3.86-9-6.3,5.88,1.09-15.33Z"/><path class="cls-7" d="M197.24,95.58c.26-2.52.46-5.07.84-7.58,0-.09.16-.12.17,0,.42,2.47-.65,12.11-.72,14.43l0,0c.27-.26,5.83-5.16,5.88-5.08.86,1.43,3.69,8,3.88,8.54,2.09-3.18,10.05-14.72,12.49-17.71a.09.09,0,0,1,.15.1c-1.86,3.36-12.42,18.91-12.57,18.86a100.24,100.24,0,0,1-4-9.46c-.95,1.08-6.59,6.64-6.6,6.27A82.74,82.74,0,0,1,197.24,95.58Z"/><polygon class="cls-8" points="257.4 215.7 253.37 216.45 252.47 220.7 251.57 216.45 247.53 215.7 251.55 214.72 252.47 210.7 253.39 214.72 257.4 215.7"/><polygon class="cls-8" points="188.68 26 184.65 26.74 183.75 30.99 182.85 26.74 178.82 25.99 182.83 25.01 183.75 21 184.67 25.01 188.68 26"/><polygon class="cls-8" points="140.28 162.5 136.25 163.25 135.35 167.5 134.45 163.25 130.41 162.5 134.43 161.52 135.35 157.5 136.27 161.52 140.28 162.5"/><polygon class="cls-8" points="254.85 145.38 250.81 146.12 249.91 150.37 249.01 146.12 244.98 145.37 249 144.39 249.91 140.38 250.83 144.39 254.85 145.38"/><polygon class="cls-8" points="306.97 128.58 304.71 129 304.21 131.37 303.71 129 301.45 128.58 303.7 128.03 304.21 125.78 304.72 128.03 306.97 128.58"/><polygon class="cls-8" points="167.22 120.76 164.97 121.17 164.46 123.55 163.96 121.17 161.71 120.75 163.95 120.21 164.46 117.96 164.98 120.21 167.22 120.76"/><polygon class="cls-8" points="237.07 41.65 234.82 42.07 234.32 44.45 233.81 42.07 231.56 41.65 233.8 41.1 234.32 38.86 234.83 41.1 237.07 41.65"/><polygon class="cls-8" points="289.66 167.02 287.41 167.44 286.9 169.81 286.4 167.44 284.14 167.02 286.39 166.47 286.9 164.22 287.42 166.47 289.66 167.02"/><polygon class="cls-8" points="271.32 171.59 269.07 172.01 268.56 174.38 268.06 172.01 265.81 171.59 268.05 171.04 268.56 168.8 269.08 171.04 271.32 171.59"/><polygon class="cls-8" points="271.32 76.94 269.07 77.36 268.56 79.74 268.06 77.36 265.81 76.94 268.05 76.39 268.56 74.15 269.08 76.39 271.32 76.94"/><polygon class="cls-8" points="173.46 73.54 171.21 73.95 170.71 76.33 170.2 73.95 167.95 73.54 170.19 72.99 170.71 70.74 171.22 72.99 173.46 73.54"/><polygon class="cls-8" points="117.93 71.08 115.67 71.5 115.17 73.88 114.67 71.5 112.41 71.08 114.66 70.53 115.17 68.29 115.68 70.53 117.93 71.08"/><polygon class="cls-8" points="148.23 182.86 145.98 183.28 145.47 185.66 144.97 183.28 142.72 182.86 144.96 182.31 145.47 180.07 145.99 182.31 148.23 182.86"/><path class="cls-8" d="M262,182.21a.66.66,0,0,0,0,1.31A.66.66,0,0,0,262,182.21Z"/><path class="cls-8" d="M272,90.56a.66.66,0,0,0,0,1.31A.66.66,0,0,0,272,90.56Z"/><path class="cls-8" d="M157,34.49a.66.66,0,0,0,0,1.31A.66.66,0,0,0,157,34.49Z"/><path class="cls-8" d="M107.08,75.64a.65.65,0,0,0,0,1.3A.65.65,0,0,0,107.08,75.64Z"/><path class="cls-8" d="M145.47,140.38a.65.65,0,0,0,0,1.3A.65.65,0,0,0,145.47,140.38Z"/><path class="cls-8" d="M126.13,128.42a.47.47,0,0,0,0,.93A.47.47,0,0,0,126.13,128.42Z"/><path class="cls-8" d="M162.09,50.45a.46.46,0,0,0,0,.92A.46.46,0,0,0,162.09,50.45Z"/><path class="cls-8" d="M175.79,115.41a.47.47,0,0,0,0,.93A.47.47,0,0,0,175.79,115.41Z"/><path class="cls-8" d="M133.15,199.12a.46.46,0,0,0,0,.92A.46.46,0,0,0,133.15,199.12Z"/><path class="cls-8" d="M248.13,188.64a1.26,1.26,0,0,0,0,2.51A1.26,1.26,0,0,0,248.13,188.64Z"/><path class="cls-8" d="M323.44,116.5a1.25,1.25,0,0,0,0,2.5A1.25,1.25,0,0,0,323.44,116.5Z"/><path class="cls-8" d="M197,17.16a1.25,1.25,0,0,0,0,2.5A1.25,1.25,0,0,0,197,17.16Z"/><path class="cls-8" d="M180.58,67.07a1.26,1.26,0,0,0,0,2.51A1.26,1.26,0,0,0,180.58,67.07Z"/><path class="cls-8" d="M139.07,194.87a1.25,1.25,0,0,0,0,2.5A1.25,1.25,0,0,0,139.07,194.87Z"/></g></g></svg>