<svg xmlns="http://www.w3.org/2000/svg" viewBox="0 0 425.13 393.71"><defs><style>.cls-1{fill:#ebebeb;}.cls-2,.cls-4{fill:#dbdbdb;}.cls-2{opacity:0.5;}.cls-3{fill:#c7c7c7;}.cls-5{fill:#263238;}.cls-6{fill:#ffc727;}.cls-7{opacity:0.1;}.cls-8{fill:#dd6a57;}.cls-9{fill:#a6a6a6;}.cls-10{fill:#eb9481;}.cls-11{fill:#455a64;}.cls-12{fill:#fff;}.cls-13{fill:#ff9bbc;}</style></defs><g id="Camada_2" data-name="Camada 2"><g id="Background_Complete" data-name="Background Complete"><circle class="cls-1" cx="324.65" cy="62.46" r="43.84" transform="translate(32.82 217.81) rotate(-38.92)"/><path class="cls-2" d="M338,104.21a43.84,43.84,0,1,1-.5-83.66,38.08,38.08,0,1,0,18.38,11.14A43.85,43.85,0,0,1,338,104.21Z"/><path class="cls-3" d="M308,58.7a6.17,6.17,0,1,1-7.76-4A6.19,6.19,0,0,1,308,58.7Z"/><path class="cls-3" d="M347.82,45.94a6.17,6.17,0,1,1-7.76-4A6.17,6.17,0,0,1,347.82,45.94Z"/><path class="cls-3" d="M330.29,49.58a9.21,9.21,0,0,1-.18,6.18,9.29,9.29,0,0,1-17.53-.51Z"/><path class="cls-4" d="M330.11,55.76a9.3,9.3,0,0,1-13.81,4.42,11.13,11.13,0,0,1,13.81-4.42Z"/><circle class="cls-1" cx="61.83" cy="139.96" r="31.57" transform="translate(-87.33 174.08) rotate(-79.05)"/><path class="cls-2" d="M53.82,170.5a31.57,31.57,0,1,1,32-51,27.44,27.44,0,1,0,6.86,13.87A31.58,31.58,0,0,1,53.82,170.5Z"/><path class="cls-3" d="M82.3,138.87a4.44,4.44,0,1,1-3.17-5.43A4.45,4.45,0,0,1,82.3,138.87Z"/><path class="cls-3" d="M53.13,131.22A4.44,4.44,0,1,1,50,125.8,4.45,4.45,0,0,1,53.13,131.22Z"/><path class="cls-3" d="M56.13,130a9.93,9.93,0,0,0,1.57,5.41,7.64,7.64,0,0,0,4.43,2.92,7.47,7.47,0,0,0,5.27-.29,10.94,10.94,0,0,0,4.23-3.77,8.52,8.52,0,0,1-3.68,4.8,7.38,7.38,0,0,1-3,1,9.14,9.14,0,0,1-3.18-.31,9.36,9.36,0,0,1-2.88-1.35,7.2,7.2,0,0,1-2.13-2.4A8,8,0,0,1,56.13,130Z"/></g><g id="Shadow"><ellipse class="cls-1" cx="212.57" cy="368.94" rx="197.04" ry="24.77"/></g><g id="Floor"><polygon class="cls-5" points="0 329.83 53.14 329.59 106.28 329.5 212.57 329.33 318.85 329.5 371.99 329.58 425.13 329.83 371.99 330.07 318.85 330.16 212.57 330.33 106.28 330.16 53.14 330.07 0 329.83"/></g><g id="Smiley_faces" data-name="Smiley faces"><circle class="cls-6" cx="355.81" cy="151.73" r="58.51" transform="translate(-3.07 296.04) rotate(-45)"/><path class="cls-7" d="M336.05,206.81a58.52,58.52,0,1,1,67.41-89,50.79,50.79,0,1,0,10.43,26.73,58.54,58.54,0,0,1-77.84,62.31Z"/><path class="cls-5" d="M325.66,128.62a8.93,8.93,0,0,1,3.9-5.73,8.42,8.42,0,0,1,3.47-1.36,7.94,7.94,0,0,1,7,2.5,8.43,8.43,0,0,1,1.83,3.25,8.89,8.89,0,0,1-.65,6.9,11.85,11.85,0,0,0-.93-6.31,7.11,7.11,0,0,0-9.84-3.53A11.81,11.81,0,0,0,325.66,128.62Z"/><path class="cls-5" d="M378.27,147.48a8.89,8.89,0,0,1,3.89-5.72,8.42,8.42,0,0,1,3.47-1.36,8,8,0,0,1,7,2.5,8.28,8.28,0,0,1,1.82,3.25,8.89,8.89,0,0,1-.64,6.9,11.76,11.76,0,0,0-.94-6.31,7.11,7.11,0,0,0-9.84-3.53A11.76,11.76,0,0,0,378.27,147.48Z"/><path class="cls-5" d="M348.88,134.29a15.18,15.18,0,0,0,1.74,8.53,11.89,11.89,0,0,0,6.5,5.06,11.56,11.56,0,0,0,8.21.15,16.82,16.82,0,0,0,6.92-5.36,13.26,13.26,0,0,1-6.25,6.91,11.39,11.39,0,0,1-4.78,1.18,14.37,14.37,0,0,1-4.84-.85,14.9,14.9,0,0,1-4.26-2.41,11.11,11.11,0,0,1-3-3.91A12.39,12.39,0,0,1,348.88,134.29Z"/><circle class="cls-6" cx="50.11" cy="239.28" r="45.12" transform="translate(-11.98 2.82) rotate(-2.88)"/><path class="cls-7" d="M63.07,282.5a45.12,45.12,0,1,1,1.06-86.11,39.19,39.19,0,1,0,18.7,11.81,45.13,45.13,0,0,1-19.76,74.3Z"/><path class="cls-5" d="M21.57,241.15a6.71,6.71,0,0,1-.32-5.37,6.52,6.52,0,0,1,1.55-2.49,6.44,6.44,0,0,1,2.59-1.53,6.34,6.34,0,0,1,3-.13,6.57,6.57,0,0,1,2.66,1.23,6.75,6.75,0,0,1,2.66,4.68,9.43,9.43,0,0,0-3.52-3.37,5.42,5.42,0,0,0-7.51,2.23A9.37,9.37,0,0,0,21.57,241.15Z"/><path class="cls-5" d="M74.27,222.72a6.35,6.35,0,1,1-7.91-4.26A6.35,6.35,0,0,1,74.27,222.72Z"/><path class="cls-8" d="M38.26,235.21s2.87,3.88,9.75,3.25c0,0-1,12.95-9.12,9.9S38.26,235.21,38.26,235.21Z"/><path class="cls-5" d="M35.75,231.39a14.1,14.1,0,0,0,5.92,5.47,11.08,11.08,0,0,0,7.62.29,10.71,10.71,0,0,0,6.24-4.33,15.56,15.56,0,0,0,2.31-7.76,12.31,12.31,0,0,1-1,8.56,10.5,10.5,0,0,1-3,3.47,13.13,13.13,0,0,1-4.09,2,14.15,14.15,0,0,1-4.5.5A10.51,10.51,0,0,1,41,238.24,11.5,11.5,0,0,1,35.75,231.39Z"/><path class="cls-5" d="M40.47,244.93a13.72,13.72,0,0,1,2.45-6.87,12,12,0,0,1-.75,3.61A12.23,12.23,0,0,1,40.47,244.93Z"/></g><g id="Character"><path class="cls-5" d="M183.59,363.75c-38.57,0-69.95-39.16-69.95-87.3s31.38-87.3,70-87.3,69.94,39.16,69.94,87.3S222.15,363.75,183.59,363.75Zm0-167.6c-34.71,0-62.95,36-62.95,80.3s28.24,80.3,63,80.3,62.94-36,62.94-80.3S218.29,196.15,183.59,196.15Z"/><path class="cls-3" d="M189.1,353.84c-34.12,0-61.88-34.72-61.88-77.39S155,199.06,189.1,199.06,251,233.77,251,276.45,223.23,353.84,189.1,353.84Zm0-149.78c-31.36,0-56.88,32.47-56.88,72.39s25.52,72.39,56.88,72.39S246,316.36,246,276.45,220.47,204.06,189.1,204.06Z"/><rect class="cls-9" x="86.58" y="172.69" width="103.36" height="39.9"/><path class="cls-3" d="M173.18,308.59H86.58v-5h86.6a14.22,14.22,0,0,0,14.21-14.21V95.81a19.23,19.23,0,0,1,19.21-19.2h11.67v5H206.6a14.22,14.22,0,0,0-14.21,14.2V289.38A19.23,19.23,0,0,1,173.18,308.59Z"/><path class="cls-3" d="M89.08,335.6h-5v-165a17.31,17.31,0,0,1,17.29-17.29h88.52v5H101.37a12.3,12.3,0,0,0-12.29,12.29Z"/><ellipse class="cls-3" cx="186.72" cy="276.45" rx="10.03" ry="12.65"/><ellipse class="cls-4" cx="189.94" cy="276.45" rx="10.03" ry="12.65"/><rect class="cls-3" x="189.94" y="273.95" width="90.85" height="5"/><ellipse class="cls-3" cx="84.71" cy="349.69" rx="13.05" ry="16.46"/><ellipse class="cls-4" cx="88.9" cy="349.69" rx="13.05" ry="16.46"/><rect class="cls-5" x="202.78" y="73.96" width="30.98" height="9.94"/><rect class="cls-5" x="192.48" y="96.89" width="88.31" height="95.76"/><rect class="cls-5" x="63.92" y="340.96" width="115.99" height="14.96"/><path class="cls-5" d="M216.67,26.08c2.92-4.71,9-6.76,15.23-6.64s14,1.8,16.39,11.32c1.93,7.74.74,15.81,2.34,24.53s15.68,28.24,1,41.46c-13.23,11.89-44.94,8.51-49.28-10.53-3.43-15.09,13-32.41,13.9-38.78S213.47,31.24,216.67,26.08Z"/><path class="cls-5" d="M215.47,35.14a32.78,32.78,0,0,1-.38,13.33,12.55,12.55,0,0,1-1.36,3.21c-.58,1-1.21,2-1.84,2.92-1.28,1.9-2.54,3.79-3.71,5.72a45.22,45.22,0,0,0-5.35,12.19,33.46,33.46,0,0,0-.65,13.11,28.66,28.66,0,0,1-1-6.59,31.45,31.45,0,0,1,.62-6.69A40.11,40.11,0,0,1,207,59.74c1.2-2,2.5-3.86,3.79-5.74a22.45,22.45,0,0,0,3.27-5.78,27.12,27.12,0,0,0,1.22-6.46A52.23,52.23,0,0,0,215.47,35.14Z"/><path class="cls-5" d="M249,37.41c.67,4.47,1.17,9,2.07,13.34a52.6,52.6,0,0,0,1.75,6.46c.72,2.08,1.77,4.11,2.72,6.18s1.83,4.18,2.6,6.33a36.3,36.3,0,0,1,1.64,6.65,23.21,23.21,0,0,1-.13,6.86,16.83,16.83,0,0,1-2.88,6.29A17.73,17.73,0,0,0,259,83.15a23,23,0,0,0-.24-6.63,55.82,55.82,0,0,0-4.46-12.64,67,67,0,0,1-2.69-6.3,41.75,41.75,0,0,1-1.55-6.66A103.65,103.65,0,0,1,249,37.41Z"/><path class="cls-10" d="M48.05,340.2c2.67.9,79.21,1,82.13-.8,1.11-.69,1.79-11.83,2.22-25.33.09-2.91.17-5.92.23-9a376.9,376.9,0,0,1,3.57-40.91L85,263.94l-2.16,40.92.21,9s-29.33,13.05-32.32,15.41S45.37,339.3,48.05,340.2Z"/><path class="cls-6" d="M132.17,320.14c-.43,10.63-1,18.69-2,19.27-2.92,1.84-79.47,1.69-82.14.79s-.29-8.58,2.68-10.94c1.32-1,7.7-4.14,14.45-7.29h0s-6.67,5.38-4.21,6.15C73.9,332.15,118.1,323.17,132.17,320.14Z"/><path class="cls-11" d="M238.29,126.8H210.44l-7.67,10.1s-80.88,13.3-98.07,35.47C85,197.83,78.46,301.06,78.46,301.06H135.1s8-91.72,13.73-99.29,85.8-9,101.27-20.53,3.56-54.44,3.56-54.44Z"/><path class="cls-5" d="M132.81,292a46.87,46.87,0,0,0-5-.35l-5-.18c-3.4-.13-6.81-.15-10.21-.2-6.81-.1-13.61-.17-20.42-.14-1.91,0-3.82,0-5.73,0s-3.84,0-5.73.26c-.08,0-.12.14,0,.15a92.28,92.28,0,0,0,10,.54c3.4.1,6.8.2,10.21.26q10.22.18,20.42.23c1.91,0,3.82,0,5.73-.05a52.08,52.08,0,0,0,5.73-.22C132.93,292.28,133,292,132.81,292Z"/><path class="cls-5" d="M245.85,173.89c-11.74,4.82-24.2,7.64-36.68,9.74s-25.22,3.47-37.84,5.13c-6.33.83-12.78,1.54-18.94,3.32a21.32,21.32,0,0,0-7.67,3.46c-2.24,1.84-3.23,4.5-3.85,7.25-1.46,6.52-2.52,13.15-3.65,19.72s-2.2,13.42-3.2,20.14c-2,13.53-3.76,27.1-5.5,40.67-.21,1.64-.4,3.28-.59,4.92,0,.17.24.24.26.06,2-13.35,3.79-26.73,5.81-40.08s4.18-26.69,6.68-40c.55-2.94.89-6.14,2.15-8.89s3.65-4.32,6.38-5.39c5.95-2.34,12.42-3.14,18.72-4,12.43-1.74,24.93-3.06,37.33-5.09a198.88,198.88,0,0,0,36.36-9.18c1.43-.52,2.86-1.07,4.28-1.65C246,174,245.94,173.85,245.85,173.89Z"/><path class="cls-10" d="M91,347.68c2.67.9,79.21,1.05,82.13-.79,1.12-.69,1.79-11.84,2.22-25.33.09-2.91.17-5.92.23-9,.43-19.84.42-40.9.42-40.9l-51.2-.25,1,40.91.21,9s-29.33,13.05-32.32,15.41S88.34,346.78,91,347.68Z"/><path class="cls-10" d="M176,271.68s0,21.06-.42,40.9c-.06,3.06-.14,6.07-.23,9-.06,2.09-.14,4.11-.22,6.06-.43,10.63-1,18.69-2,19.27-2.92,1.84-79.47,1.69-82.14.79s-.29-8.58,2.68-10.94c1.32-1,7.7-4.14,14.45-7.29h0c8.63-4,17.85-8.13,17.85-8.13l-.21-9-1-40.91Z"/><path class="cls-6" d="M175.14,327.62c-.43,10.63-1,18.69-2,19.27-2.92,1.84-79.47,1.69-82.14.79s-.29-8.58,2.68-10.94c1.32-1,7.7-4.14,14.45-7.29h0s-6.67,5.38-4.21,6.15C116.87,339.63,161.07,330.65,175.14,327.62Z"/><path class="cls-5" d="M126.19,321.54h0a.15.15,0,0,0,0-.08c0-2.74-.73-15-.76-16.46a.08.08,0,1,0-.15,0c0,1.37.19,13.57.46,16.22-5.48,2.16-10.87,4.48-16.24,6.91-2.68,1.22-5.35,2.47-8,3.76a47.37,47.37,0,0,0-6.65,3.6,9.59,9.59,0,0,0-4.15,5.69c0,.1.14.18.18.07a10.49,10.49,0,0,1,4.3-4.69,61,61,0,0,1,6.36-3.45c5.14-2.6,10.32-5.14,15.59-7.48,3-1.31,5.89-2.66,8.86-3.93a.31.31,0,0,0,.11-.08A.2.2,0,0,0,126.19,321.54Z"/><path class="cls-11" d="M122.38,308.55l57.63,0s-6.51-96.33,3.56-103.81c12.87-9.55,52.62-8,75.18-23.64,18.33-12.71,5.48-54.34,5.48-54.34h-51s-6.4,7.79-7.58,12.37c0,0-57.5,16.81-72.18,35.44C113.8,199.54,122.38,308.55,122.38,308.55Z"/><path class="cls-5" d="M203.5,140.39a317.62,317.62,0,0,0-37.16,12.67,131.46,131.46,0,0,0-17.21,8.79c-5.43,3.31-10.88,7-14.95,12a42.31,42.31,0,0,0-7.75,16.12A141.92,141.92,0,0,0,123,209.26a386.37,386.37,0,0,0-2.71,42.87c-.09,7.18,0,14.36.12,21.53s.35,14.48.91,21.68c.14,1.78.23,3.56.36,5.34a.08.08,0,0,0,.16,0c.14-14.2-.34-28.4-.31-42.6a415,415,0,0,1,2-42.45c.71-6.78,1.56-13.59,2.89-20.28,1.17-5.91,2.86-11.82,6-17,3.31-5.46,8.24-9.49,13.49-13a133.67,133.67,0,0,1,16.85-9.44c11.68-5.54,23.92-9.69,36.23-13.61,1.54-.49,3.07-1,4.61-1.53A.19.19,0,0,0,203.5,140.39Z"/><path class="cls-5" d="M211.48,140.4c-.79-.21-1.56-.51-2.37-.66s-1.62-.26-2.44-.37c-1.59-.21-3.18-.39-4.78-.54-3.27-.31-6.55-.32-9.82-.54-.1,0-.1.15,0,.16,3.3.21,6.58.8,9.84,1.28,1.58.24,3.16.48,4.74.74.82.13,1.63.26,2.44.36s1.56.07,2.33.14C211.75,141,211.79,140.48,211.48,140.4Z"/><path class="cls-5" d="M216.08,127.6c-1.1,1.58-2.11,3.21-3.17,4.82l-1.56,2.36a18.39,18.39,0,0,1-1.44,2.05c-1,1.09-3.09,1.8-3.62-.09a3.69,3.69,0,0,1,.33-2.35c.33-.78.71-1.55,1.1-2.31.92-1.78,2-3.46,3-5.19,0-.08-.08-.17-.15-.1a27.37,27.37,0,0,0-3.58,4.9c-.92,1.54-2.15,3.38-1.71,5.26a2.56,2.56,0,0,0,3.66,1.7c1.68-.78,2.54-2.82,3.43-4.33,1.29-2.2,2.65-4.38,3.89-6.61C216.36,127.58,216.16,127.48,216.08,127.6Z"/><path class="cls-5" d="M255.21,152.43c-1.15-.3-2.38-.36-3.54-.58s-2.37-.43-3.54-.73a43.25,43.25,0,0,1-6.56-2.12,15.68,15.68,0,0,1-5-3.22,11.13,11.13,0,0,1-2.78-5.7c-.25-1.22-.42-2.46-.58-3.7a7.48,7.48,0,0,1,.24-3.76s0,0,0,0l.08-.23c0-.11-.11-.15-.17-.07a5.54,5.54,0,0,0-.87,3c0,1.21,0,2.42.13,3.62a13.44,13.44,0,0,0,2,6.69c2.66,3.86,7.6,5.52,12,6.5a36.53,36.53,0,0,0,4.31.71c.73.07,1.46.09,2.2.11a11.14,11.14,0,0,0,2.16,0C255.48,152.88,255.43,152.49,255.21,152.43Z"/><path class="cls-5" d="M261.49,136.2c-.4-1.88-.83-3.77-1.24-5.65,0-.1-.17-.05-.15,0,2.73,13.66,5.63,29.86-3.22,41.91-4.08,5.55-10.21,8.32-16.54,10.15-7,2-14.1,3.51-21.17,5.16s-14.4,3.44-21.44,5.76c-6.07,2-12.57,4.18-17.59,8.38a19.71,19.71,0,0,0-5.47,7.25,32.25,32.25,0,0,0-2.23,9.4c-.38,3.53-.49,7.09-.65,10.64-.18,4.05-.31,8.11-.42,12.16q-.66,24.2.26,48.37c.08,2,.16,4,.27,5.92a.26.26,0,0,0,.52,0c-.52-16.17-.85-32.34-.54-48.52.15-8,.41-16,.83-23.95.35-6.77,1.19-14,6-19.07,4.55-4.86,11.16-7.21,17.22-9.3a219.92,219.92,0,0,1,21.39-5.93c7.18-1.69,14.42-3.21,21.55-5.12,6.14-1.64,12.39-3.9,16.88-8.73C265.32,164.74,264.21,149.08,261.49,136.2Z"/><path class="cls-5" d="M177,300.18a47.08,47.08,0,0,0-5-.2c-1.66,0-3.32,0-5,0-3.4,0-6.81.05-10.21.1-6.81.1-13.62.22-20.42.45-1.91.07-3.82.11-5.73.21s-3.83.15-5.72.42c-.08,0-.11.14,0,.15a90.12,90.12,0,0,0,10,.25c3.4,0,6.81,0,10.21,0q10.22-.12,20.42-.37c1.91,0,3.82-.14,5.73-.22a52.17,52.17,0,0,0,5.72-.39C177.14,300.49,177.21,300.2,177,300.18Z"/><path class="cls-10" d="M230.42,79.27A89,89,0,0,1,186.1,68.79c-5.57-3.19-28.64-48.91-27.81-52.17.94-3.69,19.48-1.72,26.39,4,.71.6,14,31.7,15.65,32.72,3,1.88,18.72,9.33,25.43,12.85C236.91,72.07,240.53,78.86,230.42,79.27Z"/><path class="cls-4" d="M231.37,80.7c-6.51,1-20-.28-20-.28l-4.18-24.26s19.84,7.9,28.54,15.69C239.28,75,238,79.71,231.37,80.7Z"/><path class="cls-12" d="M211.29,63.51a7.14,7.14,0,0,1-.83-1.88,7.73,7.73,0,0,1-.36-2,7.14,7.14,0,0,1,.83,1.88A7.65,7.65,0,0,1,211.29,63.51Z"/><path class="cls-12" d="M230.61,73.67a7.35,7.35,0,0,1,1.89-.83,7.58,7.58,0,0,1,2-.36,7.35,7.35,0,0,1-1.89.83A7.65,7.65,0,0,1,230.61,73.67Z"/><path class="cls-12" d="M220.35,69.57a8,8,0,0,1-.74,1.92,7.67,7.67,0,0,1-1.19,1.68,8.59,8.59,0,0,1,1.93-3.6Z"/><path class="cls-3" d="M231.38,80.7c-6.52,1-19.95-.28-19.95-.28l-.87-5.07,23.45-5c.63.49,1.23,1,1.78,1.48C239.28,75,238,79.71,231.38,80.7Z"/><path class="cls-5" d="M214.68,79.69c-.39-3.64-.82-7.27-1.42-10.89q-.45-2.7-1-5.39c-.36-1.79-.89-3.55-1.22-5.34a.08.08,0,1,0-.15,0c.42,1.77.6,3.62.92,5.41s.64,3.6.94,5.4c.61,3.6,1.22,7.21,1.74,10.82C214.54,79.83,214.69,79.79,214.68,79.69Z"/><path class="cls-4" d="M204.3,133.72s22.1,8,65.59,9.32c0,0-10.58-55.7-22.46-71.76-5.4-7.31-11.55-7-17.15-3.36-1.4.91-19.54,19.13-21.7,26-1.9,6,2.33,13.49,2.33,13.49Z"/><path class="cls-12" d="M250.39,118.11a8.11,8.11,0,0,1-.83-1.89,7.58,7.58,0,0,1-.35-2,7.35,7.35,0,0,1,.83,1.89A7.58,7.58,0,0,1,250.39,118.11Z"/><path class="cls-12" d="M234.54,92.91a7.87,7.87,0,0,1-.83-1.88,7.64,7.64,0,0,1-.35-2,7.14,7.14,0,0,1,.83,1.88A7.71,7.71,0,0,1,234.54,92.91Z"/><path class="cls-12" d="M262.61,140.66a8.11,8.11,0,0,1-.83-1.89,7.64,7.64,0,0,1-.35-2,8.11,8.11,0,0,1,.83,1.89A7.58,7.58,0,0,1,262.61,140.66Z"/><path class="cls-12" d="M223.23,120.48a7.14,7.14,0,0,1-.83-1.88,7.64,7.64,0,0,1-.35-2,7.87,7.87,0,0,1,.83,1.88A8.07,8.07,0,0,1,223.23,120.48Z"/><path class="cls-12" d="M242.54,71.68a8.11,8.11,0,0,1-.83-1.89,7.58,7.58,0,0,1-.35-2,8.11,8.11,0,0,1,.83,1.89A7.58,7.58,0,0,1,242.54,71.68Z"/><path class="cls-12" d="M234.24,113.13a7.87,7.87,0,0,1,1.88-.83,7.71,7.71,0,0,1,2-.35,7.14,7.14,0,0,1-1.88.83A7.64,7.64,0,0,1,234.24,113.13Z"/><path class="cls-12" d="M213.86,99.8a7.35,7.35,0,0,1,1.89-.83,7.58,7.58,0,0,1,2-.36,7.35,7.35,0,0,1-1.89.83A7.65,7.65,0,0,1,213.86,99.8Z"/><path class="cls-12" d="M230.61,73.67a7.35,7.35,0,0,1,1.89-.83,7.58,7.58,0,0,1,2-.36,7.35,7.35,0,0,1-1.89.83A7.65,7.65,0,0,1,230.61,73.67Z"/><path class="cls-12" d="M222.54,134a7.87,7.87,0,0,1,1.88-.83,7.64,7.64,0,0,1,2-.35,7.87,7.87,0,0,1-1.88.83A8.07,8.07,0,0,1,222.54,134Z"/><path class="cls-12" d="M251.53,89.94a7.35,7.35,0,0,1,1.89-.83,7.58,7.58,0,0,1,2-.36,7.35,7.35,0,0,1-1.89.83A7.58,7.58,0,0,1,251.53,89.94Z"/><path class="cls-12" d="M250.57,131.44a7.87,7.87,0,0,1,1.88-.83,7.64,7.64,0,0,1,2-.35,7.87,7.87,0,0,1-1.88.83A7.64,7.64,0,0,1,250.57,131.44Z"/><path class="cls-12" d="M240.5,125.13a8.42,8.42,0,0,1-1.92-.75,7.67,7.67,0,0,1-1.68-1.19,7.59,7.59,0,0,1,1.92.75A7.23,7.23,0,0,1,240.5,125.13Z"/><path class="cls-12" d="M214.3,112.7a7.59,7.59,0,0,1-1.92-.75,7.49,7.49,0,0,1-1.68-1.18,7.57,7.57,0,0,1,1.92.74A7.67,7.67,0,0,1,214.3,112.7Z"/><path class="cls-12" d="M246.22,100.52a7.82,7.82,0,0,1-1.92-.75,7.5,7.5,0,0,1-1.69-1.19,7.52,7.52,0,0,1,1.93.75A7.67,7.67,0,0,1,246.22,100.52Z"/><path class="cls-12" d="M227,85.59a7.31,7.31,0,0,1-1.92-.75,7.78,7.78,0,0,1-1.69-1.18,7.65,7.65,0,0,1,1.92.74A8.2,8.2,0,0,1,227,85.59Z"/><path class="cls-12" d="M263.84,123.18a7.59,7.59,0,0,1-1.92-.75,7.78,7.78,0,0,1-1.69-1.18,7.87,7.87,0,0,1,1.93.74A8.41,8.41,0,0,1,263.84,123.18Z"/><path class="cls-12" d="M258.69,102.93a8,8,0,0,1-.75,1.92,7.23,7.23,0,0,1-1.19,1.68,8,8,0,0,1,.75-1.92A7.67,7.67,0,0,1,258.69,102.93Z"/><path class="cls-12" d="M227.81,102.19a7.65,7.65,0,0,1-.74,1.92,7.83,7.83,0,0,1-1.19,1.69,7.8,7.8,0,0,1,.74-1.92A8.2,8.2,0,0,1,227.81,102.19Z"/><path class="cls-12" d="M213.23,127.36a8,8,0,0,1-.75,1.92,7.67,7.67,0,0,1-1.19,1.68A8,8,0,0,1,212,129,7.44,7.44,0,0,1,213.23,127.36Z"/><path class="cls-12" d="M242.19,135.09a8.42,8.42,0,0,1-.75,1.92,7.67,7.67,0,0,1-1.19,1.68,7.59,7.59,0,0,1,.75-1.92A7.23,7.23,0,0,1,242.19,135.09Z"/><path class="cls-12" d="M245.6,79.27a8,8,0,0,1-.75,1.92,7.5,7.5,0,0,1-1.19,1.69,7.9,7.9,0,0,1,.75-1.93A7.67,7.67,0,0,1,245.6,79.27Z"/><path class="cls-12" d="M215.09,86.3a8.31,8.31,0,0,1-1.93,3.6,7.59,7.59,0,0,1,.75-1.92A7.49,7.49,0,0,1,215.09,86.3Z"/><path class="cls-10" d="M240.34,67.77c-.2,1.18-5.25,9.11-10.58,9.22-1.74,0-2.34-9.45-2.34-9.45l-.21-.69-2.85-9.66,11-8.17,1.6-1.09s.6,2.7,1.32,6.06c0,.15.07.31.11.48s.09.37.12.54c.12.5.23,1,.33,1.53s.16.77.23,1.18.15.81.23,1.22A66.47,66.47,0,0,1,240.34,67.77Z"/><path class="cls-5" d="M238.31,54a20.2,20.2,0,0,1-11.1,12.86l-2.85-9.66,11-8.17,1.6-1.09S237.59,50.63,238.31,54Z"/><path class="cls-6" d="M218.42,21.89s14-6.82,22.29,1.27.65,20.59.65,20.59,3-15.6-4.73-19.7S218.42,21.89,218.42,21.89Z"/><path class="cls-10" d="M209.71,42.18c-1.47,17.62,8.92,20.49,12.72,20.8,3.44.28,15.22.81,18.5-16.56s-4.45-23.62-12.3-24.69S211.17,24.57,209.71,42.18Z"/><path class="cls-5" d="M214.34,39.4a10.1,10.1,0,0,0,1.21-.18,1.9,1.9,0,0,0,1.19-.42.63.63,0,0,0,0-.76,1.55,1.55,0,0,0-1.51-.46,2.3,2.3,0,0,0-1.49.72A.67.67,0,0,0,214.34,39.4Z"/><path class="cls-5" d="M226.45,40.48a12.09,12.09,0,0,1-1.18-.32,2,2,0,0,1-1.14-.56.65.65,0,0,1,.05-.77,1.59,1.59,0,0,1,1.56-.27,2.28,2.28,0,0,1,1.38.9A.67.67,0,0,1,226.45,40.48Z"/><path class="cls-5" d="M223.62,44.21c0-.05.09.06.09.11-.14,1.2-.1,2.59.95,3.08,0,0,0,.08,0,.07C223.33,47.17,223.3,45.32,223.62,44.21Z"/><path class="cls-5" d="M224.8,43.05c1.94,0,1.76,3.9,0,3.88S223.17,43,224.8,43.05Z"/><path class="cls-5" d="M225.55,43.29c.33.23.65.64,1,.69s.85-.32,1.18-.69c0,0,.06,0,.06,0,0,.75-.34,1.5-1.15,1.57s-1.22-.61-1.37-1.37C225.29,43.39,225.42,43.19,225.55,43.29Z"/><path class="cls-5" d="M216.71,43.7s-.1.06-.1.11c0,1.2-.22,2.58-1.32,2.94,0,0,0,.07,0,.06C216.63,46.68,216.89,44.85,216.71,43.7Z"/><path class="cls-5" d="M215.68,42.41c-1.93-.22-2.23,3.65-.44,3.86S217.3,42.59,215.68,42.41Z"/><path class="cls-5" d="M214.85,42.6c-.32.18-.65.53-1,.53s-.71-.45-1-.87c0,0,0,0-.06,0-.08.74.11,1.53.81,1.73s1.16-.42,1.4-1.14C215.07,42.74,215,42.53,214.85,42.6Z"/><path class="cls-5" d="M222.55,54.09c-.29.28-.58.67-1,.7a3.13,3.13,0,0,1-1.3-.3s-.07,0-.05.06a1.62,1.62,0,0,0,1.53.65,1.26,1.26,0,0,0,.94-1.06A.06.06,0,0,0,222.55,54.09Z"/><path class="cls-5" d="M217.77,49.45s-.35,1.79-.4,2.63c0,.08.2.13.49.16h0a4,4,0,0,0,4-1.28.09.09,0,0,0-.12-.13,6.1,6.1,0,0,1-3.74.85c0-.24.7-3,.57-3a7.61,7.61,0,0,0-1.95.32c.63-3.73,1.84-7.33,2.41-11.05,0-.13-.18-.18-.22-.07a62,62,0,0,0-3.1,11.8C215.65,50.12,217.43,49.58,217.77,49.45Z"/><path class="cls-5" d="M218,51.85a4.86,4.86,0,0,0,1.75,1.76,2.17,2.17,0,0,0,1.32.25c1-.12,1.13-1,1-1.78a5.13,5.13,0,0,0-.28-1.21A6.35,6.35,0,0,1,218,51.85Z"/><path class="cls-13" d="M219.76,53.61a2.17,2.17,0,0,0,1.32.25c1-.12,1.13-1,1-1.78A2.28,2.28,0,0,0,219.76,53.61Z"/><path class="cls-5" d="M240.14,47.59a7.17,7.17,0,0,1-4-5.85,18.76,18.76,0,0,1-7.61-6.16c.12.36.95,3,1.42,4.26-11-2.09-14.42-10.54-14.42-10.54a18.92,18.92,0,0,0-4.83,7s-.06-6.77,3.43-11.29c4.27-5.54,18.66-7,25.3.25C246.58,33.07,240.14,47.59,240.14,47.59Z"/><path class="cls-5" d="M221.57,38a20.26,20.26,0,0,0,5.65,2.09s0,0,0,0a17.31,17.31,0,0,1-8.09-4.92,16.25,16.25,0,0,1-2.37-3.33,11.43,11.43,0,0,1-1.46-4.21.09.09,0,0,0-.17,0A13.47,13.47,0,0,0,216,32a12,12,0,0,0,2.44,3.66A13.9,13.9,0,0,0,221.57,38"/><path class="cls-10" d="M240.42,52.91a3.52,3.52,0,0,1-.81.22,2.66,2.66,0,0,1-.84,0,2.4,2.4,0,0,1-1-.32,2.72,2.72,0,0,1-.67-.52,3.31,3.31,0,0,1-.67-1l1-4.72s3.84-5.53,6.35-4.16S243.36,51.81,240.42,52.91Z"/><path class="cls-5" d="M242.84,44.71s.06.06,0,.08c-2.06.84-3.14,2.75-3.89,4.74a1.64,1.64,0,0,1,2.46-.46c.06,0,0,.12-.05.11a1.83,1.83,0,0,0-2,.65,9,9,0,0,0-1,1.64c-.09.18-.42.08-.35-.13v-.05C238,48.67,240,45,242.84,44.71Z"/><path class="cls-12" d="M240.18,52.17a.82.82,0,1,1-1.61-.32.82.82,0,0,1,1-.64A.83.83,0,0,1,240.18,52.17Z"/><path class="cls-12" d="M241.85,50.93a.58.58,0,0,1-.68.46.59.59,0,0,1-.45-.69.58.58,0,1,1,1.13.23Z"/><circle class="cls-6" cx="140.73" cy="75.75" r="67.17"/><path class="cls-7" d="M140.73,142.92A67.17,67.17,0,1,1,179.06,20.59a58.33,58.33,0,1,0,21.62,24.84,67.19,67.19,0,0,1-60,97.49Z"/><circle class="cls-5" cx="108.66" cy="62.46" r="9.46"/><circle class="cls-5" cx="172.81" cy="62.46" r="9.46"/><path class="cls-5" d="M155,59.59a14.25,14.25,0,1,1-28.5,0Z"/><path class="cls-8" d="M151.84,68.52a14.25,14.25,0,0,1-22.21,0,17.06,17.06,0,0,1,22.21,0Z"/><path class="cls-10" d="M251.12,83.27c2.92,19.56,6.45,46.5-2.91,51.26-15.38,7.84-40.31,11.37-50.93,13.65-3.8.81-8.07-26.2-4.11-27.46,5.16-1.64,38-7.28,38.86-9.69.46-1.37,3.07-14.14,6.85-31.23C242.83,62,250.18,77,251.12,83.27Z"/><path class="cls-10" d="M198.63,147.8c-10.19,2.84-22.7,7-34.22,3.93a6,6,0,0,1-3.26-2.09c-5.2-1.28-6.15-4.12-6.15-4.12-4.47-2.67-5-5.71-5-5.71s-6.08-1.57-5.74-5.4c.37-4.3,8.83-1.25,14.51-2.42,13-2.68,30.77-10.13,34.44-11.27Z"/><path class="cls-5" d="M174.34,138.77a86,86,0,0,1-11.52,1.7,86.26,86.26,0,0,1-12.75-.75.11.11,0,0,0,0,.21,45.16,45.16,0,0,0,24.34-1C174.56,138.88,174.54,138.73,174.34,138.77Z"/><path class="cls-5" d="M177.1,146.39c-3.78.49-10.43,1.3-22.08-1,0,0-.06,0,0,.07a40.56,40.56,0,0,0,22.13,1.1C177.36,146.52,177.35,146.36,177.1,146.39Z"/><path class="cls-5" d="M178.51,150.51c-6.46.58-10.61.13-17.33-.89,0,0-.06.06,0,.07,7.52,2,10.47,1.82,17.4,1C178.8,150.7,178.76,150.49,178.51,150.51Z"/><path class="cls-10" d="M174.21,127.77c1.56-1,1-1.84-2.26-2.13s-16.59,1.39-16.78-3.3,18.59-6.77,24-5.87,14,4.25,14,4.25C189.6,121.86,181.19,125.45,174.21,127.77Z"/><path class="cls-4" d="M257,103.81l-23.24-9.54s1.87-12.48,3.87-19.24c2.66-9,6.6-10.07,11.38.33C252.22,82.32,257,103.81,257,103.81Z"/><path class="cls-12" d="M234.55,92.91a5.93,5.93,0,0,1-.43-.78h0c0-.28.1-.6.16-.92A6.86,6.86,0,0,1,234.55,92.91Z"/><path class="cls-12" d="M242.54,71.68a8.11,8.11,0,0,1-.83-1.89,12.17,12.17,0,0,1-.32-1.48l.22-.13a7.93,7.93,0,0,1,.58,1.46A7.72,7.72,0,0,1,242.54,71.68Z"/><path class="cls-12" d="M253.54,89.59a7.83,7.83,0,0,1-2,.34,7.8,7.8,0,0,1,1.87-.83C253.46,89.27,253.5,89.43,253.54,89.59Z"/><path class="cls-12" d="M245.6,79.27a8,8,0,0,1-.75,1.92,7.5,7.5,0,0,1-1.19,1.69,7.9,7.9,0,0,1,.75-1.93A7.67,7.67,0,0,1,245.6,79.27Z"/><path class="cls-5" d="M236.62,95.44c-.24-.14-2.59-1.2-2.78-1.23.26-1.46.53-2.92.77-4.39.12-.73.23-1.47.32-2.2s.27-1.73.37-2.45c0-.11-.13-.14-.15,0-.22.92-.35,1.61-.53,2.41-.13.57-.24,1.14-.35,1.71l0-.45c0-.82-.14-1.62-.13-2.44,0-.1-.16-.1-.15,0,0,.82-.06,1.63,0,2.44a11.46,11.46,0,0,0,.08,1.85c-.24,1.23-.49,2.49-.65,3.71a25.94,25.94,0,0,0,3.23,1.16S236.65,95.47,236.62,95.44Z"/><path class="cls-5" d="M255.56,100.64C252.28,99,249,97.45,245.6,96Q243.08,95,240.52,94c-1.7-.66-3.48-1.14-5.16-1.83-.1,0-.15.12-.06.15,1.72.59,3.38,1.43,5.07,2.11l5.07,2.09c3.37,1.41,6.74,2.82,10.07,4.31C255.6,100.83,255.65,100.68,255.56,100.64Z"/><path class="cls-5" d="M257.36,104c-.34-3.29-3.89-16.55-5.21-19.62,0,0-.08,0-.07,0,.64,3.26,4.06,16,4.89,19.15-.06,0-2.7-1-3.44-1.25-.12,0-.16.1-.06.15A31.63,31.63,0,0,0,257.36,104Z"/><path class="cls-10" d="M189.22,22.55c-2.35-3.56-4.06-10-6.56-11.92a3.64,3.64,0,0,0-4.33-.26s.29-3.5-2.27-4.89c-1.31-.72-3.62.75-3.62.75a4.32,4.32,0,0,0-2.24-3.91c-1.88-.88-3.9.72-3.9.72S165.14.3,163,0c-4.45-.58-13.64,14.61-9.46,20.34,1.94,2.68,4-1.16,4-1.16s-1.61,6.22,1.47,8.2,5.44-3.17,5.44-3.17-1.51,6,1.9,7.77,5-3.75,5-3.75.25,4.76,3.16,5.48c4.8,1.2,3.58-8.27,6.39-11.13l6.62,1.49Z"/><path class="cls-10" d="M186.27,16.61c2.52,3.17,9,1.57,11.81,4.26,3.84,3.64-3.51,6-10.61,3.22L182.34,21Z"/><path class="cls-5" d="M165.94,3.25s0-.11-.07-.06a30.79,30.79,0,0,0-8.53,16.21c0,.2.27.33.35.12A62.65,62.65,0,0,1,165.94,3.25Z"/><path class="cls-5" d="M172.45,6.13s0-.12-.1-.07a28.94,28.94,0,0,0-8.21,18.27c0,.24.23.46.26.19C164.93,19.87,169.08,10.77,172.45,6.13Z"/><path class="cls-5" d="M171.44,28.77c.53-6.72,3.15-12.59,6.71-18.23,0-.07-.07-.13-.12-.08-2.5,2.29-4.39,6.12-5.61,9.23a17.68,17.68,0,0,0-1.21,9.06C171.23,28.87,171.43,28.91,171.44,28.77Z"/><rect class="cls-9" x="177.47" y="172.69" width="103.51" height="39.9"/><path class="cls-3" d="M264.08,308.59H177.47v-5h86.61a14.22,14.22,0,0,0,14.2-14.21V95.81a19.23,19.23,0,0,1,19.21-19.2h11.67v5H297.49a14.22,14.22,0,0,0-14.21,14.2V289.38A19.23,19.23,0,0,1,264.08,308.59Z"/><path class="cls-3" d="M180,335.6h-5v-165a17.31,17.31,0,0,1,17.29-17.29h88.52v5H192.26A12.31,12.31,0,0,0,180,170.64Z"/><rect class="cls-5" x="293.67" y="73.96" width="30.98" height="9.94"/><path class="cls-5" d="M275.46,363.75c-38.57,0-69.94-39.16-69.94-87.3s31.37-87.3,69.94-87.3,70,39.16,70,87.3S314,363.75,275.46,363.75Zm0-167.6c-34.71,0-62.94,36-62.94,80.3s28.23,80.3,62.94,80.3,63-36,63-80.3S310.17,196.15,275.46,196.15Z"/><path class="cls-3" d="M281,353.84c-34.12,0-61.88-34.72-61.88-77.39s27.76-77.39,61.88-77.39,61.88,34.71,61.88,77.39S315.1,353.84,281,353.84Zm0-149.78c-31.36,0-56.88,32.47-56.88,72.39s25.52,72.39,56.88,72.39,56.88-32.48,56.88-72.39S312.35,204.06,281,204.06Z"/><ellipse class="cls-3" cx="278.61" cy="276.45" rx="10.03" ry="12.65"/><ellipse class="cls-4" cx="281.83" cy="276.45" rx="10.03" ry="12.65"/><ellipse class="cls-3" cx="178.88" cy="349.69" rx="13.05" ry="16.46"/><ellipse class="cls-4" cx="183.07" cy="349.69" rx="13.05" ry="16.46"/></g><g id="Plant"><path class="cls-6" d="M375.1,247.45A45.6,45.6,0,0,0,376,265a48.57,48.57,0,0,0,2.69,7.77c1.4,3.21,2.86,6.35,2.51,9.87-.34.22.82.19.86-.15,9.4-5.36,21.45-6.34,28.69-15.09,3.42-4.14,5.15-9.39,6-14.65.89-5.72,1.14-12.05-.34-17.69-1.24-4.76-4-9.36-8.51-11.7s-10.68-2.2-15.55-.69C381.81,226,376.58,237.29,375.1,247.45Z"/><path class="cls-5" d="M370.27,317c1.29-4.27,2.57-8.55,3.88-12.82,2.58-8.35,5.26-16.67,8.23-24.9q2.67-7.4,5.63-14.64a90.38,90.38,0,0,0-1.12-9.08c-.79-3.65-1.93-7.17-3-10.73-.07-.22.29-.34.38-.13,2.11,4.91,4.86,11.2,4.93,17q3.44-8.21,7.39-16.17a69,69,0,0,0-.42-13.47.16.16,0,0,1,.32-.06,47.66,47.66,0,0,1,.92,11.89q3-6,6.41-11.81c.21-.35.69,0,.51.35q-5.29,10.2-9.88,20.78a45.28,45.28,0,0,1,14.74-8.53c.23-.09.41.25.17.35a53.37,53.37,0,0,0-15.94,10.56q-3.31,7.73-6.32,15.58c5.88-5.77,13.93-9.56,21.72-11.6.26-.07.33.34.08.42-9,2.71-16,7.82-22.86,13.95q-1.2,3.18-2.35,6.37-4.35,12.08-8.29,24.31-1.91,5.85-3.73,11.73c-1.32,4.22-2.34,8.67-4.06,12.74-.16.39-.86.3-.77-.17A122,122,0,0,1,370.27,317Z"/><path class="cls-5" d="M385.86,239.22a23.32,23.32,0,0,1,3.39,8.44c0,.08-.11.12-.13,0a73.65,73.65,0,0,0-3.67-8.28C385.3,239.15,385.71,239,385.86,239.22Z"/><path class="cls-5" d="M402.63,258.8a25.08,25.08,0,0,1,8.44-2.84c.08,0,.12.11,0,.14-1.35.56-2.78,1-4.15,1.48s-2.72,1.18-4.11,1.66A.25.25,0,0,1,402.63,258.8Z"/><path class="cls-5" d="M407.36,235.25a15.86,15.86,0,0,1,2.71-1.68.15.15,0,0,1,.16.24,15.94,15.94,0,0,1-2.68,1.73C407.38,235.65,407.19,235.36,407.36,235.25Z"/><path class="cls-6" d="M343.41,279.37c6.77,2,13.57,3.87,20.34,5.86.59.17,12-21.76,7.9-33.05-3.82-10.46-12.58-18.29-23-21.84-4.84-1.64-10.78-3-15.89-1.89-4.54,1-7.74,4.72-9.22,9-2,5.8-1.34,12.72-.25,18.65A32.57,32.57,0,0,0,330,271.31C333.54,275.59,338.13,277.81,343.41,279.37Z"/><path class="cls-5" d="M333.59,258.53a89.77,89.77,0,0,0,13.28,5.23,55,55,0,0,1,8.86,3.21c-2.86-6.38-6-12.62-9.33-18.8-4.37-1.27-9-3.24-12.27-6.34a.19.19,0,0,1,.25-.28c3.61,2.55,7.58,4.08,11.57,5.8-.9-1.66-1.8-3.33-2.73-5-.26-.47.38-.92.69-.48a144.32,144.32,0,0,1,9.62,16.16,73.9,73.9,0,0,0,.69-14.8.1.1,0,0,1,.2,0,49.09,49.09,0,0,1-.17,16.27c2.38,4.74,4.54,9.59,6.48,14.51.77-3,1.78-5.86,2.45-8.84a40.83,40.83,0,0,0,1-13,.1.1,0,0,1,.2,0,46.07,46.07,0,0,1-2.84,23.93c1.13,3,2.21,5.93,3.2,8.9a177.47,177.47,0,0,1,9,47,.29.29,0,0,1-.57,0A233.07,233.07,0,0,0,363,285.55c-2-5.91-4.22-11.64-6.7-17.26-4-1.18-8-2.79-11.91-4.15s-7.76-2.86-11-5.38A.14.14,0,0,1,333.59,258.53Z"/><path class="cls-5" d="M327.28,252.16c4.14,1.47,8.07,3.54,12.2,5,.2.07.08.38-.11.33-4.38-.9-8.72-2.25-12.25-5.12C327,252.29,327.14,252.11,327.28,252.16Z"/><path class="cls-5" d="M361.09,243.23c0-.22.27-.35.34-.12,1.13,3.81,1.92,7.86.81,11.77a.15.15,0,0,1-.29,0C361.75,250.93,362,247.1,361.09,243.23Z"/><path class="cls-5" d="M344,234.41a10.1,10.1,0,0,1,1.8,6.49c0,.15-.24.23-.28.06-.5-2.18-1.35-4.17-2-6.29A.29.29,0,0,1,344,234.41Z"/><path class="cls-6" d="M423.94,289.05c-2,6.3-6.7,15-14.17,15.07-4.84.05-9.72-.52-14.57-.59-5.2-.08-10.41-.07-15.6.24-.42,0,.63-15.57,13.12-23.16,3.5-2.12,7.78-2.79,11.75-3.66a54.49,54.49,0,0,1,13.88-1.44c2.87.11,5.25.72,6.27,3.66S424.89,286.05,423.94,289.05Z"/><path class="cls-5" d="M418.56,281.16c-3,.78-6.1,1.68-9.14,2.65a32.55,32.55,0,0,1,2.52-2.46c1.3-1.08,2.74-2,4.15-2.91.11-.08,0-.3-.11-.24a17.06,17.06,0,0,0-7.36,5.86c-3.8,1.22-7.56,2.58-11.18,4.06a42.31,42.31,0,0,0-7.16,3.77,29.5,29.5,0,0,1,2.59-4.5c1.66-2.15,3.9-3.35,6.07-4.88a.19.19,0,0,0-.19-.33A17.78,17.78,0,0,0,389,292.75a41.58,41.58,0,0,0-7.09,6.43c-8.26,9.39-14.77,21.88-14.79,34.62,0,.3.48.39.54.07A70.78,70.78,0,0,1,383.43,300c.59-.69,1.2-1.35,1.82-2a57.49,57.49,0,0,1,6.83-.51c2.66,0,5.29.39,7.94.61,4.36.35,9.18.4,13.12-1.79.17-.1.05-.4-.14-.33-8.77,3.19-18-.85-26.76,1.05a40.89,40.89,0,0,1,13-8.36l.8-.33c5.63.68,11.57,2.15,17.05.32a.13.13,0,0,0-.07-.26c-5.3,1.32-10.37-.34-15.6-.61,5.69-2.21,11.49-4,17.2-6.18C419.07,281.47,419.08,281,418.56,281.16Z"/><path class="cls-5" d="M421,286.7a74.67,74.67,0,0,1-8.19.63.06.06,0,0,0,0,.11,16.91,16.91,0,0,0,8.26-.53C421.24,286.87,421.18,286.68,421,286.7Z"/><path class="cls-5" d="M402.55,281.3a13.53,13.53,0,0,0-4.06,2.82c-.14.13.05.38.21.27.68-.5,1.39-1,2.11-1.43a21.14,21.14,0,0,0,2-1.25A.24.24,0,0,0,402.55,281.3Z"/><path class="cls-6" d="M358.44,301.58c.09.21-.21.4-.32.19h0a.34.34,0,0,1-.2.12,125.86,125.86,0,0,1-15.26,2.66c-4.13.37-8.89.6-12.5-1.8-4.9-3.24-8.13-11.93-5.48-17.45,3.14-6.55,12.58-3,17.32-.66A34.75,34.75,0,0,1,358.44,301.58Z"/><path class="cls-5" d="M362.1,304.61a48.51,48.51,0,0,0-9.11-6.93,31,31,0,0,0-9.24-9.42c-.18-.12-.33.16-.17.29a41.36,41.36,0,0,1,7.79,8.19,85.36,85.36,0,0,0-11.43-5.2,15.3,15.3,0,0,0-6.14-6.16c-.05,0-.12.05-.07.09a25.1,25.1,0,0,1,5.55,5.82c-2.32-.87-4.67-1.68-7-2.45-.21-.07-.29.25-.09.33,4.17,1.63,8.44,3.35,12.57,5.33a48.63,48.63,0,0,1-15.23,0,.11.11,0,0,0-.06.21,30.07,30.07,0,0,0,16.16.24,75.65,75.65,0,0,1,7.67,4.3,19.2,19.2,0,0,0-6.2.5,46.91,46.91,0,0,1-10.88,1.23c-.14,0-.18.23,0,.25,6.32,1.09,12.29-1.78,18.55-1a46.36,46.36,0,0,1,16,18.74c2.64,5.36,4.07,11.05,6.2,16.59a.2.2,0,0,0,.39-.11C375.5,324.45,370.06,312.4,362.1,304.61Z"/><path class="cls-5" d="M343.06,289.63a7.28,7.28,0,0,0-1.62-2,6.37,6.37,0,0,0-1.87-1.4c-.06,0-.09.06-.06.11.52.58,1.24,1,1.8,1.58s1,1.23,1.6,1.78A.09.09,0,0,0,343.06,289.63Z"/><path class="cls-5" d="M332.64,293c-.94-.23-1.93-.22-2.88-.41a27.13,27.13,0,0,1-2.79-.84.12.12,0,0,0-.09.21,9.25,9.25,0,0,0,5.76,1.33C332.79,293.29,332.78,293.06,332.64,293Z"/><polygon class="cls-11" points="388.13 321.91 387.3 331.32 384.48 363.11 359.59 363.11 356.08 331.32 355.04 321.91 388.13 321.91"/><polygon class="cls-5" points="388.13 321.91 387.3 331.32 356.08 331.32 355.04 321.91 388.13 321.91"/><rect class="cls-11" x="352.57" y="319.34" width="38.02" height="7.64"/></g></g></svg>