<svg width="161" height="169" viewBox="0 0 161 169" fill="none" xmlns="http://www.w3.org/2000/svg">
<path d="M148.41 159.317C148.41 164.544 118.256 168.782 81.0589 168.782C43.8628 168.782 13.708 164.544 13.708 159.317C13.708 154.091 43.8628 149.852 81.0589 149.852C118.256 149.852 148.41 154.091 148.41 159.317Z" fill="#022130"/>
<path d="M117.185 157.288H94.4771V133.111H117.185V157.288Z" fill="#00A9F7"/>
<path d="M118.902 149.268C118.556 151.115 117.761 152.303 116.255 152.154C114.141 151.949 112.393 149.781 111.599 148.623C111.302 148.19 111.139 147.899 111.139 147.899C111.139 147.899 110.951 148.131 110.599 148.486C109.646 149.446 107.497 151.315 104.581 152.018C100.585 152.981 98.3462 148.31 98.3462 148.31C95.7885 151.193 94.4191 152.088 93.0574 150.888C92.5237 150.417 92.2636 149.417 92.1864 148.122C91.8757 142.967 94.4782 133.112 94.4782 133.112H117.186C117.186 133.112 119.905 143.938 118.902 149.268Z" fill="white"/>
<path d="M117.185 157.288C117.185 157.288 119.791 158.032 120.249 159.302C120.706 160.572 115.753 158.928 116.007 159.131C116.261 159.334 119.918 160.568 118.394 161.331C116.87 162.092 112.197 160.046 112.197 160.046C112.197 160.046 117.178 162.548 113.619 163.094C110.292 163.604 93.9563 162.228 94.4775 157.288C94.9702 152.63 117.185 157.288 117.185 157.288Z" fill="#00A9F7"/>
<path d="M47.4355 157.288H70.1431V133.111H47.4355V157.288Z" fill="#00A9F7"/>
<path d="M45.7185 149.268C46.0644 151.115 46.8582 152.303 48.3658 152.154C50.4794 151.949 52.228 149.781 53.0218 148.623C53.3173 148.19 53.4812 147.899 53.4812 147.899C53.4812 147.899 53.6698 148.131 54.0215 148.486C54.9735 149.446 57.1223 151.315 60.0393 152.018C64.035 152.981 66.2734 148.31 66.2734 148.31C68.8311 151.193 70.2014 152.088 71.5632 150.888C72.0968 150.417 72.357 149.417 72.4342 148.122C72.7448 142.967 70.1414 133.112 70.1414 133.112H47.4348C47.4348 133.112 44.716 143.938 45.7185 149.268Z" fill="white"/>
<path d="M47.4354 157.288C47.4354 157.288 44.8291 158.032 44.3726 159.302C43.9152 160.572 48.8677 158.928 48.6132 159.131C48.3597 159.334 44.7024 160.568 46.2261 161.331C47.7508 162.092 52.4231 160.046 52.4231 160.046C52.4231 160.046 47.443 162.548 51.0013 163.094C54.3299 163.604 70.6642 162.228 70.143 157.288C69.6513 152.63 47.4354 157.288 47.4354 157.288Z" fill="#00A9F7"/>
<path d="M131.133 128.721C130.041 129.435 128.924 130.128 127.777 130.793C124.051 132.963 120.057 134.876 115.836 136.496C105.62 140.425 94.093 142.633 81.8925 142.633C69.6492 142.633 58.0805 140.41 47.8402 136.457C47.2465 136.232 46.6585 135.995 46.0734 135.757C42.5428 134.303 39.1789 132.644 36.0123 130.796C34.8631 130.128 33.7405 129.432 32.6427 128.713C27.9533 125.644 25.4642 120.046 26.4972 114.535C26.5353 114.344 26.5744 114.154 26.6163 113.963L31.5888 91.1833L42.5428 41.0053C43.2346 37.8301 44.8079 34.9561 46.993 32.5651C57.442 28.4046 69.309 26.0556 81.8925 26.0556C94.4723 26.0556 106.336 28.4046 116.782 32.5623C118.97 34.9561 120.544 37.8301 121.236 41.0053L132.148 90.9898L134.598 102.213L137.162 113.963C137.204 114.154 137.246 114.344 137.281 114.535C138.317 120.048 135.824 125.65 131.133 128.721Z" fill="white"/>
<path d="M141.645 126.919C138.756 129.558 136.529 126.587 136.529 126.587C136.529 126.587 139.251 135.332 134.795 135.664C130.339 135.995 129.351 132.531 129.351 132.531C129.351 132.531 130.011 139.129 125.883 138.965C121.904 138.807 120.457 136.034 120.361 135.839C120.469 136.1 122.439 140.917 120.192 139.956C118.442 139.204 116.786 138.076 115.837 136.497C115.529 135.99 115.299 135.44 115.159 134.841C114.869 133.608 119.096 122.698 123.412 112.052C127.462 102.054 131.595 92.291 132.148 90.9903C132.186 90.894 132.207 90.8435 132.207 90.8435C132.207 90.8435 134.207 95.3566 136.264 100.455C138.816 106.772 141.448 113.987 140.463 114.604C138.837 115.623 137.95 114.598 137.807 114.411C138.2 114.995 144.442 124.361 141.645 126.919Z" fill="white"/>
<g opacity="0.600006">
<g opacity="0.600006">
<path opacity="0.600006" d="M141.645 126.919C138.756 129.558 136.529 126.587 136.529 126.587C136.529 126.587 139.251 135.332 134.795 135.664C130.34 135.995 129.351 132.531 129.351 132.531C129.351 132.531 130.011 139.129 125.883 138.965C122.03 138.813 120.549 136.204 120.374 135.867C120.559 136.324 122.385 140.893 120.192 139.956C118.442 139.204 116.786 138.076 115.837 136.497C105.62 140.425 94.0936 142.633 81.8921 142.633C69.6497 142.633 58.081 140.41 47.8398 136.458C46.8945 138.057 45.2259 139.198 43.462 139.956C41.2683 140.893 43.0951 136.324 43.28 135.867C43.1037 136.204 41.6238 138.813 37.7672 138.965C34.7769 139.085 34.3023 135.649 34.2661 133.751C38.2866 134.68 42.226 135.339 46.073 135.757C46.7544 135.832 47.4319 135.897 48.1057 135.956C68.3985 137.739 84.7109 140.816 98.8316 134.193C111.137 137.19 109.402 127.093 109.402 127.093C109.402 127.093 117.595 130.004 120.918 127.567C122.378 126.496 119.498 122.045 119.498 122.045C119.498 122.045 125.113 122.548 129.437 121.414C139.061 118.889 132.939 103.896 134.598 102.212C135.521 101.275 136.082 100.654 136.264 100.455C138.816 106.772 141.448 113.987 140.463 114.604C138.837 115.623 137.95 114.598 137.807 114.411C138.2 114.995 144.442 124.361 141.645 126.919Z" fill="#A2E3FF"/>
</g>
</g>
<path d="M121.752 43.7963C121.752 43.7963 120.169 18.5891 81.2034 1.29425C79.5643 0.567154 77.8062 0.111652 76.0146 0.0192146C65.4332 -0.529678 67.9585 10.8389 70.986 13.0411C70.986 13.0411 59.4669 4.66861 56.9235 11.5079C55.5207 15.2815 59.5726 22.5477 59.5726 22.5477C59.5726 22.5477 50.7779 17.7163 48.8178 22.2399C46.8566 26.7644 50.3253 29.7805 50.3253 29.7805C50.3253 29.7805 44.5686 32.7641 42.6084 42.567L121.752 43.7963Z" fill="white"/>
<path d="M22.6801 35.8424C22.7096 35.9853 22.742 36.132 22.7783 36.2778C23.6473 39.919 25.7781 43.5936 29.8967 46.137C29.9987 46.2018 30.1025 46.2656 30.2074 46.3247C33.5617 48.3058 38.1882 49.5513 44.4471 49.4799L48.2255 33.2961C48.2255 33.2961 40.2447 35.4335 35.9641 33.825C35.8602 33.7888 35.7592 33.7468 35.6601 33.7021C34.8034 33.3285 34.1201 32.7834 33.7199 32.0154C33.171 30.9652 32.6755 29.8817 32.1828 28.8525C32.138 28.7592 32.0961 28.6705 32.0513 28.581C30.458 25.2952 28.8313 22.6775 25.4436 23.782C23.3548 24.4624 21.4537 30.0494 22.6801 35.8424Z" fill="#00A9F7"/>
<path d="M29.8971 46.1368C29.9981 46.2016 30.1029 46.2654 30.2078 46.3245C29.8132 40.4983 34.1205 35.6278 35.9645 33.8248C35.8606 33.7886 35.7586 33.7467 35.6605 33.7019C33.7565 35.5925 29.6141 40.3849 29.8971 46.1368Z" fill="#9DDEFD"/>
<path d="M22.6802 35.8424C22.7097 35.9853 22.7421 36.1321 22.7783 36.2779C25.0711 32.022 29.7386 29.7779 32.1829 28.8526C32.1381 28.7592 32.0962 28.6705 32.0514 28.581C29.6166 29.5063 25.0616 31.7085 22.6802 35.8424Z" fill="#9DDEFD"/>
<path d="M138.088 35.8424C138.059 35.9853 138.026 36.132 137.989 36.2778C137.121 39.919 134.99 43.5936 130.872 46.137C130.77 46.2018 130.665 46.2656 130.561 46.3247C127.207 48.3058 122.58 49.5513 116.321 49.4799L112.543 33.2961C112.543 33.2961 120.524 35.4335 124.804 33.825C124.908 33.7888 125.009 33.7468 125.108 33.7021C125.965 33.3285 126.648 32.7834 127.049 32.0154C127.598 30.9652 128.093 29.8817 128.586 28.8525C128.63 28.7592 128.672 28.6705 128.717 28.581C130.311 25.2952 131.937 22.6775 135.325 23.782C137.414 24.4624 139.315 30.0494 138.088 35.8424Z" fill="#00A9F7"/>
<path d="M130.872 46.1368C130.771 46.2016 130.666 46.2654 130.561 46.3245C130.955 40.4983 126.648 35.6278 124.804 33.8248C124.908 33.7886 125.01 33.7467 125.108 33.7019C127.012 35.5925 131.155 40.3849 130.872 46.1368Z" fill="#9DDEFD"/>
<path d="M138.088 35.8424C138.059 35.9853 138.025 36.1321 137.989 36.2779C135.697 32.022 131.03 29.7779 128.585 28.8526C128.63 28.7592 128.672 28.6705 128.717 28.581C131.152 29.5063 135.706 31.7085 138.088 35.8424Z" fill="#9DDEFD"/>
<path d="M53.5244 40.5736C53.5244 40.5736 50.0729 44.1052 47.4247 46.5933C44.7755 49.0814 40.7627 47.3957 41.485 43.543C42.2073 39.6902 49.3505 36.0786 49.3505 36.0786L53.2033 40.2525L53.5244 40.5736Z" fill="white"/>
<path d="M110.589 38.9683C110.589 38.9683 124.659 34.8574 121.236 41.0057C117.813 47.155 112.275 45.7904 112.275 45.7904L110.589 38.9683Z" fill="white"/>
<path d="M110.691 36.103C111.84 35.9991 116.435 33.3871 115.496 36.2078C114.556 39.0276 113.093 40.3855 112.258 40.072C111.422 39.7594 110.691 36.103 110.691 36.103Z" fill="white"/>
<path d="M49.59 33.5969C49.59 33.5969 44.2631 35.0587 45.621 36.7301C46.9789 38.4006 49.4852 39.1325 49.59 33.5969Z" fill="white"/>
<path d="M160.343 55.6522C161.393 56.4393 164.648 95.7309 129.76 90.2915L126.214 72.0904C126.214 72.0904 138.941 72.5745 140.71 65.9725C141.102 64.5164 141.344 62.9736 141.507 61.4327C142.087 55.9943 140.51 50.249 142.269 48.8673C144.521 47.0948 146.82 53.7682 146.82 53.7682C146.82 53.7682 146.809 45.8398 149.707 48.2545C152.537 50.6159 152.302 53.0859 152.203 53.2898C152.403 53.0478 153.876 47.1272 156.076 50.27C158.279 53.4147 157.275 57.2693 157.127 57.3589C157.273 57.2874 158.214 54.0551 160.343 55.6522Z" fill="#0090F6"/>
<path d="M131.023 90.4791C130.607 90.4248 130.187 90.36 129.76 90.2914L129.584 89.4795L125.378 70.193C125.378 70.193 139.403 73.8608 140.422 62.0539C140.496 61.1915 140.702 60.3434 141.105 59.5763C141.672 58.4899 142.582 57.416 143.65 58.6147C145.468 60.6598 145.922 64.0646 145.922 64.0646C145.922 64.0646 148.417 57.1415 151.369 60.3196C154.219 63.3871 153.046 65.8199 152.962 65.9848C152.969 65.9752 152.975 65.9657 152.986 65.9552C152.996 65.9428 153.007 65.9276 153.022 65.9066C153.485 65.3225 156.27 61.9729 158.672 62.6057C158.851 62.6504 159.028 62.7191 159.2 62.8144C161.89 64.2743 163.278 94.9532 131.023 90.4791Z" fill="white"/>
<g opacity="0.5">
<g opacity="0.5">
<path opacity="0.5" d="M159.2 62.8142C159.027 62.7189 158.852 62.6502 158.672 62.6055C158.419 62.6083 158.204 62.6531 158.033 62.7436C158.033 62.7436 159.224 70.0117 155.617 76.9691C155.063 79.7708 153.438 86.0706 150.127 85.3512C149.441 85.2016 149.132 84.8452 149.087 84.3553C144.822 87.3076 138.613 89.3821 129.584 89.4793L129.759 90.2912C130.187 90.3598 130.607 90.4256 131.023 90.4789C163.277 94.9539 161.89 64.2741 159.2 62.8142Z" fill="#A2E3FF"/>
</g>
</g>
<path d="M6.69061 55.6522C5.63951 56.4393 2.38427 95.7309 37.2733 90.2915L40.8182 72.0904C40.8182 72.0904 28.0917 72.5745 26.3221 65.9725C25.9314 64.5164 25.6894 62.9736 25.5255 61.4327C24.9461 55.9943 26.5232 50.249 24.765 48.8673C22.5113 47.0948 20.2138 53.7682 20.2138 53.7682C20.2138 53.7682 20.2233 45.8398 17.3254 48.2545C14.4961 50.6159 14.7315 53.0859 14.8297 53.2898C14.6305 53.0478 13.1573 47.1272 10.9569 50.27C8.75467 53.4147 9.75716 57.2693 9.90678 57.3589C9.76098 57.2874 8.81852 54.0551 6.69061 55.6522Z" fill="#0090F6"/>
<path d="M36.0104 90.4791C36.4249 90.4248 36.8461 90.36 37.273 90.2914L37.4484 89.4795L41.6537 70.193C41.6537 70.193 27.6293 73.8608 26.6116 62.0539C26.5372 61.1915 26.3314 60.3434 25.9283 59.5763C25.3613 58.4899 24.4512 57.416 23.382 58.6147C21.5648 60.6598 21.1112 64.0646 21.1112 64.0646C21.1112 64.0646 18.6154 57.1415 15.6642 60.3196C12.8139 63.3871 13.9861 65.8199 14.0699 65.9848C14.0642 65.9752 14.0575 65.9657 14.0461 65.9552C14.0375 65.9428 14.0251 65.9276 14.0108 65.9066C13.5477 65.3225 10.7632 61.9729 8.3599 62.6057C8.18075 62.6504 8.00541 62.7191 7.83197 62.8144C5.14278 64.2743 3.7553 94.9532 36.0104 90.4791Z" fill="white"/>
<g opacity="0.5">
<g opacity="0.5">
<path opacity="0.5" d="M20.6933 85.9871C20.7667 86.6113 20.5399 87.0087 19.8509 87.022C17.4981 87.0649 15.1539 84.4224 14.5526 81.4349C7.22354 73.5598 8.99981 62.743 8.99981 62.743C8.82924 62.6535 8.61483 62.6087 8.36039 62.6058C8.18124 62.6506 8.0059 62.7192 7.83246 62.8145C5.14327 64.2744 3.75579 94.9533 36.0109 90.4793C36.4254 90.425 36.8466 90.3602 37.2726 90.2916L37.4489 89.4797C30.196 89.4006 24.7624 88.0464 20.6933 85.9871Z" fill="#A2E3FF"/>
</g>
</g>
<path d="M105.125 83.5461C90.0494 87.5247 74.2067 87.6085 59.0864 83.791L57.6361 83.427C55.5377 82.8981 53.6509 81.9643 52.0366 80.7283C47.1957 77.0337 44.7924 70.6462 46.4791 64.3882L50.1536 50.7507C52.475 42.1314 60.2919 36.1441 69.2162 36.1441H93.3446C98.1941 36.1441 102.72 37.9137 106.211 40.9135C109.145 43.4293 111.348 46.817 112.407 50.7507L116.124 64.5483C118.355 72.8341 113.422 81.3553 105.125 83.5461Z" fill="#00A9F7"/>
<g opacity="0.199997">
<g opacity="0.199997">
<path opacity="0.57" d="M105.125 83.5461C90.0494 87.5247 74.2068 87.6085 59.0865 83.791L57.6361 83.427C55.5377 82.8981 53.6509 81.9643 52.0366 80.7283C52.0519 80.713 52.0604 80.7073 52.0604 80.7073C113.407 92.1721 106.731 44.1669 106.211 40.9135C109.145 43.4293 111.348 46.817 112.407 50.7507L116.124 64.5483C118.355 72.8341 113.422 81.3553 105.125 83.5461Z" fill="#022130"/>
</g>
</g>
<path d="M94.6428 69.6346C94.0787 71.509 92.9866 73.4521 90.9454 74.9558C90.7929 75.0663 90.6376 75.1769 90.4737 75.2846C89.253 76.0869 87.7245 76.7445 85.8205 77.1619C85.6556 77.2 85.4917 77.2343 85.3221 77.2667C84.3968 77.4449 83.3848 77.5678 82.2775 77.6307C78.4152 77.8451 75.5173 76.8693 73.4132 75.3379C71.5331 73.9686 70.2828 72.1542 69.5424 70.3445C68.3036 67.3247 70.9118 64.1314 74.1175 64.7422C77.6662 65.4197 83.098 65.8467 89.8552 64.4477C92.8942 63.8179 95.5357 66.6586 94.6428 69.6346Z" fill="#BB235A"/>
<path d="M90.9443 74.9566C89.0165 76.3765 86.2435 77.4095 82.2773 77.6306C78.4151 77.845 75.5172 76.8701 73.4131 75.3378C74.9978 72.0397 78.3703 69.766 82.2773 69.766C86.029 69.766 89.2881 71.8672 90.9443 74.9566Z" fill="#ED275E"/>
<path d="M90.945 74.9557C90.7926 75.0663 90.6372 75.1768 90.4733 75.2845C89.2526 76.0869 87.7241 76.7444 85.8201 77.1618C85.7639 77.1323 85.7334 77.1142 85.7334 77.1142C85.7334 77.1142 86.2442 72.3056 87.847 72.0131C89.447 71.7234 90.945 74.9557 90.945 74.9557Z" fill="white"/>
<path d="M108.652 67.214C108.652 69.0408 107.172 70.5207 105.346 70.5207C103.519 70.5207 102.039 69.0408 102.039 67.214C102.039 65.3882 103.519 63.9082 105.346 63.9082C107.172 63.9082 108.652 65.3882 108.652 67.214Z" fill="#FFBADC"/>
<path d="M60.1857 67.214C60.1857 69.0408 58.7058 70.5207 56.879 70.5207C55.0532 70.5207 53.5732 69.0408 53.5732 67.214C53.5732 65.3882 55.0532 63.9082 56.879 63.9082C58.7058 63.9082 60.1857 65.3882 60.1857 67.214Z" fill="#FFBADC"/>
<path d="M72.503 58.6189C71.9722 60.3885 70.3723 61.7141 68.4197 61.8008C65.9544 61.9113 63.8684 59.9978 63.7579 57.5326C63.6483 55.0663 65.558 52.9813 68.0233 52.8708C70.1721 52.7745 72.0342 54.2106 72.5478 56.2137C71.2709 56.2966 70.2884 56.8017 70.2884 57.4153C70.2884 58.0252 71.2471 58.5265 72.503 58.6189Z" fill="#1F2223"/>
<path d="M97.2252 58.1509C96.6944 59.9205 95.0944 61.246 93.1428 61.3327C90.6766 61.4423 88.5906 59.5288 88.4801 57.0636C88.3705 54.5983 90.2802 52.5123 92.7454 52.4027C94.8943 52.3065 96.7564 53.7426 97.27 55.7457C95.9931 55.8276 95.0106 56.3327 95.0106 56.9473C95.0106 57.5562 95.9692 58.0575 97.2252 58.1509Z" fill="#1F2223"/>
<path d="M110.171 37.028C110.171 37.028 92.4385 52.9163 86.9057 49.0865C81.373 45.2566 89.0337 38.8729 89.0337 38.8729C89.0337 38.8729 71.7264 52.3493 69.4565 46.1066C68.4635 41.7098 73.1453 38.3049 73.1453 38.3049C73.1453 38.3049 62.6725 46.9938 56.831 44.5476C52.9944 42.939 55.8409 38.6985 61.5128 33.3401C71.5577 23.8498 109.887 34.1911 110.171 37.028Z" fill="white"/>
<path d="M48.4939 134.84C48.4015 135.234 48.2738 135.604 48.106 135.956C48.025 136.13 47.9383 136.296 47.8402 136.457C46.8939 138.057 45.2263 139.197 43.4614 139.956C41.2144 140.917 43.1841 136.099 43.2918 135.84C43.1965 136.034 41.749 138.806 37.7676 138.965C34.7763 139.085 34.3018 135.649 34.2665 133.75C34.2541 133.088 34.2932 132.613 34.2989 132.539C34.2779 132.607 34.1255 133.076 33.7414 133.629C33.0544 134.611 31.625 135.869 28.8586 135.664C26.8221 135.512 26.2856 133.604 26.2999 131.577C26.3209 129.169 27.1242 126.588 27.1242 126.588C27.1242 126.588 24.8972 129.557 22.0088 126.918C19.2091 124.362 25.4528 114.995 25.8463 114.411C25.7034 114.599 24.8172 115.622 23.1905 114.605C21.4056 113.489 31.4458 90.843 31.4458 90.843C31.4458 90.843 31.4963 90.9592 31.5887 91.1832C33.2688 95.1503 49.0428 132.494 48.4939 134.84Z" fill="white"/>
<path d="M127.541 69.8728C127.541 69.8728 77.2341 121.254 16.4375 118.027C16.4375 118.027 18.0518 123.138 19.1267 123.138C20.2035 123.138 86.9198 125.021 130.5 70.68L127.541 69.8728Z" fill="#FFB553"/>
<path d="M24.0556 150.549C21.7991 149.773 19.6025 148.999 17.5127 148.199C0.268358 141.592 -9.61744 133.217 13.8211 107.435C17.7967 103.056 33.1734 104.519 40.4948 116.225C41.1904 117.338 41.8146 118.544 42.3483 119.845C48.4938 134.84 44.9603 157.736 24.0556 150.549Z" fill="#FFB553"/>
<path d="M24.0556 150.549C21.799 149.773 19.6025 148.999 17.5127 148.199C38.1791 151.565 40.3423 119.131 40.4947 116.225C41.1904 117.338 41.8146 118.544 42.3482 119.845C48.4937 134.84 44.9602 157.736 24.0556 150.549Z" fill="#F4943A"/>
<path d="M5.96615 117.95C5.96615 117.95 2.4984 129.427 15.7814 131.169C29.0644 132.911 39.5172 122.894 42.5657 121.37" stroke="#C67630" stroke-width="1.81132" stroke-miterlimit="10" stroke-linecap="round"/>
<path d="M15.3441 125.294C15.3441 126.231 14.5846 126.991 13.6469 126.991C12.7092 126.991 11.9497 126.231 11.9497 125.294C11.9497 124.357 12.7092 123.597 13.6469 123.597C14.5846 123.597 15.3441 124.357 15.3441 125.294Z" fill="#C67630"/>
</svg>
