<svg width="320" height="320" viewBox="0 0 320 320" fill="none" xmlns="http://www.w3.org/2000/svg">
<path d="M277.731 292.328C277.731 301.499 224.825 308.936 159.561 308.936C94.2994 308.936 41.3915 301.499 41.3915 292.328C41.3915 283.159 94.2994 275.722 159.561 275.722C224.825 275.722 277.731 283.159 277.731 292.328Z" fill="#022130"/>
<path d="M222.946 288.768H183.105V246.349H222.946V288.768Z" fill="#00A9F7"/>
<path d="M225.959 274.698C225.352 277.938 223.958 280.023 221.315 279.76C217.606 279.401 214.538 275.597 213.145 273.566C212.625 272.807 212.339 272.295 212.339 272.295C212.339 272.295 212.008 272.703 211.391 273.325C209.719 275.01 205.949 278.289 200.833 279.521C193.821 281.212 189.893 273.016 189.893 273.016C185.406 278.075 183.003 279.645 180.614 277.54C179.677 276.712 179.221 274.958 179.085 272.686C178.54 263.642 183.107 246.351 183.107 246.351H222.948C222.948 246.351 227.718 265.345 225.959 274.698Z" fill="white"/>
<path d="M222.946 288.769C222.946 288.769 227.519 290.073 228.322 292.302C229.124 294.53 220.433 291.646 220.88 292.002C221.324 292.359 227.741 294.524 225.068 295.861C222.393 297.197 214.195 293.608 214.195 293.608C214.195 293.608 222.933 297.996 216.69 298.954C210.851 299.851 182.19 297.436 183.105 288.769C183.969 280.596 222.946 288.769 222.946 288.769Z" fill="#00A9F7"/>
<path d="M100.568 288.768H140.409V246.349H100.568V288.768Z" fill="#00A9F7"/>
<path d="M97.5559 274.698C98.1628 277.938 99.5556 280.023 102.201 279.76C105.909 279.401 108.977 275.597 110.37 273.566C110.888 272.807 111.176 272.295 111.176 272.295C111.176 272.295 111.507 272.703 112.124 273.325C113.794 275.01 117.564 278.289 122.682 279.521C129.693 281.212 133.62 273.016 133.62 273.016C138.108 278.075 140.512 279.645 142.901 277.54C143.838 276.712 144.294 274.958 144.43 272.686C144.975 263.642 140.407 246.351 140.407 246.351H100.567C100.567 246.351 95.797 265.345 97.5559 274.698Z" fill="white"/>
<path d="M100.568 288.769C100.568 288.769 95.9947 290.073 95.1939 292.302C94.3913 294.53 103.081 291.646 102.634 292.002C102.189 292.359 95.7724 294.524 98.4459 295.861C101.121 297.197 109.319 293.608 109.319 293.608C109.319 293.608 100.581 297.996 106.824 298.954C112.664 299.851 141.324 297.436 140.409 288.769C139.546 280.596 100.568 288.769 100.568 288.769Z" fill="#00A9F7"/>
<path d="M247.419 238.647C245.503 239.899 243.543 241.115 241.532 242.282C234.993 246.089 227.986 249.445 220.58 252.289C202.655 259.181 182.431 263.056 161.025 263.056C139.543 263.056 119.246 259.156 101.279 252.22C100.237 251.824 99.2053 251.409 98.1787 250.991C91.984 248.44 86.082 245.529 80.526 242.287C78.5096 241.115 76.54 239.894 74.6139 238.632C66.3861 233.248 62.0189 223.425 63.8314 213.756C63.8982 213.422 63.9668 213.088 64.0404 212.753L72.7647 172.785L91.984 84.7454C93.1979 79.1744 95.9583 74.1318 99.7921 69.9368C118.125 62.637 138.946 58.5155 161.025 58.5155C183.096 58.5155 203.913 62.637 222.241 69.9318C226.08 74.1318 228.84 79.1744 230.054 84.7454L249.2 172.445L253.498 192.136L257.997 212.753C258.071 213.088 258.145 213.422 258.206 213.756C260.024 223.429 255.65 233.258 247.419 238.647Z" fill="white"/>
<path d="M265.863 235.484C260.793 240.114 256.886 234.903 256.886 234.903C256.886 234.903 261.663 250.246 253.845 250.828C246.026 251.408 244.293 245.331 244.293 245.331C244.293 245.331 245.45 256.907 238.207 256.62C231.226 256.342 228.688 251.477 228.519 251.136C228.708 251.592 232.164 260.044 228.222 258.359C225.152 257.04 222.246 255.06 220.581 252.289C220.041 251.4 219.638 250.435 219.392 249.384C218.884 247.22 226.299 228.079 233.871 209.4C240.977 191.858 248.23 174.728 249.2 172.446C249.267 172.277 249.303 172.189 249.303 172.189C249.303 172.189 252.813 180.107 256.421 189.052C260.899 200.136 265.517 212.794 263.788 213.878C260.935 215.665 259.379 213.868 259.128 213.538C259.819 214.563 270.77 230.997 265.863 235.484Z" fill="white"/>
<g opacity="0.600006">
<g opacity="0.600006">
<path opacity="0.600006" d="M265.863 235.485C260.794 240.114 256.886 234.903 256.886 234.903C256.886 234.903 261.663 250.247 253.845 250.828C246.027 251.409 244.293 245.331 244.293 245.331C244.293 245.331 245.45 256.908 238.207 256.62C231.447 256.353 228.849 251.776 228.541 251.185C228.866 251.985 232.071 260.002 228.222 258.359C225.152 257.04 222.246 255.06 220.581 252.29C202.656 259.182 182.432 263.056 161.024 263.056C139.544 263.056 119.246 259.155 101.277 252.221C99.6188 255.027 96.6911 257.028 93.5963 258.359C89.7474 260.002 92.9526 251.985 93.277 251.185C92.9677 251.776 90.3711 256.353 83.6046 256.62C78.358 256.831 77.5253 250.802 77.4618 247.471C84.5158 249.101 91.4278 250.258 98.1775 250.991C99.373 251.123 100.562 251.236 101.744 251.34C137.348 254.468 165.969 259.867 190.745 248.247C212.335 253.505 209.29 235.791 209.29 235.791C209.29 235.791 223.666 240.897 229.496 236.622C232.057 234.742 227.005 226.933 227.005 226.933C227.005 226.933 236.856 227.815 244.443 225.826C261.329 221.397 250.588 195.09 253.499 192.135C255.117 190.492 256.102 189.402 256.421 189.052C260.899 200.136 265.517 212.794 263.788 213.878C260.936 215.665 259.379 213.868 259.128 213.538C259.819 214.563 270.77 230.997 265.863 235.485Z" fill="#A2E3FF"/>
</g>
</g>
<path d="M230.96 89.6422C230.96 89.6422 228.183 45.4152 159.816 15.0706C156.94 13.7949 153.855 12.9957 150.712 12.8335C132.146 11.8704 136.577 31.8171 141.889 35.681C141.889 35.681 121.678 20.991 117.216 32.9908C114.754 39.6118 121.864 52.3606 121.864 52.3606C121.864 52.3606 106.433 43.8837 102.994 51.8205C99.5529 59.7591 105.639 65.0508 105.639 65.0508C105.639 65.0508 95.5385 70.2858 92.0992 87.4854L230.96 89.6422Z" fill="white"/>
<path d="M57.1343 75.6868C57.1861 75.9376 57.243 76.1951 57.3065 76.4509C58.8314 82.8395 62.5699 89.2866 69.7962 93.7491C69.9751 93.8628 70.1573 93.9748 70.3412 94.0785C76.2266 97.5545 84.344 99.7398 95.3255 99.6144L101.955 71.2193C101.955 71.2193 87.9521 74.9695 80.4416 72.1472C80.2594 72.0837 80.0821 72.0101 79.9083 71.9315C78.4052 71.2761 77.2063 70.3198 76.5041 68.9722C75.5411 67.1296 74.6716 65.2286 73.8072 63.4229C73.7286 63.259 73.6551 63.1035 73.5765 62.9464C70.781 57.1814 67.9269 52.5885 61.983 54.5263C58.3181 55.7201 54.9825 65.5229 57.1343 75.6868Z" fill="#00A9F7"/>
<path d="M69.7966 93.7487C69.9738 93.8624 70.1577 93.9745 70.3416 94.0781C69.6494 83.8557 77.2067 75.3102 80.442 72.1469C80.2598 72.0833 80.0809 72.0098 79.9086 71.9312C76.568 75.2484 69.3 83.6567 69.7966 93.7487Z" fill="#9DDEFD"/>
<path d="M57.1337 75.6869C57.1855 75.9377 57.2423 76.1952 57.3059 76.451C61.3286 68.984 69.518 65.0465 73.8066 63.423C73.728 63.2591 73.6544 63.1036 73.5758 62.9465C69.304 64.57 61.3119 68.4339 57.1337 75.6869Z" fill="#9DDEFD"/>
<path d="M259.622 75.6868C259.57 75.9376 259.512 76.1951 259.448 76.4509C257.925 82.8395 254.187 89.2866 246.96 93.7491C246.781 93.8628 246.598 93.9748 246.415 94.0785C240.53 97.5545 232.413 99.7398 221.431 99.6144L214.802 71.2193C214.802 71.2193 228.804 74.9695 236.315 72.1472C236.497 72.0837 236.674 72.0101 236.848 71.9315C238.351 71.2761 239.55 70.3198 240.252 68.9722C241.215 67.1296 242.085 65.2286 242.949 63.4229C243.028 63.259 243.101 63.1035 243.18 62.9464C245.976 57.1814 248.83 52.5885 254.774 54.5263C258.438 55.7201 261.774 65.5229 259.622 75.6868Z" fill="#00A9F7"/>
<path d="M246.96 93.7487C246.783 93.8624 246.599 93.9745 246.415 94.0781C247.107 83.8557 239.55 75.3102 236.314 72.1469C236.497 72.0833 236.676 72.0098 236.848 71.9312C240.188 75.2484 247.456 83.6567 246.96 93.7487Z" fill="#9DDEFD"/>
<path d="M259.623 75.6869C259.571 75.9377 259.512 76.1952 259.449 76.451C255.428 68.984 247.238 65.0465 242.95 63.423C243.028 63.2591 243.102 63.1036 243.18 62.9465C247.452 64.57 255.443 68.4339 259.623 75.6869Z" fill="#9DDEFD"/>
<path d="M111.252 83.9882C111.252 83.9882 105.196 90.1845 100.549 94.55C95.9012 98.9156 88.8606 95.9578 90.1279 89.1981C91.3953 82.4383 103.928 76.1015 103.928 76.1015L110.688 83.4247L111.252 83.9882Z" fill="white"/>
<path d="M211.375 81.1717C211.375 81.1717 236.06 73.9588 230.054 84.7464C224.048 95.5356 214.332 93.1414 214.332 93.1414L211.375 81.1717Z" fill="white"/>
<path d="M211.552 76.1443C213.569 75.962 221.631 71.3792 219.982 76.3282C218.334 81.2756 215.767 83.6581 214.301 83.108C212.835 82.5596 211.552 76.1443 211.552 76.1443Z" fill="white"/>
<path d="M104.349 71.747C104.349 71.747 95.0023 74.3118 97.3849 77.2445C99.7675 80.1754 104.165 81.4595 104.349 71.747Z" fill="white"/>
<path d="M298.669 110.444C300.511 111.825 306.223 180.764 245.01 171.22L238.789 139.286C238.789 139.286 261.118 140.135 264.223 128.551C264.91 125.997 265.335 123.29 265.621 120.586C266.637 111.044 263.872 100.964 266.957 98.5396C270.909 95.4297 274.942 107.139 274.942 107.139C274.942 107.139 274.923 93.2277 280.008 97.4645C284.974 101.608 284.561 105.941 284.387 106.299C284.738 105.875 287.323 95.4866 291.182 101.001C295.047 106.518 293.287 113.281 293.026 113.439C293.282 113.313 294.934 107.642 298.669 110.444Z" fill="#0090F6"/>
<path d="M247.225 171.55C246.496 171.454 245.759 171.341 245.01 171.22L244.701 169.796L237.322 135.957C237.322 135.957 261.929 142.392 263.716 121.676C263.846 120.163 264.208 118.675 264.915 117.329C265.91 115.423 267.506 113.539 269.381 115.642C272.571 119.23 273.367 125.204 273.367 125.204C273.367 125.204 277.744 113.057 282.924 118.633C287.924 124.015 285.866 128.284 285.719 128.573C285.731 128.556 285.741 128.54 285.761 128.521C285.778 128.5 285.798 128.473 285.825 128.436C286.637 127.411 291.523 121.534 295.738 122.644C296.052 122.723 296.361 122.843 296.664 123.011C301.384 125.572 303.818 179.399 247.225 171.55Z" fill="white"/>
<g opacity="0.5">
<g opacity="0.5">
<path opacity="0.5" d="M296.664 123.01C296.359 122.843 296.052 122.722 295.737 122.644C295.293 122.649 294.915 122.727 294.616 122.886C294.616 122.886 296.705 135.638 290.377 147.845C289.404 152.761 286.553 163.814 280.745 162.552C279.541 162.29 278.998 161.664 278.919 160.805C271.437 165.985 260.542 169.624 244.7 169.795L245.008 171.22C245.759 171.34 246.496 171.455 247.225 171.549C303.816 179.4 301.382 125.571 296.664 123.01Z" fill="#A2E3FF"/>
</g>
</g>
<path d="M29.0794 110.444C27.2352 111.825 21.5237 180.764 82.738 171.22L88.9577 139.286C88.9577 139.286 66.6285 140.135 63.5237 128.551C62.8382 125.997 62.4135 123.29 62.1259 120.586C61.1094 111.044 63.8765 100.964 60.7917 98.5396C56.8375 95.4297 52.8063 107.139 52.8063 107.139C52.8063 107.139 52.8231 93.2277 47.7386 97.4645C42.7745 101.608 43.1875 105.941 43.3597 106.299C43.0103 105.875 40.4254 95.4866 36.5648 101.001C32.7009 106.518 34.4598 113.281 34.7223 113.439C34.4665 113.313 32.8129 107.642 29.0794 110.444Z" fill="#0090F6"/>
<path d="M80.5228 171.55C81.2501 171.454 81.9891 171.341 82.7382 171.22L83.0458 169.796L90.4242 135.957C90.4242 135.957 65.8178 142.392 64.0321 121.676C63.9017 120.163 63.5406 118.675 62.8333 117.329C61.8385 115.423 60.2418 113.539 58.3658 115.642C55.1774 119.23 54.3815 125.204 54.3815 125.204C54.3815 125.204 50.0026 113.057 44.8245 118.633C39.8236 124.015 41.8802 128.284 42.0273 128.573C42.0173 128.556 42.0056 128.54 41.9855 128.521C41.9704 128.5 41.9487 128.473 41.9236 128.436C41.1111 127.411 36.2255 121.534 32.0088 122.644C31.6945 122.723 31.3869 122.843 31.0826 123.011C26.3643 125.572 23.9299 179.399 80.5228 171.55Z" fill="white"/>
<g opacity="0.5">
<g opacity="0.5">
<path opacity="0.5" d="M53.6484 163.668C53.7771 164.763 53.3792 165.46 52.1703 165.484C48.0422 165.559 43.9292 160.923 42.8742 155.681C30.015 141.864 33.1316 122.885 33.1316 122.885C32.8323 122.728 32.4561 122.65 32.0097 122.645C31.6954 122.723 31.3877 122.844 31.0834 123.011C26.3651 125.572 23.9307 179.4 80.5237 171.55C81.251 171.454 81.99 171.341 82.7374 171.22L83.0467 169.796C70.3213 169.657 60.7877 167.281 53.6484 163.668Z" fill="#A2E3FF"/>
</g>
</g>
<path d="M201.787 159.385C175.336 166.366 147.54 166.513 121.01 159.815L118.466 159.176C114.784 158.248 111.473 156.61 108.641 154.441C100.148 147.959 95.9308 136.752 98.8902 125.772L105.337 101.844C109.41 86.7212 123.125 76.2162 138.783 76.2162H181.118C189.626 76.2162 197.567 79.3211 203.693 84.5844C208.841 88.9985 212.705 94.9423 214.564 101.844L221.085 126.053C225 140.59 216.345 155.541 201.787 159.385Z" fill="#00A9F7"/>
<g opacity="0.199997">
<g opacity="0.199997">
<path opacity="0.57" d="M201.787 159.385C175.336 166.366 147.54 166.513 121.01 159.815L118.466 159.176C114.784 158.248 111.473 156.61 108.641 154.441C108.668 154.414 108.683 154.404 108.683 154.404C216.318 174.52 204.604 90.2926 203.693 84.5845C208.841 88.9985 212.705 94.9423 214.564 101.844L221.085 126.053C225 140.59 216.345 155.541 201.787 159.385Z" fill="#022130"/>
</g>
</g>
<path d="M183.395 134.977C182.405 138.265 180.489 141.675 176.908 144.313C176.64 144.507 176.368 144.701 176.08 144.89C173.938 146.298 171.256 147.451 167.916 148.184C167.627 148.25 167.339 148.311 167.041 148.367C165.418 148.68 163.642 148.896 161.699 149.006C154.923 149.382 149.838 147.67 146.147 144.983C142.848 142.581 140.654 139.397 139.355 136.222C137.182 130.924 141.758 125.321 147.382 126.393C153.609 127.582 163.139 128.331 174.995 125.876C180.327 124.771 184.962 129.755 183.395 134.977Z" fill="#BB235A"/>
<path d="M176.906 144.314C173.524 146.806 168.658 148.618 161.7 149.006C154.923 149.382 149.839 147.672 146.147 144.983C148.927 139.196 154.845 135.207 161.7 135.207C168.282 135.207 174 138.894 176.906 144.314Z" fill="#ED275E"/>
<path d="M176.907 144.313C176.639 144.507 176.367 144.701 176.079 144.89C173.938 146.298 171.256 147.451 167.915 148.184C167.816 148.132 167.763 148.1 167.763 148.1C167.763 148.1 168.659 139.663 171.471 139.15C174.279 138.642 176.907 144.313 176.907 144.313Z" fill="white"/>
<path d="M207.975 130.73C207.975 133.935 205.378 136.531 202.175 136.531C198.97 136.531 196.373 133.935 196.373 130.73C196.373 127.526 198.97 124.93 202.175 124.93C205.378 124.93 207.975 127.526 207.975 130.73Z" fill="#FFBADC"/>
<path d="M122.938 130.73C122.938 133.935 120.342 136.531 117.136 136.531C113.933 136.531 111.336 133.935 111.336 130.73C111.336 127.526 113.933 124.93 117.136 124.93C120.342 124.93 122.938 127.526 122.938 130.73Z" fill="#FFBADC"/>
<path d="M144.55 115.649C143.619 118.754 140.812 121.08 137.386 121.232C133.061 121.426 129.401 118.069 129.207 113.743C129.014 109.416 132.365 105.758 136.69 105.564C140.461 105.395 143.728 107.915 144.629 111.429C142.389 111.575 140.665 112.461 140.665 113.538C140.665 114.608 142.347 115.487 144.55 115.649Z" fill="#1F2223"/>
<path d="M187.927 114.828C186.995 117.933 184.188 120.259 180.764 120.411C176.437 120.603 172.777 117.246 172.583 112.92C172.391 108.595 175.741 104.935 180.067 104.743C183.837 104.574 187.104 107.094 188.005 110.608C185.765 110.752 184.041 111.638 184.041 112.716C184.041 113.785 185.723 114.664 187.927 114.828Z" fill="#1F2223"/>
<path d="M210.64 77.7671C210.64 77.7671 179.528 105.644 169.821 98.9243C160.113 92.2046 173.554 81.0041 173.554 81.0041C173.554 81.0041 143.188 104.649 139.205 93.696C137.463 85.9815 145.677 80.0076 145.677 80.0076C145.677 80.0076 127.302 95.2526 117.053 90.9607C110.322 88.1384 115.316 80.6981 125.268 71.2966C142.892 54.6454 210.142 72.7897 210.64 77.7671Z" fill="white"/>
<path d="M102.425 249.383C102.263 250.073 102.039 250.724 101.745 251.341C101.602 251.647 101.45 251.937 101.278 252.22C99.6178 255.027 96.6918 257.027 93.5953 258.358C89.6528 260.045 93.1088 251.591 93.2977 251.137C93.1305 251.478 90.5908 256.341 83.6053 256.619C78.357 256.83 77.5243 250.802 77.4625 247.47C77.4407 246.308 77.5093 245.475 77.5193 245.345C77.4825 245.465 77.215 246.288 76.5412 247.258C75.3357 248.98 72.8278 251.188 67.974 250.827C64.401 250.561 63.4597 247.214 63.4848 243.658C63.5216 239.433 64.931 234.903 64.931 234.903C64.931 234.903 61.0236 240.113 55.9559 235.484C51.0436 230.998 61.9984 214.564 62.6889 213.539C62.4381 213.868 60.8832 215.664 58.0291 213.878C54.8975 211.92 72.5134 172.188 72.5134 172.188C72.5134 172.188 72.602 172.392 72.7642 172.785C75.7119 179.745 103.388 245.266 102.425 249.383Z" fill="white"/>
<path d="M241.116 135.395C241.116 135.395 152.851 225.546 46.1809 219.883C46.1809 219.883 49.0132 228.851 50.8992 228.851C52.7885 228.851 169.845 232.155 246.308 136.811L241.116 135.395Z" fill="#FFB553"/>
<path d="M59.5473 276.944C55.5881 275.583 51.7342 274.226 48.0676 272.821C17.8115 261.229 0.466502 246.534 41.5903 201.299C48.5658 193.616 75.5447 196.183 88.3905 216.721C89.611 218.674 90.7062 220.791 91.6425 223.073C102.425 249.383 96.2254 289.554 59.5473 276.944Z" fill="#FFB553"/>
<path d="M59.5474 276.944C55.5882 275.583 51.7343 274.226 48.0676 272.821C84.3277 278.728 88.1231 221.821 88.3906 216.721C89.6111 218.674 90.7063 220.791 91.6426 223.073C102.425 249.383 96.2254 289.554 59.5474 276.944Z" fill="#F4943A"/>
<path d="M27.8086 219.748C27.8086 219.748 21.7243 239.885 45.0299 242.941C68.3355 245.998 86.6754 228.422 92.024 225.748" stroke="#C67630" stroke-width="5.57887" stroke-miterlimit="10" stroke-linecap="round"/>
<path d="M44.2631 232.634C44.2631 234.277 42.9305 235.612 41.2853 235.612C39.6401 235.612 38.3075 234.277 38.3075 232.634C38.3075 230.99 39.6401 229.656 41.2853 229.656C42.9305 229.656 44.2631 230.99 44.2631 232.634Z" fill="#C67630"/>
</svg>
