<svg xmlns="http://www.w3.org/2000/svg" viewBox="0 0 207.14 274.74"><defs><style>.cls-1{isolation:isolate;}.cls-2{fill:#dcefec;}.cls-3,.cls-5,.cls-7{fill:#bfd1cf;}.cls-3,.cls-6{opacity:0.5;}.cls-4,.cls-6{fill:#fff;}.cls-12,.cls-7{mix-blend-mode:multiply;}.cls-8{fill:#e5ddca;}.cls-9{fill:#354e77;}.cls-10{fill:#4c87a5;}.cls-11{fill:#2a2a2b;}.cls-12{fill:#bfb9b2;opacity:0.6;}</style></defs><g class="cls-1"><g id="Camada_2" data-name="Camada 2"><g id="OBJECTS"><path class="cls-2" d="M114,153.5c9,1,16.09-1.81,31.9-13.81s45.83-52,49.64-88.74c0,0,15.13-13.44,5.25-17C195,32,186.3,44.75,186.3,44.75s-1.25-4.81-3.36-4.07,1.62,9.53,1.62,9.53S159,92.3,140.79,109.08s-24,20.41-28.54,28.14C109.15,142.52,104.88,152.52,114,153.5Z"/><path class="cls-3" d="M190,59.43c-2.8,2.4-3.6,9.61-3.6,12.82a7.83,7.83,0,0,0-.4-2.81c-2.48,3.1-3.52,8.12-4.23,12.45a5.49,5.49,0,0,1-.57,3.57c.18-1.09.36-2.3.57-3.57-.05-.27-.1-.55-.17-.84-2.28,2.56-4.55,7.35-5.68,11.63l.07,0a6.91,6.91,0,0,1-.8,4.81,19.46,19.46,0,0,1,.73-4.79c-4.21.72-7.36,8-8.6,13.22.35.57.23,1.64-.54,3.18a22.24,22.24,0,0,1,.54-3.18c-.37-.62-1.29-.65-2.54,0-4,1.6-6.81,12-9.21,15.61.8-2.4,0-4.8-2.4-4.4-3.6,0-6,8-6.41,10.81.4-9.21-4.4-8-9.61-2.81-1.55-3.42-1.18-7.57-1.31-11.5-14.34,13-19.52,16.65-23.6,23.63-3.1,5.3-7.37,15.3,1.74,16.28s16.09-1.81,31.9-13.81c14.47-11,40.83-45.37,48.12-79.31l-.39.65C193.62,57.83,192,58.23,190,59.43Z"/><path class="cls-4" d="M191.43,39a19.75,19.75,0,0,1,5.31-5.73.48.48,0,0,0-.47-.83c-2.56,1.24-4.09,3.82-5.4,6.24a.32.32,0,0,0,.56.32Z"/><path class="cls-4" d="M189.29,43.11a31.48,31.48,0,0,1,1.93-3.74,26.68,26.68,0,0,1,3.47-3.95.43.43,0,0,0-.51-.68c-3,1.26-4.43,5.34-5.45,8.15-.11.31.42.54.56.22Z"/><path class="cls-4" d="M189.58,44.52c.55-2.83.51-5.51,2.32-7.91.27-.35-.25-.88-.61-.62-2.59,1.91-2,5.6-2.4,8.44,0,.39.62.48.69.09Z"/><path class="cls-4" d="M187.17,45a53.78,53.78,0,0,1,.91-6.69.32.32,0,0,0-.59-.24c-1.18,2-.75,4.56-1,6.84,0,.39.63.48.69.09Z"/><path class="cls-4" d="M185.55,50.31c-1-3.62-2.81-6.93-2.17-10.8a.58.58,0,0,0-1.11-.3c-1.49,3.95,1.31,7.71,2.65,11.27.15.38.75.25.63-.17Z"/><path class="cls-4" d="M185.33,48.62c-1.5-2.32-2.24-4.5-1.59-7.25a.42.42,0,0,0-.82-.22c-1,2.87.34,5.47,2.06,7.74.15.2.49-.06.35-.27Z"/><path class="cls-4" d="M186.57,48.72c-2.3-2.29-5-4.22-4.74-7.8,0-.55-.71-.55-.89-.11-1.44,3.62,2.93,6.33,5.23,8.3.27.22.65-.14.4-.39Z"/><path class="cls-4" d="M187,49.8c-.9-.87-1.91-1.61-2.76-2.54a15,15,0,0,1-2.13-3.44c-.25-.5-1-.16-.87.36a8.62,8.62,0,0,0,5.52,6c.23.08.41-.25.24-.42Z"/><path class="cls-4" d="M171.12,71.08c2.79-4.58,5.88-9.14,7.22-14.4a.45.45,0,0,0-.87-.23,81.41,81.41,0,0,1-6.83,14.36.28.28,0,0,0,.48.27Z"/><path class="cls-4" d="M168.42,77.55c2.18-3.63,4.35-7.47,4.15-11.82a.53.53,0,0,0-1.06,0c-.33,4.11-2,7.75-3.95,11.31a.5.5,0,0,0,.86.51Z"/><path class="cls-4" d="M164.08,83.25a14.19,14.19,0,0,0,5.66-11.8c-.06-.81-1.32-1.07-1.48-.19-.76,4.15-1.28,8.43-4.6,11.43-.29.27.09.79.42.56Z"/><path class="cls-4" d="M162.19,86.23c1.7-2.64,3.59-5.35,4.08-8.51a.6.6,0,0,0-1.16-.31,67.29,67.29,0,0,1-3.61,8.42.4.4,0,0,0,.69.4Z"/><path class="cls-4" d="M162,89a75,75,0,0,1,4.49-11.76.53.53,0,0,0-.91-.53c-2.33,3.67-3.14,8-4.07,12.16A.25.25,0,0,0,162,89Z"/><path class="cls-4" d="M160.46,90.47a40.72,40.72,0,0,0,1.68-6.33c.46-2.18,1.36-4.16,2-6.29a.41.41,0,0,0-.67-.39c-2.86,3.35-2.32,8.8-3.65,12.83-.14.43.52.59.68.18Z"/><path class="cls-4" d="M154.84,95.79a22.07,22.07,0,0,1,2.87-7.88c.24-.42-.42-.81-.65-.38a22.77,22.77,0,0,0-2.71,8.13c0,.32.44.46.49.13Z"/><path class="cls-4" d="M149.38,103.71c-.63-3.83,2.66-7.22,4.68-10.16.34-.49-.42-1.07-.82-.64-2.12,2.26-6.67,7.67-4.37,11a.28.28,0,0,0,.51-.21Z"/><path class="cls-4" d="M120,131.43c1.09-6,6-10.36,10-14.53a.5.5,0,0,0-.7-.71c-4.43,4-9.15,9-9.88,15.17,0,.31.48.38.54.07Z"/><path class="cls-4" d="M119.35,131.43c2-2.89,3-6.27,4.45-9.45.23-.52-.51-1-.78-.46-1.59,3.14-2.22,6.65-4,9.71-.13.22.21.41.35.2Z"/><path class="cls-4" d="M118.43,132.5c1.91-3.67,2.68-7.81,4.92-11.32.24-.39-.35-.71-.61-.36-2.52,3.46-2.9,7.67-4.61,11.5-.09.21.2.38.3.18Z"/><path class="cls-4" d="M135.32,115.65c2.89-2.67,6-6.3,6.57-10.35.07-.57-.7-1-1-.42-1.88,3.6-3.36,7.16-6,10.34a.3.3,0,0,0,.42.43Z"/><path class="cls-4" d="M137.62,114.22c2.61-3.84,6.4-6.85,7.82-11.4.18-.56-.72-.94-1-.4-1.91,4.2-4.95,7.62-7.16,11.63a.17.17,0,0,0,.3.17Z"/><path class="cls-4" d="M129.8,125.46c1.57-2.71,4-4.74,6.28-6.86.57-.53-.27-1.38-.84-.86-2.45,2.19-4.78,4.25-6.22,7.27a.45.45,0,0,0,.78.45Z"/><path class="cls-4" d="M136.74,121.2c1.63-2.71,4.23-4.5,6.92-6a.63.63,0,0,0-.62-1.09,14.23,14.23,0,0,0-6.95,6.76.37.37,0,0,0,.65.37Z"/><path class="cls-4" d="M147,109.13c2.74-2.42,6-4.41,7.9-7.58.39-.64-.57-1.42-1.06-.82-2.29,2.78-5,5.13-7.48,7.76a.45.45,0,0,0,.64.64Z"/><path class="cls-4" d="M156.61,98.09A40.11,40.11,0,0,0,160.88,93c.37-.54-.49-1.22-.9-.71-1.37,1.71-2.56,3.55-3.93,5.26-.31.39.2,1,.56.57Z"/><path class="cls-4" d="M177.5,69.58a20,20,0,0,0,4.3-9c.11-.65-.86-.94-1-.26a23.71,23.71,0,0,1-3.94,8.78c-.29.38.37.89.66.52Z"/><path class="cls-4" d="M184.74,63.75A17.7,17.7,0,0,0,187,58.41a.67.67,0,0,0-1.3-.34,46.37,46.37,0,0,1-2.17,5,.73.73,0,0,0,1.26.73Z"/><path class="cls-4" d="M183.73,57.17c1-1.11,2.14-2.41,2.25-4,0-.41-.59-.7-.85-.36-.9,1.12-1.34,2.53-2.18,3.71-.33.46.41,1,.78.61Z"/><path class="cls-4" d="M169.89,84a24.12,24.12,0,0,0,6.91-7.21c.45-.74-.64-1.3-1.13-.66-2,2.57-3.75,5.14-6.32,7.16-.4.31.12,1,.54.71Z"/><path class="cls-4" d="M164.53,93.19a11.11,11.11,0,0,0,4.25-5.4.43.43,0,0,0-.71-.41,23.37,23.37,0,0,0-1.79,2.4c-.7,1-1.59,1.85-2.33,2.82-.26.35.24.8.58.59Z"/><path class="cls-4" d="M164.06,90.53c.92-1.42,2.75-3.77,1.88-5.54a.48.48,0,0,0-.83,0,16.1,16.1,0,0,0-.57,2.17,17,17,0,0,1-1.3,2.89.48.48,0,0,0,.82.48Z"/><path class="cls-5" d="M117.79,154.08c6.13.92,12.83-.94,18.19-3.85.49-.27.17-1.14-.37-.93-5.6,2.21-11.61,4.75-17.75,4.29-.28,0-.35.45-.07.49Z"/><path class="cls-5" d="M127,150.78c4.8.38,10.22-1.17,13.63-4.68.4-.42-.13-1.2-.62-.84-3.91,2.89-8,5.13-13,5.12a.2.2,0,0,0,0,.4Z"/><path class="cls-5" d="M131.17,146.87c6.49-.18,13.39-1.85,18.29-6.33a.53.53,0,0,0-.62-.84c-5.5,3.39-11.18,6-17.67,6.62-.35,0-.36.56,0,.55Z"/><path class="cls-5" d="M138.8,144.1c7.74-2.68,15.2-6,20.38-12.58a.7.7,0,0,0-1-1,71.66,71.66,0,0,1-19.66,12.93c-.37.16-.11.78.26.65Z"/><path class="cls-5" d="M154.34,131.82c5.82-5.67,14.07-10.68,17.37-18.38.33-.76-.59-1.7-1.25-1-2.82,3.11-5.27,6.53-8.1,9.64s-5.78,6-8.51,9.2c-.29.34.16.82.49.51Z"/><path class="cls-5" d="M165.46,118.4a32.31,32.31,0,0,0,11.84-13.48c.28-.62-.5-1.39-1-.8-3.92,4.48-6.59,9.8-11.42,13.48-.45.35.13,1.1.6.8Z"/><path class="cls-5" d="M171.72,107.56a28.78,28.78,0,0,0,12.05-12.79c.31-.65-.55-1.45-1.06-.83-3.68,4.51-6.38,9.63-11.44,12.83a.46.46,0,0,0,.45.79Z"/><path class="cls-5" d="M182,95c.08,0-2.66,1.48-2.39,1.12.65-.9,1.18-2,1.76-2.9,1.23-2,2.49-3.94,3.6-6,2.05-3.78,3.85-7.85,3.79-12.23,0-.77-1.22-1-1.38-.17a48.91,48.91,0,0,1-3.81,11.59c-1.65,3.45-3.75,6.82-5,10.45a.19.19,0,0,0,.28.21c1.07-.64,2.11-1.32,3.16-2,.05,0,0-.12-.05-.09Z"/><path class="cls-5" d="M181.59,93c4.08-4.07,8.8-8.34,9.13-14.46a.73.73,0,0,0-1.43-.18c-1.18,5.78-4.79,9.68-8.09,14.34-.17.23.2.5.39.3Z"/><path class="cls-5" d="M184.52,88c3.16-4.79,5.76-9.59,6.74-15.3a.7.7,0,0,0-1.36-.36,94.21,94.21,0,0,1-5.77,15.43.23.23,0,0,0,.39.23Z"/><path class="cls-5" d="M189.88,74.11c3.31-4.24,4.93-9.39,5.82-14.63.14-.84-1.12-1.21-1.31-.34-1.14,5-2.22,10.14-5.21,14.42-.29.41.39,1,.7.55Z"/><path class="cls-5" d="M195.46,50.76c3.66-1.73,7.48-3.72,9.76-7.21.57-.87-.65-1.68-1.37-1.07-3,2.54-5.95,5-9,7.44-.5.4.12,1.08.63.84Z"/><path class="cls-5" d="M201.19,44.8c2.36-2,6.12-4.82,5.94-8.31a.7.7,0,0,0-1.37-.17,28.56,28.56,0,0,1-5.06,8,.35.35,0,0,0,.49.5Z"/><path class="cls-5" d="M203.87,40c1.33-1.65,3.44-4.19,2.22-6.42a.61.61,0,0,0-1.13.3,6.48,6.48,0,0,1-.21,2.7,12.71,12.71,0,0,1-1.62,2.84c-.3.44.41,1,.74.58Z"/><path class="cls-5" d="M203.34,39c1.11-1.62,3.15-4.16,1.6-6.08-.32-.4-.86,0-.9.37a14.05,14.05,0,0,1-.26,2.74,16.69,16.69,0,0,1-1.17,2.54.42.42,0,0,0,.73.43Z"/><path class="cls-5" d="M202.55,36.91a25.31,25.31,0,0,1,1.76-2.39,23.64,23.64,0,0,0,2.05-2.08c.37-.54-.23-1.07-.75-1-2,.29-3.22,3.3-4,4.91a.55.55,0,0,0,1,.55Z"/><path class="cls-5" d="M201.12,36a21.45,21.45,0,0,0,2-2,13.19,13.19,0,0,0,2.49-2.22c.4-.59-.35-1.12-.89-.89a7.38,7.38,0,0,0-2.5,2.19,5.52,5.52,0,0,0-1.56,2.68.28.28,0,0,0,.41.24Z"/><path class="cls-5" d="M201.35,38.77a13.19,13.19,0,0,0,3.7-4.42.51.51,0,0,0-.79-.61A24.22,24.22,0,0,0,201,38.43c-.12.2.12.48.34.34Z"/><path class="cls-5" d="M139.11,140.61c2.45-1.24,5.1-2.07,7.34-3.7.28-.2,0-.68-.28-.48-2.3,1.49-4.85,2.52-7.24,3.88-.19.11,0,.4.18.3Z"/><path class="cls-5" d="M143.69,134.24a11.25,11.25,0,0,0,6.68-2.53c.5-.43-.13-1.23-.69-.91a19.83,19.83,0,0,1-6.1,2.6.43.43,0,0,0,.11.84Z"/><path class="cls-5" d="M151.91,127.63c.81.19,1.86-.59,2.56-.94a8.32,8.32,0,0,0,2.9-2.18.46.46,0,0,0-.64-.65,19.66,19.66,0,0,1-2.74,2c-.66.39-1.89.7-2.23,1.42a.25.25,0,0,0,.15.37Z"/><path class="cls-5" d="M156.11,123.36a16,16,0,0,0,3.92-3.87c.29-.41-.37-.93-.71-.55a28,28,0,0,1-3.75,3.71c-.41.31.12,1,.54.71Z"/><path class="cls-5" d="M148.71,129.85a22.4,22.4,0,0,0,4.2-4.86.53.53,0,0,0-.91-.53,52.69,52.69,0,0,1-3.68,5,.28.28,0,0,0,.39.39Z"/><path class="cls-5" d="M163.92,114.53c2.11-1.49,4.42-3,5.84-5.17.33-.53-.39-1-.83-.64-1.91,1.62-3.65,3.44-5.55,5.09-.38.34.12,1,.54.72Z"/><path class="cls-5" d="M165.85,109.13a20,20,0,0,0,3.33-3.85c.33-.5-.41-1.06-.82-.64-1.14,1.19-2.09,2.55-3.24,3.74a.52.52,0,0,0,.73.75Z"/><path class="cls-5" d="M134.23,140.91c2-.61,4.58-1.23,6.07-2.8.26-.27,0-.8-.38-.67a18.35,18.35,0,0,0-2.81,1.39,32.86,32.86,0,0,1-3.14,1.43c-.37.15-.11.76.26.65Z"/><path class="cls-5" d="M128.23,145.9c1.62.27,4.05.28,5.29-1,.28-.3.11-.91-.35-.86a10,10,0,0,0-2.26.7,7.2,7.2,0,0,1-2.57.31c-.48,0-.59.76-.11.84Z"/><path class="cls-5" d="M121.21,150.59a13.85,13.85,0,0,0,7.1-.71c.57-.21.36-1.1-.24-.92a17.13,17.13,0,0,1-6.77.89c-.42,0-.51.67-.09.74Z"/><path class="cls-5" d="M124.27,145.47c2-.58,5.13-1,6.25-3A.38.38,0,0,0,130,142c-.9.53-1.7,1.2-2.64,1.68s-2.14.91-3.23,1.34c-.29.12-.19.58.13.49Z"/><path class="cls-5" d="M125,147.66a13.47,13.47,0,0,0,2.85-3c.22-.31-.26-.66-.51-.4-.94,1-1.73,2.07-2.76,3-.3.25.12.65.42.43Z"/><path class="cls-5" d="M133.32,142.6c1.41-1.26,2.8-2.6,3.26-4.49.14-.55-.62-.71-.82-.22a13.53,13.53,0,0,1-2.89,4.24.33.33,0,0,0,.45.47Z"/><path class="cls-5" d="M121.64,143.52a11.44,11.44,0,0,0,6.5-1.69c.3-.22.14-.78-.26-.65a25.08,25.08,0,0,1-6.24,1.69c-.41,0-.42.66,0,.65Z"/><path class="cls-5" d="M115.86,149.82a12.39,12.39,0,0,0,7.3-2,.48.48,0,0,0-.47-.83,16.75,16.75,0,0,1-6.84,2.11.35.35,0,0,0,0,.7Z"/><path class="cls-5" d="M114.58,146.59c2.69-.48,5.58-1.2,7.48-3.29a.43.43,0,0,0-.6-.61,17.3,17.3,0,0,1-7,3.27c-.42.1-.24.7.16.63Z"/><path class="cls-5" d="M128.73,139.32c2.08-.56,4.87-1.33,5.37-3.74.09-.43-.47-.84-.8-.46a13.08,13.08,0,0,1-4.83,3.55c-.37.16-.11.75.26.65Z"/><path class="cls-5" d="M133.81,139a12.7,12.7,0,0,1,1.64-1.88c.26-.28-.09-.8-.42-.55a7,7,0,0,0-1.79,2.1.33.33,0,0,0,.57.33Z"/><path class="cls-2" d="M39.46,235.47s6.64,17.89,21.47,28.86l-5.79,7.61c11.32-.8,21.7-8.4,21.7-8.4-.72-2.68-4.74-12.49-.42-21.21C76.42,242.33,51.48,225.4,39.46,235.47Z"/><path class="cls-3" d="M76.42,242.33s-24.94-16.93-37-6.86a62.81,62.81,0,0,0,3.5,7.38,10.76,10.76,0,0,1-.88-2.11,10.76,10.76,0,0,0,.88,2.11l.43.79c1.79,3.09,4.93,6.76,7.37,6.55.34-1.6-.47-3.28-.88-4.87,1.66,2,7.74,8.75,6.58,2.07,1.16,1.58,3.23,4.44,5,4.73a2.79,2.79,0,0,0-.24-2.39c.76,1.5,2,4.19,3.72,4.89,1,.31,1.65.15,1.91-.45,0-.7,0-1.34,0-1.74a2.7,2.7,0,0,1,0,1.74c.08,1.59.37,3.54,1.27,4a1,1,0,0,0,1.06-.06,13.83,13.83,0,0,1,.07-2.12c.33.79.37,1.73-.07,2.12.09,1.9.59,4.05,2,4.45a16,16,0,0,1,.29-2.43,3.67,3.67,0,0,1-.11,2.49l-.18-.06a18,18,0,0,0,.35,4.25,47.5,47.5,0,0,0,5.32-3.23C76.12,260.86,72.1,251.05,76.42,242.33Z"/><path class="cls-4" d="M45.29,242.45c-1,4.92-.33,12.14,4.88,14.47a.75.75,0,0,0,.76-1.3c-4.06-2.88-5.5-8.35-5.14-13.1a.26.26,0,0,0-.5-.07Z"/><path class="cls-4" d="M48.71,248.54a17.75,17.75,0,0,0,3.91,11.33c.38.44,1.22,0,1-.58-1.44-3.72-3.82-6.62-4.31-10.74,0-.37-.61-.41-.61,0Z"/><path class="cls-4" d="M52.58,256.35c0,2.33.13,5.79,2.59,6.9a.4.4,0,0,0,.49-.63,10.3,10.3,0,0,1-2.32-6.25c0-.48-.76-.51-.76,0Z"/><path class="cls-4" d="M60.24,265.52c-2.53,1.27-5.31,3.05-6.72,5.59-.24.44.29,1.11.75.76,2.27-1.72,4-4,6.4-5.62a.42.42,0,0,0-.43-.73Z"/><path class="cls-4" d="M57.23,270c-1.77.51-4.28,2-3.94,4.18a.7.7,0,0,0,1.28.18c.38-.66.53-1.39.94-2.05a5.74,5.74,0,0,1,1.93-1.8.28.28,0,0,0-.21-.51Z"/><path class="cls-4" d="M58.45,269.75c-1.25,1.14-3,2.2-3.19,4-.06.68.87.69,1.09.16a17.42,17.42,0,0,1,2.53-3.85c.2-.26-.21-.53-.43-.33Z"/><path class="cls-4" d="M60,269.48c-1.14,1.26-2.85,2.91-2.32,4.78a.65.65,0,0,0,1.28-.15A9.84,9.84,0,0,1,60.61,270c.24-.38-.32-.83-.63-.48Z"/><path class="cls-4" d="M63.12,268.22a5.6,5.6,0,0,0-1.5,5.25.55.55,0,0,0,1.08-.13A8.08,8.08,0,0,1,64,269.11c.49-.62-.33-1.5-.89-.89Z"/><path class="cls-4" d="M74.06,263.77c-.7,1.75-1,3.79-2.52,5.09-.29.26,0,.81.38.67,2.21-.81,2.39-3.55,3.06-5.5.2-.59-.7-.81-.92-.26Z"/><path class="cls-4" d="M71.78,264.38a14.72,14.72,0,0,1-4.25,4.43.5.5,0,0,0,.5.86c2.12-1,3.27-3,4.31-5a.33.33,0,0,0-.56-.33Z"/><path class="cls-4" d="M68.39,266.34c-.4.33-.49.86-.74,1.31a6.5,6.5,0,0,1-1.33,1.58c-.8.74-2.15,1-2.75,1.9a.55.55,0,0,0,.19.75c1.35.58,2.68-.79,3.46-1.75.65-.79,1.94-2.71,1.37-3.77a.13.13,0,0,0-.2,0Z"/><path class="cls-4" d="M53,256.66c.89,2.06,1.58,4.76,3.4,6.21a.45.45,0,0,0,.64-.63,38.38,38.38,0,0,1-3.56-5.85c-.17-.32-.61,0-.48.27Z"/><path class="cls-4" d="M56,258.12c.2,2.53.35,5.84,3.46,6.24.73.1.75-.94.17-1.18-2.15-.87-2.52-3.12-3-5.14-.08-.35-.67-.29-.64.08Z"/><path class="cls-4" d="M57.2,266.58a12.15,12.15,0,0,1,4.52.64c.61.22.85-.63.41-1-1.42-1.09-3.4-.65-5-.32a.33.33,0,0,0,.08.64Z"/><path class="cls-4" d="M58.53,265.33a6.4,6.4,0,0,1,4.35,1c.41.27.85-.34.51-.67-1.3-1.33-3.23-1.27-5-1-.42.06-.33.78.09.75Z"/><path class="cls-5" d="M74.84,257.49c.14,3.44-.09,7.77,3.82,9.09a.73.73,0,0,0,.57-1.32c-3-1.57-3.15-4.88-3.6-7.86-.06-.45-.8-.35-.79.09Z"/><path class="cls-5" d="M72.8,255.5a56.36,56.36,0,0,0,3,7.26c.31.52,1.22.18,1-.42a68.46,68.46,0,0,0-3.16-7.19c-.23-.48-1.07-.14-.87.35Z"/><path class="cls-5" d="M72.54,252.89c1.78,2.3,4,4.61,4.2,7.67a.5.5,0,0,0,1,0c.29-3.33-2.71-5.91-4.7-8.18-.31-.35-.77.14-.5.49Z"/><path class="cls-5" d="M72.2,250.73c1.53,3.15,3.84,5.88,3.82,9.56a.43.43,0,0,0,.85,0c.53-3.88-2.36-6.72-4.1-9.89-.2-.38-.75,0-.57.32Z"/><path class="cls-5" d="M72.39,248.78c.51,1.21,1.11,2.38,1.65,3.57a20,20,0,0,1,1.1,4.7c.09.48.72.39.87,0,1.12-2.88-1.78-6.24-3-8.63-.22-.41-.78-.06-.61.35Z"/><path class="cls-5" d="M73.25,245.59c.8,3,2.57,5.55,2.66,8.75a.43.43,0,0,0,.85,0c.38-3.33-1.91-5.9-2.88-8.92a.33.33,0,0,0-.63.16Z"/><path class="cls-5" d="M74.56,243.1a22.84,22.84,0,0,1,.78,6.59.51.51,0,0,0,1,0c.23-2.23,0-4.92-1.28-6.81-.17-.24-.6-.11-.51.21Z"/><path class="cls-2" d="M125.77,199.76s10.46,16,10.48,34.4l9.56-.15c-7.36,8.65-19.64,12.49-19.64,12.49-1.73-2.17-7.24-11.23-16.82-12.93C109.35,233.57,110.53,203.45,125.77,199.76Z"/><path class="cls-3" d="M128.84,238.63c.15.83.29,1.65.46,2.42a3.31,3.31,0,0,1-.76-2.68l.3.26a13.24,13.24,0,0,0-1.8-5.29,2.83,2.83,0,0,1-.5-.63,7.68,7.68,0,0,1,.5.63c.61.59,1.23.49,1.92-.25,1.16-1.18,0-4.68-.41-6,3.56,3.23,1-7.16.61-8.24,4.14,2.64,4-1.45,3.15-5.39a72.37,72.37,0,0,0-6.54-13.68c-15.24,3.69-16.42,33.81-16.42,33.81,9.58,1.7,15.09,10.76,16.82,12.93a49.49,49.49,0,0,0,5.54-2.25A12.49,12.49,0,0,0,128.84,238.63Z"/><path class="cls-4" d="M127.92,208.59c4.56,2.12,10,6.94,8.76,12.51a.75.75,0,0,1-1.5-.16c.09-5-3.46-9.38-7.49-11.91-.24-.15,0-.56.23-.44Z"/><path class="cls-4" d="M130.79,215a17.67,17.67,0,0,1,6.8,9.87.6.6,0,0,1-1.06.47c-2.14-3.38-3.06-7-6.09-9.85-.27-.26,0-.73.35-.49Z"/><path class="cls-4" d="M134.79,222.71c1.87,1.39,4.57,3.53,4,6.18a.41.41,0,0,1-.8,0,10.26,10.26,0,0,0-3.65-5.58c-.36-.32,0-.91.44-.62Z"/><path class="cls-4" d="M137.61,234.31c2.53-1.28,5.61-2.45,8.49-2.08.5.06.73.88.17,1.05-2.74.81-5.6.88-8.32,1.81a.43.43,0,0,1-.34-.78Z"/><path class="cls-4" d="M143,234.57c1.46-1.13,4.17-2.25,5.7-.7.45.45,0,1.21-.62,1.14-.75-.08-1.43-.4-2.2-.46a6,6,0,0,0-2.6.48.27.27,0,0,1-.28-.46Z"/><path class="cls-4" d="M142.08,235.38c1.66-.32,3.56-1.12,5.13-.17.58.35,0,1.11-.51,1a17.71,17.71,0,0,0-4.6-.24c-.33,0-.31-.49,0-.55Z"/><path class="cls-4" d="M141,236.46c1.7-.17,4-.57,5.24,1a.66.66,0,0,1-.89.94,10,10,0,0,0-4.33-1.11.4.4,0,0,1,0-.79Z"/><path class="cls-4" d="M138.08,238.24a5.59,5.59,0,0,1,5.12,1.9.56.56,0,0,1-.75.8,8.08,8.08,0,0,0-4.18-1.46c-.79,0-1-1.16-.19-1.24Z"/><path class="cls-4" d="M133.44,241.36a4.35,4.35,0,0,1,1.5.18,6.43,6.43,0,0,0,2.05-.13c1.07-.21,2.07-1.15,3.17-1.09a.55.55,0,0,1,.49.6c-.34,1.43-2.23,1.69-3.47,1.75-1,.05-3.33,0-3.84-1.13a.13.13,0,0,1,.1-.18Z"/><path class="cls-4" d="M134.79,223.23c1.13,1.94,2.89,4.1,3,6.42a.46.46,0,0,1-.9.14,37.5,37.5,0,0,0-2.59-6.34c-.16-.32.33-.52.51-.22Z"/><path class="cls-4" d="M134.2,226.48c1.92,1.66,4.49,3.75,3,6.49-.36.64-1.21,0-1.06-.57.58-2.24-1-3.88-2.36-5.45-.24-.28.16-.71.44-.47Z"/><path class="cls-4" d="M140.27,232.5a12.14,12.14,0,0,0-2.16,4c-.19.62-1,.3-1-.24,0-1.8,1.49-3.13,2.71-4.23a.33.33,0,0,1,.47.45Z"/><path class="cls-4" d="M138.47,232.83a6.42,6.42,0,0,0-1.8,4.06c0,.49-.77.49-.85,0-.29-1.84.9-3.35,2.11-4.6.3-.3.82.19.54.52Z"/><path class="cls-5" d="M122.49,241.3c2.68,2.15,6.3,4.54,5.05,8.47a.73.73,0,0,1-1.41-.33c.54-3.36-2-5.43-4.19-7.56-.32-.32.2-.86.55-.58Z"/><path class="cls-5" d="M128,244.4c1.81.47,3.67,1.4,5.59,1a.4.4,0,0,1,.31.71c-2,1.29-4.27-.19-6.24-.81-.59-.19-.24-1,.34-.89Z"/><path class="cls-5" d="M129.85,242.92a14.76,14.76,0,0,0,6.08-.79.5.5,0,0,1,.41.92c-2.05,1.13-4.33.87-6.56.52a.33.33,0,0,1,.07-.65Z"/><path class="cls-5" d="M122.1,238.48a56.23,56.23,0,0,1,4.05,6.74c.24.55-.58,1.09-.94.57A69.84,69.84,0,0,1,121.3,239c-.25-.47.52-.95.8-.49Z"/><path class="cls-5" d="M120.15,236.71c.8,2.8,1.34,5.95,3.68,7.93a.5.5,0,0,1-.58.82c-2.84-1.74-3.15-5.68-3.79-8.64-.1-.45.57-.53.69-.11Z"/><path class="cls-5" d="M118.61,235.16c1.64,3.1,2.46,6.58,5.43,8.75.45.33,0,1-.5.69-3.43-1.88-4-5.89-5.52-9.18-.18-.38.4-.62.59-.26Z"/><path class="cls-5" d="M116.93,234.15c.67,1.13,1.26,2.31,1.9,3.45a19.67,19.67,0,0,0,3.13,3.68c.33.36-.12.81-.52.7-3-.81-4-5.14-5.15-7.55-.21-.41.42-.65.64-.28Z"/><path class="cls-5" d="M113.86,233c1.94,2.44,2.93,5.36,5.46,7.34a.43.43,0,0,1-.5.69c-2.9-1.67-3.61-5-5.47-7.62-.24-.34.24-.74.51-.41Z"/><path class="cls-5" d="M111.07,232.53a22.94,22.94,0,0,0,4.84,4.54c.53.39,0,1.14-.58.82-1.94-1.14-4-2.89-4.73-5.08-.09-.28.27-.54.47-.28Z"/><path class="cls-2" d="M24.27,169.61c-3.9,5.45-6.55,12.35-6.46,19.1,0,.95,1.56,1.24,1.73.23,1.05-6.59,2-13.06,5.42-18.93C25.23,169.56,24.57,169.2,24.27,169.61Z"/><path class="cls-2" d="M23,180.83c-2,6.71-3.37,13.59-1.83,20.53a.91.91,0,0,0,1.78-.24,80.06,80.06,0,0,1,.73-20.1A.35.35,0,0,0,23,180.83Z"/><path class="cls-2" d="M27.39,192.7c.09-.47-.6-.68-.73-.2-1.9,7.43-2.65,15.75,0,23.08a.73.73,0,0,0,1.4-.39A54.32,54.32,0,0,1,27.39,192.7Z"/><path class="cls-2" d="M30,209.46a.56.56,0,0,0-1.11,0c-.16,6.4-.05,13,3.57,18.56a.8.8,0,0,0,1.38-.81C31,221.6,30.2,215.67,30,209.46Z"/><path class="cls-2" d="M34.32,219.65a.25.25,0,0,0-.5,0c-.39,6.35-.07,13.26,4.48,18.18a.83.83,0,0,0,1.3-1C36.25,231.45,35.12,225.85,34.32,219.65Z"/><path class="cls-2" d="M51.08,241.85c-4.57-2.76-8.5-7.57-8.6-13.12a.45.45,0,0,0-.9,0,15,15,0,0,0,.87,6.06c-4.36-5.06-7.36-12.79-5-19.16.09-.24-.3-.4-.41-.17-3.07,6.57-.66,18.33,5.92,22.09a.72.72,0,0,0,.75,0,10.81,10.81,0,0,0,6.87,5.55A.68.68,0,0,0,51.08,241.85Z"/><path class="cls-2" d="M49.88,233.17c-.08-.78-1.28-.82-1.25,0,.17,4.88,3.07,10.9,7.65,13.09a.78.78,0,0,0,.94-1.22C54.1,241.26,50.48,238.4,49.88,233.17Z"/><path class="cls-2" d="M55.64,238a.45.45,0,0,0-.9,0c0,3.72,2.51,8.16,6,9.62.85.35,1.19-.91.58-1.38C58.68,244.24,56,241.44,55.64,238Z"/><path class="cls-2" d="M20.11,157a46.07,46.07,0,0,1,6.14-13.59c.44-.65-.59-1.22-1-.61a35.69,35.69,0,0,0-6.46,13.83A.71.71,0,0,0,20.11,157Z"/><path class="cls-2" d="M22,142c3.15-6.44,5.89-12.93,11.32-17.86.38-.34-.13-1-.54-.7a33.73,33.73,0,0,0-12.2,18C20.33,142.27,21.56,142.86,22,142Z"/><path class="cls-2" d="M24.28,131.67a32.08,32.08,0,0,1,8.16-12.58c.26-.25-.09-.74-.39-.51-4.24,3.24-8.79,7.25-9.35,12.88C22.61,132.41,24,132.48,24.28,131.67Z"/><path class="cls-2" d="M26.31,121.24c2.69-3.89,5.89-7.58,10.29-9.57.27-.12.08-.53-.19-.46-4.75,1.3-9.32,4.74-11.26,9.35A.67.67,0,0,0,26.31,121.24Z"/><path class="cls-2" d="M28,115.67c3.19-4.82,8.47-9,14.15-10.41.33-.08.26-.62-.08-.59-6.19.56-12.69,4.5-15.2,10.34A.65.65,0,0,0,28,115.67Z"/><path class="cls-2" d="M36.86,104.88c4.13-2,8-5.14,12.77-5.46a.38.38,0,0,0,0-.76c-4.8-.35-10.08,2-13.69,5C35.26,104.28,36.13,105.24,36.86,104.88Z"/><path class="cls-2" d="M75.94,91.35a40.52,40.52,0,0,0-12.58-.11.58.58,0,0,0-.35.87,23.38,23.38,0,0,0-12.51,3c-.83.46-.27,1.89.65,1.55C56.41,94.81,61.8,93.1,67.47,94a.5.5,0,0,0,.26-1A16.35,16.35,0,0,0,65,92.32a98.21,98.21,0,0,1,11-.41C76.3,91.92,76.28,91.4,75.94,91.35Z"/><path class="cls-2" d="M85.89,93c-3.29-3.72-9.23-4.13-13.84-3.59a.58.58,0,0,0,0,1.15c4.35.51,9.71-.09,13.2,3.08A.45.45,0,0,0,85.89,93Z"/><path class="cls-2" d="M45.06,99.49c-15.55,12.28-27.41,45.42-24.28,77.92S32.52,246.26,75.6,245.9s52.08-33.28,57.17-73.21-3.13-63.81-14.49-73.2S61.89,86.17,45.06,99.49Z"/><path class="cls-3" d="M118.28,99.49c-5.09-4.22-17-7.33-30-8.28,4.85,5.84,9,13.78,10.51,19.68.72,2.85.36,10-4.63,6.77,2.85,5,6.42,15,4.28,20.31a5.61,5.61,0,0,1-3.92-3.56c2.49,5.7,6.77,14.25,4.27,20.66L97.72,154c.71,5,2.49,10.69,1.78,15.68-.36,2.5-1.78,5.7-3.57,1.43,1.07,2.85,4.64,29.57-2.85,22.45C92,199.61,94.51,207.1,91,212.09a5.33,5.33,0,0,1-1.07-2.5c0,4.28-.36,12.83-4.28,15.68-.36-.36-.36-.71-.71-1.07.35,4.28-2.5,12.83-6.06,14.61,0-.35-.36-1.07-.36-1.42a28.92,28.92,0,0,1-2.45,8.5c42.71-.57,51.68-33.4,56.75-73.2S129.64,108.88,118.28,99.49Z"/><path class="cls-6" d="M48.28,238c-3.2-4.8.4-16.81,1.6-22-1.6,3.2-5.6,13.61-9.61,9.21-3.6-4.4,0-18.42,1.2-23.22-2.4,4.4-6.4,14-9.61,6-2.4-7.2,1.61-19.22,3.61-26-1.6,4.4-6.41,18-10.81,10.41-4.41-8,.4-26.43,3.2-34.84-2.11,1.06-4.91,3.85-7.5,4.72a113.29,113.29,0,0,0,.42,15.17c2.61,27.05,9,56.76,35.93,65.76.15-4.34.66-8.68.78-12.38C55.89,234.4,52.28,243.21,48.28,238Z"/><path class="cls-4" d="M33.11,116.91c-6.76,8.5-8.9,19.42-12.45,29.42-.23.65.78.91,1,.28,3.73-9.81,5.49-20.78,11.87-29.36.18-.26-.24-.59-.44-.34Z"/><path class="cls-4" d="M25.2,148.27c-3.45,7.42-6.48,15-6.72,23.27,0,1,1.37.91,1.46,0,.78-8,3.06-15.54,5.85-23,.13-.35-.44-.59-.59-.25Z"/><path class="cls-4" d="M22,174.56a64,64,0,0,0-2.54,20.08.58.58,0,0,0,1.15,0c.21-6.71.48-13.34,2.16-19.87a.4.4,0,0,0-.77-.21Z"/><path class="cls-4" d="M23.57,185.15c-1.53,7.25-2.58,15.72-.68,23,.22.83,1.37.45,1.26-.35-1.06-7.63.08-14.93.11-22.54a.35.35,0,0,0-.69-.09Z"/><path class="cls-4" d="M25,193.85c-.2,7.4-1.3,15.29,1.93,22.21.27.58,1.16.16,1-.42-1.88-7.27-1.93-14.34-2-21.79a.45.45,0,0,0-.9,0Z"/><path class="cls-4" d="M24.52,162.82c-3.68,7.69-8.08,16.08-8.23,24.77,0,.64,1,.8,1.13.15,1.65-8.62,5-16.41,7.47-24.77.06-.21-.27-.36-.37-.15Z"/><path class="cls-4" d="M28,197.38c-1.37,11.15-.95,22.83,4.77,32.79.37.65,1.33.08,1-.58-5.08-10.05-6.28-21.1-5.42-32.21,0-.23-.32-.22-.35,0Z"/><path class="cls-4" d="M34.92,217.35c-.87,7.08.27,15,6.17,19.63.62.49,1.45-.29.88-.89-5-5.26-6.82-11.59-6.35-18.74,0-.46-.65-.44-.7,0Z"/><path class="cls-4" d="M42,172.38c-2,7-2.58,14.13.25,21.09.16.41,1,.24.92-.17a35.88,35.88,0,0,1-.54-20.8c.07-.28-.55-.41-.63-.12Z"/><path class="cls-4" d="M47,190.29a21.39,21.39,0,0,0,.27,14.63c.17.45,1.12.25,1-.19-1.19-4.8-1.86-9.48-.51-14.29.1-.34-.66-.49-.77-.15Z"/><path class="cls-4" d="M34.54,188.67c-.86,6.22-1.43,12.39-.52,18.63.08.53,1,.4.94-.13a95.17,95.17,0,0,1,.27-18.41c0-.39-.64-.48-.69-.09Z"/><path class="cls-4" d="M38.21,203.64c0,5.22.1,10.45.32,15.67a.65.65,0,0,0,1.3,0c.17-5.23-.37-10.45-.46-15.67a.58.58,0,0,0-1.16,0Z"/><path class="cls-4" d="M35.75,141.08c-5.82,6.44-6.24,15.56-6.54,23.8,0,.74,1.1.73,1.15,0,.53-7.85.66-16.89,6-23.2.35-.41-.23-1-.6-.6Z"/><path class="cls-4" d="M25.63,141.24c-3.74,6.37-7.34,13-7.78,20.51,0,.75,1.08.72,1.15,0,.76-7.26,3.74-13.85,7.11-20.23a.28.28,0,0,0-.48-.28Z"/><path class="cls-4" d="M28.37,120.49c-3.86,5.85-7.25,13-7.75,20.11a.55.55,0,0,0,1.08.15c1.5-7,3.5-13.76,7.15-20a.28.28,0,0,0-.48-.28Z"/><path class="cls-4" d="M37.89,111.82c-5.4,3.38-11.17,7.26-14.5,12.81-.41.69.59,1.21,1,.61,3.87-5.16,9.38-8.44,13.74-13.07a.23.23,0,0,0-.28-.35Z"/><path class="cls-4" d="M41,105.08A41.23,41.23,0,0,0,27.45,116c-.43.51.27,1.23.75.74,4.05-4.12,8-8.21,13.1-11,.38-.21.05-.74-.32-.56Z"/><path class="cls-4" d="M80.75,93c-7.36-2.34-15.39-3.14-22.94-1.19-.84.21-.47,1.38.34,1.25a62.9,62.9,0,0,1,22.48.37.22.22,0,0,0,.12-.43Z"/><path class="cls-4" d="M61.14,93.88c-1.87-.52-4.26.11-6.15.41a25.94,25.94,0,0,0-8.32,2.65c-.66.36-.19,1.53.52,1.24,2.4-1,4.86-1.79,7.33-2.55,2.16-.67,4.5-.81,6.62-1.51a.12.12,0,0,0,0-.24Z"/><path class="cls-4" d="M37.6,159.67c-2.49,6-4.83,12-5.26,18.52-.05.75,1.09.73,1.15,0,.59-6.41,2.64-12.33,4.93-18.29.2-.52-.62-.72-.82-.23Z"/><path class="cls-4" d="M50.89,176.76A31.1,31.1,0,0,0,48,187.2c-.05.7,1.11.86,1.23.16.63-3.43,2.16-6.77,2.62-10.21.07-.51-.65-1-.91-.39Z"/><path class="cls-4" d="M60.11,182.93c-2.32,4.1-2.57,8.66-2.39,13.27a.65.65,0,0,0,1.3,0c.17-4.32.17-8.67,2.3-12.56a.7.7,0,0,0-1.21-.71Z"/><path class="cls-4" d="M58.12,233.4c-.17,5.15-.78,11.52,4.3,14.53.57.34,1-.49.51-.86-4.39-3.14-4.18-8.84-4.31-13.67a.25.25,0,0,0-.5,0Z"/><path class="cls-4" d="M54.18,236.15c-.37,4.24.85,8.9,4.26,11.67.45.36,1.05-.21.64-.64a14.46,14.46,0,0,1-4.35-11c0-.36-.52-.35-.55,0Z"/><path class="cls-4" d="M48.22,234.29c1.05,3.32,2.18,6.75,4.72,9.24a.48.48,0,0,0,.68-.67,25.28,25.28,0,0,1-4.68-8.77c-.16-.45-.87-.27-.72.2Z"/><path class="cls-4" d="M66.24,238.89c0,3.39,0,7.45,1.94,10.39.26.39.93.15.78-.33a35.55,35.55,0,0,1-2-10.06.35.35,0,0,0-.7,0Z"/><path class="cls-4" d="M64.25,206.28a48.64,48.64,0,0,0-2.42,16.94.46.46,0,0,0,.91,0c.17-5.69.51-11.27,2.28-16.73.16-.49-.6-.7-.77-.21Z"/><path class="cls-4" d="M49.74,219.46a15.87,15.87,0,0,0-1.59,8.07.43.43,0,0,0,.86,0,21.87,21.87,0,0,1,1.55-7.59c.25-.55-.55-1-.82-.48Z"/><path class="cls-4" d="M53.68,220a15.84,15.84,0,0,0,.46,8,.33.33,0,0,0,.63-.18,21.89,21.89,0,0,1-.31-7.74c.06-.45-.72-.55-.78-.11Z"/><path class="cls-5" d="M105.1,174.27A28.56,28.56,0,0,1,103.92,187a.68.68,0,0,0,1.24.52c2.28-4.39,2.16-8.68,1.22-13.44-.14-.71-1.37-.56-1.28.17Z"/><path class="cls-5" d="M107.6,187.2a19.31,19.31,0,0,1-1.11,8.88c-.19.51.55.74.82.35,2-2.75,1.72-6.18,1.27-9.36-.07-.57-1-.43-1,.13Z"/><path class="cls-5" d="M115.87,175.06a19.5,19.5,0,0,1-1.13,8.89c-.16.46.58.77.78.33a17.74,17.74,0,0,0,1.25-9.22c-.06-.57-1-.58-.9,0Z"/><path class="cls-5" d="M91,160.65c.53,3.74-1.23,6.86-3.14,9.92-.21.34.3.75.55.43,2.39-3.05,3.88-6.58,3.17-10.51-.07-.39-.63-.21-.58.16Z"/><path class="cls-5" d="M95.72,150.85a28,28,0,0,1,.46,3.55c0,1.41-.2,2.8-.2,4.21a.38.38,0,0,0,.74.1c.61-2.26.73-6-.54-8.05a.25.25,0,0,0-.46.19Z"/><path class="cls-5" d="M103,144.91a39.3,39.3,0,0,0,0,5.09.35.35,0,0,0,.7,0,37.59,37.59,0,0,0,0-5.09.38.38,0,0,0-.75,0Z"/><path class="cls-5" d="M107.06,138a18.59,18.59,0,0,1,1.52,7.29.3.3,0,0,0,.6,0,16.16,16.16,0,0,0-1.6-7.59c-.17-.35-.69-.05-.52.3Z"/><path class="cls-5" d="M102.62,161.46a10.8,10.8,0,0,1-1.54,8.29c-.3.49.41.86.73.43a10.06,10.06,0,0,0,1.59-8.93c-.13-.51-.88-.29-.78.21Z"/><path class="cls-5" d="M122.64,153.62A34,34,0,0,1,125.19,170c0,.59,1,.72,1,.14.91-5.82-.47-11.49-3-16.77-.17-.35-.79-.09-.64.28Z"/><path class="cls-5" d="M131.3,166.91c1.95,6.73,2.61,13,.52,19.74-.19.62.79,1,1.06.45,3-6.81,1.44-13.6-1-20.35-.13-.35-.68-.21-.58.16Z"/><path class="cls-5" d="M127.77,183.46c3.31,5.23,1.74,11.37.21,16.92-.15.53.67.91.92.38,2.53-5.47,3.14-12.55-.53-17.66-.25-.36-.85,0-.6.36Z"/><path class="cls-5" d="M126.09,199.06c1.68,5,1.62,9.79-.87,14.47a.58.58,0,0,0,1,.59c3-4.67,2.6-10.27.7-15.29-.2-.5-1-.3-.83.23Z"/><path class="cls-5" d="M121.53,211.08c.5,5.45-1.85,10.74-4.57,15.35-.42.71.61,1.26,1.08.63,2.88-3.85,5.95-11.23,4-16.05-.1-.26-.57-.26-.54.07Z"/><path class="cls-5" d="M112.78,224.9c1.14,4.72-.24,8.75-2.48,12.89a.63.63,0,0,0,1.08.63c2.68-4.28,3.71-8.83,2.22-13.75a.43.43,0,0,0-.82.23Z"/><path class="cls-5" d="M107.57,234a12.66,12.66,0,0,1-4.2,8.34c-.53.44.16,1.32.73.94,3.09-2.1,4.18-5.55,4.55-9.13.07-.62-1-.76-1.08-.15Z"/><path class="cls-5" d="M130.94,158.29a31.33,31.33,0,0,1,2.14,14.42c-.06.53.85.65.93.12.81-5.22-.48-10-2.57-14.75-.12-.28-.61-.08-.5.21Z"/><path class="cls-5" d="M131.77,147.77c2.56,4.3,3.25,8.7,3.83,13.58.05.38.62.4.6,0a27.11,27.11,0,0,0-4-13.83c-.17-.27-.6,0-.43.25Z"/><path class="cls-5" d="M129.42,136.9c3.08,3.57,5.54,6.94,5.2,11.92,0,.56.89.69,1,.14.82-4.7-2-9.83-5.81-12.54-.3-.2-.58.23-.37.48Z"/><path class="cls-5" d="M122.31,135.67a24.45,24.45,0,0,1,3.62,15.11.58.58,0,0,0,1.13.15c.91-5-.29-12.11-4.24-15.65-.27-.24-.71.06-.51.39Z"/><path class="cls-5" d="M124.27,127a14,14,0,0,1,6,8.68.55.55,0,0,0,1.08-.15c-.3-4-3.23-7.38-6.53-9.48-.61-.39-1.15.55-.56,1Z"/><path class="cls-5" d="M126.65,115.4c4.18,4,7.52,8.95,8.35,14.77.09.58,1.08.44,1-.14-.44-6-4.57-11.25-8.9-15.13-.33-.3-.82.18-.49.5Z"/><path class="cls-5" d="M115,99.79c5.38,2.42,10.94,5,14.19,10.15a.55.55,0,0,0,1-.55c-3-5.54-9.34-8-14.87-10.24-.37-.15-.63.47-.27.64Z"/><path class="cls-5" d="M123.11,107.58c2.9,2.27,7.22,6,6,10.16a.55.55,0,0,0,1,.42c2.56-4.51-3.28-9-6.55-11.17-.35-.24-.79.33-.45.59Z"/><path class="cls-5" d="M99.91,91.92c-.78-.21-.63-.18-1.42.16a.42.42,0,0,0,0,.71c3.63,1.55,9.6-.18,11.83,3.86a.6.6,0,0,0,1.1-.46c-1.63-5-8.57-3.47-12.61-4.15,0,.25.07.5.1.75a2.84,2.84,0,0,1,1-.64.13.13,0,0,0,0-.23Z"/><path class="cls-5" d="M92.53,94.34c5.13-2,9.59-3.34,15.18-2.92.61,0,.76-1,.14-1.08A22.72,22.72,0,0,0,92.26,93.7c-.31.21-.12.79.27.64Z"/><path class="cls-5" d="M90.26,94.7a60.75,60.75,0,0,1,8.63-5.07.38.38,0,0,0-.29-.69c-3.23,1-6,3.16-8.69,5.15-.36.26,0,.87.35.61Z"/><path class="cls-5" d="M110.47,109.88c.81,1.44,1.86,2.74,2.69,4.18a18.73,18.73,0,0,1,2.17,7c.1.75,1.26.79,1.2,0a18.8,18.8,0,0,0-5.39-11.66.43.43,0,0,0-.67.52Z"/><path class="cls-5" d="M116.73,115.91c2.2,2.83,2.71,6.31,2.52,9.81,0,.79,1.1.75,1.2,0a13.65,13.65,0,0,0-3-10.56c-.44-.52-1.15.23-.75.75Z"/><path class="cls-5" d="M110.18,162.6c.76,3,1.7,6,2.18,9.06.08.49,1,.38.89-.12a47.91,47.91,0,0,0-2.53-9.09.28.28,0,0,0-.54.15Z"/><path class="cls-5" d="M116.87,198.94a29.67,29.67,0,0,1-2.13,15.82c-.24.55.52,1,.82.48,2.77-5.2,3.27-10.5,2.56-16.3-.09-.79-1.35-.79-1.25,0Z"/><path class="cls-5" d="M94,217.07c.8,5.79-1.84,11.25-4.79,16.06-.32.52.47,1.16.87.66,3.73-4.72,5.91-10.92,4.69-16.94-.1-.52-.84-.28-.77.22Z"/><path class="cls-5" d="M98.21,227.24a34.65,34.65,0,0,0-2.68,7.22c-.12.47.61.83.82.35,1-2.32,1.74-4.72,2.85-7,.32-.66-.67-1.25-1-.58Z"/><path class="cls-5" d="M87.73,208.34c-.08,2.7-1.2,5.18-1.54,7.83-.06.43.65.52.74.1.52-2.64,1.53-5.21,1.6-7.93,0-.51-.79-.51-.8,0Z"/><path class="cls-5" d="M74.68,202.08c.3,4.34-.49,8.59-.66,12.92,0,.45.72.56.79.11a57.57,57.57,0,0,0,.92-13c0-.67-1.09-.68-1,0Z"/><path class="cls-5" d="M79.23,183.39c-1.63,1.72-2.37,4.65-2.54,6.94,0,.55.79.63.93.13l.93-3.22c.35-1.2,1-2.27,1.35-3.46a.4.4,0,0,0-.67-.39Z"/><path class="cls-5" d="M79.72,193.46c.23,4.07-.46,8.09-.71,12.14,0,.56.9.7,1,.14.62-4.13,1.25-8.09.87-12.28-.06-.73-1.19-.75-1.15,0Z"/><path class="cls-5" d="M79,239.91c-.83,2.72-1.58,5.48-2.33,8.23a.55.55,0,0,0,1,.42c1.43-2.56,1.73-5.54,2.43-8.35a.58.58,0,0,0-1.11-.3Z"/><path class="cls-5" d="M82.85,239.9A17,17,0,0,1,81,243.78a35.62,35.62,0,0,0-2.31,3.44c-.22.44.27,1.12.75.76,2.37-1.79,3.84-4.95,4.61-7.76a.6.6,0,0,0-1.16-.32Z"/><path class="cls-5" d="M85.77,240.06a19.48,19.48,0,0,1-5.38,11.06c-.39.4.18.94.6.6,3.53-2.91,5.18-7.18,5.58-11.66.05-.52-.73-.5-.8,0Z"/><path class="cls-5" d="M95.18,238.27c-1.25,2.4-2.19,4.69-4.31,6.49-.48.41.14,1.18.67.87,2.48-1.47,3.29-4.44,4.42-6.91.24-.52-.51-1-.78-.45Z"/><path class="cls-5" d="M101.86,237.5A50,50,0,0,1,96,246.91c-.28.36.32.81.63.48a34.26,34.26,0,0,0,6-9.46c.22-.5-.5-.93-.73-.43Z"/><path class="cls-7" d="M107.58,108.71c-.33-.71-1.37-.11-1,.59,3.65,8-3.24,12.7-11,14.35-.06-.23-.12-.46-.17-.68-.3-1.33-1.14-4.82-1.14-4.82-1.27,1.35-3.72,5.84-4.07,6.33-1.35.14-2.7.23-4,.29-.87-1.36-1.74-2.72-2.68-4-.6,1.16-1.2,2.33-1.73,3.5-.09.18-.17.37-.25.57-1.5,0-2.82-.06-3.86-.12h-.12l-.08-.15c-.88-1.5-2.09-2.75-3-4.26a24.9,24.9,0,0,0-2,4.11c-1.12-.08-2.24-.16-3.36-.26-.11-.17-.23-.35-.35-.51-1.44-2-2.77-4-4.12-6.11,0,0-.5,5.59-.51,6-1.39-.21-2.78-.46-4.14-.77-3.29-.75-7.29-1.94-9.15-5-1.48-2.41-.31-5.75-.16-8.41,0-.18-.23-.19-.29,0-2.4,6-1.71,10.88,4.07,13.75.13.46.84,4.87,1.68,5.91,1-1.19,2.08-2.89,3-4.17,6.22,1.67,13.25,1.5,19.44,1.8,4.77.23,13.79-.12,20.64-2.5.44.61.89,1.2,1.25,1.71.76,1,1.7,3.37,2.94,3.86,1-1.62.83-4.73,1-6.53.06-.53.08-1.11.1-1.71A10,10,0,0,0,107.58,108.71Z"/><path class="cls-8" d="M57.2,128.5c1.26-1.55,2.22-3.35,3.47-5a32.38,32.38,0,0,1-6-2.29c.3,1,.61,2.08.89,3.09C56,125.68,56.34,127.48,57.2,128.5Z"/><path class="cls-4" d="M56.43,124.81a2.65,2.65,0,0,0,0,1,.45.45,0,0,0,.87,0,1.28,1.28,0,0,0-.49-1.27c-.17-.12-.36.06-.38.22Z"/><path class="cls-8" d="M65.25,117.18s-.38,3.18-.4,4.69c0,.79,0,1.58,0,2.38a18.41,18.41,0,0,0,5.83.77,20,20,0,0,0-1.19-1.8C68,121.26,66.64,119.25,65.25,117.18Z"/><path class="cls-4" d="M65.72,120.21a2,2,0,0,0-.12,1.53.39.39,0,0,0,.72,0,1.4,1.4,0,0,0,0-.76,3.23,3.23,0,0,1-.13-.69c0-.27-.39-.25-.48-.05Z"/><path class="cls-4" d="M65.6,122.86c0,.13,0,.26,0,.39.06.45.79.23.59-.18a2.28,2.28,0,0,0-.15-.36.25.25,0,0,0-.47.15Z"/><path class="cls-8" d="M75.1,119.79a18.5,18.5,0,0,0-1.69,3.43,10.78,10.78,0,0,0-.44,1.9,30.82,30.82,0,0,0,6.11.59c-.33-.61-.64-1.22-.94-1.71C77.23,122.51,76,121.28,75.1,119.79Z"/><path class="cls-4" d="M74.49,121.22c-.33.82-.94,1.61-.45,2.5a.46.46,0,0,0,.65.17,2.78,2.78,0,0,0,.93-2.51.58.58,0,0,0-1.13-.16Z"/><path class="cls-8" d="M84.12,120.09c-.58,1.18-1.16,2.36-1.68,3.54-.29.65-.52,1.45-.81,2.21a28.63,28.63,0,0,0,6.2-.38q-.31-.43-.6-.87C86.22,123.05,85.2,121.51,84.12,120.09Z"/><path class="cls-4" d="M83.66,121.45c-.23.31-.46.6-.3,1a.41.41,0,0,0,.71.08,1.49,1.49,0,0,0,.23-.71c.1-.39-.37-.72-.64-.36Z"/><path class="cls-4" d="M83.28,124.43a.27.27,0,0,0,.06-.53.27.27,0,0,0-.06.53Z"/><path class="cls-8" d="M96,122.07c-.33-1.33-.81-4.33-.81-4.33a50.8,50.8,0,0,0-3.38,4.5c-.58.8-1.18,1.72-1.81,2.61a22,22,0,0,0,6.23-1.94C96.17,122.63,96.09,122.34,96,122.07Z"/><path class="cls-4" d="M94.4,119.24a8.61,8.61,0,0,0-1,1.23,3,3,0,0,0-.77,1.36.4.4,0,0,0,.58.36,2.49,2.49,0,0,0,.74-1.14,8.81,8.81,0,0,1,.85-1.49.25.25,0,0,0-.37-.32Z"/><path class="cls-8" d="M104.35,128.29c.94-1.64.63-4.3.78-6.1.08-.8.06-1.71.1-2.62a43.24,43.24,0,0,1-5.77,3c.58.84,1.25,1.67,1.76,2.36C102,125.94,103.1,127.82,104.35,128.29Z"/><path class="cls-4" d="M101.14,123.08a1.09,1.09,0,0,0,.29.81c.19.29.3.62.67.7a.34.34,0,0,0,.43-.24c.13-.35-.07-.58-.31-.8s-.5-.56-.8-.63a.23.23,0,0,0-.28.16Z"/><path class="cls-4" d="M103,125.57s0,.05,0,.08a.35.35,0,0,0,.68,0,.31.31,0,0,0,0-.08c.17-.61-.89-.61-.72,0Z"/><path class="cls-9" d="M78.16,98c1.42,0,6.79,9.43,5.94,13.61-.54,2.68-3.87,3.87-5.94,3.87s-5.39-1.19-5.94-3.87C71.38,107.47,76.74,98,78.16,98Z"/><path class="cls-10" d="M77.53,112.81a16.27,16.27,0,0,1-.57-6.54c.21-2.76.67-5.5,1.13-8.22-1.52.3-6.7,9.48-5.87,13.6.55,2.68,3.88,3.87,5.94,3.87a6,6,0,0,0,1.08-.1A5.82,5.82,0,0,1,77.53,112.81Z"/><path class="cls-5" d="M99.52,108.39a4,4,0,1,1-4-4A4,4,0,0,1,99.52,108.39Z"/><path class="cls-4" d="M98.77,108a3.16,3.16,0,0,0-1.41-2.32,3.54,3.54,0,0,0-4.2.4,3,3,0,0,0-.88,2.77A3.59,3.59,0,0,0,94,111.24a3,3,0,0,0,3.65-.45A3.84,3.84,0,0,0,98.77,108Z"/><path class="cls-11" d="M97.62,107.83a2,2,0,0,0-1.48-1.38,2.17,2.17,0,0,0-1.57-.11,2.29,2.29,0,0,0-1.32,3.37,2.44,2.44,0,0,0,2,1.19,2.47,2.47,0,0,0,2-1.13A2.5,2.5,0,0,0,97.62,107.83Z"/><path class="cls-4" d="M94.64,108l.15-.06a.25.25,0,0,0,0-.43l-.15-.07c-.62-.27-.62.84,0,.56Z"/><path class="cls-5" d="M64.83,108.39a4,4,0,1,1-4-4A4,4,0,0,1,64.83,108.39Z"/><path class="cls-4" d="M57.56,108A3.16,3.16,0,0,1,59,105.65a3.54,3.54,0,0,1,4.2.4,3,3,0,0,1,.88,2.77,3.62,3.62,0,0,1-1.75,2.42,3.06,3.06,0,0,1-3.66-.45A3.86,3.86,0,0,1,57.56,108Z"/><path class="cls-11" d="M59,109.77A2.49,2.49,0,0,0,61,110.9a2.42,2.42,0,0,0,2-1.19,2.28,2.28,0,0,0-1.32-3.37,2.14,2.14,0,0,0-1.56.11,2,2,0,0,0-1.49,1.38A2.59,2.59,0,0,0,59,109.77Z"/><path class="cls-4" d="M61.41,108.19a.38.38,0,0,0,0-.75.38.38,0,0,0,0,.75Z"/><path class="cls-11" d="M50.28,109.59c-2.32,6.17-.91,10.78,5.17,13.54,7.19,3.25,16.18,2.73,23.9,3,9.49.29,35.77-2,28.07-17.5-.35-.7-1.37-.09-1,.61,6.94,14.52-19.65,15.29-28,14.94-5.88-.25-11.87-.39-17.65-1.6-3.3-.69-7.32-1.81-9.23-4.8-1.52-2.38-1-5.46-.88-8.12,0-.18-.24-.19-.3,0Z"/><path class="cls-8" d="M110.87,98s8-5.19,7.66-8.84-5-6-4.52-6.59,5.23.68,8.23,4.79-.43,12.42-6,16.24C116.19,103.6,112.59,102.81,110.87,98Z"/><path class="cls-4" d="M112.83,96.6l-.41.3a18,18,0,0,0,5.82,5c.26-.25.51-.52.75-.78A18.31,18.31,0,0,1,112.83,96.6Z"/><path class="cls-4" d="M118.67,98.16a28.59,28.59,0,0,1-4.15-3l-.41.35a22,22,0,0,0,3.61,2.88,26.78,26.78,0,0,0,2.36,1.38c.17-.22.33-.44.48-.67A19,19,0,0,1,118.67,98.16Z"/><path class="cls-4" d="M116.19,93.61l-.42.43a17.36,17.36,0,0,0,5.86,3.33c.12-.22.23-.44.34-.66A18.46,18.46,0,0,1,116.19,93.61Z"/><path class="cls-4" d="M117.94,91.32c-.1.18-.21.35-.32.53a38.35,38.35,0,0,0,4.09,1.83c.4.16.8.31,1.21.45.08-.3.15-.59.21-.88q-.78-.27-1.59-.6C120.34,92.15,119.12,91.79,117.94,91.32Z"/><path class="cls-4" d="M118.45,88.64a4.67,4.67,0,0,1,.08.52,1.71,1.71,0,0,1,0,.32,14.34,14.34,0,0,0,4.7.32,6.66,6.66,0,0,0-.24-.93A17.71,17.71,0,0,1,118.45,88.64Z"/><path class="cls-4" d="M117.68,86.76c.09.15.17.3.25.45a9.33,9.33,0,0,0,3.48-.86q-.28-.31-.57-.6A14.55,14.55,0,0,1,117.68,86.76Z"/><path class="cls-4" d="M118.74,84.07c-.28-.18-.56-.35-.83-.5a10.89,10.89,0,0,1-1.86,1.23c.18.17.35.35.52.53A8.26,8.26,0,0,0,118.74,84.07Z"/><path class="cls-12" d="M122.24,87.36c-2.69-3.69-6.82-5.11-7.95-4.91,3.77,2.51,7.72,5.53,7,10.47-.44,3.69-2.47,7.19-4.79,10.43C122,99.43,125.16,91.39,122.24,87.36Z"/><path class="cls-8" d="M51.19,98.34s-6.94-6.49-6-10,5.91-5,5.59-5.71-5.27-.25-8.93,3.29-1.73,12.31,3.14,17C45,102.94,48.67,102.79,51.19,98.34Z"/><path class="cls-4" d="M49.51,96.63l.35.37a18.18,18.18,0,0,1-6.6,3.94c-.21-.29-.41-.6-.61-.9A18.21,18.21,0,0,0,49.51,96.63Z"/><path class="cls-4" d="M43.49,97.16A30.85,30.85,0,0,0,48.09,95c.11.14.22.28.34.41a21.2,21.2,0,0,1-4.06,2.21,26.59,26.59,0,0,1-2.56,1q-.2-.37-.36-.75A18.53,18.53,0,0,0,43.49,97.16Z"/><path class="cls-4" d="M46.71,93.1l.34.5a17.42,17.42,0,0,1-6.34,2.27c-.08-.24-.15-.48-.22-.72A18.16,18.16,0,0,0,46.71,93.1Z"/><path class="cls-4" d="M45.39,90.54a4.12,4.12,0,0,0,.23.58,38.46,38.46,0,0,1-4.35,1.1c-.42.09-.84.16-1.27.23,0-.31,0-.61-.06-.91.55-.08,1.1-.19,1.68-.31C42.88,91,44.15,90.8,45.39,90.54Z"/><path class="cls-4" d="M45.35,87.82c-.06.16-.12.33-.17.5s0,.21-.06.31a14.09,14.09,0,0,1-4.67-.5,6.35,6.35,0,0,1,.39-.88A17.65,17.65,0,0,0,45.35,87.82Z"/><path class="cls-4" d="M46.44,86.1q-.18.2-.33.39a9,9,0,0,1-3.27-1.44c.22-.18.44-.34.66-.49A15,15,0,0,0,46.44,86.1Z"/><path class="cls-4" d="M45.86,83.26c.3-.13.61-.24.9-.35a11.14,11.14,0,0,0,1.61,1.54l-.59.43A8.3,8.3,0,0,1,45.86,83.26Z"/><path class="cls-12" d="M45.18,88.32c.82-3.11,4.76-4.63,5.49-5.42-3.84,1.37-8.81,3.13-8.81,7.31s2.69,8.4,5.45,12a9.35,9.35,0,0,0,3.88-3.88S44.25,91.85,45.18,88.32Z"/><path class="cls-2" d="M24.54,152.89c-7.93-4.4-12.11-10.76-18.12-29.67S-1.1,54.33,17,22.08c0,0-4.62-19.69,5.48-16.87,5.91,1.65,5.64,17.13,5.64,17.13s3.8-3.21,5.09-1.4-6.82,6.86-6.82,6.86S23.06,77,28.23,101.13s7.87,30.53,7.11,39.45C34.82,146.7,32.55,157.33,24.54,152.89Z"/><path class="cls-6" d="M11.46,50.43c-.29-1.24-1-2.12-1-2.93-3,6.24-1.27,14.52-.19,20.72-1.63-4.62-3.49-1.94-3.77,1.29C5.48,73.12,7.65,78.35,9,82.41a11,11,0,0,0-1.77-2.27c-3.35,3.44.31,14,3.29,19.9l-.14-.11c-3.16,8.25,6.51,18.45,9.1,26-1.1-1.31-1.94-1-3.15-1.08.68,6.16,6.3,11.52,9.51,16.68-4.37-1.19-3.91,2.91-2.91,5.44a18.93,18.93,0,0,0,4.51,6.94,7.94,7.94,0,0,1-2.9-1c-7.93-4.4-12.11-10.76-18.12-29.67-5.11-16.1-7-54.68,3.74-85.7a1.37,1.37,0,0,0,0,.19C9.78,41.75,11,46.33,11.46,50.43Z"/><path class="cls-2" d="M16.49,8.3c-.14-2.11-.39-5.41,1.89-6.52a.61.61,0,0,1,.75.9A6.45,6.45,0,0,0,17.75,5a12.75,12.75,0,0,0-.32,3.26c0,.53-.91.58-.94,0Z"/><path class="cls-2" d="M19.34,6.57a24.5,24.5,0,0,0-.07-3A26.21,26.21,0,0,1,18.79.72c0-.66.81-.74,1.2-.38,1.49,1.41.72,4.55.44,6.32a.55.55,0,0,1-1.09-.09Z"/><path class="cls-5" d="M27.21,14.69a19.8,19.8,0,0,0-1-7.75.47.47,0,0,1,.86-.4c1.38,2.49,1.14,5.47.82,8.2a.33.33,0,0,1-.65-.05Z"/><path class="cls-5" d="M26.6,19.28a30.9,30.9,0,0,0,.58-4.18,27.09,27.09,0,0,0-.56-5.23.42.42,0,0,1,.8-.25c1.71,2.74.55,6.91-.24,9.79-.09.33-.65.2-.58-.13Z"/><path class="cls-5" d="M25.55,20.25c1.18-2.62,2.76-4.79,2.66-7.79a.46.46,0,0,1,.86-.16c1,3-1.56,5.75-2.9,8.28-.19.35-.78,0-.62-.33Z"/><path class="cls-5" d="M27.25,22a53.94,53.94,0,0,0,3.11-6,.33.33,0,0,1,.63.14c-.23,2.36-2,4.17-3.12,6.17-.19.35-.8,0-.62-.32Z"/><path class="cls-5" d="M25.5,27.31c2.91-2.38,6.3-4,8-7.58a.58.58,0,0,1,1.08.4c-1.06,4.09-5.52,5.55-8.67,7.68-.34.23-.75-.23-.42-.5Z"/><path class="cls-5" d="M26.66,26.06c2.57-1,4.42-2.39,5.48-5a.43.43,0,0,1,.8.29c-.86,2.91-3.43,4.28-6.14,5.14-.25.08-.37-.33-.14-.42Z"/><path class="cls-5" d="M25.59,25.43c3.2-.55,6.48-.6,8.37-3.64.29-.48.9,0,.79.41-.91,3.8-6,3.49-9,3.77-.35,0-.46-.48-.11-.54Z"/><path class="cls-5" d="M24.62,26.06c1.24-.19,2.48-.22,3.71-.48A15.52,15.52,0,0,0,32.06,24c.49-.27.89.44.51.79a8.65,8.65,0,0,1-8,1.76.25.25,0,0,1,.05-.48Z"/><path class="cls-5" d="M25.33,52.61c.36-5.36.47-10.87,2.4-15.94a.45.45,0,0,1,.85.32,80.8,80.8,0,0,0-2.7,15.67.28.28,0,0,1-.55,0Z"/><path class="cls-5" d="M23.81,59.44c.31-4.21.76-8.61,3.42-12a.53.53,0,0,1,.86.61c-2.09,3.55-2.84,7.47-3.28,11.52a.5.5,0,0,1-1-.09Z"/><path class="cls-5" d="M24.08,66.61A14.19,14.19,0,0,1,26.26,53.7c.5-.63,1.69-.11,1.31.7-1.78,3.83-3.82,7.63-2.83,12,.09.38-.53.59-.66.21Z"/><path class="cls-5" d="M23.9,70.13c.13-3.13.15-6.44,1.57-9.31a.6.6,0,0,1,1.13.42,67,67,0,0,0-1.9,9,.4.4,0,0,1-.8-.07Z"/><path class="cls-5" d="M22.46,72.49a74.23,74.23,0,0,0,3.11-12.2.53.53,0,0,1,1.05.09c-.22,4.34-2,8.34-3.69,12.29a.25.25,0,0,1-.47-.18Z"/><path class="cls-5" d="M22.88,74.59a40.75,40.75,0,0,1,2.27-6.14c.88-2,1.29-4.18,2-6.27a.4.4,0,0,1,.77.07c.41,4.38-3.17,8.52-4.4,12.59-.14.44-.77.18-.66-.25Z"/><path class="cls-5" d="M24.4,82.18a22.4,22.4,0,0,0,2.2-8.1.38.38,0,0,1,.75.07,22.8,22.8,0,0,1-2.48,8.21c-.15.28-.61.12-.47-.18Z"/><path class="cls-5" d="M24.3,91.8c2.73-2.77,2-7.43,2-11a.53.53,0,0,1,1-.05c.43,3.07,1,10.12-2.77,11.52a.28.28,0,0,1-.3-.46Z"/><path class="cls-5" d="M32.37,131.41c2.55-5.51,1.08-11.92.17-17.66a.5.5,0,0,1,1-.18c1.3,5.82,2.29,12.61-.67,18.09-.15.28-.62,0-.49-.25Z"/><path class="cls-5" d="M32.87,131.76c.05-3.51,1.13-6.88,1.81-10.29.12-.56,1-.51.9.07-.51,3.49-2,6.72-2.31,10.25a.2.2,0,0,1-.4,0Z"/><path class="cls-5" d="M33,133.16c.55-4.1,2.31-7.93,2.51-12.09,0-.45.69-.38.69.07.08,4.27-2.05,7.93-2.85,12,0,.22-.38.2-.35,0Z"/><path class="cls-5" d="M28.91,109.66c-.82-3.85-1.3-8.63.6-12.25.27-.5,1.16-.43,1.07.24-.54,4-1.39,7.79-1.08,11.9a.3.3,0,0,1-.59.11Z"/><path class="cls-5" d="M27.85,107.17c.09-4.65-1.27-9.29.18-13.83.18-.56,1.13-.36,1,.23-.85,4.53-.35,9.08-.85,13.63a.18.18,0,0,1-.35,0Z"/><path class="cls-5" d="M27.77,120.86c.28-3.12-.55-6.2-1.18-9.23-.16-.76,1-1,1.19-.22.73,3.21,1.45,6.23.89,9.53a.45.45,0,0,1-.9-.08Z"/><path class="cls-5" d="M24.55,113.38c.23-3.15-.86-6.11-2.17-8.93a.63.63,0,0,1,1.14-.54,14.29,14.29,0,0,1,1.78,9.54.38.38,0,0,1-.75-.07Z"/><path class="cls-5" d="M23.09,97.58c-.84-3.56-2.32-7-2.09-10.75.05-.75,1.29-.83,1.34-.06.28,3.59,1.14,7.08,1.64,10.65a.45.45,0,0,1-.89.16Z"/><path class="cls-5" d="M21.63,83a41.14,41.14,0,0,1-.54-6.65c0-.65,1.1-.71,1.14-.06.13,2.19.05,4.38.19,6.57,0,.5-.71.67-.79.14Z"/><path class="cls-5" d="M21,47.7a20,20,0,0,1,1.7-9.86c.29-.6,1.24-.28,1,.37a23.42,23.42,0,0,0-1.84,9.45c0,.48-.82.51-.85,0Z"/><path class="cls-5" d="M18.43,38.77a17.65,17.65,0,0,1,1.27-5.65A.67.67,0,0,1,21,33.6a43.12,43.12,0,0,0-1.08,5.29.73.73,0,0,1-1.45-.12Z"/><path class="cls-5" d="M23,34c-.19-1.48-.35-3.19.45-4.53a.5.5,0,0,1,.9.2c.09,1.44-.36,2.84-.36,4.29,0,.56-.92.6-1,0Z"/><path class="cls-5" d="M18.89,63.88A23.91,23.91,0,0,1,17.4,54c.06-.86,1.27-.7,1.3.12.13,3.23.1,6.36,1,9.49.15.49-.67.75-.85.27Z"/><path class="cls-5" d="M18,74.47a11.18,11.18,0,0,1-.37-6.86.43.43,0,0,1,.82.07,21.44,21.44,0,0,1,.09,3c0,1.23.23,2.42.27,3.65,0,.43-.65.51-.81.14Z"/><path class="cls-5" d="M19.9,72.57c.07-1.69-.08-4.67,1.66-5.61a.47.47,0,0,1,.67.47,15.69,15.69,0,0,1-.78,2.11,16.43,16.43,0,0,0-.6,3.11.48.48,0,0,1-1-.08Z"/><path class="cls-4" d="M21.09,151.17c-5.53-2.78-9.94-8.16-12.64-13.63-.25-.51.52-1,.84-.54,3.3,5,6.75,10.56,12,13.73.24.15,0,.57-.23.44Z"/><path class="cls-4" d="M15.48,143.18c-4.13-2.46-7.67-6.85-8.44-11.69-.09-.56.8-.9,1-.32,1.53,4.61,3.6,8.81,7.68,11.68.21.15,0,.46-.24.33Z"/><path class="cls-4" d="M14.31,137.57c-5.2-3.89-9.87-9.24-11.3-15.72a.53.53,0,0,1,1-.32c2.54,5.94,5.71,11.3,10.62,15.59.26.23,0,.66-.32.45Z"/><path class="cls-4" d="M9.68,130.9c-4.78-6.64-9-13.63-9.42-22a.7.7,0,0,1,1.38-.25,71.76,71.76,0,0,0,8.62,21.9c.21.34-.35.69-.58.37Z"/><path class="cls-4" d="M4.05,111.91c-1.49-8-5.34-16.84-3.61-25,.17-.82,1.47-1.06,1.59-.08.5,4.17.54,8.37,1.07,12.55s1.25,8.26,1.64,12.42a.35.35,0,0,1-.69.13Z"/><path class="cls-4" d="M2.69,94.53A32.26,32.26,0,0,1,.79,76.7c.12-.67,1.2-.85,1.29-.06.63,5.92-.26,11.8,1.56,17.59.17.55-.73.82-1,.3Z"/><path class="cls-4" d="M3.83,82.07a28.65,28.65,0,0,1-2.48-17.4c.11-.7,1.28-.86,1.34-.06.41,5.8-.33,11.55,2,17.07a.45.45,0,0,1-.82.39Z"/><path class="cls-4" d="M2.66,65.92c0-.08,1.32,2.74,1.31,2.29,0-1.11.16-2.27.22-3.38.14-2.33.24-4.65.52-7,.5-4.27,1.38-8.64,4-12.18.45-.63,1.56-.09,1.23.65A48.63,48.63,0,0,0,6.32,58c-.64,3.77-.86,7.73-2,11.4a.19.19,0,0,1-.35,0C3.49,68.28,3,67.12,2.57,66c0-.06.06-.11.09,0Z"/><path class="cls-4" d="M4.12,64.52c-1-5.68-2.38-11.89.88-17.08a.73.73,0,0,1,1.27.67C3.9,53.52,4.6,58.78,4.62,64.5c0,.28-.45.29-.5,0Z"/><path class="cls-4" d="M4.65,58.69C4.83,53,5.46,47.53,8,42.31a.7.7,0,0,1,1.32.49A94.29,94.29,0,0,0,5.1,58.73a.23.23,0,0,1-.45,0Z"/><path class="cls-4" d="M8.25,44.27C8,38.9,9.64,33.76,11.93,29c.37-.77,1.61-.35,1.27.47-2,4.75-4,9.57-4,14.79,0,.51-.87.55-.9.05Z"/><path class="cls-4" d="M17.15,22c-2-3.52-4-7.35-3.82-11.51,0-1,1.5-1,1.73-.09,1,3.79,2,7.53,3.09,11.28.18.61-.72.81-1,.32Z"/><path class="cls-4" d="M15.9,13.79c-.76-3-2.22-7.46-.07-10.21a.71.71,0,0,1,1.23.65,28.49,28.49,0,0,0-.47,9.44.35.35,0,0,1-.69.12Z"/><path class="cls-4" d="M17.5,7.8c0-2-.18-5.22,2.19-5.89.5-.14.73.47.53.82a13.9,13.9,0,0,0-1.37,2.4,17,17,0,0,0-.51,2.74.42.42,0,0,1-.84-.07Z"/><path class="cls-4" d="M21,6.62a21.44,21.44,0,0,1-.52-2.81A13.62,13.62,0,0,1,19.76.57c0-.72.93-.72,1.24-.22a7.29,7.29,0,0,1,.78,3.23,5.49,5.49,0,0,1-.27,3.09.27.27,0,0,1-.47,0Z"/><path class="cls-4" d="M19.25,8.78A13.11,13.11,0,0,1,18.77,3a.5.5,0,0,1,1,0,24.16,24.16,0,0,1,0,5.7c0,.24-.38.33-.47.09Z"/><path class="cls-4" d="M11.43,127.88c-1.28-2.43-3-4.63-3.86-7.25-.11-.33.36-.58.5-.24,1,2.55,2.51,4.86,3.68,7.34.1.2-.21.35-.32.15Z"/><path class="cls-4" d="M11.36,120a11.14,11.14,0,0,1-4-5.9c-.17-.65.81-.93,1.08-.35a20,20,0,0,0,3.49,5.63c.34.35-.2.93-.57.62Z"/><path class="cls-4" d="M8.45,109.89c-.77-.31-1.18-1.55-1.55-2.24a8.38,8.38,0,0,1-1.11-3.46.45.45,0,0,1,.89-.16,20.15,20.15,0,0,0,1.1,3.2c.32.7,1.15,1.66,1,2.44a.26.26,0,0,1-.34.22Z"/><path class="cls-4" d="M7.48,104a16.28,16.28,0,0,1-1-5.43.46.46,0,0,1,.9,0,27.69,27.69,0,0,0,.93,5.19c.15.49-.68.76-.85.28Z"/><path class="cls-4" d="M9.79,113.55a21.87,21.87,0,0,1-.63-6.39.53.53,0,0,1,1.05.09,51.33,51.33,0,0,0,.12,6.2.27.27,0,0,1-.54.1Z"/><path class="cls-4" d="M6.19,92.26c-.87-2.43-1.92-5-1.8-7.58,0-.63.9-.6,1-.05.64,2.42,1,4.92,1.61,7.36.12.49-.68.75-.85.27Z"/><path class="cls-4" d="M7.71,86.73a20.46,20.46,0,0,1-.5-5.06.53.53,0,0,1,1,0c.25,1.64.24,3.29.5,4.92a.53.53,0,0,1-1,.19Z"/><path class="cls-4" d="M15.25,130.93c-1.29-1.65-3-3.64-3.35-5.78-.05-.37.45-.67.7-.33a17.8,17.8,0,0,1,1.49,2.75c.52,1,1.13,2,1.74,3,.22.34-.34.69-.58.38Z"/><path class="cls-4" d="M17.28,138.47c-1.48-.71-3.48-2.11-3.75-3.86-.06-.4.43-.8.78-.5A10.46,10.46,0,0,1,15.75,136a7.4,7.4,0,0,0,1.92,1.74c.41.26,0,1-.39.75Z"/><path class="cls-4" d="M20.32,146.35a13.88,13.88,0,0,1-5.4-4.68c-.35-.5.34-1.1.73-.61a17.07,17.07,0,0,0,5,4.63c.37.21,0,.84-.35.66Z"/><path class="cls-4" d="M20.76,140.39c-1.29-1.61-3.6-3.78-3.38-6a.37.37,0,0,1,.71-.13c.43.95.7,2,1.19,2.89s1.23,2,1.87,3c.17.26-.18.59-.39.32Z"/><path class="cls-4" d="M18.9,141.76a13.14,13.14,0,0,1-.6-4.08c0-.37.58-.39.64,0,.21,1.33.23,2.68.55,4,.1.38-.47.47-.59.11Z"/><path class="cls-4" d="M15,132.83a9.19,9.19,0,0,1-.08-5.54.43.43,0,0,1,.8.29,13.67,13.67,0,0,0-.08,5.14.32.32,0,0,1-.64.11Z"/><path class="cls-4" d="M24,140.32a11.42,11.42,0,0,1-4.33-5.13c-.12-.35.33-.72.58-.37a25.56,25.56,0,0,0,4.13,5c.32.26,0,.78-.38.53Z"/><path class="cls-4" d="M25.13,148.8A12.47,12.47,0,0,1,20.3,143a.47.47,0,0,1,.86-.4,16.86,16.86,0,0,0,4.38,5.66.35.35,0,0,1-.41.57Z"/><path class="cls-4" d="M28,146.89c-1.91-1.94-3.86-4.19-4.21-7a.43.43,0,0,1,.84-.15,17.3,17.3,0,0,0,3.87,6.72c.28.32-.21.72-.5.42Z"/><path class="cls-4" d="M20.66,132.79c-1.37-1.65-3.21-3.88-2.23-6.14.17-.4.87-.42.92.08a13,13,0,0,0,1.9,5.69c.2.35-.34.67-.59.37Z"/><path class="cls-4" d="M16.68,129.64a13,13,0,0,0-.26-2.48c-.05-.38.53-.61.66-.21a7.09,7.09,0,0,1,.25,2.75.33.33,0,0,1-.65-.06Z"/></g></g></g></svg>