<svg xmlns="http://www.w3.org/2000/svg" xmlns:xlink="http://www.w3.org/1999/xlink" viewBox="0 0 446.99 396.39"><defs><style>.cls-1,.cls-3{fill:#c6ff00;}.cls-1,.cls-10,.cls-16,.cls-2,.cls-5,.cls-6{stroke:#263238;stroke-linecap:round;stroke-linejoin:round;}.cls-11,.cls-2{fill:#b2b2b2;}.cls-10,.cls-4{fill:#fff;}.cls-4{opacity:0.7;}.cls-16,.cls-5,.cls-7{fill:none;}.cls-15,.cls-6{fill:#263238;}.cls-7{stroke:#616161;stroke-miterlimit:10;}.cls-8{clip-path:url(#clip-path);}.cls-13,.cls-9{opacity:0.2;}.cls-12{clip-path:url(#clip-path-2);}.cls-14{clip-path:url(#clip-path-3);}.cls-16{stroke-width:2px;}.cls-17{clip-path:url(#clip-path-4);}.cls-18{clip-path:url(#clip-path-5);}</style><clipPath id="clip-path"><path class="cls-1" d="M278.46,395.89s1.8-24.56-9-49.11-13.22-26.34-13.22-33.52,7.23-15.59,8.43-31.76.6-23.95.6-23.95S291,298.27,309,300.67s28.74-14.38,22.16-37.13-35.34-41.33-46.72-56.3-37.13-15-50.3-15-19.77-4.79-22.16-13.78-2.4-26.94-2.4-26.94-15.57,9.58-41.92-1.2c0,0,2.4,32.94-.6,37.73s-7.18,9.58-25.15,9.58-32.94,3.59-41.32,12-43.12,41.92-52.11,55.09-4.19,27.55,6.59,32.94,21.56.6,29.35-6.59,32.34-29.94,32.34-29.94,0,13.77,6.58,33.54,12,17.37,7.19,31.74S116.17,345,113.17,363.55a176.87,176.87,0,0,0-2.39,32.34"/></clipPath><clipPath id="clip-path-2"><path class="cls-2" d="M183.84,237.78c29.88,5.77,41.4-22.87,45.42-45.77-9.95-1.09-15.19-5.72-17.27-13.52-2.4-9-2.4-26.94-2.4-26.94s-15.57,9.58-41.92-1.2c0,0,2.4,32.94-.6,37.73-2.08,3.34-4.76,6.67-12.26,8.39C154.53,206.7,156.6,232.53,183.84,237.78Z"/></clipPath><clipPath id="clip-path-3"><path class="cls-2" d="M151.63,118.89s1,26.79,20.73,39.93,34.37,5.56,42.46-5.56S228,131,228,114.84s2-23.25-3.54-33.36-24.76-15.17-24.76-15.17a303.44,303.44,0,0,1-25.78,28.31C158.71,109.28,151.63,118.89,151.63,118.89Z"/></clipPath><clipPath id="clip-path-4"><path class="cls-1" d="M48.49,264.73s-10.78,12-10.78,24.56,7.19,23.95,26.95,41.92,38.33,31.14,46.12,35.33,15.57-1.19,15.57-1.19,12.87,12.87,14.37,9.88-4.49-7.49-5.69-9.29a25.64,25.64,0,0,0-3.59-3.89s6.29.9,8.68,3,6.29,5.69,8.09,5.39,1.79-1.8-.9-5.39a31.86,31.86,0,0,0-7.79-7.19c-1.79-1.2-7.78-4.49-7.78-4.49s8.68-.6,11.68,1.2,11.08,7.18,11.68,4.79.59-3.9-2.4-6.59-9-6-12.58-6.59a38,38,0,0,1-7.18-2.09s6.88-2.4,9.28-2.4,12,4.79,14.67,4.19,1.2-3-.9-4.49-11.38-5.09-15.27-5.39-25.75,7.19-28.44,7.19-9.59-9.59-16.77-22.46-9.89-32.94-25.16-39.83"/></clipPath><clipPath id="clip-path-5"><path class="cls-1" d="M286,276c-2.5-5.71-.35-18.21,2.15-36.06s5-36.06,5-45.7,1.6-23-1.54-27.31-14.57-16-15.42-21.43S283,131.77,283,131.77s2.29-4.28,4.29-2,1.14,5.14,0,9.14-2.29,7.14-2.29,7.14,10,3.15,12.57,1.43,2.34-11.49,2.15-16.27c-.36-9.34-4.1-5.36-6.7-.93-1.24,2.12-8.57.85-4.28-4.57S297,115.49,301,119.78s6.85,12.56,6.85,12.56,2.86-13.6,5.46-21.61,7.26-11.16,8.94-10.61,1.48,3.36-.19,7.26-5.4,14.71-6.33,18.24-1.12,7.64.75,7.26,8.37-11.72,10.23-16.56S331.4,107,334.56,105s5.77.56,4.47,3.91a173.39,173.39,0,0,1-8.75,17.69,76.4,76.4,0,0,0-5.21,11.54,129,129,0,0,1,9.68-9.31c4.46-3.72,9.3-4.47,10.79-3.17s.19,1.49-3.53,4.47-9.31,6.52-13.78,13.78a67.34,67.34,0,0,0-8,17.12,58.46,58.46,0,0,1-5.4,11.35s3.49,28.35,9.54,43.94,16.75,38.39,13.49,54.68-9.54,24.66-18.38,27.22a17.09,17.09,0,0,1-15.12-2.79"/></clipPath></defs><g id="Camada_2" data-name="Camada 2"><g id="Background_Simple" data-name="Background Simple"><path class="cls-3" d="M423.23,67.93S394.18,9.77,330,1.15,221.06,34.54,173.84,56.08c-24.72,11.29-53,6.9-79.21,12.36C10.7,85.91-20.92,195.3,14,257.51c30.26,53.86,83.53,81.87,164.64,88.33s138,14,210.65-38.78S457.13,144.41,423.23,67.93Z"/><path class="cls-4" d="M423.23,67.93S394.18,9.77,330,1.15,221.06,34.54,173.84,56.08c-24.72,11.29-53,6.9-79.21,12.36C10.7,85.91-20.92,195.3,14,257.51c30.26,53.86,83.53,81.87,164.64,88.33s138,14,210.65-38.78S457.13,144.41,423.23,67.93Z"/></g><g id="Plants"><path class="cls-3" d="M410,324.28c3.46-19.89,36.33-57.94,26.81-81.29S404,294,395.32,294.88s-.86-33.73,11.24-66.6,21.63-67.45,0-80.42-20.75,89.94-25.94,86.48,3.46-46.7-2.6-73.51-19.89-5.19-19.89,25.94,9.52,48.43,2.6,51-28.15-7.1-27.68,26.81,26.81,74.37,17.3,69.18-26.81-25.08-23.35,6.92c2.45,22.63,20,44.37,30.1,55.18h46.24c7.05-7.25,20.75-22.53,30-40.48C446.35,330.33,406.56,344.17,410,324.28Z"/><path class="cls-5" d="M353.81,393.9c-8.56-12.27-12.56-27.27-16.56-41.27-2-9-2-19,5-25,7-5,11,4,15,8,3-2,1-5,1-7a386.63,386.63,0,0,1-3-48c0-10,4-18,8-27,2-3,4-6,7-7s6,0,7,3c2,7,2,14,3,21,2-2,1-5,1-7,4-29,1-57,10-85,1-2,4-4,6-3,7,1,7,10,7,16,4,29-5,57-8,86,0,2-1,4,1,6,1-7,5-14,7-21,1-3,3-7,6-9,2-1,4,0,6,2,4,6,5,12,4,19-3,17-9,31-16,46l-3,9c-1,6-5,13-1,18,7-1,9-9,15-13s8,1,9,5c4,20-3,38-13.08,54.22"/><path class="cls-5" d="M381.82,390.07s-2.34-46.72,3.5-89.36"/><polyline class="cls-5" points="362.55 360.29 381.82 381.31 398.76 366.71"/><polyline class="cls-5" points="376.56 307.72 381.82 334.59 397 307.72"/><line class="cls-5" x1="385.91" y1="293.71" x2="389.41" y2="268.59"/></g><g id="Window"><rect class="cls-5" x="46.12" y="88.94" width="62.98" height="78.73"/><rect class="cls-5" x="124.84" y="88.94" width="62.98" height="78.73"/><rect class="cls-5" x="46.12" y="180.55" width="62.98" height="78.73"/><rect class="cls-5" x="124.84" y="180.55" width="62.98" height="78.73"/><rect class="cls-5" x="46.12" y="272.16" width="62.98" height="78.73"/><rect class="cls-5" x="124.84" y="272.16" width="62.98" height="78.73"/><path class="cls-5" d="M117.69,7.34h0A70.14,70.14,0,0,0,47.55,77.48H187.83A70.15,70.15,0,0,0,117.69,7.34Z"/></g><g id="Character"><path class="cls-6" d="M208.4,44.94s0-15-25.76-12-36.53,25.75-44.31,30.54-22.16,9-22.76,16.17,6,10.18-.6,15.57S98.2,105.43,100.6,112.62s9,14.37,6,19.16-11.38,9.58-3.6,15,11.38,6.59,11.38,13.78-3,12,4.19,14.37,11.38-2.39,15.57,6.59,8.39,11.38,15.58,9.58,17.36-4.79,21-2.39,15,9,19.76,5.39,9-9,16.17-6,13.17,7.18,16.17,1.79,0-6.58,11.38-9,15.57-1.8,15.57-11.38-.6-12,4.79-16.17,10.18-2.39,8.38-12.57S257.5,128.19,259.3,118s-3-13.78-6.59-16.77-7.78-8.38-6.59-13.77,10.19-6,1.2-15.58-13.17-6.58-15-13.77S224.57,35.36,208.4,44.94Z"/><path class="cls-7" d="M185.4,63c-3.68,5.84-6.53,12.43-12.47,18-8.58,8-30.56,15-31.63,22.51s2.68,11.8-4.83,18.23-19.3,8-19.3,14.48,3.22,8.57,1.61,13.4"/><path class="cls-7" d="M201.34,55.78s-2.68-7-10.18,0c-.58.54-1.13,1.1-1.65,1.67"/><path class="cls-7" d="M140.78,86.42c-6.6,1.6-11.8,2.75-12.35,7.42-1.07,9.12.54,15-5.89,17.69s-15,7-12.33,12.33,3.21,7,2.68,9.12"/><path class="cls-7" d="M200.27,47.2s-15-9.65-23.05-1.07-4.29,19.3-16.62,31.09a31.34,31.34,0,0,1-10.86,6.6"/><path class="cls-7" d="M252.42,123.22a9.85,9.85,0,0,0,3.61,3.33"/><path class="cls-7" d="M211,60.6s13.41-4.28,16.62,3.22,4.83,20.91,10.73,23.05,8.57,5.36,8.57,17.16a37.83,37.83,0,0,0,1.68,11.21"/><path class="cls-7" d="M124.14,156c4.29-7,10.19-4.29,10.73-11.79s-3.76-9.65.53-14.48,11.26-7,11.26-7"/><path class="cls-7" d="M130,171a25.17,25.17,0,0,1-5.1-5.72"/><path class="cls-3" d="M278.46,395.89s1.8-24.56-9-49.11-13.22-26.34-13.22-33.52,7.23-15.59,8.43-31.76.6-23.95.6-23.95S291,298.27,309,300.67s28.74-14.38,22.16-37.13-35.34-41.33-46.72-56.3-37.13-15-50.3-15-19.77-4.79-22.16-13.78-2.4-26.94-2.4-26.94-15.57,9.58-41.92-1.2c0,0,2.4,32.94-.6,37.73s-7.18,9.58-25.15,9.58-32.94,3.59-41.32,12-43.12,41.92-52.11,55.09-4.19,27.55,6.59,32.94,21.56.6,29.35-6.59,32.34-29.94,32.34-29.94,0,13.77,6.58,33.54,12,17.37,7.19,31.74S116.17,345,113.17,363.55a176.87,176.87,0,0,0-2.39,32.34"/><g class="cls-8"><g class="cls-9"><path d="M239.17,211c-.41,0-1.91,1,0,3.91C241.08,212,239.58,211,239.17,211Z"/><path d="M287.17,211c-.41,0-1.91,1,0,3.91C289.08,212,287.58,211,287.17,211Z"/><path d="M287.17,235c-.41,0-1.91,1,0,3.91C289.08,236,287.58,235,287.17,235Z"/><path d="M239.17,235c-.41,0-1.91,1,0,3.91C241.08,236,239.58,235,239.17,235Z"/><path d="M263.17,223c-.41,0-1.91,1,0,3.91C265.08,224,263.58,223,263.17,223Z"/><path d="M263.17,199c-.41,0-1.91,1,0,3.91C265.08,200,263.58,199,263.17,199Z"/><path d="M240.21,215.48c3.45.2,3.58-1.61,3.37-2S241.74,212.38,240.21,215.48Z"/><path d="M291.18,214.79c-.46-.45-.9-.91-1.33-1.36a4.7,4.7,0,0,0-1.64,2A3.88,3.88,0,0,0,291.18,214.79Z"/><path d="M264.21,227.48c3.45.2,3.58-1.61,3.37-2S265.74,224.38,264.21,227.48Z"/><path d="M264.21,203.48c3.45.2,3.58-1.61,3.37-2S265.74,200.38,264.21,203.48Z"/><path d="M282.75,213.51c-.21.36-.08,2.17,3.38,2C284.6,212.38,283,213.16,282.75,213.51Z"/><path d="M282.75,237.51a1.24,1.24,0,0,0,.52,1.38h0a4.14,4.14,0,0,0,2.86.59,5.39,5.39,0,0,0-.32-.59C284.38,236.49,283,237.18,282.75,237.51Z"/><path d="M258.75,225.51c-.21.36-.08,2.17,3.38,2C260.6,224.38,259,225.16,258.75,225.51Z"/><path d="M258.75,201.51c-.21.36-.08,2.17,3.38,2C260.6,200.38,259,201.16,258.75,201.51Z"/><path d="M239.17,283c-.41,0-1.91,1,0,3.91C241.08,284,239.58,283,239.17,283Z"/><path d="M287.17,283c-.3,0-1.16.54-.9,1.92.43.46.85.91,1.28,1.35C288.85,283.85,287.55,283,287.17,283Z"/><path d="M239.17,307c-.41,0-1.91,1,0,3.91C241.08,308,239.58,307,239.17,307Z"/><path d="M311.17,295c-.41,0-1.91,1,0,3.91C313.08,296,311.58,295,311.17,295Z"/><path d="M239.17,259c-.41,0-1.91,1,0,3.91C241.08,260,239.58,259,239.17,259Z"/><path d="M287.17,259c-.41,0-1.91,1,0,3.91C289.08,260,287.58,259,287.17,259Z"/><path d="M263.17,271c-.41,0-1.91,1,0,3.91C265.08,272,263.58,271,263.17,271Z"/><path d="M311.17,271c-.41,0-1.91,1,0,3.91C313.08,272,311.58,271,311.17,271Z"/><path d="M263.17,247c-.41,0-1.91,1,0,3.91C265.08,248,263.58,247,263.17,247Z"/><path d="M311.17,247c-.41,0-1.91,1,0,3.91C313.08,248,311.58,247,311.17,247Z"/><path d="M240.21,287.48c3.45.2,3.58-1.61,3.37-2S241.74,284.38,240.21,287.48Z"/><path d="M288.4,287.13l.36.37c2.91,0,3-1.65,2.82-2S289.87,284.45,288.4,287.13Z"/><path d="M242.83,309.16a1.75,1.75,0,0,0-1.2.42,3.11,3.11,0,0,0-.56.54,5.7,5.7,0,0,0-.54.77s0,0,0,.06-.19.34-.28.53a4.15,4.15,0,0,0,2.86-.59h0l.2-.18a1.61,1.61,0,0,0,.25-.37,1,1,0,0,0,.06-.83A1,1,0,0,0,242.83,309.16Z"/><path d="M312.21,299.48c3.45.2,3.58-1.61,3.37-2S313.73,296.38,312.21,299.48Z"/><path d="M240.21,263.48c3.45.2,3.58-1.61,3.37-2S241.74,260.38,240.21,263.48Z"/><path d="M291.58,261.51c-.2-.35-1.84-1.13-3.37,2C291.66,263.68,291.79,261.87,291.58,261.51Z"/><path d="M264.21,275.48a6.3,6.3,0,0,0,.87,0c0-.5.05-1,.07-1.45A6.06,6.06,0,0,0,264.21,275.48Z"/><path d="M312.21,275.48c3.45.2,3.58-1.61,3.37-2S313.73,272.38,312.21,275.48Z"/><path d="M264.21,251.48c3.45.2,3.58-1.61,3.37-2S265.74,248.38,264.21,251.48Z"/><path d="M312.21,251.48c3.45.2,3.58-1.61,3.37-2S313.73,248.38,312.21,251.48Z"/><path d="M260.54,299.41l.54-1.49c-1.15-1.2-2.17-.68-2.33-.41S258.64,299.06,260.54,299.41Z"/><path d="M330.75,285.51a1.29,1.29,0,0,0,.67,1.49c.21-.58.39-1.18.56-1.79A1.17,1.17,0,0,0,330.75,285.51Z"/><path d="M306.75,297.51c-.21.36-.08,2.17,3.38,2C308.6,296.38,307,297.16,306.75,297.51Z"/><path d="M282.75,261.51c-.21.36-.08,2.17,3.38,2C284.6,260.38,283,261.16,282.75,261.51Z"/><path d="M258.75,273.51c-.21.36-.08,2.17,3.38,2C260.6,272.38,259,273.16,258.75,273.51Z"/><path d="M306.75,273.51c-.21.36-.08,2.17,3.38,2C308.6,272.38,307,273.16,306.75,273.51Z"/><path d="M258.75,249.51c-.21.36-.08,2.17,3.38,2C260.6,248.38,259,249.16,258.75,249.51Z"/><path d="M306.75,249.51c-.21.36-.08,2.17,3.38,2C308.6,248.38,307,249.16,306.75,249.51Z"/><path d="M291.07,238.89h0a1.23,1.23,0,0,0,.51-1.38c-.19-.33-1.62-1-3.05,1.38h0a5.39,5.39,0,0,0-.32.59A4.15,4.15,0,0,0,291.07,238.89Z"/><path d="M243.07,238.89h0a1.23,1.23,0,0,0,.51-1.38c-.19-.33-1.62-1-3.05,1.38h0a5.39,5.39,0,0,0-.32.59A4.15,4.15,0,0,0,243.07,238.89Z"/><path d="M239.17,355c-.41,0-1.91,1,0,3.91C241.08,356,239.58,355,239.17,355Z"/><path d="M239.17,379c-.41,0-1.91,1,0,3.91C241.08,380,239.58,379,239.17,379Z"/><path d="M263.17,367c-.41,0-1.91,1,0,3.91C265.08,368,263.58,367,263.17,367Z"/><path d="M239.17,331c-.41,0-1.91,1,0,3.91C241.08,332,239.58,331,239.17,331Z"/><path d="M263.17,343c-.41,0-1.91,1,0,3.91C265.08,344,263.58,343,263.17,343Z"/><path d="M240.21,359.48c3.45.2,3.58-1.61,3.37-2S241.74,356.38,240.21,359.48Z"/><path d="M242.83,381.16h-.21a1.78,1.78,0,0,0-.73.24,2,2,0,0,0-.26.18,4.21,4.21,0,0,0-1.1,1.31h0a5.39,5.39,0,0,0-.32.59,4.15,4.15,0,0,0,2.86-.59h0a1.23,1.23,0,0,0,.51-1.38A1,1,0,0,0,242.83,381.16Z"/><path d="M264.21,371.48c3.45.2,3.58-1.61,3.37-2S265.74,368.38,264.21,371.48Z"/><path d="M240.21,335.48c3.45.2,3.58-1.61,3.37-2S241.74,332.38,240.21,335.48Z"/><path d="M264.21,347.48c3.45.2,3.58-1.61,3.37-2S265.74,344.38,264.21,347.48Z"/><path d="M258.75,369.51c-.21.36-.08,2.17,3.38,2C260.6,368.38,259,369.16,258.75,369.51Z"/><path d="M258.75,345.51c-.21.36-.08,2.17,3.38,2C260.6,344.38,259,345.16,258.75,345.51Z"/><path d="M263.17,391c-.41,0-1.91,1,0,3.91C265.08,392,263.58,391,263.17,391Z"/><path d="M264.21,395.48c3.45.2,3.58-1.61,3.37-2S265.74,392.38,264.21,395.48Z"/><path d="M258.75,393.51c-.21.36-.08,2.17,3.38,2C260.6,392.38,259,393.16,258.75,393.51Z"/><path d="M191.17,163c-.41,0-1.91,1,0,3.91C193.08,164,191.58,163,191.17,163Z"/><path d="M167.74,151.3c0,.55.08,1.3.14,2.24A2.1,2.1,0,0,0,167.74,151.3Z"/><path d="M194.83,165.16a1.75,1.75,0,0,0-1.2.42,3.11,3.11,0,0,0-.56.54,5.7,5.7,0,0,0-.54.77s0,0,0,.06-.19.34-.28.53a4.15,4.15,0,0,0,2.86-.59h0l.2-.18a1.61,1.61,0,0,0,.25-.37,1,1,0,0,0,.06-.83A1,1,0,0,0,194.83,165.16Z"/><path d="M168.21,155.48c3.45.2,3.58-1.61,3.37-2S169.74,152.38,168.21,155.48Z"/><path d="M144.09,212.09a1.48,1.48,0,0,0-.13-.45h0a1.74,1.74,0,0,0-.11-.18h0a1.05,1.05,0,0,0-.24-.27h0a1.14,1.14,0,0,0-.24-.15h0a.5.5,0,0,0-.19,0,.45.45,0,0,0-.2.05c-.46.2-1.21,1-.37,2.86a7.1,7.1,0,0,0,.57,1,7,7,0,0,0,.56-1,3.53,3.53,0,0,0,.39-1.51,2.46,2.46,0,0,0,0-.28Z"/><path d="M191.17,211c-.41,0-1.91,1,0,3.91C193.08,212,191.58,211,191.17,211Z"/><path d="M191.17,235c-.41,0-1.91,1,0,3.91C193.08,236,191.58,235,191.17,235Z"/><path d="M144.09,236.09a1.48,1.48,0,0,0-.13-.45h0a1.74,1.74,0,0,0-.11-.18h0a1.05,1.05,0,0,0-.24-.27h0a1.14,1.14,0,0,0-.24-.15h0a.5.5,0,0,0-.19,0,.45.45,0,0,0-.2.05c-.46.2-1.21,1-.37,2.86a7.1,7.1,0,0,0,.57,1,7,7,0,0,0,.56-1,3.53,3.53,0,0,0,.39-1.51,2.46,2.46,0,0,0,0-.28Z"/><path d="M167.17,223c-.41,0-1.91,1,0,3.91C169.08,224,167.58,223,167.17,223Z"/><path d="M215.17,223c-.41,0-1.91,1,0,3.91C217.08,224,215.58,223,215.17,223Z"/><path d="M191.17,187c-.41,0-1.91,1,0,3.91C193.08,188,191.58,187,191.17,187Z"/><path d="M167.17,199c-.41,0-1.91,1,0,3.91C169.08,200,167.58,199,167.17,199Z"/><path d="M215.17,199c-.41,0-1.91,1,0,3.91C217.08,200,215.58,199,215.17,199Z"/><path d="M144.21,215.48c3.45.2,3.58-1.61,3.37-2S145.74,212.38,144.21,215.48Z"/><path d="M192.21,215.48c3.45.2,3.58-1.61,3.37-2S193.74,212.38,192.21,215.48Z"/><path d="M168.21,227.48c3.45.2,3.58-1.61,3.37-2S169.74,224.38,168.21,227.48Z"/><path d="M216.21,227.48c3.45.2,3.58-1.61,3.37-2S217.73,224.38,216.21,227.48Z"/><path d="M192.21,191.48c3.45.2,3.58-1.61,3.37-2S193.74,188.38,192.21,191.48Z"/><path d="M168.21,203.48c3.45.2,3.58-1.61,3.37-2S169.74,200.38,168.21,203.48Z"/><path d="M216.21,203.48c3.45.2,3.58-1.61,3.37-2S217.73,200.38,216.21,203.48Z"/><path d="M171.58,177.51c-.19-.33-1.65-1-3.1,1.46,0,.17,0,.34,0,.52C171.66,179.58,171.79,177.86,171.58,177.51Z"/><path d="M186.75,213.51c-.21.36-.08,2.17,3.38,2C188.6,212.38,187,213.16,186.75,213.51Z"/><path d="M186.75,237.51a1.24,1.24,0,0,0,.52,1.38h0a4.14,4.14,0,0,0,2.86.59,5.39,5.39,0,0,0-.32-.59C188.38,236.49,187,237.18,186.75,237.51Z"/><path d="M162.75,225.51c-.21.36-.08,2.17,3.38,2C164.6,224.38,163,225.16,162.75,225.51Z"/><path d="M234.75,213.51c-.21.36-.08,2.17,3.38,2C236.6,212.38,235,213.16,234.75,213.51Z"/><path d="M237.81,238.89c-1.43-2.4-2.87-1.71-3.06-1.38a1.24,1.24,0,0,0,.52,1.38h0a4.14,4.14,0,0,0,2.86.59c-.11-.22-.21-.41-.32-.59Z"/><path d="M210.75,225.51c-.21.36-.08,2.17,3.38,2C212.6,224.38,211,225.16,210.75,225.51Z"/><path d="M186.75,189.51c-.21.36-.08,2.17,3.38,2C188.6,188.38,187,189.16,186.75,189.51Z"/><path d="M162.75,201.51c-.21.36-.08,2.17,3.38,2C164.6,200.38,163,201.16,162.75,201.51Z"/><path d="M210.75,201.51c-.21.36-.08,2.17,3.38,2C212.6,200.38,211,201.16,210.75,201.51Z"/><path d="M212.25,179.34c-.09-.28-.18-.55-.26-.85s-.22-.87-.32-1.33a1.07,1.07,0,0,0-.92.35C210.59,177.79,210.64,178.92,212.25,179.34Z"/><path d="M189.81,166.89a5.7,5.7,0,0,0-.54-.77,3.48,3.48,0,0,0-.56-.54,1.77,1.77,0,0,0-1.2-.42,1,1,0,0,0-.76.35,1,1,0,0,0,.07.83,1.61,1.61,0,0,0,.25.37,1.8,1.8,0,0,0,.2.18h0a4.14,4.14,0,0,0,2.86.59,5.25,5.25,0,0,0-.29-.53A.33.33,0,0,0,189.81,166.89Z"/><path d="M144.09,284.09a1.48,1.48,0,0,0-.13-.45h0a1.74,1.74,0,0,0-.11-.18h0a1.05,1.05,0,0,0-.24-.27h0a1.14,1.14,0,0,0-.24-.15h0a.5.5,0,0,0-.19,0,.45.45,0,0,0-.2,0c-.46.2-1.21,1-.37,2.86a7.1,7.1,0,0,0,.57,1,7,7,0,0,0,.56-1,3.53,3.53,0,0,0,.39-1.51,2.46,2.46,0,0,0,0-.28Z"/><path d="M191.17,283c-.41,0-1.91,1,0,3.91C193.08,284,191.58,283,191.17,283Z"/><path d="M191.17,307c-.41,0-1.91,1,0,3.91C193.08,308,191.58,307,191.17,307Z"/><path d="M144.09,308.09a1.48,1.48,0,0,0-.13-.45h0a1.74,1.74,0,0,0-.11-.18h0a1.05,1.05,0,0,0-.24-.27h0a1.14,1.14,0,0,0-.24-.15h0a.5.5,0,0,0-.19,0,.45.45,0,0,0-.2,0c-.46.2-1.21,1-.37,2.86a7.1,7.1,0,0,0,.57,1,7,7,0,0,0,.56-1,3.53,3.53,0,0,0,.39-1.51,2.46,2.46,0,0,0,0-.28Z"/><path d="M167.17,295c-.41,0-1.91,1,0,3.91C169.08,296,167.58,295,167.17,295Z"/><path d="M215.17,295c-.41,0-1.91,1,0,3.91C217.08,296,215.58,295,215.17,295Z"/><path d="M144.09,260.09a1.48,1.48,0,0,0-.13-.45h0a1.74,1.74,0,0,0-.11-.18h0a1.05,1.05,0,0,0-.24-.27h0a1.14,1.14,0,0,0-.24-.15h0a.5.5,0,0,0-.19,0,.45.45,0,0,0-.2,0c-.46.2-1.21,1-.37,2.86a7.1,7.1,0,0,0,.57,1,7,7,0,0,0,.56-1,3.53,3.53,0,0,0,.39-1.51,2.46,2.46,0,0,0,0-.28Z"/><path d="M191.17,259c-.41,0-1.91,1,0,3.91C193.08,260,191.58,259,191.17,259Z"/><path d="M167.17,271c-.41,0-1.91,1,0,3.91C169.08,272,167.58,271,167.17,271Z"/><path d="M215.17,271c-.41,0-1.91,1,0,3.91C217.08,272,215.58,271,215.17,271Z"/><path d="M167.17,247c-.41,0-1.91,1,0,3.91C169.08,248,167.58,247,167.17,247Z"/><path d="M215.17,247c-.41,0-1.91,1,0,3.91C217.08,248,215.58,247,215.17,247Z"/><path d="M144.21,287.48c3.45.2,3.58-1.61,3.37-2S145.74,284.38,144.21,287.48Z"/><path d="M192.21,287.48c3.45.2,3.58-1.61,3.37-2S193.74,284.38,192.21,287.48Z"/><path d="M194.83,309.16a1.75,1.75,0,0,0-1.2.42,3.11,3.11,0,0,0-.56.54,5.7,5.7,0,0,0-.54.77s0,0,0,.06-.19.34-.28.53a4.15,4.15,0,0,0,2.86-.59h0l.2-.18a1.61,1.61,0,0,0,.25-.37,1,1,0,0,0,.06-.83A1,1,0,0,0,194.83,309.16Z"/><path d="M146.83,309.16a1.75,1.75,0,0,0-1.2.42,3.11,3.11,0,0,0-.56.54,5.7,5.7,0,0,0-.54.77s0,0,0,.06-.19.34-.28.53a4.15,4.15,0,0,0,2.86-.59h0l.2-.18a1.61,1.61,0,0,0,.25-.37,1,1,0,0,0,.06-.83A1,1,0,0,0,146.83,309.16Z"/><path d="M168.21,299.48c3.45.2,3.58-1.61,3.37-2S169.74,296.38,168.21,299.48Z"/><path d="M216.21,299.48c3.45.2,3.58-1.61,3.37-2S217.73,296.38,216.21,299.48Z"/><path d="M144.21,263.48c3.45.2,3.58-1.61,3.37-2S145.74,260.38,144.21,263.48Z"/><path d="M192.21,263.48c3.45.2,3.58-1.61,3.37-2S193.74,260.38,192.21,263.48Z"/><path d="M168.21,275.48c3.45.2,3.58-1.61,3.37-2S169.74,272.38,168.21,275.48Z"/><path d="M216.21,275.48c3.45.2,3.58-1.61,3.37-2S217.73,272.38,216.21,275.48Z"/><path d="M168.21,251.48c3.45.2,3.58-1.61,3.37-2S169.74,248.38,168.21,251.48Z"/><path d="M216.21,251.48c3.45.2,3.58-1.61,3.37-2S217.73,248.38,216.21,251.48Z"/><path d="M186.75,285.51c-.21.36-.08,2.17,3.38,2C188.6,284.38,187,285.16,186.75,285.51Z"/><path d="M162.75,297.51c-.21.36-.08,2.17,3.38,2C164.6,296.38,163,297.16,162.75,297.51Z"/><path d="M234.75,285.51c-.21.36-.08,2.17,3.38,2C236.6,284.38,235,285.16,234.75,285.51Z"/><path d="M210.75,297.51c-.21.36-.08,2.17,3.38,2C212.6,296.38,211,297.16,210.75,297.51Z"/><path d="M148.83,313.89s26,6.67,58.67-18.67,45.33-15.33,44,2.67-29.33,34.67-41.33,36.67C190.43,337.84,172.83,343.22,148.83,313.89Z"/><path d="M186.75,261.51c-.21.36-.08,2.17,3.38,2C188.6,260.38,187,261.16,186.75,261.51Z"/><path d="M162.75,273.51c-.21.36-.08,2.17,3.38,2C164.6,272.38,163,273.16,162.75,273.51Z"/><path d="M234.75,261.51c-.21.36-.08,2.17,3.38,2C236.6,260.38,235,261.16,234.75,261.51Z"/><path d="M210.75,273.51c-.21.36-.08,2.17,3.38,2C212.6,272.38,211,273.16,210.75,273.51Z"/><path d="M162.75,249.51c-.21.36-.08,2.17,3.38,2C164.6,248.38,163,249.16,162.75,249.51Z"/><path d="M210.75,249.51c-.21.36-.08,2.17,3.38,2C212.6,248.38,211,249.16,210.75,249.51Z"/><path d="M195.07,238.89h0a1.23,1.23,0,0,0,.51-1.38c-.19-.33-1.62-1-3.05,1.38h0a5.39,5.39,0,0,0-.32.59A4.15,4.15,0,0,0,195.07,238.89Z"/><path d="M147.07,238.89h0a1.23,1.23,0,0,0,.51-1.38c-.19-.33-1.62-1-3.05,1.38h0a5.39,5.39,0,0,0-.32.59A4.15,4.15,0,0,0,147.07,238.89Z"/><path d="M144.09,356.09a1.48,1.48,0,0,0-.13-.45h0a1.74,1.74,0,0,0-.11-.18h0a1.05,1.05,0,0,0-.24-.27h0a1.14,1.14,0,0,0-.24-.15h0a.5.5,0,0,0-.19,0,.45.45,0,0,0-.2,0c-.46.2-1.21,1-.37,2.86a7.1,7.1,0,0,0,.57,1,7,7,0,0,0,.56-1,3.53,3.53,0,0,0,.39-1.51,2.46,2.46,0,0,0,0-.28Z"/><path d="M191.17,355c-.41,0-1.91,1,0,3.91C193.08,356,191.58,355,191.17,355Z"/><path d="M191.17,379c-.41,0-1.91,1,0,3.91C193.08,380,191.58,379,191.17,379Z"/><path d="M144.09,380.09a1.48,1.48,0,0,0-.13-.45h0a1.74,1.74,0,0,0-.11-.18h0a1.05,1.05,0,0,0-.24-.27h0a1.14,1.14,0,0,0-.24-.15h0a.5.5,0,0,0-.19,0,.45.45,0,0,0-.2,0c-.46.2-1.21,1-.37,2.86a7.1,7.1,0,0,0,.57,1,7,7,0,0,0,.56-1,3.53,3.53,0,0,0,.39-1.51,2.46,2.46,0,0,0,0-.28Z"/><path d="M167.17,367c-.41,0-1.91,1,0,3.91C169.08,368,167.58,367,167.17,367Z"/><path d="M215.17,367c-.41,0-1.91,1,0,3.91C217.08,368,215.58,367,215.17,367Z"/><path d="M144.09,332.09a1.48,1.48,0,0,0-.13-.45h0a1.74,1.74,0,0,0-.11-.18h0a1.05,1.05,0,0,0-.24-.27h0a1.14,1.14,0,0,0-.24-.15h0a.5.5,0,0,0-.19,0,.45.45,0,0,0-.2,0c-.46.2-1.21,1-.37,2.86a7.1,7.1,0,0,0,.57,1,7,7,0,0,0,.56-1,3.53,3.53,0,0,0,.39-1.51,2.46,2.46,0,0,0,0-.28Z"/><path d="M191.17,331c-.41,0-1.91,1,0,3.91C193.08,332,191.58,331,191.17,331Z"/><path d="M167.17,343c-.41,0-1.91,1,0,3.91C169.08,344,167.58,343,167.17,343Z"/><path d="M215.17,343c-.41,0-1.91,1,0,3.91C217.08,344,215.58,343,215.17,343Z"/><path d="M167.17,319c-.41,0-1.91,1,0,3.91C169.08,320,167.58,319,167.17,319Z"/><path d="M215.17,319c-.41,0-1.91,1,0,3.91C217.08,320,215.58,319,215.17,319Z"/><path d="M144.21,359.48c3.45.2,3.58-1.61,3.37-2S145.74,356.38,144.21,359.48Z"/><path d="M192.21,359.48c3.45.2,3.58-1.61,3.37-2S193.74,356.38,192.21,359.48Z"/><path d="M194.83,381.16h-.21a1.78,1.78,0,0,0-.73.24,2,2,0,0,0-.26.18,4.21,4.21,0,0,0-1.1,1.31h0a5.39,5.39,0,0,0-.32.59,4.15,4.15,0,0,0,2.86-.59h0a1.23,1.23,0,0,0,.51-1.38A1,1,0,0,0,194.83,381.16Z"/><path d="M146.83,381.16h-.21a1.78,1.78,0,0,0-.73.24,2,2,0,0,0-.26.18,4.21,4.21,0,0,0-1.1,1.31h0a5.39,5.39,0,0,0-.32.59,4.15,4.15,0,0,0,2.86-.59h0a1.23,1.23,0,0,0,.51-1.38A1,1,0,0,0,146.83,381.16Z"/><path d="M168.21,371.48c3.45.2,3.58-1.61,3.37-2S169.74,368.38,168.21,371.48Z"/><path d="M216.21,371.48c3.45.2,3.58-1.61,3.37-2S217.73,368.38,216.21,371.48Z"/><path d="M144.21,335.48c3.45.2,3.58-1.61,3.37-2S145.74,332.38,144.21,335.48Z"/><path d="M192.21,335.48c3.45.2,3.58-1.61,3.37-2S193.74,332.38,192.21,335.48Z"/><path d="M168.21,347.48c3.45.2,3.58-1.61,3.37-2S169.74,344.38,168.21,347.48Z"/><path d="M216.21,347.48c3.45.2,3.58-1.61,3.37-2S217.73,344.38,216.21,347.48Z"/><path d="M168.21,323.48c3.45.2,3.58-1.61,3.37-2S169.74,320.38,168.21,323.48Z"/><path d="M216.21,323.48c3.45.2,3.58-1.61,3.37-2S217.73,320.38,216.21,323.48Z"/><path d="M186.75,357.51c-.21.36-.08,2.17,3.38,2C188.6,356.38,187,357.16,186.75,357.51Z"/><path d="M188.71,381.58l-.27-.18a1.75,1.75,0,0,0-.72-.24h-.21a1,1,0,0,0-.76.35,1.24,1.24,0,0,0,.52,1.38h0a4.14,4.14,0,0,0,2.86.59,5.39,5.39,0,0,0-.32-.59A4.35,4.35,0,0,0,188.71,381.58Z"/><path d="M162.75,369.51c-.21.36-.08,2.17,3.38,2C164.6,368.38,163,369.16,162.75,369.51Z"/><path d="M234.75,357.51c-.21.36-.08,2.17,3.38,2C236.6,356.38,235,357.16,234.75,357.51Z"/><path d="M237.81,382.89a4.5,4.5,0,0,0-1.1-1.31l-.27-.18a1.75,1.75,0,0,0-.72-.24h-.21a1,1,0,0,0-.76.35,1.24,1.24,0,0,0,.52,1.38h0a4.14,4.14,0,0,0,2.86.59c-.11-.22-.21-.41-.32-.59Z"/><path d="M210.75,369.51c-.21.36-.08,2.17,3.38,2C212.6,368.38,211,369.16,210.75,369.51Z"/><path d="M186.75,333.51c-.21.36-.08,2.17,3.38,2C188.6,332.38,187,333.16,186.75,333.51Z"/><path d="M162.75,345.51c-.21.36-.08,2.17,3.38,2C164.6,344.38,163,345.16,162.75,345.51Z"/><path d="M234.75,333.51c-.21.36-.08,2.17,3.38,2C236.6,332.38,235,333.16,234.75,333.51Z"/><path d="M210.75,345.51c-.21.36-.08,2.17,3.38,2C212.6,344.38,211,345.16,210.75,345.51Z"/><path d="M162.75,321.51c-.21.36-.08,2.17,3.38,2C164.6,320.38,163,321.16,162.75,321.51Z"/><path d="M210.75,321.51c-.21.36-.08,2.17,3.38,2C212.6,320.38,211,321.16,210.75,321.51Z"/><path d="M189.81,310.89a5.7,5.7,0,0,0-.54-.77,3.48,3.48,0,0,0-.56-.54,1.77,1.77,0,0,0-1.2-.42,1,1,0,0,0-.76.35,1,1,0,0,0,.07.83,1.61,1.61,0,0,0,.25.37,1.8,1.8,0,0,0,.2.18h0a4.14,4.14,0,0,0,2.86.59,5.25,5.25,0,0,0-.29-.53Z"/><path d="M237.81,310.89a5.7,5.7,0,0,0-.54-.77,3.48,3.48,0,0,0-.56-.54,1.77,1.77,0,0,0-1.2-.42,1,1,0,0,0-.76.35,1,1,0,0,0,.07.83,1.61,1.61,0,0,0,.25.37,1.2,1.2,0,0,0,.2.18h0a4.14,4.14,0,0,0,2.86.59,5.25,5.25,0,0,0-.29-.53Z"/><path d="M167.17,391c-.41,0-1.91,1,0,3.91C169.08,392,167.58,391,167.17,391Z"/><path d="M215.17,391c-.41,0-1.91,1,0,3.91C217.08,392,215.58,391,215.17,391Z"/><path d="M168.21,395.48c3.45.2,3.58-1.61,3.37-2S169.74,392.38,168.21,395.48Z"/><path d="M216.21,395.48c3.45.2,3.58-1.61,3.37-2S217.73,392.38,216.21,395.48Z"/><path d="M162.75,393.51c-.21.36-.08,2.17,3.38,2C164.6,392.38,163,393.16,162.75,393.51Z"/><path d="M210.75,393.51c-.21.36-.08,2.17,3.38,2C212.6,392.38,211,393.16,210.75,393.51Z"/><path d="M95.17,235c-.41,0-1.91,1,0,3.91C97.08,236,95.58,235,95.17,235Z"/><path d="M119.17,223c-.41,0-1.91,1,0,3.91C121.08,224,119.58,223,119.17,223Z"/><path d="M120.05,199.9l-1.83.46a4.6,4.6,0,0,0,1,2.53C120.1,201.48,120.22,200.52,120.05,199.9Z"/><path d="M96.21,215.48c3.45.2,3.58-1.61,3.37-2S97.74,212.38,96.21,215.48Z"/><path d="M120.21,227.48c3.45.2,3.58-1.61,3.37-2S121.73,224.38,120.21,227.48Z"/><path d="M120.21,203.48c3.45.2,3.58-1.61,3.37-2S121.73,200.38,120.21,203.48Z"/><path d="M90.75,237.51a1.24,1.24,0,0,0,.52,1.38h0a4.14,4.14,0,0,0,2.86.59,5.39,5.39,0,0,0-.32-.59C92.38,236.49,91,237.18,90.75,237.51Z"/><path d="M138.75,213.51c-.21.36-.08,2.17,3.38,2C140.6,212.38,139,213.16,138.75,213.51Z"/><path d="M141.81,238.89c-1.43-2.4-2.87-1.71-3.06-1.38a1.24,1.24,0,0,0,.52,1.38h0a4.14,4.14,0,0,0,2.86.59c-.11-.22-.21-.41-.32-.59Z"/><path d="M114.75,225.51c-.21.36-.08,2.17,3.38,2C116.6,224.38,115,225.16,114.75,225.51Z"/><path d="M115.48,201.16l-.53.17a.73.73,0,0,0-.2.18c-.21.36-.08,2.17,3.38,2C117.16,201.51,116.14,201.11,115.48,201.16Z"/><path d="M47.17,283c-.41,0-1.91,1,0,3.91C49.08,284,47.58,283,47.17,283Z"/><path d="M71.17,295c-.41,0-1.91,1,0,3.91C73.08,296,71.58,295,71.17,295Z"/><path d="M95.17,259c-.41,0-1.91,1,0,3.91C97.08,260,95.58,259,95.17,259Z"/><path d="M71.17,271c-.41,0-1.91,1,0,3.91C73.08,272,71.58,271,71.17,271Z"/><path d="M119.17,271c-.41,0-1.91,1,0,3.91C121.08,272,119.58,271,119.17,271Z"/><path d="M71.17,247c-.41,0-1.91,1,0,3.91C73.08,248,71.58,247,71.17,247Z"/><path d="M119.17,247c-.41,0-1.91,1,0,3.91C121.08,248,119.58,247,119.17,247Z"/><path d="M48.21,287.48c3.45.2,3.58-1.61,3.37-2S49.74,284.38,48.21,287.48Z"/><path d="M72.8,298.47c.89-.33,1.76-.7,2.62-1.12C75,297.06,73.92,296.88,72.8,298.47Z"/><path d="M51.58,261.51a.82.82,0,0,0-.46-.3c-.63.79-1.21,1.55-1.73,2.25C51.69,263.23,51.77,261.82,51.58,261.51Z"/><path d="M96.21,263.48c3.45.2,3.58-1.61,3.37-2S97.74,260.38,96.21,263.48Z"/><path d="M72.21,275.48c3.45.2,3.58-1.61,3.37-2S73.74,272.38,72.21,275.48Z"/><path d="M120.21,275.48c3.45.2,3.58-1.61,3.37-2S121.73,272.38,120.21,275.48Z"/><path d="M72.21,251.48c3.45.2,3.58-1.61,3.37-2S73.74,248.38,72.21,251.48Z"/><path d="M120.21,251.48c3.45.2,3.58-1.61,3.37-2S121.73,248.38,120.21,251.48Z"/><path d="M66.75,297.51c-.19.33-.09,1.85,2.53,2,.26-.06.51-.11.76-.18C68.54,296.42,67,297.16,66.75,297.51Z"/><path d="M138.75,285.51c-.21.36-.08,2.17,3.38,2C140.6,284.38,139,285.16,138.75,285.51Z"/><path d="M90.75,261.51c-.21.36-.08,2.17,3.38,2C92.6,260.38,91,261.16,90.75,261.51Z"/><path d="M66.75,273.51c-.21.36-.08,2.17,3.38,2C68.6,272.38,67,273.16,66.75,273.51Z"/><path d="M138.75,261.51c-.21.36-.08,2.17,3.38,2C140.6,260.38,139,261.16,138.75,261.51Z"/><path d="M66.75,249.51c-.21.36-.08,2.17,3.38,2C68.6,248.38,67,249.16,66.75,249.51Z"/><path d="M114.75,249.51c-.21.36-.08,2.17,3.38,2C116.6,248.38,115,249.16,114.75,249.51Z"/><path d="M99.07,238.89h0a1.23,1.23,0,0,0,.51-1.38c-.19-.33-1.62-1-3,1.38h0a5.39,5.39,0,0,0-.32.59A4.15,4.15,0,0,0,99.07,238.89Z"/><path d="M119.17,367c-.41,0-1.91,1,0,3.91C121.08,368,119.58,367,119.17,367Z"/><path d="M119.94,345.37l-.84,1.41.07.11A6.78,6.78,0,0,0,119.94,345.37Z"/><path d="M120.21,371.48c3.45.2,3.58-1.61,3.37-2S121.73,368.38,120.21,371.48Z"/><path d="M120.21,347.48c3.45.2,3.58-1.61,3.37-2S121.73,344.38,120.21,347.48Z"/><path d="M138.75,357.51c-.21.36-.08,2.17,3.38,2C140.6,356.38,139,357.16,138.75,357.51Z"/><path d="M141.81,382.89a4.5,4.5,0,0,0-1.1-1.31l-.27-.18a1.75,1.75,0,0,0-.72-.24h-.21a1,1,0,0,0-.76.35,1.24,1.24,0,0,0,.52,1.38h0a4.14,4.14,0,0,0,2.86.59c-.11-.22-.21-.41-.32-.59Z"/><path d="M114.75,369.51c-.21.36-.08,2.17,3.38,2C116.6,368.38,115,369.16,114.75,369.51Z"/><path d="M138.75,333.51c-.21.36-.08,2.17,3.38,2C140.6,332.38,139,333.16,138.75,333.51Z"/><path d="M141.81,310.89a5.7,5.7,0,0,0-.54-.77,3.48,3.48,0,0,0-.56-.54,1.77,1.77,0,0,0-1.2-.42,1,1,0,0,0-.76.35,1,1,0,0,0,.07.83,1.61,1.61,0,0,0,.25.37,1.2,1.2,0,0,0,.2.18h0a4.14,4.14,0,0,0,2.86.59,5.25,5.25,0,0,0-.29-.53Z"/><path d="M119.17,391c-.41,0-1.91,1,0,3.91C121.08,392,119.58,391,119.17,391Z"/><path d="M120.21,395.48c3.45.2,3.58-1.61,3.37-2S121.73,392.38,120.21,395.48Z"/><path d="M114.75,393.51c-.21.36-.08,2.17,3.38,2C116.6,392.38,115,393.16,114.75,393.51Z"/><path d="M44.82,285.67c.2.62.43,1.23.68,1.83.2,0,.41,0,.63,0A5.58,5.58,0,0,0,44.82,285.67Z"/></g></g><path class="cls-5" d="M278.46,395.89s1.8-24.56-9-49.11-13.22-26.34-13.22-33.52,7.23-15.59,8.43-31.76.6-23.95.6-23.95S291,298.27,309,300.67s28.74-14.38,22.16-37.13-35.34-41.33-46.72-56.3-37.13-15-50.3-15-19.77-4.79-22.16-13.78-2.4-26.94-2.4-26.94-15.57,9.58-41.92-1.2c0,0,2.4,32.94-.6,37.73s-7.18,9.58-25.15,9.58-32.94,3.59-41.32,12-43.12,41.92-52.11,55.09-4.19,27.55,6.59,32.94,21.56.6,29.35-6.59,32.34-29.94,32.34-29.94,0,13.77,6.58,33.54,12,17.37,7.19,31.74S116.17,345,113.17,363.55a176.87,176.87,0,0,0-2.39,32.34"/><path class="cls-10" d="M116.77,261.14a75.48,75.48,0,0,1,3.94-19"/><path class="cls-5" d="M265.29,257.55a74,74,0,0,0-5.47-14.38"/><line class="cls-5" x1="177.28" y1="323.93" x2="214.99" y2="311.83"/><path class="cls-5" d="M194.36,314a122.05,122.05,0,0,1,27.39-7.47"/><path class="cls-11" d="M183.84,237.78c29.88,5.77,41.4-22.87,45.42-45.77-9.95-1.09-15.19-5.72-17.27-13.52-2.4-9-2.4-26.94-2.4-26.94s-15.57,9.58-41.92-1.2c0,0,2.4,32.94-.6,37.73-2.08,3.34-4.76,6.67-12.26,8.39C154.53,206.7,156.6,232.53,183.84,237.78Z"/><g class="cls-12"><path class="cls-13" d="M211.34,175.53c-1.75-9.46-1.75-24-1.75-24s-15.57,9.58-41.92-1.2c0,0,1,13.77.9,24.8C191.27,183,204.36,179.68,211.34,175.53Z"/></g><path class="cls-5" d="M183.84,237.78c29.88,5.77,41.4-22.87,45.42-45.77-9.95-1.09-15.19-5.72-17.27-13.52-2.4-9-2.4-26.94-2.4-26.94s-15.57,9.58-41.92-1.2c0,0,2.4,32.94-.6,37.73-2.08,3.34-4.76,6.67-12.26,8.39C154.53,206.7,156.6,232.53,183.84,237.78Z"/><circle class="cls-1" cx="229.02" cy="132.64" r="7.42"/><circle class="cls-1" cx="149.75" cy="132.64" r="7.42"/><path class="cls-2" d="M228.34,107.34s3.71-11.47,8.1-7.42-1.35,19.56-4.39,23.27-6.07,3.71-5.73-1.34S228.34,107.34,228.34,107.34Z"/><path class="cls-11" d="M151.63,118.89s1,26.79,20.73,39.93,34.37,5.56,42.46-5.56S228,131,228,114.84s2-23.25-3.54-33.36-24.76-15.17-24.76-15.17a303.44,303.44,0,0,1-25.78,28.31C158.71,109.28,151.63,118.89,151.63,118.89Z"/><g class="cls-14"><path class="cls-13" d="M199.66,66.31a303.44,303.44,0,0,1-25.78,28.31c-15.17,14.66-22.25,24.27-22.25,24.27a62.07,62.07,0,0,0,3.07,15.33c26.65-20.39,41.2-57,45.07-67.87Z"/></g><path class="cls-5" d="M151.63,118.89s1,26.79,20.73,39.93,34.37,5.56,42.46-5.56S228,131,228,114.84s2-23.25-3.54-33.36-24.76-15.17-24.76-15.17a303.44,303.44,0,0,1-25.78,28.31C158.71,109.28,151.63,118.89,151.63,118.89Z"/><line class="cls-5" x1="170.28" y1="115.73" x2="181.64" y2="116.8"/><path class="cls-5" d="M204.69,115.38s7.45-1.42,11,0"/><path class="cls-15" d="M180.11,110.55c0,2.7-1.21,4.89-2.7,4.89s-2.7-2.19-2.7-4.89,1.21-4.89,2.7-4.89S180.11,107.85,180.11,110.55Z"/><path class="cls-5" d="M186.18,127.58a9.86,9.86,0,0,0,11.81-1"/><path class="cls-5" d="M189.22,139.05s10.45,4.38,16.52-9.78"/><path class="cls-16" d="M202.71,110.72s6.41-4.39,12.81-1.69"/><path class="cls-16" d="M200.68,99.59s7.09-7.09,16.87-1.35"/><path class="cls-16" d="M185.51,95.2s-6.08-6.07-14.51-.34"/><path class="cls-3" d="M48.49,264.73s-10.78,12-10.78,24.56,7.19,23.95,26.95,41.92,38.33,31.14,46.12,35.33,15.57-1.19,15.57-1.19,12.87,12.87,14.37,9.88-4.49-7.49-5.69-9.29a25.64,25.64,0,0,0-3.59-3.89s6.29.9,8.68,3,6.29,5.69,8.09,5.39,1.79-1.8-.9-5.39a31.86,31.86,0,0,0-7.79-7.19c-1.79-1.2-7.78-4.49-7.78-4.49s8.68-.6,11.68,1.2,11.08,7.18,11.68,4.79.59-3.9-2.4-6.59-9-6-12.58-6.59a38,38,0,0,1-7.18-2.09s6.88-2.4,9.28-2.4,12,4.79,14.67,4.19,1.2-3-.9-4.49-11.38-5.09-15.27-5.39-25.75,7.19-28.44,7.19-9.59-9.59-16.77-22.46-9.89-32.94-25.16-39.83"/><g class="cls-17"><g class="cls-9"><path d="M47.17,286.89c1.91-2.89.41-3.91,0-3.91C47.58,283,49.08,284,47.17,286.89Z"/><path d="M47.17,307c.41,0,1.91,1,0,3.91C49.08,308,47.58,307,47.17,307Z"/><path d="M71.17,295c-.41,0-1.91,1,0,3.91C73.08,296,71.58,295,71.17,295Z"/><path d="M51.58,285.51c-.2-.35-1.84-1.13-3.37,2C51.66,287.68,51.79,285.87,51.58,285.51Z"/><path d="M51.27,310.71a1.61,1.61,0,0,0,.25-.37,1,1,0,0,0,.06-.83,1,1,0,0,0-.75-.35,1.75,1.75,0,0,0-1.2.42,3.11,3.11,0,0,0-.56.54,5.7,5.7,0,0,0-.54.77h2.54Z"/><path d="M75.58,297.51c-.2-.35-1.84-1.13-3.37,2C75.66,299.68,75.79,297.87,75.58,297.51Z"/><path d="M70.13,299.48c-1.53-3.1-3.17-2.32-3.38-2S66.67,299.68,70.13,299.48Z"/><path d="M47.17,283v3.91C49.08,284,47.58,283,47.17,283Z"/><path d="M47.17,307v3.91C49.08,308,47.58,307,47.17,307Z"/><path d="M95.17,355a1.09,1.09,0,0,0-.8.67l1.7,1.23C96.32,355.51,95.47,355,95.17,355Z"/><path d="M119.17,367a1.23,1.23,0,0,0-.93,1.11,16.64,16.64,0,0,0,1.8-.24A1.15,1.15,0,0,0,119.17,367Z"/><path d="M95.17,331c-.41,0-1.91,1,0,3.91C97.08,332,95.58,331,95.17,331Z"/><path d="M119.17,346.89c1.91-2.89.41-3.91,0-3.91S117.26,344,119.17,346.89Z"/><path d="M71.17,322.89c1.91-2.89.41-3.91,0-3.91S69.26,320,71.17,322.89Z"/><path d="M99.58,357.51c-.15-.27-1.11-.77-2.23.3L99,359A1.25,1.25,0,0,0,99.58,357.51Z"/><path d="M96.21,335.48c3.45.2,3.58-1.61,3.37-2S97.74,332.38,96.21,335.48Z"/><path d="M120.21,347.48c3.45.2,3.58-1.61,3.37-2S121.73,344.38,120.21,347.48Z"/><path d="M72.21,323.48c3.45.2,3.58-1.61,3.37-2S73.74,320.38,72.21,323.48Z"/><path d="M141.78,359.49c-.87-.67-1.65-1.23-2.26-1.63-.18-.12-.42-.28-.69-.44l-.08.09C138.55,357.86,138.67,359.55,141.78,359.49Z"/><path d="M94.13,335.48c-1.53-3.1-3.17-2.32-3.38-2S90.67,335.68,94.13,335.48Z"/><path d="M114.75,345.51c-.21.36-.08,2.17,3.38,2C116.6,344.38,115,345.16,114.75,345.51Z"/><path d="M66.75,321.51c-.21.36-.08,2.17,3.38,2C68.6,320.38,67,321.16,66.75,321.51Z"/><path d="M51.07,310.89H48.53s0,0,0,.06-.19.34-.28.53A4.15,4.15,0,0,0,51.07,310.89Z"/><path d="M47.17,283c-.41,0-1.91,1,0,3.91Z"/><path d="M47.17,310.89V307C46.76,307,45.26,308,47.17,310.89Z"/><path d="M46.13,287.48c-1.53-3.1-3.17-2.32-3.38-2S42.67,287.68,46.13,287.48Z"/><path d="M45.27,310.12a3.48,3.48,0,0,0-.56-.54l-.07-.05c.3.45.62.9,1,1.36h.22A5.7,5.7,0,0,0,45.27,310.12Z"/><path d="M45.84,311l0-.06h-.22l.44.6h.1A5.25,5.25,0,0,0,45.84,311Z"/></g></g><path class="cls-5" d="M48.49,264.73s-10.78,12-10.78,24.56,7.19,23.95,26.95,41.92,38.33,31.14,46.12,35.33,15.57-1.19,15.57-1.19,12.87,12.87,14.37,9.88-4.49-7.49-5.69-9.29a25.64,25.64,0,0,0-3.59-3.89s6.29.9,8.68,3,6.29,5.69,8.09,5.39,1.79-1.8-.9-5.39a31.86,31.86,0,0,0-7.79-7.19c-1.79-1.2-7.78-4.49-7.78-4.49s8.68-.6,11.68,1.2,11.08,7.18,11.68,4.79.59-3.9-2.4-6.59-9-6-12.58-6.59a38,38,0,0,1-7.18-2.09s6.88-2.4,9.28-2.4,12,4.79,14.67,4.19,1.2-3-.9-4.49-11.38-5.09-15.27-5.39-25.75,7.19-28.44,7.19-9.59-9.59-16.77-22.46-9.89-32.94-25.16-39.83"/><path class="cls-2" d="M156,341.39c-2.09-1.5-11.38-5.09-15.27-5.39s-25.75,7.19-28.44,7.19-9.59-9.59-16.77-22.46c-4-7.15-6.6-16.52-10.75-24.62-22-3-31.43,9.87-35.8,19.12a165.16,165.16,0,0,0,15.7,16c19.77,18,38.33,31.14,46.12,35.33s15.57-1.19,15.57-1.19,12.87,12.87,14.37,9.88-4.49-7.49-5.69-9.29a25.64,25.64,0,0,0-3.59-3.89s6.29.9,8.68,3,6.29,5.69,8.09,5.39,1.79-1.8-.9-5.39a31.86,31.86,0,0,0-7.79-7.19c-1.79-1.2-7.78-4.49-7.78-4.49s8.68-.6,11.68,1.2,11.08,7.18,11.68,4.79.59-3.9-2.4-6.59-9-6-12.58-6.59a38,38,0,0,1-7.18-2.09s6.88-2.4,9.28-2.4,12,4.79,14.67,4.19S158.09,342.89,156,341.39Z"/><path class="cls-3" d="M286,276c-2.5-5.71-.35-18.21,2.15-36.06s5-36.06,5-45.7,1.6-23-1.54-27.31-14.57-16-15.42-21.43S283,131.77,283,131.77s2.29-4.28,4.29-2,1.14,5.14,0,9.14-2.29,7.14-2.29,7.14,10,3.15,12.57,1.43,2.34-11.49,2.15-16.27c-.36-9.34-4.1-5.36-6.7-.93-1.24,2.12-8.57.85-4.28-4.57S297,115.49,301,119.78s6.85,12.56,6.85,12.56,2.86-13.6,5.46-21.61,7.26-11.16,8.94-10.61,1.48,3.36-.19,7.26-5.4,14.71-6.33,18.24-1.12,7.64.75,7.26,8.37-11.72,10.23-16.56S331.4,107,334.56,105s5.77.56,4.47,3.91a173.39,173.39,0,0,1-8.75,17.69,76.4,76.4,0,0,0-5.21,11.54,129,129,0,0,1,9.68-9.31c4.46-3.72,9.3-4.47,10.79-3.17s.19,1.49-3.53,4.47-9.31,6.52-13.78,13.78a67.34,67.34,0,0,0-8,17.12,58.46,58.46,0,0,1-5.4,11.35s3.49,28.35,9.54,43.94,16.75,38.39,13.49,54.68-9.54,24.66-18.38,27.22a17.09,17.09,0,0,1-15.12-2.79"/><g class="cls-18"><g class="cls-9"><path d="M335.17,115a1.09,1.09,0,0,1,.8.68h0A1.09,1.09,0,0,0,335.17,115Z"/><path d="M335.17,115v2.33c.27-.55.54-1.1.8-1.65A1.09,1.09,0,0,0,335.17,115Z"/><path d="M335.17,262.89c1.91-2.89.41-3.91,0-3.91C335.58,259,337.08,260,335.17,262.89Z"/><path d="M338.44,263.23c0-.67-.05-1.34-.1-2-.62.17-1.39.76-2.13,2.27A5.32,5.32,0,0,0,338.44,263.23Z"/><path d="M335.17,259v3.91C337.08,260,335.58,259,335.17,259Z"/><path d="M287.17,139c-.35,0-1.45.72-.67,2.66.25-.81.52-1.7.79-2.64A.3.3,0,0,0,287.17,139Z"/><path d="M311.17,154.89c1.91-2.89.41-3.91,0-3.91S309.26,152,311.17,154.89Z"/><path d="M334.75,118.17l.42-.86V115C334.79,115,333.52,115.83,334.75,118.17Z"/><path d="M311.17,127c-.41,0-1.91,1,0,3.91C313.08,128,311.58,127,311.17,127Z"/><path d="M291.52,166.34a1,1,0,0,0,.06-.83,1,1,0,0,0-.75-.35,1.57,1.57,0,0,0-.55.07c.41.5.78,1,1.08,1.36A1.32,1.32,0,0,0,291.52,166.34Z"/><path d="M315.58,153.51c-.2-.35-1.85-1.13-3.37,2C315.66,155.68,315.79,153.87,315.58,153.51Z"/><path d="M315.1,130.86a10.17,10.17,0,0,1,0-1.64c-.64-.2-1.81,0-2.92,2.26A4.1,4.1,0,0,0,315.1,130.86Z"/><path d="M315.62,105.59c-.27.46-.52.94-.78,1.45A1.39,1.39,0,0,0,315.62,105.59Z"/><path d="M282.75,141.51c-.2.35-.07,2.08,3.16,2a2.76,2.76,0,0,0,.08-.27C284.5,140.43,283,141.17,282.75,141.51Z"/><path d="M306.75,153.51c-.21.36-.08,2.17,3.38,2C308.6,152.38,307,153.16,306.75,153.51Z"/><path d="M330.75,117.51c-.21.36-.07,2.15,3.34,2l0,0C332.59,116.39,331,117.16,330.75,117.51Z"/><path d="M310.13,131.48a4.84,4.84,0,0,0-1.62-2c-.17.75-.3,1.38-.41,1.86A5.92,5.92,0,0,0,310.13,131.48Z"/><path d="M307.36,131c-.16-.41-.36-.91-.6-1.46v0A1.27,1.27,0,0,0,307.36,131Z"/><path d="M311.17,226.89c1.91-2.89.41-3.91,0-3.91S309.26,224,311.17,226.89Z"/><path d="M311.17,199c-.41,0-1.91,1,0,3.91C313.08,200,311.58,199,311.17,199Z"/><path d="M311.17,175c-.41,0-1.91,1,0,3.91C313.08,176,311.58,175,311.17,175Z"/><path d="M291.62,213.62c0,.22-.05.43-.07.65A1.11,1.11,0,0,0,291.62,213.62Z"/><path d="M291.58,237.51c-.19-.33-1.62-1-3.05,1.38h2.54A1.23,1.23,0,0,0,291.58,237.51Z"/><path d="M312.21,227.48c3.45.2,3.58-1.61,3.37-2S313.73,224.38,312.21,227.48Z"/><path d="M315.58,201.51c-.2-.35-1.85-1.13-3.37,2C315.66,203.68,315.79,201.87,315.58,201.51Z"/><path d="M312.21,179.48c2.54.15,3.28-.79,3.41-1.44,0-.21-.06-.4-.09-.59C315.19,177.08,313.65,176.56,312.21,179.48Z"/><path d="M332.65,237.54c-1-.7-1.76-.27-1.9,0a1.24,1.24,0,0,0,.52,1.38h1.86Z"/><path d="M306.75,225.51c-.21.36-.08,2.17,3.38,2C308.6,224.38,307,225.16,306.75,225.51Z"/><path d="M306.75,201.51c-.21.36-.08,2.17,3.38,2C308.6,200.38,307,201.16,306.75,201.51Z"/><path d="M306.75,177.51c-.21.36-.08,2.17,3.38,2C308.6,176.38,307,177.16,306.75,177.51Z"/><path d="M311.17,295c-.39,0-1.75.91-.28,3.45l.5.1C313,295.92,311.56,295,311.17,295Z"/><path d="M287.17,262.89c1.91-2.89.41-3.91,0-3.91S285.26,260,287.17,262.89Z"/><path d="M335.17,259c-.41,0-1.91,1,0,3.91Z"/><path d="M311.17,274.89c1.91-2.89.41-3.91,0-3.91S309.26,272,311.17,274.89Z"/><path d="M311.17,247c-.41,0-1.91,1,0,3.91C313.08,248,311.58,247,311.17,247Z"/><path d="M315.58,297.51c-.18-.32-1.56-1-2.95,1.22a15.33,15.33,0,0,0,2.48.12A1.2,1.2,0,0,0,315.58,297.51Z"/><path d="M288.21,263.48c3.45.2,3.58-1.61,3.37-2S289.74,260.38,288.21,263.48Z"/><path d="M312.21,275.48c3.45.2,3.58-1.61,3.37-2S313.73,272.38,312.21,275.48Z"/><path d="M315.58,249.51c-.2-.35-1.85-1.13-3.37,2C315.66,251.68,315.79,249.87,315.58,249.51Z"/><path d="M330.75,285.51c-.16.28-.11,1.41,1.48,1.83.27-.48.54-1,.8-1.48C331.9,284.73,330.91,285.24,330.75,285.51Z"/><path d="M307.32,297.19a18.66,18.66,0,0,0,1.75.71A1.89,1.89,0,0,0,307.32,297.19Z"/><path d="M286.13,263.48a6.44,6.44,0,0,0-.89-1.39l-.12,1.39A8.49,8.49,0,0,0,286.13,263.48Z"/><path d="M334.13,263.48c-1.53-3.1-3.17-2.32-3.38-2S330.67,263.68,334.13,263.48Z"/><path d="M306.75,273.51c-.21.36-.08,2.17,3.38,2C308.6,272.38,307,273.16,306.75,273.51Z"/><path d="M306.75,249.51c-.21.36-.08,2.17,3.38,2C308.6,248.38,307,249.16,306.75,249.51Z"/><path d="M288.53,238.89a5.39,5.39,0,0,0-.32.59h0a4.14,4.14,0,0,0,2.86-.59h-2.54Z"/><path d="M333.13,238.89h-1.86a3.49,3.49,0,0,0,2.06.6C333.27,239.29,333.2,239.09,333.13,238.89Z"/></g></g><path class="cls-5" d="M286,276c-2.5-5.71-.35-18.21,2.15-36.06s5-36.06,5-45.7,1.6-23-1.54-27.31-14.57-16-15.42-21.43S283,131.77,283,131.77s2.29-4.28,4.29-2,1.14,5.14,0,9.14-2.29,7.14-2.29,7.14,10,3.15,12.57,1.43,2.34-11.49,2.15-16.27c-.36-9.34-4.1-5.36-6.7-.93-1.24,2.12-8.57.85-4.28-4.57S297,115.49,301,119.78s6.85,12.56,6.85,12.56,2.86-13.6,5.46-21.61,7.26-11.16,8.94-10.61,1.48,3.36-.19,7.26-5.4,14.71-6.33,18.24-1.12,7.64.75,7.26,8.37-11.72,10.23-16.56S331.4,107,334.56,105s5.77.56,4.47,3.91a173.39,173.39,0,0,1-8.75,17.69,76.4,76.4,0,0,0-5.21,11.54,129,129,0,0,1,9.68-9.31c4.46-3.72,9.3-4.47,10.79-3.17s.19,1.49-3.53,4.47-9.31,6.52-13.78,13.78a67.34,67.34,0,0,0-8,17.12,58.46,58.46,0,0,1-5.4,11.35s3.49,28.35,9.54,43.94,16.75,38.39,13.49,54.68-9.54,24.66-18.38,27.22a17.09,17.09,0,0,1-15.12-2.79"/><path class="cls-2" d="M328.23,143.87c4.47-7.26,10-10.8,13.78-13.78s5-3.16,3.53-4.47-6.33-.55-10.79,3.17a129,129,0,0,0-9.68,9.31,76.4,76.4,0,0,1,5.21-11.54A173.39,173.39,0,0,0,339,108.87c1.3-3.35-1.31-6-4.47-3.91s-6,6.52-7.82,11.36-8.37,16.19-10.23,16.56-1.68-3.72-.75-7.26,4.65-14.33,6.33-18.24,1.86-6.7.19-7.26-6.33,2.61-8.94,10.61-5.46,21.61-5.46,21.61S305,124.06,301,119.78s-8,.5-12.26,5.93,3,6.69,4.28,4.57c2.6-4.43,6.34-8.41,6.7.93.19,4.78.42,14.56-2.15,16.27S285,146.05,285,146.05s1.14-3.14,2.29-7.14,2-6.85,0-9.14-4.29,2-4.29,2-7.71,8.29-6.85,13.71,12.28,17.14,15.42,21.43,1.54,17.67,1.54,27.31-2.49,27.85-5,45.7c0,.23-.07.45-.1.68,3.95,4.15,12,10.11,25.61,9.65,9.12-.31,15.58-4.9,19.95-9.95-2.9-8.63-6.54-17.05-9.24-24-6.05-15.59-9.54-43.94-9.54-43.94a58.46,58.46,0,0,0,5.4-11.35A67.34,67.34,0,0,1,328.23,143.87Z"/><path class="cls-5" d="M300.87,171.23s-1.67-7.08.75-11.54a12.5,12.5,0,0,1,5.95-5.77"/></g></g></svg>