<svg xmlns="http://www.w3.org/2000/svg" viewBox="0 0 2215.31 2368.87"><defs><style>.cls-1{fill:#f9a429;}.cls-2{fill:#fff;}.cls-3{opacity:0.3;}.cls-4{fill:#000072;}.cls-5{opacity:0.6;}.cls-6{fill:#ec1c24;}.cls-7{fill:#f12053;}.cls-8{fill:#03036b;}.cls-9{fill:#f02f84;}.cls-10{fill:#ef569c;}</style></defs><g id="Camada_2" data-name="Camada 2"><g id="Layer_1" data-name="Layer 1"><path class="cls-1" d="M1733.37,1960.73c-47.39,5-100.19-10-151.3-33.9-126-59-241.8-172.3-241.8-172.3L1636,1561.63s97.69,94.45,194.75,148.65a104.71,104.71,0,0,1,45.79,51.55C1907.72,1836.08,1861.12,1947.13,1733.37,1960.73Z"/><path class="cls-2" d="M1766.11,1957.23c68.66-13.66,113.38-62.55,122-116.3,8.12-50.69-15.9-105.68-82.41-139.34a770.6,770.6,0,0,1-70.08-40.41s-61,256.94-294.08,206.62C1541.2,1921.9,1678.48,1974.68,1766.11,1957.23Z"/><g class="cls-3"><path class="cls-4" d="M1733.37,1960.73c-47.39,5-100.19-10-151.3-33.9-14-25.65-24.3-46.9-24.3-46.9l58.65-145.4s-5.3,155.4,163,155.4c76.49,0,97.25-61.25,97.09-128.1C1907.72,1836.08,1861.12,1947.13,1733.37,1960.73Z"/></g><path class="cls-2" d="M772.37,2191.08s-9.4,18.5-26.8,42.7c-42.6,59.25-133.15,152.55-251,91.1-2.34-1.2-4.65-2.45-7-3.8-169.81-96.55,105.19-259,105.19-259Z"/><path class="cls-4" d="M571.84,2347.6c-24.47,0-50.69-6-78.42-20.5-2.37-1.21-4.7-2.48-7.09-3.85C449,2302,430,2275.83,429.72,2245.36c-.74-88.43,155.15-181.56,161.78-185.48l1.41-.83L775.57,2190.3l-1,1.91c-.09.19-9.68,18.95-27,43C714,2282,652.43,2347.6,571.84,2347.6ZM592.65,2065c-15.74,9.6-158.61,99.05-157.93,180.3.24,28.55,18.44,53.31,54.09,73.59,2.32,1.33,4.59,2.56,6.9,3.74,115.73,60.34,205-30.69,247.84-90.33a385.26,385.26,0,0,0,25.6-40.48Z"/><path class="cls-4" d="M571.59,2362.55c-30.9,0-61.91-8.77-92.67-26.26-42.3-24.05-63.9-54.61-64.2-90.8-.8-95.34,151.75-188.25,169.15-198.53a17.5,17.5,0,0,1,19.11.86l179.63,129A17.49,17.49,0,0,1,788,2199c-2.59,5.1-64.61,125.25-167.92,156.3A168,168,0,0,1,571.59,2362.55ZM592,2083c-47.41,30-142.81,102.76-142.29,162.18.2,23.13,15.41,43,46.5,60.65,38.25,21.75,76.54,27.11,113.78,15.92,70.75-21.26,121.31-95.41,139.44-125.64Z"/><path class="cls-1" d="M657.77,2135.78s-15.65,30.1-43.85,67.75c-55.39,73.95-159.1,177.2-287.8,139.75-183.35-53.35-91.69-188.35-23.35-263.35,0,0-31.49-67.4-43.59-158.7-8.36-63.15-7.41-137.65,19.74-209.2,1.7-4.6,3.55-9.2,5.51-13.75C27,1681.08-46.28,1332.18,73.92,1152.48v-.1a261.64,261.64,0,0,1,27.2-34.1S192.77,1034.53,214,1187s98.75,329.6,233.75,329.6c0,0,349.76-153.35,494.05-184.15l693.1,208.3c.2,3.15.41,6.3.55,9.4C1662.62,2067.08,1033.23,2379.88,657.77,2135.78Z"/><path class="cls-4" d="M380.3,2353.63a195.56,195.56,0,0,1-54.87-8c-60-17.45-95.71-45.24-106.22-82.59-16.78-59.63,34.28-132.53,80.61-183.63-4.7-10.57-32.1-74.77-43.12-157.9-10.28-77.75-3.59-148.54,19.89-210.42,1.27-3.44,2.67-7,4.17-10.62-97.64-7.72-177.17-64.42-224.19-160C-3.53,1418.39,2.74,1255,71.42,1151.72h0l.43-.73a264.53,264.53,0,0,1,27.46-34.43c1.6-1.47,36.54-32.93,69.31-21.1,24.57,8.85,40.68,39.55,47.88,91.22,22.68,162.77,102.81,327,230.75,327.45C462.19,1507.6,800.87,1360,941.3,1330l.63-.13.61.18,694.77,208.8.11,1.74c.2,3.16.4,6.33.55,9.44,12.29,233.88-111.21,449-330.36,575.48-214.77,123.94-469.13,129.26-648.92,13.81A575.42,575.42,0,0,1,615.93,2205C571.57,2264.24,486.9,2353.63,380.3,2353.63ZM76.4,1153.17l-.4.7C7.86,1255.75,1.57,1417.44,61.06,1538.33c46.76,95,126.14,151,223.53,157.45l3.52.24-1.39,3.24c-2,4.64-3.82,9.23-5.45,13.64-23.19,61.11-29.78,131.08-19.62,208,11.91,89.83,43.07,157.3,43.39,158l.71,1.51-1.13,1.23c-45.76,50.22-96.89,122.23-80.6,180.12,10,35.58,44.6,62.21,102.8,79.15C456.18,2378.51,561,2270,611.92,2202c27.74-37,43.48-67.11,43.63-67.4l1.28-2.45,2.31,1.5c178.35,116,431.91,111.07,646-12.47,217.49-125.5,340.05-338.92,327.87-570.9-.12-2.53-.28-5.08-.44-7.64L941.72,1335.06c-142.79,30.7-489.45,182.33-492.94,183.86l-1,.21c-131.25,0-213.21-166.63-236.22-331.76-6.93-49.69-21.94-79-44.63-87.21-30-10.79-63.77,19.66-64.11,20A261.9,261.9,0,0,0,76.4,1153.17Z"/><path class="cls-2" d="M657.77,2121.59S427,2251.9,281.56,2104.48l-37.72,56.12-25.43,59.58,15.21,39.38,5,50,73.23,29.21h147S611.93,2258.61,657.77,2121.59Z"/><g class="cls-5"><path class="cls-2" d="M1636.28,1575.18l-691.11-207.7c-144.3,30.8-494,184.15-494,184.15-135,0-212.5-177.1-233.75-329.6s-112.89-68.75-112.89-68.75a260,260,0,0,0-27.2,34.1v.1c-41.85,62.55-60.26,145.65-55.6,228-12.76-93.45,4.44-191.6,52.24-263v-.1a261.64,261.64,0,0,1,27.2-34.1S192.77,1034.53,214,1187s98.75,329.6,233.75,329.6c0,0,349.76-153.35,494.05-184.15l693.1,208.3c.2,3.15.41,6.3.55,9.4C1635.92,1558.58,1636.17,1566.88,1636.28,1575.18Z"/></g><path class="cls-2" d="M284.43,1698.28C27,1681.08-46.28,1332.18,73.92,1152.48q-74.23,337.13,210.51,455.8S346.12,1651.63,284.43,1698.28Z"/><path class="cls-4" d="M381.66,2368.87a215.53,215.53,0,0,1-60.44-8.79c-65.26-19-104.44-50.24-116.45-92.9-14.53-51.62,11.54-115.7,77.48-190.55-18-43.36-77.81-207.63-22.45-363.4C156,1697.84,73,1627.42,29.82,1516.94c-56-143.28-31.32-316,58.6-410.71.28-.3.58-.59.88-.87,1.75-1.6,43.21-38.86,84.4-24,30.23,10.89,49.63,45.64,57.66,103.26,21.59,155,95.69,311.36,212.86,314.45,38.93-17,355.6-154.15,493.93-183.72a17.5,17.5,0,0,1,7.31,34.23c-140.91,30.12-487.18,181.54-490.66,183.07a17.55,17.55,0,0,1-7,1.47c-140.26,0-227.17-173.11-251.08-344.67-5.91-42.44-18.27-69.13-34.79-75.14-17.35-6.33-40.51,9.44-48.59,16.54-80.65,85.49-102.07,242.36-50.89,373.37,24.22,62,85.43,167.42,223.19,176.61a17.5,17.5,0,0,1,14.91,24.37C228,1874,317.72,2070.58,318.63,2072.55a17.51,17.51,0,0,1-2.92,19.18c-43.2,47.42-91.67,114.71-77.24,166,8.51,30.26,39.64,53.4,92.53,68.78,178.13,51.83,310-196.27,311.25-198.78a17.52,17.52,0,0,1,25.07-6.58c175.35,114,424.59,107.91,635-15.6,212.78-124.92,330.61-335.6,315.18-563.55a17.5,17.5,0,0,1,34.93-2.36c16.33,241.47-107.92,464.31-332.39,596.1-215.5,126.52-470.66,135.54-655.95,24.62C633.17,2212.63,528.62,2368.87,381.66,2368.87Z"/><path class="cls-4" d="M1714.64,1979.22C1547,1979.23,1337.24,1776,1328,1767a17.5,17.5,0,1,1,24.47-25c2.15,2.1,208.73,202.2,361.72,202.22a161.09,161.09,0,0,0,17.26-.9c84.44-9,124.81-62.54,134.44-109.63,9.33-45.63-7.84-88.08-43.73-108.14-97.91-54.71-194.34-147.45-198.39-151.37a17.5,17.5,0,1,1,24.32-25.17c1,.93,97.28,93.54,191.14,146,49.47,27.65,73.39,84.84,61,145.7-12.1,59.21-61.81,126.41-165,137.43A194.57,194.57,0,0,1,1714.64,1979.22Z"/><path class="cls-4" d="M642.56,2127.13c23.58-36.67,46.77-73.91,69.46-111.32s44.87-75.21,66-113.61a2.5,2.5,0,0,1,4.51,2.15c-16.67,40.65-34.49,80.86-52.84,120.83s-37.2,79.63-56.7,119.25A17.53,17.53,0,0,1,641.53,2129a18,18,0,0,1,1-1.73Z"/><path class="cls-1" d="M1760.62,2043.48c-3.09,54.35-42.6,107.55-109.5,128.15-85.39,26.3-227.34-12.2-332-55.85-37.26-15.5-69.76-31.7-93.36-45.85a240.2,240.2,0,0,1-26.85-18.3l.35-.5L1220,2023l116.89-207.79,75.21-53.26s60.86,53.75,151.41,103.85a800,800,0,0,0,101,47.45C1734,1940,1763.53,1992.23,1760.62,2043.48Z"/><path class="cls-2" d="M1651.12,2171.63c66.9-20.6,106.4-73.8,109.5-128.15,2.9-51.25-26.6-103.5-96.2-130.2a770.15,770.15,0,0,1-73.83-33s-34.48,261.83-271.47,235.55C1423.77,2159.43,1565.72,2197.93,1651.12,2171.63Z"/><path class="cls-4" d="M1423.66,1748.85c16.89,14.47,35.56,28.76,54.2,42.12s38.06,26.14,57.68,38.25,39.82,23.26,60.17,34c20.58,10.25,41.29,20.3,62.61,28.69l16.3,6.68,8.79,3.72c2.93,1.26,5.75,2.84,8.62,4.25,5.79,2.72,11.26,6.26,16.8,9.57,2.75,1.72,5.35,3.71,8,5.56a82.34,82.34,0,0,1,7.78,6c20.38,16.4,37.16,38.68,46.07,64.22a138.85,138.85,0,0,1,3.22,79.47,156.77,156.77,0,0,1-38.28,68.54,175.72,175.72,0,0,1-29.93,25.18,193.62,193.62,0,0,1-34.4,17.92c-11.92,4.57-24.54,8.53-37.14,10.57-12.59,2.43-25.11,3.35-37.55,3.94-49.74,1.32-97.57-7.32-144.18-18.54-23.33-5.61-46.53-11.63-69.26-19.12a531,531,0,0,1-66.4-27c-10.79-5.15-21.47-10.53-31.94-16.31l-15.63-8.81c-5.13-3.12-10.26-6.17-15.31-9.42-10.19-6.28-20-13.27-29.61-20.51s-18.83-15.14-26.92-24.22a2.53,2.53,0,0,1,3.1-3.91l.06,0c10.23,5.62,20.76,10.51,31.46,15.11s21.43,9,32.23,13.23,21.7,8.26,32.52,12.35l32.73,11.65,65.62,22.18c21.82,7.38,43.68,14.72,65.92,20.54a609.72,609.72,0,0,0,67.23,13.51c22.49,3.17,45.07,4.92,67.19,4.26,11-.54,22-1.34,32.44-3.39,10.61-1.7,20.5-4.88,30.5-8.66a158.92,158.92,0,0,0,28-14.56,140.24,140.24,0,0,0,23.87-20.06,121.77,121.77,0,0,0,29.78-53.09,103.77,103.77,0,0,0-2.33-59.32,99.46,99.46,0,0,0-14-26.52,112.86,112.86,0,0,0-21.13-22.14,57.65,57.65,0,0,0-6.19-4.75c-2.16-1.48-4.21-3.09-6.44-4.49-4.56-2.66-8.94-5.58-13.8-7.83-2.4-1.17-4.7-2.49-7.17-3.55l-7.43-3.13-8-3.29-8.35-3.4c-22.4-8.82-44-19.29-65.45-30-21.19-11.16-42.19-22.67-62.49-35.3s-40.3-25.71-59.74-39.61-38.22-28.26-57-44.34a17.5,17.5,0,1,1,22.76-26.58Z"/><g class="cls-3"><path class="cls-4" d="M613.92,2203.53c-55.39,73.95-159.1,177.2-287.8,139.75-183.35-53.35-91.69-188.35-23.35-263.35,0,0-31.49-67.4-43.59-158.7-8.36-63.15-7.41-137.65,19.74-209.2l14.1-21s-36.9,321.35,89.75,371c0,0-123.5,126.25-70.95,187.9S535,2285.43,613.92,2203.53Z"/></g><g class="cls-3"><path class="cls-4" d="M1760.62,2043.48c-3.09,54.35-42.6,107.55-109.5,128.15-85.39,26.3-227.34-12.2-332-55.85-204.21,123.45-466.85,146.45-661.36,20,0,0-8.4,16.15-24,39.6l-2.66-2.1,76.81-128.6s213.35,271.85,517.84,25.25l-26.5-18.8-29.84-21.2s18.1-7.5,50.54-6.9c31.45.6,76.36,8.8,131.31,39,8.5,4.65,17.69,9.25,27.44,13.65,118.75,53.9,323,86.85,370.71-13.65A92.93,92.93,0,0,1,1760.62,2043.48Z"/></g><path class="cls-6" d="M1634.92,1550.08c-57.25,73.7-116.44,130.45-171.14,173.8-2.8,2.25-5.6,4.45-8.4,6.55-3.91,3-7.71,6-11.51,8.75a870.18,870.18,0,0,1-89.5,59.1c-60.89,35-138.25,16.65-177.74-41.45-67.55-99.5-142.61-194.45-222.61-286.45l107,12.5Z"/><path class="cls-2" d="M1319.41,1714.42c-2.91-.3-5.86-.38-8.72-1a18.93,18.93,0,0,0-11.83,1.21,24.61,24.61,0,0,1-17.45,1.5c-9.83-2.92-13.88-12.3-9.15-21.4a29,29,0,0,1,4.62-6.29,49.3,49.3,0,0,0,8.63-12.44,17.14,17.14,0,0,1,14.74-10.3,16.92,16.92,0,0,1,16.3,7.79,29.9,29.9,0,0,0,10.18,9.7,20,20,0,0,1,8.26,8.84,14,14,0,0,1-4.6,18.07,22,22,0,0,1-11,3.92Z"/><path class="cls-2" d="M1293.59,1635.55c.54,3.91.69,7.81-.78,11.53a19.64,19.64,0,0,1-3.13,5.49c-4.48,5.27-11.68,5.21-16.5-.15a18.16,18.16,0,0,1-4.58-17,27,27,0,0,1,8.87-14.66,15.46,15.46,0,0,1,3.92-2.45,5.73,5.73,0,0,1,7.31,1.93,20.94,20.94,0,0,1,3.6,8.51C1292.83,1631,1293.17,1633.3,1293.59,1635.55Z"/><path class="cls-2" d="M1300.06,1635c.22-3.87.3-7.76.71-11.61a13.89,13.89,0,0,1,1.63-4.83,5.45,5.45,0,0,1,6-3,16.63,16.63,0,0,1,8.34,4.15c4.27,3.54,7.73,7.74,9.07,13.23a18,18,0,0,1-3.16,15.82c-4.54,5.91-12.12,6-17.26.26a19.29,19.29,0,0,1-4.63-10c-.21-1.33-.28-2.68-.41-4Z"/><path class="cls-2" d="M1350.22,1657.67c.69,7.13-1.47,12.79-7,16.88-6.09,4.51-13.44,2-15.7-5.29a16.3,16.3,0,0,1-.35-8.73,35.3,35.3,0,0,1,6.26-13.59,14.31,14.31,0,0,1,3.09-2.93,5.52,5.52,0,0,1,7,.32c3.15,2.5,4.75,6,5.85,9.71C1349.78,1655.33,1350,1656.67,1350.22,1657.67Z"/><path class="cls-2" d="M1274,1671.4a42.25,42.25,0,0,1-.88,5.77,9.35,9.35,0,0,1-12.23,6.32,17.41,17.41,0,0,1-11.67-15.64,24.06,24.06,0,0,1,1.79-11.16,15.55,15.55,0,0,1,1.81-3,5.75,5.75,0,0,1,7.5-1.89,10.17,10.17,0,0,1,2.31,1.38,33.28,33.28,0,0,1,10.52,15.22,24.79,24.79,0,0,1,.63,3Z"/><g class="cls-3"><path class="cls-4" d="M1443.87,1739.18a870.18,870.18,0,0,1-89.5,59.1c-60.89,35-138.25,16.65-177.74-41.45-67.55-99.5-142.61-194.45-222.61-286.45l107,12.5,136,74.55s-70.81,17.5-17.5,115.85C1230.12,1766.78,1366.77,1791.78,1443.87,1739.18Z"/></g><path class="cls-4" d="M1288.47,1833.27a152.65,152.65,0,0,1-126.31-66.63c-63.09-92.91-135.49-186.06-221.34-284.76a17.5,17.5,0,1,1,26.4-23c86.78,99.76,160,194,223.89,288.07,34.2,50.37,102.1,66.23,154.56,36.1,70.87-40.68,176.19-116,275.43-243.73a17.5,17.5,0,0,1,27.64,21.47c-102.74,132.24-212,210.37-285.64,252.62A149.56,149.56,0,0,1,1288.47,1833.27Z"/><path class="cls-7" d="M1463.78,1723.88c-2.8,2.25-5.6,4.45-8.4,6.55C1458.18,1728,1461,1725.83,1463.78,1723.88Z"/><path class="cls-4" d="M1456.87,1732.43l-3.12-3.9a108.63,108.63,0,0,1,8.6-6.7l3,4C1462.52,1728.1,1459.7,1730.31,1456.87,1732.43Z"/><g class="cls-3"><path class="cls-4" d="M745.57,2233.78c-42.6,59.25-133.15,152.55-251,91.1l85.7-81.6S609,2327,719,2248.28C729.78,2240.58,738.53,2235.93,745.57,2233.78Z"/></g><path class="cls-1" d="M736.11,788.84s-87.47,138.43-95.26,288.46c-1.17,22.2.78,47,6.75,73.45,39.81,177.82,259.18,429.26,915,451.21,0,0,553.91,22.61,625.76-325.13,15.65-75.37,8.59-168.13-31.63-282.22,0,0,31.52-190.84-7.18-457s-113.18-398.45-183.2-403.71-184.62,79.31-296.85,250.46c0,0-160-65.15-343.16-15.58,0,0-189.59-389-358.33-346.23S749.84,643.56,736.11,788.84Z"/><path class="cls-4" d="M1582,1604.73c-12.23,0-19.2-.26-19.5-.28-294.1-9.84-526.16-66.2-689.74-167.52C707.44,1334.52,659.2,1214,645.16,1151.3c-5.76-25.56-8-50.5-6.81-74.13,7.5-144.37,89.49-279.69,95.33-289.15l1.17-12.42c7.89-84.39,24.31-260,59.58-422.79,44-202.82,102.15-314.75,173-332.69,71.06-18,153.5,35.16,245.06,158,62.69,84.13,108.27,173.79,115.21,187.7,170.36-45.34,322.13,8.41,340.85,15.47,103.81-157.73,220.69-255.69,298-249.9,78.87,5.93,149.94,161.44,185.48,405.85,37.21,255.88,9.22,444.66,7.28,457.12,37.66,107.09,48.26,202.28,31.51,283-29.58,143.18-147.72,245.15-341.65,294.88C1735.18,1601.45,1625.43,1604.73,1582,1604.73ZM994.39,21.79A104.4,104.4,0,0,0,968.65,25C860.87,52.26,783.88,305,739.82,776.06l-1.27,13.62-.32.5c-.87,1.38-87.22,139.63-94.88,287.25-1.22,23.17,1,47.66,6.68,72.77,13.87,62,61.6,181,225.38,282.48,162.83,100.85,394.06,157,687.29,166.78,1.41.06,139.92,5.2,285.34-32.11,133.81-34.33,301.05-112.69,337.9-291,16.59-79.93,6-174.43-31.55-280.89l-.21-.6.1-.63c.32-1.91,31-193.55-7.19-456.23-42.06-289.22-121-397.08-180.9-401.58-75.78-5.79-191.48,92.12-294.58,249.34l-1.13,1.72-1.9-.77c-1.6-.65-161.36-64.26-341.57-15.49l-2,.54-.9-1.85C1322.33,366.2,1152.52,21.79,994.39,21.79Z"/><path class="cls-2" d="M647.6,1150.75c39.81,177.82,259.18,429.26,915,451.21,0,0,553.91,22.61,625.76-325.13-4.9-64.73-17.29-131.92-46.12-161.39-53.2-54.39-124.79-68.37-231.1-11.46-52.53,28.12-120.36,16-151.33-15.62-53.92-55.13-108.45-123.1-207.15-125.13-80.35-1.63-148.75,28.67-204.24,69-70.41,51.1-168.5,40-227.09-24.29-51.59-56.64-122.46-107.27-210.71-107.34C756.3,900.36,683.79,1035.35,647.6,1150.75Z"/><g class="cls-3"><path class="cls-4" d="M1365.47,359.86c105.21-20,199-4.88,253.72,8.93-60-11.85-149.54-19.6-245.88,6.46C1373.31,375.25,1370.57,369.62,1365.47,359.86Z"/></g><g class="cls-3"><path class="cls-4" d="M968,22.55c37.53-9.51,76.09,2.37,113.36,26.54a104.6,104.6,0,0,0-44.27,1.33C878.75,90.52,832.41,633.05,819.53,769.36c0,0-82.06,129.88-89.38,270.63a254.69,254.69,0,0,0,6.33,68.92c37.35,166.83,243.17,402.73,858.49,423.32,0,0,519.69,21.22,587.1-305,7.84-37.76,9.52-80.24,3.72-127.87,13.32,67.88,13.15,126.67,2.59,177.51C2116.53,1624.57,1562.62,1602,1562.62,1602c-655.84-22-875.21-273.39-915-451.21-6-26.5-7.92-51.25-6.75-73.45,7.79-150,95.26-288.46,95.26-288.46C749.84,643.56,799.23,65.29,968,22.55Z"/></g><g class="cls-3"><path class="cls-4" d="M1389.33,1079.09c19.84,36,33.5,55.33,81.42,57.08,43.72,1.6,43.61-63.36,43.61-63.36l47.87,4.34,47.87,4.33s-11.79,63.88,31.52,70.16c47.45,6.89,64.36-9.7,90.34-41.52,0,0,11.56,81.7-64.11,94.06-71.68,11.71-114.55-4.28-107.28-108.77-11.62,104.1-56.66,112.13-125.07,87.73C1363.28,1157.39,1389.33,1079.09,1389.33,1079.09Z"/></g><path class="cls-8" d="M1638.73,1197.81s-53.22,178.49-103.86,177.37-89.49-193.11-89.49-193.11,79.17,28,114.41-67.54C1559.79,1114.53,1554.44,1197.51,1638.73,1197.81Z"/><path class="cls-4" d="M1535.33,1377.68h-.52c-52-1.15-90.28-187.19-91.88-195.11l-.87-4.32,4.15,1.46c3.14,1.11,77.29,26,111.23-66l5.92-16.05-1.07,17.07c0,.36-2,35.83,20,59.39,13.1,14,32.07,21.15,56.4,21.24h3.34l-1,3.21C1638.93,1205.86,1587.11,1377.68,1535.33,1377.68Zm-86.65-192.09c5.93,27.47,42.1,186.11,86.24,187.09h.44c44.45,0,92.6-148.71,100-172.43-24.18-.72-43.24-8.38-56.7-22.79-15.42-16.51-19.85-37.83-21-51C1525.16,1198.63,1465,1189.57,1448.68,1185.59Z"/><path class="cls-9" d="M1583.5,1331s7.85-114.91-119.4-75.15c0,0,35.82,118.41,74.11,119.11S1583.5,1331,1583.5,1331Z"/><path class="cls-4" d="M1535.28,1392h-.78c-29.66-.66-54.85-35.12-79.29-108.45a937.78,937.78,0,0,1-26.28-98.11,16.79,16.79,0,0,1,22-19.15c6.44,2.18,64.68,19.42,93.07-57.53a16.78,16.78,0,0,1,32.49,6.89c0,.22-1.44,30,16.36,48.84,10.3,10.93,25.74,16.51,45.88,16.58a16.78,16.78,0,0,1,16,21.57C1641.52,1247.15,1593.78,1392,1535.28,1392Zm-68-189c4.37,18.18,11.19,44.31,19.84,70.21,22.38,67.09,41.25,85.1,48.1,85.25h.17c18.68,0,54.9-66,81.09-145.76-19.64-3.58-35.82-12.1-48.28-25.44a86.76,86.76,0,0,1-15.85-24.27C1526.84,1195.29,1493.68,1204,1467.3,1202.94Z"/><path class="cls-8" d="M1461,1033.76c4-24.37,33.3-34.17,59.62-38a184.85,184.85,0,0,1,85.72,7.76c25.2,8.51,52.24,23.42,51.81,48.12-.56,32.1-51.25,49.85-82,57.68a67.4,67.4,0,0,1-44.82-4.06C1502.43,1092,1455.75,1065.44,1461,1033.76Z"/><ellipse class="cls-2" cx="1574.27" cy="1029.63" rx="9.28" ry="50.17" transform="translate(406.86 2504.63) rotate(-84.83)"/><path class="cls-4" d="M1596.2,1042.33c-10.71,0-20.68-.84-23-1-5.36-.48-52.34-5.07-51.32-16.39h0c1-11.33,48.07-7.4,53.43-6.91s52.34,5.06,51.31,16.39C1626.06,1040.84,1610.47,1042.33,1596.2,1042.33Zm-69.38-17c1.88,2.76,18.37,8.56,46.84,11.13,29.27,2.65,46.7-.32,48.23-2.74-1.11-2.22-17.72-8.28-47-10.93C1546.43,1020.22,1529.17,1023,1526.82,1025.33Z"/><path class="cls-4" d="M1479.34,1204q-5.91,0-12.13-.57c-34.85-3.15-61-15.8-77.9-37.58-25-32.32-18.71-72.38-18.43-74.07a17.36,17.36,0,0,1,34.25,5.67c0,.17-4,27.24,11.83,47.4,10.72,13.69,28.68,21.77,53.38,24,21,1.91,37.06-2.57,49.07-13.68,24.8-23,24.53-66.93,24.52-67.37A17.39,17.39,0,0,1,1561,1070.2h.27a17.33,17.33,0,0,1,17.35,17c0,2.42.68,59.65-35.48,93.29C1526.37,1196.12,1504.94,1204,1479.34,1204Z"/><path class="cls-4" d="M1644.86,1214.75q-6.91,0-14.25-.66c-30-2.72-52.95-14.5-68.25-35-28.53-38.27-18-92.57-17.54-94.87a16.78,16.78,0,0,1,32.91,6.6c-.14.73-7.91,42.28,11.62,68.32,9.49,12.65,24,19.7,44.29,21.54,23.85,2.14,42.35-2.4,54.92-13.56,18.51-16.43,19.47-42.86,19.48-43.12a16.78,16.78,0,0,1,33.55.65c0,1.66-1,40.85-30.39,67.24C1694.28,1207.08,1672,1214.75,1644.86,1214.75Z"/><ellipse class="cls-8" cx="1823.87" cy="961.69" rx="113.51" ry="90.92" transform="translate(701.61 2691.39) rotate(-84.83)"/><path class="cls-4" d="M1820.27,1077.54q-3.4,0-6.86-.31c-51.3-4.65-88.35-60.26-82.58-124s52.22-111.74,103.5-107.11c25,2.26,47.3,16.47,62.9,40,15.48,23.37,22.47,53.18,19.69,83.94C1911.4,1031,1868.79,1077.54,1820.27,1077.54Zm7.19-226.7c-46,0-86.38,44.61-91.65,102.87-5.52,61,29.49,114.14,78,118.54s92.55-41.63,98.08-102.59c2.68-29.63-4-58.3-18.88-80.73-14.74-22.26-35.76-35.68-59.18-37.8C1831.74,850.93,1829.59,850.84,1827.46,850.84Z"/><ellipse class="cls-2" cx="1801.99" cy="949.06" rx="40.04" ry="32.07" transform="translate(694.29 2658.12) rotate(-84.83)"/><path class="cls-4" d="M1800.76,991.54q-1.29,0-2.61-.12c-9.3-.84-17.6-6.11-23.38-14.83-5.67-8.55-8.22-19.43-7.21-30.65s5.49-21.46,12.6-28.85c7.25-7.54,16.36-11.25,25.67-10.39,19,1.72,32.7,22.12,30.59,45.48h0c-1,11.21-5.49,21.46-12.6,28.85C1817.25,987.87,1809.15,991.54,1800.76,991.54Zm2.48-80c-7,0-13.87,3.13-19.48,9-6.32,6.58-10.3,15.76-11.22,25.84s1.36,19.83,6.4,27.44c4.92,7.43,11.91,11.91,19.66,12.61s15.44-2.45,21.62-8.87c6.32-6.58,10.31-15.76,11.22-25.84,1.86-20.62-9.83-38.58-26.06-40.05C1804.66,911.61,1804,911.58,1803.24,911.58Z"/><path class="cls-4" d="M1325.1,968.54c-5.87-22.91-13.25-43.4-23.8-56.46-5.4-6.4-10.85-11.19-17.43-14.57-6.35-3.61-13.89-6-22.41-7.93a108.21,108.21,0,0,0-12.08-1.87,74.22,74.22,0,0,0-10.92.21,48.61,48.61,0,0,0-20.39,7.17c-14,8.35-27.43,25.61-39.94,44.46l-.42.64a6.78,6.78,0,0,1-12.35-2.76c-1.93-13.18-.75-25.79,2.67-38.69a92.83,92.83,0,0,1,19.72-36.89c10-11.13,24.22-20.39,39.79-24.24,15.51-4.1,31.3-3.53,45.16-.46s28.23,8.56,40.57,18.29a83.11,83.11,0,0,1,27.08,36.84,89.3,89.3,0,0,1,4.67,41.27c-1.67,13.17-5.45,25.43-12.55,36.53a4,4,0,0,1-7.28-1.16Z"/><ellipse class="cls-2" cx="1778.94" cy="711.93" rx="62.96" ry="47.62" transform="translate(-115.37 423.76) rotate(-13.16)"/><path class="cls-10" d="M2008.71,671.08c-50-50.58-109.27-102-200.08-177.84-20.14-16.81-14.77-35.4-10.47-48.13C1818,386.38,1890.59,300.25,1946,277.38c82.33-34,104,252.83,106.28,372C2052.74,672.17,2024.7,687.27,2008.71,671.08Z"/><path class="cls-10" d="M906.22,607.8c58.19-53.06,126.79-106.54,231.63-185.15,23.25-17.43,18.39-38.3,14.37-52.63-18.54-66.12-93.86-165.6-153.85-194.11-89.11-42.34-129.65,273.67-139.12,405.41C857.45,606.45,887.6,624.78,906.22,607.8Z"/><ellipse class="cls-2" cx="1320.87" cy="676.64" rx="47.62" ry="62.96" transform="translate(150.34 1589.01) rotate(-65.06)"/><g class="cls-5"><path class="cls-2" d="M968,22.55c168.74-42.76,358.33,346.23,358.33,346.23,141.6-38.31,312.87.21,363.57,15.91-4,5.71-10.53,15.62-16.79,25.22a32.79,32.79,0,0,1-35.76,13.83c-51.11-13.31-182-40.08-318.51-9.31a30.57,30.57,0,0,1-33.79-15.54C1240.93,315.11,1070.69,13.34,925.8,46,939,34.45,953,26.35,968,22.55Z"/></g><g class="cls-5"><path class="cls-2" d="M1966.37,133.9c70,5.26,144.49,137.55,183.2,403.71s7.18,457,7.18,457c40.22,114.1,47.28,206.86,31.63,282.23-25.41,123-111.18,199.65-211.4,247.37,80.16-48.27,144.92-119.16,166.43-223.3,15.65-75.37,11.85-192.6-28.37-306.7,0,0,8.69-51.28,9.82-142.32a27.46,27.46,0,0,1-4.35.5c-27.36.6-50.43-40.22-51.55-91.17s20.17-92.73,47.53-93.33c.23,0,.46,0,.7,0-3.06-33.33-7.14-68.76-12.6-106.24C2065.89,295.53,1991.42,163.23,1921.4,158c-15.87-1.21-34.08,2.28-54,10.3C1905.28,143.4,1939.21,131.84,1966.37,133.9Z"/></g><path class="cls-4" d="M1586.12,1621.57c-13.56,0-22.07-.3-24.26-.39-490.36-16.43-721.78-159.83-829.54-277.24-75-81.66-115.29-179.21-110.67-267.65,7.34-140.77,80.91-269.15,95.72-293.68l.85-9c7.95-84.78,24.49-261.18,60-424.77,46-212.18,106.57-325,185.1-344.88,78.23-19.83,166.61,35.44,262.61,164.23,54.23,72.74,94.92,147.73,110.68,178.19,150.65-36.12,282,.17,325.32,14.8,106.73-158.57,223.24-252.66,305.95-246.42,88.39,6.66,163.43,163.71,200.72,420.1,35.74,245.71,12.68,425.64,7.91,458,59.89,172.83,50.47,314.27-28,420.47C2005.07,1607.34,1678.6,1621.57,1586.12,1621.57ZM994.33,38.53a87.66,87.66,0,0,0-21.61,2.66c-68.8,17.42-162.16,159.25-216.23,736l-1.27,13.5a19.35,19.35,0,0,1-2.88,8.44c-.85,1.35-84.85,136.14-92.31,279.19-1.93,37,4,134.41,100.6,239.65,102.79,112,325.48,248.84,802.65,264.82,4.14.2,402.11,13.73,554.34-192.42,71.08-96.25,78.15-227.25,21-389.37a19.2,19.2,0,0,1-.83-9.51c.3-1.88,30.52-191.36-7.26-451.11-38.08-261.79-110.6-383.16-165.58-387.3-57.24-4.31-165.87,68.79-279.34,241.85a19.24,19.24,0,0,1-23.3,7.27h0c-1.55-.63-156.59-62-330.91-14.85a19.22,19.22,0,0,1-22.29-10.13C1261.13,278.81,1116.32,38.53,994.33,38.53Z"/></g></g></svg>