<svg xmlns="http://www.w3.org/2000/svg" viewBox="0 0 474.64 467.1"><defs><style>.cls-1{fill:#ebebeb;}.cls-2{fill:#e0e0e0;}.cls-3{fill:#263238;}.cls-4{fill:#ff725e;}.cls-5,.cls-6{opacity:0.3;}.cls-7,.cls-8{opacity:0.2;}.cls-9{fill:#ffbf9d;}.cls-10{fill:#ff9a6c;}.cls-11{fill:#455a64;}</style></defs><g id="Camada_2" data-name="Camada 2"><g id="Background_Complete" data-name="Background Complete"><path class="cls-1" d="M300.1,234.25,182,233.11l-35.79-.17-9.73,0-2.53,0a7.14,7.14,0,0,0-.87,0,4.73,4.73,0,0,0,.86.06l2.54.06,9.73.12,35.79.2,118.13.07c46.1,0,87.85.06,118.07.28,15.11.11,27.34.25,35.79.42,4.23.08,7.51.16,9.74.25a17.34,17.34,0,0,1,3.39.26,19.15,19.15,0,0,1-3.4.22c-2.22.06-5.5.11-9.73.15-8.45.08-20.68.1-35.8.05C388,235.09,346.2,234.73,300.1,234.25Z"/><path class="cls-1" d="M299.18,244.66l-116.5-19.49-35.34-5.73L137.73,218l-2.51-.36a5.08,5.08,0,0,0-.86-.08,5.24,5.24,0,0,0,.84.19l2.49.45,9.6,1.64,35.33,5.76L299.3,244c45.54,7.15,86.77,13.7,116.59,18.61,14.92,2.46,27,4.5,35.3,6,4.16.74,7.39,1.33,9.57,1.76a17,17,0,0,1,3.31.79,17.51,17.51,0,0,1-3.39-.31c-2.2-.28-5.45-.74-9.64-1.35-8.36-1.24-20.44-3.12-35.36-5.52C385.83,259.15,344.65,252.3,299.18,244.66Z"/><path class="cls-1" d="M296.65,254.79l-112-37.6-34-11.22-9.26-3-2.42-.75a6.93,6.93,0,0,0-.84-.22,5.26,5.26,0,0,0,.81.33l2.38.84,9.22,3.13,34,11.25,112.33,36.56c43.85,14.23,83.53,27.18,112.21,36.74,14.34,4.77,25.92,8.69,33.91,11.46,4,1.38,7.09,2.48,9.18,3.25a17.33,17.33,0,0,1,3.14,1.3,17.94,17.94,0,0,1-3.3-.83c-2.13-.63-5.27-1.59-9.3-2.86-8.07-2.54-19.71-6.3-34.06-11C379.93,282.76,340.34,269.5,296.65,254.79Z"/><path class="cls-1" d="M292.55,264.39,187.87,209.65l-31.8-16.43-8.68-4.41-2.27-1.12a4.56,4.56,0,0,0-.79-.34,6.48,6.48,0,0,0,.74.44l2.23,1.2c2,1.06,4.89,2.58,8.61,4.54L187.7,210l105.16,53.79c41.07,21,78.22,40,105,53.94,13.4,7,24.23,12.66,31.68,16.65,3.73,2,6.61,3.57,8.55,4.66A18.09,18.09,0,0,1,441,340.8a18.2,18.2,0,0,1-3.13-1.34c-2-1-5-2.41-8.74-4.29-7.56-3.78-18.46-9.33-31.9-16.24C370.39,305.11,333.38,285.79,292.55,264.39Z"/><path class="cls-1" d="M287,273.23,192.16,202.8l-28.84-21.2-7.89-5.71-2.06-1.46a6.73,6.73,0,0,0-.73-.47,4.93,4.93,0,0,0,.66.56c.48.36,1.15.87,2,1.54l7.8,5.82,28.83,21.23,95.46,69.56c37.28,27.12,71,51.74,95.31,69.7,12.15,9,22,16.29,28.7,21.4,3.36,2.55,6,4.55,7.71,5.93a17.16,17.16,0,0,1,2.59,2.21,17.29,17.29,0,0,1-2.87-1.82c-1.84-1.25-4.53-3.14-8-5.6-6.88-4.91-16.78-12.09-29-21C357.52,325.61,324,300.75,287,273.23Z"/><path class="cls-1" d="M280.13,281.1,197.4,196.77l-25.19-25.43-6.9-6.86c-.78-.76-1.38-1.35-1.82-1.76a5.33,5.33,0,0,0-.64-.58,6.18,6.18,0,0,0,.57.65c.41.44,1,1,1.75,1.83l6.79,7L197.14,197l83.48,83.57c32.61,32.59,62.09,62.15,83.31,83.67,10.61,10.76,19.15,19.51,25,25.6,2.93,3.05,5.19,5.43,6.71,7.07a17.18,17.18,0,0,1,2.21,2.58,18.2,18.2,0,0,1-2.56-2.24c-1.62-1.53-4-3.82-7-6.78-6-5.92-14.7-14.55-25.35-25.27C341.65,343.81,312.39,314,280.13,281.1Z"/><path class="cls-1" d="M272.12,287.8l-68.6-96.17-20.93-29-5.75-7.85c-.65-.87-1.15-1.54-1.52-2a4.89,4.89,0,0,0-.54-.67,4.43,4.43,0,0,0,.46.73l1.44,2.08,5.63,7.94c4.95,6.89,12.09,16.8,20.91,29,17.79,24.48,42.34,58.23,69.47,95.54S324.36,358.44,342,383c8.8,12.29,15.89,22.26,20.73,29.19,2.42,3.46,4.28,6.16,5.52,8a18.41,18.41,0,0,1,1.79,2.9,17.29,17.29,0,0,1-2.18-2.61c-1.37-1.76-3.34-4.39-5.86-7.78-5-6.79-12.25-16.66-21.11-28.91C323.14,359.32,298.87,325.35,272.12,287.8Z"/><path class="cls-1" d="M263.17,293.17,210.46,187.46c-6.81-13.47-12.31-24.38-16.14-32l-4.45-8.66-1.18-2.24a4.1,4.1,0,0,0-.44-.74,5,5,0,0,0,.34.79l1.1,2.28,4.31,8.73,16.11,32c13.75,27,32.72,64.14,53.69,105.22s39.92,78.26,53.48,105.27c6.77,13.51,12.21,24.47,15.91,32.07,1.85,3.8,3.26,6.76,4.2,8.78a18.37,18.37,0,0,1,1.31,3.14,17,17,0,0,1-1.75-2.92c-1.07-1.95-2.61-4.85-4.57-8.6-3.91-7.49-9.49-18.37-16.33-31.85C302.38,371.79,283.72,334.44,263.17,293.17Z"/><path class="cls-1" d="M253.49,297.07c-13.83-44-26.35-83.82-35.43-112.69-4.59-14.37-8.32-26-10.9-34.09-1.31-4-2.33-7.1-3-9.25l-.81-2.4a4.41,4.41,0,0,0-.32-.8,5.61,5.61,0,0,0,.21.84c.17.57.41,1.38.73,2.42.67,2.16,1.64,5.28,2.88,9.3,2.58,8.08,6.3,19.72,10.88,34.1l36.47,112.36c14.26,43.84,27.12,83.56,36.25,112.37,4.57,14.4,8.21,26.08,10.67,34.17,1.23,4,2.16,7.19,2.76,9.33a16.89,16.89,0,0,1,.8,3.31,17.63,17.63,0,0,1-1.26-3.16c-.75-2.1-1.82-5.2-3.16-9.21-2.69-8-6.49-19.64-11.12-34C279.84,380.88,267.29,341.06,253.49,297.07Z"/><path class="cls-1" d="M243.31,299.4c-6.74-45.63-12.83-86.93-17.26-116.86-2.27-14.92-4.12-27-5.4-35.39-.67-4.15-1.18-7.38-1.54-9.61l-.43-2.49a5.86,5.86,0,0,0-.18-.84,4.3,4.3,0,0,0,.07.86c.08.59.19,1.42.34,2.51.32,2.23.79,5.47,1.39,9.63,1.27,8.39,3.11,20.47,5.38,35.39,4.69,29.89,11.17,71.12,18.32,116.69S257.64,386.08,262.12,416c2.25,14.94,4,27,5.16,35.42.58,4.19,1,7.44,1.26,9.65a16.92,16.92,0,0,1,.27,3.4,18.09,18.09,0,0,1-.75-3.32c-.41-2.19-1-5.43-1.67-9.59-1.39-8.34-3.31-20.42-5.62-35.36C256.15,386.31,250,345,243.31,299.4Z"/><path class="cls-1" d="M232.9,300.1c.41-46.12.79-87.86,1.06-118.11.06-15.1.11-27.32.15-35.8,0-4.2,0-7.47,0-9.73,0-1.09,0-1.93,0-2.53a5.89,5.89,0,0,0-.05-.87,4.93,4.93,0,0,0-.06.87c0,.6,0,1.44-.06,2.53,0,2.25-.06,5.52-.11,9.73,0,8.48-.1,20.7-.18,35.79V300.11c0,46.1,0,87.85-.2,118.07-.1,15.11-.24,27.34-.4,35.8-.08,4.22-.16,7.5-.25,9.73a18,18,0,0,1-.25,3.39,17.93,17.93,0,0,1-.22-3.39c-.07-2.23-.12-5.51-.16-9.74-.08-8.45-.11-20.68-.07-35.79C232.1,388,232.45,346.21,232.9,300.1Z"/><path class="cls-1" d="M222.49,299.19c7.58-45.5,14.44-86.67,19.41-116.52,2.41-14.9,4.36-27,5.71-35.33.64-4.16,1.14-7.39,1.48-9.62.15-1.08.27-1.91.36-2.51a5,5,0,0,0,.08-.86,5.24,5.24,0,0,0-.19.84c-.11.6-.26,1.42-.45,2.49-.38,2.23-.93,5.46-1.63,9.6l-5.74,35.33c-4.7,29.89-11.18,71.13-18.35,116.69s-13.64,86.79-18.54,116.61c-2.44,14.92-4.48,27-5.95,35.3-.73,4.16-1.33,7.39-1.76,9.58a18.22,18.22,0,0,1-.78,3.31,16.81,16.81,0,0,1,.3-3.39c.28-2.21.74-5.46,1.35-9.64,1.23-8.37,3.11-20.45,5.49-35.37C208.05,385.85,214.87,344.66,222.49,299.19Z"/><path class="cls-1" d="M212.35,296.66c14.65-43.74,27.91-83.32,37.53-112,4.72-14.34,8.54-25.94,11.2-34,1.28-4,2.28-7.12,3-9.27l.75-2.42a6.93,6.93,0,0,0,.22-.84,4.8,4.8,0,0,0-.32.81l-.84,2.38c-.73,2.14-1.78,5.24-3.13,9.22-2.66,8.06-6.49,19.66-11.23,34C240.16,213.31,227.26,253,213,296.88s-27.14,83.56-36.67,112.24c-4.77,14.34-8.68,25.93-11.44,33.91-1.39,4-2.48,7.09-3.25,9.18a17.28,17.28,0,0,1-1.3,3.15,17.94,17.94,0,0,1,.83-3.3c.63-2.14,1.59-5.28,2.85-9.31,2.54-8.07,6.29-19.71,11-34.07C184.44,380,197.67,340.36,212.35,296.66Z"/><path class="cls-1" d="M202.75,292.57l54.67-104.71c6.92-13.42,12.53-24.27,16.42-31.81,1.9-3.75,3.37-6.67,4.39-8.69.49-1,.86-1.73,1.12-2.27a4.27,4.27,0,0,0,.35-.79,4.1,4.1,0,0,0-.44.74l-1.21,2.23-4.53,8.61-16.44,31.8-53.72,105.2c-20.93,41.08-40,78.25-53.88,105.07-7,13.41-12.64,24.24-16.63,31.7-2,3.72-3.56,6.61-4.65,8.55a17.51,17.51,0,0,1-1.77,2.91,18.2,18.2,0,0,1,1.34-3.13c1-2,2.4-5,4.29-8.74,3.77-7.57,9.31-18.47,16.22-31.91C162.08,370.44,181.38,333.42,202.75,292.57Z"/><path class="cls-1" d="M193.9,287l70.38-94.88,21.18-28.85,5.7-7.89,1.46-2.07a5.71,5.71,0,0,0,.47-.73,5.19,5.19,0,0,0-.55.67l-1.54,2-5.83,7.8L264,191.92l-69.5,95.51c-27.1,37.3-51.7,71-69.65,95.35-9,12.16-16.28,22-21.38,28.71-2.55,3.37-4.55,6-5.93,7.72a16.85,16.85,0,0,1-2.2,2.59,17.82,17.82,0,0,1,1.81-2.88c1.26-1.84,3.15-4.52,5.6-8,4.91-6.89,12.08-16.79,21-29C141.57,357.58,166.41,324,193.9,287Z"/><path class="cls-1" d="M186,280.16l84.28-82.78,25.41-25.21,6.86-6.9,1.76-1.82a5.33,5.33,0,0,0,.58-.64,4.92,4.92,0,0,0-.65.57l-1.83,1.74-7,6.8L270,197.11l-83.51,83.54C154,313.28,124.41,342.78,102.9,364c-10.75,10.62-19.5,19.17-25.59,25-3,2.94-5.42,5.2-7,6.71A18.45,18.45,0,0,1,67.68,398a17.37,17.37,0,0,1,2.24-2.56c1.52-1.62,3.81-4,6.77-7,5.91-6,14.54-14.71,25.25-25.37C123.36,341.72,153.12,312.44,186,280.16Z"/><path class="cls-1" d="M179.33,272.16l96.12-68.66,29-20.95c3.39-2.49,6-4.42,7.85-5.75l2-1.52a6.52,6.52,0,0,0,.67-.55,4.43,4.43,0,0,0-.73.46l-2.08,1.44-7.94,5.63-29,20.93-95.49,69.53c-37.25,27.17-71,51.72-95.58,69.34C71.89,350.88,61.92,358,55,362.81c-3.47,2.42-6.17,4.29-8,5.53a18.68,18.68,0,0,1-2.89,1.79,17.62,17.62,0,0,1,2.61-2.19c1.76-1.36,4.38-3.34,7.77-5.86,6.79-5,16.66-12.26,28.9-21.12C107.84,323.22,141.79,298.93,179.33,272.16Z"/><path class="cls-1" d="M174,263.21l105.68-52.78,31.94-16.16,8.65-4.45,2.24-1.19a8.21,8.21,0,0,0,.75-.43,3.89,3.89,0,0,0-.8.34l-2.28,1.09L311.41,194l-32,16.14L174.27,263.83c-41,21-78.23,40-105.24,53.55-13.5,6.79-24.45,12.23-32.05,15.93-3.8,1.85-6.76,3.27-8.78,4.21a18.08,18.08,0,0,1-3.14,1.31A16.46,16.46,0,0,1,28,337.08c1.95-1.07,4.85-2.61,8.59-4.57,7.49-3.92,18.37-9.51,31.84-16.35C95.36,302.47,132.69,283.78,174,263.21Z"/><path class="cls-1" d="M170.05,253.53,282.71,218l34.09-10.92,9.24-3,2.4-.82a4.41,4.41,0,0,0,.8-.32,6,6,0,0,0-.84.21l-2.42.73-9.29,2.89-34.1,10.9L170.26,254.2c-43.83,14.29-83.55,27.17-112.35,36.32-14.4,4.58-26.08,8.23-34.16,10.69-4.05,1.23-7.19,2.17-9.34,2.77a17.1,17.1,0,0,1-3.3.8,17.63,17.63,0,0,1,3.16-1.26c2.09-.76,5.19-1.82,9.2-3.17,8-2.69,19.64-6.5,34-11.14C86.25,279.93,126.06,267.35,170.05,253.53Z"/><path class="cls-1" d="M167.71,243.36,284.56,226l35.38-5.42,9.61-1.55,2.49-.43a5.63,5.63,0,0,0,.85-.19,6.66,6.66,0,0,0-.86.08l-2.51.34-9.63,1.39-35.39,5.4L167.82,244.05C122.28,251.26,81,257.73,51.15,262.24c-14.94,2.25-27,4-35.42,5.18-4.18.58-7.44,1-9.65,1.27a17.89,17.89,0,0,1-3.39.27A18.09,18.09,0,0,1,6,268.21c2.18-.42,5.42-1,9.59-1.68,8.33-1.4,20.41-3.33,35.34-5.65C80.81,256.24,122.1,250.09,167.71,243.36Z"/><path class="cls-1" d="M167,232.94l118.12,1,35.79.13,9.73,0,2.54,0a7,7,0,0,0,.86,0,4.73,4.73,0,0,0-.86-.06l-2.53-.06-9.74-.11-35.79-.15L167,233.64c-46.1.06-87.85.05-118.07-.14-15.11-.09-27.34-.22-35.79-.37-4.23-.07-7.51-.16-9.74-.24A18,18,0,0,1,0,232.64a17.26,17.26,0,0,1,3.39-.23c2.23-.06,5.51-.12,9.74-.16,8.45-.09,20.68-.12,35.79-.1C79.15,232.2,120.9,232.52,167,232.94Z"/><path class="cls-1" d="M167.9,222.53l116.53,19.34,35.34,5.68,9.62,1.48,2.51.35a4.67,4.67,0,0,0,.86.09,5.24,5.24,0,0,0-.84-.19l-2.49-.45-9.6-1.63-35.34-5.71-116.7-18.27c-45.55-7.1-86.79-13.59-116.62-18.47-14.91-2.44-27-4.46-35.3-5.93-4.16-.73-7.39-1.32-9.58-1.75A18.22,18.22,0,0,1,3,196.29a16.85,16.85,0,0,1,3.39.3c2.21.28,5.46.73,9.64,1.34,8.37,1.23,20.45,3.09,35.38,5.47C81.24,208.14,122.43,215,167.9,222.53Z"/><path class="cls-1" d="M170.43,212.39l112,37.46,34,11.18,9.27,3,2.42.75a6.93,6.93,0,0,0,.84.22,4.8,4.8,0,0,0-.81-.32l-2.38-.84-9.22-3.12-34-11.21L170.21,213.06C126.34,198.88,86.64,186,58,176.46,43.6,171.7,32,167.8,24,165c-4-1.38-7.09-2.47-9.18-3.24a17.46,17.46,0,0,1-3.14-1.29,16.49,16.49,0,0,1,3.3.82c2.13.63,5.27,1.58,9.31,2.85,8.06,2.52,19.71,6.27,34.07,11C87.11,184.53,126.72,197.74,170.43,212.39Z"/><path class="cls-1" d="M174.52,202.79l104.74,54.6,31.82,16.4,8.69,4.39L322,279.3a4.56,4.56,0,0,0,.79.34,6.48,6.48,0,0,0-.74-.44l-2.23-1.2-8.62-4.53-31.81-16.41L174.2,203.4c-41.09-20.91-78.27-39.9-105.1-53.81C55.68,142.64,44.85,137,37.39,133c-3.73-2-6.61-3.56-8.56-4.65a16.52,16.52,0,0,1-2.9-1.77,18.27,18.27,0,0,1,3.13,1.35c2,1,5,2.39,8.74,4.27,7.57,3.77,18.48,9.3,31.92,16.2C96.62,162.17,133.65,181.44,174.52,202.79Z"/><path class="cls-1" d="M180.06,193.94,275,264.25l28.87,21.17,7.89,5.69,2.07,1.46a7.5,7.5,0,0,0,.72.47,3.91,3.91,0,0,0-.66-.55l-2-1.54-7.8-5.82L275.2,263.94,179.65,194.5c-37.32-27.07-71.07-51.65-95.4-69.58-12.16-9-22-16.27-28.72-21.36-3.37-2.55-6-4.55-7.72-5.93a18.14,18.14,0,0,1-2.6-2.2,17.82,17.82,0,0,1,2.88,1.81c1.84,1.26,4.53,3.14,8,5.59,6.89,4.91,16.8,12.08,29,21C109.47,141.64,143,166.47,180.06,193.94Z"/><path class="cls-1" d="M186.91,186.07l82.83,84.21L295,295.68l6.91,6.86,1.81,1.76a4.92,4.92,0,0,0,.65.57,5.67,5.67,0,0,0-.57-.64L302,302.39l-6.8-7L270,270l-83.59-83.46C153.77,154,124.25,124.48,103,103,92.39,92.24,83.83,83.5,78,77.41c-2.93-3-5.2-5.42-6.71-7A17.77,17.77,0,0,1,69,67.78,17.37,17.37,0,0,1,71.59,70c1.62,1.53,4,3.81,7,6.76C84.63,82.7,93.31,91.32,104,102,125.31,123.43,154.61,153.17,186.91,186.07Z"/><path class="cls-1" d="M194.91,179.35l68.72,96.08,21,29c2.48,3.39,4.42,6,5.76,7.85l1.52,2a4.89,4.89,0,0,0,.54.67,4.43,4.43,0,0,0-.46-.73l-1.44-2.08c-1.31-1.84-3.2-4.51-5.64-7.93l-20.94-29-69.6-95.45c-27.19-37.23-51.75-71-69.39-95.53C116.12,72,109,62,104.18,55.08c-2.43-3.46-4.29-6.16-5.53-8a17.46,17.46,0,0,1-1.79-2.9A18.07,18.07,0,0,1,99,46.78c1.36,1.76,3.34,4.38,5.86,7.77,5,6.79,12.28,16.65,21.15,28.89C143.8,107.9,168.12,141.84,194.91,179.35Z"/><path class="cls-1" d="M203.85,174c20.64,41.25,39.32,78.58,52.85,105.64,6.82,13.47,12.34,24.37,16.18,31.94l4.46,8.65c.51,1,.9,1.7,1.19,2.23a6.69,6.69,0,0,0,.43.75,4.8,4.8,0,0,0-.34-.8l-1.1-2.28-4.32-8.71-16.15-31.95c-13.79-26.93-32.81-64.09-53.82-105.15s-40-78.21-53.61-105.21c-6.8-13.49-12.25-24.44-16-32-1.85-3.8-3.27-6.76-4.21-8.78a17.36,17.36,0,0,1-1.31-3.14A18.45,18.45,0,0,1,129.89,28c1.07,1.95,2.62,4.85,4.58,8.59C138.39,44.12,144,55,150.84,68.47,164.55,95.4,183.26,132.73,203.85,174Z"/><path class="cls-1" d="M213.53,170.06,249.1,282.7c4.62,14.37,8.35,26,11,34.08,1.31,4,2.34,7.1,3.05,9.24.35,1,.62,1.83.82,2.4a4.58,4.58,0,0,0,.31.8,4.39,4.39,0,0,0-.21-.83c-.17-.58-.41-1.38-.73-2.43-.67-2.16-1.64-5.28-2.9-9.29-2.59-8.08-6.31-19.72-10.92-34.09L212.86,170.27C198.54,126.45,185.64,86.75,176.47,58c-4.59-14.4-8.25-26.07-10.71-34.16-1.24-4-2.17-7.19-2.78-9.33a16.89,16.89,0,0,1-.8-3.31,19,19,0,0,1,1.27,3.16c.75,2.1,1.82,5.2,3.17,9.21,2.7,8,6.51,19.63,11.16,34C187.08,86.28,199.68,126.09,213.53,170.06Z"/><path class="cls-1" d="M223.7,167.72c6.8,45.62,13,86.91,17.41,116.83,2.3,14.92,4.16,27,5.45,35.38l1.55,9.61c.19,1.07.33,1.9.44,2.49a5.09,5.09,0,0,0,.18.85,5,5,0,0,0-.08-.86c-.08-.6-.19-1.43-.33-2.51-.33-2.24-.8-5.47-1.41-9.63-1.28-8.39-3.13-20.47-5.42-35.39-4.73-29.88-11.26-71.11-18.48-116.67S209.27,81.05,204.75,51.17c-2.26-14.94-4-27-5.21-35.41-.58-4.19-1-7.45-1.27-9.66A16.87,16.87,0,0,1,198,2.71,18.09,18.09,0,0,1,198.75,6c.41,2.19,1,5.42,1.68,9.59C201.84,24,203.78,36,206.1,51,210.76,80.83,217,122.11,223.7,167.72Z"/><path class="cls-1" d="M234.12,167c-.36,46.12-.68,87.86-.92,118.12,0,15.09-.08,27.31-.1,35.79,0,4.21,0,7.48,0,9.74,0,1.09,0,1.93,0,2.53a4.35,4.35,0,0,0,0,.86,5.65,5.65,0,0,0,.05-.86c0-.6,0-1.44.06-2.53,0-2.26.06-5.53.1-9.74,0-8.48.08-20.7.13-35.79,0-30.26-.09-72-.15-118.13s-.1-87.85.06-118.07c.08-15.11.2-27.34.35-35.79.07-4.23.15-7.51.24-9.74A17,17,0,0,1,234.32,0a17.93,17.93,0,0,1,.22,3.39c.07,2.23.13,5.51.18,9.74.09,8.45.13,20.68.11,35.79C234.8,79.15,234.51,120.9,234.12,167Z"/><path class="cls-1" d="M244.53,167.9c-7.52,45.5-14.33,86.69-19.26,116.54-2.39,14.9-4.33,27-5.67,35.34-.63,4.16-1.13,7.39-1.47,9.63-.15,1.08-.26,1.91-.35,2.5a5.08,5.08,0,0,0-.08.86,5.24,5.24,0,0,0,.19-.84q.15-.89.45-2.49c.37-2.23.92-5.45,1.62-9.6,1.34-8.38,3.29-20.44,5.68-35.34,4.67-29.9,11.1-71.14,18.2-116.71S257.37,81,262.23,51.15c2.43-14.91,4.45-27,5.91-35.3.73-4.17,1.32-7.4,1.75-9.58A16.67,16.67,0,0,1,270.67,3a17.87,17.87,0,0,1-.3,3.39c-.28,2.21-.73,5.46-1.34,9.64-1.22,8.36-3.08,20.45-5.45,35.38C258.86,81.22,252.08,122.42,244.53,167.9Z"/><path class="cls-1" d="M254.67,170.42c-14.6,43.75-27.81,83.35-37.38,112.05-4.71,14.34-8.51,25.95-11.16,34-1.28,4-2.28,7.12-3,9.27-.32,1-.57,1.85-.75,2.42a4.35,4.35,0,0,0-.21.84s.12-.27.32-.8.47-1.36.84-2.39c.72-2.14,1.76-5.24,3.11-9.23,2.65-8.06,6.46-19.66,11.18-34L254,170.2c14.15-43.88,27-83.59,36.53-112.29C295.27,43.57,299.17,32,301.92,24c1.38-4,2.47-7.09,3.24-9.18a17.85,17.85,0,0,1,1.29-3.15,17.25,17.25,0,0,1-.82,3.3c-.62,2.14-1.58,5.28-2.84,9.31-2.52,8.07-6.26,19.72-11,34.08C282.48,87.08,269.3,126.69,254.67,170.42Z"/><path class="cls-1" d="M264.28,174.5c-21.3,40.91-40.57,77.94-54.54,104.78l-16.38,31.83L189,319.8l-1.12,2.27a4.56,4.56,0,0,0-.34.79,6.48,6.48,0,0,0,.44-.74l1.2-2.23,4.52-8.62,16.4-31.82,53.58-105.27c20.89-41.1,39.85-78.29,53.75-105.13C324.35,55.62,330,44.79,334,37.33c2-3.73,3.55-6.62,4.63-8.56a18.09,18.09,0,0,1,1.77-2.91A16.64,16.64,0,0,1,339.06,29c-.95,2-2.39,5-4.27,8.75-3.76,7.57-9.29,18.48-16.17,31.93C304.84,96.57,285.6,133.62,264.28,174.5Z"/><path class="cls-1" d="M273.13,180l-70.25,95-21.15,28.88-5.69,7.9-1.46,2.07a4.7,4.7,0,0,0-.46.72,5.56,5.56,0,0,0,.55-.66l1.53-2,5.82-7.81,21.16-28.87c17.78-24.48,42.29-58.27,69.39-95.6s51.6-71.1,69.52-95.44c9-12.17,16.25-22,21.34-28.73,2.55-3.37,4.54-6,5.92-7.73a17.58,17.58,0,0,1,2.2-2.59A18.37,18.37,0,0,1,369.74,48c-1.25,1.84-3.14,4.52-5.59,8-4.89,6.89-12.06,16.8-21,29C325.38,109.41,300.58,143,273.13,180Z"/><path class="cls-1" d="M281,186.89l-84.17,82.88L171.46,295l-6.85,6.91-1.76,1.82a4.19,4.19,0,0,0-.58.65,7.53,7.53,0,0,0,.65-.58l1.83-1.74,7-6.81L197.11,270l83.41-83.64c32.52-32.67,62-62.21,83.51-83.46,10.75-10.63,19.48-19.2,25.56-25.07,3-2.94,5.42-5.2,7.05-6.71a17.94,17.94,0,0,1,2.57-2.22A18.26,18.26,0,0,1,397,71.49c-1.53,1.62-3.81,4-6.76,7-5.91,6-14.53,14.72-25.23,25.39C343.6,125.24,313.88,154.56,281,186.89Z"/><path class="cls-1" d="M287.72,194.87l-96,68.79-29,21-7.84,5.77-2,1.52a4.39,4.39,0,0,0-.67.55,5.56,5.56,0,0,0,.73-.46l2.08-1.45,7.93-5.64,29-21,95.4-69.65c37.22-27.21,71-51.8,95.49-69.46,12.26-8.83,22.22-15.93,29.14-20.78,3.46-2.43,6.16-4.3,8-5.54a17.7,17.7,0,0,1,2.89-1.79,18.07,18.07,0,0,1-2.61,2.18c-1.76,1.37-4.38,3.35-7.77,5.87-6.77,5-16.64,12.29-28.86,21.17C359.15,143.72,325.22,168.06,287.72,194.87Z"/><path class="cls-1" d="M293.11,203.81,187.5,256.73l-31.92,16.2-8.65,4.47-2.23,1.18c-.5.28-.75.43-.75.44a4.8,4.8,0,0,0,.8-.34l2.28-1.1,8.71-4.33,31.94-16.17L292.8,203.19c41-21.06,78.17-40.07,105.16-53.68,13.5-6.8,24.44-12.26,32-16,3.79-1.86,6.75-3.28,8.77-4.22a17.36,17.36,0,0,1,3.14-1.31,18.78,18.78,0,0,1-2.92,1.75c-1.95,1.07-4.84,2.62-8.59,4.58-7.48,3.93-18.35,9.53-31.82,16.39C371.65,164.46,334.34,183.19,293.11,203.81Z"/><path class="cls-1" d="M297,213.49,184.41,249.13l-34.07,11-9.24,3.06-2.4.82a6.78,6.78,0,0,0-.8.31,4.56,4.56,0,0,0,.84-.21l2.42-.73,9.29-2.9,34.08-10.95,112.29-36.67c43.81-14.35,83.51-27.29,112.3-36.47,14.39-4.6,26.06-8.27,34.15-10.74,4-1.23,7.18-2.17,9.33-2.78a17.79,17.79,0,0,1,3.3-.81,17.48,17.48,0,0,1-3.15,1.28c-2.1.75-5.2,1.82-9.21,3.17-8,2.71-19.62,6.53-34,11.18C380.79,187,341,199.61,297,213.49Z"/><path class="cls-1" d="M299.38,223.66,182.55,241.14l-35.37,5.48-9.61,1.56-2.49.43a6.85,6.85,0,0,0-.85.18,4.23,4.23,0,0,0,.86-.07l2.51-.34,9.63-1.41,35.38-5.45L299.27,223c45.53-7.27,86.76-13.79,116.64-18.34,14.94-2.27,27-4.06,35.41-5.22,4.19-.59,7.44-1,9.66-1.28a16.52,16.52,0,0,1,3.39-.28,18.5,18.5,0,0,1-3.32.76c-2.19.41-5.42,1-9.59,1.68-8.33,1.41-20.41,3.36-35.34,5.7C386.26,210.66,345,216.87,299.38,223.66Z"/><path class="cls-2" d="M346.7,56.4l1.05,1.74a11.85,11.85,0,0,0,4.94,4.55l1.82.9-1.74,1a11.91,11.91,0,0,0-4.55,4.94l-.9,1.82-1.05-1.74a12,12,0,0,0-4.94-4.55l-1.83-.9,1.75-1a12,12,0,0,0,4.55-4.94Z"/><path class="cls-2" d="M344.52,260.93l.64,1.07a7.3,7.3,0,0,0,3,2.78l1.12.55-1.07.64a7.33,7.33,0,0,0-2.78,3l-.55,1.11-.64-1.07a7.36,7.36,0,0,0-3-2.78l-1.12-.55,1.07-.64a7.36,7.36,0,0,0,2.78-3Z"/><path class="cls-2" d="M448.66,373.65l.64,1.07a7.3,7.3,0,0,0,3,2.78l1.12.55-1.07.65a7.3,7.3,0,0,0-2.78,3l-.55,1.11-.64-1.06a7.2,7.2,0,0,0-3-2.78l-1.11-.56,1.07-.64a7.36,7.36,0,0,0,2.78-3Z"/><path class="cls-2" d="M45.29,319.07l.64,1.07a7.3,7.3,0,0,0,3,2.78l1.12.55-1.07.65a7.3,7.3,0,0,0-2.78,3l-.55,1.11L45,327.19a7.26,7.26,0,0,0-3-2.79l-1.11-.55,1.06-.64a7.32,7.32,0,0,0,2.79-3Z"/><path class="cls-2" d="M170.88,21l.64,1.07a7.36,7.36,0,0,0,3,2.78l1.12.55-1.07.64a7.3,7.3,0,0,0-2.78,3l-.55,1.12-.64-1.07a7.33,7.33,0,0,0-3-2.78l-1.11-.55,1.07-.64a7.36,7.36,0,0,0,2.78-3Z"/><path class="cls-2" d="M68.23,31.43l.64,1.07a7.3,7.3,0,0,0,3,2.78l1.11.55-1.06.65a7.17,7.17,0,0,0-2.78,3l-.56,1.11L68,39.55a7.32,7.32,0,0,0-3-2.79l-1.12-.55,1.07-.64a7.3,7.3,0,0,0,2.78-3Z"/><path class="cls-2" d="M116.12,135.6l.64,1.06a7.23,7.23,0,0,0,3,2.78l1.12.56-1.07.64a7.3,7.3,0,0,0-2.78,3l-.55,1.12-.64-1.07a7.26,7.26,0,0,0-3-2.78l-1.11-.56,1.07-.64a7.36,7.36,0,0,0,2.78-3Z"/><path class="cls-2" d="M353.83,164.72l.64,1.06a7.23,7.23,0,0,0,3,2.78l1.12.56-1.07.64a7.3,7.3,0,0,0-2.78,3l-.55,1.12-.65-1.07a7.3,7.3,0,0,0-3-2.78l-1.11-.56,1.06-.64a7.23,7.23,0,0,0,2.78-3Z"/><path class="cls-2" d="M344.52,376.23l.64,1.07a7.3,7.3,0,0,0,3,2.78l1.12.55-1.07.64a7.33,7.33,0,0,0-2.78,3l-.55,1.11-.64-1.07a7.36,7.36,0,0,0-3-2.78l-1.12-.55,1.07-.64a7.36,7.36,0,0,0,2.78-3Z"/><path class="cls-2" d="M159.63,64.44l1.3,2.15A14.65,14.65,0,0,0,167,72.2l2.25,1.12-2.15,1.29a14.78,14.78,0,0,0-5.61,6.09L160.4,83l-1.3-2.15A14.78,14.78,0,0,0,153,75.19l-2.25-1.11,2.15-1.3a14.72,14.72,0,0,0,5.61-6.09Z"/><path class="cls-2" d="M439.21,53.73l1.29,2.15a14.67,14.67,0,0,0,6.1,5.61l2.25,1.12L446.7,63.9a14.76,14.76,0,0,0-5.62,6.1L440,72.25l-1.29-2.15a14.76,14.76,0,0,0-6.1-5.62l-2.25-1.11,2.15-1.29A14.76,14.76,0,0,0,438.1,56Z"/><path class="cls-2" d="M320.52,20.16l.75,1.25a8.56,8.56,0,0,0,3.54,3.26l1.31.65-1.25.75a8.57,8.57,0,0,0-3.26,3.54l-.64,1.3-.76-1.24a8.47,8.47,0,0,0-3.53-3.26l-1.31-.65,1.25-.75a8.57,8.57,0,0,0,3.26-3.54Z"/><path class="cls-2" d="M64.24,274.31l1.13,1.89a12.91,12.91,0,0,0,5.34,4.91l2,1-1.88,1.13a12.87,12.87,0,0,0-4.92,5.34l-1,2-1.14-1.89a12.88,12.88,0,0,0-5.33-4.91l-2-1,1.88-1.13a12.85,12.85,0,0,0,4.91-5.34Z"/><path class="cls-2" d="M393.41,383.58l1.13,1.89a13,13,0,0,0,5.34,4.91l2,1L400,392.49a12.9,12.9,0,0,0-4.92,5.33l-1,2-1.14-1.88a12.88,12.88,0,0,0-5.33-4.91l-2-1,1.88-1.13a12.93,12.93,0,0,0,4.92-5.34Z"/></g><g id="Desk"><path class="cls-3" d="M466.8,462.26c0,.14-101.89.26-227.55.26s-227.56-.12-227.56-.26S113.55,462,239.25,462,466.8,462.11,466.8,462.26Z"/></g><g id="Character_2" data-name="Character 2"><polygon class="cls-4" points="314.37 419.83 313.17 418.02 167.49 413.06 148.86 462.21 323.24 462 314.37 419.83"/><polygon class="cls-5" points="314.37 419.83 313.17 418.02 167.49 413.06 148.86 462.21 323.24 462 314.37 419.83"/><path class="cls-4" d="M384.26,285.47a6.66,6.66,0,0,0-3.14-5.21c-27.88-18.45-48.89-59.35-51-94q-.09-3-.19-6v0h0c-1.61-49.5-8.9-109.55-15.44-125.55-12.09-29.56-53-32.34-53-32.34-54.35-3.89-64.06,37.88-69.55,75.91-3.41,23.66-16.55,108.16-16.55,108.16l10,3.86c11.77,34.88,38.27,63.08,72.71,76.05,10,3.78,18.5,5.29,22.48,2a136.77,136.77,0,0,0,57.2,34.73c8.78,2.67,18,4.45,27.11,3.6,5.93-.56,12.19-2.52,15.72-7.31a13.63,13.63,0,0,0-11.68-21.71C370.93,291,384.49,293,384.26,285.47Z"/><g class="cls-6"><path d="M384.26,285.47a6.66,6.66,0,0,0-3.14-5.21c-27.88-18.45-48.89-59.35-51-94q-.09-3-.19-6v0h0c-1.61-49.5-8.9-109.55-15.44-125.55-12.09-29.56-53-32.34-53-32.34-54.35-3.89-64.06,37.88-69.55,75.91-3.41,23.66-16.55,108.16-16.55,108.16l10,3.86c11.77,34.88,38.27,63.08,72.71,76.05,10,3.78,18.5,5.29,22.48,2a136.77,136.77,0,0,0,57.2,34.73c8.78,2.67,18,4.45,27.11,3.6,5.93-.56,12.19-2.52,15.72-7.31a13.63,13.63,0,0,0-11.68-21.71C370.93,291,384.49,293,384.26,285.47Z"/></g><path class="cls-4" d="M268.68,37.75l-3.4-3.24L228.53,49.32a10.26,10.26,0,0,0-9.68,9.93L219.17,179c0,8.11,1.58,15.15,6.48,21.62l5.16,6.81c11.77,15.54,36,14.26,45.29-2.86a13.18,13.18,0,0,0,1.3-3.1,23.59,23.59,0,0,0,.55-2.67c1.09-9.64,1.15-18,1.15-18,.66-10.57.87-14.91.87-14.81s22.51-2.59,28.59-31.48c3-14.37,2.46-34.13,1.61-53.59C309,54,290.32,37.73,268.68,37.75Z"/><g class="cls-6"><path d="M261.15,97a3.74,3.74,0,0,1-3.79,3.59,3.59,3.59,0,0,1-3.69-3.56,3.75,3.75,0,0,1,3.79-3.59A3.59,3.59,0,0,1,261.15,97Z"/></g><g class="cls-6"><path d="M299.13,98.07a3.74,3.74,0,0,1-3.79,3.58,3.57,3.57,0,0,1-3.68-3.56,3.75,3.75,0,0,1,3.78-3.59A3.59,3.59,0,0,1,299.13,98.07Z"/></g><g class="cls-6"><path d="M306.33,88.61c-.49.46-3.22-1.77-7.24-2s-7.06,1.67-7.47,1.15c-.21-.23.31-1.08,1.64-2a10.21,10.21,0,0,1,6-1.53A9.87,9.87,0,0,1,305,86.49C306.19,87.5,306.57,88.4,306.33,88.61Z"/></g><g class="cls-6"><path d="M265.54,89c-.53.42-3-2.09-7-2.69s-7.2.94-7.56.38c-.17-.25.42-1,1.84-1.77A10.25,10.25,0,0,1,259,84a9.83,9.83,0,0,1,5.47,2.75C265.52,87.91,265.8,88.84,265.54,89Z"/></g><g class="cls-6"><path d="M279.58,118.28c0-.23,2.51-.54,6.59-.85,1-.06,2-.21,2.22-.9s-.09-1.86-.53-3.08q-1.26-3.8-2.65-8c-3.65-11.34-6.24-20.64-5.79-20.79s3.8,8.93,7.45,20.27l2.52,8c.33,1.18.93,2.54.33,4a2.62,2.62,0,0,1-1.77,1.42,6.57,6.57,0,0,1-1.75.15C282.12,118.62,279.59,118.51,279.58,118.28Z"/></g><g class="cls-7"><path d="M280,166a74.15,74.15,0,0,1-38.47-12.36s8.79,20.65,38.07,19.38Z"/></g><path class="cls-4" d="M277.4,127.88a7.25,7.25,0,0,0-6.36-3,6.62,6.62,0,0,0-4.69,2.22,4.2,4.2,0,0,0-.56,4.77c1,1.58,3.26,2,5.21,1.6a15.37,15.37,0,0,0,5.29-2.81,4.47,4.47,0,0,0,1.2-1.13,1.33,1.33,0,0,0,.07-1.5"/><g class="cls-7"><path d="M277.4,127.88a7.25,7.25,0,0,0-6.36-3,6.62,6.62,0,0,0-4.69,2.22,4.2,4.2,0,0,0-.56,4.77c1,1.58,3.26,2,5.21,1.6a15.37,15.37,0,0,0,5.29-2.81,4.47,4.47,0,0,0,1.2-1.13,1.33,1.33,0,0,0,.07-1.5"/></g><g class="cls-6"><path d="M268.7,74.5c-.79.86-4.29-1.18-8.86-2.49s-8.59-1.61-8.79-2.76c-.07-.54.94-1.23,2.77-1.61a16,16,0,0,1,13.44,4C268.59,73,269.06,74.09,268.7,74.5Z"/></g><g class="cls-6"><path d="M303.69,79c-.63,1-3.47.24-6.79.46s-6.09,1.1-6.82.2c-.32-.44.05-1.39,1.21-2.35a9.56,9.56,0,0,1,5.41-1.93,9.41,9.41,0,0,1,5.56,1.4C303.51,77.65,304,78.55,303.69,79Z"/></g><path class="cls-4" d="M219.58,110.35s20.58,6.4,32.23-44.4c4-17.37,20.09-31.44,20.09-31.44l-6.53-2S224.78,44,224.09,44.5s-10.24,21-10.24,21Z"/><path class="cls-4" d="M224.65,108.45c.11-2.16-2.14-7.4-4.27-7.84-5.67-1.18-16-1.24-16.83,13.28-1.13,19.85,19,16.88,19.1,16.32S224.3,115.94,224.65,108.45Z"/><g class="cls-6"><path d="M217,122.34c-.09-.06-.36.23-1,.46a3.49,3.49,0,0,1-2.59-.09c-2.05-.89-3.63-4.32-3.52-7.9a11.44,11.44,0,0,1,1.24-4.9A4,4,0,0,1,214,107.4a1.77,1.77,0,0,1,2,1.07c.24.57.09,1,.19,1s.45-.31.33-1.14a2.19,2.19,0,0,0-.71-1.29,2.61,2.61,0,0,0-1.88-.61c-1.54,0-3,1.35-3.79,2.87a11.86,11.86,0,0,0-1.51,5.46c-.1,4,1.73,7.87,4.56,8.86a3.74,3.74,0,0,0,3.19-.34C217,122.82,217.08,122.38,217,122.34Z"/></g><g class="cls-6"><path d="M219.58,110.35s20.58,6.4,32.23-44.4c4-17.37,20.09-31.44,20.09-31.44l-6.53-2S224.78,44,224.09,44.5s-10.24,21-10.24,21Z"/></g><path class="cls-4" d="M267.62,120.47c.65,0,.44,4.35,4,7.64s8.25,3,8.25,3.65c.05.27-1.08.79-3,.75a10.87,10.87,0,0,1-6.9-2.8,9.46,9.46,0,0,1-3.1-6.39C266.78,121.48,267.32,120.43,267.62,120.47Z"/><g class="cls-6"><path d="M267.62,120.47c.65,0,.44,4.35,4,7.64s8.25,3,8.25,3.65c.05.27-1.08.79-3,.75a10.87,10.87,0,0,1-6.9-2.8,9.46,9.46,0,0,1-3.1-6.39C266.78,121.48,267.32,120.43,267.62,120.47Z"/></g><path class="cls-4" d="M423.53,121.75s26.54,53.38,31,64.6c3.9,9.71,25.46,55.2,18.8,67.82s-12.59,12-21.88,12.47-69.72-2-85.38-2.63c-19.94-.83-41.86-6.49-41.86-6.49l10.28-54.69,79.88,14.86h0l-13.5-86.8Z"/><path class="cls-4" d="M423.69,122.14S419.08,114,416.23,112s-26-22.26-26-22.26-9.08-9.62-11.57-9.09-26.19,16.39-26.36,18.88,1.06,3.92,2.49,4.28-.71,2,3,5.7c0,0-3.56-.18-3.39,3.21s0,8,2.32,8.19,9.62,2.31,10-1.6l.72-1.61a69.51,69.51,0,0,0,11.93,6.77c5.7,2.32,14.78,2.14,14.78,2.14a10.56,10.56,0,0,0,6.77,4.27C405.19,131.43,423.69,122.14,423.69,122.14Z"/><g class="cls-6"><path d="M388.18,107.52a4.52,4.52,0,0,0-1.24,2.67,11.33,11.33,0,0,0,1.06,7,21.2,21.2,0,0,0,4.27,5.66c1.29,1.25,2.17,1.94,2.25,1.85s-.62-.94-1.77-2.3a27.48,27.48,0,0,1-3.92-5.61,12.2,12.2,0,0,1-1.25-6.53C387.77,108.57,388.32,107.59,388.18,107.52Z"/></g><g class="cls-6"><path d="M377.28,112.22s0,.2.19.39a1.61,1.61,0,0,0,1.1.3,4.39,4.39,0,0,0,3-1.78,5.13,5.13,0,0,0,1.1-3.29c-.05-.9-.34-1.4-.45-1.36s-.08.55-.2,1.33a6.07,6.07,0,0,1-1.18,2.76,4.86,4.86,0,0,1-2.37,1.7C377.76,112.47,377.38,112.15,377.28,112.22Z"/></g><g class="cls-6"><path d="M386.16,89.56a2.65,2.65,0,0,0-2.27.18,5.82,5.82,0,0,0-2.12,1.7c-.68.82-1.27,1.84-2,2.91a86.48,86.48,0,0,1-5.39,7.3c-1.08,1.32-2.26,2.67-3.53,4a8.18,8.18,0,0,0-1.76,2.43,3.53,3.53,0,0,0,.35,3.2,10.46,10.46,0,0,0,2,2.28c.72.66,1.45,1.29,2.18,1.88a34.18,34.18,0,0,0,4.45,3.16,5.47,5.47,0,0,0,2.59.71,5,5,0,0,0,2.43-.72,8.72,8.72,0,0,0,3.12-3.09,4.2,4.2,0,0,0,.28-3.63,2.69,2.69,0,0,0-2.15-1.69,2.31,2.31,0,0,0-1.69.4c-.32.24-.4.45-.38.46a2.42,2.42,0,0,1,2-.51,2.31,2.31,0,0,1,1.73,1.53,3.68,3.68,0,0,1-.37,3.12,8,8,0,0,1-2.92,2.74,4.19,4.19,0,0,1-2.06.58,4.57,4.57,0,0,1-2.19-.65,36.57,36.57,0,0,1-4.28-3.11c-.72-.58-1.43-1.2-2.13-1.85a9.55,9.55,0,0,1-1.86-2.08,2.57,2.57,0,0,1-.28-2.4,7.32,7.32,0,0,1,1.56-2.15c1.27-1.38,2.45-2.76,3.53-4.1a72.56,72.56,0,0,0,5.27-7.49c.69-1.11,1.24-2.14,1.85-2.94a5.7,5.7,0,0,1,1.87-1.7A4.7,4.7,0,0,1,386.16,89.56Z"/></g><g class="cls-6"><path d="M382,106.58c-.1.06,0,.48.39,1a4.82,4.82,0,0,0,4.77,1.74c.66-.17,1-.44,1-.54-.08-.25-1.59.13-3.28-.52S382.19,106.44,382,106.58Z"/></g><g class="cls-6"><path d="M376.84,86.35a8,8,0,0,0-1.36,1.4c-.83,1-2,2.33-3.45,4.06s-3.17,3.83-5,6.08l-2.94,3.61a26.62,26.62,0,0,0-3,4.11,5.53,5.53,0,0,0-.38,5.2,11.16,11.16,0,0,0,3.37,3.43c2.39,1.78,4.41,3.49,6.38,4.7a6.53,6.53,0,0,0,3,1,4.46,4.46,0,0,0,2.31-.55c1.16-.69,1.3-1.54,1.26-1.52a4.23,4.23,0,0,1-1.43,1.2,4.09,4.09,0,0,1-2.11.35,6.16,6.16,0,0,1-2.69-1c-1.81-1.21-3.84-3-6.19-4.82a10.42,10.42,0,0,1-3.08-3.16,4.68,4.68,0,0,1,.38-4.37,28.12,28.12,0,0,1,2.87-4l2.9-3.64,4.87-6.21C373.91,90.44,375,89,375.76,88A8,8,0,0,0,376.84,86.35Z"/></g><g class="cls-6"><path d="M369.11,88.18c-.23-.16-3.14,4.33-8,8.64a28.78,28.78,0,0,0-3.32,3.3,9.19,9.19,0,0,0-1.82,3.45c-.58,2.23.17,3.6.24,3.52a9.89,9.89,0,0,1,.38-3.33,9.34,9.34,0,0,1,1.85-3.1,33.5,33.5,0,0,1,3.29-3.15,37.81,37.81,0,0,0,5.66-6.29A10.42,10.42,0,0,0,369.11,88.18Z"/></g><g class="cls-6"><path d="M357.92,113.56c0,.33,2.62,0,5.44,1a7.53,7.53,0,0,1,3.09,2.08c.63.73.88,1.31,1,1.27s.08-.72-.5-1.66a6.48,6.48,0,0,0-3.3-2.55,9.71,9.71,0,0,0-4.09-.49C358.54,113.26,357.91,113.44,357.92,113.56Z"/></g><path class="cls-5" d="M414.62,217.14a9.65,9.65,0,0,0,1.23,3.05A37.61,37.61,0,0,0,426,232.28a9.48,9.48,0,0,0,2.78,1.74c.18-.22-3.88-3.15-7.77-7.84S414.88,217,414.62,217.14Z"/><polygon class="cls-8" points="355.85 263.21 364.9 208.48 371.09 209.63 363.96 263.9 355.85 263.21"/><path class="cls-4" d="M53,100.44s-26.54,53.38-31,64.6c-3.91,9.71-25.46,55.2-18.8,67.82s12.59,12,21.88,12.47,69.72-2,85.38-2.63c19.94-.83,41.86-6.49,41.86-6.49L142,181.52,62.07,196.38h0l13.5-86.8Z"/><path class="cls-4" d="M52.79,100.84s4.61-8.18,7.46-10.14,26-22.26,26-22.26,9.09-9.62,11.58-9.08S124,75.74,124.19,78.24s-1.07,3.91-2.49,4.27.71,2-3,5.7c0,0,2.51-.07,3.39,3.21s1,6.32-2.32,8.19c-2.51,1.42-8.52,2.84-10.62-3.06l-.07-.15a69.51,69.51,0,0,1-11.93,6.77c-5.7,2.32-14.78,2.14-14.78,2.14a10.56,10.56,0,0,1-6.77,4.27C71.29,110.12,52.79,100.84,52.79,100.84Z"/><g class="cls-6"><path d="M88.3,86.21c.07-.06.86.84,1.24,2.68a11.25,11.25,0,0,1-1.07,7,21,21,0,0,1-4.26,5.66c-1.3,1.25-2.17,1.94-2.26,1.85a11.06,11.06,0,0,1,1.78-2.3,27.48,27.48,0,0,0,3.92-5.61A12.2,12.2,0,0,0,88.9,89C88.71,87.26,88.16,86.28,88.3,86.21Z"/></g><g class="cls-6"><path d="M99.2,90.91s0,.2-.19.39a1.59,1.59,0,0,1-1.1.3,4.39,4.39,0,0,1-3-1.78,5.13,5.13,0,0,1-1.1-3.29c0-.9.34-1.4.45-1.36s.08.55.2,1.33a5.92,5.92,0,0,0,1.18,2.76A4.79,4.79,0,0,0,98,91C98.72,91.16,99.1,90.84,99.2,90.91Z"/></g><g class="cls-6"><path d="M90.32,68.25a2.65,2.65,0,0,1,2.27.18,5.82,5.82,0,0,1,2.12,1.7C95.39,71,96,72,96.69,73a84.34,84.34,0,0,0,5.39,7.3c1.08,1.32,2.26,2.67,3.53,4a8,8,0,0,1,1.75,2.43A3.49,3.49,0,0,1,107,90a10.76,10.76,0,0,1-2,2.29c-.72.65-1.45,1.28-2.18,1.87a34.18,34.18,0,0,1-4.45,3.16,5.36,5.36,0,0,1-2.59.71,5,5,0,0,1-2.43-.72,8.64,8.64,0,0,1-3.12-3.09,4.2,4.2,0,0,1-.28-3.63,2.71,2.71,0,0,1,2.15-1.69,2.31,2.31,0,0,1,1.69.4c.32.25.4.45.38.46a2.42,2.42,0,0,0-2-.51,2.3,2.3,0,0,0-1.73,1.54,3.63,3.63,0,0,0,.37,3.11,8,8,0,0,0,2.92,2.74,4.19,4.19,0,0,0,2.06.58A4.67,4.67,0,0,0,98,96.58a35.58,35.58,0,0,0,4.28-3.12c.72-.58,1.43-1.2,2.13-1.85a9.82,9.82,0,0,0,1.86-2.08,2.59,2.59,0,0,0,.28-2.4A7.65,7.65,0,0,0,105,85c-1.27-1.38-2.46-2.75-3.53-4.1a72.56,72.56,0,0,1-5.27-7.49c-.69-1.11-1.24-2.14-1.85-2.94a5.7,5.7,0,0,0-1.87-1.7A4.7,4.7,0,0,0,90.32,68.25Z"/></g><g class="cls-6"><path d="M94.51,85.27c.1.06,0,.48-.39,1A4.82,4.82,0,0,1,89.35,88c-.66-.17-1-.44-1-.54.08-.25,1.59.13,3.28-.51S94.29,85.13,94.51,85.27Z"/></g><g class="cls-6"><path d="M99.64,65A7.86,7.86,0,0,1,101,66.45c.83.94,2,2.32,3.45,4l5,6.08,2.94,3.61a27.3,27.3,0,0,1,3,4.11,5.53,5.53,0,0,1,.38,5.2,11,11,0,0,1-3.38,3.43C110,94.71,108,96.42,106,97.64a6.63,6.63,0,0,1-3,1,4.46,4.46,0,0,1-2.31-.55c-1.17-.69-1.3-1.54-1.27-1.52a4.52,4.52,0,0,0,1.43,1.2,4.15,4.15,0,0,0,2.12.36,6.1,6.1,0,0,0,2.68-1c1.81-1.21,3.85-3,6.19-4.82A10.45,10.45,0,0,0,115,89.1a4.68,4.68,0,0,0-.38-4.37,28.12,28.12,0,0,0-2.87-4l-2.9-3.64-4.87-6.21c-1.37-1.77-2.47-3.22-3.22-4.23A8,8,0,0,1,99.64,65Z"/></g><g class="cls-6"><path d="M107.37,66.87c.23-.16,3.14,4.33,8,8.64a28.89,28.89,0,0,1,3.33,3.3,9.33,9.33,0,0,1,1.82,3.45c.58,2.23-.17,3.6-.24,3.53a9.94,9.94,0,0,0-.38-3.34,9.34,9.34,0,0,0-1.85-3.1,34.67,34.67,0,0,0-3.29-3.15,37.37,37.37,0,0,1-5.66-6.29A10.42,10.42,0,0,1,107.37,66.87Z"/></g><g class="cls-6"><path d="M119.08,92.62c0,.32-2.62,0-5.44,1a7.62,7.62,0,0,0-3.09,2.07c-.63.73-.88,1.32-1,1.27s-.08-.72.49-1.65a6.49,6.49,0,0,1,3.3-2.56,9.87,9.87,0,0,1,4.09-.49C118.47,92.31,119.09,92.5,119.08,92.62Z"/></g><path class="cls-5" d="M61.86,195.83a9.65,9.65,0,0,1-1.23,3A37.47,37.47,0,0,1,50.52,211a9.86,9.86,0,0,1-2.77,1.75c-.18-.23,3.88-3.16,7.77-7.85S61.6,195.7,61.86,195.83Z"/><polygon class="cls-8" points="126.81 241.25 116.47 186.26 110.56 187.36 117.62 242.21 126.81 241.25"/><path class="cls-4" d="M165.18,380.59s-13-88.21-13-101c0-5.05-2.68-38.16-2.68-38.16l-22.37,2-11.33-60.28s44.45-8,56.4-8.61,52.16,5.53,52.16,5.53l71.53,11.29s19.81,3.17,19.61,3l49.56,12.82-9.32,56.41-29.51-1.14.18,35.67c-.38,2.7,1.93,16.19-15.8,37.78l-3,37.57L321,441.84H156.74Z"/><g class="cls-6"><path d="M279.18,188.76c.16.09-.24,1.11-1.41,2.64a24.87,24.87,0,0,1-6.07,5.47,32.1,32.1,0,0,1-11.28,4.52c-1.13.18-2.29.42-3.48.55s-2.42.22-3.66.26-2.51,0-3.79,0l-3.91-.4a35.64,35.64,0,0,1-14-5.1,33.3,33.3,0,0,1-8.88-8.28,30.47,30.47,0,0,1-4-7.1c-.69-1.79-.85-2.86-.68-2.91s.65.87,1.59,2.48a44.85,44.85,0,0,0,4.5,6.38,35,35,0,0,0,8.7,7.39A35.81,35.81,0,0,0,246,199.19a45.74,45.74,0,0,0,14-.15,33.79,33.79,0,0,0,10.78-3.74,32,32,0,0,0,6.26-4.57C278.37,189.46,279,188.66,279.18,188.76Z"/></g><g class="cls-6"><path d="M279.16,282.74c.28-.08,1.65,3.36,1.95,9.26a41.64,41.64,0,0,1-.8,10.33,42.52,42.52,0,0,1-12,22.11,41.81,41.81,0,0,1-8.22,6.31c-5.12,3-8.75,3.68-8.83,3.4s3.19-1.72,7.84-4.95A46.19,46.19,0,0,0,279.27,292C279.45,286.35,278.74,282.83,279.16,282.74Z"/></g></g><g id="Character_1" data-name="Character 1"><path class="cls-3" d="M65.23,365.91a5.74,5.74,0,0,1,2.71-4.5c24.06-15.92,42.19-51.22,44-81.1.05-1.7.1-3.43.16-5.17v0h0c1.39-42.72,7.68-94.54,13.33-108.35,10.43-25.51,45.77-27.91,45.77-27.91,46.9-3.35,55.28,32.69,60,65.51,3,20.42,14.29,93.34,14.29,93.34l-8.62,3.34c-10.16,30.09-33,54.43-62.75,65.63-8.65,3.25-16,4.56-19.41,1.76a118,118,0,0,1-49.35,30c-7.58,2.31-15.52,3.85-23.4,3.11-5.12-.48-10.52-2.17-13.57-6.31a11.76,11.76,0,0,1,10.09-18.73C76.73,370.7,65,372.4,65.23,365.91Z"/><path class="cls-9" d="M165,152.13l2.94-2.8,31.71,12.78a8.86,8.86,0,0,1,8.36,8.57L207.7,274c0,7-1.36,13.08-5.59,18.66l-4.46,5.88c-10.15,13.41-31,12.3-39.08-2.47a11.38,11.38,0,0,1-1.12-2.67,20.62,20.62,0,0,1-.47-2.31c-.95-8.31-1-15.52-1-15.52-.57-9.13-.75-12.87-.75-12.79s-19.43-2.23-24.68-27.16c-2.61-12.4-2.12-29.46-1.38-46.25C130.18,166.14,146.3,152.11,165,152.13Z"/><path class="cls-3" d="M171.48,203.29a3.23,3.23,0,0,0,3.27,3.1,3.08,3.08,0,0,0,3.17-3.07,3.22,3.22,0,0,0-3.26-3.1A3.08,3.08,0,0,0,171.48,203.29Z"/><path class="cls-3" d="M138.7,204.18a3.22,3.22,0,0,0,3.27,3.09,3.08,3.08,0,0,0,3.17-3.07,3.23,3.23,0,0,0-3.26-3.1A3.09,3.09,0,0,0,138.7,204.18Z"/><path class="cls-3" d="M132.48,196c.43.4,2.78-1.53,6.25-1.7s6.09,1.44,6.45,1c.17-.2-.27-.94-1.42-1.69a8.89,8.89,0,0,0-5.19-1.32,8.46,8.46,0,0,0-4.94,1.88C132.6,195.06,132.28,195.84,132.48,196Z"/><path class="cls-3" d="M167.68,196.37c.46.36,2.61-1.8,6-2.32s6.21.81,6.52.33c.15-.21-.36-.9-1.59-1.53a8.83,8.83,0,0,0-5.3-.78,8.48,8.48,0,0,0-4.72,2.37C167.7,195.41,167.46,196.22,167.68,196.37Z"/><path class="cls-3" d="M155.56,221.62c0-.2-2.16-.46-5.68-.73-.89,0-1.74-.18-1.92-.78a4.57,4.57,0,0,1,.46-2.65q1.1-3.28,2.28-6.88c3.16-9.78,5.4-17.81,5-17.93s-3.27,7.7-6.43,17.49c-.75,2.41-1.48,4.71-2.17,6.91-.28,1-.8,2.19-.28,3.49a2.24,2.24,0,0,0,1.52,1.23,6,6,0,0,0,1.51.13C153.38,221.91,155.56,221.82,155.56,221.62Z"/><path class="cls-10" d="M155.23,262.78a63.93,63.93,0,0,0,33.2-10.66s-7.59,17.82-32.86,16.73Z"/><path class="cls-10" d="M157.45,229.91a6.28,6.28,0,0,1,5.49-2.61,5.71,5.71,0,0,1,4,1.92,3.6,3.6,0,0,1,.48,4.12c-.87,1.36-2.81,1.77-4.48,1.38a13.35,13.35,0,0,1-4.57-2.42,3.9,3.9,0,0,1-1-1,1.15,1.15,0,0,1-.06-1.29"/><path class="cls-3" d="M165.89,223.51c-.56,0-.38,3.76-3.47,6.59s-7.12,2.62-7.12,3.15c0,.24.93.69,2.63.65a9.38,9.38,0,0,0,5.95-2.42,8.16,8.16,0,0,0,2.67-5.51C166.61,224.39,166.15,223.47,165.89,223.51Z"/><path class="cls-3" d="M164.36,182.85c.48.89,3.84-.08,7.94-.21s7.53.46,7.94-.46c.17-.43-.53-1.22-2-1.93a13.8,13.8,0,0,0-12.09.51C164.78,181.59,164.15,182.43,164.36,182.85Z"/><path class="cls-3" d="M133,181.11c.65.76,3-.18,5.87-.36s5.34.26,5.85-.59c.23-.41-.19-1.18-1.29-1.87a8.55,8.55,0,0,0-9.45.76C133,179.92,132.7,180.74,133,181.11Z"/><path class="cls-3" d="M207.35,214.78s-17.77,5.52-27.82-38.32c-3.44-15-17.33-27.13-17.33-27.13l5.63-1.69s35,9.86,35.62,10.31,8.84,18.11,8.84,18.11Z"/><path class="cls-9" d="M203,213.14c-.09-1.87,1.85-6.39,3.69-6.77,4.89-1,13.81-1.07,14.52,11.46,1,17.13-16.43,14.57-16.48,14.08S203.28,219.61,203,213.14Z"/><path class="cls-10" d="M209.56,225.13c.07-.06.31.19.83.39a2.94,2.94,0,0,0,2.23-.08c1.77-.76,3.13-3.72,3-6.82a9.68,9.68,0,0,0-1.08-4.22,3.44,3.44,0,0,0-2.37-2.16,1.53,1.53,0,0,0-1.72.91c-.2.5-.07.83-.16.87s-.38-.27-.29-1a1.93,1.93,0,0,1,.62-1.12,2.28,2.28,0,0,1,1.62-.53,4.21,4.21,0,0,1,3.27,2.48,10.11,10.11,0,0,1,1.31,4.72c.08,3.46-1.5,6.79-3.94,7.64a3.18,3.18,0,0,1-2.75-.3C209.61,225.54,209.5,225.16,209.56,225.13Z"/><path class="cls-3" d="M195.3,206.39a25,25,0,0,1-2.57-.52,15.41,15.41,0,0,1-6.1-3.54,21.27,21.27,0,0,1-3.18-3.72,29.06,29.06,0,0,1-2.59-5,106.49,106.49,0,0,1-3.69-12.46c-1.2-4.46-2.51-8.68-3.94-12.44a71.86,71.86,0,0,0-4.46-9.67,49.85,49.85,0,0,0-3.93-6c-.5-.68-.94-1.17-1.22-1.52a4.52,4.52,0,0,0-.46-.51,3.64,3.64,0,0,0,.39.57c.25.36.67.87,1.15,1.56a59.33,59.33,0,0,1,3.79,6.07,75.79,75.79,0,0,1,4.35,9.67c1.4,3.75,2.69,8,3.89,12.41a104.74,104.74,0,0,0,3.74,12.5,28.39,28.39,0,0,0,2.67,5.06,21.08,21.08,0,0,0,3.28,3.75,15.1,15.1,0,0,0,6.26,3.47A9.64,9.64,0,0,0,195.3,206.39Z"/><path class="cls-11" d="M218.71,279.48a4.77,4.77,0,0,0,.18-.83c.11-.6.25-1.41.44-2.43.36-2.2.88-5.33,1.54-9.3l-.42-.06c-.08.62-.18,1.31-.28,2l0-.06-.36.76.43.16a164.07,164.07,0,0,0,5.49-27.57,166.15,166.15,0,0,0,1.05-17.84c-.06-6.26,0-12.91-1.69-19.55A30.9,30.9,0,0,0,222,197a42.85,42.85,0,0,0-4.73-6.6c-3.49-4-7.24-7.48-10.67-10.92L188.2,161.39l-12.44-12.15L172.35,146l-.91-.84a1.47,1.47,0,0,0-.32-.27,1.63,1.63,0,0,0,.27.33l.84.89c.8.81,1.91,1.94,3.31,3.38l12.27,12.32L206.09,180c3.41,3.45,7.16,6.92,10.58,10.9A33.81,33.81,0,0,1,224.35,205c1.65,6.5,1.62,13.12,1.69,19.36a170.56,170.56,0,0,1-1,17.76,171.86,171.86,0,0,1-5.24,27.53l.43.16c.12-.28.24-.55.35-.78v-.06c.08-.72.17-1.41.25-2l-.42-.06c-.57,4-1,7.13-1.34,9.33l-.33,2.45A5.35,5.35,0,0,0,218.71,279.48Z"/><path class="cls-11" d="M232.19,200.29a2.8,2.8,0,0,0-.3-.73c-.26-.54-.59-1.2-1-2-.87-1.74-2.24-4.21-4-7.2s-4.08-6.47-6.78-10.21-5.89-7.69-9.44-11.66S203.45,161,200,157.85s-6.64-5.74-9.43-7.83-5.09-3.73-6.73-4.78L182,144a3.38,3.38,0,0,0-.69-.38s.19.2.6.51l1.81,1.33c1.58,1.12,3.84,2.81,6.56,5s5.9,4.82,9.29,7.92,6.94,6.69,10.5,10.62,6.69,7.89,9.44,11.57,5.05,7.12,6.89,10.07,3.29,5.36,4.24,7.06l1.12,1.94A3.46,3.46,0,0,0,232.19,200.29Z"/><path class="cls-3" d="M209.37,338.35a10.77,10.77,0,0,0,1.17-1.71c.72-1.12,1.75-2.75,3.07-4.72a174.93,174.93,0,0,1,11-14.93,84.43,84.43,0,0,1,13.15-13,71,71,0,0,1,6.44-4.17,10.55,10.55,0,0,0-1.92.78,18.64,18.64,0,0,0-2.15,1.17,26.78,26.78,0,0,0-2.7,1.77,76.21,76.21,0,0,0-13.42,13,137,137,0,0,0-10.9,15.13c-1.27,2-2.23,3.7-2.87,4.87A10.84,10.84,0,0,0,209.37,338.35Z"/><path class="cls-11" d="M223.55,423.4,252,297l-29-15.49c-.6-.87-15.27-7.49-15.27-7.49a54.44,54.44,0,0,1-15,15.87c-17.57,10.61-35.19,1.95-36.69-14.3h0l-16.07,4.52-31.06,5.35s-25.28,65.9-21.93,91.68-1.32,70.39-1.32,70.39L83,462.26l26.39.54h4.34l58.86-.33,51.37-.21C217.92,444.84,223.55,423.4,223.55,423.4Z"/><path class="cls-9" d="M65.58,434.1a27.2,27.2,0,0,1-24.9-13.63A19.44,19.44,0,0,1,38.05,411c0-13.73,8.54-33.43,11.38-40.51,4.09-10.23,43.09-81,47.77-80s7.24,1.36,7.24,1.36L82.25,392.6l70.61,11.58-7.75,27Z"/><path class="cls-11" d="M63.75,327.53l35.89,19,11.85-61.13s-15.2,1.37-20.21,7.75S63.75,327.53,63.75,327.53Z"/><path class="cls-9" d="M107.26,396.7l-9.66-21-4.23-15.52-12.84-10s-4.27.5-2.94,3.81,7.77,9.26,7.77,9.26l3.8,10.61L83,363.12l-9-4.46-8.93.66s-1.66,4,2.48,4.13H72l6.78,5.46L83,379.16l-6.39-9.92-9.42-3.35-6,1.53s-1.65,2.65,1.33,3,5,.33,5,.33L73,373.9,77.75,384,69.32,377l-10.92-1.3s-1.82,2.62,1,3.62a90.57,90.57,0,0,1,8.43,4l6.08,8.39Z"/><path class="cls-10" d="M107.26,396.7l-33.38-4.84h-.07l0-.06-6.09-8.38.06,0c-1.9-1-3.9-2-6-2.94-.53-.24-1.06-.47-1.6-.69a7.87,7.87,0,0,1-1.65-.73,2,2,0,0,1-.88-1.69,3.66,3.66,0,0,1,.61-1.82l.07-.11.13,0,10.91,1.29h.07l0,0,8.44,6.94-.36.28c-1.51-3.15-3.14-6.57-4.8-10.06l.09.11-5.46-3.17.13,0c-1.45,0-2.94-.13-4.47-.28a2.89,2.89,0,0,1-2.27-.92,1.74,1.74,0,0,1-.21-1.31,3.6,3.6,0,0,1,.45-1.18l0-.09.1,0,5.95-1.54.08,0,.07,0L76.68,369l.08,0,0,.07L83.2,379l-.46.24-2.27-5.5-2-4.75.08.1-6.78-5.46.16.06H69.34a18.3,18.3,0,0,1-2.65-.09,2.57,2.57,0,0,1-2.12-1.7,4.29,4.29,0,0,1,.21-2.7l0-.15H65l8.93-.66H74l.06,0,9,4.47.07,0,0,.07,6.18,10.78-.43.2c-1.31-3.65-2.57-7.18-3.8-10.62l.06.09a56.63,56.63,0,0,1-6.26-6.77,17,17,0,0,1-1.23-1.89,4.07,4.07,0,0,1-.57-2.2,2.53,2.53,0,0,1,1.28-1.87,5.76,5.76,0,0,1,2.08-.7l.09,0,.06.06,12.83,10,0,0v.06c1.59,5.86,3,11,4.19,15.53v0c6,13.18,9.1,20.1,9.53,21.05l-9.79-20.93h0L93.2,360.23l.06.1L80.4,350.39l.15,0a5.48,5.48,0,0,0-1.91.65,2.07,2.07,0,0,0-1.07,1.55c-.08,1.34.89,2.62,1.73,3.79a57.08,57.08,0,0,0,6.21,6.7l0,0v0q1.86,5.15,3.82,10.61L89,374q-3-5.25-6.19-10.78l.11.1-9-4.46.13,0-8.93.66.21-.15a3.85,3.85,0,0,0-.19,2.34,2.06,2.06,0,0,0,1.73,1.35,17.73,17.73,0,0,0,2.55.08h2.72l.07.06,6.78,5.46,0,0,0,.06c.66,1.58,1.31,3.16,2,4.76l2.27,5.49-.46.24-6.38-9.92.13.1-9.43-3.35h.15l-6,1.53.15-.12a2,2,0,0,0-.25,2A1.36,1.36,0,0,0,62,370a6.21,6.21,0,0,0,1.09.17c1.52.16,3,.26,4.42.28h.07l.05,0,5.46,3.18.06,0,0,.07L78,383.86l.46.95-.82-.67-8.42-7,.11.05-10.91-1.31.2-.09a3.2,3.2,0,0,0-.55,1.58,1.55,1.55,0,0,0,.71,1.36,8.73,8.73,0,0,0,1.57.69c.54.22,1.08.46,1.6.69,2.11,1,4.1,2,6,3l0,0,0,0,6.06,8.4-.11-.07Z"/><g class="cls-6"><path d="M224.13,431.38s-8.2,17.18-18.85,22.21c-9.89,4.67-16.16,5.67-27.94,4.82-5.75-.41-24.48-4.05-31.27-6l-45.67-19.6,96,15.13Z"/></g><path class="cls-9" d="M247.56,303.25s17.18-6.09,17.51,32.42S220.2,438.8,212.5,445.17s-16.5,10.64-39.71,7.2c-29.11-4.32-70.9-19.56-70.9-19.56L127.45,409l51.9-2.34,42.19-86.73S233.16,301.57,247.56,303.25Z"/><path class="cls-9" d="M145.11,431.16s12.86,8.09,27.39,7.68,27.4,4.28,29.27,3,2.07-3.59,0-4.63-10.88-2.28-10.88-2.28l-7.6-3.12s26,2.29,28,1.25,4.15-2.49,3.32-4.78a3.26,3.26,0,0,0-2.9-2.28s5.6.21,5.39-2.07a7.13,7.13,0,0,0-3.11-4.78c-.83-.41-11.71-4.84-11.71-4.84l-14-2.78,13.45-.54,11.74,3.27s4.68.53,3.64-3.41-15.36-8.3-15.36-8.3l-18.27-1.26s14.12-2.06,15.57-6.42-1-6.85-1-6.85-10,3.94-14.74,4.77-10.58,2.7-18.26,5.82a122.09,122.09,0,0,0-12.17,5.6"/><path class="cls-10" d="M152.86,404.18s.24-.16.73-.42,1.23-.66,2.21-1.15c2-1,4.88-2.35,8.73-3.94a123.54,123.54,0,0,1,14.28-5.06c1.43-.38,2.92-.73,4.48-1a44.15,44.15,0,0,0,4.7-1.23c3.18-1,6.51-2.2,10-3.56l.12,0,.08.09a6.74,6.74,0,0,1,1.47,5.5l-.14.74-.21.73a3.68,3.68,0,0,1-.81,1.34,9.16,9.16,0,0,1-2.53,1.79,31.07,31.07,0,0,1-6,2.16,65.13,65.13,0,0,1-6.45,1.36V401l18.26,1.24h.06a67.61,67.61,0,0,1,10.94,4.4,20.7,20.7,0,0,1,2.59,1.62,8.21,8.21,0,0,1,1.16,1.05,3.44,3.44,0,0,1,.84,1.39,4,4,0,0,1,.11,1.62,2.19,2.19,0,0,1-.87,1.45,4.94,4.94,0,0,1-3.15.67h0l-11.74-3.27h.08l-13.45.54,0-.51,10,2,4,.8h0l11.67,4.83a6.84,6.84,0,0,1,2.28,2.26,5.4,5.4,0,0,1,1,3,1.75,1.75,0,0,1-1,1.34,5.4,5.4,0,0,1-1.52.49,14.55,14.55,0,0,1-3.08.24v-.51a3.4,3.4,0,0,1,2.41,1.19,3.7,3.7,0,0,1,.93,2.49,3.41,3.41,0,0,1-1.26,2.32,10.44,10.44,0,0,1-2.13,1.4,2.19,2.19,0,0,1-.64.25,4.69,4.69,0,0,1-.64.09c-.42.05-.84.06-1.25.07-.83,0-1.65,0-2.47,0-1.63,0-3.25-.1-4.86-.18-6.42-.34-12.61-.82-18.55-1.33l.11-.45,7.6,3.12-.06,0c2.8.42,5.53.87,8.17,1.47.66.16,1.32.32,2,.53a4,4,0,0,1,1.79,1.06,2.41,2.41,0,0,1,.58,2,3.27,3.27,0,0,1-1,1.79,3,3,0,0,1-.38.33,1.63,1.63,0,0,1-.47.28,3.24,3.24,0,0,1-1,.12,13.42,13.42,0,0,1-1.91-.17c-1.25-.17-2.46-.41-3.66-.63-2.39-.45-4.71-.89-7-1.25A89,89,0,0,0,175.29,439c-1,0-2,0-2.91,0s-1.89,0-2.8,0-1.8-.12-2.66-.21l-2.52-.36a57.59,57.59,0,0,1-14.54-4.64c-1.59-.76-2.78-1.41-3.58-1.85s-1.17-.73-1.17-.73l.3.17.91.49c.8.43,2,1.06,3.6,1.79a58.67,58.67,0,0,0,14.52,4.52l2.51.33c.86.09,1.74.13,2.64.2s1.84,0,2.78,0,1.93,0,2.92,0a89.24,89.24,0,0,1,12.8,1.17c2.27.35,4.6.78,7,1.23,1.2.21,2.42.44,3.65.61a14.46,14.46,0,0,0,1.85.17,3.12,3.12,0,0,0,.88-.11,2.36,2.36,0,0,0,.69-.51,2.89,2.89,0,0,0,.86-1.56,2,2,0,0,0-.49-1.65,3.47,3.47,0,0,0-1.6-.93c-.62-.21-1.27-.36-1.93-.52-2.62-.59-5.35-1-8.13-1.44h-.05l-7.6-3.1-1.41-.58,1.52.13c5.93.5,12.12,1,18.53,1.31,1.6.08,3.21.14,4.84.17.81,0,1.63,0,2.45,0,.4,0,.81,0,1.21-.07a3.53,3.53,0,0,0,.58-.08,1.9,1.9,0,0,0,.52-.2,9.58,9.58,0,0,0,2-1.34,2.9,2.9,0,0,0,1.09-2,3.3,3.3,0,0,0-.8-2.13,3,3,0,0,0-2-1v-.51a14.72,14.72,0,0,0,3-.23,5,5,0,0,0,1.38-.45,1.25,1.25,0,0,0,.77-.93,5.09,5.09,0,0,0-.94-2.7,6.46,6.46,0,0,0-2.08-2.08l-11.63-4.81.05,0-4-.8-10-2-2.14-.43,2.18-.09,13.45-.53h0l0,0L213.56,414h0a4.34,4.34,0,0,0,2.79-.57,2.26,2.26,0,0,0,.58-2.53,4.92,4.92,0,0,0-1.82-2.17,19.35,19.35,0,0,0-2.52-1.58,66.77,66.77,0,0,0-10.85-4.38h.05l-18.26-1.28-2-.13,1.95-.31a62,62,0,0,0,6.4-1.34,31.05,31.05,0,0,0,5.88-2.11,8.93,8.93,0,0,0,2.42-1.7,3.33,3.33,0,0,0,.73-1.19l.2-.69.14-.71a6.42,6.42,0,0,0-1.34-5.17l.2,0c-3.47,1.34-6.81,2.54-10,3.53a43.65,43.65,0,0,1-4.75,1.22c-1.54.27-3,.61-4.45,1a124.33,124.33,0,0,0-14.29,5c-3.85,1.55-6.78,2.9-8.75,3.84l-2.23,1.1Z"/><path class="cls-10" d="M184,421.88a31.58,31.58,0,0,0,4.36.34c2.69.16,6.39.47,10.45,1.08s7.68,1.42,10.3,2.06a31.31,31.31,0,0,0,4.26,1,20.41,20.41,0,0,0-4.12-1.5,75.21,75.21,0,0,0-10.33-2.3,76.27,76.27,0,0,0-10.54-.87A19.79,19.79,0,0,0,184,421.88Z"/><path class="cls-3" d="M93,347.27c-.53,2.51-1,4.59-1.32,6.19a12.25,12.25,0,0,0-.37,2.3,13.38,13.38,0,0,0,.67-2.23l1.56-6.13c1.28-5.19,3-12.37,4.85-20.32,3-13,5.48-24.07,6.12-27.51l.05-.27-.22.15a5.77,5.77,0,0,0-1.07.82,6.19,6.19,0,0,0,1.19-.63l-.17-.12c-1,3.36-3.63,14.35-6.66,27.38"/><path class="cls-11" d="M200.44,350.22l58,25.84s22.5-69.46-10.66-80.65l-16.62,3.89Z"/><line class="cls-11" x1="65.58" y1="434.1" x2="145.11" y2="431.16"/><path class="cls-10" d="M145.11,431.16c0,.14-17.8.92-39.75,1.73s-39.77,1.35-39.78,1.21,17.79-.92,39.76-1.73S145.1,431,145.11,431.16Z"/><path class="cls-10" d="M73.91,391.69c0,.09-1.14.2-2.94.64a22,22,0,0,0-6.55,2.86,17.75,17.75,0,0,0-5.12,4.95c-1,1.53-1.38,2.63-1.48,2.6A2.56,2.56,0,0,1,58,402a10.48,10.48,0,0,1,1-2,16.23,16.23,0,0,1,5.15-5.18A19.72,19.72,0,0,1,70.89,392a15.32,15.32,0,0,1,2.2-.29A2.33,2.33,0,0,1,73.91,391.69Z"/><path class="cls-3" d="M210.45,342a3.75,3.75,0,0,1-.17.54l-.59,1.52c-.51,1.32-1.29,3.21-2.28,5.54-2,4.65-4.88,11-8.3,17.91S192.43,380.57,190,385c-1.21,2.22-2.2,4-2.89,5.24l-.82,1.41a2.53,2.53,0,0,1-.31.47,2,2,0,0,1,.22-.52l.73-1.46,2.74-5.31c2.33-4.49,5.54-10.68,9-17.59S205,354,207.07,349.42c1-2.26,1.83-4.11,2.44-5.46l.67-1.49A2.16,2.16,0,0,1,210.45,342Z"/></g><g id="Plant"><path class="cls-11" d="M362.27,414.52s-24.78-28.52-34.13-57-4.91-25.24-4.91-25.24,12.63,27.7,22.21,41.08,26.65,33,26.65,33Z"/><path class="cls-11" d="M367.21,336.68a1.45,1.45,0,0,0-2.69.92c1.51,10,4.78,33.52,4.65,48.77-.17,19.8,0,27.46,0,27.46h10.32s-1.83-40.94-4.16-53.42C373.69,351.65,370.22,341.94,367.21,336.68Z"/><path class="cls-11" d="M372.83,410.5a109.31,109.31,0,0,0,8.49-30.79c.85-7.29-.67-17.14-2.92-30.29a82.36,82.36,0,0,1-1.31-14.57,2.46,2.46,0,0,1,4.62-1.16c1.25,2.22,4.85,9.81,5.76,14.57,2.5,13,5.33,19.47,3.17,31.79s-10.16,31.28-10.16,31.28Z"/><path class="cls-11" d="M382.12,411.33s27.2-58.46,29.09-67.13,8.29-28.66,9.05-27.53,1.88,11.69-3,23.76-25.83,72.69-25.83,72.69h-9.29"/><path class="cls-3" d="M369.85,408.72a7.53,7.53,0,0,1-.76-.53c-.49-.36-1.22-.88-2.11-1.6-1.81-1.43-4.35-3.59-7.31-6.46a122.53,122.53,0,0,1-19.74-25.33,165.86,165.86,0,0,1-13.47-29.18c-1.37-3.88-2.36-7.06-3-9.27-.33-1.1-.56-2-.72-2.55a7.39,7.39,0,0,1-.22-.9,5.33,5.33,0,0,1,.33.87l.82,2.51c.72,2.19,1.77,5.34,3.19,9.2a176,176,0,0,0,13.58,29A127.9,127.9,0,0,0,360,399.84c2.91,2.89,5.4,5.1,7.16,6.57.87.75,1.58,1.3,2,1.69A5.67,5.67,0,0,1,369.85,408.72Z"/><path class="cls-3" d="M372.83,380.67a9.42,9.42,0,0,1-.25-1.71c-.13-1.21-.3-2.79-.5-4.69-.43-3.95-1.1-9.41-2.06-15.4s-2-11.38-2.87-15.27c-.4-1.87-.74-3.42-1-4.61a9.37,9.37,0,0,1-.31-1.71,10.53,10.53,0,0,1,.53,1.65c.3,1.08.7,2.64,1.17,4.57.93,3.88,2.07,9.27,3,15.28s1.57,11.48,1.9,15.45c.16,2,.27,3.6.32,4.71A10,10,0,0,1,372.83,380.67Z"/><path class="cls-3" d="M379.2,333.24a3.53,3.53,0,0,1,.32.74c.21.55.48,1.27.81,2.17s.78,2.1,1.17,3.48.93,2.92,1.32,4.68c.22.88.44,1.8.68,2.75s.39,2,.6,3c.44,2.08.72,4.33,1,6.69a99.72,99.72,0,0,1-1.11,30.9c-.5,2.33-.93,4.56-1.53,6.6-.28,1-.51,2-.81,3l-.87,2.69c-.52,1.73-1.15,3.23-1.65,4.58s-1,2.47-1.42,3.38l-1,2.11a3.92,3.92,0,0,1-.38.72,4.7,4.7,0,0,1,.27-.77l.87-2.15c.39-.92.85-2.06,1.31-3.41s1.08-2.86,1.57-4.59c.27-.85.54-1.75.83-2.69s.51-1.93.78-2.95c.57-2,1-4.25,1.46-6.58a102.48,102.48,0,0,0,1.1-30.74c-.31-2.35-.56-4.59-1-6.66-.19-1-.34-2.05-.56-3l-.63-2.75c-.37-1.76-.87-3.31-1.24-4.69s-.74-2.55-1.07-3.5-.53-1.64-.71-2.2A4,4,0,0,1,379.2,333.24Z"/><path class="cls-3" d="M419.94,317.85a.64.64,0,0,1,0,.26l-.12.76c-.12.66-.27,1.65-.53,2.91-.53,2.51-1.4,6.13-2.77,10.52s-3.21,9.54-5.41,15.2-4.75,11.83-7.16,18.39-4.34,12.95-6.12,18.76-3.43,11-5,15.32a96.19,96.19,0,0,1-4.3,10c-.55,1.16-1.05,2-1.38,2.62-.15.26-.27.48-.38.66l-.14.22a.75.75,0,0,1,.09-.24l.33-.7c.29-.61.76-1.49,1.28-2.66,1.1-2.32,2.57-5.72,4.11-10s3.19-9.52,4.92-15.34,3.62-12.23,6.08-18.8,5-12.74,7.21-18.38,4.12-10.77,5.52-15.13,2.34-8,2.94-10.45c.29-1.25.48-2.23.64-2.88.07-.3.13-.55.17-.75A1.26,1.26,0,0,1,419.94,317.85Z"/><path class="cls-11" d="M336.06,304.93a2.35,2.35,0,0,0-3.86,2.39,67.06,67.06,0,0,0,3.42,8.79c3.74,7.95,14.73,36.47,19.87,52.13s12.39,44.88,12.39,44.88l11-1.79s-10.05-48-19.86-65.3C351.11,332.13,343.22,312.05,336.06,304.93Z"/><path class="cls-3" d="M358.5,378a8.31,8.31,0,0,1,.56,1.32c.33.86.77,2.12,1.27,3.68,1,3.14,2.25,7.51,3.49,12.37s2.28,9.29,3,12.5c.32,1.51.6,2.79.82,3.8a7.14,7.14,0,0,1,.23,1.42,6.89,6.89,0,0,1-.45-1.37l-1-3.76c-.84-3.3-1.95-7.64-3.17-12.44s-2.42-9.24-3.33-12.4c-.43-1.49-.79-2.74-1.08-3.73A6.74,6.74,0,0,1,358.5,378Z"/><path class="cls-3" d="M373.4,412.22s0-.09-.07-.29-.07-.51-.12-.86c-.12-.76-.22-1.89-.45-3.33-.4-2.88-1.12-7-2.3-12.11a177.54,177.54,0,0,0-5.14-17.54c-2.26-6.51-5.08-13.54-8.28-20.82-6.46-14.53-12.92-27.42-17.16-36.95-2.14-4.75-3.8-8.64-4.89-11.34-.56-1.35-1-2.41-1.24-3.12-.12-.34-.22-.61-.3-.82a1.14,1.14,0,0,1-.09-.29,1.21,1.21,0,0,1,.14.26c.1.22.21.48.36.8.32.75.77,1.78,1.34,3.08,1.15,2.68,2.87,6.53,5.06,11.26,4.33,9.48,10.84,22.34,17.31,36.89,3.21,7.29,6,14.34,8.25,20.87a165.58,165.58,0,0,1,5,17.63A121.06,121.06,0,0,1,373,407.71c.2,1.45.27,2.58.34,3.34,0,.36.05.65.07.88A1.59,1.59,0,0,1,373.4,412.22Z"/><path class="cls-3" d="M378.86,411.33a11.32,11.32,0,0,1-.37-1.84c-.22-1.29-.51-3-.85-5.05-.76-4.25-1.92-10.11-3.58-16.49s-3.5-12.07-4.92-16.14L367.42,367a11,11,0,0,1-.58-1.79,13,13,0,0,1,.79,1.71c.48,1.11,1.14,2.74,1.9,4.77a162,162,0,0,1,5.09,16.13A165.68,165.68,0,0,1,378,404.37c.31,2.15.55,3.88.67,5.09A10.79,10.79,0,0,1,378.86,411.33Z"/><rect class="cls-4" x="358.54" y="409.76" width="42.86" height="52.22"/><g class="cls-6"><rect x="358.54" y="409.76" width="42.86" height="52.22"/></g><rect class="cls-4" x="349.7" y="409.76" width="38.03" height="52.22"/></g></g></svg>