<svg xmlns="http://www.w3.org/2000/svg" viewBox="0 0 450.36 401.23"><defs><style>.cls-1{fill:#ffdcec;}.cls-2{fill:#6dd6b4;}.cls-11,.cls-3{fill:#fff;}.cls-4{fill:#644dbd;}.cls-10,.cls-5,.cls-8,.cls-9{fill:none;}.cls-5{stroke:#644dbd;}.cls-10,.cls-11,.cls-5,.cls-8,.cls-9{stroke-miterlimit:10;}.cls-6{fill:#fffefd;}.cls-7{fill:#ff84b5;}.cls-10,.cls-11,.cls-8,.cls-9{stroke:#000;}.cls-8{stroke-width:0.75px;}.cls-9{stroke-width:0.5px;}.cls-12{fill:#020202;}.cls-13{fill:#0c0c0c;}.cls-14{fill:#fffdfd;}</style></defs><g id="Camada_2" data-name="Camada 2"><g id="OBJECTS"><circle class="cls-1" cx="79.93" cy="92.18" r="17.93"/><circle class="cls-1" cx="124.64" cy="42.85" r="42.84" transform="translate(-6.99 49.57) rotate(-21.89)"/><path class="cls-1" d="M385,219.35c-3.73-6.81-9.17-13.11-17.14-16.37-11.62-6.71-22.95-8-20.53-24.08C362,143,354.37,101.83,324.89,81c-35.72-25.21-93.51-23.38-144-6.77-42.42,14-53.76,43.82-52.73,57.92,1,13.28,9.69,25-8.22,35.08-24.25,10.57-67.19,60.48-22.1,107.53,23.83,24.86,21.1,33.44,19.45,50s13.18,53.07,69.52,43.49,60.06-8.08,79.89,1.58,55.62,18.27,80.69-1.58c42.27-33.45-2.27-77.11,18.08-86.49C387.18,271.79,395.85,239.17,385,219.35Z"/><circle class="cls-1" cx="410.68" cy="332.51" r="26.97" transform="translate(16.2 684.08) rotate(-80.7)"/><circle class="cls-1" cx="58.61" cy="362.32" r="18.66"/><path class="cls-2" d="M256.18,47.72l10.22-3.39a1.25,1.25,0,0,0-.67-2.41l-10.22,3.39a1.25,1.25,0,1,0,.67,2.41Z"/><path class="cls-2" d="M253.11,35.61a78,78,0,0,1,5.27-7.09,1.25,1.25,0,1,0-1.77-1.77,83.57,83.57,0,0,0-5.65,7.6,1.25,1.25,0,1,0,2.15,1.26Z"/><path class="cls-2" d="M238.53,25.45c.07-1.06.17-2.13.31-3.19a1.11,1.11,0,0,1,0-.19c0,.1,0,.11,0,0l.06-.44c0-.25.07-.5.12-.75.08-.53.18-1.07.28-1.61a1.25,1.25,0,1,0-2.41-.66,55.79,55.79,0,0,0-.88,6.82,1.24,1.24,0,0,0,1.25,1.25,1.28,1.28,0,0,0,1.25-1.25Z"/><path class="cls-2" d="M217.63,21.14c.84,3.3,1.83,6.57,3,9.78a1.29,1.29,0,0,0,1.54.87,1.26,1.26,0,0,0,.87-1.54q-1.74-4.82-3-9.78a1.25,1.25,0,0,0-2.41.67Z"/><path class="cls-2" d="M200.83,28.86,205.09,34a1.25,1.25,0,1,0,1.77-1.77l-4.26-5.18a1.26,1.26,0,0,0-1.77,0,1.3,1.3,0,0,0,0,1.77Z"/><path class="cls-2" d="M189.78,47.59l3.79,1.08c.58.17,1.16.33,1.73.51a7.2,7.2,0,0,1,1.52.61,1.25,1.25,0,1,0,1.27-2.15,17.58,17.58,0,0,0-3.72-1.34l-3.92-1.12a1.25,1.25,0,0,0-.67,2.41Z"/><path class="cls-3" d="M52,280.86s19.16,22.46,36.45,25.28,21.94-5.51,25-11.16,7.43-22.17,7.43-22.17l-26.6-6.7s.49,8-2.74,13.2-17.35,2.39-29.85-8.06Z"/><path d="M51.56,281.3A105.93,105.93,0,0,0,61,290.89c6.17,5.58,13,10.85,20.79,14a35,35,0,0,0,13.44,2.45,21.57,21.57,0,0,0,10.54-2.56c4.65-2.68,7.62-7.62,9.61-12.46A150.07,150.07,0,0,0,121.53,273a.63.63,0,0,0-.44-.77l-23.26-5.87-3.33-.84a.63.63,0,0,0-.79.61,28.18,28.18,0,0,1-.3,5.73,22.29,22.29,0,0,1-1.24,4.9A7.19,7.19,0,0,1,90.08,280c-1.77,1.32-4.31,1.32-6.4,1.12a30.46,30.46,0,0,1-9.51-2.75,52.83,52.83,0,0,1-12-7.59.63.63,0,0,0-.88,0l-9.74,9.61c-.58.56.31,1.45.88.88l9.74-9.61H61.3c6.09,5.06,13.55,9.55,21.53,10.62,2.42.32,5.14.35,7.34-.86,2.51-1.38,3.48-4.66,4.07-7.27a28.81,28.81,0,0,0,.72-8.07l-.79.6,23.26,5.86,3.33.84-.44-.77c-1.4,5.38-3,10.75-4.83,16-1.76,5-4.14,10.35-8.37,13.74-6.2,5-15.78,4.44-22.9,2.06-7.81-2.61-14.72-7.77-20.85-13.13a107.94,107.94,0,0,1-10.93-10.88C51.92,279.8,51,280.69,51.56,281.3Z"/><path class="cls-3" d="M49.71,259.85l13.66,10.74-11.6,13.05-12.5-13.45S48.71,259.06,49.71,259.85Z"/><path class="cls-4" d="M49.16,260.39l13.66,10.74V270l-11.59,13h1.09l-12.5-13.44v1.09c1.44-1.7,2.92-3.38,4.43-5,1.09-1.19,2.19-2.37,3.35-3.48A15.87,15.87,0,0,1,49,261a5,5,0,0,0,.45-.3c.22-.24.22.09-.17-.15a.77.77,0,0,0,.78-1.33c-.87-.52-1.9.47-2.5,1A40.77,40.77,0,0,0,44,263.74c-1.8,1.92-3.55,3.9-5.26,5.91a.8.8,0,0,0,0,1.09l12.51,13.44a.76.76,0,0,0,1.09,0l11.6-13.05a.78.78,0,0,0,0-1.09L50.26,259.3C49.48,258.69,48.38,259.78,49.16,260.39Z"/><polygon class="cls-4" points="62.73 270.02 58.8 266.99 47.8 279.37 51.77 283.64 62.73 270.02"/><line class="cls-5" x1="44.62" y1="259.14" x2="58.61" y2="271.57"/><line class="cls-5" x1="41.41" y1="262.75" x2="54.93" y2="274.76"/><line class="cls-5" x1="38.43" y1="266.11" x2="51.95" y2="278.11"/><path class="cls-6" d="M50.58,255.89,35.22,238.24s-1.79-3.05-4-1.05-10.63,8.76-27,26.47c-.66.71-9.77,10.75,6.79,8.46,2.52-.35,18.4-4.24,18.4-4.24s6,4.11,8,5.18c1.06.55,1.35.76,4.18-2.32,3.5-3.82,7.94-8.34,10.27-12.36C52.19,257.88,51.91,257.42,50.58,255.89Z"/><path class="cls-7" d="M51.4,255.07,38.47,240.21c-.75-.86-1.48-1.74-2.25-2.59-.39-.42.2.27-.24-.32a4.55,4.55,0,0,0-2.47-1.86c-2.37-.59-4.9,2.46-6.53,3.9a301,301,0,0,0-23.6,23.52A13.67,13.67,0,0,0,.2,268c-1,3.41,1.7,5.21,4.77,5.55,4.12.47,8.27-.62,12.26-1.54s7.84-1.85,11.76-2.8l.75-.18-.9-.12c1.39,1,2.8,1.9,4.21,2.83s3.12,2.4,4.83,2.78c2.14.47,4-2.38,5.25-3.68,2.5-2.7,5-5.37,7.31-8.28.89-1.16,2.32-2.63,2.67-4.08s-.93-2.5-1.71-3.39c-1-1.14-2.62.51-1.65,1.65a7.64,7.64,0,0,0,.92,1.11s.24.44.19.08-.06.07-.16.19-.26.43-.39.63c-.28.43-.57.85-.87,1.27a58.54,58.54,0,0,1-4.22,5.1c-1.41,1.57-2.86,3.11-4.29,4.67a25.76,25.76,0,0,1-1.93,2c-.17.14-.34.26-.52.39s-.08.08-.18.08c.16,0,0,0,0,0s-.29-.15-.43-.23c-.52-.28-1-.58-1.52-.9-1.21-.75-2.4-1.53-3.58-2.32s-2.52-2.24-3.93-1.93c-4.3.94-8.57,2.08-12.86,3.06-1.78.41-3.57.87-5.39,1.13-2.17.3-5.64.88-7.64-.42a2.37,2.37,0,0,1-.45-.41,1.09,1.09,0,0,1-.19-.47,3,3,0,0,1,.29-1.59,13,13,0,0,1,1.79-2.88c1.65-2,3.53-3.86,5.32-5.75,2.73-2.87,5.49-5.72,8.31-8.51,3.5-3.48,7.07-6.88,10.77-10.15l2.74-2.39c.55-.48,1.07-1,1.81-.53a5,5,0,0,1,1.08,1.21c2.14,2.66,4.49,5.17,6.73,7.74l8.1,9.3.48.56C50.74,257.85,52.39,256.2,51.4,255.07Z"/><path class="cls-7" d="M23,261.45,22.43,268l-.09.95a1.17,1.17,0,0,0,1.17,1.16A1.19,1.19,0,0,0,24.67,269l.62-6.59.09-.95a1.18,1.18,0,0,0-1.17-1.17A1.2,1.2,0,0,0,23,261.45Z"/><path class="cls-7" d="M17.22,261.05l-.42,8-.06,1.16a1.17,1.17,0,0,0,2.34,0l.41-8,.06-1.16a1.17,1.17,0,0,0-2.33,0Z"/><path class="cls-7" d="M32.59,251.66c2.85-.75,9.8,1.25,10.71,5.45s-6.22,1.8-6.22,1.8,2.48,6.09-1.36,7.56S26.87,253.14,32.59,251.66Z"/><path class="cls-3" d="M102.05,338.77s22.19-19.49,28.4-27.83,9.32-13.84,10.59-21.75,0-18.5,0-18.5l29-1.93s1.69,16.05,0,26.51-13.95,26.41-33.6,39.82-27.84,16.74-27.84,16.74Z"/><path d="M102.49,339.21c6.37-5.6,12.62-11.35,18.67-17.29,8.94-8.8,18.07-19.06,20.36-31.82a66.8,66.8,0,0,0,.15-19.41l-.63.63,25.37-1.7,3.59-.24-.63-.62a133.14,133.14,0,0,1,.68,19.15,37.62,37.62,0,0,1-1.66,11,42.16,42.16,0,0,1-4.95,9.42c-5.45,8.1-12.65,15-20.29,21a221.09,221.09,0,0,1-25.31,16.84c-2.35,1.37-4.74,2.71-7.18,3.93q-.89.45-1.8.87l-.47.21.71.29-6.51-13.07c-.36-.72-1.44-.09-1.08.63L108,352.15a.63.63,0,0,0,.7.29,68.16,68.16,0,0,0,7.79-4,239.72,239.72,0,0,0,24.35-15.75,104.19,104.19,0,0,0,21.86-21.16,52,52,0,0,0,5.93-9.89,30.38,30.38,0,0,0,2.39-9.75,118.31,118.31,0,0,0-.42-23.12.64.64,0,0,0-.62-.63l-25.37,1.7-3.59.24c-.3,0-.66.27-.62.62a75.48,75.48,0,0,1,.29,16.25c-.78,7.74-4.15,14.37-8.58,20.64-6.45,9.12-15,16.68-23.22,24.18-2.42,2.21-4.84,4.4-7.3,6.56C101,338.86,101.89,339.74,102.49,339.21Z"/><path class="cls-3" d="M88.53,347.07l13.71-10.67,9.88,14.4-16.07,8.89S87.53,347.85,88.53,347.07Z"/><path class="cls-4" d="M89.08,347.62,102.79,337l-1.21-.16,9.87,14.4.28-1.06L95.66,359l1.06.27c-1.31-1.81-2.58-3.66-3.81-5.52-.91-1.37-1.8-2.76-2.62-4.18-.29-.52-.59-1-.83-1.59a3.16,3.16,0,0,0-.2-.54c-.17-.25.14-.17-.18.15a.78.78,0,0,0-1.1-1.1c-.72.72,0,2,.34,2.68a45.82,45.82,0,0,0,2.61,4.37q2.14,3.31,4.46,6.51a.78.78,0,0,0,1,.28l16.07-8.89a.78.78,0,0,0,.27-1.06L102.91,336a.79.79,0,0,0-1.21-.16L88,346.52C87.2,347.13,88.3,348.22,89.08,347.62Z"/><polygon class="cls-4" points="101.54 336.88 97.65 339.97 107.01 353.63 112.12 350.8 101.54 336.88"/><line class="cls-5" x1="86.61" y1="351.83" x2="102.05" y2="341.25"/><line class="cls-5" x1="89.35" y1="355.82" x2="104.26" y2="345.6"/><line class="cls-5" x1="91.88" y1="359.52" x2="106.8" y2="349.3"/><path class="cls-6" d="M84.9,345.27,64.07,355.93s-3.4,1-2,3.62S68,372,81.26,392.12c.54.81,8.09,12.07,9.86-4.56.26-2.53.32-18.87.32-18.87s5.42-4.8,7-6.53c.8-.89,1.07-1.13-1.24-4.61-2.86-4.33-6.18-9.72-9.51-12.95C87.22,344.19,86.71,344.35,84.9,345.27Z"/><path class="cls-7" d="M84.31,344.26l-17.45,8.93c-1,.52-2.07,1-3.08,1.58-.55.3.14,0-.23.1a5.38,5.38,0,0,0-2.12,1.35c-2,2.17.29,5.21,1.39,7.33a318.62,318.62,0,0,0,16.49,27.72c1.36,2.08,2.77,4.25,4.89,5.63a4.39,4.39,0,0,0,3.62.71c1.65-.5,2.56-2.15,3.14-3.65,1.54-3.95,1.46-8.37,1.53-12.54q.09-6,.11-12v-.77l-.34.82q1.9-1.68,3.76-3.4c1.26-1.16,3.07-2.45,3.87-4,1-1.95-1.32-4.5-2.29-6-2-3.05-4-6.13-6.21-9-.91-1.18-2-2.95-3.37-3.67s-2.65.29-3.71.82c-1.34.68-.16,2.7,1.18,2,.43-.22.87-.41,1.3-.62s.52,0,.12-.18.1.13.16.19a6.38,6.38,0,0,0,.51.53c.35.38.69.76,1,1.15a60.16,60.16,0,0,1,3.82,5.15c1.23,1.81,2.41,3.64,3.61,5.47.48.73,1,1.46,1.39,2.23.11.21.21.42.31.63s.07.33.08.22,0,.05,0,0a4.79,4.79,0,0,0-.36.41c-.37.4-.76.78-1.15,1.16-1,1-2.06,2-3.11,2.91s-2.87,2-2.93,3.39c-.17,4.28,0,8.59-.12,12.88,0,1.87,0,3.77-.19,5.64a24.43,24.43,0,0,1-.94,5,5.64,5.64,0,0,1-1.37,2.6,1.17,1.17,0,0,1-1.14.34,3.71,3.71,0,0,1-1.45-.74,12.49,12.49,0,0,1-2.43-2.61c-4-5.62-7.58-11.7-11.1-17.65-2.37-4-4.66-8.08-6.8-12.23-.5-1-1-1.93-1.49-2.91-.4-.8-.43-1.32.38-1.85a9.42,9.42,0,0,1,1.11-.52c3.13-1.44,6.17-3.15,9.24-4.72l10.86-5.55.66-.34C86.83,345.59,85.65,343.58,84.31,344.26Z"/><path class="cls-7" d="M83.63,373.33l6.25,2.19.89.31a1.18,1.18,0,0,0,1.44-.82,1.2,1.2,0,0,0-.82-1.43l-6.26-2.19-.88-.31a1.17,1.17,0,0,0-1.44.81,1.2,1.2,0,0,0,.82,1.44Z"/><path class="cls-7" d="M81.84,378.88l7.68,2.34,1.11.34a1.17,1.17,0,1,0,.62-2.25L83.57,377l-1.11-.34a1.17,1.17,0,1,0-.62,2.25Z"/><path class="cls-7" d="M76.45,361.71c0-2.95,3.58-9.21,7.88-9.08s.24,6.47.24,6.47,6.51-.94,7,3.14S76.52,367.62,76.45,361.71Z"/><path class="cls-3" d="M212,56.16a11,11,0,0,1-1.92-2.3c-1.82-2.63-3.7-2.65-3.27-.32.26,1.35,4.55,14.17,6.49,16.28s9.86,6.17,10.62,0S222.55,49,221.39,44.9c-1.25-4.43-2.55-3.47-2.62-2.23,0,0-.77-1.7-1.43-1.69s-1,1-1,1-.34-1.1-.8-1a1.17,1.17,0,0,0-1.07,1c-.11.68-.16,1.18-.16,1.18s-.69-1.36-1.17-1.31-.93-.07-.93,2.14.27,7.46.2,8.67-.23,3.09-.23,3.09l-.16.45"/><path class="cls-8" d="M217.13,62s-.38-4.51-2.57-4.83-2.95-1.14-4.45-3.3c-1.82-2.63-3.7-2.65-3.27-.32.26,1.35,4.55,14.17,6.49,16.28s9.86,6.17,10.62,0S222.56,49,221.39,44.9c-1.33-4.69-3.08-3.44-2.49-1.15S220.05,50,220.05,50"/><path class="cls-8" d="M212.13,56.17a40,40,0,0,0,.26-7.09c-.27-3.15-.32-7,.27-7.21s1.42,0,2,3,1,5.91,1,5.91"/><path class="cls-8" d="M217.63,50.58s-1.21-8.34-1.4-8.92c-.32-1-2-1.49-1.89,1.89"/><path class="cls-9" d="M218.7,43.33s-1.15-4.44-2.38-1.11"/><ellipse class="cls-7" cx="216.68" cy="78.19" rx="10.66" ry="9.46" transform="translate(4.56 168.03) rotate(-42.8)"/><path class="cls-3" d="M210,86.47l.6-15.54-.37.31c-.23.21-.44.43-.64.65l-.53,13.76A9,9,0,0,0,210,86.47Z"/><path class="cls-3" d="M214,88.11l2.12-19.8c-.33.06-.67.13-1,.22l-2.08,19.38A9.59,9.59,0,0,0,214,88.11Z"/><path class="cls-3" d="M218.65,87.73l2.49-19a8,8,0,0,0-.95-.29L217.63,88A9.6,9.6,0,0,0,218.65,87.73Z"/><path class="cls-3" d="M222.9,85.32l2.27-13.55a8.57,8.57,0,0,0-.66-.83l-.16-.15L221.76,86.2A13.35,13.35,0,0,0,222.9,85.32Z"/><path class="cls-7" d="M150.69,119s23.47-1.36,33.43-10.68,14.27-15,18-22.72,6.58-14.49,15.43-12.14,12.74,13.89,7.24,32.11-19,35.73-26.46,40-25.45,12.58-25.45,12.58Z"/><path class="cls-3" d="M35.72,204s-8.58,0-9.64,1.48,3,2.12,6.88,2.23S45,207.06,45,207.06s-5.19,3.71-4.13,5.51,5.9-1.27,9-3.81,7-7.47,7.79-8l-8.79-8.66L33.64,195.7l-3.8.69s-3.37.69-3.35,1.18.91,1.1.91,1.1-1.58.77-1.5,1.44,1.52,1.16,1.52,1.16-1.94.67-1.73,1.54,2,1.49,3.14,1.49S35.72,204,35.72,204Z"/><path class="cls-10" d="M35.72,204s-8.58,0-9.64,1.48,3,2.12,6.88,2.23S45,207.06,45,207.06s-5.19,3.71-4.13,5.51,5.9-1.27,9-3.81,7-7.47,7.79-8"/><path class="cls-10" d="M30.07,204.3s-4.24,0-4.49-1.4,4.38-1.8,9.78-2.26"/><path class="cls-10" d="M33.88,197.76s-7.79.53-8.06,2.18c-.15.94.86,1.32,3.4,1.33"/><path class="cls-10" d="M49.42,192.13s-10.53,2.65-16.53,3.71-6.28,1.21-6.39,1.92.79,1,1.57.87"/><path class="cls-2" d="M74.8,255.79s14,18.22,49.79,20.13S179,270.83,179,270.83s-5.33-55.35-14.1-71.31-53.09-18.22-65,2.39S74.8,255.79,74.8,255.79Z"/><path class="cls-3" d="M120.19,221.23c2.7,5.68,2.84,11.26.32,12.45s-6.75-2.44-9.44-8.13-2.83-11.26-.31-12.45S117.5,215.55,120.19,221.23Z"/><path class="cls-3" d="M103.67,238.15c1,6.21-.41,11.61-3.16,12s-5.8-4.22-6.81-10.43.41-11.6,3.16-12.05S102.66,232,103.67,238.15Z"/><path class="cls-3" d="M125.3,253.44c-3.14,5.44-7.65,8.73-10.07,7.33s-1.82-6.94,1.32-12.38,7.66-8.73,10.07-7.34S128.44,248,125.3,253.44Z"/><path class="cls-3" d="M143.14,261.23c2.3,5.86,2.06,11.43-.54,12.45s-6.56-2.9-8.86-8.75-2.06-11.43.53-12.45S140.84,255.38,143.14,261.23Z"/><ellipse class="cls-3" cx="164.71" cy="258.8" rx="11.39" ry="5.05" transform="translate(-127.09 353.46) rotate(-75.5)"/><path class="cls-3" d="M156.31,239.92c1.34,6.15.22,11.61-2.51,12.21s-6-3.91-7.36-10.06-.21-11.6,2.51-12.2S155,233.78,156.31,239.92Z"/><ellipse class="cls-3" cx="162.09" cy="224.25" rx="5.05" ry="11.39" transform="translate(-80.4 90.98) rotate(-25.35)"/><path class="cls-3" d="M143.45,216.37c-.74,6.24-3.58,11-6.35,10.71s-4.42-5.66-3.68-11.9,3.59-11,6.36-10.72S144.19,210.12,143.45,216.37Z"/><path class="cls-3" d="M108.63,207c-3.14,5.45-7.65,8.73-10.06,7.34s-1.83-6.94,1.32-12.39,7.65-8.73,10.06-7.33S111.78,201.52,108.63,207Z"/><path class="cls-3" d="M89.05,247.74c-2-2-7.18,0-11.63,4.48a23.83,23.83,0,0,0-2.19,2.51c-.27.68-.43,1.06-.43,1.06A37,37,0,0,0,81.51,262a23.84,23.84,0,0,0,3-2.59C89,254.91,91,249.71,89.05,247.74Z"/><path class="cls-3" d="M105.89,260.07c-2.79,0-5,5.1-5,11.39v.22a84,84,0,0,0,9.94,2.55,24.72,24.72,0,0,0,.16-2.77C110.94,265.17,108.67,260.07,105.89,260.07Z"/><path d="M74.26,256.11A33.77,33.77,0,0,0,80.55,262a66.54,66.54,0,0,0,20.21,10.32c11.73,3.79,24,4.57,36.29,4.55a171.34,171.34,0,0,0,30.17-2.49,68.51,68.51,0,0,0,12-2.95c.75-.27.42-1.48-.33-1.2a61.46,61.46,0,0,1-9.14,2.4,157.83,157.83,0,0,1-27.25,2.91c-20.41.57-42.08-1.1-59.32-13.17a45.47,45.47,0,0,1-6-4.92c-.5-.49-1-1-1.44-1.51-.08-.1-.62-.76-.4-.47-.48-.62-1.57,0-1.08.64Z"/><ellipse class="cls-7" cx="59.16" cy="193.15" rx="10.66" ry="9.46"/><path class="cls-3" d="M48.65,194.71l11-11-.49,0c-.31,0-.61,0-.91,0l-9.74,9.74A10.23,10.23,0,0,0,48.65,194.71Z"/><path class="cls-3" d="M50.47,198.63l15-13.09c-.28-.18-.58-.36-.89-.52L49.9,197.83C50.07,198.1,50.27,198.37,50.47,198.63Z"/><path class="cls-3" d="M54.12,201.49l14.74-12.25a9.17,9.17,0,0,0-.5-.86L53.19,201A10.36,10.36,0,0,0,54.12,201.49Z"/><path class="cls-3" d="M58.88,202.6l10.87-8.39a7.45,7.45,0,0,0,.07-1.06c0-.07,0-.15,0-.22l-12.37,9.55A11.34,11.34,0,0,0,58.88,202.6Z"/><path class="cls-7" d="M96.21,183.69s2,15.39,16.44,20.9,45.2,9.75,57.06,1.84,18.65-32.06,17.66-44.77-7.86-27.74-16-34.41-14.47-11.51-22.1-13.83S118.44,107.7,91.89,134s-37.22,39.75-39.54,48.87S55.74,202,65.48,200.76,85.69,195.13,96.21,183.69Z"/><path d="M55.72,198.21c1.77,2.18,5.23,2.95,7.85,3.15a28.14,28.14,0,0,0,14.87-3.52c10.65-5.51,19.78-14.36,27.2-23.65a107.67,107.67,0,0,0,13.49-21.68c.33-.73-.74-1.36-1.08-.63a107,107,0,0,1-24.66,33.61,78.58,78.58,0,0,1-13.12,9.91,31.5,31.5,0,0,1-13.41,4.68c-3.2.27-8,0-10.26-2.76-.5-.62-1.38.27-.88.89Z"/><path d="M153.3,115.8a35.24,35.24,0,0,1,3.25,1.53,61.66,61.66,0,0,1,8,5,54.67,54.67,0,0,1,18.12,22.31,53.18,53.18,0,0,1,4.07,21.25.63.63,0,0,0,1.25,0,53.24,53.24,0,0,0-11.32-33.67A60.53,60.53,0,0,0,158,116.69a37.38,37.38,0,0,0-4.38-2.09c-.75-.29-1.07.91-.33,1.2Z"/><path d="M185.7,152.65a55.06,55.06,0,0,0,6.82-3A50.48,50.48,0,0,0,205,141c.58-.56-.31-1.45-.88-.88a49.28,49.28,0,0,1-12.27,8.49,54,54,0,0,1-6.52,2.87c-.76.26-.43,1.47.33,1.2Z"/><path class="cls-4" d="M125.49,75s-12.32,4.61-18.76,14.9,1.09,20,6.25,21.81,17.23,3.17,23.12-1.27,3.75-31.09,1.83-34.81S126.76,73.91,125.49,75Z"/><path class="cls-11" d="M156.21,62.89h-9.74c-6.48,0-11.78,6-11.78,13.41V91.41c0,.42,0,.84.05,1.26a6.35,6.35,0,0,0-.16,1.38V113a6.08,6.08,0,0,0,6.06,6.06h3.87a6.08,6.08,0,0,0,6.07-6.06v-8.14h5.63c6.48,0,11.78-6,11.78-13.41V76.3C168,68.93,162.69,62.89,156.21,62.89Z"/><path class="cls-4" d="M133.86,83.1s9.56-3.18,12.45-9.34,2.18-7.5,2.18-7.5,5.38,7.38,13.9,9.19c7,1.49,6.73.46,7.43-1.18.63-1.49,1.06-11.9-9.61-18.31s-22.13-5.77-30,2.21-6.94,20.54-4.28,23.68S132.05,86.75,133.86,83.1Z"/><circle class="cls-4" cx="124.76" cy="49.62" r="16.09" transform="translate(-9.5 50.31) rotate(-21.98)"/><ellipse class="cls-3" cx="130.17" cy="86.77" rx="7.76" ry="7.69"/><path class="cls-12" d="M135.05,87.79a5.7,5.7,0,0,0-.24-2,4.5,4.5,0,0,0-2.36-2.94,6,6,0,0,0-3.11-.43.71.71,0,0,0-.69.69.7.7,0,0,0,.69.69,7.18,7.18,0,0,1,1.39,0l.15,0c-.18,0,0,0,0,0l.27,0a5.34,5.34,0,0,1,.53.16l.08,0c-.17-.07,0,0,0,0l.2.1.41.26c-.18-.12,0,0,.05,0l.15.14a2.89,2.89,0,0,1,.29.32c-.14-.16,0,0,0,.05a.91.91,0,0,1,.11.16,3.07,3.07,0,0,1,.2.36l.08.18c.05.08-.06-.17,0,0a.59.59,0,0,0,0,.08c0,.13.09.25.13.38s.11.43.15.65c0,0,0,.1,0,.15s0-.19,0,0l0,.27c0,.21,0,.41,0,.62a.69.69,0,0,0,1.37,0Z"/><circle class="cls-13" cx="150.69" cy="81.24" r="2.2"/><path class="cls-13" d="M162.87,80.92A1.88,1.88,0,1,0,164.74,79,1.87,1.87,0,0,0,162.87,80.92Z"/><path class="cls-14" d="M160.77,89.9s-1.1,3.22-3.44,3.44S153.17,91,153.05,89Z"/><path class="cls-13" d="M160.23,89.76a2.34,2.34,0,0,1-.09.24l-.08.18c-.06.12-.12.25-.19.37a5.63,5.63,0,0,1-1.15,1.55,2.46,2.46,0,0,1-2,.68,3.4,3.4,0,0,1-2-1.26A4.71,4.71,0,0,1,153.6,89l-.55.56,6.76.82,1,.12a.56.56,0,1,0,0-1.11L154,88.52l-1-.12a.55.55,0,0,0-.56.56A5.5,5.5,0,0,0,156,93.75c2,.62,3.64-.64,4.61-2.25a6.93,6.93,0,0,0,.7-1.45C161.55,89.37,160.47,89.08,160.23,89.76Z"/><path class="cls-7" d="M140.85,89.32a5.46,5.46,0,1,0,5.46-5.46A5.47,5.47,0,0,0,140.85,89.32Z"/><path class="cls-7" d="M166.52,85.62a4.37,4.37,0,0,1,1,.11V91.4a11.79,11.79,0,0,1-.2,2.46,4.9,4.9,0,0,1-.77.07,4.16,4.16,0,0,1,0-8.31Z"/><polygon class="cls-7" points="158.3 79.04 157.85 86.52 161.43 84.35 158.3 79.04"/><path class="cls-3" d="M316.22,363.37l-1.43-17.31-17.28,2.47,4.32,17.84S316.32,364.64,316.22,363.37Z"/><path d="M317,363.37l-1.25-15.15-.17-2.16a.8.8,0,0,0-1-.75l-15.13,2.17-2.16.31a.79.79,0,0,0-.54.95l3.79,15.62.53,2.22a.77.77,0,0,0,.75.57q3.93-.48,7.84-1.12a50,50,0,0,0,5-1c.81-.23,2.31-.55,2.34-1.64a.78.78,0,0,0-1.55,0c0-.42.34-.39,0-.26l-.45.18a14.57,14.57,0,0,1-1.72.47c-1.59.38-3.2.65-4.81.91-2.2.35-4.41.67-6.62.93l.74.57-3.78-15.62-.54-2.22-.53.95,15.12-2.17,2.16-.31-1-.74,1.25,15.15.17,2.16C315.52,364.36,317.07,364.37,317,363.37Z"/><path class="cls-2" d="M320,364.83l6.25,22.55s1.23,4.1-1.66,4.84-12,4.3-35.8,8.16c-1,.16-19.53,4.5-8.48-8.05,1.68-1.91,18-16.47,18-16.47s-.14-7.24.1-9.54c.12-1.19.11-1.55,4.23-2.2,5.13-.82,11.35-2,16-1.76C319.23,362.39,319.45,362.88,320,364.83Z"/><path d="M301.4,382.75l-5.83-3.12-.84-.45a1.17,1.17,0,0,0-1.18,2l5.83,3.12.85.45a1.17,1.17,0,0,0,1.17-2Z"/><path d="M296.71,388.35l-6.94-4.09-1-.58a1.17,1.17,0,0,0-1.17,2l6.94,4.09,1,.58a1.17,1.17,0,0,0,1.18-2Z"/><path class="cls-3" d="M306.54,369.87a6.15,6.15,0,1,0,8.68-.16A6.14,6.14,0,0,0,306.54,369.87Z"/><path class="cls-4" d="M294,346.06s-18.08-48.39-20.9-66.47,13.92-58.76,27.3-75.14,32-2,36.54,6.34-4.34,35.17-8.1,40.12-19.5,14.21-22,25.34c-3.82,17.17,5.78,61.24,7.76,66.89S294.52,347.47,294,346.06Z"/><rect class="cls-3" x="288.89" y="340.12" width="32.36" height="11.86" rx="2" transform="translate(-47.29 48.28) rotate(-8.4)"/><path class="cls-4" d="M321,347.58c.1,1.48-1,1.64-2.09,1.8l-3,.44-9.77,1.45-10,1.47-3.37.5c-.73.11-1.56.36-2.17-.26-.76-.78-.68-2.78-.82-3.76-.22-1.5-.54-3-.67-4.52a1.65,1.65,0,0,1,1.6-1.9l2.57-.38,19.69-2.9,4-.6c.8-.11,1.84-.46,2.49.21a2.93,2.93,0,0,1,.52,1.71l.41,2.78.61,4.13c.12.79,1.33.45,1.21-.33l-.61-4.14a26.3,26.3,0,0,0-.61-4c-.83-2.62-3.88-1.67-5.85-1.38l-21.46,3.17c-1.8.26-4.89.14-5.68,2.16-.46,1.15,0,2.73.21,3.89.24,1.66.46,3.33.73,5a2.71,2.71,0,0,0,3.12,2.45c.62-.07,1.23-.18,1.85-.27l9.82-1.45L316.24,351c2.23-.33,6.24-.2,6-3.45C322.22,346.78,321,346.78,321,347.58Z"/><path class="cls-3" d="M410.27,211.94c-.31-4.88-1.9-25.32-6.5-25.74S393,189.06,393,189.06s-1.77,13.13-1.77,16.73.37,5.4,1.77,4.45,2.78-6.67,2.78-6.67,1.8,13.77,3.5,14.62c1.53.76,2.11.15,1.49-7.3a28.58,28.58,0,0,0,1.24,5.38c.92,2.14.82,2.47,1.56,2.34s.81-3.55.76-4.48.17.46.4,1.33.88,3,1.45,3.17.91-.95.93-1.85-.14-4.4-.14-4.4h0c.44,2.53,1,4.92,1.8,5.07C410.13,217.7,410.59,216.81,410.27,211.94Z"/><path class="cls-10" d="M400.53,208.41c1,9.82.42,10.62-1.27,9.78s-3.5-14.62-3.5-14.62-1.38,5.72-2.78,6.67-1.77-.85-1.77-4.45S393,189.06,393,189.06s6.18-3.29,10.79-2.86,6.19,20.86,6.5,25.74-.14,5.76-1.52,5.5-2-6.77-2.61-9.74"/><path class="cls-10" d="M403.77,207.81s1.22,9.55,0,10.65-1.93-2.74-3-6.8"/><path class="cls-10" d="M406.66,210.47s1,6.79,0,8-2.22-3.29-2.46-6.08"/><path class="cls-3" d="M248.37,45.17c-1.7-.21-5.44,8.71-5.44,8.71l-.28.14c-.19-1-.42-2-.52-3-.21-1.87-.95-9.31-1.11-11.6s-.82-2.41-1.58-2.49-1.28,1.79-1.28,1.79L237.7,38a1.6,1.6,0,0,0-1.37-.25c-.9.17-1.07,1.68-1.07,1.68l-.8-.78a2.89,2.89,0,0,0-1.36.73,10.57,10.57,0,0,0-.68,3.24l-.08-.24c-.57-.79-1.77-.34-2.33,2.84s-.14,19.28.86,23.67,11.93.57,13.12-.29,2.68-6.08,4.38-13.56S250.06,45.38,248.37,45.17Z"/><path class="cls-8" d="M238.34,59.37s-.28-3.34,4.59-5.49c0,0,3.74-8.92,5.44-8.71s1.69,2.33,0,9.82-3.19,12.7-4.38,13.56-12.11,4.68-13.12.29-1.43-20.5-.86-23.67,1.76-3.63,2.33-2.84"/><path class="cls-8" d="M231.57,51.6s.93-11.65,1.62-12.43c.88-1,2-.67,2.07,1"/><path class="cls-8" d="M234.6,51.6s0-12.92,1.48-13.77,1.77,0,2,1.62"/><path class="cls-8" d="M237.14,51.11s-.07-12.93,1.91-13.92,1.9,1.43,2.12,4.32,1.27,12.37,1.27,12.37"/><path class="cls-3" d="M290.4,143.08s-28.88-1-42.72-19.51-18.93-40.78-17-50.57,11.3-10.28,15-7.78,12.43,25.11,23.16,31.61,19.79,7.45,36.28,6.68S297.81,146.4,290.4,143.08Z"/><path class="cls-2" d="M247.66,67.56a9.48,9.48,0,0,0-2-2.34c-3.67-2.5-13-2-15,7.78a16.24,16.24,0,0,0-.27,1.84C233,72.57,238.37,68.94,247.66,67.56Z"/><path d="M290.4,142.47c-13.74-.51-29.14-5.55-38.92-15.43-8.59-8.67-14.43-21.28-17.82-32.87-2.2-7.53-6-21.66,1.4-27.56,2.89-2.29,7.87-3.08,10.81-.41,2.47,2.24,4,6.21,5.62,9.08,4.14,7.32,8.49,15.65,15.3,20.86,6.55,5,15,7.34,23.12,8,5.25.42,10.66-.5,15.86,0,3.08.3,4.31,2.26,4.45,5.27.33,7-3.71,14.64-7.12,20.51-1.74,3-7.83,14.27-12.54,12.59-.74-.26-1.06.92-.32,1.18,4,1.44,8.31-4.86,10.21-7.44a62,62,0,0,0,10.11-20.54c1-3.8,2.19-10.29-2.39-12.32-3.93-1.73-10-.16-14.14-.27-6.61-.18-13.14-1.13-19.22-3.83C263.7,94.35,258,84.35,252.27,74.19c-3-5.37-5.39-11.67-12.67-10.76-9.25,1.15-10.42,11.21-9.65,18.72,1.25,12,5.94,23.81,12.1,34.1,6.71,11.21,15.48,18.91,27.86,23.29a70.34,70.34,0,0,0,20.49,4.15C291.18,143.72,291.18,142.5,290.4,142.47Z"/><path class="cls-3" d="M411.2,272,394,274.09l3.13,17.18,17.67-5S412.46,271.85,411.2,272Z"/><path d="M411.2,271.23,394,273.32a.79.79,0,0,0-.75,1l3.14,17.18a.77.77,0,0,0,1,.54l15.44-4.37L415,287a.78.78,0,0,0,.54-.95c-.41-2.57-.87-5.14-1.4-7.69a45.68,45.68,0,0,0-1.21-4.91c-.25-.76-.64-2.24-1.68-2.23a.78.78,0,0,0,0,1.55,1,1,0,0,1-.3-.1s0-.05,0,.07a4.59,4.59,0,0,0,.24.5,15.63,15.63,0,0,1,.53,1.68c.44,1.6.78,3.23,1.1,4.86q.68,3.33,1.2,6.68l.54-1-15.44,4.37-2.22.63.95.54-3.14-17.18-.74,1,17.25-2.08C412.17,272.66,412.19,271.11,411.2,271.23Z"/><path class="cls-2" d="M412.51,268.17l22.29-7.1s4.05-1.38,4.91,1.48,4.75,11.85,9.52,35.46c.19.95,5.24,19.34-7.72,8.78-2-1.61-17.15-17.39-17.15-17.39s-7.23.42-9.54.27c-1.19-.08-1.55-.06-2.36-4.15-1-5.09-2.46-11.26-2.37-15.9C410.11,269,410.58,268.79,412.51,268.17Z"/><path d="M431.15,286l-2.89,6-.42.85a1.17,1.17,0,0,0,2,1.18l2.89-5.95.42-.86a1.17,1.17,0,0,0-2-1.17Z"/><path d="M436.93,290.51l-3.81,7.07-.55,1a1.2,1.2,0,0,0,.41,1.6,1.18,1.18,0,0,0,1.6-.42l3.81-7.07.55-1a1.16,1.16,0,1,0-2-1.17Z"/><path class="cls-3" d="M418.06,281.43a6.14,6.14,0,1,0-.49-8.67A6.15,6.15,0,0,0,418.06,281.43Z"/><path class="cls-4" d="M316.22,200.5s-1.6,52.68,8,81.14,23.16,29,42.65,22.24,26.1-8.74,26.1-8.74l-4.33-20.64s-14.25,4.12-23.38,2.35.09-51.5,0-59.12.48-19.56-5.74-25S314.7,193.43,316.22,200.5Z"/><path d="M315.59,200.5c-.2,6.8-.12,13.62.06,20.42a312.28,312.28,0,0,0,3.42,41.32,122.49,122.49,0,0,0,4.46,19.3c2.25,6.75,5.14,13.67,9.91,19.06A21.36,21.36,0,0,0,346,307.77c5.12.82,10.35-.1,15.29-1.47,7.37-2,14.53-4.87,21.78-7.29,3.24-1.09,6.49-2.11,9.73-3.16l.35-.1a.63.63,0,0,0-.33-1.21c-9,2.66-17.81,5.9-26.67,8.93-9.56,3.28-20.94,5.91-29.39-1.35-5-4.33-8.15-10.62-10.51-16.72a107.25,107.25,0,0,1-5.31-19.61,284.42,284.42,0,0,1-3.94-41.3c-.27-7.89-.17-15.75-.17-23.64,0-.12,0-.23,0-.35a.63.63,0,0,0-1.25,0Z"/><path d="M344.79,204.45a14.27,14.27,0,0,0,1.3,4.79,26.07,26.07,0,0,0,8,9.95,42.52,42.52,0,0,0,9.69,5.6c.73.31,1.37-.77.63-1.08-7.77-3.3-16-9.08-18.08-17.79a7.05,7.05,0,0,1-.25-1.47c0-.8-1.29-.8-1.25,0Z"/><rect class="cls-3" x="387.05" y="267" width="11.86" height="32.36" rx="2" transform="matrix(0.99, -0.15, 0.15, 0.99, -37.16, 60.45)"/><path class="cls-4" d="M394.51,267.22c1.47-.09,1.64,1,1.79,2.1l.45,3,1.44,9.77,1.47,10,.5,3.37c.11.74.37,1.56-.26,2.17s-2.77.68-3.76.83c-1.49.22-3,.53-4.52.66a1.65,1.65,0,0,1-1.89-1.59c-.14-.86-.25-1.71-.38-2.57l-2.91-19.7-.59-4c-.12-.8-.46-1.84.21-2.5a3,3,0,0,1,1.71-.52l2.77-.41,4.13-.61c.8-.12.46-1.32-.33-1.21l-4.13.61a26.32,26.32,0,0,0-4,.62c-2.63.82-1.68,3.88-1.38,5.85L388,294.52c.27,1.8.15,4.89,2.17,5.69,1.14.45,2.72,0,3.88-.21,1.66-.25,3.33-.47,5-.74a2.71,2.71,0,0,0,2.45-3.11c-.07-.62-.18-1.24-.27-1.86l-1.45-9.82L398,272c-.33-2.22-.2-6.24-3.45-6C393.71,266,393.7,267.27,394.51,267.22Z"/><path class="cls-3" d="M361.51,140.33s6.22,55.93,3.25,62.28-24.72,11-46,9.47-26.7-9.18-30.79-25-4-40.39-1.06-59.89,17.76-26.83,17.76-26.83,19.58-9.18,48.26-3,53.25,29.21,59,43.21,4,33.27,1.7,41.32-7.23,10-14.31,10.84-12.6-3.21-16.84-19.52-11.73-32.68-35.2-39.2"/><path class="cls-12" d="M360.89,140.33q1.65,14.88,2.82,29.81c.55,7.07,1.05,14.15,1.2,21.24,0,2.55.07,5.1-.12,7.64-.13,1.74-.28,3.31-1.49,4.59-2.64,2.81-7,4.08-10.58,5.08a88.42,88.42,0,0,1-17.33,2.77,110,110,0,0,1-19.38-.25A42.35,42.35,0,0,1,302.79,208a21,21,0,0,1-8-6.26,32.37,32.37,0,0,1-4.72-9.57c-3.32-10-4.37-20.65-4.62-31.16q-.22-9.15.4-18.28a129.94,129.94,0,0,1,2-17.71A36.92,36.92,0,0,1,300.43,104a22,22,0,0,1,6.43-3.84A73.7,73.7,0,0,1,328.11,96a88.44,88.44,0,0,1,35.29,5,98.7,98.7,0,0,1,28.68,16.65c6.76,5.57,13.28,12.09,17.59,19.79,5,8.85,5.79,19.89,5.35,29.83a68.15,68.15,0,0,1-1.72,13.12c-1.05,4.24-3.05,8.13-7.19,10a22.32,22.32,0,0,1-6.54,1.61,12.57,12.57,0,0,1-4.15-.08c-3.2-.68-5.54-3-7.24-5.68-2.82-4.47-4.17-9.65-5.54-14.69a81.89,81.89,0,0,0-4.15-11.91,45.4,45.4,0,0,0-16.73-20,53.16,53.16,0,0,0-14.39-6.27.63.63,0,0,0-.33,1.21c10.29,2.89,19.54,8.48,25.7,17.35a54.47,54.47,0,0,1,6.08,11.8c1.76,4.66,2.8,9.52,4.34,14.25,2.13,6.58,5.78,15,13.76,15.42a20.39,20.39,0,0,0,11.24-2.66c3.73-2.3,5.49-6.35,6.45-10.46a75.57,75.57,0,0,0,.58-30.33,42.4,42.4,0,0,0-4.55-13.32,58.68,58.68,0,0,0-7.07-9.66c-14.79-16.78-35.86-28.59-58.06-31.56a88.33,88.33,0,0,0-31.22,1.25,42.39,42.39,0,0,0-10.24,3.3,33.92,33.92,0,0,0-11.89,11.38c-6.1,9.27-6.85,20.64-7.56,31.42a167.12,167.12,0,0,0,1.11,36.46A80.08,80.08,0,0,0,289,193.05a32.64,32.64,0,0,0,4.91,9.66c5.05,6.45,13.14,8.69,20.95,9.63a108.2,108.2,0,0,0,20,.4,92.38,92.38,0,0,0,17.43-2.67c3.85-1,8.12-2.32,11.19-5a6.93,6.93,0,0,0,2.37-4.89c.67-5.72.2-11.65-.11-17.38-.73-13.36-2-26.69-3.41-40l-.27-2.5c-.09-.79-1.34-.8-1.25,0Z"/><path class="cls-2" d="M327.33,205.45c-17.26.1-28.2-3-34.93-6.24,4.33,7.72,11.43,11.78,26.32,12.87,21.32,1.55,43.07-3.11,46-9.47a7.84,7.84,0,0,0,.51-2.2C358,202.84,345.93,205.34,327.33,205.45Z"/><path class="cls-2" d="M387.07,185.63c3.42,6,7.44,7.61,12.18,7.06,6.59-.75,11.29-2.52,13.78-9.26C400,186.61,391.78,186.42,387.07,185.63Z"/><path class="cls-12" d="M360.89,140.33q1.65,14.88,2.82,29.81c.55,7.07,1.05,14.15,1.2,21.24,0,2.55.07,5.1-.12,7.64-.13,1.74-.28,3.31-1.49,4.59-2.64,2.81-7,4.08-10.58,5.08a88.42,88.42,0,0,1-17.33,2.77,110,110,0,0,1-19.38-.25A42.35,42.35,0,0,1,302.79,208a21,21,0,0,1-8-6.26,32.37,32.37,0,0,1-4.72-9.57c-3.32-10-4.37-20.65-4.62-31.16q-.22-9.15.4-18.28a129.94,129.94,0,0,1,2-17.71A36.92,36.92,0,0,1,300.43,104a22,22,0,0,1,6.43-3.84A73.7,73.7,0,0,1,328.11,96a88.44,88.44,0,0,1,35.29,5,98.7,98.7,0,0,1,28.68,16.65c6.76,5.57,13.28,12.09,17.59,19.79,5,8.85,5.79,19.89,5.35,29.83a68.15,68.15,0,0,1-1.72,13.12c-1.05,4.24-3.05,8.13-7.19,10a22.32,22.32,0,0,1-6.54,1.61,12.57,12.57,0,0,1-4.15-.08c-3.2-.68-5.54-3-7.24-5.68-2.82-4.47-4.17-9.65-5.54-14.69a81.89,81.89,0,0,0-4.15-11.91,45.4,45.4,0,0,0-16.73-20,53.16,53.16,0,0,0-14.39-6.27.63.63,0,0,0-.33,1.21c10.29,2.89,19.54,8.48,25.7,17.35a54.47,54.47,0,0,1,6.08,11.8c1.76,4.66,2.8,9.52,4.34,14.25,2.13,6.58,5.78,15,13.76,15.42a20.39,20.39,0,0,0,11.24-2.66c3.73-2.3,5.49-6.35,6.45-10.46a75.57,75.57,0,0,0,.58-30.33,42.4,42.4,0,0,0-4.55-13.32,58.68,58.68,0,0,0-7.07-9.66c-14.79-16.78-35.86-28.59-58.06-31.56a88.33,88.33,0,0,0-31.22,1.25,42.39,42.39,0,0,0-10.24,3.3,33.92,33.92,0,0,0-11.89,11.38c-6.1,9.27-6.85,20.64-7.56,31.42a167.12,167.12,0,0,0,1.11,36.46A80.08,80.08,0,0,0,289,193.05a32.64,32.64,0,0,0,4.91,9.66c5.05,6.45,13.14,8.69,20.95,9.63a108.2,108.2,0,0,0,20,.4,92.38,92.38,0,0,0,17.43-2.67c3.85-1,8.12-2.32,11.19-5a6.93,6.93,0,0,0,2.37-4.89c.67-5.72.2-11.65-.11-17.38-.73-13.36-2-26.69-3.41-40l-.27-2.5c-.09-.79-1.34-.8-1.25,0Z"/><path class="cls-2" d="M330.94,102.21c.16-.79.79-1,1.4-.46l5.72,5.09a.78.78,0,0,1-.3,1.45l-7.28,2.41c-.77.25-1.26-.19-1.1-1Z"/><path class="cls-2" d="M298.17,117.66a.78.78,0,0,1,1.4-.46l5.73,5.1a.78.78,0,0,1-.3,1.44l-7.28,2.41c-.77.25-1.26-.19-1.1-1Z"/><path class="cls-2" d="M241,74.63c.17-.8.8-1,1.4-.47l5.73,5.1a.78.78,0,0,1-.3,1.44l-7.28,2.41c-.77.26-1.26-.19-1.1-1Z"/><path class="cls-2" d="M245.8,95.43c.76-.28,1.27.15,1.13.94l-1.28,7.56c-.14.8-.76,1-1.38.51l-5.9-4.89c-.63-.52-.52-1.17.24-1.45Z"/><path class="cls-2" d="M264.37,99.72c.76-.28,1.27.14,1.13.94l-1.28,7.56c-.14.8-.76,1-1.38.51l-5.9-4.89c-.63-.52-.52-1.17.24-1.45Z"/><path class="cls-2" d="M271,123c.8.09,1.07.69.59,1.35l-4.53,6.18a.78.78,0,0,1-1.46-.16l-3.09-7c-.33-.75.06-1.28.87-1.19Z"/><path class="cls-2" d="M289.28,111.7c.8.09,1.07.69.59,1.35l-4.53,6.18a.78.78,0,0,1-1.46-.16l-3.09-7c-.33-.74.06-1.28.87-1.19Z"/><path class="cls-2" d="M324.92,125.83a.78.78,0,0,1,1.47.16l3.09,7c.33.74-.07,1.27-.87,1.19l-7.62-.84c-.81-.08-1.07-.69-.6-1.34Z"/><path class="cls-2" d="M297,143.23c.14-.8.76-1,1.38-.51l5.9,4.89a.78.78,0,0,1-.24,1.46l-7.19,2.66c-.76.28-1.27-.14-1.14-.94Z"/><path class="cls-2" d="M298.14,172.5a.77.77,0,0,1,1.44.28l2.49,7.25c.27.76-.17,1.26-1,1.11l-7.52-1.47a.78.78,0,0,1-.48-1.4Z"/><path class="cls-2" d="M316,156a.78.78,0,0,1,1.47,0l3.83,6.64c.41.7.08,1.28-.73,1.28h-7.67c-.81,0-1.14-.58-.74-1.28Z"/><path class="cls-2" d="M338.22,142.43a.78.78,0,0,1,1.47,0l3.83,6.64c.41.7.08,1.28-.73,1.28h-7.67c-.81,0-1.14-.58-.73-1.28Z"/><path class="cls-2" d="M349.23,118.72a.78.78,0,0,1,1.48,0l3.83,6.64c.41.7.07,1.27-.74,1.27h-7.66c-.81,0-1.14-.57-.74-1.27Z"/><path class="cls-2" d="M369.85,106.71a.78.78,0,0,1,1.48,0l3.83,6.64c.41.7.07,1.28-.74,1.28h-7.66c-.81,0-1.14-.58-.74-1.28Z"/><path class="cls-2" d="M370,134.3c-.13-.8.38-1.22,1.14-.94l7.19,2.65a.78.78,0,0,1,.25,1.46l-5.9,4.9c-.62.51-1.24.28-1.38-.52Z"/><path class="cls-2" d="M395.58,139c-.14-.8.37-1.22,1.13-.94l7.19,2.65a.78.78,0,0,1,.25,1.46l-5.89,4.9c-.63.51-1.25.28-1.38-.51Z"/><path class="cls-2" d="M385,158.22c-.14-.8.37-1.22,1.13-.94l7.19,2.65a.78.78,0,0,1,.25,1.45l-5.89,4.9c-.63.52-1.25.29-1.39-.51Z"/><path class="cls-2" d="M405,172.14c.65-.49,1.26-.22,1.35.58l.87,7.62c.1.8-.44,1.2-1.18.87l-7-3.05a.78.78,0,0,1-.17-1.46Z"/><path class="cls-2" d="M351.48,160.75a.78.78,0,0,1,1.46-.21l4.73,6c.5.64.25,1.25-.56,1.36L349.53,169c-.81.12-1.22-.41-.91-1.16Z"/><path class="cls-2" d="M345.8,188a.77.77,0,0,1,1.45-.21l4.73,6c.5.64.25,1.25-.55,1.37l-7.59,1.08c-.8.11-1.21-.41-.91-1.17Z"/><path class="cls-2" d="M330.29,173.68c.54-.61,1.19-.49,1.45.28l2.49,7.25c.26.77-.17,1.27-1,1.11l-7.52-1.47c-.8-.15-1-.78-.48-1.39Z"/><path class="cls-2" d="M311.56,191.59a.78.78,0,0,1,1.47.07l3.54,6.8c.37.72,0,1.27-.79,1.24l-7.66-.33c-.81,0-1.11-.63-.68-1.31Z"/><ellipse class="cls-2" cx="312.8" cy="98.88" rx="9.77" ry="9.11"/><path class="cls-4" d="M319.52,83.17s2.62-.25,3.71-1.39-.58-8.49-1.4-8.18S319.57,82.9,319.52,83.17Z"/><path class="cls-3" d="M319.48,83.74a12.3,12.3,0,0,0,2.9-8.46l-.61-13.9A12.39,12.39,0,0,0,308.9,49.57L298.69,50a12.39,12.39,0,0,0-11.81,12.88l.6,13.9A12.39,12.39,0,0,0,300.36,88.6l3.91-.17.34,7.73a6.59,6.59,0,0,0,6.86,6.28l2.3-.1a6.59,6.59,0,0,0,6.29-6.85l-.47-10.85A8.51,8.51,0,0,0,319.48,83.74Z"/><path d="M319.92,84.18A13.26,13.26,0,0,0,323,76.52c.06-1.07,0-2.16-.07-3.23L322.47,63c-.16-3.6-.87-6.91-3.34-9.71A13.42,13.42,0,0,0,308.19,49c-3.08.13-6.16.25-9.24.4a13.21,13.21,0,0,0-10.75,6.15c-1.9,3-2,6.28-1.84,9.72l.44,10.22a17.78,17.78,0,0,0,.6,4.53,13.06,13.06,0,0,0,12.26,9.24c1.54,0,3.08-.12,4.61-.18l-.62-.63q.15,3.63.31,7.26c.18,3.65,2.53,6.83,6.31,7.32,3.18.41,6.86-.2,8.92-2.86,1.83-2.37,1.47-5.14,1.35-7.92a75.77,75.77,0,0,0-.46-8.66c-.13-.79-1.33-.46-1.21.33a57.1,57.1,0,0,1,.34,6.41,41.73,41.73,0,0,1,.19,6.12,6,6,0,0,1-3.8,4.91,12.29,12.29,0,0,1-4,.47c-3.73.1-6.23-2.65-6.38-6.25l-.31-7.13a.63.63,0,0,0-.63-.62c-3.48.15-6.88.49-10.08-1.28a12,12,0,0,1-6.1-10.09c-.13-2.85-.25-5.71-.37-8.56-.11-2.55-.52-5.37,0-7.89A11.89,11.89,0,0,1,298,50.69c2.63-.27,5.32-.25,8-.37,3.42-.15,6.63-.26,9.68,1.65a12,12,0,0,1,5.54,10l.43,9.86c0,1.14.11,2.27.15,3.41a12,12,0,0,1-2.71,8.1C318.53,83.91,319.41,84.8,319.92,84.18Z"/><path class="cls-4" d="M307.55,51.17a18.12,18.12,0,0,1-8.11,7.61c-5.93,2.94-13.56,5.75-17.25.74s.83-8.28.83-8.28-5-6.83-1.74-15S298.24,22,308.94,26s11.61,11,11.61,11,4.66-2.28,11.8,4.26,4.26,21.37,1.16,26.67c-1.53,2.61-8.78,12.79-10.42,14-1,.7-.24-2.46-.17-5.1a7.74,7.74,0,0,0-.69-3.21l0-9.23S309.2,63.92,307.55,51.17Z"/><circle class="cls-3" cx="328.09" cy="69.88" r="8.56" transform="translate(206.69 382.59) rotate(-80.81)"/><path d="M334.25,65a7.87,7.87,0,0,1-1,10.81,8,8,0,0,1-10.95-.55c-.56-.58-1.44.31-.88.88a9.3,9.3,0,0,0,10.31,2.08,9,9,0,0,0,3.38-14.11c-.5-.62-1.38.26-.88.89Z"/><path class="cls-12" d="M324.21,71.3a4.87,4.87,0,0,1,0-.54l0-.58,0-.18c0-.1,0,.24,0,0s.05-.25.07-.37a5.75,5.75,0,0,1,.23-.78l0-.1c.05-.15-.08.18,0,0a1.42,1.42,0,0,0,.08-.18c.07-.13.14-.26.22-.38a1.43,1.43,0,0,1,.14-.2.18.18,0,0,1,.05-.07c.08-.13-.13.14,0,0s.21-.24.32-.35l.18-.16.09-.07s-.16.12,0,0a3.29,3.29,0,0,1,.44-.28l.27-.13c-.21.1-.05,0,0,0l.2-.08a5.28,5.28,0,0,1,.66-.16l.15,0h.07l.39,0c.31,0,.62,0,.93,0a.8.8,0,0,0,.8-.79.82.82,0,0,0-.8-.8,5.58,5.58,0,0,0-5,2,6.18,6.18,0,0,0-1.09,3.43,4.45,4.45,0,0,0,0,.73.82.82,0,0,0,.8.79.79.79,0,0,0,.79-.79Z"/><path class="cls-13" d="M307.45,65.12a2.31,2.31,0,1,1-2.41-2.2A2.31,2.31,0,0,1,307.45,65.12Z"/><path class="cls-13" d="M292.36,65.44a2,2,0,1,1-2.05-1.88A2,2,0,0,1,292.36,65.44Z"/><path class="cls-14" d="M295,74.76s1.3,3.32,3.76,3.45S303,75.54,303,73.42Z"/><path class="cls-13" d="M294.38,74.93a7,7,0,0,0,2.47,3.26,3.7,3.7,0,0,0,3,.51,4.83,4.83,0,0,0,2.59-1.9,6.08,6.08,0,0,0,1.2-3.38.62.62,0,0,0-.78-.59l-7,1.17-1,.17c-.78.13-.45,1.32.32,1.19l7-1.18,1-.17-.78-.59a4.57,4.57,0,0,1-2.65,4c-1.56.56-2.85-.55-3.64-1.8a8.78,8.78,0,0,1-.44-.79c0-.09-.08-.18-.13-.27s.06.14,0,0a.62.62,0,0,0-.75-.43A.61.61,0,0,0,294.38,74.93Z"/><polygon class="cls-7" points="296.19 63.31 297 71.12 293.15 69.01 296.19 63.31"/><circle class="cls-7" cx="310.09" cy="73.49" r="5.73" transform="translate(45.16 250.61) rotate(-47.1)"/><path class="cls-7" d="M288.82,70.29a4.1,4.1,0,0,0-1,.16l.25,5.94a12.86,12.86,0,0,0,.39,2.57,4.53,4.53,0,0,0,.74,0,4.36,4.36,0,0,0-.38-8.71Z"/></g></g></svg>