<svg xmlns="http://www.w3.org/2000/svg" viewBox="0 0 146.33 188.35"><defs><style>.cls-1{isolation:isolate;}.cls-2{fill:#dcefec;}.cls-3,.cls-5{fill:#bfd1cf;}.cls-14,.cls-3{opacity:0.5;}.cls-14,.cls-4{fill:#fff;}.cls-6{fill:#2a2a2b;}.cls-7{fill:#354e77;}.cls-8{fill:#4c87a5;}.cls-9{fill:#47484a;}.cls-10{fill:#f3658b;}.cls-11{fill:#e05f87;}.cls-12{fill:#e5ddca;}.cls-13{fill:#bfb9b2;mix-blend-mode:multiply;opacity:0.6;}</style></defs><g class="cls-1"><g id="Camada_2" data-name="Camada 2"><g id="OBJECTS"><path class="cls-2" d="M35.51,145.46s1.93,19,13.52,33.33L41.5,184.7C52.66,186.78,64.63,182,64.63,182c0-2.78-1.45-13.28,4.92-20.64C69.55,161.39,49.68,138.74,35.51,145.46Z"/><path class="cls-3" d="M69.55,161.39s-19.87-22.65-34-15.93a63.77,63.77,0,0,0,1.52,8,10.93,10.93,0,0,1-.31-2.26,10.93,10.93,0,0,0,.31,2.26c.08.29.15.58.23.88,1,3.43,3.07,7.78,5.49,8.18.73-1.46.36-3.28.36-4.93,1.1,2.38,5.3,10.42,5.85,3.66.73,1.82,2,5.11,3.65,5.84a2.79,2.79,0,0,0,.37-2.37c.36,1.64.91,4.56,2.37,5.66.88.55,1.56.56,2,0,.14-.69.3-1.3.42-1.69a2.71,2.71,0,0,1-.42,1.69c-.32,1.56-.53,3.52.23,4.15a1,1,0,0,0,1.05.21,12.66,12.66,0,0,1,.6-2c.12.85-.08,1.78-.6,2-.4,1.86-.46,4.06.81,4.81a15.17,15.17,0,0,1,.88-2.28,3.66,3.66,0,0,1-.73,2.38l-.15-.1a17.74,17.74,0,0,0-.74,4.2,47.35,47.35,0,0,0,6-1.79C64.6,179.25,63.18,168.75,69.55,161.39Z"/><path class="cls-4" d="M39.4,153.68c-2.21,4.52-3.38,11.67,1.07,15.23a.75.75,0,0,0,1.06-1.06c-3.19-3.81-3.22-9.47-1.67-14a.25.25,0,0,0-.46-.19Z"/><path class="cls-4" d="M41.18,160.44a17.72,17.72,0,0,0,.92,11.94c.26.52,1.19.3,1.12-.3-.45-4-2-7.37-1.46-11.48.05-.38-.49-.55-.58-.16Z"/><path class="cls-4" d="M43,169c-.58,2.26-1.33,5.63.78,7.33a.4.4,0,0,0,.63-.49,10.24,10.24,0,0,1-.68-6.64c.08-.47-.6-.67-.73-.2Z"/><path class="cls-4" d="M48.06,179.77c-2.77.6-5.91,1.62-7.91,3.72-.35.37,0,1.15.54.92,2.63-1.09,4.9-2.84,7.6-3.82a.43.43,0,0,0-.23-.82Z"/><path class="cls-4" d="M44,183.37c-1.84,0-4.65.89-4.87,3.06-.06.62.8.9,1.2.49s.86-1.22,1.43-1.74a5.68,5.68,0,0,1,2.31-1.26.28.28,0,0,0-.07-.55Z"/><path class="cls-4" d="M45.26,183.41c-1.49.8-3.47,1.37-4.09,3.1-.23.64.66.88,1,.42a18,18,0,0,1,3.42-3.09c.26-.2-.07-.57-.33-.43Z"/><path class="cls-4" d="M46.81,183.53c-1.42.95-3.49,2.11-3.45,4.05a.66.66,0,0,0,1.28.18,9.83,9.83,0,0,1,2.66-3.6.4.4,0,0,0-.49-.63Z"/><path class="cls-4" d="M50.17,183.11a5.56,5.56,0,0,0-2.78,4.7.55.55,0,0,0,1.08.15,8.1,8.1,0,0,1,2.33-3.77c.63-.47.06-1.54-.63-1.08Z"/><path class="cls-4" d="M61.87,181.56c-1.11,1.51-2,3.4-3.72,4.29-.34.17-.2.79.2.74,2.34-.23,3.21-2.83,4.35-4.55.34-.52-.47-1-.83-.48Z"/><path class="cls-4" d="M59.51,181.57a14.87,14.87,0,0,1-5.22,3.22.5.5,0,0,0,.26,1c2.3-.41,3.91-2.05,5.42-3.72a.33.33,0,0,0-.46-.46Z"/><path class="cls-4" d="M55.74,182.62c-.47.21-.69.71-1.05,1.08A6.4,6.4,0,0,1,53,184.89c-1,.51-2.33.41-3.14,1.14a.56.56,0,0,0,0,.79c1.15.89,2.79-.1,3.79-.83.82-.6,2.55-2.14,2.27-3.3a.13.13,0,0,0-.19-.07Z"/><path class="cls-4" d="M43.28,169.38c.34,2.22.33,5,1.73,6.86a.45.45,0,0,0,.78-.45,38.43,38.43,0,0,1-2-6.56c-.08-.35-.58-.19-.53.15Z"/><path class="cls-4" d="M45.78,171.53c-.45,2.5-1.13,5.74,1.77,6.91.69.28,1-.72.46-1.09-1.86-1.39-1.65-3.66-1.59-5.73,0-.36-.58-.45-.64-.09Z"/><path class="cls-4" d="M44.85,180a12.12,12.12,0,0,1,4.21,1.76c.54.36,1-.39.64-.83-1.1-1.41-3.12-1.48-4.76-1.57a.33.33,0,0,0-.09.64Z"/><path class="cls-4" d="M46.45,179.15a6.42,6.42,0,0,1,4,2c.32.37.9-.11.67-.52-.93-1.61-2.81-2-4.54-2.25-.42,0-.51.67-.1.74Z"/><path class="cls-5" d="M64.21,175.68c-.73,3.35-2,7.49,1.41,9.75.69.46,1.49-.59.88-1.14C64,182,64.69,178.78,65,175.78c0-.45-.69-.54-.79-.1Z"/><path class="cls-5" d="M62.73,173.24A56.49,56.49,0,0,0,63.84,181c.16.58,1.13.49,1.08-.15a70.42,70.42,0,0,0-1.25-7.76c-.1-.52-1-.4-.94.13Z"/><path class="cls-5" d="M63.14,170.64c1.14,2.68,2.71,5.46,2.13,8.48a.5.5,0,0,0,1,.27c1.11-3.14-1.13-6.4-2.5-9.1-.2-.42-.77-.06-.6.35Z"/><path class="cls-5" d="M63.36,168.47c.68,3.43,2.23,6.65,1.29,10.21a.42.42,0,0,0,.82.22c1.48-3.62-.6-7.09-1.48-10.61-.11-.41-.71-.23-.63.18Z"/><path class="cls-5" d="M64,166.62c.19,1.3.47,2.58.69,3.88a19.93,19.93,0,0,1-.11,4.82c0,.49.6.56.84.23,1.81-2.5-.15-6.49-.75-9.11-.1-.46-.73-.25-.67.18Z"/><path class="cls-5" d="M65.66,163.75c0,3.12,1.09,6,.38,9.14a.43.43,0,0,0,.82.23c1.2-3.13-.37-6.19-.55-9.37a.33.33,0,0,0-.65,0Z"/><path class="cls-5" d="M67.56,161.67a22.92,22.92,0,0,1-.9,6.58.5.5,0,0,0,1,.26c.79-2.1,1.28-4.75.47-6.91-.1-.28-.55-.26-.54.07Z"/><path class="cls-2" d="M108.93,145.05S107,164,95.41,178.38l7.52,5.9c-11.15,2.08-23.12-2.66-23.12-2.66,0-2.78,1.45-13.28-4.93-20.64C74.88,161,94.76,138.32,108.93,145.05Z"/><path class="cls-3" d="M86.84,177.19c-.4.73-.81,1.45-1.16,2.16a3.33,3.33,0,0,1,1.09-2.56c0,.13,0,.26.07.4a13.35,13.35,0,0,0,1.93-5.25,3.17,3.17,0,0,1,0-.81,5.48,5.48,0,0,1,0,.81c.1.85.65,1.16,1.66,1,1.64-.19,2.92-3.66,3.47-4.93.73,4.74,5.29-4.94,5.66-6,1.55,4.66,4,1.42,5.84-2.2a72.16,72.16,0,0,0,3.53-14.75C94.76,138.32,74.88,161,74.88,161c6.38,7.36,5,17.86,4.93,20.64a48.14,48.14,0,0,0,5.73,1.73A12.46,12.46,0,0,0,86.84,177.19Z"/><path class="cls-4" d="M105,153.27c2.21,4.51,3.38,11.67-1.07,15.23a.75.75,0,0,1-1.07-1.06c3.2-3.82,3.22-9.47,1.68-14a.25.25,0,0,1,.46-.19Z"/><path class="cls-4" d="M103.26,160a17.75,17.75,0,0,1-.92,11.95.61.61,0,0,1-1.13-.3c.46-4,2-7.37,1.47-11.49-.05-.37.48-.55.58-.16Z"/><path class="cls-4" d="M101.48,168.56c.58,2.25,1.34,5.63-.77,7.33a.41.41,0,0,1-.63-.49,10.24,10.24,0,0,0,.68-6.64c-.08-.47.6-.68.72-.2Z"/><path class="cls-4" d="M96.38,179.35c2.77.6,5.9,1.63,7.91,3.73.35.36,0,1.14-.54.92-2.63-1.09-4.9-2.84-7.6-3.82a.43.43,0,0,1,.23-.83Z"/><path class="cls-4" d="M100.43,183c1.84,0,4.65.88,4.86,3a.7.7,0,0,1-1.19.5c-.54-.54-.87-1.22-1.43-1.75a5.75,5.75,0,0,0-2.31-1.26.28.28,0,0,1,.07-.54Z"/><path class="cls-4" d="M99.18,183c1.49.79,3.47,1.37,4.09,3.1.23.63-.66.88-1,.42a18,18,0,0,0-3.42-3.09c-.26-.2.06-.57.33-.43Z"/><path class="cls-4" d="M97.62,183.12c1.43.94,3.5,2.11,3.46,4a.66.66,0,0,1-1.28.17,9.91,9.91,0,0,0-2.66-3.59c-.33-.31.1-.88.48-.63Z"/><path class="cls-4" d="M94.27,182.7a5.61,5.61,0,0,1,2.78,4.7.56.56,0,0,1-1.09.15,7.93,7.93,0,0,0-2.33-3.77c-.62-.48,0-1.54.64-1.08Z"/><path class="cls-4" d="M88.69,182.2c.48.22.7.71,1.06,1.09a6.91,6.91,0,0,0,1.68,1.19c1,.51,2.33.41,3.14,1.14a.55.55,0,0,1,0,.78c-1.16.9-2.79-.09-3.79-.82-.82-.61-2.56-2.14-2.27-3.3a.12.12,0,0,1,.18-.08Z"/><path class="cls-4" d="M101.16,169c-.34,2.21-.33,5-1.73,6.86a.45.45,0,0,1-.78-.46,37.17,37.17,0,0,0,2-6.55c.09-.35.59-.2.54.15Z"/><path class="cls-4" d="M98.66,171.12c.44,2.49,1.13,5.74-1.77,6.91-.69.28-1-.73-.47-1.1,1.87-1.38,1.66-3.65,1.6-5.72,0-.37.58-.46.64-.09Z"/><path class="cls-4" d="M99.59,179.62a12.17,12.17,0,0,0-4.22,1.76c-.54.36-1-.4-.63-.83,1.1-1.41,3.12-1.49,4.76-1.57a.33.33,0,0,1,.09.64Z"/><path class="cls-4" d="M98,178.74a6.41,6.41,0,0,0-4,2c-.33.37-.91-.1-.67-.51.93-1.62,2.81-2,4.53-2.25.42-.05.52.66.1.74Z"/><path class="cls-5" d="M80.22,175.26c.74,3.36,2,7.5-1.4,9.76a.73.73,0,0,1-.88-1.14c2.52-2.27,1.81-5.51,1.5-8.51,0-.45.69-.54.78-.11Z"/><path class="cls-5" d="M82.56,181.15c1.12,1.5,2,3.39,3.73,4.28.34.18.19.79-.2.75-2.35-.24-3.21-2.83-4.35-4.56-.34-.52.47-1,.82-.47Z"/><path class="cls-5" d="M84.93,181.15a14.5,14.5,0,0,0,5.22,3.22.5.5,0,0,1-.27,1c-2.29-.41-3.9-2.05-5.41-3.72a.33.33,0,0,1,.46-.47Z"/><path class="cls-5" d="M81.7,172.82a56.4,56.4,0,0,1-1.1,7.79c-.16.58-1.13.48-1.08-.15a70.42,70.42,0,0,1,1.25-7.76c.1-.53,1-.41.93.12Z"/><path class="cls-5" d="M81.3,170.23c-1.14,2.67-2.71,5.46-2.13,8.48a.5.5,0,0,1-1,.26c-1.12-3.14,1.13-6.39,2.49-9.1.21-.41.78-.05.61.36Z"/><path class="cls-5" d="M81.08,168.05c-.68,3.44-2.23,6.66-1.29,10.21a.43.43,0,0,1-.82.23c-1.49-3.62.6-7.09,1.48-10.61.1-.41.71-.24.63.17Z"/><path class="cls-5" d="M80.41,166.21c-.19,1.3-.47,2.58-.7,3.87a20,20,0,0,0,.12,4.83c0,.49-.6.56-.84.23-1.81-2.51.15-6.5.74-9.12.11-.45.74-.24.68.19Z"/><path class="cls-5" d="M78.78,163.34c0,3.12-1.09,6-.38,9.14a.43.43,0,0,1-.82.23c-1.2-3.13.36-6.2.55-9.37a.33.33,0,0,1,.65,0Z"/><path class="cls-5" d="M76.88,161.26a22.85,22.85,0,0,0,.9,6.57.5.5,0,0,1-1,.27c-.79-2.1-1.28-4.75-.47-6.91a.28.28,0,0,1,.54.07Z"/><path class="cls-2" d="M19.92,86.84c-3.91,5.44-6.56,12.35-6.46,19.1,0,1,1.56,1.23,1.72.23,1.06-6.59,2-13.06,5.43-18.93A.4.4,0,0,0,19.92,86.84Z"/><path class="cls-2" d="M18.63,98.06c-2,6.7-3.38,13.59-1.83,20.53a.9.9,0,0,0,1.77-.24,81,81,0,0,1,.73-20.1A.35.35,0,0,0,18.63,98.06Z"/><path class="cls-2" d="M23,109.93c.09-.47-.6-.68-.72-.2-1.9,7.43-2.65,15.75,0,23.08a.73.73,0,0,0,1.4-.39A54.66,54.66,0,0,1,23,109.93Z"/><path class="cls-2" d="M25.63,126.69a.55.55,0,0,0-1.1,0c-.17,6.4-.06,13,3.56,18.56a.81.81,0,0,0,1.39-.81C26.64,138.83,25.84,132.9,25.63,126.69Z"/><path class="cls-2" d="M30,136.88a.25.25,0,0,0-.5,0c-.39,6.35-.06,13.25,4.48,18.18a.83.83,0,0,0,1.3-1C31.9,148.68,30.77,143.08,30,136.88Z"/><path class="cls-2" d="M46.73,159.08c-4.58-2.76-8.51-7.57-8.6-13.13a.46.46,0,0,0-.91,0,15.17,15.17,0,0,0,.87,6.07c-4.35-5.07-7.36-12.79-5-19.16.09-.24-.31-.41-.41-.17-3.08,6.57-.66,18.33,5.91,22.09a.74.74,0,0,0,.75,0,10.84,10.84,0,0,0,6.87,5.55A.68.68,0,0,0,46.73,159.08Z"/><path class="cls-2" d="M45.53,150.4c-.09-.78-1.28-.82-1.26,0,.18,4.88,3.08,10.9,7.65,13.08a.78.78,0,0,0,.94-1.22C49.74,158.49,46.12,155.63,45.53,150.4Z"/><path class="cls-2" d="M51.28,155.22a.45.45,0,0,0-.9,0c0,3.72,2.51,8.15,6,9.61.86.36,1.2-.9.58-1.37C54.32,161.47,51.61,158.67,51.28,155.22Z"/><path class="cls-2" d="M15.75,74.26a46.25,46.25,0,0,1,6.14-13.6c.44-.65-.58-1.21-1-.6A35.43,35.43,0,0,0,14.4,73.88.7.7,0,0,0,15.75,74.26Z"/><path class="cls-2" d="M17.6,59.27c3.14-6.44,5.89-12.94,11.32-17.86.37-.34-.14-1-.55-.71a33.79,33.79,0,0,0-12.19,18C16,59.5,17.2,60.08,17.6,59.27Z"/><path class="cls-2" d="M19.92,48.9a32.21,32.21,0,0,1,8.17-12.58c.25-.25-.1-.74-.4-.51-4.24,3.24-8.79,7.25-9.34,12.88C18.26,49.64,19.65,49.71,19.92,48.9Z"/><path class="cls-2" d="M22,38.47c2.69-3.89,5.88-7.59,10.29-9.57.26-.12.07-.53-.2-.46-4.75,1.3-9.31,4.73-11.26,9.35A.68.68,0,0,0,22,38.47Z"/><path class="cls-2" d="M23.6,32.9c3.2-4.82,8.48-9,14.16-10.41.32-.08.26-.62-.08-.59-6.19.56-12.7,4.5-15.2,10.34A.65.65,0,0,0,23.6,32.9Z"/><path class="cls-2" d="M32.5,22.1c4.13-2,8-5.13,12.77-5.46a.38.38,0,0,0,0-.75c-4.79-.35-10.08,2-13.68,5C30.9,21.51,31.77,22.46,32.5,22.1Z"/><path class="cls-2" d="M71.58,8.58A40.77,40.77,0,0,0,59,8.46a.59.59,0,0,0-.36.88,23.4,23.4,0,0,0-12.51,3c-.83.47-.27,1.89.66,1.56,5.26-1.9,10.64-3.61,16.31-2.75a.5.5,0,0,0,.27-1,17.77,17.77,0,0,0-2.79-.69,103.32,103.32,0,0,1,11-.41C71.94,9.15,71.92,8.63,71.58,8.58Z"/><path class="cls-2" d="M81.53,10.21c-3.28-3.72-9.22-4.13-13.84-3.6a.58.58,0,0,0,0,1.16c4.36.51,9.72-.1,13.2,3.07A.45.45,0,0,0,81.53,10.21Z"/><path class="cls-2" d="M40.7,16.71C25.16,29,13.29,62.14,16.42,94.64s11.75,68.84,54.82,68.49,52.08-33.28,57.17-73.21-3.13-63.81-14.49-73.21S57.54,3.4,40.7,16.71Z"/><path class="cls-3" d="M113.92,16.71c-5.09-4.21-17-7.32-30-8.27,4.85,5.84,9,13.77,10.52,19.67.71,2.86.35,10-4.64,6.77,2.86,5,6.42,15,4.28,20.32a5.62,5.62,0,0,1-3.92-3.57c2.5,5.7,6.77,14.26,4.28,20.67l-1.07-1.07c.71,5,2.49,10.69,1.78,15.68-.36,2.49-1.78,5.7-3.56,1.42,1.07,2.86,4.63,29.58-2.85,22.45-1.07,6.06,1.42,13.55-2.14,18.53a5.25,5.25,0,0,1-1.07-2.49c0,4.28-.36,12.83-4.28,15.68-.35-.36-.35-.71-.71-1.07.36,4.28-2.49,12.83-6.06,14.61,0-.36-.35-1.07-.35-1.43a29.52,29.52,0,0,1-2.45,8.51c42.7-.57,51.67-33.41,56.74-73.2S125.28,26.11,113.92,16.71Z"/><path class="cls-4" d="M28.76,34.14C22,42.63,19.86,53.55,16.31,63.56c-.23.65.77.9,1,.28C21.05,54,22.81,43.06,29.19,34.47c.19-.25-.24-.58-.43-.33Z"/><path class="cls-4" d="M20.84,65.49c-3.44,7.43-6.48,15-6.71,23.27,0,.95,1.36.92,1.45,0,.78-8,3.06-15.53,5.86-23,.12-.35-.45-.59-.6-.26Z"/><path class="cls-4" d="M17.6,91.79a64.26,64.26,0,0,0-2.54,20.08.58.58,0,0,0,1.15,0c.21-6.71.48-13.34,2.16-19.87a.4.4,0,0,0-.77-.21Z"/><path class="cls-4" d="M19.21,102.37c-1.53,7.26-2.58,15.73-.68,23,.22.84,1.37.46,1.26-.34-1.05-7.64.08-14.93.11-22.54a.35.35,0,0,0-.69-.1Z"/><path class="cls-4" d="M20.67,111.08c-.2,7.4-1.3,15.29,1.93,22.21.27.58,1.16.16,1-.43-1.88-7.26-1.92-14.34-2-21.78a.45.45,0,0,0-.9,0Z"/><path class="cls-4" d="M20.16,80.05c-3.67,7.68-8.07,16.07-8.23,24.77,0,.64,1,.8,1.13.15,1.65-8.63,5-16.41,7.47-24.77.07-.21-.27-.36-.37-.15Z"/><path class="cls-4" d="M23.69,114.61c-1.37,11.15-1,22.83,4.76,32.79a.58.58,0,0,0,1-.58c-5.07-10-6.28-21.11-5.41-32.21,0-.23-.33-.22-.35,0Z"/><path class="cls-4" d="M30.56,134.58c-.87,7.08.27,15,6.17,19.63.62.49,1.46-.29.89-.89-5-5.26-6.83-11.59-6.36-18.74,0-.46-.65-.44-.7,0Z"/><path class="cls-4" d="M37.64,89.61c-2,7-2.58,14.12.25,21.09.17.41,1.06.24.92-.17a36,36,0,0,1-.54-20.81c.07-.28-.54-.4-.63-.11Z"/><path class="cls-4" d="M42.66,107.52a21.39,21.39,0,0,0,.27,14.63c.18.45,1.13.25,1-.19-1.19-4.8-1.87-9.48-.51-14.3.09-.33-.67-.48-.78-.14Z"/><path class="cls-4" d="M30.18,105.9c-.86,6.21-1.42,12.38-.51,18.62.08.53,1,.41.93-.12A95.17,95.17,0,0,1,30.87,106c0-.39-.64-.48-.69-.09Z"/><path class="cls-4" d="M33.86,120.87c0,5.22.09,10.45.31,15.67a.66.66,0,0,0,1.31,0c.17-5.23-.37-10.45-.47-15.67a.58.58,0,0,0-1.15,0Z"/><path class="cls-4" d="M31.39,58.31c-5.82,6.44-6.23,15.56-6.54,23.79,0,.75,1.1.74,1.15,0,.53-7.84.66-16.88,6-23.19.36-.41-.23-1-.6-.6Z"/><path class="cls-4" d="M21.27,58.47c-3.74,6.36-7.34,13-7.77,20.5-.05.75,1.07.73,1.15,0,.75-7.25,3.73-13.84,7.1-20.22a.28.28,0,0,0-.48-.28Z"/><path class="cls-4" d="M24,37.72c-3.87,5.85-7.25,13-7.76,20.11a.56.56,0,0,0,1.09.14c1.5-7,3.49-13.76,7.14-20a.27.27,0,0,0-.47-.28Z"/><path class="cls-4" d="M33.54,29.05C28.14,32.43,22.36,36.31,19,41.86c-.41.68.59,1.21,1,.61C23.94,37.31,29.45,34,33.81,29.4c.17-.18-.05-.49-.27-.35Z"/><path class="cls-4" d="M36.62,22.3A41.22,41.22,0,0,0,23.1,33.18c-.44.51.26,1.23.74.74,4.05-4.12,8-8.21,13.11-11,.37-.21,0-.75-.33-.57Z"/><path class="cls-4" d="M76.39,10.23C69,7.89,61,7.09,53.45,9c-.83.22-.46,1.39.34,1.26a62.67,62.67,0,0,1,22.48.37.22.22,0,0,0,.12-.43Z"/><path class="cls-4" d="M56.79,11.11c-1.88-.52-4.26.11-6.15.41a25.79,25.79,0,0,0-8.32,2.65c-.67.36-.2,1.53.52,1.24,2.39-1,4.85-1.79,7.32-2.56,2.17-.66,4.51-.8,6.63-1.5a.13.13,0,0,0,0-.24Z"/><path class="cls-4" d="M33.24,76.9c-2.49,6-4.82,12-5.26,18.52,0,.75,1.09.73,1.16,0,.58-6.41,2.63-12.33,4.92-18.29.2-.52-.62-.72-.82-.23Z"/><path class="cls-4" d="M46.53,94a31,31,0,0,0-2.93,10.43.63.63,0,0,0,1.23.17c.62-3.44,2.15-6.77,2.62-10.21.07-.51-.65-.95-.92-.39Z"/><path class="cls-4" d="M55.76,100.16c-2.33,4.1-2.57,8.66-2.4,13.27a.66.66,0,0,0,1.31,0c.17-4.32.17-8.67,2.3-12.57.43-.79-.77-1.49-1.21-.7Z"/><path class="cls-4" d="M53.76,150.63c-.17,5.14-.78,11.52,4.31,14.53.56.34,1-.5.5-.86-4.38-3.14-4.18-8.84-4.31-13.67a.25.25,0,0,0-.5,0Z"/><path class="cls-4" d="M49.82,153.37c-.37,4.24.85,8.9,4.27,11.68a.45.45,0,0,0,.63-.64,14.46,14.46,0,0,1-4.35-11c0-.36-.52-.35-.55,0Z"/><path class="cls-4" d="M43.86,151.51c1,3.32,2.18,6.75,4.73,9.25.44.43,1.08-.22.67-.68a25.25,25.25,0,0,1-4.67-8.77c-.16-.45-.88-.26-.73.2Z"/><path class="cls-4" d="M61.89,156.11c0,3.4,0,7.45,1.94,10.4.25.39.93.15.78-.33a34.94,34.94,0,0,1-2-10.07.35.35,0,0,0-.7,0Z"/><path class="cls-4" d="M59.89,123.51a48.64,48.64,0,0,0-2.41,16.94.45.45,0,0,0,.9,0c.17-5.69.51-11.28,2.28-16.73.17-.5-.6-.7-.77-.21Z"/><path class="cls-4" d="M45.38,136.69a16,16,0,0,0-1.58,8.07.43.43,0,0,0,.85,0,22.34,22.34,0,0,1,1.55-7.59c.25-.55-.55-1-.82-.48Z"/><path class="cls-4" d="M49.32,137.21a16,16,0,0,0,.46,8,.33.33,0,0,0,.63-.18,21.66,21.66,0,0,1-.3-7.74c0-.45-.73-.56-.79-.11Z"/><path class="cls-5" d="M100.74,91.5a28.55,28.55,0,0,1-1.17,12.75.68.68,0,0,0,1.23.52c2.29-4.39,2.16-8.68,1.22-13.44-.14-.72-1.36-.56-1.28.17Z"/><path class="cls-5" d="M103.24,104.42a19.22,19.22,0,0,1-1.11,8.89c-.19.51.55.74.83.35,1.94-2.75,1.71-6.18,1.27-9.37-.08-.56-1-.43-1,.13Z"/><path class="cls-5" d="M111.52,92.29a19.38,19.38,0,0,1-1.14,8.89c-.16.45.58.77.78.33a17.74,17.74,0,0,0,1.26-9.22c-.06-.58-1-.58-.9,0Z"/><path class="cls-5" d="M86.61,77.88c.53,3.74-1.23,6.86-3.14,9.92-.21.33.3.74.55.43,2.4-3.06,3.89-6.58,3.18-10.51-.07-.39-.64-.22-.59.16Z"/><path class="cls-5" d="M91.36,68.07a28.43,28.43,0,0,1,.47,3.56c0,1.41-.21,2.8-.21,4.21a.38.38,0,0,0,.74.1c.61-2.27.73-6-.54-8.06a.25.25,0,0,0-.46.19Z"/><path class="cls-5" d="M98.67,62.13a39.28,39.28,0,0,0,0,5.09.36.36,0,0,0,.71,0,39.28,39.28,0,0,0,0-5.09.38.38,0,0,0-.75,0Z"/><path class="cls-5" d="M102.7,55.24a18.39,18.39,0,0,1,1.53,7.29.3.3,0,0,0,.6,0,16.24,16.24,0,0,0-1.61-7.6c-.17-.35-.68,0-.52.31Z"/><path class="cls-5" d="M98.27,78.69A10.85,10.85,0,0,1,96.72,87c-.29.48.41.85.73.43A10,10,0,0,0,99,78.47c-.13-.5-.88-.29-.77.22Z"/><path class="cls-5" d="M118.28,70.84a34.1,34.1,0,0,1,2.56,16.36c-.06.58.94.72,1,.14.92-5.82-.47-11.49-2.94-16.77-.17-.36-.8-.1-.65.27Z"/><path class="cls-5" d="M127,84.14c1.94,6.72,2.61,13,.52,19.74-.19.62.78,1.05,1.05.44,3-6.8,1.44-13.59-1-20.34-.13-.36-.69-.21-.58.16Z"/><path class="cls-5" d="M123.41,100.69c3.31,5.22,1.74,11.37.21,16.92-.14.53.67.91.92.38,2.53-5.48,3.14-12.55-.52-17.66-.26-.36-.85,0-.61.36Z"/><path class="cls-5" d="M121.74,116.28c1.67,5,1.61,9.8-.87,14.48a.57.57,0,0,0,1,.58c3-4.66,2.61-10.26.7-15.28-.19-.5-1-.3-.82.22Z"/><path class="cls-5" d="M117.17,128.31c.5,5.45-1.85,10.74-4.57,15.35-.42.71.61,1.26,1.08.63,2.89-3.85,5.95-11.23,4-16-.11-.27-.58-.26-.55.07Z"/><path class="cls-5" d="M108.42,142.13c1.15,4.72-.23,8.75-2.48,12.88a.63.63,0,0,0,1.09.64c2.67-4.28,3.7-8.83,2.21-13.75a.43.43,0,0,0-.82.23Z"/><path class="cls-5" d="M103.21,151.27A12.53,12.53,0,0,1,99,159.6c-.52.44.17,1.33.73,1,3.09-2.11,4.18-5.55,4.55-9.14.07-.61-1-.76-1.08-.14Z"/><path class="cls-5" d="M126.58,75.52a31.33,31.33,0,0,1,2.14,14.42c-.05.53.85.65.94.12.8-5.22-.48-10-2.57-14.75-.13-.29-.62-.08-.51.21Z"/><path class="cls-5" d="M127.41,65c2.56,4.29,3.26,8.69,3.84,13.58,0,.37.61.4.6,0a27.08,27.08,0,0,0-4-13.83c-.17-.27-.6,0-.44.25Z"/><path class="cls-5" d="M125.07,54.12c3.07,3.58,5.54,7,5.19,11.93,0,.56.89.69,1,.13.81-4.69-2-9.83-5.82-12.53-.29-.21-.57.23-.36.47Z"/><path class="cls-5" d="M118,52.9A24.37,24.37,0,0,1,121.57,68c-.06.64,1,.79,1.13.15.91-5-.29-12.11-4.24-15.65a.32.32,0,0,0-.51.39Z"/><path class="cls-5" d="M119.91,44.21a14,14,0,0,1,6,8.67.56.56,0,0,0,1.09-.14c-.3-4.05-3.23-7.38-6.54-9.49-.61-.38-1.14.56-.56,1Z"/><path class="cls-5" d="M122.29,32.62c4.18,4,7.52,9,8.36,14.77.08.59,1.07.45,1-.14-.43-6-4.57-11.24-8.89-15.12-.34-.3-.83.18-.5.49Z"/><path class="cls-5" d="M110.61,17c5.38,2.42,11,5,14.19,10.16a.56.56,0,0,0,1-.56c-3-5.53-9.34-8-14.88-10.24-.36-.15-.63.48-.27.64Z"/><path class="cls-5" d="M118.75,24.81c2.9,2.26,7.23,6,6,10.16a.55.55,0,0,0,1,.42c2.56-4.51-3.28-9-6.55-11.17-.36-.24-.8.33-.46.59Z"/><path class="cls-5" d="M95.55,9.15c-.78-.22-.63-.18-1.41.16a.41.41,0,0,0,0,.71c3.62,1.55,9.59-.18,11.83,3.86a.6.6,0,0,0,1.09-.46c-1.63-5-8.56-3.48-12.6-4.16l.09.76a2.84,2.84,0,0,1,1-.64.12.12,0,0,0,0-.23Z"/><path class="cls-5" d="M88.17,11.57c5.13-2,9.59-3.34,15.18-2.92.62,0,.76-1,.15-1.09a22.8,22.8,0,0,0-15.6,3.37c-.31.21-.12.79.27.64Z"/><path class="cls-5" d="M85.91,11.92a62.71,62.71,0,0,1,8.63-5.07c.38-.18.11-.81-.29-.68-3.24,1-6,3.16-8.7,5.15-.35.26,0,.86.36.6Z"/><path class="cls-5" d="M106.12,27.11c.81,1.44,1.86,2.74,2.68,4.18a18.73,18.73,0,0,1,2.17,7c.1.74,1.26.79,1.21,0a18.88,18.88,0,0,0-5.39-11.66.43.43,0,0,0-.67.52Z"/><path class="cls-5" d="M112.38,33.14c2.2,2.83,2.71,6.31,2.51,9.81,0,.79,1.11.74,1.2,0a13.65,13.65,0,0,0-3-10.56c-.44-.52-1.15.22-.74.75Z"/><path class="cls-5" d="M105.83,79.83c.75,3,1.69,6,2.18,9,.08.5.95.38.88-.12a48,48,0,0,0-2.53-9.08.28.28,0,0,0-.53.15Z"/><path class="cls-5" d="M112.52,116.17A29.77,29.77,0,0,1,110.38,132c-.23.55.53,1,.82.48,2.77-5.2,3.28-10.5,2.57-16.3-.1-.79-1.35-.8-1.25,0Z"/><path class="cls-5" d="M89.65,134.29c.81,5.79-1.84,11.26-4.79,16.06-.32.53.48,1.17.87.67,3.74-4.72,5.92-10.93,4.7-16.94-.11-.52-.85-.29-.78.21Z"/><path class="cls-5" d="M93.85,144.47a35.22,35.22,0,0,0-2.68,7.22c-.11.47.61.83.82.34,1-2.31,1.74-4.71,2.85-7,.33-.67-.66-1.25-1-.58Z"/><path class="cls-5" d="M83.37,125.57c-.07,2.7-1.2,5.17-1.54,7.83,0,.42.66.51.74.1.53-2.65,1.53-5.21,1.6-7.93,0-.52-.78-.52-.8,0Z"/><path class="cls-5" d="M70.33,119.3c.29,4.35-.49,8.6-.66,12.93,0,.44.71.55.78.1a56.93,56.93,0,0,0,.93-13c0-.67-1.1-.67-1,0Z"/><path class="cls-5" d="M74.88,100.62c-1.64,1.71-2.38,4.64-2.55,6.94,0,.55.79.63.94.12.31-1.07.62-2.14.92-3.21s1-2.28,1.35-3.46a.4.4,0,0,0-.66-.39Z"/><path class="cls-5" d="M75.36,110.69c.23,4.06-.45,8.09-.7,12.14,0,.56.9.69,1,.13a50.51,50.51,0,0,0,.88-12.27c-.07-.73-1.2-.75-1.16,0Z"/><path class="cls-5" d="M74.6,157.14c-.83,2.72-1.57,5.48-2.32,8.22a.55.55,0,0,0,1,.43c1.44-2.56,1.74-5.54,2.43-8.35a.58.58,0,0,0-1.11-.3Z"/><path class="cls-5" d="M78.49,157.13A17.6,17.6,0,0,1,76.61,161a34.52,34.52,0,0,0-2.32,3.44c-.21.44.27,1.12.75.75,2.37-1.78,3.84-4.95,4.61-7.75a.6.6,0,0,0-1.16-.32Z"/><path class="cls-5" d="M81.42,157.29A19.49,19.49,0,0,1,76,168.34c-.39.41.19.95.6.61,3.54-2.91,5.18-7.19,5.59-11.66,0-.52-.74-.5-.8,0Z"/><path class="cls-5" d="M90.82,155.49c-1.25,2.41-2.18,4.7-4.3,6.5-.49.41.13,1.18.67.86,2.47-1.46,3.28-4.43,4.41-6.9.24-.52-.5-1-.78-.46Z"/><path class="cls-5" d="M97.5,154.72a48.84,48.84,0,0,1-5.85,9.41c-.28.37.33.82.63.49a34.43,34.43,0,0,0,6-9.47c.22-.49-.5-.93-.74-.43Z"/><path class="cls-6" d="M104.51,28.09a.71.71,0,0,0-1.26-.42c-.11.14-11.93,14-29.63,14.16h-.5c-20.88,0-27.41-13.13-27.47-13.26a.7.7,0,0,0-.58-.4.67.67,0,0,0-.64.29c-1,1.36-3.3,15.42,2.18,26.15C51.1,63.4,59.38,67.85,71.24,67.85h.5c9.49-.1,17.12-3.16,22.7-9.08C105.35,47.17,104.55,28.86,104.51,28.09Z"/><path class="cls-7" d="M73.81,15.27c1.42,0,6.78,9.42,5.94,13.6-.55,2.69-3.88,3.88-5.94,3.88s-5.4-1.19-5.94-3.88C67,24.69,72.39,15.27,73.81,15.27Z"/><path class="cls-8" d="M73.18,30a16.33,16.33,0,0,1-.58-6.55c.21-2.76.67-5.49,1.13-8.21-1.52.3-6.7,9.48-5.86,13.59.54,2.69,3.87,3.88,5.94,3.88a7,7,0,0,0,1.07-.1A5.89,5.89,0,0,1,73.18,30Z"/><path class="cls-9" d="M45,28.89c-1.24,1.72-7.3,38.6,26.73,38.24s32.07-39,32.07-39S91.86,42.37,73.63,42.55C51.6,42.76,45,28.89,45,28.89Z"/><path class="cls-6" d="M103.8,28.13S91.86,42.37,73.63,42.55C51.6,42.76,45,28.89,45,28.89a4.12,4.12,0,0,0-.39,1.17A16.2,16.2,0,0,0,50,36.31C56.09,41,63.64,42.74,71,43.86s14.9,2,21.7,5.49a21.9,21.9,0,0,1,5.23,3.57C104.49,41.77,103.8,28.13,103.8,28.13Z"/><path class="cls-10" d="M73.09,52.15a24.56,24.56,0,0,0-15.42,4.38,21.26,21.26,0,0,0-4.86,4.84C57,64.9,63.08,67.22,71.73,67.13a32.41,32.41,0,0,0,15.64-3.76,16.67,16.67,0,0,0-2.55-5.59C82.08,54.11,77.54,52.39,73.09,52.15Z"/><path class="cls-11" d="M84.82,57.78c-2.74-3.67-7.28-5.39-11.73-5.63l-1,0c-2.92,1.13-5.35,2.88-3.56,5.24,2.14,2.61,4.66,4.47,5.68,7.92A8.8,8.8,0,0,1,74.53,67a31.06,31.06,0,0,0,12.84-3.63A16.67,16.67,0,0,0,84.82,57.78Z"/><path class="cls-12" d="M56.35,53.4s-2,3.29-2.82,4.93c-.4.87-.8,1.74-1.22,2.61a22.31,22.31,0,0,0,6,3.8,23,23,0,0,0-.39-2.57C57.28,59.27,56.81,56.38,56.35,53.4Z"/><path class="cls-12" d="M58.38,46.05c1.26-1.55,2.22-3.34,3.48-4.94a32.93,32.93,0,0,1-6-2.29c.3,1,.61,2.07.88,3.08C57.13,43.23,57.52,45,58.38,46.05Z"/><path class="cls-12" d="M92.8,45.19c.94-1.64.63-4.3.78-6.1.08-.8.06-1.71.1-2.62a43.24,43.24,0,0,1-5.77,3c.58.84,1.25,1.67,1.76,2.37C90.45,42.84,91.55,44.72,92.8,45.19Z"/><path class="cls-12" d="M76.29,59.82c-.54,1.49-1.09,3-1.56,4.46-.28.82-.45,1.8-.7,2.76a34.83,34.83,0,0,0,7.4-1.24c-.29-.32-.57-.64-.83-1C79.19,63.1,77.78,61.38,76.29,59.82Z"/><path class="cls-12" d="M66.28,60a22.41,22.41,0,0,0-2,4.15,12.47,12.47,0,0,0-.53,2.3,37.62,37.62,0,0,0,7.37.71c-.4-.73-.77-1.47-1.13-2.07C68.86,63.26,67.37,61.77,66.28,60Z"/><path class="cls-12" d="M92.17,58.57c-.86-1.41-2.5-4.7-2.5-4.7a64.4,64.4,0,0,0-2.27,6.42C87,61.41,86.67,62.7,86.26,64a26.46,26.46,0,0,0,6.48-4.49C92.54,59.16,92.35,58.87,92.17,58.57Z"/><path class="cls-4" d="M57.61,42.37a2.65,2.65,0,0,0,0,1.05.45.45,0,0,0,.87,0A1.27,1.27,0,0,0,58,42.15c-.17-.13-.36.05-.38.22Z"/><path class="cls-4" d="M55.32,57a2.39,2.39,0,0,0-.91,1.61.48.48,0,0,0,.81.34,1.84,1.84,0,0,0,.4-.83,4,4,0,0,1,.2-.83c.12-.3-.3-.47-.5-.29Z"/><path class="cls-4" d="M53.85,59.79c0,.16-.12.3-.17.45-.16.52.75.66.74.1,0-.16,0-.31,0-.47,0-.32-.51-.42-.59-.08Z"/><path class="cls-4" d="M65.55,61.71c-.4,1-1.14,1.94-.55,3a.58.58,0,0,0,.79.21,3.42,3.42,0,0,0,1.13-3,.7.7,0,0,0-1.37-.19Z"/><path class="cls-4" d="M75.91,61.51c-.23.4-.47.77-.23,1.23a.52.52,0,0,0,.87,0,2.17,2.17,0,0,0,.19-.88c.06-.48-.55-.82-.83-.35Z"/><path class="cls-4" d="M75.84,65.14a.33.33,0,0,0,0-.66.33.33,0,0,0,0,.66Z"/><path class="cls-4" d="M89.27,55.91a11.57,11.57,0,0,0-.75,1.78,3.88,3.88,0,0,0-.39,1.85.48.48,0,0,0,.8.21,3,3,0,0,0,.44-1.58,10.09,10.09,0,0,1,.45-2,.3.3,0,0,0-.55-.23Z"/><path class="cls-4" d="M89.59,40a1.09,1.09,0,0,0,.29.81c.19.3.3.62.67.7a.35.35,0,0,0,.43-.24c.13-.35-.07-.58-.32-.8s-.49-.56-.8-.63a.21.21,0,0,0-.27.16Z"/><path class="cls-4" d="M91.4,42.47s0,.05,0,.08a.35.35,0,0,0,.68,0s0,0,0-.08c.17-.61-.89-.61-.72,0Z"/><path class="cls-5" d="M95.17,25.62a4,4,0,1,1-4-4A4,4,0,0,1,95.17,25.62Z"/><path class="cls-4" d="M94.41,25.2A3.16,3.16,0,0,0,93,22.88a3.54,3.54,0,0,0-4.2.4,3,3,0,0,0-.88,2.77,3.62,3.62,0,0,0,1.75,2.42A3,3,0,0,0,93.33,28,3.83,3.83,0,0,0,94.41,25.2Z"/><path class="cls-6" d="M93.27,25.05a2,2,0,0,0-1.49-1.38,2.12,2.12,0,0,0-1.57-.1,2.28,2.28,0,0,0-1.31,3.37,2.42,2.42,0,0,0,2,1.19A2.48,2.48,0,0,0,93,27,2.57,2.57,0,0,0,93.27,25.05Z"/><path class="cls-4" d="M90.28,25.23l.15-.06a.25.25,0,0,0,0-.43l-.15-.07c-.61-.27-.61.83,0,.56Z"/><path class="cls-5" d="M60.47,25.62a4,4,0,1,1-4-4A4,4,0,0,1,60.47,25.62Z"/><path class="cls-4" d="M53.2,25.2a3.16,3.16,0,0,1,1.41-2.32,3.54,3.54,0,0,1,4.2.4,3,3,0,0,1,.88,2.77,3.59,3.59,0,0,1-1.75,2.42A3,3,0,0,1,54.29,28,3.8,3.8,0,0,1,53.2,25.2Z"/><path class="cls-6" d="M54.63,27a2.5,2.5,0,0,0,2,1.13,2.44,2.44,0,0,0,2-1.19,2.29,2.29,0,0,0-1.32-3.37,2.12,2.12,0,0,0-1.57.1,2,2,0,0,0-1.48,1.38A2.52,2.52,0,0,0,54.63,27Z"/><path class="cls-4" d="M57.06,25.42a.38.38,0,0,0,0-.75.38.38,0,0,0,0,.75Z"/><path class="cls-12" d="M104.86,13.69s9.19-2.4,10.06-5.95S112.11.51,112.73.05s4.75,2.3,6.28,7.15-4.34,11.65-10.88,13.49C108.13,20.69,105,18.8,104.86,13.69Z"/><path class="cls-4" d="M107.15,13l-.47.17a17.94,17.94,0,0,0,3.92,6.61l1-.5A18.31,18.31,0,0,1,107.15,13Z"/><path class="cls-4" d="M112.2,16.31a29.42,29.42,0,0,1-3-4.11l-.5.2a21.66,21.66,0,0,0,2.52,3.87,24.56,24.56,0,0,0,1.8,2.07l.66-.49A18,18,0,0,1,112.2,16.31Z"/><path class="cls-4" d="M111.29,11.21c-.17.1-.35.19-.53.28a17.4,17.4,0,0,0,4.5,5c.18-.17.36-.34.52-.52A18.7,18.7,0,0,1,111.29,11.21Z"/><path class="cls-4" d="M113.68,9.59c-.15.14-.31.27-.48.41a39.62,39.62,0,0,0,3.31,3c.32.28.66.55,1,.81q.26-.39.48-.78c-.44-.33-.88-.68-1.32-1.07C115.69,11.14,114.65,10.41,113.68,9.59Z"/><path class="cls-4" d="M115,7.21a4.89,4.89,0,0,1-.09.53,1.76,1.76,0,0,1-.1.3,14.6,14.6,0,0,0,4.35,1.79,6.43,6.43,0,0,0,.08-1A17.39,17.39,0,0,1,115,7.21Z"/><path class="cls-4" d="M114.88,5.19c0,.16.07.33.1.5a9.17,9.17,0,0,0,3.56.29c-.11-.26-.23-.51-.35-.75A15.27,15.27,0,0,1,114.88,5.19Z"/><path class="cls-4" d="M116.73,3c-.21-.26-.41-.51-.62-.74a10.86,10.86,0,0,1-2.15.58c.11.22.21.44.32.67A8.49,8.49,0,0,0,116.73,3Z"/><path class="cls-13" d="M119,7.2c-1.38-4.35-4.84-7-6-7.18,2.78,3.58,5.57,7.7,3.37,12.17-1.6,3.36-4.63,6-7.85,8.37C114.91,18.55,120.51,12,119,7.2Z"/><path class="cls-12" d="M46.44,13.69s-9.2-2.4-10.07-5.95S39.19.51,38.57.05s-4.75,2.3-6.28,7.15,4.34,11.65,10.88,13.49C43.17,20.69,46.34,18.8,46.44,13.69Z"/><path class="cls-4" d="M44.14,13l.48.17a18.22,18.22,0,0,1-3.92,6.61c-.33-.16-.65-.33-1-.5A18.15,18.15,0,0,0,44.14,13Z"/><path class="cls-4" d="M39.1,16.31a29.42,29.42,0,0,0,3-4.11l.5.2a21.66,21.66,0,0,1-2.52,3.87,24.56,24.56,0,0,1-1.8,2.07c-.22-.16-.45-.32-.66-.49A19.67,19.67,0,0,0,39.1,16.31Z"/><path class="cls-4" d="M40,11.21l.54.28a17.4,17.4,0,0,1-4.5,5c-.18-.17-.36-.34-.53-.52A18.52,18.52,0,0,0,40,11.21Z"/><path class="cls-4" d="M37.62,9.59c.15.14.31.27.48.41a39.62,39.62,0,0,1-3.31,3c-.32.28-.66.55-1,.81-.17-.26-.34-.52-.48-.78.44-.33.88-.68,1.32-1.07C35.61,11.14,36.65,10.41,37.62,9.59Z"/><path class="cls-4" d="M36.29,7.21a4.85,4.85,0,0,0,.08.53l.1.3a14.49,14.49,0,0,1-4.35,1.79,8,8,0,0,1-.07-1A17.55,17.55,0,0,0,36.29,7.21Z"/><path class="cls-4" d="M36.42,5.19c0,.16-.07.33-.1.5A9.18,9.18,0,0,1,32.76,6c.11-.26.22-.51.35-.75A15.27,15.27,0,0,0,36.42,5.19Z"/><path class="cls-4" d="M34.56,3c.21-.26.42-.51.63-.74a10.86,10.86,0,0,0,2.15.58c-.11.22-.22.44-.32.67A8.63,8.63,0,0,1,34.56,3Z"/><path class="cls-13" d="M36.37,7.74c-.76-3.12,2-6.34,2.25-7.39-2.72,3-6.26,7-4.27,10.63s6.38,6.1,10.52,8a9.42,9.42,0,0,0,1.57-5.26S37.24,11.29,36.37,7.74Z"/><path class="cls-2" d="M30.87,25.62c-8.28,3.68-13,9.66-20.63,28s-13.5,68,1.69,101.66c0,0-6.32,19.22,4,17.29C22,171.42,23,156,23,156s3.5,3.53,4.95,1.83-6.2-7.42-6.2-7.42,1-49.27,8.25-72.89S40.54,47.77,40.56,38.82C40.58,32.68,39.24,21.89,30.87,25.62Z"/><path class="cls-14" d="M8.91,126.54c-.41,1.22-1.22,2-1.22,2.84-2.43-6.48,0-14.58,1.62-20.65-2,4.45-3.64,1.62-3.64-1.62-.74-3.69,1.87-8.71,3.57-12.63a11.09,11.09,0,0,1-1.95,2.1c-3-3.72,1.52-13.91,5-19.54l-.14.1c-2.43-8.5,8.1-17.81,11.33-25.1-1.21,1.21-2,.81-3.23.81,1.21-6.08,7.28-10.94,10.93-15.79-4.46.8-3.65-3.24-2.43-5.67a18.87,18.87,0,0,1,5.11-6.53,8,8,0,0,0-3,.76c-8.28,3.68-13,9.66-20.63,28-6.5,15.59-11.71,53.86-3.76,85.69v-.19C6.48,135.05,8.1,130.59,8.91,126.54Z"/><path class="cls-2" d="M10.24,169c-.32,2.09-.87,5.36,1.31,6.66.5.3,1.17-.31.82-.82a6.8,6.8,0,0,1-1.17-2.44,12.78,12.78,0,0,1,0-3.27c0-.54-.85-.66-.93-.13Z"/><path class="cls-2" d="M12.92,170.93a24.4,24.4,0,0,1-.32,2.95,28,28,0,0,0-.73,2.83c0,.65.74.81,1.16.48,1.6-1.27,1.11-4.47,1-6.26a.56.56,0,0,0-1.11,0Z"/><path class="cls-5" d="M21.48,163.52a19.87,19.87,0,0,1-1.71,7.63.48.48,0,0,0,.83.48c1.59-2.36,1.61-5.36,1.53-8.11a.33.33,0,0,0-.65,0Z"/><path class="cls-5" d="M21.27,158.9a31.08,31.08,0,0,1,.21,4.21,27.38,27.38,0,0,1-1,5.16.42.42,0,0,0,.77.33c1.94-2.59,1.16-6.84.62-9.78-.06-.34-.63-.26-.59.08Z"/><path class="cls-5" d="M20.31,157.83c1,2.72,2.32,5,2,8-.06.43.66.63.84.22,1.28-2.95-1.05-5.86-2.17-8.5-.16-.36-.77-.1-.64.27Z"/><path class="cls-5" d="M22.16,156.21a54.56,54.56,0,0,1,2.57,6.24.33.33,0,0,0,.64-.09c0-2.36-1.65-4.32-2.57-6.42-.16-.36-.79-.09-.64.27Z"/><path class="cls-5" d="M20.88,150.8c2.68,2.63,5.92,4.58,7.31,8.25a.58.58,0,0,0,1.11-.31c-.69-4.16-5-6-8-8.4-.32-.26-.77.16-.46.46Z"/><path class="cls-5" d="M21.92,152.15c2.47,1.25,4.2,2.76,5,5.47a.43.43,0,0,0,.83-.22c-.61-3-3.05-4.56-5.68-5.66-.23-.1-.4.3-.17.41Z"/><path class="cls-5" d="M20.8,152.68c3.14.83,6.4,1.16,8,4.36.24.5.89.12.82-.35-.57-3.86-5.71-4-8.69-4.54-.34-.06-.5.44-.15.53Z"/><path class="cls-5" d="M19.88,152c1.22.3,2.46.43,3.66.81a14.94,14.94,0,0,1,3.57,1.9c.47.31.94-.36.58-.75a8.65,8.65,0,0,0-7.81-2.45.26.26,0,0,0,0,.49Z"/><path class="cls-5" d="M22.92,125.58c-.12,5.37-.49,10.87,1,16.09a.45.45,0,0,0,.87-.24,81,81,0,0,1-1.31-15.85.28.28,0,0,0-.55,0Z"/><path class="cls-5" d="M22,118.65c-.06,4.22,0,8.63,2.36,12.29a.52.52,0,0,0,.9-.53c-1.77-3.72-2.17-7.7-2.26-11.76a.5.5,0,0,0-1,0Z"/><path class="cls-5" d="M22.89,111.53a14.17,14.17,0,0,0,1,13c.45.67,1.68.26,1.37-.58-1.44-4-3.14-7.94-1.77-12.2.12-.38-.48-.64-.64-.27Z"/><path class="cls-5" d="M23,108c-.15,3.14-.42,6.43.75,9.42a.6.6,0,0,0,1.16-.32,66.31,66.31,0,0,1-1.11-9.1.4.4,0,0,0-.8,0Z"/><path class="cls-5" d="M21.79,105.53a74.64,74.64,0,0,1,2,12.42.53.53,0,0,0,1.05,0c.17-4.34-1.29-8.48-2.6-12.56a.25.25,0,0,0-.48.14Z"/><path class="cls-5" d="M22.39,103.47a41.87,41.87,0,0,0,1.72,6.32c.7,2.12.92,4.27,1.47,6.42a.4.4,0,0,0,.77,0c.79-4.33-2.41-8.77-3.28-12.93-.1-.44-.75-.25-.68.19Z"/><path class="cls-5" d="M24.57,96a22.4,22.4,0,0,1,1.48,8.26.38.38,0,0,0,.75,0,22.62,22.62,0,0,0-1.75-8.39c-.12-.29-.6-.17-.48.13Z"/><path class="cls-5" d="M25.31,86.45c2.47,3,1.33,7.58,1.05,11.14a.53.53,0,0,0,1,.14c.7-3,1.91-10-1.76-11.71a.27.27,0,0,0-.33.43Z"/><path class="cls-5" d="M36.8,47.7c2.06,5.71,0,12-1.37,17.61a.5.5,0,0,0,1,.26c1.8-5.69,3.38-12.37.91-18.08-.12-.29-.61-.08-.51.21Z"/><path class="cls-5" d="M37.33,47.4c-.26,3.5.53,6.94.91,10.41.06.56.94.58.9,0-.21-3.52-1.42-6.87-1.41-10.41a.2.2,0,0,0-.4,0Z"/><path class="cls-5" d="M37.59,46c.19,4.13,1.61,8.1,1.44,12.26,0,.46.66.44.7,0C40.18,54,38.38,50.18,37.94,46c0-.22-.36-.23-.35,0Z"/><path class="cls-5" d="M31.46,69.06c-1.15,3.77-2.05,8.49-.47,12.26.22.53,1.11.53,1.08-.15-.19-4.06-.7-7.88,0-12,.06-.37-.47-.54-.58-.16Z"/><path class="cls-5" d="M30.19,71.45c-.33,4.64-2.09,9.15-1,13.79.13.57,1.09.46,1-.14-.45-4.58.45-9.07.35-13.65a.18.18,0,0,0-.35,0Z"/><path class="cls-5" d="M31.3,57.81c0,3.13-1.09,6.12-2,9.09a.6.6,0,0,0,1.16.32c1-3.13,2-6.08,1.72-9.41a.45.45,0,0,0-.9,0Z"/><path class="cls-5" d="M27.44,65c-.05,3.16-1.39,6-2.94,8.7a.63.63,0,0,0,1.08.63A14.24,14.24,0,0,0,28.19,65a.38.38,0,0,0-.75,0Z"/><path class="cls-5" d="M24.61,80.59c-1.16,3.47-2.93,6.8-3,10.53,0,.75,1.2.94,1.33.18.58-3.56,1.75-7,2.56-10.47a.45.45,0,0,0-.87-.24Z"/><path class="cls-5" d="M21.88,94.94a42,42,0,0,0-1.12,6.59c0,.64,1,.79,1.13.15.33-2.17.44-4.35.76-6.52.08-.5-.65-.73-.77-.22Z"/><path class="cls-5" d="M18.15,130.1a20,20,0,0,0,.83,10c.23.62,1.21.38,1-.28a23.57,23.57,0,0,1-1-9.58c.05-.47-.77-.59-.84-.11Z"/><path class="cls-5" d="M14.83,138.77a17.59,17.59,0,0,0,.77,5.73.67.67,0,0,0,1.3-.36,46,46,0,0,1-.62-5.37.73.73,0,0,0-1.45,0Z"/><path class="cls-5" d="M19,144c-.32,1.46-.64,3.15,0,4.55a.5.5,0,0,0,.91-.12c.21-1.42-.11-2.86,0-4.3.05-.56-.87-.68-1-.13Z"/><path class="cls-5" d="M17.48,113.79a23.86,23.86,0,0,0-2.34,9.71c0,.87,1.2.81,1.3,0,.41-3.21.65-6.32,1.86-9.36.19-.48-.6-.81-.82-.35Z"/><path class="cls-5" d="M17.5,103.16a11.19,11.19,0,0,0-1,6.81.44.44,0,0,0,.83,0,23,23,0,0,0,.34-3c.09-1.23.44-2.4.6-3.61.05-.43-.61-.57-.8-.22Z"/><path class="cls-5" d="M19.24,105.23c-.08,1.69-.48,4.64,1.17,5.73a.47.47,0,0,0,.71-.41,16.21,16.21,0,0,0-.6-2.17,16.66,16.66,0,0,1-.32-3.15.48.48,0,0,0-1,0Z"/><path class="cls-4" d="M27.29,27c-5.75,2.29-10.61,7.26-13.78,12.48-.3.48.42,1.06.78.61C18,35.4,21.94,30.18,27.48,27.49c.25-.13.07-.57-.19-.46Z"/><path class="cls-4" d="M21,34.5c-4.33,2.09-8.24,6.15-9.43,10.91-.14.55.72,1,1,.4,1.92-4.46,4.35-8.46,8.67-11a.2.2,0,0,0-.2-.35Z"/><path class="cls-4" d="M19.35,40C13.83,43.41,8.71,48.32,6.72,54.66a.53.53,0,0,0,1,.4c3.05-5.69,6.68-10.76,12-14.6.28-.2,0-.66-.28-.47Z"/><path class="cls-4" d="M14.15,46.22C8.81,52.42,4,59,2.85,67.33a.7.7,0,0,0,1.35.38A71.53,71.53,0,0,1,14.7,46.65c.24-.33-.29-.73-.55-.43Z"/><path class="cls-4" d="M6.89,64.65C4.7,72.48.1,81,1.11,89.27c.1.82,1.37,1.17,1.57.21.87-4.11,1.28-8.29,2.16-12.4s2-8.13,2.73-12.24c.08-.44-.56-.63-.68-.19Z"/><path class="cls-4" d="M4,81.84A32.37,32.37,0,0,0,.56,99.45c.07.67,1.13.94,1.28.17,1.15-5.84.78-11.78,3.1-17.39.21-.53-.66-.89-.92-.39Z"/><path class="cls-4" d="M4.06,94.36a28.68,28.68,0,0,0-4,17.11c0,.72,1.2,1,1.32.18.92-5.74.68-11.53,3.44-16.84a.45.45,0,0,0-.78-.45Z"/><path class="cls-4" d="M1.49,110.34c-.05.08,1.55-2.61,1.5-2.16-.11,1.1,0,2.28-.07,3.39-.06,2.33-.16,4.65-.09,7,.13,4.3.62,8.73,2.87,12.48.4.67,1.54.23,1.28-.54a48.23,48.23,0,0,1-2.53-11.94c-.31-3.81-.19-7.77-1-11.52a.19.19,0,0,0-.35,0c-.61,1.09-1.16,2.2-1.73,3.31,0,.06.06.11.09,0Z"/><path class="cls-4" d="M2.82,111.87C1.35,117.44-.59,123.51,2.21,129a.73.73,0,0,0,1.32-.56c-1.88-5.59-.73-10.77-.21-16.46,0-.29-.43-.34-.5-.07Z"/><path class="cls-4" d="M2.84,117.72c-.32,5.73-.16,11.19,1.86,16.61A.7.7,0,0,0,6.05,134a95,95,0,0,1-2.76-16.24.23.23,0,0,0-.45,0Z"/><path class="cls-4" d="M5.18,132.4C4.44,137.73,5.63,143,7.5,148c.3.8,1.57.49,1.31-.36-1.54-4.9-3.18-9.88-2.75-15.09,0-.5-.82-.62-.88-.12Z"/><path class="cls-4" d="M12.1,155.39c-2.31,3.34-4.61,7-4.82,11.14-.06,1,1.41,1.12,1.72.23,1.29-3.69,2.62-7.32,4.06-11,.23-.59-.65-.87-1-.41Z"/><path class="cls-4" d="M10.13,163.43c-1,2.93-2.86,7.23-1,10.16a.7.7,0,0,0,1.28-.54,28.2,28.2,0,0,1,.36-9.43.35.35,0,0,0-.68-.19Z"/><path class="cls-4" d="M11.2,169.54c-.14,2-.64,5.18,1.67,6.06.48.18.76-.41.6-.78a13.51,13.51,0,0,1-1.16-2.5,17.21,17.21,0,0,1-.26-2.78.43.43,0,0,0-.85,0Z"/><path class="cls-4" d="M14.62,171a22.76,22.76,0,0,0-.76,2.75,14,14,0,0,0-1,3.17c-.05.72.87.79,1.22.33a7.41,7.41,0,0,0,1.06-3.16,5.5,5.5,0,0,0,0-3.09.28.28,0,0,0-.48,0Z"/><path class="cls-4" d="M13,168.72a13.09,13.09,0,0,0-1,5.68.5.5,0,0,0,1,.13,24.09,24.09,0,0,0,.46-5.69.25.25,0,0,0-.46-.12Z"/><path class="cls-4" d="M15.64,49.39c-1.5,2.31-3.37,4.35-4.49,6.89-.13.32.32.6.48.28,1.24-2.45,2.93-4.63,4.31-7a.18.18,0,0,0-.3-.18Z"/><path class="cls-4" d="M14.88,57.21a11.23,11.23,0,0,0-4.51,5.53c-.21.63.74,1,1.06.45a19.9,19.9,0,0,1,4-5.31c.37-.32-.11-1-.51-.67Z"/><path class="cls-4" d="M11.1,67.05c-.8.24-1.32,1.44-1.75,2.1A8.36,8.36,0,0,0,8,72.49a.45.45,0,0,0,.87.24,20.76,20.76,0,0,1,1.37-3.09c.38-.67,1.29-1.56,1.22-2.35a.25.25,0,0,0-.31-.24Z"/><path class="cls-4" d="M9.61,72.85a16.12,16.12,0,0,0-1.44,5.31.45.45,0,0,0,.88.12,28.2,28.2,0,0,1,1.39-5.09c.19-.47-.62-.81-.83-.34Z"/><path class="cls-4" d="M12.75,63.52a22.36,22.36,0,0,0-1.19,6.32.53.53,0,0,0,1,0,53.54,53.54,0,0,1,.67-6.18.27.27,0,0,0-.53-.14Z"/><path class="cls-4" d="M7.3,84.41C6.22,86.76,5,89.18,4.85,91.81c0,.63.84.67,1,.14.84-2.36,1.42-4.81,2.23-7.19.17-.48-.6-.81-.82-.35Z"/><path class="cls-4" d="M8.34,90.05a20.35,20.35,0,0,0-.94,5,.53.53,0,0,0,1,.14c.39-1.61.53-3.25.93-4.86a.53.53,0,0,0-1-.28Z"/><path class="cls-4" d="M19.7,46.69c-1.43,1.53-3.34,3.35-3.84,5.46-.08.37.4.71.67.39a18.74,18.74,0,0,0,1.73-2.61c.61-1,1.29-1.91,2-2.82.25-.32-.28-.71-.55-.42Z"/><path class="cls-4" d="M22.38,39.35c-1.53.58-3.65,1.8-4.07,3.52-.09.39.36.83.74.56a10.54,10.54,0,0,0,1.59-1.74,7.33,7.33,0,0,1,2.07-1.56c.42-.22.13-1-.33-.78Z"/><path class="cls-4" d="M26.1,31.77A13.81,13.81,0,0,0,20.31,36c-.39.46.25,1.12.67.67a17.22,17.22,0,0,1,5.41-4.18c.38-.17.11-.84-.29-.68Z"/><path class="cls-4" d="M26,37.73c-1.42,1.5-3.92,3.46-3.9,5.73a.38.38,0,0,0,.7.19c.52-.91.87-1.89,1.44-2.78s1.4-1.87,2.11-2.78c.2-.25-.12-.6-.35-.36Z"/><path class="cls-4" d="M24.29,36.21a13,13,0,0,0-1,4c0,.38.55.44.64.09.33-1.31.46-2.66.9-3.94.13-.37-.44-.5-.58-.16Z"/><path class="cls-4" d="M19.64,44.76c-.58,1.8-1.12,3.66-.56,5.52a.42.42,0,0,0,.82-.22,13.6,13.6,0,0,1,.37-5.12.33.33,0,0,0-.63-.18Z"/><path class="cls-4" d="M29.27,38.09a11.48,11.48,0,0,0-4.76,4.73c-.15.34.26.75.55.43a24.67,24.67,0,0,1,4.54-4.59c.34-.24,0-.78-.33-.57Z"/><path class="cls-4" d="M31.11,29.74a12.42,12.42,0,0,0-5.32,5.39.48.48,0,0,0,.82.48,16.73,16.73,0,0,1,4.85-5.26.35.35,0,0,0-.35-.61Z"/><path class="cls-4" d="M33.83,31.9c-2.08,1.76-4.21,3.83-4.81,6.59a.43.43,0,0,0,.83.23,17.23,17.23,0,0,1,4.44-6.36c.31-.3-.14-.73-.46-.46Z"/><path class="cls-4" d="M25.26,45.3c-1.52,1.52-3.54,3.59-2.76,5.92.14.42.82.5.92,0a13,13,0,0,1,2.39-5.5c.23-.33-.28-.7-.55-.42Z"/><path class="cls-4" d="M21,48.09a13.44,13.44,0,0,1-.48,2.45c-.09.37.48.65.64.27a7,7,0,0,0,.49-2.72.33.33,0,0,0-.65,0Z"/><path class="cls-2" d="M122,26.91c7.92,4.41,12.08,10.78,18,29.71s7.35,68.9-10.81,101.11c0,0,4.57,19.71-5.52,16.86-5.9-1.66-5.6-17.15-5.6-17.15s-3.8,3.21-5.1,1.39S119.8,152,119.8,152s3.44-49.15-1.67-73.34-7.8-30.55-7-39.46C111.65,33.07,114,22.45,122,26.91Z"/><path class="cls-4" d="M118.93,165.1a19.61,19.61,0,0,0,1,7.75.48.48,0,0,1-.87.4c-1.37-2.49-1.13-5.48-.8-8.21a.33.33,0,0,1,.65.06Z"/><path class="cls-4" d="M119.55,160.51a32.69,32.69,0,0,0-.59,4.17,27.71,27.71,0,0,0,.55,5.23.43.43,0,0,1-.8.26c-1.7-2.74-.53-6.91.26-9.79.09-.33.65-.2.58.13Z"/><path class="cls-4" d="M120.61,159.54c-1.19,2.62-2.77,4.78-2.68,7.79a.45.45,0,0,1-.86.15c-1-3,1.57-5.75,2.92-8.27.19-.35.78,0,.62.33Z"/><path class="cls-4" d="M118.91,157.76a51.41,51.41,0,0,0-3.12,6,.33.33,0,0,1-.63-.14c.23-2.36,2-4.16,3.13-6.17.2-.35.8,0,.62.33Z"/><path class="cls-4" d="M120.67,152.48c-2.91,2.38-6.31,4-8,7.56a.58.58,0,0,1-1.08-.4c1.06-4.08,5.53-5.53,8.68-7.66.34-.23.75.23.42.5Z"/><path class="cls-4" d="M119.51,153.73c-2.57,1-4.43,2.37-5.49,5a.43.43,0,0,1-.8-.3c.86-2.9,3.44-4.27,6.16-5.12.24-.08.37.33.13.42Z"/><path class="cls-4" d="M120.57,154.37c-3.19.54-6.47.57-8.37,3.62-.29.47-.9,0-.79-.42.92-3.8,6-3.48,9.07-3.75a.28.28,0,0,1,.09.55Z"/><path class="cls-4" d="M121.55,153.73c-1.23.19-2.48.21-3.71.48a15.1,15.1,0,0,0-3.73,1.58c-.49.26-.9-.45-.51-.8a8.62,8.62,0,0,1,8-1.74.25.25,0,0,1,0,.48Z"/><path class="cls-4" d="M120.9,127.18c-.37,5.36-.49,10.87-2.43,15.93a.45.45,0,0,1-.85-.32,81.43,81.43,0,0,0,2.74-15.65.27.27,0,0,1,.54,0Z"/><path class="cls-4" d="M122.44,120.36c-.32,4.21-.77,8.6-3.45,12a.53.53,0,0,1-.86-.61c2.1-3.55,2.86-7.47,3.31-11.52a.5.5,0,0,1,1,.1Z"/><path class="cls-4" d="M122.19,113.19a14.17,14.17,0,0,1-2.21,12.9c-.5.63-1.69.11-1.31-.7,1.79-3.83,3.84-7.62,2.86-12-.09-.39.53-.59.66-.21Z"/><path class="cls-4" d="M122.38,109.66c-.14,3.14-.17,6.45-1.59,9.31a.6.6,0,0,1-1.13-.42,68.35,68.35,0,0,0,1.92-9,.4.4,0,0,1,.8.07Z"/><path class="cls-4" d="M123.82,107.31a75.19,75.19,0,0,0-3.13,12.19.53.53,0,0,1-1-.09c.22-4.34,2-8.33,3.71-12.28a.25.25,0,0,1,.47.18Z"/><path class="cls-4" d="M123.41,105.21a41.2,41.2,0,0,1-2.28,6.14c-.89,2-1.3,4.17-2,6.26a.41.41,0,0,1-.77-.07c-.4-4.39,3.19-8.52,4.44-12.58.13-.44.76-.18.65.25Z"/><path class="cls-4" d="M121.91,97.61a22.23,22.23,0,0,0-2.22,8.1.38.38,0,0,1-.75-.07,22.72,22.72,0,0,1,2.5-8.2c.15-.28.61-.12.47.17Z"/><path class="cls-4" d="M122,88c-2.73,2.76-2,7.42-2,11a.53.53,0,0,1-1,0c-.42-3.07-1-10.11,2.8-11.5A.28.28,0,0,1,122,88Z"/><path class="cls-4" d="M114.06,48.37c-2.56,5.5-1.11,11.92-.21,17.66a.5.5,0,0,1-1,.18c-1.29-5.83-2.26-12.63.72-18.1.14-.27.61,0,.48.26Z"/><path class="cls-4" d="M113.56,48c0,3.51-1.15,6.87-1.84,10.28-.11.56-1,.51-.89-.08.52-3.48,2-6.71,2.33-10.24,0-.26.4-.22.4,0Z"/><path class="cls-4" d="M113.43,46.61c-.57,4.1-2.33,7.93-2.54,12.08,0,.46-.69.38-.7-.06-.06-4.28,2.07-7.93,2.89-12.05,0-.22.38-.19.35,0Z"/><path class="cls-4" d="M117.46,70.12c.81,3.86,1.29,8.64-.62,12.25-.27.51-1.16.43-1.07-.24.55-4,1.4-7.79,1.1-11.9a.3.3,0,0,1,.59-.11Z"/><path class="cls-4" d="M118.52,72.62c-.1,4.64,1.25,9.29-.22,13.83-.18.55-1.13.35-1-.24.86-4.52.37-9.07.88-13.62,0-.23.35-.19.35,0Z"/><path class="cls-4" d="M118.63,58.93c-.28,3.12.54,6.2,1.16,9.23.16.76-1,1-1.18.22-.73-3.21-1.45-6.24-.87-9.53a.45.45,0,0,1,.89.08Z"/><path class="cls-4" d="M121.83,66.41c-.23,3.16.85,6.12,2.15,8.94a.62.62,0,0,1-1.13.53,14.21,14.21,0,0,1-1.76-9.53.37.37,0,0,1,.74.06Z"/><path class="cls-4" d="M123.26,82.22c.83,3.56,2.3,7,2.06,10.75,0,.75-1.29.84-1.34.06-.27-3.59-1.12-7.09-1.61-10.65a.45.45,0,0,1,.89-.16Z"/><path class="cls-4" d="M124.69,96.76a41.32,41.32,0,0,1,.51,6.66c0,.64-1.1.7-1.14,0-.12-2.19,0-4.38-.16-6.57,0-.5.71-.66.79-.14Z"/><path class="cls-4" d="M125.24,132.11a19.83,19.83,0,0,1-1.72,9.85c-.29.6-1.24.27-1-.37a23.78,23.78,0,0,0,1.86-9.45c0-.47.82-.51.84,0Z"/><path class="cls-4" d="M127.77,141a17.6,17.6,0,0,1-1.28,5.64.67.67,0,0,1-1.26-.47,47.92,47.92,0,0,0,1.1-5.3.72.72,0,0,1,1.44.13Z"/><path class="cls-4" d="M123.15,145.83c.18,1.49.35,3.2-.46,4.53a.5.5,0,0,1-.9-.2c-.09-1.43.37-2.84.37-4.28,0-.57.92-.6,1,0Z"/><path class="cls-4" d="M127.37,115.93a24.11,24.11,0,0,1,1.47,9.88c-.06.86-1.27.69-1.3-.12-.12-3.23-.08-6.36-1-9.49-.15-.49.68-.75.85-.27Z"/><path class="cls-4" d="M128.31,105.34a11.18,11.18,0,0,1,.35,6.86.43.43,0,0,1-.82-.07,21.47,21.47,0,0,1-.07-3c0-1.23-.23-2.42-.27-3.65,0-.43.65-.51.81-.14Z"/><path class="cls-4" d="M126.38,107.24c-.07,1.69.08,4.66-1.67,5.6a.47.47,0,0,1-.67-.47,16.26,16.26,0,0,1,.79-2.11,16.3,16.3,0,0,0,.61-3.11.47.47,0,0,1,.94.09Z"/><path class="cls-5" d="M125.39,28.63c5.52,2.8,9.91,8.19,12.61,13.67.25.5-.52,1-.84.53-3.29-5-6.73-10.58-12-13.76-.24-.14,0-.56.23-.44Z"/><path class="cls-5" d="M131,36.64c4.12,2.47,7.65,6.87,8.41,11.71.09.56-.8.9-1,.31-1.51-4.61-3.57-8.81-7.65-11.7-.21-.15,0-.45.24-.32Z"/><path class="cls-5" d="M132.13,42.25c5.2,3.9,9.86,9.26,11.27,15.75a.53.53,0,0,1-1,.32c-2.53-6-5.68-11.32-10.59-15.62-.26-.23,0-.67.32-.45Z"/><path class="cls-5" d="M136.75,48.93c4.77,6.65,9,13.65,9.36,22a.7.7,0,0,1-1.38.25,71.59,71.59,0,0,0-8.56-21.92c-.21-.34.35-.69.58-.37Z"/><path class="cls-5" d="M142.33,67.94c1.47,8,5.3,16.84,3.55,25-.17.81-1.47,1-1.59.07-.49-4.17-.52-8.37-1-12.55s-1.23-8.26-1.62-12.43a.35.35,0,0,1,.69-.12Z"/><path class="cls-5" d="M143.65,85.31a32.33,32.33,0,0,1,1.86,17.85c-.13.67-1.21.84-1.29,0-.61-5.92.29-11.8-1.52-17.59-.17-.55.74-.82,1-.31Z"/><path class="cls-5" d="M142.48,97.78a28.64,28.64,0,0,1,2.44,17.4c-.12.71-1.29.86-1.34.06-.4-5.81.36-11.55-1.92-17.08a.45.45,0,0,1,.82-.38Z"/><path class="cls-5" d="M143.61,113.93c0,.08-1.31-2.74-1.31-2.29,0,1.11-.16,2.27-.23,3.38-.14,2.33-.25,4.65-.53,7-.51,4.27-1.4,8.64-4,12.17-.45.63-1.56.09-1.23-.65a48.63,48.63,0,0,0,3.6-11.66c.65-3.77.88-7.73,2-11.39a.19.19,0,0,1,.35,0c.5,1.14.95,2.3,1.42,3.45,0,.06-.06.11-.09.05Z"/><path class="cls-5" d="M142.14,115.33c1,5.68,2.36,11.89-.91,17.07a.73.73,0,0,1-1.28-.67c2.39-5.4,1.7-10.67,1.7-16.38,0-.29.45-.29.49,0Z"/><path class="cls-5" d="M141.6,121.15c-.19,5.74-.84,11.16-3.34,16.38a.7.7,0,0,1-1.32-.49,93.22,93.22,0,0,0,4.21-15.93.23.23,0,0,1,.45,0Z"/><path class="cls-5" d="M138,135.57c.25,5.37-1.41,10.51-3.71,15.29-.38.78-1.61.35-1.27-.47,2-4.75,4.05-9.56,4.09-14.78,0-.51.87-.55.89,0Z"/><path class="cls-5" d="M129,157.84c2,3.53,4,7.36,3.79,11.53,0,1-1.5,1-1.73.08-1-3.8-2-7.54-3.06-11.29-.18-.61.72-.8,1-.32Z"/><path class="cls-5" d="M130.24,166c.75,3,2.2,7.47,0,10.21a.7.7,0,0,1-1.23-.65,28.44,28.44,0,0,0,.49-9.43.35.35,0,0,1,.69-.13Z"/><path class="cls-5" d="M129.64,171.51c.13,2.12.38,5.41-1.91,6.52-.52.25-1.13-.42-.74-.9a6.6,6.6,0,0,0,1.38-2.32,12.32,12.32,0,0,0,.32-3.26c0-.53.92-.58.95,0Z"/><path class="cls-5" d="M128.63,172c0,2,.17,5.22-2.21,5.89-.49.13-.72-.47-.52-.83a14.1,14.1,0,0,0,1.37-2.39,15.87,15.87,0,0,0,.51-2.75.43.43,0,0,1,.85.08Z"/><path class="cls-5" d="M126.79,173.24a26.76,26.76,0,0,0,0,3,26.21,26.21,0,0,1,.48,2.88c0,.66-.81.74-1.2.38-1.49-1.41-.71-4.56-.43-6.33a.55.55,0,0,1,1.1.1Z"/><path class="cls-5" d="M125.09,173.18a23.23,23.23,0,0,1,.51,2.81,13.11,13.11,0,0,1,.75,3.25c0,.72-.94.71-1.24.22a7.36,7.36,0,0,1-.77-3.24,5.45,5.45,0,0,1,.27-3.08.28.28,0,0,1,.48,0Z"/><path class="cls-5" d="M126.88,171a13.26,13.26,0,0,1,.47,5.74.5.5,0,0,1-1,0,23.72,23.72,0,0,1,0-5.71.25.25,0,0,1,.47-.08Z"/><path class="cls-5" d="M135,52c1.28,2.43,3,4.64,3.85,7.26.11.33-.37.57-.5.24-1-2.55-2.51-4.87-3.67-7.35A.18.18,0,0,1,135,52Z"/><path class="cls-5" d="M135,59.8a11.25,11.25,0,0,1,4,5.92c.16.65-.82.93-1.09.35a19.78,19.78,0,0,0-3.47-5.65c-.34-.34.2-.92.57-.62Z"/><path class="cls-5" d="M137.93,70c.77.31,1.17,1.55,1.54,2.24a8.22,8.22,0,0,1,1.1,3.46.45.45,0,0,1-.89.16,20.11,20.11,0,0,0-1.09-3.2c-.31-.7-1.14-1.67-1-2.45a.25.25,0,0,1,.34-.21Z"/><path class="cls-5" d="M138.88,75.85a16,16,0,0,1,1,5.43.46.46,0,0,1-.9,0,28.61,28.61,0,0,0-.92-5.2c-.15-.49.69-.75.85-.27Z"/><path class="cls-5" d="M136.6,66.28a21.92,21.92,0,0,1,.61,6.4.52.52,0,0,1-1-.1,51.32,51.32,0,0,0-.11-6.2.27.27,0,0,1,.54-.1Z"/><path class="cls-5" d="M140.15,87.58c.86,2.43,1.9,5,1.78,7.59,0,.62-.91.59-1.05,0-.63-2.42-1-4.92-1.59-7.36-.11-.49.69-.75.86-.27Z"/><path class="cls-5" d="M138.61,93.1a20.58,20.58,0,0,1,.49,5.07.53.53,0,0,1-1,0c-.25-1.63-.24-3.28-.49-4.92a.53.53,0,0,1,1-.19Z"/><path class="cls-5" d="M131.18,48.89c1.29,1.65,3,3.65,3.33,5.79.06.37-.45.67-.7.32a18.64,18.64,0,0,1-1.48-2.75c-.52-1-1.12-2-1.73-3-.22-.34.34-.69.58-.38Z"/><path class="cls-5" d="M129.17,41.35c1.48.71,3.47,2.11,3.74,3.86.06.4-.43.8-.78.5a11,11,0,0,1-1.44-1.87,7.13,7.13,0,0,0-1.92-1.75c-.4-.26,0-1,.4-.74Z"/><path class="cls-5" d="M126.15,33.46a13.88,13.88,0,0,1,5.39,4.69c.34.5-.35,1.1-.73.61a17.19,17.19,0,0,0-5-4.64c-.37-.21,0-.85.35-.66Z"/><path class="cls-5" d="M125.69,39.41c1.29,1.61,3.59,3.8,3.37,6.06a.38.38,0,0,1-.71.12c-.43-1-.7-2-1.18-2.89s-1.23-2-1.86-3c-.17-.26.18-.58.38-.32Z"/><path class="cls-5" d="M127.55,38.05a13.18,13.18,0,0,1,.6,4.08c0,.37-.59.39-.64,0-.21-1.33-.22-2.69-.55-4-.09-.39.48-.47.59-.11Z"/><path class="cls-5" d="M131.42,47c.42,1.84.78,3.75.06,5.55-.21.53-.92.22-.8-.3a13.62,13.62,0,0,0,.1-5.13.33.33,0,0,1,.64-.12Z"/><path class="cls-5" d="M122.42,39.48a11.4,11.4,0,0,1,4.32,5.13c.12.35-.33.73-.58.38A24.94,24.94,0,0,0,122,40c-.32-.27,0-.78.38-.53Z"/><path class="cls-5" d="M121.34,31a12.46,12.46,0,0,1,4.82,5.84.48.48,0,0,1-.86.41,16.74,16.74,0,0,0-4.36-5.67.35.35,0,0,1,.4-.58Z"/><path class="cls-5" d="M118.44,32.9c1.91,1.94,3.85,4.2,4.19,7a.43.43,0,0,1-.84.15,17.34,17.34,0,0,0-3.85-6.74c-.28-.32.2-.71.5-.41Z"/><path class="cls-5" d="M125.78,47c1.36,1.65,3.19,3.9,2.21,6.15-.18.4-.87.42-.92-.08a13,13,0,0,0-1.88-5.69c-.21-.35.34-.68.59-.38Z"/><path class="cls-5" d="M129.75,50.17a13.83,13.83,0,0,0,.25,2.49c.05.37-.53.6-.66.21a7,7,0,0,1-.24-2.76.33.33,0,0,1,.65.06Z"/></g></g></g></svg>