<svg xmlns="http://www.w3.org/2000/svg" viewBox="0 0 327.89 437.64"><defs><style>.cls-1{fill:#f0f0f0;}.cls-2{fill:#e0e0e0;}.cls-3{fill:#27debf;}.cls-4{opacity:0.1;}.cls-5{opacity:0.2;}.cls-6,.cls-7{fill:#fff;}.cls-6{opacity:0.3;}.cls-7{opacity:0.5;}.cls-8{opacity:0.05;}.cls-9{fill:#263238;}.cls-10{fill:#ffa8a7;}.cls-11{fill:#f28f8f;}.cls-12{fill:#37474f;}.cls-13{opacity:0.15;}.cls-14{fill:#455a64;}.cls-15{fill:#b16668;}</style></defs><g id="Camada_2" data-name="Camada 2"><g id="Shadow"><ellipse id="Shadow-2" data-name="Shadow" class="cls-1" cx="151.25" cy="384.14" rx="92.67" ry="53.5"/></g><g id="Balloons"><g id="Balloons-2" data-name="Balloons"><path class="cls-2" d="M83.24,245.5c3.39,7,2.87,15.87,3.57,23.5a149.39,149.39,0,0,0,4.37,23.52c4.2,16.41,9.65,32.91,11.21,49.85.84,9-.26,17.67-1.25,26.62,0,.21.36.56.45.26,4.76-16.08,1.39-33.52-2.31-49.4-3.82-16.44-9.6-32.58-11.31-49.43-.48-4.71-.78-9.43-1.31-14.13-.43-3.83-.87-7.71-3-11-.19-.28-.58-.1-.43.23Z"/><path class="cls-2" d="M80.42,248.82c1.49.66,3.61,2.85,2,4.58a3.33,3.33,0,0,1-2,.78c-.53,0-.53.06,0,.3l.14,1.2a3.68,3.68,0,0,0-2.74,4.24,6.12,6.12,0,0,1-1.68,1.44c-.2.14,0,.58.23.47,1.74-.87,4.07-3.12,2.18-5.06-.59-.61-2.18-1.15-2.56,0-.56,1.67,2.6,2,3.52,1.77,2-.51,2.38-2.79,1.72-4.52-.56-1.48-2.63-3-4.13-1.57-1,.93-.19,2,.92,2.43,1.93.78,5.18.18,5.79-2.07s-1.4-4-3.41-4.46c-.31-.07-.17.43,0,.51Z"/><path class="cls-2" d="M54.36,215.46c1.87,5.26,3.22,10.69,5,16,1.6,4.68,3.86,9.08,5.6,13.71,3.9,10.34,5.72,21.15,7.88,31.94a113.85,113.85,0,0,0,4,15.85,128.63,128.63,0,0,0,5.93,13.51c4.54,9.3,9.18,18.66,12.65,28.43,1.94,5.48,3.3,11.12,4.74,16.74a89.76,89.76,0,0,1,3.15,19.25c0,.27.49.56.51.17.34-5.7-.71-11.26-2-16.78-1.23-5.1-2.46-10.25-4-15.26-3.06-9.94-7.61-19.39-12.12-28.74-2.27-4.7-4.66-9.35-6.62-14.2a91,91,0,0,1-4.37-14.91c-2.3-10.68-3.78-21.56-7.26-31.95-1.9-5.67-4.62-11-6.68-16.56s-3.48-11.66-6-17.24c-.13-.28-.56-.29-.43.08Z"/><path class="cls-2" d="M61.7,297.86c2,3.28,3.14,7,5.13,10.3a44,44,0,0,0,5,6.44c5.32,5.93,11.35,11.36,15.78,18,4.6,6.93,7,15,9,23,1,4,1.85,7.94,2.86,11.89a24,24,0,0,0,1.67,4.95c.81,1.6,1.87,3.06,2.59,4.72.22.53,1.25.29,1-.31-.72-1.66-1.78-3.11-2.59-4.72a26.93,26.93,0,0,1-1.82-5.62c-1-3.94-1.86-7.9-2.85-11.84-1.79-7.1-3.94-14.23-7.71-20.56s-9-11.4-14-16.71c-3.2-3.41-6.65-6.79-8.87-11-1.59-3-2.76-6.09-4.72-8.86-.19-.27-.62-.09-.43.23Z"/><path class="cls-2" d="M61.54,301.11a5.1,5.1,0,0,1,.74,1.65c.15.65,0,3.7-1.35,3.88l-2-1q4.48,1.1,3.12,4.45L61,311.19a2.59,2.59,0,0,1-1.63,3.34c-.35.17,0,.68.36.58,5.64-1.73-.63-7.92-2.26-5.28-1,1.6,1.62,2.56,2.74,2.45a3.42,3.42,0,0,0,3-3.92,4,4,0,0,0-3.69-3.49c-1.36,0-3.36,1.08-2.08,2.55s3.68.37,4.65-.71c1.59-1.76,1.11-4.15-.26-5.84-.19-.24-.45,0-.3.24Z"/><path class="cls-3" d="M57,216.49h0c-.53-1.77-5.66-5.54-6.36-5.33s-2.59,6-2,7.85h0a2.19,2.19,0,0,0,1.74,1.35,6.8,6.8,0,0,0,5.92-1.78,2.18,2.18,0,0,0,.72-2.09Z"/><path class="cls-4" d="M57,216.49h0c-.53-1.77-5.66-5.54-6.36-5.33s-2.59,6-2,7.85h0a2.19,2.19,0,0,0,1.74,1.35,6.8,6.8,0,0,0,5.92-1.78,2.18,2.18,0,0,0,.72-2.09Z"/><path class="cls-3" d="M73.89,158a17.61,17.61,0,0,0-8-10.09h0l-.08,0a19.13,19.13,0,0,0-15.15-1.73c-6.4,1.91-10.61,8.32-12.07,15a3.15,3.15,0,0,1-5.25,1.58c-4.91-4.79-12-7.82-18.35-5.88a19.11,19.11,0,0,0-11.69,9.79l0,.08h0a17.61,17.61,0,0,0-1.09,12.81c4.1,13.63,21.33,23.21,35.05,28.84l14.45,5.89,8.81-12.88C68.88,189.14,78,171.65,73.89,158Z"/><path class="cls-5" d="M73.89,158a17.61,17.61,0,0,0-8-10.09h0l-.08,0a19.13,19.13,0,0,0-15.15-1.73c-6.4,1.91-10.61,8.32-12.07,15a3.15,3.15,0,0,1-5.25,1.58c-4.91-4.79-12-7.82-18.35-5.88a19.11,19.11,0,0,0-11.69,9.79l0,.08h0a17.61,17.61,0,0,0-1.09,12.81c4.1,13.63,21.33,23.21,35.05,28.84l14.45,5.89,8.81-12.88C68.88,189.14,78,171.65,73.89,158Z"/><path class="cls-4" d="M74.48,170.51c-1.41,3.32-13,26-29.84,27.06C24.57,198.8,2,181.47,3.32,166.74a17.61,17.61,0,0,0-1.09,12.81c4.1,13.63,21.33,23.21,35.05,28.84l14.45,5.89,8.81-12.88C66.49,192.66,72.81,181.27,74.48,170.51Z"/><path class="cls-3" d="M65,297.35h0c-1-1.58-6.89-3.9-7.51-3.52s-1,6.42.06,8.1h0a2.2,2.2,0,0,0,2,.86,6.82,6.82,0,0,0,5.27-3.24,2.18,2.18,0,0,0,.15-2.2Z"/><path class="cls-6" d="M65,297.35h0c-1-1.58-6.89-3.9-7.51-3.52s-1,6.42.06,8.1h0a2.2,2.2,0,0,0,2,.86,6.82,6.82,0,0,0,5.27-3.24,2.18,2.18,0,0,0,.15-2.2Z"/><path class="cls-3" d="M66.31,236.49A17.6,17.6,0,0,0,56,228.79v0l-.09,0A19.12,19.12,0,0,0,40.85,231c-5.7,3.49-8.12,10.77-7.81,17.62a3.15,3.15,0,0,1-4.67,2.87c-6-3.37-13.56-4.49-19.25-1A19.18,19.18,0,0,0,.34,262.94l0,.09h0a17.56,17.56,0,0,0,2.24,12.66c7.46,12.13,26.57,17,41.27,18.88l15.48,2,5.21-14.7C69.46,267.85,73.76,248.62,66.31,236.49Z"/><path class="cls-7" d="M66.31,236.49A17.6,17.6,0,0,0,56,228.79v0l-.09,0A19.12,19.12,0,0,0,40.85,231c-5.7,3.49-8.12,10.77-7.81,17.62a3.15,3.15,0,0,1-4.67,2.87c-6-3.37-13.56-4.49-19.25-1A19.18,19.18,0,0,0,.34,262.94l0,.09h0a17.56,17.56,0,0,0,2.24,12.66c7.46,12.13,26.57,17,41.27,18.88l15.48,2,5.21-14.7C69.46,267.85,73.76,248.62,66.31,236.49Z"/><path class="cls-8" d="M70.08,248.41c-.51,3.58-5.86,28.49-21.89,33.82C29.11,288.56,2.88,277.6.34,263a17.56,17.56,0,0,0,2.24,12.66c7.46,12.13,26.57,17,41.27,18.88l15.48,2,5.21-14.7C68,271.87,71.24,259.24,70.08,248.41Z"/><path class="cls-3" d="M87.55,246h0c-.62-1.74-5.94-5.23-6.63-5s-2.27,6.08-1.6,7.94h0a2.16,2.16,0,0,0,1.8,1.26A6.83,6.83,0,0,0,87,248.12a2.19,2.19,0,0,0,.6-2.13Z"/><path class="cls-4" d="M87.55,246h0c-.62-1.74-5.94-5.23-6.63-5s-2.27,6.08-1.6,7.94h0a2.16,2.16,0,0,0,1.8,1.26A6.83,6.83,0,0,0,87,248.12a2.19,2.19,0,0,0,.6-2.13Z"/><path class="cls-3" d="M101.44,186.73A17.55,17.55,0,0,0,93,177.07v0l-.08,0a19.11,19.11,0,0,0-15.22-.95c-6.29,2.24-10.17,8.86-11.28,15.63a3.14,3.14,0,0,1-5.15,1.84c-5.16-4.52-12.35-7.19-18.64-4.93A19.14,19.14,0,0,0,31.44,199l0,.08h0A17.54,17.54,0,0,0,31,211.92c4.8,13.41,22.5,22.08,36.49,27l14.73,5.13,8.14-13.31C98.05,218.07,106.23,200.13,101.44,186.73Z"/><path class="cls-4" d="M102.67,199.17c-1.23,3.39-11.61,26.67-28.4,28.57-20,2.26-43.38-13.88-42.85-28.66A17.54,17.54,0,0,0,31,211.92c4.8,13.41,22.5,22.08,36.49,27l14.73,5.13,8.14-13.31C95.84,221.71,101.57,210,102.67,199.17Z"/></g><g id="Balloons-3" data-name="Balloons"><path class="cls-2" d="M240.72,253.72c-2.19,3.21-3.27,7-4.23,10.75-1.08,4.17-2.05,8.39-2.83,12.63-1.73,9.28-2.6,18.68-3.92,28a140.83,140.83,0,0,1-6.31,27.28c-3,8.36-6.53,16.55-8.51,25.22a74.43,74.43,0,0,0-.12,30.64c0,.28.47.45.46.07-.36-9.22-1.63-18.16,0-27.36,1.47-8.17,4.57-15.91,7.46-23.65a138.92,138.92,0,0,0,6.85-24.49c1.5-8.56,2.36-17.21,3.55-25.82.67-4.84,1.42-9.67,2.46-14.44,1.36-6.25,2.62-12.76,5.6-18.44.14-.27-.29-.7-.48-.41Z"/><path class="cls-2" d="M243.84,256.87c-2.19.41-4.24,2.45-3.19,4.82.81,1.83,3.56,2.34,5.34,1.87,1.19-.31,2.3-1.49,1.17-2.49-1.5-1.34-3.52-.17-4.14,1.39-.7,1.74-.34,4,1.66,4.59.92.28,3.69.13,3.55-1.34-.13-1.32-1.84-1.12-2.58-.45-2.07,1.89.55,4.3,2.17,5.2.26.14.29-.3.12-.42-2-1.42-.06-.68-2-3.76-1.81-.46-2.54-1.32-2.18-2.58a1,1,0,0,1,.35-.92l-.78-.09q-2.7-.85-1.83-3.22a4.54,4.54,0,0,1,2.59-2.09c.24-.11,0-.55-.24-.51Z"/><path class="cls-2" d="M277.58,210.19c-2,5.85-5.32,11.15-6.85,17.19-1.64,6.44-2.65,13-4.15,19.49a193.12,193.12,0,0,1-11,34c-4.76,10.84-11.76,20.37-16.07,31.41-4.46,11.43-7.61,23.36-13.71,34.09-3.22,5.64-6.73,11.09-8.57,17.37a54.94,54.94,0,0,0-2.29,21.79c0,.25.52.46.5.1a68.39,68.39,0,0,1,2.23-19.83c1.64-6.2,4.7-11.58,7.91-17.08,5.93-10.17,9.4-21.18,13.4-32.18a101.27,101.27,0,0,1,7.58-16.86c2.85-4.85,5.79-9.55,8.21-14.65a179.46,179.46,0,0,0,11.91-34.27c1.73-7,2.89-14.14,4.51-21.18,1.54-6.68,5.14-12.49,6.84-19.08.06-.24-.33-.63-.44-.32Z"/><path class="cls-2" d="M263,305.38c-3.74,6.83-10.44,11-15.46,16.77-5.26,6-8.91,13.21-12.57,20.26-1.94,3.73-3.89,7.47-6.1,11.06s-4.74,6.91-6.91,10.5c-4.74,7.85-6.77,16.46-7.81,25.5-.07.59,1,.76,1.07.17,1-8.93,3-17.5,7.72-25.26,3.87-6.4,8.19-12.37,11.68-19,3.38-6.45,6.57-13.05,10.85-19,3.44-4.75,7.85-8.49,12-12.56a27,27,0,0,0,6-8c.13-.27-.32-.72-.49-.41Z"/><path class="cls-2" d="M261.45,309.73a4.37,4.37,0,0,0-.22,5.89c.91,1,3.51,2.21,4.63.81s-1-2.6-2.28-2.61a3.88,3.88,0,0,0-3.61,4.41,3.58,3.58,0,0,0,3.67,3c1.17-.05,2.91-1.12,1.95-2.46s-3.52-.12-4.14,1.09a3,3,0,0,0,2,4.18c.45.15.4-.41.09-.57-1.42-.72-3-4.53-2.75-6.14l.39-1.18c.36-1.09.82-1.25,1.39-.5l-.3-.23a2.43,2.43,0,0,1-1.41-2.37,5,5,0,0,1,.9-2.93c.12-.19-.15-.64-.35-.41Z"/><path class="cls-3" d="M273.57,210.61h0c.49-1.78,5.52-5.69,6.22-5.5s2.74,5.89,2.23,7.79h0a2.19,2.19,0,0,1-1.7,1.4,6.79,6.79,0,0,1-6-1.62,2.19,2.19,0,0,1-.78-2.07Z"/><path class="cls-4" d="M273.57,210.61h0c.49-1.78,5.52-5.69,6.22-5.5s2.74,5.89,2.23,7.79h0a2.19,2.19,0,0,1-1.7,1.4,6.79,6.79,0,0,1-6-1.62,2.19,2.19,0,0,1-.78-2.07Z"/><path class="cls-3" d="M255.08,152.62a17.54,17.54,0,0,1,7.69-10.3h0l.08-.05a19.07,19.07,0,0,1,15.09-2.14c6.46,1.74,10.83,8,12.48,14.69a3.14,3.14,0,0,0,5.28,1.43c4.78-4.91,11.74-8.13,18.19-6.37a19.1,19.1,0,0,1,11.94,9.47l.05.09h0a17.56,17.56,0,0,1,1.44,12.77C323.56,186,306.59,196,293,202l-14.29,6.28-9.15-12.64C260.92,183.59,251.35,166.36,255.08,152.62Z"/><path class="cls-5" d="M255.08,152.62a17.54,17.54,0,0,1,7.69-10.3h0l.08-.05a19.07,19.07,0,0,1,15.09-2.14c6.46,1.74,10.83,8,12.48,14.69a3.14,3.14,0,0,0,5.28,1.43c4.78-4.91,11.74-8.13,18.19-6.37a19.1,19.1,0,0,1,11.94,9.47l.05.09h0a17.56,17.56,0,0,1,1.44,12.77C323.56,186,306.59,196,293,202l-14.29,6.28-9.15-12.64C260.92,183.59,251.35,166.36,255.08,152.62Z"/><path class="cls-4" d="M254.82,165.12c1.5,3.28,13.68,25.67,30.56,26.25,20.1.68,42.16-17.24,40.47-31.93a17.56,17.56,0,0,1,1.44,12.77C323.56,186,306.59,196,293,202l-14.29,6.28-9.15-12.64C263.41,187.05,256.78,175.83,254.82,165.12Z"/><path class="cls-3" d="M258.46,306.2h0c1-1.55,7-3.76,7.58-3.37s.84,6.44-.22,8.1h0a2.18,2.18,0,0,1-2,.82,6.8,6.8,0,0,1-5.21-3.34,2.2,2.2,0,0,1-.11-2.21Z"/><path class="cls-4" d="M258.46,306.2h0c1-1.55,7-3.76,7.58-3.37s.84,6.44-.22,8.1h0a2.18,2.18,0,0,1-2,.82,6.8,6.8,0,0,1-5.21-3.34,2.2,2.2,0,0,1-.11-2.21Z"/><path class="cls-3" d="M258.31,245.33a17.55,17.55,0,0,1,10.43-7.5v0l.09,0a19.17,19.17,0,0,1,15,2.51c5.63,3.61,7.9,10.93,7.46,17.77a3.14,3.14,0,0,0,4.61,3c6-3.24,13.64-4.21,19.26-.59a19.13,19.13,0,0,1,8.54,12.63v.09h0a17.56,17.56,0,0,1-2.48,12.61c-7.7,12-26.9,16.43-41.64,18.06l-15.51,1.68-4.92-14.81C254.54,276.63,250.61,257.31,258.31,245.33Z"/><path class="cls-4" d="M254.3,257.17c.43,3.59,5.29,28.6,21.22,34.24,19,6.71,45.39-3.73,48.21-18.24a17.56,17.56,0,0,1-2.48,12.61c-7.7,12-26.9,16.43-41.64,18.06l-15.51,1.68-4.92-14.81C255.87,280.67,252.93,268,254.3,257.17Z"/><path class="cls-3" d="M234.58,255.48h0c.53-1.77,5.65-5.55,6.35-5.34s2.6,6,2,7.84h0a2.16,2.16,0,0,1-1.73,1.36,6.83,6.83,0,0,1-5.93-1.77,2.18,2.18,0,0,1-.72-2.09Z"/><path class="cls-6" d="M234.58,255.48h0c.53-1.77,5.65-5.55,6.35-5.34s2.6,6,2,7.84h0a2.16,2.16,0,0,1-1.73,1.36,6.83,6.83,0,0,1-5.93-1.77,2.18,2.18,0,0,1-.72-2.09Z"/><path class="cls-3" d="M217.55,197a17.63,17.63,0,0,1,7.95-10.1h0l.07-.05a19.13,19.13,0,0,1,15.15-1.76c6.41,1.9,10.62,8.31,12.1,15a3.13,3.13,0,0,0,5.24,1.57c4.91-4.79,11.95-7.83,18.35-5.91a19.13,19.13,0,0,1,11.7,9.77l0,.08h0a17.55,17.55,0,0,1,1.12,12.81c-4.08,13.64-21.29,23.24-35,28.9l-14.44,5.91L231,240.4C222.61,228.15,213.48,210.68,217.55,197Z"/><path class="cls-7" d="M217.55,197a17.63,17.63,0,0,1,7.95-10.1h0l.07-.05a19.13,19.13,0,0,1,15.15-1.76c6.41,1.9,10.62,8.31,12.1,15a3.13,3.13,0,0,0,5.24,1.57c4.91-4.79,11.95-7.83,18.35-5.91a19.13,19.13,0,0,1,11.7,9.77l0,.08h0a17.55,17.55,0,0,1,1.12,12.81c-4.08,13.64-21.29,23.24-35,28.9l-14.44,5.91L231,240.4C222.61,228.15,213.48,210.68,217.55,197Z"/><path class="cls-8" d="M217,209.53c1.41,3.32,13,26,29.88,27,20.07,1.2,42.58-16.17,41.26-30.9a17.55,17.55,0,0,1,1.12,12.81c-4.08,13.64-21.29,23.24-35,28.9l-14.44,5.91L231,240.4C225,231.67,218.67,220.29,217,209.53Z"/></g></g><g id="Character"><g id="Character-2" data-name="Character"><path class="cls-9" d="M138.31,17.41a12,12,0,0,0-5.87-3.31,19.2,19.2,0,0,0-19.58,7.21c-3.9,5.38-4.67,12.44-4.12,19.06s2.26,13.1,2.8,19.72c.49,5.88-5.68,10.69-9.8,14-.75.6-1.59,1.49-1.22,2.38a2.13,2.13,0,0,0,1.49,1,18.73,18.73,0,0,0,19.27-5.85l.13,4.94A9,9,0,0,0,127.79,72,18.61,18.61,0,0,0,130,64.25c.88-9-1.84-17.53-2.06-26.4-.25-10,3.16-17.42,9.48-16.29,2.57.47,3.81-.41,2.15-2.68A15,15,0,0,0,138.31,17.41Z"/><path class="cls-3" d="M136.29,19.2c-.33-.44-2.4-10.84,2.25-16.51s7-1.38,6.54,3.64A16.56,16.56,0,0,1,136.29,19.2Z"/><path class="cls-3" d="M137.76,19c-.49.27-11.07.82-16-4.58s-.37-7.11,4.53-6A16.59,16.59,0,0,1,137.76,19Z"/><path class="cls-10" d="M230,112.68c-3.77-3.77-12.71-14.44-14.58-17-2.35-3.2-8.8-10.89-12.7-13.78s-12.07-4.32-18.63-3.85c-.52,8,6.73,20.54,6.73,20.54l16.43,16.45c9.62,8.59,21.4,13.52,34.82,15.65C240.82,127,233.78,116.45,230,112.68Z"/><path class="cls-11" d="M207.26,115.07c1.91.36,8.25-.06,12.56.76s12.15,4.11,16.28,9.79Z"/><path class="cls-12" d="M184.1,78.08c2.24-.09,12-1.52,18,2.89,5.45,4,9.54,9.73,13.91,15.1,2.18,2.68,5.53,7.06,5.53,7.06s-4.45,7.36-15.38,12.74l-19-18.22Z"/><path class="cls-12" d="M178.2,362.1a1.12,1.12,0,0,0-.82.8c-.51,1.71-.49,3.66-.83,5.41-.55,2.75-1.13,6.7-.68,8.9s3.42,4.34,9,5.93c3.37.95,9.38,3.86,12.12,6.36,3.37,3.06,10.57,5.61,15.44,5.76,5.71.17,11.66-1.35,13-5.46.58-1.73,1-4.69-7.13-7.89a49.3,49.3,0,0,1-8-3.74c-3.78-2.23-9.47-5.19-12.62-8.12a16.14,16.14,0,0,1-4.64-10.87,6.85,6.85,0,0,0-9,7.26c-.39.21-.88-.16-1-.58a8.2,8.2,0,0,1-.14-1.32,2.8,2.8,0,0,0-1.88-2A5.62,5.62,0,0,0,178.2,362.1Z"/><path class="cls-12" d="M100.1,362.29a11.9,11.9,0,0,1,.7,3.92,25.82,25.82,0,0,1,.47,3.34c0,1,.23,2.17,1.15,2.53a2,2,0,0,0,2.08-.69,18,18,0,0,0,1.31-1.92A5.65,5.65,0,0,1,110,367.2c1.63-.09,1.75.07,2.85,1.27-.13.32-.82,1.94-.94,2.25-3.15,8-3.34,15.17-1.38,23.5.4,1.7,2.85,4.46,4.2,5.81a26.93,26.93,0,0,0,2.53,2.25c.79.61,1.58,1.34,1.67,2a4.46,4.46,0,0,1-.48,2.78,5.14,5.14,0,0,1-3.09,2.25,19.92,19.92,0,0,1-14.74-.48,13.51,13.51,0,0,1-5-4.2c-2.73-4.77-2.42-9.32-2.46-13.42-.08-9.07-1.57-13.76-2.3-18.29C90,367.45,98.38,361.46,100.1,362.29Z"/><path class="cls-10" d="M196.88,367.22c-3.36-3.63-4-7.14-3.54-13.87s3.82-66.33,5.2-81c2.31-24.69,3.47-94.11,1.42-111.24l-65.84,5.18c-4.79,12-8.3,26.68-7.56,49.78.57,17.62.16,65.4.16,65.4s-8,7-13.78,20.89C107.87,314.59,102,356.92,102,356.92h0a38.5,38.5,0,0,1-1.93,5.37,10.41,10.41,0,0,0-2.37,6.17,103.51,103.51,0,0,0,2.32,21.78c.8,3.7,3.11,6.08,6.8,7.55a5.85,5.85,0,0,0,2.58.43,1.93,1.93,0,0,0,1.25-.47c.62-.62.06-2.1-.06-2.85a27.21,27.21,0,0,1-.33-3.61c-.07-2.38,0-5.29.16-7.66A77.38,77.38,0,0,1,113,367.85l1.28-3.05h0s28.58-57.62,36.69-71.67c6.46-11,10.75-53.81,15.32-77.2L174,271.84s-3.39,10.1-4.28,17.82c-1.2,10.38,6.12,51,8.31,65.48a29.31,29.31,0,0,1,.1,8.1h0c.77,6.26,5.47,8.2,10.33,11.74,2.42,1.77,13,8.23,19.47,9.53,5.22,1.06,9.23-2.07,6-4.08C207.89,376.3,200.24,370.85,196.88,367.22Z"/><path class="cls-3" d="M163.62,233.7c.66-6.29,2.48-14.89,2.48-14.89L169,243.05l2.36,27.82a112.36,112.36,0,0,0-2.07,11.31c-1,7.47-.54,19.49.82,27.53s4.22,22.44,4.22,22.44c11.94,6.23,21-.15,21-.15s1.16-16.07,3.39-39.63,3-47.1,3.16-66.67c0,0,2.83-48.81-5.41-81.73-9.69,6.82-38.47,8.18-50.09-1,0,0-4.65,7.69-14.82,24.87-8,13.48-5.63,35.15-5.77,53.26-.22,27.93-.06,59.48-.06,59.48a89.88,89.88,0,0,0-9.86,13.23c-5.09,8.21-7.71,26.43-7.71,26.43s5.15,10.94,22.7,11.4c0,0,17.05-31.05,21.34-38.09S163,240,163.62,233.7Z"/><path class="cls-13" d="M166.1,218.81l6.41-24.65s12.27-1.31,21.83-8.33c0,0-2,9-18.87,11.67l-7.28,24.2.85,21.35Z"/><path class="cls-14" d="M200.09,97.59c-8-10.49-10.67-14.12-16-19.51l-29.16-1.25c-2.28.19-15.32,2.3-15.32,2.3-3.26,1.44-6.84,9.19-6,15.33.9,6.4,1.64,12.76,3.24,20.61s4.1,14,4.66,16.46c1.13,5.06,1.66,10.31-1,15.37-5.52,10.54-10.05,17.36-11.89,26.21A19.14,19.14,0,0,0,137,168.3c3.56-3.41,5.71-5,8.56-9,0,0,.28,6,6.24,13.86a33.29,33.29,0,0,0,5.21,5.49c10.69,9,42.88,12.85,43.93-15.22,0,0-3.15-12.8-3.78-20.42s-.74-12.21-.67-14.18C209.59,119.47,205.31,104.41,200.09,97.59Z"/><path class="cls-10" d="M79.42,122.21c3.53-6.13,8.1-7.69,13.92-12s17.79-13.92,25.16-18.93c8.37-5.68,14.94-10.78,21.18-10.74,0,0,1-.19,2.78,4.78S144,102.38,140,105.6s-36.67,21.33-36.67,21.33l-23.93-4.72"/><path class="cls-11" d="M119,118.13l-2.36-4.67c-2.22,1.52-5.84,2.89-11.75,3.23s-16.45.11-22.3,3.61a2.31,2.31,0,0,0-1,2.34l21.77,4.29S110.8,122.8,119,118.13Z"/><path class="cls-12" d="M139.62,79.13c-3.57,0-8.54,2.19-12.83,5.36-5.31,3.91-19.25,14.62-19.25,14.62s2.83,15,12.49,18.83c0,0,18.09-10,19.53-11.09s3.94-3.5,4.4-12S141.55,82.45,139.62,79.13Z"/><path class="cls-12" d="M178.87,124.3s-7.92,7-17.65,4.24a17,17,0,0,1-9.3-6.29.69.69,0,0,0-1.18.68c1.37,3.22,4.34,7,10.75,8.5C173.31,134.27,178.87,124.3,178.87,124.3Z"/><path class="cls-9" d="M147.85,9.66c10-3.94,17.3-3.19,22.26-2.09,20.67-9.34,37.62,18.3,19.12,32,0,0-.86,21.52-17.23,26.67L154,70c-2.72-7.47-18.45-9.9-22.66-26.56C126.41,27.69,137.2,13.88,147.85,9.66Z"/><path class="cls-10" d="M179.67,17.44c3.71,1.48,9.24,9.37,11.61,27.34C193.28,60,189,64.52,186.65,66s-7.17,1.55-11.92,1.49L176.16,78S181,81,182,86.07c.8,4.17-10.47,6.82-18.18,2.18a22.52,22.52,0,0,1-8.56-8.75l-2.88-21.88s-2.47,3.18-7,.85c-4.9-2.5-5.94-8.18-3.44-11.66S150.33,44,152.18,48c0,0,6.5-1.43,15.07-8.89C176.53,31.05,178,24.22,179.67,17.44Z"/><path class="cls-9" d="M171,43.66a1.94,1.94,0,1,1-2.3-1.58A2,2,0,0,1,171,43.66Z"/><path class="cls-15" d="M172.6,54.08l7.56,1.46a3.79,3.79,0,0,1-4.43,3.18A4,4,0,0,1,172.6,54.08Z"/><path class="cls-11" d="M175.73,58.72a3.72,3.72,0,0,0,1.85-.13,3.22,3.22,0,0,0-3.2-2.87,3.17,3.17,0,0,0-1.58.43A4,4,0,0,0,175.73,58.72Z"/><path class="cls-9" d="M186.78,35.57,182.5,33.5a2.27,2.27,0,0,1,3.1-1.16A2.5,2.5,0,0,1,186.78,35.57Z"/><path class="cls-9" d="M186.58,40.19a1.93,1.93,0,1,1-2.3-1.58A2,2,0,0,1,186.58,40.19Z"/><polygon class="cls-11" points="177.28 39.91 179.37 51.35 185.12 48.53 177.28 39.91"/><path class="cls-11" d="M174.73,67.48c-5,.12-15.47-1.2-17.65-4.93a10.39,10.39,0,0,0,4.3,4.52c3.4,2.11,13.76,3.45,13.76,3.45Z"/><path class="cls-10" d="M242.08,130.72c-8.45-7.15-11.06-11.25-34.82-15.65,0,0-13.08-4-14.7-5.16s-4.91-1.26-7.3-2.14-11.06-4-13.33-5.53-3.26-2.51-7.16-2.76-9.18-.88-10.43-.76-2.39,2.9-3.65,5-1.89,2.43-.91,6.68c.64,2.8,1.54,3.13,1.54,3.13.68.29,1.62-1,1.62-1,1.38.38,1.57-1.16,1.57-1.16,1.07,0,3.09-3.49,3.09-3.49l2.05-.5c1.8.5,5.57,3.61,4.32,6.49s-5.79,4-8.48,6-3,6.37-1.78,7c.72.36,1.6-1.09,4-2.72a28.29,28.29,0,0,1,6.91-3.19c5.33-1.64,9.87-.5,14.39-.75s5.91-2,21.23,7.55c6.31,3.93,11.69,7.43,16.86,9.31a58.69,58.69,0,0,0,18.23,3.13C242.58,140.58,243.34,134.42,242.08,130.72Z"/><path class="cls-11" d="M182.22,116.88a14.92,14.92,0,0,1-5.78-2.8c-1.85-1.33-3.87-3.87-5.34-5.21s-3.53,0-4.73,0a2.3,2.3,0,0,1-1.86-1c1.9-.39,1.86-1.51,1.86-1.51a5.27,5.27,0,0,1-3.61.26c-.79-.43-.84-1.72-.84-1.72-.08,1.07-1.16,1.63-2.54,1.81s-1.78-.48-1.78-.48a3.63,3.63,0,0,1,0,1.66l2.05-.5a4,4,0,0,1,.75.3c1.91,1,4.67,3.67,3.57,6.19a6,6,0,0,1-2.3,2.44h0c4.92-1.42,5.84-4.61,7.09-5.09.88-.35,2.08-.1,4.7,2.1A14.57,14.57,0,0,0,182.22,116.88Z"/><path class="cls-11" d="M165.37,102.74a45.58,45.58,0,0,0-5.79.23c-.83.17-3.84,2.28-4.37,2.62s-.78,2.41-1.23,3.74-.25,1.6.32,2c0,0-1.26-.17-.69-2.11s.74-3.78,1.37-4.29a26,26,0,0,1,4.5-2.5C160.11,102.28,165.37,102.74,165.37,102.74Z"/><path class="cls-11" d="M157.6,99.2c-1.09-.18-1.42.35-2.26,1.32a50.94,50.94,0,0,0-3.52,5,7.44,7.44,0,0,0,0,2.51c.05.94.12,3.13,1.12,4.53,0,0-.47-.07-1-1.4a19.3,19.3,0,0,1-.65-4.51c-.11-.85,0-1.1.78-2.28a45.41,45.41,0,0,1,3.32-4.4C156.2,99.15,156.49,98.87,157.6,99.2Z"/><path class="cls-11" d="M186.67,120.65a5.76,5.76,0,0,1-1-3.77c0-1.81-.15-2.22-.49-.81s-2.07,3.87-3.53,3.91A11.84,11.84,0,0,1,186.67,120.65Z"/><path class="cls-10" d="M79.42,122.21c-3.54,6.13-4.67,10.91-2.39,13.51,1.75,2,5,1.74,9.55,2,4.39.22,12.51-.75,18.19-3.95,8.27-4.66,12.61-7.17,19.38-7.77,6.44-.58,9.27-2.13,12.82-2.44,4.18-.37,8.59-.49,11.48,1a26.52,26.52,0,0,1,3.8,2.42c.3.14.74-.18.83-1.12a5.74,5.74,0,0,0-.73-3.12c-1.12-2-4.43-3.36-8-4s-6.12-2.41-6.65-4.53a7.43,7.43,0,0,1,.53-4.92,18.54,18.54,0,0,0,2.11.5,24.36,24.36,0,0,0,2.93.2,15,15,0,0,0,2.39,2.51c.85.59,1.64.83,2.05.48a3.23,3.23,0,0,0,1.95,1.49c1.13.13,1.35-.44,1.35-.44s-.38-2.16-.48-3.08-.1-2.31-.23-3-.73-1.16-2.43-3-2.48-3.47-3.31-3.65a7.5,7.5,0,0,0-2.35.18,4.71,4.71,0,0,0-1.69,0c-1.35.13-3.24.35-5.41.5s-4.69.06-5.3.67-1.57,2.09-2.92,3.66a76.12,76.12,0,0,1-6.09,5.92,41.45,41.45,0,0,1-3.41,2.55,16.6,16.6,0,0,1-4,2c-2.42.71-6,.86-10.64,1.25C94.94,118.6,82.67,118.47,79.42,122.21Z"/><path class="cls-11" d="M142.45,118.17c-2.51-.84-4.29-2.31-4.72-4a7.43,7.43,0,0,1,.53-4.92,3,3,0,0,1-2.18,1,7.83,7.83,0,0,1-3.69-1,3.45,3.45,0,0,0,2.57,1.66,23.51,23.51,0,0,1-4.08,1.66c-2.34.71-2.79,3-3.63,5.39s-1.06,4.76-3.8,6.22c0,0,2.68-.42,5.2-3.82s4.19-4.34,6.76-4.4,4.22,1.93,7.05,2.25Z"/><path class="cls-11" d="M147.74,112.92c.57-.52.82-.68.11-1.61s-1.75-2.29-2.27-2.88a7.76,7.76,0,0,0-2.47-1.58c-1.27-.63-1.79-1.15-3.09-1.25a4.62,4.62,0,0,1,2.14.36c.88.45,3,1.56,3.49,1.89a14.91,14.91,0,0,1,2.08,2.61c.36.52,1.07,1.42,1,1.75S147.74,112.92,147.74,112.92Z"/><path class="cls-11" d="M147.74,112.92a2.14,2.14,0,0,0,2.13.4c.68-.41.62-.72.22-1.65a25.9,25.9,0,0,1-1-3.14,3.75,3.75,0,0,0-1.22-2.34c-1.55-1.21-5.17-4.24-5.63-4.75,0,0,3.61,2.69,4.25,3.12,1.1.74,2.52,1.71,2.7,2.42s.92,3.54,1.07,3.91a4,4,0,0,1,.5,2C150.51,113.42,149.72,114.52,147.74,112.92Z"/><path class="cls-11" d="M123.81,126h0c-2.09-.16-3.14-1.73-4.06-2.24s.12.91,0,1.79a2.07,2.07,0,0,1-.84,1.37h0a27.12,27.12,0,0,1,4.87-.92Z"/></g></g></g></svg>