<svg xmlns="http://www.w3.org/2000/svg" viewBox="0 0 463.52 446.18"><defs><style>.cls-1{fill:#ebebeb;}.cls-2{fill:#e0e0e0;}.cls-3{fill:#fff;}.cls-4{fill:#263238;}.cls-5{fill:#455a64;}.cls-6{fill:#e8505b;}.cls-7{fill:#fafafa;}.cls-8{opacity:0.6;}.cls-9{opacity:0.3;}.cls-10{fill:#ffbe9d;}.cls-11{fill:#eb996e;}</style></defs><g id="Camada_2" data-name="Camada 2"><g id="Background_Complete" data-name="Background Complete"><circle class="cls-1" cx="61.99" cy="141.5" r="30.5"/><path class="cls-2" d="M90.4,135.84c.52,0,1.1.77,1.52,2.36a18.39,18.39,0,0,1,.25,6.87,27.42,27.42,0,0,1-3.32,9.79,28.77,28.77,0,0,1-20.52,14.45A27.32,27.32,0,0,1,58,169.14a18.33,18.33,0,0,1-6.39-2.55c-1.35-.93-1.92-1.74-1.71-2.23.44-1.06,3.72-.46,8.6-.72a33.09,33.09,0,0,0,17.25-5.59,33,33,0,0,0,11.07-14.36C88.71,139.19,89.25,135.9,90.4,135.84Z"/><path class="cls-3" d="M63.46,148.54a13.12,13.12,0,0,0,8.47-3.79,7.62,7.62,0,0,0,2.22-5.19,4.07,4.07,0,0,0-3.33-3.78A5.82,5.82,0,0,0,67.21,137a11.07,11.07,0,0,1-3.42,1.78c-1.8.41-3.65-.31-5.35-1s-3.53-1.48-5.35-1.15a3.52,3.52,0,0,0-2.93,2s-.92,2,.93,4.68A13.71,13.71,0,0,0,63.46,148.54Z"/><path class="cls-3" d="M49.49,131.06a2.78,2.78,0,0,0-2.8-1.47,1.77,1.77,0,0,0-.95.32h0a3,3,0,0,0-1.13,2.89A2.7,2.7,0,0,0,48,134.75,2.78,2.78,0,0,0,49.49,131.06Z"/><path class="cls-3" d="M78.73,131.15a2.78,2.78,0,0,0-2.79-1.47,1.86,1.86,0,0,0-1,.32l0,0h0a3,3,0,0,0-1.12,2.88,2.69,2.69,0,0,0,3.43,1.94A2.77,2.77,0,0,0,78.73,131.15Z"/><circle class="cls-1" cx="380.49" cy="57" r="35" transform="translate(233.05 412.36) rotate(-75.99)"/><path class="cls-2" d="M411.05,52.81c.53,0,1.11.89,1.53,2.67a21.39,21.39,0,0,1,.12,7.7,31.2,31.2,0,0,1-3.81,10.93A32.49,32.49,0,0,1,386,90.27a31.32,31.32,0,0,1-11.57-.1,21.49,21.49,0,0,1-7.21-2.71c-1.54-1-2.2-1.85-2-2.34.45-1.07,4.12-.26,9.71-.45a40,40,0,0,0,9.52-1.43,32.52,32.52,0,0,0,18.4-13,40.2,40.2,0,0,0,4.56-8.48C409.42,56.6,409.89,52.87,411.05,52.81Z"/><path class="cls-3" d="M390.45,53c.1,0-.43,1.48-2.15,3.19a12.91,12.91,0,0,1-17.27.86c-1.88-1.53-2.55-2.9-2.46-3s1,1.07,2.9,2.36a13.17,13.17,0,0,0,16.34-.81C389.55,54.21,390.3,53,390.45,53Z"/><path class="cls-3" d="M365.77,46a3.14,3.14,0,0,0-3.17-1.66,2.14,2.14,0,0,0-1.07.36l0,0h0A3.38,3.38,0,0,0,360.24,48a3,3,0,0,0,3.88,2.19A3.14,3.14,0,0,0,365.77,46Z"/><path class="cls-3" d="M402.31,49.35a16.77,16.77,0,0,0-.59-2.65A5.51,5.51,0,0,0,400,44.48a5.19,5.19,0,0,0-6.3.11,5.46,5.46,0,0,0-1.61,2.28,16.06,16.06,0,0,0-.5,2.67c-.1.05-.66-1.06-.21-2.9a5.78,5.78,0,0,1,1.69-2.78,5.68,5.68,0,0,1,3.74-1.43,5.59,5.59,0,0,1,5.57,4C402.94,48.27,402.41,49.4,402.31,49.35Z"/><path class="cls-1" d="M371.18,414.5c-.92-3.63,1.48-7.25,4.16-9.86s5.87-4.95,7.27-8.41c2.28-5.62-.7-12.93,3.16-17.6,2.27-2.75,6.31-3.65,8.33-6.59a15.38,15.38,0,0,0,1.83-5.26,53.5,53.5,0,0,1,13.46-24.86,46.56,46.56,0,0,1-5.36,24c-1.57,2.94-3.49,5.81-4,9.1-.87,5.35,2.09,10.88.74,16.12-1.53,6-8.31,10-8.66,16.17-.3,5.23,4.23,9.84,3.86,15.07a14.11,14.11,0,0,1-2.36,6.18c-4.08,6.7-10,11.3-19,11.1l-11,.32Z"/><path class="cls-2" d="M361.28,440.26a9,9,0,0,1-3-.09,18.7,18.7,0,0,1-3.58-.92,15.25,15.25,0,0,1-4.41-2.45,6.24,6.24,0,0,1-1.81-2.43,11.86,11.86,0,0,1-.5-3.3,31.57,31.57,0,0,0-.23-3.57,9.74,9.74,0,0,0-1.33-3.55c-1.29-2.29-3.43-4.47-4.11-7.57s-.18-6.36.35-9.67,1.05-6.91-.2-10.36-3.56-6.58-4.75-10.47-.59-8.16-.83-12.32a16.22,16.22,0,0,0-1.4-6.14c-.88-1.95-2.11-3.8-3.06-5.86-1.93-4.17-2.25-8.88-2.76-13.49q-.37-3.49-.75-7.05a34.39,34.39,0,0,0-1.19-7.06,58.77,58.77,0,0,0-2.6-6.84,22.82,22.82,0,0,1-1.26-3.57,38,38,0,0,1-.33-3.8,44.41,44.41,0,0,1,.34-7.63c.31-2.54.78-5.06,1.07-7.61,0-.15,0-.3.05-.44l.06-.51.45.23a17,17,0,0,1,5.91,5,26.75,26.75,0,0,1,3.61,6.74c1.82,4.75,2.45,9.71,3.35,14.46s2.05,9.41,4.46,13.36c1.19,2,2.65,3.77,3.91,5.69a15.5,15.5,0,0,1,2.7,6.3c.63,4.67-2,8.75-1.45,12.89a14.25,14.25,0,0,0,2,5.73c1,1.77,2.16,3.41,3.26,5.06a33,33,0,0,1,2.94,5.1,16.25,16.25,0,0,1,1.32,5.54c.25,3.72-.3,7.24-.05,10.57a24.43,24.43,0,0,0,2.67,9.08c1.32,2.72,2.79,5.18,4,7.57a37,37,0,0,1,1.65,3.52,17.48,17.48,0,0,1,.95,3.49,21.84,21.84,0,0,1,0,6.3,15.86,15.86,0,0,1-3.2,8,8.58,8.58,0,0,1-.89,1,5,5,0,0,1-.73.61c-.41.3-.63.44-.63.44a14.34,14.34,0,0,0,2.14-2.1,15.9,15.9,0,0,0,3-8,22,22,0,0,0-.1-6.2,17.12,17.12,0,0,0-1-3.41c-.46-1.14-1-2.3-1.66-3.48-1.24-2.36-2.73-4.81-4.07-7.55a24.81,24.81,0,0,1-2.77-9.24c-.27-3.4.26-6.94,0-10.57a15.53,15.53,0,0,0-1.29-5.35,32.41,32.41,0,0,0-2.9-5c-1.11-1.64-2.29-3.29-3.31-5.09a15,15,0,0,1-2.07-6c-.51-4.4,2.07-8.51,1.43-12.85a15,15,0,0,0-2.61-6c-1.25-1.89-2.71-3.69-3.94-5.71-2.48-4.07-3.67-8.82-4.56-13.58s-1.55-9.69-3.33-14.34a26.64,26.64,0,0,0-3.51-6.57,16.39,16.39,0,0,0-5.66-4.83l.51-.28c0,.14,0,.29-.05.44-.3,2.58-.77,5.11-1.08,7.62a44,44,0,0,0-.34,7.51c.07,1.23.14,2.52.32,3.69a21.74,21.74,0,0,0,1.22,3.44,62,62,0,0,1,2.62,6.91,35.21,35.21,0,0,1,1.2,7.18q.38,3.57.74,7.06c.5,4.63.82,9.27,2.68,13.29.92,2,2.15,3.85,3,5.87a17,17,0,0,1,1.45,6.36c.21,4.26-.36,8.41.77,12.19s3.5,6.9,4.7,10.47.72,7.32.18,10.61-1.11,6.55-.41,9.48,2.7,5.12,4,7.48a10,10,0,0,1,1.35,3.69,30.58,30.58,0,0,1,.21,3.62,11.2,11.2,0,0,0,.45,3.2,5.83,5.83,0,0,0,1.7,2.33,15,15,0,0,0,4.31,2.46,18.79,18.79,0,0,0,3.52,1,14.94,14.94,0,0,0,2.25.23Z"/><path class="cls-2" d="M327.17,310.16s.05.11.11.33.14.59.24,1c.21.87.46,2.19.87,3.83s1.41,3.49,2.25,5.77a80.26,80.26,0,0,1,2.58,7.84c.82,2.94,1.55,6.21,2.31,9.71s1.56,7.25,3.47,10.79c.89,1.8,1.9,3.62,2.7,5.6a26.37,26.37,0,0,1,1.55,6.34,126.56,126.56,0,0,0,2.3,13.35c2.16,9.05,4.22,17.67,6.09,25.52L356.75,421c1.41,5.89,2.57,10.67,3.38,14,.37,1.62.67,2.9.88,3.83l.22,1a1.76,1.76,0,0,1,0,.35s-.06-.11-.12-.33-.17-.59-.28-1l-1-3.79c-.86-3.36-2.09-8.13-3.6-14L351,400.39c-1.9-7.85-4-16.47-6.15-25.52a125.93,125.93,0,0,1-2.3-13.41,25.47,25.47,0,0,0-1.49-6.19c-.77-1.93-1.76-3.74-2.66-5.56-1.92-3.61-2.7-7.47-3.46-10.95s-1.43-6.77-2.21-9.71-1.63-5.56-2.47-7.83-1.75-4.15-2.15-5.84-.58-3-.74-3.87c-.07-.41-.13-.74-.17-1A1.24,1.24,0,0,1,327.17,310.16Z"/><path class="cls-2" d="M359.33,440.28c-7.18-4.32-9.17-17.33-6.12-25.13s8.35-14.92,9.2-23.26c.66-6.41-1.4-13,.13-19.25,2.06-8.45,10.36-14.95,10.31-23.64,0-4.88-2.77-9.48-2.53-14.36.31-6,4.92-10.69,7.79-15.93,4.4-8,4.74-17.56,6.28-26.59s5-18.68,13.07-23.08c1.13,7.68,3.12,12.95,2.43,23.33-.25,3.73-4.62,10.85-5.26,19-.38,4.89-.65,9.78-1,14.67s-.65,9.61-2.39,14.05c-1.32,3.41-3.44,6.49-4.43,10-1.87,6.62.49,13.81-1,20.52-1.28,5.69-5.25,10.56-6.09,16.33-1.17,8.1,4,16.55,1.3,24.27-1.36,3.83-4.53,6.89-5.45,10.85-.71,3.07,0,6.33-.62,9.41-1,5-10.55,8.78-15.62,8.45"/><path class="cls-1" d="M395.43,276.65a2,2,0,0,1,0,.43c0,.32-.1.74-.17,1.26-.17,1.11-.36,2.73-.75,4.83s-1.52,4.49-2.4,7.36-1.87,6.15-2.7,9.84-1.56,7.78-2.3,12.18-1.56,9.19-3.77,13.76c-1,2.3-2.17,4.59-3,7a31.87,31.87,0,0,0-1.56,7.78,156.13,156.13,0,0,1-2.21,16.76c-2.27,11.36-4.43,22.17-6.4,32s-3.94,18.64-5.51,26.07-2.87,13.37-3.77,17.57l-1.06,4.76c-.12.52-.22.92-.3,1.24a2.52,2.52,0,0,1-.12.42,2.79,2.79,0,0,1,.05-.44c.06-.32.13-.73.23-1.25.22-1.14.53-2.75.93-4.79l3.55-17.61c1.53-7.44,3.35-16.29,5.36-26.1s4.1-20.65,6.34-32A160.18,160.18,0,0,0,378,341.06a32.2,32.2,0,0,1,1.62-7.93c.89-2.5,2.05-4.81,3.07-7.09,2.2-4.5,3-9.21,3.79-13.59s1.51-8.49,2.39-12.19,1.84-7,2.81-9.86,2.07-5.23,2.51-7.29.67-3.7.88-4.79l.24-1.25C395.38,276.79,395.41,276.64,395.43,276.65Z"/></g><g id="Floor"><line class="cls-4" x1="0.49" y1="439" x2="463.49" y2="439"/><path class="cls-5" d="M463.52,439.16c0,.14-103.77.26-231.75.26S0,439.3,0,439.16s103.75-.26,231.77-.26S463.52,439,463.52,439.16Z"/></g><g id="Character"><path class="cls-6" d="M223.24,177.58c-12.13,11.2-20.82,35.27-23.19,51.31s-3.59,33-12.4,46.6c-2.44,3.77-5.55,7.63-5.26,12.1.39,6.27,7.33,10.11,13.59,10.64s12.62-1,18.79.13c11.35,2.11,20.22,12.95,31.76,12.86,8.59-.07,16.1-6.55,19.93-14.25s4.72-16.48,5.54-25c2.47-25.78,4.29-44.36,6.76-70.14"/><path class="cls-7" d="M195.92,272.52a7.25,7.25,0,0,1-3.6-5.51c.15,0,.58,1.39,1.58,2.9S196,272.4,195.92,272.52Z"/><path class="cls-7" d="M245.18,300.35a2.85,2.85,0,0,1-.67,0l-1.91-.11c-1.66-.11-4-.31-7-.62-5.91-.61-14.05-1.71-22.94-3.49a83,83,0,0,1-12.4-3.17,26.94,26.94,0,0,1-9-5.28,17.89,17.89,0,0,1-4.23-5.63,13.86,13.86,0,0,1-.69-1.79,2.58,2.58,0,0,1-.15-.65c.05,0,.28.88,1,2.36a18.66,18.66,0,0,0,4.3,5.44,27.26,27.26,0,0,0,8.93,5.1,86.43,86.43,0,0,0,12.34,3.11c8.87,1.77,17,2.93,22.88,3.64l7,.78,1.9.2A3.67,3.67,0,0,1,245.18,300.35Z"/><path class="cls-7" d="M240.37,287.16a7.89,7.89,0,0,1-2.94-1.68,14.47,14.47,0,0,1-2-1.83l-.07-.08,0-.08c.16-.38.28-.6.34-.58s0,.26-.05.67l0-.15,2.12,1.64A18.16,18.16,0,0,1,240.37,287.16Z"/><path class="cls-7" d="M211.34,200.72c0,.14-.81.07-1.45-.6s-.68-1.47-.54-1.48.39.57.92,1.12S211.38,200.57,211.34,200.72Z"/><path class="cls-7" d="M207.46,213.09c0,.14-1.09.16-2-.69s-1.06-2-.92-2,.44.84,1.27,1.56S207.48,212.94,207.46,213.09Z"/><path class="cls-7" d="M204.27,227c0,.07-.28.14-.74.08a3.33,3.33,0,0,1-2.6-2.2c-.14-.44-.11-.72-.05-.74s.42,1,1.39,1.8S204.28,226.85,204.27,227Z"/><path class="cls-7" d="M201.55,240.7c-.07.13-.81-.19-1.65-.7s-1.46-1-1.39-1.15.82.2,1.66.71S201.63,240.58,201.55,240.7Z"/><path class="cls-7" d="M199,256.39c-.07.11-.95-.34-1.69-1.27s-1-1.88-.88-1.92.59.74,1.28,1.6S199.12,256.26,199,256.39Z"/><path class="cls-6" d="M181.44,397.5l-5.68,25.66-10.34,19a2.69,2.69,0,0,0,1.24,3.74h0a2.68,2.68,0,0,0,2.46-.12c4.81-2.78,22.47-13.09,22.78-15,.36-2.21,7.78-26.68,7.78-26.68Z"/><g class="cls-8"><path class="cls-3" d="M166.66,445.91l25.66-16.84-.27,1.08a4,4,0,0,1-1.55,2.33c-2.09,1.51-7.95,5.54-21.3,13.33a2.69,2.69,0,0,1-2.54.1Z"/></g><g class="cls-8"><path class="cls-3" d="M189.1,419.55a1.63,1.63,0,0,0-.94,2,1.57,1.57,0,0,0,1.94.95,1.71,1.71,0,0,0,1-2.08,1.61,1.61,0,0,0-2.12-.76"/></g><path class="cls-4" d="M175.23,436.18a8.25,8.25,0,0,0-1.75-2.53,8.49,8.49,0,0,0-2.8-1.29c0-.06.36-.18,1-.12a4.31,4.31,0,0,1,3.52,2.95C175.35,435.79,175.3,436.18,175.23,436.18Z"/><path class="cls-4" d="M172.57,439.16c-.15.08-.76-1-2-1.66a21.82,21.82,0,0,0-2.41-.93c0-.15,1.32-.39,2.7.43S172.72,439.12,172.57,439.16Z"/><path class="cls-4" d="M179.69,432.63a27,27,0,0,0-2.9-2.76,28.4,28.4,0,0,0-3.57-1.81,7.37,7.37,0,0,1,6.47,4.57Z"/><path class="cls-4" d="M182.07,425c-.11.14-1.37-.8-3.19-1.31s-3.38-.44-3.4-.61a5.28,5.28,0,0,1,3.56.05A5.22,5.22,0,0,1,182.07,425Z"/><path class="cls-4" d="M183.93,417.48a13.52,13.52,0,0,0-3.29-1.46,13.45,13.45,0,0,0-3.59,0c0-.06.33-.31,1-.51a5.88,5.88,0,0,1,5.16,1.08C183.75,417.06,184,417.43,183.93,417.48Z"/><path class="cls-4" d="M181,414.61a2.09,2.09,0,0,1,.2-1,6.93,6.93,0,0,1,1.39-2.34,3,3,0,0,1,1.62-1.1,1.07,1.07,0,0,1,1.13.52,1.76,1.76,0,0,1,.12,1.25,3.81,3.81,0,0,1-4.08,2.63,4.41,4.41,0,0,1-3.66-3.28,1.53,1.53,0,0,1,.23-1.25,1.06,1.06,0,0,1,1.21-.29,3.85,3.85,0,0,1,1.47,1.29,7.68,7.68,0,0,1,1.26,2.41,2.5,2.5,0,0,1,.17,1,12.21,12.21,0,0,0-1.75-3.13,3.41,3.41,0,0,0-1.3-1.09.57.57,0,0,0-.67.15,1.07,1.07,0,0,0-.1.83,3.91,3.91,0,0,0,3.21,2.8,3.29,3.29,0,0,0,3.49-2.18,1.22,1.22,0,0,0,0-.87.57.57,0,0,0-.61-.3,2.81,2.81,0,0,0-1.4.91A10,10,0,0,0,181,414.61Z"/><path class="cls-6" d="M261.22,407.09l-.78,20.46S281,435.21,281.2,439l-39.71-.08-.1-31.92Z"/><g class="cls-8"><path class="cls-3" d="M248.34,425.75a1.63,1.63,0,0,0-1.13,1.86,1.57,1.57,0,0,0,1.83,1.14,1.73,1.73,0,0,0,1.19-2,1.64,1.64,0,0,0-2-1"/></g><g class="cls-8"><path class="cls-3" d="M241.63,438.92l.11-3.23L280,437s1.77.78,1.57,2Z"/></g><path class="cls-4" d="M261.32,427.3c0,.2-1,.29-1.94.91s-1.47,1.44-1.65,1.37.11-1.21,1.29-1.94S261.37,427.13,261.32,427.3Z"/><path class="cls-4" d="M265.5,429c.05.19-.8.52-1.46,1.35s-.86,1.69-1.05,1.68-.32-1.11.53-2.12S265.5,428.86,265.5,429Z"/><path class="cls-4" d="M267.87,434.06c-.18,0-.44-.94.06-2s1.41-1.49,1.49-1.33-.48.73-.88,1.62S268.07,434,267.87,434.06Z"/><path class="cls-4" d="M261,422.6c-.08.18-1-.09-2.08,0s-2,.42-2.06.25.73-.86,2-.93S261.08,422.45,261,422.6Z"/><g class="cls-9"><polygon points="261.3 411 261.16 415 241.49 415 241.49 411 261.3 411"/></g><path class="cls-4" d="M261.06,418.45a3.78,3.78,0,0,1-2,0,9.11,9.11,0,0,1-2.09-.65,9.78,9.78,0,0,1-1.14-.61,2.44,2.44,0,0,1-.61-.47.86.86,0,0,1-.08-1,1,1,0,0,1,.85-.44,2.72,2.72,0,0,1,.75.1,7.53,7.53,0,0,1,1.24.43,7.24,7.24,0,0,1,1.84,1.21c.93.86,1.24,1.59,1.17,1.63s-.53-.55-1.47-1.26a8.18,8.18,0,0,0-1.78-1,7,7,0,0,0-1.15-.36c-.42-.11-.78-.12-.89.07s0,.1,0,.23a2.17,2.17,0,0,0,.44.34c.36.23.71.43,1.06.61a11.36,11.36,0,0,0,1.93.74A15.09,15.09,0,0,1,261.06,418.45Z"/><path class="cls-4" d="M260.81,418.73a3.16,3.16,0,0,1-.53-1.93,6.61,6.61,0,0,1,.28-2.19,6.25,6.25,0,0,1,.51-1.21,1.68,1.68,0,0,1,1.28-1,1,1,0,0,1,.83.56,2.92,2.92,0,0,1,.21.73,4.35,4.35,0,0,1,0,1.35,4.47,4.47,0,0,1-.85,2.06c-.79,1-1.6,1.27-1.61,1.2s.61-.47,1.21-1.46a4.59,4.59,0,0,0,.63-1.88,4.13,4.13,0,0,0,0-1.16c-.06-.42-.22-.76-.38-.72s-.53.32-.7.65a7.54,7.54,0,0,0-.5,1.09,7.26,7.26,0,0,0-.39,2C260.71,418,260.91,418.7,260.81,418.73Z"/><path class="cls-4" d="M222.51,181.3s-12.61,19.93-14.43,27.56-36,191.79-36,191.79L209,411.74h0l32.22-150.67-9.46,149.56a1,1,0,0,0,1.05,1.08l37.09-1.14a1,1,0,0,0,1-.95c.91-14.52,12.19-196,10.12-201.27-2.16-5.52-7.82-24.67-7.82-24.67Z"/><path class="cls-6" d="M195.3,119.58c-2,1.47-2.09,4.38-1.66,6.8s1.21,5,.36,7.27a18.46,18.46,0,0,1-2.57,3.93c-.89,1.29-1.57,2.93-1,4.4,1,2.75,5.31,3,6.39,5.71.63,1.55-.08,3.3-.93,4.73s-1.9,2.87-2,4.53a4.49,4.49,0,0,0,4.92,4.53c1.8-.27,3.21-1.62,4.74-2.6s3.68-1.57,5.07-.4c1.63,1.39,1,4,1,6.11a6.59,6.59,0,0,0,3.29,5.77,4.73,4.73,0,0,0,6.11-1.61c.56-1,.8-2.38,1.87-2.82,1.34-.55,2.64.86,4,1.21a3.71,3.71,0,0,0,4-2.1,7.5,7.5,0,0,0,.41-4.73c-1.14-6.27-5.79-11.21-8.88-16.77A35.7,35.7,0,0,1,216,128.92c-.24-3.16-.06-6.33-.33-9.48a16.85,16.85,0,0,0-3-8.88c-1.93-2.5-5.19-4.16-8.28-3.49"/><path class="cls-6" d="M236.19,45.67c-9.63-.27-18.88,7.29-20.53,16.78-.85,4.92.07,10.27-2.2,14.72-3,5.9-10.88,8.61-12.65,15-1.48,5.33,2,11.12.52,16.44-1.08,3.85-4.53,6.57-6.21,10.2a11.61,11.61,0,0,0,.76,11.08,10.55,10.55,0,0,0,10,4.57c2.43-.35,4.63-1.59,7-2.35,5.05-1.65,10.52-1,15.78-.31s10.66,1.58,15.82.36,10.12-5,10.89-10.3c.5-3.41-.79-6.79-1.83-10.07-6.89-21.67-3.71-45.31-8.59-67.52"/><path class="cls-6" d="M261.83,56.24c.85,5.72,2.4,11.38,4.86,14.92,2,2.85,5.86,4.49,6.45,7.92.49,2.88-1.23,5.75-.95,8.66.44,4.59,5.5,7.39,6.93,11.77,1.2,3.65-.45,7.78-3.23,10.42s-6.51,4-10.21,5c-5.29,1.42-11.7,1.86-15.5-2.09-2.6-2.71-3.19-6.73-3.52-10.47-.88-10-.84-20.06-.81-30.11"/><path class="cls-10" d="M227.25,65.87a17.22,17.22,0,0,1,15.48-19.28c9.18-.88,17.34,6,18.71,15.07,1.21,8,2.24,16.07,2.21,19-.12,8.83-5.29,12.27-7.38,13.31a11.5,11.5,0,0,1-2.33.57h0a.08.08,0,0,0-.05.07l2,10.15c.89,6.64-2.82,12.57-9.46,13.54s-11.86-4.14-12.88-10.79Z"/><path class="cls-4" d="M259.67,65.53c-.14.2-1.31-.42-2.8-.2s-2.49,1.13-2.68,1,0-.42.47-.84a3.8,3.8,0,0,1,2.1-1,3.74,3.74,0,0,1,2.27.38C259.54,65.13,259.75,65.43,259.67,65.53Z"/><path class="cls-4" d="M246.19,68.16c-.14.21-1.31-.42-2.81-.19s-2.48,1.13-2.67,1,0-.43.47-.84a3.87,3.87,0,0,1,2.1-1,3.68,3.68,0,0,1,2.27.39C246.06,67.76,246.26,68.07,246.19,68.16Z"/><path class="cls-4" d="M251.79,76.79a9.71,9.71,0,0,1,2.36-.8c.38-.09.73-.22.75-.49a2,2,0,0,0-.42-1.1l-1.55-2.74c-2.17-3.91-3.8-7.15-3.64-7.24s2,3,4.22,6.93l1.5,2.77a2.23,2.23,0,0,1,.42,1.47,1,1,0,0,1-.55.65,2.54,2.54,0,0,1-.63.18A10,10,0,0,1,251.79,76.79Z"/><path class="cls-11" d="M253.88,94.55s-5.7,1.32-13.56-2c0,0,3.39,7.3,14.09,4.71Z"/><path class="cls-11" d="M251.68,80.48a2.75,2.75,0,0,0-2.56-.65A2.54,2.54,0,0,0,247.55,81a1.57,1.57,0,0,0,.14,1.8,1.83,1.83,0,0,0,2,.21,5.5,5.5,0,0,0,1.74-1.42,1.59,1.59,0,0,0,.36-.5.5.5,0,0,0-.08-.56"/><path class="cls-4" d="M247.53,78.46c.25,0,.49,1.58,2,2.53s3.26.51,3.31.74-.34.37-1.07.5a4.07,4.07,0,0,1-2.74-.53,3.55,3.55,0,0,1-1.61-2.13C247.3,78.9,247.42,78.47,247.53,78.46Z"/><path class="cls-6" d="M245.42,63.89c-.09.43-1.61.45-3.33.92s-3.08,1.15-3.36.82c-.13-.16.06-.57.57-1a6.05,6.05,0,0,1,5.1-1.33C245.08,63.42,245.46,63.69,245.42,63.89Z"/><path class="cls-6" d="M258.41,61.4c-.22.38-1.3.18-2.54.34s-2.25.57-2.55.25c-.13-.16,0-.53.4-.91a3.7,3.7,0,0,1,4.1-.47C258.3,60.89,258.5,61.22,258.41,61.4Z"/><path class="cls-4" d="M255.47,67.38A1.4,1.4,0,0,0,256.6,69a1.33,1.33,0,0,0,1.6-1,1.38,1.38,0,0,0-1.12-1.58A1.33,1.33,0,0,0,255.47,67.38Z"/><path class="cls-4" d="M242.08,70a1.4,1.4,0,0,0,1.13,1.59,1.34,1.34,0,0,0,1.6-1A1.39,1.39,0,0,0,243.68,69,1.34,1.34,0,0,0,242.08,70Z"/><path class="cls-10" d="M228.22,107.84l27.15-5.58,5.92-.2-.42,18s-14.94,4.65-15.49,4.93S235,125,235,125Z"/><path class="cls-6" d="M238.93,50.82a14.39,14.39,0,0,0-2.41,14.32c1.26,3.19,3.71,6.12,3.5,9.54-.26,4.24-4.59,7.56-4.36,11.81.27,4.78,6.39,7.8,6.39,12.59s-2.94,6.71-8.63,7.75c-3.65.66-5.67-3.85-7.48-7.08s-2.4-7-2.77-10.69a109,109,0,0,1-.29-18.42c.35-5,1.08-10,3.65-14.29a18.52,18.52,0,0,1,12.17-8.47"/><path class="cls-6" d="M263.18,59.68c-1.83,2.8-7.64,1.07-11.14-.85a8.33,8.33,0,0,1-11.38-2.35c-2,2.55-6.08,1.71-7.56-1.17s-.65-6.84,1.39-9.36a13,13,0,0,1,8-4.33,18.47,18.47,0,0,1,18.77,7.73c1.93,2.92,3.09,6.84,1.95,10.33"/><path class="cls-10" d="M153,126.29l-6-12.1-2.79-6.1c-.7-1.53.32-2.24,1.19-1.28.33.37,4.13,5.12,4.13,5.12l-4-8.52c-1.26-2.69.54-2.72,1.25-1.81s5.49,8.85,5.49,8.85c-5.07-10.56-4.32-11.71-3.52-12s5.34,9.34,5.34,9.34a9.69,9.69,0,0,1,2.12-3.45c2.34-2.35,7.16-1.35,7.62-.13s-1.08,1.88-1.08,1.88a4.12,4.12,0,0,0-5.77,4.89c1,3.14,4.94,1.93,5-.45.16-5.22,2.19-3.92,2.19-3.92l.36,11.38,2.88,5.22L190.1,153l6.68-10.67,17.06,16.76-11.62,12.95a16,16,0,0,1-26.1-2.88Z"/><path class="cls-5" d="M319.49,104.81c-21.54-1.23-56.28-4-59-3.06,0,0,2.41,16-12.24,18.3s-20-12.21-20-12.21-15,4.26-20.56,13.48-12.38,19.54-12.38,19.54l20.13,19.8,5.63-6.17L225.09,168l-2.59,13.3,50.68,2.38,3.5-58.25,42.81-3.53Z"/><path class="cls-4" d="M215.42,135.3c.15,0,2.42,7.08,5.06,15.91s4.66,16,4.51,16.07-2.42-7.07-5.07-15.9S215.26,135.35,215.42,135.3Z"/><path class="cls-4" d="M286.44,112.69c.12.15-3.26,2.16-6.1,6s-3.87,7.57-4,7.5a8.08,8.08,0,0,1,.64-2.46,21.19,21.19,0,0,1,2.95-5.39,21.42,21.42,0,0,1,4.37-4.32A7.77,7.77,0,0,1,286.44,112.69Z"/><path class="cls-3" d="M238.69,146.65s0-.09-.05-.14a.38.38,0,0,1,0-.15.25.25,0,0,1,.21-.21.46.46,0,0,1,.35.11.44.44,0,0,0,.11.09,1.61,1.61,0,0,0,1.27.49,1.3,1.3,0,0,0,.83-.58,1.26,1.26,0,0,0,.18-1,1.35,1.35,0,0,0-.4-.72,2.19,2.19,0,0,0-.77-.38l-.66-.23a1.94,1.94,0,0,1-.43-.24,1.37,1.37,0,0,1-.58-.9l0-.16a1.65,1.65,0,0,1,.3-1.18,1.62,1.62,0,0,1,1-.67,1.76,1.76,0,0,1,.56,0,1.59,1.59,0,0,1,1,.47.71.71,0,0,1,.09.17.32.32,0,0,1-.24.37.28.28,0,0,1-.23,0,1.25,1.25,0,0,0-1-.33,1,1,0,0,0-.63.43,1.06,1.06,0,0,0-.17.83.88.88,0,0,0,.28.47,2.46,2.46,0,0,0,.71.34,5.64,5.64,0,0,1,.84.33,1.86,1.86,0,0,1,1.09,1.3,1.58,1.58,0,0,1,0,.38,1.85,1.85,0,0,1-.46,1.25,2,2,0,0,1-1.15.71,1.7,1.7,0,0,1-.92,0A2.23,2.23,0,0,1,238.69,146.65Z"/><path class="cls-3" d="M248.08,145.52s0,0,0,0a.33.33,0,0,1-.26.4.28.28,0,0,1-.18,0,.38.38,0,0,1-.24-.32s-.12-1.21-.33-3.5c-.37,1.53-.66,2.74-.86,3.62-.05.19-.07.3-.08.32a.38.38,0,0,1-.28.31h-.08a.42.42,0,0,1-.33-.23L244,142.74c.11,1.31.18,2.51.24,3.6v0a.32.32,0,0,1-.26.39.27.27,0,0,1-.18,0,.38.38,0,0,1-.24-.32s-.13-1.57-.36-4.62c-.06-.79-.09-1.22-.09-1.28a.26.26,0,0,1,0-.15.32.32,0,0,1,.26-.23h.1a.24.24,0,0,1,.24.15c.12.3.5,1.16,1.12,2.6l.86,2,1.25-5.26a.44.44,0,0,1,0-.1.36.36,0,0,1,.27-.21.22.22,0,0,1,.16,0,.3.3,0,0,1,.24.24c0,.08,0,.18,0,.29C247.92,143.21,248.07,145.1,248.08,145.52Z"/><path class="cls-3" d="M250.4,145c0,.24-.08.37-.26.41a.31.31,0,0,1-.19,0,.4.4,0,0,1-.23-.32l-.44-5.9a.57.57,0,0,1,0-.13.31.31,0,0,1,.26-.27.33.33,0,0,1,.17,0,.32.32,0,0,1,.23.23Q250.4,144.83,250.4,145Z"/><path class="cls-3" d="M255.71,144.37l-2.8.59a.31.31,0,0,1-.19,0,.51.51,0,0,1-.23-.32h0c0-.12-.17-2.08-.44-5.91a.49.49,0,0,1,0-.12.31.31,0,0,1,.26-.27.29.29,0,0,1,.16,0,.31.31,0,0,1,.24.25c0,.26.07.8.14,1.62.19,2.51.3,3.84.32,4l2.38-.5h.18a.3.3,0,0,1,.28.26.45.45,0,0,1,0,.11C256,144.2,255.89,144.3,255.71,144.37Z"/><path class="cls-3" d="M256.11,137.44l2.67-.57a.45.45,0,0,1,.16,0,.33.33,0,0,1,.3.27.28.28,0,0,1,0,.13.4.4,0,0,1-.29.29l-2.4.51.17,2.34,1.73-.37h.2a.32.32,0,0,1,.27.27.24.24,0,0,1,0,.12.41.41,0,0,1-.29.3l-1.84.38.17,2.19,2.38-.5a.37.37,0,0,1,.18,0,.32.32,0,0,1,.28.27.37.37,0,0,1,0,.11.41.41,0,0,1-.29.31l-2.78.58a.34.34,0,0,1-.2,0,.43.43,0,0,1-.24-.32s-.16-2-.46-5.9a.48.48,0,0,1,0-.12A.31.31,0,0,1,256.11,137.44Z"/><path class="cls-3" d="M264,135.8a.33.33,0,0,1,.17,0,.36.36,0,0,1,.24.25q.45,5.58.48,6a3.74,3.74,0,0,1-.28,1.66,2.26,2.26,0,0,1-1.67,1.31A2.45,2.45,0,0,1,262,145a2,2,0,0,1-1.17-.66.46.46,0,0,1-.07-.16.33.33,0,0,1,0-.17.32.32,0,0,1,.25-.23.34.34,0,0,1,.29.08,1.82,1.82,0,0,0,1.6.52,1.45,1.45,0,0,0,1-.8,3.18,3.18,0,0,0,.24-1.89,1.66,1.66,0,0,1-.32.52,1.64,1.64,0,0,1-.93.54l-.19,0a1.54,1.54,0,0,1-1.23-.54,3.59,3.59,0,0,1-.86-1.77c-.07-.34-.13-.69-.17-1.06-.07-.58-.11-1.41-.13-2.49a.21.21,0,0,1,0-.11.31.31,0,0,1,.25-.29.33.33,0,0,1,.17,0,.29.29,0,0,1,.22.23,10.86,10.86,0,0,1,.12,1.31,18.07,18.07,0,0,0,.19,2,4,4,0,0,0,.57,1.47c.29.42.61.59,1,.51l.11,0a1.49,1.49,0,0,0,.7-.84,4.35,4.35,0,0,0,.37-1.7l-.25-3.28a.38.38,0,0,1,0-.15A.31.31,0,0,1,264,135.8Z"/><path class="cls-6" d="M241.24,96.68c1.9,2.58,1.2,6.24-.06,9.19s-3,5.85-3,9.06c0,3,1.54,5.8,2.72,8.59s2,6.09.57,8.76c-1.55,2.9-5.35,4.25-6.42,7.36-1.28,3.7,2,8.1.06,11.52-1.3,2.35-4.7,3-7.07,1.68a8.64,8.64,0,0,1-4.05-6.61,23.71,23.71,0,0,1,.78-8c.85-3.79,1.7-8.12-.57-11.27-1.34-1.85-3.64-3-4.38-5.2-.88-2.56.83-5.27,2.75-7.19s4.24-3.67,5-6.26a11.28,11.28,0,0,0-.31-6.11,19.4,19.4,0,0,1-1-6.1c.14-2.06,1.29-4.22,3.26-4.84,2.77-.88,5.42,1.51,7.36,3.68"/><path class="cls-6" d="M215.41,193.22c0,.73,32.41,0,32.41,0l1.27-7.92-25.85-7.75S215.74,186.67,215.41,193.22Z"/><path class="cls-6" d="M249.09,185.33l24.34-5.59s6.63,11.31,5.33,22l-30.94-8.54Z"/><path class="cls-6" d="M252.18,191.76a13.49,13.49,0,0,1,7,12.3c-.08,1.59-.45,3.15-.42,4.73a5.24,5.24,0,0,0,1.81,4.21c1.32,1,3.51,1.29,3.67,2.92a2.84,2.84,0,0,1-.75,1.9c-1.42,1.82-3.75,3.21-6,2.59-2.46-.7-3.64-3.46-4.3-5.93-2-7.63-2.23-15.61-2.43-23.51"/><g class="cls-9"><path d="M252.77,192.1a12.48,12.48,0,0,1,6.4,12c-.08,1.59-.45,3.15-.42,4.73a5.24,5.24,0,0,0,1.81,4.21c1.32,1,3.51,1.29,3.67,2.92a2.84,2.84,0,0,1-.75,1.9c-1.42,1.82-3.75,3.21-6,2.59-2.46-.7-3.64-3.46-4.3-5.93-2-7.63-1.27-13.13-1.47-21"/></g><path class="cls-6" d="M245.78,191.59a47.12,47.12,0,0,0-2,33.69,6.44,6.44,0,0,0,2.06,3.43c1.79,1.26,4.25.54,6.3-.23,2.63-1,5.55-2.24,6.54-4.87a7,7,0,0,0-.05-4.51c-.88-2.92-2.85-5.45-3.51-8.43-.59-2.68-.07-5.48-.21-8.22A17.12,17.12,0,0,0,248.48,190"/><g class="cls-9"><path d="M245.09,192.5a4,4,0,0,0,2,2.74,3.45,3.45,0,0,0,3.37-.11,3,3,0,0,0,1.37-3,5,5,0,0,1-7,0"/></g><path class="cls-6" d="M253.12,188.38c-.77-2.17-3.55-4.28-5.83-4l.05,0a4,4,0,0,0-3.34,1.92,5.63,5.63,0,0,0,6.59,7.72A4.63,4.63,0,0,0,253.12,188.38Z"/><path class="cls-4" d="M244.48,192.22a5.74,5.74,0,0,1,1.08.65,6.72,6.72,0,0,0,3.1,1.2,4.15,4.15,0,0,0,2.21-.37,3.31,3.31,0,0,0,1.61-1.89,5.76,5.76,0,0,0-1-5.62,5.06,5.06,0,0,0-5.39-1.53,4.61,4.61,0,0,0-3,3.52,4.51,4.51,0,0,0,.73,3.17c.45.66.84.91.8,1s-.11,0-.29-.16a3.46,3.46,0,0,1-.67-.67,4.55,4.55,0,0,1-.93-3.34,4.94,4.94,0,0,1,3.22-3.92,5.51,5.51,0,0,1,6,1.64,6.2,6.2,0,0,1,1.07,6.13,3.76,3.76,0,0,1-1.87,2.11,4.45,4.45,0,0,1-2.44.35,6.38,6.38,0,0,1-3.17-1.41A5.39,5.39,0,0,1,244.48,192.22Z"/><path class="cls-4" d="M248.46,184.33c0,.06-.45.41-1,1.15a6.43,6.43,0,0,0-.89,6.84c.38.86.77,1.32.7,1.38s-.53-.35-1-1.22a6.07,6.07,0,0,1,1-7.25C247.85,184.52,248.43,184.27,248.46,184.33Z"/><path class="cls-4" d="M258.39,217.31s-.07.25-.28.65a11.7,11.7,0,0,1-1.05,1.61,16.84,16.84,0,0,1-4.74,4.17,16.65,16.65,0,0,1-6,2.09,10.18,10.18,0,0,1-1.91.12c-.45,0-.7,0-.7-.07s1-.11,2.55-.42a18.32,18.32,0,0,0,10.48-6.13C257.8,218.13,258.31,217.27,258.39,217.31Z"/><path class="cls-4" d="M250.26,229.16c0,.13-1.11-.34-1.75-1.54a2.59,2.59,0,0,1-.34-2.31c.15,0,.21,1,.79,2.07S250.34,229,250.26,229.16Z"/><path class="cls-4" d="M255,226.25c0,.14-1.07-.14-1.74-1.2s-.53-2.12-.39-2.09.23.91.82,1.81S255.05,226.11,255,226.25Z"/><path class="cls-4" d="M257.74,225.17a15.75,15.75,0,0,0-.59-2.24c-.51-1.18-1.08-2.11-.94-2.2a4.25,4.25,0,0,1,1.42,2,3.92,3.92,0,0,1,.34,1.74C257.94,224.93,257.81,225.19,257.74,225.17Z"/><path class="cls-4" d="M251.62,217.33a3.44,3.44,0,0,1-.45-.79,21.4,21.4,0,0,1-1-2.25,35.5,35.5,0,0,1-2.14-16,23.36,23.36,0,0,1,.35-2.44,2.6,2.6,0,0,1,.23-.87c.08,0-.1,1.28-.21,3.34a43.46,43.46,0,0,0,.3,8,42.79,42.79,0,0,0,1.82,7.81C251.19,216.12,251.7,217.29,251.62,217.33Z"/><g class="cls-9"><path d="M248.41,195.81a26.69,26.69,0,0,0,0,17.58,1,1,0,0,0,.52.73.72.72,0,0,0,.84-.54,2.11,2.11,0,0,0-.07-1.11c-1.23-5.15-2.15-11.31-1.22-16.52"/></g><path class="cls-4" d="M228.42,186.5a7.4,7.4,0,0,1,2.09-.24,31.06,31.06,0,0,1,5.08.26,31.65,31.65,0,0,1,5,1.06,7,7,0,0,1,2,.77c0,.15-3.1-.82-7-1.32S228.43,186.66,228.42,186.5Z"/><path class="cls-4" d="M263.34,186.71c0,.16-2.34.38-5.18,1s-5.09,1.26-5.14,1.11a17,17,0,0,1,5-1.63A16.66,16.66,0,0,1,263.34,186.71Z"/><path class="cls-4" d="M273.33,193.78a26.25,26.25,0,0,1-2.94-1,62.91,62.91,0,0,0-7.17-2.08,64.17,64.17,0,0,0-7.38-1.17,26.42,26.42,0,0,1-3.09-.32,13.85,13.85,0,0,1,3.12,0,45,45,0,0,1,14.65,3.27A14.52,14.52,0,0,1,273.33,193.78Z"/><g class="cls-9"><path d="M264.25,182c.54,8.45,5.29,14.81,12.45,19.32l2.06.51c.17-.33-.1-1.2-.22-1.54A87.18,87.18,0,0,0,273.11,188c-1-1.78-1.41-6.12-2.88-7.51l-6,1.49"/></g><path class="cls-5" d="M245.79,230.4c.14,0-.92,7.44-2.37,16.56s-2.73,16.5-2.88,16.48.92-7.44,2.37-16.56S245.65,230.37,245.79,230.4Z"/><path class="cls-7" d="M231,185.88s-.28-.22-.46-.73a4.07,4.07,0,0,1,.85-4c.38-.39.68-.53.72-.48a9.67,9.67,0,0,0-1.16,2.45A9.25,9.25,0,0,0,231,185.88Z"/><path class="cls-7" d="M233.43,193.29s-.39-.17-.72-.71a3.4,3.4,0,0,1-.43-2.41,3.44,3.44,0,0,1,1.29-2.08c.51-.38.91-.45.93-.39s-.29.26-.69.67a3.78,3.78,0,0,0-1,1.9,3.71,3.71,0,0,0,.25,2.14C233.26,192.94,233.49,193.23,233.43,193.29Z"/><path class="cls-7" d="M241.33,193.18s-.34-.06-.69-.45a3,3,0,0,1-.68-1.86,3,3,0,0,1,.6-1.89c.33-.4.63-.53.67-.48s-.16.29-.36.68a3.47,3.47,0,0,0-.39,1.68,3.55,3.55,0,0,0,.46,1.66C241.17,192.9,241.38,193.11,241.33,193.18Z"/><path class="cls-7" d="M221.63,193.45a6.75,6.75,0,0,1-.41-2.31,15.45,15.45,0,0,1,3.47-10.62,6.66,6.66,0,0,1,1.7-1.62c.06.07-.57.7-1.41,1.85a18.2,18.2,0,0,0-2.52,4.92,17.74,17.74,0,0,0-.87,5.46C221.58,192.55,221.72,193.44,221.63,193.45Z"/><path class="cls-7" d="M237.83,188.21s-.33-.17-.59-.68a3.43,3.43,0,0,1,.93-4c.45-.34.8-.4.83-.35s-.25.25-.58.62a4,4,0,0,0-.88,1.69,3.87,3.87,0,0,0,.05,1.91C237.73,187.87,237.9,188.15,237.83,188.21Z"/><path class="cls-7" d="M260.32,186.49c-.15,0,0-.87-.15-1.87s-.49-1.76-.36-1.84.73.64.88,1.77S260.45,186.55,260.32,186.49Z"/><path class="cls-7" d="M262.18,189.87c-.06.12-.76-.21-1-1.06s.09-1.53.22-1.46.05.64.28,1.3S262.26,189.75,262.18,189.87Z"/><path class="cls-7" d="M265.63,198.16c-.18,0,.45-1.6.31-3.52s-1-3.35-.88-3.43a6,6,0,0,1,.57,6.95Z"/><path class="cls-7" d="M248.44,206.76c0,.05-.26.34-.86.61a5.45,5.45,0,0,1-4.93-.24c-.56-.34-.83-.65-.79-.7a7.84,7.84,0,0,0,6.58.33Z"/><path class="cls-7" d="M254.27,201.64a9.56,9.56,0,0,0-3.1-.3,9.41,9.41,0,0,0-2.89,1.15s.15-.37.63-.76a4.78,4.78,0,0,1,2.19-.91,4.58,4.58,0,0,1,2.35.27C254,201.32,254.3,201.58,254.27,201.64Z"/><path class="cls-7" d="M250.19,215c.06,0-.1.51-.58,1.18a6.75,6.75,0,0,1-2.47,2,6.64,6.64,0,0,1-3.1.68,2.35,2.35,0,0,1-1.29-.27,11.44,11.44,0,0,0,4.17-.88A11.21,11.21,0,0,0,250.19,215Z"/><path class="cls-7" d="M255.42,212a26.49,26.49,0,0,0-2.89.36,27.63,27.63,0,0,0-2.69,1.16,3.92,3.92,0,0,1,2.55-1.66A3.87,3.87,0,0,1,255.42,212Z"/><path class="cls-7" d="M215.92,193.41a3.4,3.4,0,0,1-1.38-2.26,3.34,3.34,0,0,1,.17-2.63c.15,0,0,1.17.34,2.51S216,193.31,215.92,193.41Z"/><path class="cls-10" d="M379.43,142.46a5.67,5.67,0,0,1-1.5-3.56,15.26,15.26,0,0,0-.69-3.87,2.65,2.65,0,0,0-.84-1.19,1.4,1.4,0,0,0-1.4-.22,1.52,1.52,0,0,0-.79,1.33,54.61,54.61,0,0,0,.55,5.58Z"/><path class="cls-11" d="M379.43,142.46s-.38-.15-1.2-.43-2.07-.71-3.56-1.3l-.1,0,0-.09a30,30,0,0,1-.41-3.07c0-.55-.09-1.11-.14-1.69,0-.29-.05-.57-.05-.91a2.15,2.15,0,0,1,.3-1,1.46,1.46,0,0,1,1.19-.7,1.85,1.85,0,0,1,1.23.46,4,4,0,0,1,1.06,2c.32,1.4.3,2.65.46,3.67a6.16,6.16,0,0,0,1.24,3s-.1-.08-.2-.13a2.72,2.72,0,0,1-.47-.51,5.84,5.84,0,0,1-.93-2.34c-.22-1-.23-2.31-.57-3.61a3.46,3.46,0,0,0-.93-1.76,1.05,1.05,0,0,0-1.64.13,2.46,2.46,0,0,0-.18,1.57l.13,1.68c.1,1.07.17,2.14.32,3l-.12-.14c1.34.57,2.41,1.12,3.24,1.5Z"/><circle class="cls-6" cx="322.49" cy="161" r="58" transform="translate(85.86 432.89) rotate(-75.5)"/><g class="cls-9"><path d="M376.06,154.74c.69,0,1.48,1.49,2,4.43a37.75,37.75,0,0,1-.18,12.61c-.17,1.34-.54,2.7-.86,4.14s-.84,2.88-1.33,4.4a56.47,56.47,0,0,1-4.27,9.24A54,54,0,0,1,334,215.93a57.14,57.14,0,0,1-10.14.91,52,52,0,0,1-8.78-.82,37.51,37.51,0,0,1-11.92-4.08c-2.59-1.5-3.76-2.77-3.49-3.41.6-1.46,6.63.22,16.08.16a70.69,70.69,0,0,0,7.65-.48,64.82,64.82,0,0,0,8.53-1.65,53.78,53.78,0,0,0,31.38-22.11,65.33,65.33,0,0,0,4.44-7.47c.57-1.24,1.17-2.43,1.67-3.61s1-2.31,1.35-3.43C374,161.06,374.48,154.81,376.06,154.74Z"/></g><g class="cls-9"><path class="cls-3" d="M320,107c0,.2-1.27.26-3.52.43a56.21,56.21,0,0,0-9.34,1.5,50.06,50.06,0,0,0-12.92,5.17,46.57,46.57,0,0,0-21.36,25.49,52.94,52.94,0,0,0-2,7.18,54.32,54.32,0,0,0-.84,6.44,55.53,55.53,0,0,0,.16,9.47c.22,2.23.38,3.49.19,3.54s-.65-1.14-1.19-3.38a40.34,40.34,0,0,1-1-9.7,49.19,49.19,0,0,1,.56-6.75,50.56,50.56,0,0,1,1.83-7.57A46.28,46.28,0,0,1,293,112a46.82,46.82,0,0,1,13.68-4.87,40.63,40.63,0,0,1,9.73-.71C318.73,106.55,320,106.83,320,107Z"/></g><g class="cls-9"><path class="cls-3" d="M274.92,180.37c-.58.4-2.28-1.13-3.16-3.68s-.49-4.81.22-4.86,1.47,1.8,2.25,4S275.54,180,274.92,180.37Z"/></g><path class="cls-3" d="M340,153.36a4.94,4.94,0,0,1-.77,1.53,18.62,18.62,0,0,1-3,3.59,21.71,21.71,0,0,1-28.45,1.42,19.21,19.21,0,0,1-3.31-3.28,4.66,4.66,0,0,1-.91-1.45c.15-.13,1.53,1.91,4.66,4.14a22.86,22.86,0,0,0,6,3,21.23,21.23,0,0,0,15.94-.79,23.41,23.41,0,0,0,5.62-3.62C338.64,155.4,339.81,153.24,340,153.36Z"/><path class="cls-3" d="M358.24,145.21c-.2,0-.23-1.77-1.74-4a10.54,10.54,0,0,0-3.38-3.19,8.79,8.79,0,0,0-10.56.8,10.51,10.51,0,0,0-2.86,3.67c-1.16,2.45-.91,4.25-1.12,4.24-.06,0-.18-.42-.2-1.22a8.68,8.68,0,0,1,.64-3.32,10.68,10.68,0,0,1,2.92-4.1,9.43,9.43,0,0,1,11.68-.89,10.66,10.66,0,0,1,3.5,3.62,8.6,8.6,0,0,1,1.14,3.18C358.36,144.77,358.3,145.21,358.24,145.21Z"/><path class="cls-3" d="M302.77,147.09c-.2,0-.23-1.77-1.74-4a10.71,10.71,0,0,0-3.39-3.2,8.81,8.81,0,0,0-10.55.8,10.54,10.54,0,0,0-2.87,3.67c-1.15,2.46-.91,4.26-1.11,4.25s-.18-.42-.21-1.22a8.86,8.86,0,0,1,.65-3.32,10.6,10.6,0,0,1,2.91-4.11,9.48,9.48,0,0,1,11.69-.89,10.66,10.66,0,0,1,3.5,3.62,8.88,8.88,0,0,1,1.14,3.19C302.88,146.65,302.83,147.09,302.77,147.09Z"/><path class="cls-10" d="M380.77,138.28c-2,2.27-4.08,4.39-5.87,6.8-.45.61-.92,1.41-.56,2.08a1.36,1.36,0,0,0,1.36.62,3.15,3.15,0,0,0,1.43-.65c2.21-1.57,3.67-4,5.08-6.29a2.48,2.48,0,0,0,.5-2.17,1.28,1.28,0,0,0-1.94-.39"/><path class="cls-11" d="M380.77,138.28s.24-.44,1-.38a1.33,1.33,0,0,1,1.08.76,2.14,2.14,0,0,1-.19,1.73,36.51,36.51,0,0,1-2.28,3.71,12.15,12.15,0,0,1-3.88,3.71A2.08,2.08,0,0,1,375,148a1.36,1.36,0,0,1-1-1.18,2.24,2.24,0,0,1,.41-1.38,11.87,11.87,0,0,1,.75-1c1-1.28,2-2.36,2.85-3.26s1.45-1.53,2-2.11a4.56,4.56,0,0,1,.78-.73,3.43,3.43,0,0,1-.63.87c-.43.53-1.09,1.29-1.89,2.21s-1.76,2-2.74,3.32c-.47.63-1.08,1.33-1,2.06a.86.86,0,0,0,.66.73,1.59,1.59,0,0,0,1.16-.13,12.17,12.17,0,0,0,3.71-3.52c.95-1.3,1.73-2.56,2.34-3.59a1.83,1.83,0,0,0,.25-1.46,1.08,1.08,0,0,0-.84-.66A1.52,1.52,0,0,0,380.77,138.28Z"/><path class="cls-10" d="M382.14,141.74c-1.82,2.39-3.79,4.64-5.42,7.17-.41.64-.82,1.46-.42,2.11a1.38,1.38,0,0,0,1.4.53,3.05,3.05,0,0,0,1.38-.74c2.1-1.72,3.41-4.2,4.66-6.61a2.46,2.46,0,0,0,.35-2.2,1.27,1.27,0,0,0-1.95-.26"/><path class="cls-11" d="M382.14,141.74s.21-.45,1-.44a1.3,1.3,0,0,1,1.13.68,2.13,2.13,0,0,1-.08,1.74,36.87,36.87,0,0,1-2,3.85,12.14,12.14,0,0,1-3.63,4,2.06,2.06,0,0,1-1.52.26,1.4,1.4,0,0,1-1.09-1.1,2.4,2.4,0,0,1,.32-1.41,11,11,0,0,1,.69-1.07c.92-1.35,1.84-2.5,2.62-3.45l1.88-2.23a4.26,4.26,0,0,1,.73-.78,3.83,3.83,0,0,1-.57.91c-.4.56-1,1.35-1.75,2.33s-1.62,2.14-2.52,3.48c-.42.67-1,1.41-.89,2.13a.85.85,0,0,0,.7.69,1.61,1.61,0,0,0,1.15-.21,12.23,12.23,0,0,0,3.47-3.76c.86-1.35,1.56-2.66,2.1-3.73a1.82,1.82,0,0,0,.15-1.47,1.07,1.07,0,0,0-.88-.61A1.44,1.44,0,0,0,382.14,141.74Z"/><path class="cls-10" d="M383.34,146.38c-1.39,1.83-2.9,3.56-4.14,5.49-.32.49-.63,1.12-.33,1.62a1,1,0,0,0,1.07.4,2.42,2.42,0,0,0,1.06-.56,15.54,15.54,0,0,0,3.57-5.06,1.9,1.9,0,0,0,.27-1.69,1,1,0,0,0-1.5-.2"/><path class="cls-11" d="M383.34,146.38s.15-.36.76-.36a1,1,0,0,1,.89.54,1.66,1.66,0,0,1-.05,1.36,27.89,27.89,0,0,1-1.55,3,9.31,9.31,0,0,1-2.8,3.05,1.65,1.65,0,0,1-1.2.2,1.12,1.12,0,0,1-.88-.9,3,3,0,0,1,.78-1.94c.71-1,1.42-1.9,2-2.63a22.16,22.16,0,0,1,2-2.28,15.35,15.35,0,0,1-1.74,2.51c-.56.75-1.23,1.64-1.91,2.67-.33.51-.75,1.08-.68,1.59s.8.66,1.33.32a9.42,9.42,0,0,0,2.65-2.85c.65-1,1.19-2,1.61-2.84a1.34,1.34,0,0,0,.12-1.1.81.81,0,0,0-.64-.46A1.35,1.35,0,0,0,383.34,146.38Z"/></g><g id="Plant"><path class="cls-6" d="M73.31,366.68c-8,2.81-18.53.3-25.41-4.72s-11.83-12.22-16.22-19.53c-1.87-3.11-3.7-6.36-4.29-9.95s.28-7.62,3.06-10c4.32-3.64,11-1.79,15.86,1a54.68,54.68,0,0,1,27,43.16"/><path class="cls-6" d="M64.68,385.93c-4.83,6.37-13.13,9.21-21.12,9.58s-15.88-1.84-23.34-4.7c-2.71-1-5.67-2.47-6.6-5.22A6.6,6.6,0,0,1,15,379.45a13.8,13.8,0,0,1,5.39-3.68c7.35-3.13,15.77-3.27,23.5-1.27S58.4,381,64.68,385.93"/><path class="cls-6" d="M73.43,332.23c-6.66.13-11.7-5.7-14.71-11.64a43.17,43.17,0,0,1-4-26.89c.61-3.4,1.9-7.07,4.94-8.71s7.12-.56,9.72,1.8,4,5.75,5,9.11c3.57,11.56,2.8,24.85-1,36.33"/><path class="cls-6" d="M95.3,369.05C84,349.73,82.06,326.1,88.76,304.72c1.09-3.47,3.14-7.44,6.77-7.67,4-.25,6.53,4.22,7.64,8.09,3.89,13.58,3.07,28,2.2,42.1-.53,8.68-3.51,16.1-10.07,21.81"/><path class="cls-6" d="M107.1,377a46.42,46.42,0,0,1,27.55-29.21c3-1.14,6.84-1.78,9.09.52s1.53,6.05.11,8.87c-2.28,4.56-6,8.23-9.69,11.75-3.36,3.2-6.86,6.41-11.11,8.27s-12.06,2.33-16-.2"/><path class="cls-4" d="M36.73,327.37l.2.17.61.48,2.38,1.78,1.72,1.27c.62.48,1.27,1,2,1.61,1.41,1.18,3.07,2.44,4.74,4L51,339.14c.93.85,1.82,1.81,2.78,2.76,2,1.88,3.85,4.07,5.89,6.34a137.29,137.29,0,0,1,11.7,15.95,136.62,136.62,0,0,1,9,17.61c1.12,2.83,2.23,5.51,3,8.09.42,1.29.88,2.52,1.23,3.73s.66,2.37,1,3.48c.67,2.2,1.06,4.25,1.48,6,.2.9.4,1.73.56,2.5l.36,2.11c.23,1.23.4,2.21.53,2.92l.15.76a1.23,1.23,0,0,0,.07.26.79.79,0,0,0,0-.27c0-.2-.06-.45-.1-.76-.11-.72-.25-1.7-.43-2.95-.1-.64-.21-1.35-.32-2.12s-.33-1.61-.52-2.51c-.39-1.79-.76-3.85-1.41-6.07-.3-1.12-.62-2.28-1-3.5s-.79-2.45-1.2-3.75c-.79-2.6-1.9-5.29-3-8.14a135,135,0,0,0-9-17.7,135.47,135.47,0,0,0-11.79-16c-2.06-2.26-4-4.45-5.94-6.32-1-.95-1.88-1.91-2.81-2.75l-2.71-2.42c-1.69-1.57-3.38-2.82-4.8-4-.72-.57-1.38-1.11-2-1.58L40,329.63l-2.44-1.7L37,327.5C36.81,327.4,36.73,327.36,36.73,327.37Z"/><path class="cls-4" d="M21.7,380.92a6.39,6.39,0,0,0,.78-.13c.5-.09,1.24-.29,2.21-.45a62.12,62.12,0,0,1,8.21-1,61.15,61.15,0,0,1,26.69,4.49,61.23,61.23,0,0,1,22,15.77,60.33,60.33,0,0,1,5.08,6.54c.57.8,1,1.46,1.24,1.89a4.2,4.2,0,0,0,.46.64A3.79,3.79,0,0,0,88,408c-.26-.44-.61-1.12-1.15-1.94a55.89,55.89,0,0,0-5-6.68,60,60,0,0,0-22.08-16A59.77,59.77,0,0,0,32.88,379a55.08,55.08,0,0,0-8.24,1.17c-1,.2-1.69.43-2.19.55A3.79,3.79,0,0,0,21.7,380.92Z"/><path class="cls-4" d="M63.62,292.71a1,1,0,0,0,0,.3l.18.86.75,3.33c.65,2.89,1.65,7.05,2.9,12.19,2.5,10.29,6.14,24.45,9.92,40.14,1.88,7.85,3.59,15.35,5,22.19s2.67,13,3.59,18.23c.49,2.6.86,5,1.2,7s.64,3.86.85,5.33.4,2.56.52,3.36l.15.88a1.48,1.48,0,0,0,.07.29,1,1,0,0,0,0-.3c0-.23-.06-.52-.1-.88l-.42-3.38c-.19-1.47-.43-3.27-.76-5.34s-.66-4.45-1.13-7.06c-.87-5.22-2.06-11.41-3.47-18.26s-3.14-14.36-5-22.22c-3.78-15.7-7.48-29.84-10.07-40.1-1.29-5.1-2.34-9.24-3.07-12.15-.36-1.4-.64-2.51-.84-3.3-.1-.35-.18-.63-.24-.86S63.63,292.7,63.62,292.71Z"/><path class="cls-4" d="M89.68,405.29a1,1,0,0,0,.07-.24c0-.18.1-.41.16-.69.14-.66.33-1.56.56-2.69.48-2.34,1.12-5.73,1.85-9.93,1.45-8.41,3.18-20.08,4.24-33.06.51-6.5.8-12.7.93-18.34s0-10.72-.14-15c0-2.13-.19-4.06-.28-5.75s-.21-3.14-.32-4.33-.19-2.07-.25-2.74c0-.28-.06-.52-.08-.71a2.26,2.26,0,0,0,0-.24.62.62,0,0,0,0,.25c0,.19,0,.42,0,.71,0,.67.09,1.59.15,2.74s.17,2.65.23,4.34.18,3.61.21,5.75c.12,4.25.13,9.33,0,15s-.45,11.82-1,18.3c-1.06,13-2.73,24.63-4.09,33-.68,4.21-1.26,7.61-1.67,10-.2,1.14-.35,2-.46,2.71,0,.28-.08.51-.11.7A.94.94,0,0,0,89.68,405.29Z"/><path class="cls-4" d="M88.84,407.74a3.24,3.24,0,0,0,.3-.67l.75-1.94.53-1.4c.22-.51.47-1.05.73-1.64l.83-1.87c.29-.67.67-1.34,1-2.06l1.16-2.25c.45-.76.91-1.56,1.38-2.38.91-1.66,2.09-3.32,3.23-5.12a120.94,120.94,0,0,1,8.55-10.93,137.63,137.63,0,0,1,9.81-9.82c1.63-1.37,3.13-2.75,4.64-3.9l2.14-1.71,2-1.51c1.29-1,2.5-1.79,3.57-2.51s2-1.34,2.75-1.8l1.76-1.12a3.16,3.16,0,0,0,.59-.42,5.15,5.15,0,0,0-.64.33l-1.82,1c-.79.44-1.73,1-2.81,1.73s-2.31,1.49-3.62,2.45l-2.07,1.49-2.17,1.69c-1.53,1.14-3,2.51-4.69,3.88a126.9,126.9,0,0,0-9.88,9.84,117.19,117.19,0,0,0-8.56,11c-1.13,1.82-2.3,3.5-3.2,5.18l-1.36,2.4L92.67,398c-.35.73-.72,1.41-1,2.08s-.55,1.31-.8,1.91-.48,1.14-.69,1.65l-.49,1.43c-.27.82-.49,1.48-.65,2A3.37,3.37,0,0,0,88.84,407.74Z"/><path class="cls-4" d="M40.94,349.77a33.94,33.94,0,0,0,3.58.21,65.87,65.87,0,0,1,8.57,1,67.36,67.36,0,0,1,8.35,2.17c2.11.7,3.38,1.2,3.42,1.13a3.28,3.28,0,0,0-.86-.47c-.56-.27-1.39-.62-2.43-1a50.38,50.38,0,0,0-8.38-2.35,51.82,51.82,0,0,0-8.65-.89c-1.12,0-2,0-2.64,0A4.23,4.23,0,0,0,40.94,349.77Z"/><path class="cls-4" d="M32.37,391.6c.17.08,1.45-3.62,4.68-7.05a32.14,32.14,0,0,1,6.68-5.18,7.84,7.84,0,0,0-2.31,1,20.27,20.27,0,0,0-8.2,8.83A8.52,8.52,0,0,0,32.37,391.6Z"/><path class="cls-4" d="M61.57,308.39c-.1.11,2,2.19,4.27,5s3.9,5.27,4,5.18a23.26,23.26,0,0,0-3.62-5.51A23.11,23.11,0,0,0,61.57,308.39Z"/><path class="cls-4" d="M68.43,296.55a40.05,40.05,0,0,0-1.54,9.05,20,20,0,0,0,1-4.48A19.77,19.77,0,0,0,68.43,296.55Z"/><path class="cls-4" d="M89.67,333.71a55.1,55.1,0,0,0,3.32,7,56.24,56.24,0,0,0,3.8,6.75,56.1,56.1,0,0,0-3.33-7A55.45,55.45,0,0,0,89.67,333.71Z"/><path class="cls-4" d="M102.31,321.09a30.72,30.72,0,0,0-2.82,5.06,32,32,0,0,0-2.34,5.3,31.61,31.61,0,0,0,2.82-5.06A32,32,0,0,0,102.31,321.09Z"/><path class="cls-4" d="M120.88,364.25c0,.15,2.29-.29,5.1-.48s5.1-.09,5.11-.25a14.49,14.49,0,0,0-5.15-.29A14.44,14.44,0,0,0,120.88,364.25Z"/><path class="cls-4" d="M108.18,402l-6.31,33.21A4.66,4.66,0,0,1,97.29,439H78.64a4.67,4.67,0,0,1-4.6-3.9L68.55,402Z"/><polygon class="cls-5" points="106.47 413 70.11 413 68.18 402 108.56 402 106.47 413"/><polygon class="cls-7" points="106.42 413 105.66 417 70.72 417 70.16 413 106.42 413"/></g><g id="Smiley_Faces" data-name="Smiley Faces"><circle class="cls-6" cx="159.49" cy="40" r="40"/><g class="cls-9"><path d="M196.6,35.89c.34,0,.76,1,1,3a28.29,28.29,0,0,1-.42,8.55,36.69,36.69,0,0,1-1.59,5.76,39.76,39.76,0,0,1-3,6.22,37.17,37.17,0,0,1-25.3,17.82,40.32,40.32,0,0,1-6.86.7,37.7,37.7,0,0,1-6-.44,28,28,0,0,1-8.19-2.49c-1.8-.92-2.66-1.67-2.53-2,.3-.76,4.4.66,11,.81a46.35,46.35,0,0,0,5.4-.2,44.17,44.17,0,0,0,6.05-1.08,37,37,0,0,0,22.27-15.68,43.26,43.26,0,0,0,3.05-5.34,45.92,45.92,0,0,0,2-5C195.73,40.26,195.78,35.92,196.6,35.89Z"/></g><g class="cls-9"><path class="cls-3" d="M157.82,2.88c0,.44-3.52.23-8.83,1.61a35.66,35.66,0,0,0-8.81,3.62,32.3,32.3,0,0,0-14.6,17.42,36,36,0,0,0-2,9.31c-.43,5.46.39,8.88,0,9-.16,0-.55-.76-1-2.3a26.67,26.67,0,0,1-.82-6.75,32.6,32.6,0,0,1,1.59-10A32.05,32.05,0,0,1,139,6a32.44,32.44,0,0,1,9.58-3.32,26.47,26.47,0,0,1,6.78-.37C157,2.47,157.83,2.71,157.82,2.88Z"/></g><g class="cls-9"><path class="cls-3" d="M126.69,53.61c-.59.39-1.94-.6-2.57-2.42s-.18-3.44.53-3.49,1.42,1.16,1.94,2.64S127.3,53.21,126.69,53.61Z"/></g><path class="cls-3" d="M171.66,34.93c.09,0-.53,1.68-2.51,3.63a14.9,14.9,0,0,1-19.81,1c-2.16-1.75-2.94-3.32-2.85-3.36s1.13,1.26,3.29,2.77a15.15,15.15,0,0,0,18.88-1C170.66,36.3,171.5,34.83,171.66,34.93Z"/><path class="cls-3" d="M143.26,26.82a3.62,3.62,0,0,0-3.64-1.92,2.36,2.36,0,0,0-1.24.42.05.05,0,0,1,0,0h0a3.9,3.9,0,0,0-1.46,3.76,3.51,3.51,0,0,0,4.46,2.53A3.61,3.61,0,0,0,143.26,26.82Z"/><path class="cls-3" d="M181.39,26.94A3.63,3.63,0,0,0,177.75,25a2.33,2.33,0,0,0-1.24.42l0,0h0A3.94,3.94,0,0,0,175,29.22a3.51,3.51,0,0,0,4.47,2.53A3.61,3.61,0,0,0,181.39,26.94Z"/><circle class="cls-6" cx="124.49" cy="222" r="35" transform="translate(-120.18 292.15) rotate(-76.72)"/><g class="cls-9"><path d="M156.93,218.55c.52,0,1.1.88,1.53,2.67a21.62,21.62,0,0,1,.12,7.7,31.09,31.09,0,0,1-3.81,10.92A32.55,32.55,0,0,1,131.83,256a31.12,31.12,0,0,1-11.57-.09,21.32,21.32,0,0,1-7.21-2.71c-1.54-1-2.21-1.86-2-2.34.44-1.07,4.12-.26,9.71-.45a40,40,0,0,0,9.51-1.44,32.47,32.47,0,0,0,18.41-13,39.83,39.83,0,0,0,4.55-8.47C155.29,222.34,155.77,218.61,156.93,218.55Z"/></g><g class="cls-9"><path class="cls-3" d="M123.23,189.86c0,.43-3.06.29-7.65,1.52a31.2,31.2,0,0,0-7.6,3.16,29.66,29.66,0,0,0-7.67,6.39,29.28,29.28,0,0,0-5,8.66,31.1,31.1,0,0,0-1.78,8c-.41,4.72.26,7.7-.16,7.79-.27.1-1.62-2.8-1.68-7.87a28,28,0,0,1,1.35-8.74,27.84,27.84,0,0,1,13.73-16.38,28,28,0,0,1,8.37-2.86C120.19,188.75,123.28,189.58,123.23,189.86Z"/></g><g class="cls-9"><path class="cls-3" d="M96.18,233.94c-.6.4-1.84-.44-2.39-2s-.09-3,.62-3.09,1.39,1,1.84,2.24S96.78,233.55,96.18,233.94Z"/></g><path class="cls-3" d="M135.26,217.71c.09,0-.43,1.48-2.15,3.19a12.92,12.92,0,0,1-17.28.86c-1.87-1.53-2.54-2.9-2.45-2.95s1,1.07,2.89,2.36a13.18,13.18,0,0,0,16.35-.81C134.36,218.88,135.11,217.62,135.26,217.71Z"/><path class="cls-3" d="M110.58,210.66a3.15,3.15,0,0,0-3.17-1.66,2.1,2.1,0,0,0-1.07.36l0,0h0a3.41,3.41,0,0,0-1.28,3.27,3.06,3.06,0,0,0,3.89,2.19A3.14,3.14,0,0,0,110.58,210.66Z"/><path class="cls-3" d="M147.12,214a16.77,16.77,0,0,0-.59-2.65,5.6,5.6,0,0,0-1.68-2.22,5.21,5.21,0,0,0-6.31.11,5.71,5.71,0,0,0-1.61,2.28,16.59,16.59,0,0,0-.49,2.67c-.1,0-.66-1.06-.21-2.9a5.78,5.78,0,0,1,1.69-2.78,5.68,5.68,0,0,1,3.74-1.43,5.59,5.59,0,0,1,5.57,4C147.74,212.94,147.22,214.08,147.12,214Z"/><circle class="cls-6" cx="351.99" cy="272.5" r="33.5"/><g class="cls-9"><path d="M382.7,269.17c.52,0,1.1.85,1.53,2.57a20.65,20.65,0,0,1,.16,7.43,29.77,29.77,0,0,1-3.65,10.54,31.26,31.26,0,0,1-22.14,15.6,30.15,30.15,0,0,1-11.16-.12,20.56,20.56,0,0,1-6.93-2.66c-1.48-1-2.11-1.82-1.91-2.3.45-1.07,4-.33,9.35-.55a39,39,0,0,0,9.1-1.4,31.31,31.31,0,0,0,17.6-12.4,38.43,38.43,0,0,0,4.39-8.1C381,272.81,381.54,269.23,382.7,269.17Z"/></g><g class="cls-9"><path class="cls-3" d="M350.31,241.6c0,.42-2.94.3-7.34,1.49a30.5,30.5,0,0,0-7.3,3,27.11,27.11,0,0,0-12.1,14.44,30,30,0,0,0-1.72,7.72c-.4,4.53.23,7.4-.19,7.49s-1.58-2.69-1.65-7.57a26.71,26.71,0,0,1,1.29-8.42A26.75,26.75,0,0,1,334.51,244a27,27,0,0,1,8.06-2.75C347.39,240.51,350.36,241.31,350.31,241.6Z"/></g><g class="cls-9"><path class="cls-3" d="M324.31,284c-.59.39-1.81-.4-2.35-2s-.06-2.93.65-3,1.39.92,1.82,2.13S324.92,283.57,324.31,284Z"/></g><path class="cls-3" d="M353.36,280.63a14.31,14.31,0,0,0,9.23-4.13c1.34-1.46,2.57-3.68,2.42-5.65a4.45,4.45,0,0,0-3.62-4.12,6.38,6.38,0,0,0-3.94,1.28,12.14,12.14,0,0,1-3.72,1.94c-2,.44-4-.33-5.83-1.12s-3.84-1.6-5.82-1.24a3.81,3.81,0,0,0-3.19,2.17s-1,2.18,1,5.1A14.91,14.91,0,0,0,353.36,280.63Z"/><path class="cls-3" d="M338.15,261.59a3,3,0,0,0-3-1.6,2.12,2.12,0,0,0-1,.35l0,0h0a3.28,3.28,0,0,0-1.23,3.14,2.93,2.93,0,0,0,3.73,2.11A3,3,0,0,0,338.15,261.59Z"/><path class="cls-3" d="M370,261.7a3,3,0,0,0-3-1.6,1.93,1.93,0,0,0-1,.35h0a3.3,3.3,0,0,0-1.22,3.14,2.93,2.93,0,0,0,3.73,2.11A3,3,0,0,0,370,261.7Z"/></g></g></svg>