<svg xmlns="http://www.w3.org/2000/svg" viewBox="0 0 3193.05 2704.63"><defs><style>.cls-1{fill:#fff;}.cls-2{opacity:0.3;}.cls-3{fill:#000072;}.cls-4{fill:#f9744b;}.cls-5{fill:#ff1d74;}.cls-6{opacity:0.4;}.cls-7{fill:#fa508e;}.cls-8{fill:#0f2675;}.cls-9{fill:#f27e80;}</style></defs><g id="Camada_2" data-name="Camada 2"><g id="Layer_1" data-name="Layer 1"><path class="cls-1" d="M1569.83,2396.72C1514.57,2484,1408,2509.51,1408,2509.51s102.81,26.54,74.65,112.06c-21.32,64.89-70,66.6-184.65,65.78-50.76-.34-92.93-2.69-126.18-12.71-45.93-13.69-74.78-42-85.78-99.6-20.59-107.56,30.22-184.39,70.2-327.06a266.13,266.13,0,0,0,7.53-41.26c8.35-74.56-.17-173,53.12-278.6l339.21,89.29s48.92,99.86,53.25,211.83C1611.56,2285.74,1602.36,2345.32,1569.83,2396.72Z"/><g class="cls-2"><path class="cls-3" d="M1160.41,2582c36.43,22.35,68.11,25,137.62,25.52,105.42.72,155-.64,178.91-51.28,10.32,16.39,14.81,37.79,5.74,65.32-21.32,64.89-70,66.6-184.65,65.78-50.76-.34-92.93-2.69-126.18-12.71-1.46-.43-2.87-.85-4.28-1.32-2-.65-4-1.33-5.91-2.06a143.2,143.2,0,0,1-14.94-6.51q-2.9-1.47-5.65-3.08c-.51-.3-1-.6-1.5-.9-.81-.47-1.62-1-2.39-1.49s-1.54-1-2.31-1.5-1.72-1.16-2.53-1.76a100.85,100.85,0,0,1-24.27-24.57c-.73-1-1.45-2.09-2.14-3.21s-1.5-2.35-2.23-3.59-1.41-2.44-2.09-3.68c-.43-.82-.86-1.59-1.24-2.4s-.95-1.8-1.37-2.7-.9-1.92-1.33-2.91-.81-1.79-1.2-2.74c-1.41-3.29-2.74-6.72-3.94-10.27-.51-1.54-1-3.08-1.49-4.66s-.9-3-1.37-4.63c-.05-.13-.05-.3-.09-.42-.43-1.55-.86-3.13-1.24-4.76-.26-.94-.47-2-.69-2.95s-.47-1.93-.64-2.91c-.34-1.5-.64-3-.94-4.58a262.32,262.32,0,0,1-4.75-49.31c0-2.52,0-5.05.13-7.53s.17-5.18.34-7.75c0-1,.09-2,.21-2.95.09-1.8.26-3.64.39-5.4.21-2.31.43-4.58.68-6.8.22-1.71.43-3.38.65-5s.42-3.34.68-5c10.14-68.91,43.7-136.79,71.87-237.3a266.13,266.13,0,0,0,7.53-41.26c128.37,6.42,445.58,22.52,445.58,22.52s-28.25,108.8-214.57,182.34c-94.21,37.16-135.5,20.12-223.82,57.13C1126,2487.56,1132.78,2554.76,1160.41,2582Z"/></g><path class="cls-3" d="M1328,2704.63c-9.66,0-19.7-.07-30.14-.15-116-.83-206.57-10.65-228.65-126.22-15.43-80.7,6.89-144.59,35.16-225.47,11.19-32,23.87-68.31,35.39-109.4,7.2-25.71,8.94-56.58,10.94-92.33,3.65-65,8.18-146,50.89-230.66a17.12,17.12,0,1,1,30.57,15.42c-39.49,78.28-43.62,152.06-47.27,217.15-2,36.18-4,70.36-12.16,99.65-11.81,42.14-24.68,79-36,111.47-27.61,79-47.55,136.08-33.85,207.75,16,83.63,70.66,97.5,195.26,98.4,121.71.88,151.84-4,168.29-54,6-18.36,5.32-34-2.22-47.89-16.49-30.36-60-42.15-60.48-42.26a17.13,17.13,0,0,1,.34-33.22c1-.24,100.56-25.15,151.28-105.27,90.93-143.61-13.52-360.46-14.59-362.63a17.12,17.12,0,0,1,30.75-15.08c4.69,9.58,113.83,236.41,12.77,396-36.12,57.06-91.82,89.15-130.08,105.57,14.78,9.2,30.15,22.29,40,40.31,12.21,22.35,13.81,47.63,4.76,75.14C1475.51,2698.2,1419.35,2704.63,1328,2704.63Z"/><path class="cls-1" d="M786.31,1891.58s-254-10.64-243.62-151.7c13.8-188,215.06-290.13,208.41-515.15C739.72,839.92,28,822.75,17.22,1292.55c-3,131.13,60.66,174.67,118.89,176.77,91,3.29,138.69-67,150.46-158.46,21.52-167.31,255.77-159.37,270.51.39,12,129.64-292.32,334.45-180.83,565.23,76.95,159.29,260.36,192,375.12,184.14C774.41,2059,786.31,1891.58,786.31,1891.58Z"/><path class="cls-4" d="M149.06,1018.18c-76.12,58.27-129,149-131.84,274.37-3,131.14,60.66,174.67,118.89,176.77,91,3.29,138.69-67,150.46-158.46,6.45-50.16,32-84.55,65.08-103.84C371.68,953.06,151,1017.59,149.06,1018.18Z"/><g class="cls-2"><path class="cls-3" d="M780.94,1948.52c-5.62,48.72-15.57,111.17-29.59,112.12-114.76,7.85-298.13-24.86-375.1-184.17-41-84.88-25.75-166.22,9.3-241.65-4,41.92-20.12,89.39,10.59,152.56C472.78,1945.05,666,1955.58,780.94,1948.52Z"/></g><g class="cls-2"><path class="cls-3" d="M286.56,1310.89c-11.79,91.48-59.42,161.74-150.46,158.41-40.43-1.44-83.53-22.92-105.06-79.85,21,16.6,45.59,24,69.31,24.81,96,3.48,124.2-64.9,134.34-161.71,29.84-284.73,544.6-159.81,288.77,160.49-7.43,9.3,21-37.6,30.65-68.74a100.7,100.7,0,0,0,3-33.06C542.32,1151.48,308.08,1143.53,286.56,1310.89Z"/></g><path class="cls-3" d="M719.06,2078.82c-44.87,0-109.29-5.86-175.63-31.62-84.71-32.89-146.15-87.82-182.59-163.27-73.51-152.16,22.23-292.38,99.16-405,43.2-63.26,84-123,80-166.06-6.71-72.8-63-106.35-115.76-107.3-53.1-.86-111,31.93-120.72,107.52-14.39,111.85-77.18,176.6-168,173.39C68,1484-3.1,1431.67.1,1292.16c2.67-116.37,47.44-213.34,129.46-280.42,71.32-58.33,166.81-90.64,268.89-91H400c178.8,0,362.35,104,368.24,303.46,3.77,127.51-55.3,215.69-112.43,301-46.3,69.11-90,134.39-96,215.94-1.76,23.87,5.16,44.19,21.14,62.14,57.09,64.11,204.64,71.14,206.12,71.2l17.6.75-1.24,17.57c-12.95,182.3-38.55,184.06-50.85,184.91C743.28,2078.34,732,2078.82,719.06,2078.82ZM422,1171.26c1,0,1.94,0,2.91,0,65.84,1.18,140.62,45,149.24,138.38,5.11,55.32-37,117-85.85,188.52-75.7,110.86-161.5,236.52-96.61,370.85,85.61,177.2,299,177.75,353.38,174.81,8.42-16.15,17.87-78.42,22.84-136.45-44.08-4.07-158.15-20.31-212.52-81.32-22.17-24.89-32.18-54.31-29.75-87.46,6.64-90.57,55-162.72,101.71-232.49,54.13-80.8,110.1-164.36,106.65-280.89C728.73,1047.64,562.22,955,400,955h-1.41c-177.45.59-358.89,105.31-364.23,337.94-3.21,140.29,70.54,158.12,102.41,159.27,99,3.68,125.75-88.39,132.85-143.53C281.84,1213.44,354.45,1171.26,422,1171.26Z"/><path class="cls-1" d="M1891.32,1265.92v212.94s-71.48,80-199.08,95.62a351.28,351.28,0,0,1-51.19,2.57c-119.51-2.52-191.07-59.37-191.07-59.37l8.17-36.38,42.55-188.8s60.1,19.86,137.78,27.39c57.87,5.61,125.46,4.33,185.21-17.12C1847.92,1294.08,1870.86,1282.1,1891.32,1265.92Z"/><path class="cls-3" d="M1649,1594.28c-2.76,0-5.52,0-8.31-.09-123.85-2.65-198.24-60.63-201.35-63.1a17.12,17.12,0,1,1,21.3-26.82c.65.51,69.05,53.29,180.78,55.68,131,2.78,213.52-69.23,232.8-88.06V1298.23c-146.71,85.66-368.88,13.83-378.87,10.53a17.12,17.12,0,0,1,10.74-32.52c2.43.81,244.68,79,374.63-23.75l27.73-21.94v254.83l-4.34,4.87C1900.23,1494.56,1809.31,1594.27,1649,1594.28Z"/><path class="cls-1" d="M1455.67,2344.08c-325.34,147.84-784.53,22.08-743.82-340.5,17.12-152.63,158.54-282,232.93-398.15A1071.82,1071.82,0,0,0,1031,1441.5c34.79-83.26,44.68-138.6,44.68-138.6l547.58-34.84s6.16,18.92,15.19,51.83c6.51,23.63,14.51,54.53,22.77,90.83q4.3,18.88,8.65,39.55c7.92,37.67,15.71,79.57,22.34,124.21,10.15,68.23,17.59,142.84,18.75,218.3C1714.5,2017.88,1661.72,2250.47,1455.67,2344.08Z"/><g class="cls-2"><path class="cls-3" d="M1700,1971.44c-24.44,160.46-93.14,304-244.28,372.64-325.34,147.84-784.53,22.08-743.82-340.5,5-44.86,20.8-87.7,42.46-128.79-85.62,175.21,125.23,58.68,338.22,191.67,105.9,66.13,57.56,110.44,117.72,140.65,70.29,35.3,205.72,22.16,290.24-25.64C1593.46,2128.89,1660.82,2062.14,1700,1971.44Z"/></g><path class="cls-3" d="M1169.32,2421.84q-19.24,0-38.4-1.05c-114-6.25-219.1-40.42-295.93-96.21-106.71-77.48-155.17-189.14-140.16-322.9,12.8-114,91.56-215,161-304.16,27.64-35.45,53.74-68.94,74.49-101.33,103.32-161.25,128.24-295,128.48-296.32l2.37-13.2,13.39-.86,560.86-35.67,4.11,12.63c.71,2.2,71.69,222.68,86.12,465.45,8.53,143.5-4,266.88-37.34,366.71-42.33,126.88-118.24,216-225.62,264.74C1373.59,2400.18,1270.71,2421.84,1169.32,2421.84Zm-79.55-1102.69c-8.89,38.62-41.21,156.06-130.57,295.52-21.6,33.71-48.18,67.81-76.32,103.9-70,89.75-142.3,182.55-154,286.93-17.13,152.62,59.2,242.69,126.25,291.38,147.88,107.37,397.47,120.68,593.47,31.62,179.81-81.7,261.56-282.78,243-597.64-12.13-205.59-65.64-395.09-80.63-444.85Z"/><path class="cls-1" d="M1072.6,2017.4s110.78,226,13.67,379.33C1031,2484,924.51,2509.49,924.51,2509.49s102.78,26.54,74.64,112.08c-21.34,64.9-70,66.61-184.67,65.79-120.93-.87-193-13-212-112.31-20.57-107.57,30.25-184.41,70.23-327,21.65-77.26-3.19-193.41,60.63-319.9"/><g class="cls-2"><path class="cls-3" d="M996.36,2561.39c8.13,15.66,10.91,35.44,2.78,60.18-21.32,64.89-70,66.6-184.65,65.78-120.92-.85-193-13-212-112.31a261.85,261.85,0,0,1-2.53-83.55c.69,5.18,1.5,10.4,2.53,15.75,19,99.3,91,111.46,212,112.31C924.49,2620.33,973.76,2618.78,996.36,2561.39Z"/></g><g class="cls-2"><path class="cls-3" d="M1086.28,2396.72c-26.28,41.48-64,69-96.52,86.42-44.12,45.25-217.34,18.24-217.34,18.24s231.6-38.46,313.86-172.46c22.82-37.17,34.63-77.85,38.36-118.9C1129.81,2272,1122.54,2339.45,1086.28,2396.72Z"/></g><path class="cls-3" d="M844.5,2704.63c-9.66,0-19.7-.07-30.14-.15-116-.83-206.57-10.65-228.65-126.22-15.43-80.7,6.89-144.59,35.16-225.47,11.19-32,23.87-68.31,35.39-109.4,7.2-25.71,8.94-56.58,10.94-92.33,3.65-65,8.18-146,50.89-230.66a17.12,17.12,0,1,1,30.57,15.42C709.17,2014.1,705,2087.88,701.39,2153c-2,36.18-3.95,70.36-12.16,99.65-11.81,42.14-24.68,79-36,111.47-27.61,79-47.55,136.08-33.85,207.75,16,83.63,70.66,97.5,195.26,98.4,121.7.88,151.83-4,168.29-54,6-18.36,5.32-34-2.22-47.89-16.49-30.36-60-42.15-60.48-42.26a17.13,17.13,0,0,1,.34-33.22c.92-.23,94.9-23.72,146.74-98.43a17.12,17.12,0,0,1,28.14,19.52c-36.12,52.05-88.35,81.89-124.76,97.52,14.78,9.2,30.15,22.3,40,40.32,12.21,22.35,13.81,47.63,4.76,75.14C992,2698.2,935.81,2704.63,844.5,2704.63Z"/><path class="cls-3" d="M1077.72,2014.88c11.64,13.22,20.16,27.84,27.84,43a293,293,0,0,1,18.29,47.24c4.76,16.24,7.84,33,10.68,49.66s5.45,33.5,6.89,50.5a458.81,458.81,0,0,1,1.66,51.3,385.15,385.15,0,0,1-5.22,51.54,319,319,0,0,1-13.73,50.5,282.08,282.08,0,0,1-23.39,47.29,17.12,17.12,0,1,1-29.18-17.9l.25-.41a249.34,249.34,0,0,0,20.25-41,284.68,284.68,0,0,0,12.1-44.55,351.12,351.12,0,0,0,4.69-46.51,423.75,423.75,0,0,0-1.54-47.21,401,401,0,0,0-6.9-47.11c-3.28-15.59-7.65-30.94-11.72-46.37-8-30.93-16.09-61.94-21.22-94.94l0-.21a5.91,5.91,0,0,1,4.93-6.75A6,6,0,0,1,1077.72,2014.88Z"/><path class="cls-3" d="M772.42,2501.38c12.54-2.63,25.3-4.45,38.1-6s25.72-2.57,38.67-3.25,26-1.05,39-.89c13.06,0,26.13.6,39.26,1.35a17.24,17.24,0,0,1-2,34.42,18,18,0,0,1-3.7-.62l-.26-.08c-12-3.44-24.06-6.77-36.29-9.56-12.23-2.94-24.59-5.31-37-7.53s-25-3.89-37.64-5.28S785.22,2501.59,772.42,2501.38Z"/><path class="cls-3" d="M1259.3,2501.38c12.55-2.63,25.31-4.45,38.11-6s25.72-2.57,38.67-3.25,26-1.05,39-.89c13.07,0,26.14.6,39.27,1.35a17.24,17.24,0,1,1-2,34.42,17.9,17.9,0,0,1-3.69-.62l-.26-.08c-12-3.44-24.06-6.77-36.3-9.56-12.22-2.94-24.59-5.31-37-7.53s-25-3.89-37.65-5.28S1272.1,2501.59,1259.3,2501.38Z"/><path class="cls-3" d="M886.24,2577.14c11.77,3.63,23.44,11.53,29.7,24.45,3.16,6.27,4.4,14.13,4.4,20.28a102.7,102.7,0,0,1-1.05,20.06,70.12,70.12,0,0,1-6.24,20.47,66.89,66.89,0,0,1-13.13,18.1c-10.8,10.56-23.82,16.94-36.43,21.92a15.74,15.74,0,0,1-11.58-29.28,17.09,17.09,0,0,1,2.69-.79c10.82-2.19,21.11-5.36,29.17-10.84s14.08-13.4,17.51-23.85a85.71,85.71,0,0,0,3.78-16.49l1-8.34a32.5,32.5,0,0,0-.24-7.87C904.28,2594.32,896.58,2583.9,886.24,2577.14Z"/><path class="cls-3" d="M772.42,2580a48.09,48.09,0,0,1,14.15,11.56,42,42,0,0,1,5.33,8.4,27.16,27.16,0,0,1,2.72,9.69,100.11,100.11,0,0,1-3.15,37.51c-3.47,12.33-9.61,24.74-20,34.81a60.85,60.85,0,0,1-18.42,12.1,66.89,66.89,0,0,1-21.63,5l-.66,0a15.76,15.76,0,0,1-2-31.45,16.94,16.94,0,0,1,2.67.05,34.31,34.31,0,0,0,23.43-5.52c7.15-4.81,13.29-12.71,17.53-21.91a82.73,82.73,0,0,0,7.46-30.07,34.44,34.44,0,0,1,.22-3.8,22.57,22.57,0,0,0,.37-3.55,31.8,31.8,0,0,0-.83-7.62A44,44,0,0,0,772.42,2580Z"/><path class="cls-3" d="M1259.3,2583.58a74,74,0,0,1,11.09,13.73,58.11,58.11,0,0,1,4.37,8.29,76.31,76.31,0,0,1,1.48,9.1,87.64,87.64,0,0,1-4.31,36.43c-4,11.8-10.79,23.41-21.27,32.46-10.32,9.17-24.64,14.69-38.63,15.46l-.76,0a15.75,15.75,0,1,1-1.74-31.46,16,16,0,0,1,2.5.06,35.74,35.74,0,0,0,22.85-4.91c7.12-4.25,13.34-11.33,17.81-19.73a69.21,69.21,0,0,0,7.93-27.9,61.47,61.47,0,0,0,0-7.31,55.06,55.06,0,0,0,.61-7.75A69,69,0,0,0,1259.3,2583.58Z"/><path class="cls-3" d="M1374.93,2580.62c10.71,5.59,20.69,13.63,27.77,25.15a48.58,48.58,0,0,1,4.27,9.38,62,62,0,0,1,2,10,59.53,59.53,0,0,1-1.33,20.84c-3.33,13.88-11.74,26.22-22,35.5s-22.53,16.12-35.17,21l-.27.11a15.76,15.76,0,0,1-11.26-29.43,17.22,17.22,0,0,1,2.65-.75c10.19-2,20-5.4,28.53-10.74s15.5-12.53,19.44-21.47a42,42,0,0,0,3.51-14.43,48.07,48.07,0,0,0-.15-7.76l-.26-3.84c-.16-1.28-.39-2.57-.62-3.89C1389.62,2599.76,1383.31,2589.21,1374.93,2580.62Z"/><path class="cls-5" d="M3175.93,1691c0,439-530.79,825.23-725.94,952.38a129.81,129.81,0,0,1-141.76,0c-195.15-127.15-726-513.35-726-952.38,0-231.72,187.82-419.56,419.53-419.56,165.85,0,309.21,96.23,377.31,235.89,68.1-139.66,211.46-235.89,377.29-235.89C2988.11,1271.4,3175.93,1459.24,3175.93,1691Z"/><g class="cls-6"><path class="cls-1" d="M2001.8,1316.39c151.13,0,283.58,79.91,357.43,199.77a23.32,23.32,0,0,0,39.76,0c73.86-119.86,206.31-199.77,357.4-199.77,224.48,0,407.76,176.3,419,398,.34-7.79.55-15.59.55-23.41,0-231.72-187.82-419.57-419.54-419.57-165.82,0-309.18,96.24-377.28,235.9-68.1-139.66-211.46-235.9-377.31-235.9-231.71,0-419.53,187.85-419.53,419.57,0,7.82.21,15.62.55,23.41C1594.05,1492.69,1777.33,1316.39,2001.8,1316.39Z"/></g><g class="cls-2"><path class="cls-3" d="M1857,1677.38c-3.21,36.6-36,54.87-36,54.87s28.46,105.77-123.32,116.51a410.21,410.21,0,0,0-88.77,16c-17.12-56.67-26.71-114.75-26.71-173.82a417.67,417.67,0,0,1,40.45-179.9c75.59-23.2,149.55-1.5,192,39.29,28.55,27.44,24,68.62,24,68.62S1859.86,1645.32,1857,1677.38Z"/></g><g class="cls-2"><path class="cls-3" d="M1873.27,1346.68s-8.7,68.58,48.19,95.78c21.87,10.44,58.88-3.15,58.88-3.15s15.48,25,69.49,19.26c33.83-3.61,69.87-33.85,69.87-33.85s31.34,9.3,57.87-7.14c37.23-23.09,44.74-99.3,1.09-133C2136.62,1252.15,1907.3,1217.15,1873.27,1346.68Z"/></g><g class="cls-2"><path class="cls-3" d="M1083.67,1545.43s-60,346.45,216.48,375.66c143,15.11,173.42-49.82,339.75-64.19s118.49-238,118.49-238Z"/></g><g class="cls-2"><path class="cls-3" d="M1597.28,1636c0,439.05,530.79,825.25,725.94,952.4a129.74,129.74,0,0,0,141.65.07c113-73.6,338.55-234.19,508.44-441.59a.1.1,0,0,0,.05,0c-78.31,48.72-183.84,76.7-255.82,79.46-684.58,26.18-863.8-285-936.36-543.09-84.6-300.93,102.89-395,102.89-395S1740.9,1326.89,1657,1452a417.64,417.64,0,0,0-51.53,101.33A422.1,422.1,0,0,0,1597.28,1636Z"/></g><path class="cls-3" d="M2379.11,2681.5a146.82,146.82,0,0,1-80.23-23.81c-95.75-62.39-280.15-192.36-439.29-361.86-195.38-208.1-294.44-411.6-294.44-604.88,0-240.78,195.88-436.67,436.65-436.67,157.42,0,299.18,82.21,377.31,216.66,78.13-134.45,219.88-216.66,377.28-216.66,240.78,0,436.66,195.89,436.66,436.67,0,193.27-99.06,396.78-294.43,604.87-159.13,169.5-343.53,299.47-439.28,361.87A146.9,146.9,0,0,1,2379.11,2681.5Zm-377.31-1393c-221.89,0-402.41,180.53-402.41,402.43,0,184.28,95.94,379.9,285.16,581.44,156.69,166.88,338.56,295.06,433,356.61a112.8,112.8,0,0,0,123.07,0c94.46-61.56,276.33-189.74,433-356.62,189.21-201.53,285.15-397.15,285.15-581.43,0-221.9-180.52-402.43-402.42-402.43-155.16,0-293.83,86.71-361.89,226.28a17.12,17.12,0,0,1-30.78,0C2295.67,1375.23,2157,1288.52,2001.8,1288.52Z"/><path class="cls-1" d="M1769.74,1098.53c0-2.12.14-3.77.23-4.91Z"/><path class="cls-3" d="M737.12,1196.55c.17.29.38.54.56.83l-.73-1A.7.7,0,0,1,737.12,1196.55Z"/><path class="cls-3" d="M737.68,1197.38l21,28.48C751.5,1216.67,744.43,1207.25,737.68,1197.38Z"/><path class="cls-3" d="M2016.32,1095.74l-.59,1.19c.13-.31.29-.67.46-1C2016.22,1095.87,2016.29,1095.82,2016.32,1095.74Z"/><path class="cls-1" d="M737.34,1194.42l20.32,21.21C750.69,1208.8,743.85,1201.77,737.34,1194.42Z"/><path class="cls-1" d="M2015.62,1093.87c-5.29,8.28-10.94,16.3-16.75,24.13Z"/><g class="cls-2"><path class="cls-3" d="M1823.69,1302.77a821.31,821.31,0,0,1-162.44,108,801.52,801.52,0,0,1-203.1,70.58c-139.88,28.21-287.72,18-427.12-39.8,34.79-83.26,44.68-138.6,44.68-138.6l547.58-34.84s6.16,18.92,15.19,51.83C1696.35,1325.5,1763.94,1324.22,1823.69,1302.77Z"/></g><path class="cls-1" d="M2157.23,952.68c-1.09,30.8-65.66,6.79-79.75,1.17a1.5,1.5,0,0,0-1.82,2c1.64,5.21,6,16.79,16,35,12.31,22.53,22.34,40,18.54,52.66-4.09,13.44-24.83,20.11-51.47,19.24-14.88-.51-29.75,13.62-42.58,30.31l-.14.16c-6.24,8.11-12,16.78-17.1,24.7l-.36.52a486,486,0,0,1-73.86,78.53c-35.54,29.41-75.39,53.52-117.82,73.28,0,0-199.41,91.92-411.86,108.63s-423.77-42.9-423.77-42.9c-45.05-12.88-88.13-30.46-127.83-54a484.48,484.48,0,0,1-85.28-66l-.16-.19c-.11-.09-.17-.18-.27-.27-6.25-7-13.33-14.69-20.76-21.72-15.34-14.52-32.29-26.25-47-23.42-26.17,5-47.7,1.68-53.84-11-5.74-11.92,1.44-30.73,10.07-54.91,7-19.6,9.48-31.72,10.29-37.12a1.5,1.5,0,0,0-2.11-1.72c-13,7.75-73,41.56-79,11.31-3.3-16.81,20.12-70.1,25.58-123.22,15.74-154,21.4-184.62,21.4-184.62.12-1,18.4-112,52.27-195.27-40.57-57.9-213.11-316.12-139.18-425.38,10.86-16,40.72-22,80.33-21.46,114.63,1.27,310.79,55.5,364.55,71.11,74-42.48,159.29-71.8,255.77-83.59,10.34-1.31,32.38-4.72,58.39-6.72,23.12-1.77,50.43-2.29,59.66-2.57,97.14-3.43,186,12.18,265.69,42.58,68.23-32,380.28-173.63,431.66-118.6.7.73,1.35,1.47,2.06,2.26,86,98.41-42.22,376.58-73,439.65C2027,548.25,2062.43,655,2062.7,656c0,0,10.38,29.37,50.05,179C2126.41,886.58,2157.86,935.56,2157.23,952.68Z"/><path class="cls-4" d="M1831.52,697.14a447.89,447.89,0,0,0,224.63-60c-12.33-34.2-40.87-108.34-75.6-165.87,30.81-63.07,159.07-341.24,73-439.65-.7-.79-1.35-1.53-2-2.26-51.38-55-363.43,86.56-431.66,118.6-65.73-25.08-137.76-40.06-215.5-42.62a449.26,449.26,0,0,0-22.83,141.8C1381.52,495.66,1583,697.14,1831.52,697.14Z"/><g class="cls-2"><path class="cls-3" d="M2091.6,990.9c12.36,22.58,22.38,40,18.58,52.69-4.09,13.43-24.85,20.1-51.5,19.2-14.89-.45-29.7,13.66-42.56,30.37l-.89,1.27a13.14,13.14,0,0,0,.75-1.14c-6.22,8.07-12,16.72-17.07,24.61a2.15,2.15,0,0,1-.23.36l0,0s0,0,0,0l0,.05c-.07,0-.07.09-.1.13a483.55,483.55,0,0,1-73.88,78.53c-35.54,29.4-75.38,53.55-117.82,73.29,0,0-199.41,91.91-411.87,108.62s-423.74-42.89-423.74-42.89c-45-12.86-88.17-30.49-127.83-54a483.9,483.9,0,0,1-85.28-66,1.83,1.83,0,0,1-.13-.16l0,0,0,0c-6.26-7-13.26-14.61-20.67-21.65a1.39,1.39,0,0,1-.29-.31h0l-.12-.11c-15.31-14.49-32.14-26.11-46.82-23.33-26.14,5-47.7,1.71-53.83-10.92-5.77-11.91,1.43-30.71,10.07-55l.1-.26c9.93,2.8,23.44,2.65,38.44-.23,14.63-2.82,31.47,8.8,46.82,23.33,0,0,.12.07.16.11,7.49,7.11,14.61,14.88,21,22l0,0,.16.16a482.67,482.67,0,0,0,85.29,66c39.66,23.48,82.79,41.07,127.83,54,0,0,211.29,59.6,423.74,42.89S1801.59,1204,1801.59,1204c42.43-19.78,82.28-43.89,117.82-73.29a481.68,481.68,0,0,0,73.87-78.57l.18-.22a3.14,3.14,0,0,0,.24-.35c5.09-7.9,10.84-16.55,17.06-24.62a1.79,1.79,0,0,0,.14-.13c12.86-16.75,27.66-30.86,42.56-30.37,15.27.51,28.64-1.46,38-5.77Z"/></g><path class="cls-3" d="M736.88,1193.9l.33.31.5.59Z"/><path class="cls-3" d="M757.55,1215.55c-6.81-6.67-13.45-13.56-19.84-20.75Z"/><path class="cls-3" d="M1998.91,1117.9l16.32-23.47C2010.08,1102.5,2004.64,1110.29,1998.91,1117.9Z"/><path class="cls-1" d="M2016.93,1105.58a.86.86,0,0,1,.14-.13l-.76,1.09C2016.5,1106.21,2016.74,1105.91,2016.93,1105.58Z"/><path class="cls-7" d="M1894.17,408.27C1841.49,322.57,1786.6,271,1761,249.53c-7.3-6.13-7.57-18.52-.46-24.59,69.62-59.32,165-92.4,201.44-103.52,13.76-4.21,28.18,5.33,31.76,21.24,4,17.83,4.35,48-6.93,99-16.39,74.05-52.32,137.88-70.71,167.22C1910.76,417.36,1899.55,417,1894.17,408.27Z"/><path class="cls-3" d="M1905.48,427.55h-.15a25.87,25.87,0,0,1-21.83-12.78c-12.55-20.39-26.08-40.19-40.16-58.83-38.26-50.47-73-82.33-90.35-96.82a28.93,28.93,0,0,1-10.11-22.18,27.92,27.92,0,0,1,9.56-21.48c47.5-40.48,106.28-68.64,147.23-85.14,19.15-7.76,39.44-15,58.67-20.87a35.16,35.16,0,0,1,28.25,3.38A41.81,41.81,0,0,1,2006,139.89c5.41,24.14,3.07,59.26-7,104.42-16.59,75.1-52.44,139.49-72.34,171.19A25,25,0,0,1,1905.48,427.55Zm63.1-294.64a10,10,0,0,0-2.92.44C1947.12,139,1927.54,146,1909,153.5c-39.24,15.81-95.43,42.69-140.37,81a3.4,3.4,0,0,0-.78,2.4,4.23,4.23,0,0,0,1.19,3.1c18.1,15.14,54.45,48.43,94.2,100.87,14.57,19.28,28.55,39.75,41.55,60.85a3,3,0,0,0,.55.7,1.72,1.72,0,0,0,.13-.18c19-30.34,53.33-91.88,69.1-163.3v0c11.48-51.76,10.13-79.42,7-93.51a16.68,16.68,0,0,0-7.52-10.93A10.93,10.93,0,0,0,1968.58,132.91Z"/><g class="cls-2"><path class="cls-3" d="M1895.81,231.57c-9.83,44.37-26.65,85.06-42.5,116.83-38.34-50.58-73.35-83-92.3-98.87-7.28-6.15-7.56-18.5-.45-24.57,44.8-38.17,100.22-65.49,143.78-83.05C1906.58,160.41,1905.33,188.6,1895.81,231.57Z"/></g><path class="cls-7" d="M750.22,498.25c38.63-92.88,84.78-152.42,106.7-177.61,6.25-7.19,4.59-19.48-3.39-24.35-78-47.71-177.46-65.47-215.15-70.76-14.24-2-27,9.67-28,25.95-1.17,18.23,3.21,48.09,22.32,96.66,27.77,70.58,73.24,128,96,154.11C735.25,509.83,746.27,507.73,750.22,498.25Z"/><path class="cls-3" d="M738.28,519.36a25.24,25.24,0,0,1-19-8.89c-24.61-28.19-70.09-86.18-98.22-157.78-16.95-43-24.75-77.35-23.19-102a41.81,41.81,0,0,1,14.91-29.79,35.22,35.22,0,0,1,27.36-7.76c19.91,2.82,41.08,6.78,61.24,11.45,43,9.89,105.46,28.51,158.7,61.06a28,28,0,0,1,12.81,19.74,28.91,28.91,0,0,1-6.48,23.44c-14.87,17.06-44.23,53.95-74.14,109.81-11,20.58-21.25,42.26-30.49,64.41a25.81,25.81,0,0,1-19.53,16A24.92,24.92,0,0,1,738.28,519.36ZM635.2,237.79a10.64,10.64,0,0,0-6.69,2.5,16.78,16.78,0,0,0-5.72,12c-.91,14.38,2.08,41.91,21.51,91.24h0c26.75,68.09,70.24,123.51,93.78,150.49a1.86,1.86,0,0,0,.2.2c.05-.13.21-.37.38-.77,9.56-22.93,20.17-45.33,31.54-66.63,31.07-58,61.77-96.59,77.31-114.41a4.26,4.26,0,0,0,.65-3.21A3.31,3.31,0,0,0,847,307c-50.36-30.79-110.06-48.55-151.27-58-19.49-4.52-39.92-8.34-59.11-11.05A10,10,0,0,0,635.2,237.79Z"/><g class="cls-2"><path class="cls-3" d="M721,324c16.65,42.29,39.62,79.85,60.25,108.75,29.95-56,59.46-93.45,75.7-112.09,6.23-7.21,4.58-19.46-3.39-24.33-50.22-30.7-109.23-49-155-59.55C699.21,255.38,704.85,283,721,324Z"/></g><path class="cls-3" d="M1276.77,1386.9c-46.8,1.35-93.48-.91-140-4.72a1072.56,1072.56,0,0,1-139.27-22.07l-17.16-3.84-8.58-1.92c-2.85-.62-5.71-1.26-8.76-2.19-11.94-3.35-23-6.79-34.43-10.71a536.16,536.16,0,0,1-66.32-27.83c-10.76-5.4-21.31-11.08-31.82-17.58-10.3-6.43-20.19-13.11-30-20.18s-19.24-14.5-28.48-22.24c-4.6-3.9-9.16-7.84-13.62-11.91l-6.64-6.14-3.28-3.13-1.64-1.57-.81-.79-.41-.39-.2-.2a16.54,16.54,0,0,0,4.76,3.26l-5-3.45-21.86-23,.91,1-.16-.12,25.87-25.6,21.22,22.41-26.46,24.5c-8.71-9.83-17.4-19.22-26.43-27a87.79,87.79,0,0,0-13.41-9.72c-4.31-2.48-8.3-3.65-10.38-3.68-.25,0-.44.1-.66.1h-.33l-.19,0-.7.12-5.6.92c-3.77.54-7.59,1-11.5,1.21-7.86.41-15.92.4-24.84-1.55a52.65,52.65,0,0,1-14-5,37.93,37.93,0,0,1-13.8-12.18,37.31,37.31,0,0,1-6-17.62,59,59,0,0,1,.72-14.3,142.26,142.26,0,0,1,5.89-22.18c2.25-6.71,4.62-13.11,6.84-19.3,2.15-6,4.13-12,5.8-18,.84-3,1.6-6,2.26-8.86l.87-4.25.17-1,.08-.5,0-.24a15.31,15.31,0,0,0,3.6,12.34,15.83,15.83,0,0,0,20,3.2l-.58.34-1.17.68-2.33,1.34-4.65,2.6c-3.13,1.71-6.28,3.36-9.48,5-6.4,3.2-13,6.2-19.92,8.88a118,118,0,0,1-22.78,6.45,57.5,57.5,0,0,1-14.46.55,34.11,34.11,0,0,1-18.49-7.36,36.69,36.69,0,0,1-4.16-4.2,43.65,43.65,0,0,1-3.14-4.78,50.83,50.83,0,0,1-2.09-4.84c-.46-1.52-.87-3.06-1.24-4.6a49.64,49.64,0,0,1,0-15.65,186.53,186.53,0,0,1,4.68-21.73c3.53-13.42,7.26-26.09,10.51-38.81s6.13-25.29,8.13-37.8c.53-3.13,1-6.26,1.33-9.37s.77-6.22,1.1-9.65l2.08-20.05,8.7-80.25L600,807.36l2.58-20.14,1.4-10.13c.5-3.49.94-6.59,1.63-10.63l-.18,1.23.67-4.13.55-3.21,1.15-6.35,2.41-12.62q2.46-12.6,5.18-25.12,5.43-25.05,11.84-49.93c8.64-33.15,18.64-66.08,31.62-98.48l1.84,16.28q-33.55-48.09-63-98.58c-19.64-33.72-38-68.3-54-104.26s-29.81-73.27-37.91-113c-3.93-19.87-6.33-40.46-5.17-61.71s6.27-43.36,18.23-63l2.18-3.68a46.23,46.23,0,0,1,11.43-12,69.87,69.87,0,0,1,17-9c11.18-4.12,21.86-5.92,32.31-7.1,20.87-2.23,40.91-1.68,60.74-.41,39.59,2.74,78.2,8.84,116.5,16,76.53,14.55,151.64,33.43,226.25,54.77l-13.28,1.6a678.77,678.77,0,0,1,76-37.35,705.7,705.7,0,0,1,80-27.48,743.89,743.89,0,0,1,82.62-17.61c6.94-1.19,13.92-1.94,20.87-2.94l20.4-2.72c13.83-1.81,27.84-3.4,41.93-4.45l41.74-1.81c13.87-.65,27.89-1.18,42-1.21a745.58,745.58,0,0,1,84.35,4.47,705.57,705.57,0,0,1,83.33,14.64,676.94,676.94,0,0,1,80.89,25l-13.37.49C1683,100,1754.2,69.62,1827.51,43.29c36.72-13,73.89-25.07,112.57-34,19.38-4.36,39.1-8,60.06-9.1,10.5-.47,21.33-.35,33,2a69.77,69.77,0,0,1,18.17,6.26,50.88,50.88,0,0,1,9.16,6.16,54.1,54.1,0,0,1,4,3.91l2.73,3.3c14.87,17.49,23.4,38.67,27.84,59.34s5.32,41.52,4.55,61.76c-1.79,40.51-9.57,79.57-19.77,117.54s-22.92,75.05-37.05,111.42-29.76,72.06-46.85,107.22l-.72-16.36c17.89,30,32.92,60.93,46.63,92.33q10.22,23.57,19.5,47.46,4.64,12,9.05,24l4.35,12.09,2.12,6.09,1.06,3.09,1.3,4-.38-1.19c1.32,3.89,2.24,6.88,3.29,10.24l3,9.79,5.7,19.49,11,38.94,21.14,77.89,5.19,19.49c.86,3.33,1.73,6.4,2.59,9.36s1.77,6,2.78,9c3.93,12.05,8.73,24.05,13.93,36.07s10.87,24,16.46,36.69a187.27,187.27,0,0,1,8,20.73,49.77,49.77,0,0,1,2.47,15.45c-.12,1.58-.29,3.17-.5,4.74s-.81,3.43-1.31,5.1a44.91,44.91,0,0,1-2.35,5.22,37.51,37.51,0,0,1-3.46,4.8,34.06,34.06,0,0,1-17.11,10.16,57.59,57.59,0,0,1-14.37,1.72,118.09,118.09,0,0,1-23.51-2.82c-7.28-1.56-14.24-3.49-21.06-5.65q-5.11-1.63-10.13-3.43l-5-1.84-2.5-1-1.25-.49-.63-.25a15.84,15.84,0,0,0,19.24-6.29,15.36,15.36,0,0,0,2.13-10.61A14.94,14.94,0,0,0,2092,951l.08.24.15.48.33,1,1.51,4.07c1.1,2.77,2.3,5.59,3.59,8.41,2.58,5.65,5.45,11.31,8.5,16.92,3.14,5.78,6.47,11.73,9.73,18a143.45,143.45,0,0,1,9.22,21,58.38,58.38,0,0,1,2.9,13.95,37,37,0,0,1-3.17,18.21,37.56,37.56,0,0,1-11.65,14,52.17,52.17,0,0,1-12.95,7.06,90.44,90.44,0,0,1-24.21,5.34c-3.89.38-7.72.53-11.52.58l-5.66-.06h-.7l-.2,0-.35,0c-.24,0-.45,0-.72,0-2.18.34-6,2.14-10,5.27a87.59,87.59,0,0,0-11.9,11.71c-7.79,9.14-15,19.75-22.12,30.8l-28.45-19,17.6-25.35,27.8,20-.14.14.71-1-18,26-4.09,3.92a15.46,15.46,0,0,0,2.26-1.81c.34-.33.68-.69,1-1l.69-.86-.15.2-.31.4-.6.8L2010,1132l-2.43,3.2-5,6.3c-3.34,4.17-6.73,8.31-10.22,12.36q-10.4,12.19-21.57,23.68t-22.91,22.31c-7.7,7.15-16.25,14.42-24.63,20.87a567.24,567.24,0,0,1-108.75,66.42l-23.79,11.07-2.1-26.19,0-.3,25.83,15.14c-26.08,11.72-51.69,21.9-78.09,31.21-13.12,4.7-26.37,9-39.64,13.24-6.65,2.06-13.54,4.33-20.29,6.17l-20.28,5.11c-13.5,3.55-27.11,6.55-40.63,9.43s-27.14,5.58-40.76,8.12c-27.27,4.91-54.66,9.2-82.31,11.94A5.75,5.75,0,0,1,1490,1361c26.16-9.07,52.44-17.25,78.65-25.52l78.48-24.38,19.48-6.13,19-6.62c12.85-4.53,25.57-9.4,38.33-14.13,25.3-9.71,51-19.65,75.23-30.44l23.85-10.62,2,25.77,0,.3-25.9-15.11c36.3-16.92,71.31-36.58,102.83-60.88,8-6.06,15.24-12.09,22.72-18.9q11.11-10,21.58-20.63c7-7.11,13.64-14.48,20.1-22,3.25-3.77,6.39-7.61,9.49-11.48l4.6-5.85,2.25-3,1.13-1.49.56-.73.28-.38.14-.18.76-.95c.34-.4.69-.79,1.06-1.16a19.58,19.58,0,0,1,2.4-2l-4.08,3.92,16.61-24,.7-1,.14-.14,27.8,20-17.6,25.36-28.45-19c7.44-11.48,15.27-23.2,24.9-34.53a120.71,120.71,0,0,1,16.84-16.42c6.61-5.06,14.73-10.23,25.88-12.11,1.39-.2,2.87-.26,4.3-.35l2.16-.09,1.06,0h.56l4.4,0c2.92,0,5.81-.15,8.59-.43a57.29,57.29,0,0,0,15-3.17c4.27-1.5,6.25-3.86,5.94-3.61a4.4,4.4,0,0,0,.06-1.46,26.51,26.51,0,0,0-1.3-5.69,111.54,111.54,0,0,0-7.07-15.81c-2.92-5.64-6.14-11.41-9.41-17.42-3.35-6.19-6.57-12.5-9.57-19.07-1.49-3.28-2.94-6.63-4.31-10.11-.67-1.75-1.34-3.52-2-5.36l-.48-1.41-.24-.72-.11-.36a20.55,20.55,0,0,1-.66-2.74,18.9,18.9,0,0,1,2.59-13,18.6,18.6,0,0,1,5.42-5.62,18.39,18.39,0,0,1,17.08-1.81l.55.21,1.09.43,2.19.84,4.44,1.63c3,1.07,6,2.08,9,3,6,1.89,12,3.54,17.81,4.79a84.68,84.68,0,0,0,16.41,2.07,23.46,23.46,0,0,0,5.58-.57c1.23-.31,1-.58.13.38s-.94,2.14-.84,1.32c-.14.13-.16-1.73-1.07-4.28a155.52,155.52,0,0,0-6.57-16.79c-5.21-11.87-11.07-24.21-16.5-36.8s-10.67-25.58-15.07-39.06c-1.12-3.35-2.19-6.74-3.14-10.2s-2-6.88-2.78-10l-5.17-19.43-21.06-77.59-10.88-38.61-5.6-19.16-2.87-9.49-2.85-8.94-.37-1.19L2042.47,650l-4.22-11.72q-4.27-11.71-8.8-23.37-9-23.28-19-46.17c-13.3-30.44-27.84-60.3-44.56-88.31l-4.78-8,4.06-8.35c16.6-34.16,31.89-69.17,45.7-104.61S2037,288,2046.78,251.58s17-73.43,18.63-110c.71-18.21-.14-36.32-3.8-53.23S2051.35,56,2041.19,44l-1.84-2.3c-.62-.76-.78-.7-1.14-1.14a17.35,17.35,0,0,0-2.83-1.86,36.48,36.48,0,0,0-9.09-3c-7.23-1.47-15.81-1.73-24.54-1.3-17.55.86-35.91,4.17-54.09,8.28-36.46,8.38-72.75,20.1-108.65,32.83-71.78,25.78-142.49,55.92-211.87,88.21l-6.58,3.07-6.79-2.57a643.83,643.83,0,0,0-76.7-23.71,672.34,672.34,0,0,0-79.15-13.9,709.39,709.39,0,0,0-80.38-4.25c-13.43,0-26.9.53-40.51,1.17l-40.71,1.74c-13.35,1-26.69,2.51-40.13,4.26l-20.51,2.74c-6.66,1-13.37,1.68-20,2.82A709.68,709.68,0,0,0,1137,151.88,672.48,672.48,0,0,0,1061,178a646.31,646.31,0,0,0-72.05,35.41L982.6,217l-7-2c-73.58-21-148.13-39.77-223-54-37.46-7-75.14-12.87-112.46-15.44-18.59-1.22-37.24-1.62-54.72.27-8.68.94-17.12,2.55-24,5.13a36.5,36.5,0,0,0-8.51,4.39,16.89,16.89,0,0,0-2.5,2.28c-.28.49-.46.46-.94,1.3L548,161.49c-8.18,13.39-12.3,29.75-13.25,47s1,35.29,4.57,53.17c7.29,35.84,20.23,71.32,35.59,105.71S608,435.43,627.18,468.29s39.76,65,61.5,96.18l5.32,7.61-3.48,8.66c-12.13,30.28-21.83,62-30.19,94.19q-6.23,24.14-11.52,48.57c-1.76,8.14-3.46,16.29-5,24.46l-2.33,12.24-2,11.23-.18,1.24L637.82,782l-1.35,9.81-2.54,19.81-4.7,39.83-8.67,79.93-2.07,20c-.31,3.26-.72,6.76-1.17,10.36s-.93,7.08-1.51,10.57c-2.24,14-5.35,27.61-8.78,40.93s-7.25,26.39-10.54,38.93a157.78,157.78,0,0,0-3.87,17.61c-.49,2.66-.23,4.5-.39,4.4.24.79,0-.31-1-1.18s-1.2-.51.07-.39a24,24,0,0,0,5.6-.31,85,85,0,0,0,15.89-4.61c5.58-2.15,11.23-4.71,16.84-7.52,2.8-1.41,5.6-2.87,8.37-4.39l4.12-2.3,2-1.18,1-.6.51-.3a18.67,18.67,0,0,1,8.29-2.56,18.53,18.53,0,0,1,15.11,6.38,18.87,18.87,0,0,1,4.61,12.48,19.57,19.57,0,0,1-.23,2.81l0,.37-.12.75-.25,1.47c-.34,1.93-.72,3.78-1.11,5.61-.8,3.65-1.69,7.19-2.65,10.68-1.91,7-4.09,13.7-6.42,20.34-2.27,6.46-4.53,12.67-6.51,18.7a110.42,110.42,0,0,0-4.45,16.7,25.35,25.35,0,0,0-.36,5.76,4,4,0,0,0,.26,1.29,14.43,14.43,0,0,0,6.26,2.46,57.08,57.08,0,0,0,15.24.72c2.79-.17,5.64-.52,8.51-.94,1.44-.21,2.89-.51,4.33-.76l.54-.09,1.07-.15,2.17-.26c1.45-.14,2.93-.32,4.35-.34,11.44.08,20.36,3.92,27.74,7.88a121.17,121.17,0,0,1,19.36,13.57c11.38,9.66,21,20,30.23,30.14l-26.47,24.5-21.46-22.19,25.86-25.59.17.11.9,1,20.17,21-5-3.46a20.34,20.34,0,0,1,3.2,2,21.86,21.86,0,0,1,1.95,1.68l.2.19.37.36.75.72,1.51,1.44,3,2.88,6.15,5.66c4.12,3.74,8.35,7.38,12.61,11,8.57,7.15,17.36,14,26.44,20.56s18.41,12.81,27.81,18.64c9.27,5.66,19.12,11.08,29,16.23a540.75,540.75,0,0,0,61.67,26.84c10.45,3.85,21.48,7.52,31.83,10.67,2.48.83,5.26,1.52,8.08,2.2l8.36,2,16.73,4.14c11.15,2.79,22.27,5.82,33.3,8.25l33.66,7.32c22.48,4.76,45.11,9.26,67.55,12.86q68.46,10.83,137.34,20.21h0a5.72,5.72,0,0,1-.6,11.39Z"/><path class="cls-3" d="M717.45,1118.87c.25.28.54.53.79.81l-1-.91A1.4,1.4,0,0,1,717.45,1118.87Z"/><path class="cls-3" d="M1996.52,1018.26s.11-.08.14-.12l-.9,1.17C1996,1019,1996.28,1018.62,1996.52,1018.26Z"/><g class="cls-2"><path class="cls-3" d="M722.22,1179.59c.27.27.55.57.83.84l-1-.94A1.4,1.4,0,0,1,722.22,1179.59Z"/><path class="cls-3" d="M723.05,1180.43l20.21,19.3c-.08,0-.12-.1-.2-.13Q732.74,1190.38,723.05,1180.43Z"/></g><path class="cls-8" d="M717.4,1117.9c.28.27.56.58.84.85l-1-1,.15.1Z"/><path class="cls-8" d="M1996.22,1017.53c.07-.08.14-.15.2-.23l-.66.89C1995.93,1018,1996.06,1017.76,1996.22,1017.53Z"/><path class="cls-3" d="M1422.27,934.13c1.14,14.5-16.77,28.8-33.45,38.87a62.36,62.36,0,0,1-56.67,4.46c-18.05-7.34-38-18.66-39.12-33.16C1289.59,900.56,1418.83,890.39,1422.27,934.13Z"/><g class="cls-6"><path class="cls-1" d="M1382.41,926.22c.25,3.12-7,6.47-13.78,8.88a43.9,43.9,0,0,1-22.47,1.77c-7-1.33-14.75-3.5-15-6.62C1330.43,920.84,1381.67,916.81,1382.41,926.22Z"/></g><path class="cls-3" d="M1262.78,1011.85a108.42,108.42,0,0,0,13.08,14.44,54,54,0,0,0,15,9.92,37.85,37.85,0,0,0,15.67,3.09c2.69-.48,5.36-.36,8.1-1.4,1.36-.45,2.75-.64,4.12-1.15l4.09-1.72c10.92-4.56,18.68-12.92,23.76-24.11,5-11,6.88-25.27,6.86-38.19v-.87a8.56,8.56,0,0,1,16.85-2.17,91.13,91.13,0,0,1,2.81,24.65,80.94,80.94,0,0,1-4.18,25c-5.16,16.62-18.58,32.43-35.22,39.42l-6.17,2.67a61.68,61.68,0,0,1-6.59,1.89c-4.35,1.37-9.22,1.51-13.88,1.93a57.68,57.68,0,0,1-27.3-7,67.39,67.39,0,0,1-20.09-17.13,78.65,78.65,0,0,1-12.42-22,8.57,8.57,0,0,1,14.83-8.18Z"/><path class="cls-3" d="M1484.53,1000.53a78.28,78.28,0,0,1-8.83,23.65,67.43,67.43,0,0,1-17.16,20.06,57.61,57.61,0,0,1-25.88,11.16c-4.67.31-9.5.94-14,.27a63.64,63.64,0,0,1-6.81-.84l-6.5-1.67c-17.53-4.3-33.25-17.82-40.95-33.42a81,81,0,0,1-8-24.08,90.88,90.88,0,0,1-1.08-24.79,8.56,8.56,0,0,1,17-.49l.13.87c2,12.76,6,26.52,12.75,36.65s15.74,17.29,27.24,20.1l4.31,1c1.43.29,2.83.26,4.24.49,2.88.6,5.49.06,8.23.11a37.52,37.52,0,0,0,15-5.5,53.89,53.89,0,0,0,13.31-12.14,109.74,109.74,0,0,0,10.66-16.31l.5-.92a8.56,8.56,0,0,1,15.92,5.75Z"/><ellipse class="cls-9" cx="1746.51" cy="1037.13" rx="73.72" ry="35.39" transform="translate(-75.95 140.15) rotate(-4.5)"/><ellipse class="cls-9" cx="998.32" cy="1095.36" rx="73.72" ry="35.39" transform="translate(-82.82 81.66) rotate(-4.5)"/><ellipse class="cls-3" cx="1097.29" cy="851.98" rx="100.82" ry="139.25" transform="translate(-63.43 88.67) rotate(-4.5)"/><ellipse class="cls-1" cx="1121.24" cy="828.1" rx="30.46" ry="46.76" transform="translate(-61.48 90.47) rotate(-4.5)"/><path class="cls-3" d="M1714.74,771.17a435.25,435.25,0,0,0-44,19.19,288.52,288.52,0,0,0-39.37,24.18c-6.22,4.32-11.78,9.33-17.53,14l-8,7.73c-1.29,1.33-2.74,2.49-4,3.87l-3.65,4.15c-10.24,10.65-18.11,23.18-25.85,35.84l-30.2-29.85c1.4-.71,2.27-1.08,3.22-1.51s1.89-.84,2.79-1.19c1.81-.72,3.63-1.44,5.41-2,3.58-1.32,7.15-2.37,10.71-3.43a174.89,174.89,0,0,1,21.65-4.6,164,164,0,0,1,43.8-.72c14.46,1.76,28.71,5.13,41.88,10.86,13.32,5.27,25.34,13.12,36.21,21.66a7.67,7.67,0,0,1-6.53,13.48l-.89-.22c-6.32-1.53-12.19-3.67-18.27-5s-12-2.75-18.1-3.35a163.61,163.61,0,0,0-35.62-1.53,167,167,0,0,0-34.5,5.39c-2.81.69-5.56,1.61-8.33,2.38l-8.14,2.78c-2.65,1-5.31,2-7.82,3.16-1.31.53-2.49,1.13-3.69,1.7-.62.29-1.2.56-1.7.83l-1.21.63-.44.23a22.15,22.15,0,0,1-29.87-9.43,22.4,22.4,0,0,1,.11-20.65c8.79-16.46,18.71-32.77,32-46.22,6.08-7.23,13.62-12.95,20.64-19.14,7.65-5.38,15.08-11.06,23.35-15.31a188.43,188.43,0,0,1,51-19.69c17.76-3.86,35.43-5.56,53.87-3.39a7.7,7.7,0,0,1,1.83,14.86Z"/><path class="cls-1" d="M1075.81,1517.68s-13,324.26,241.74,341c192.28,12.63,221.58-51.55,358.8-61.27,151.79-10.76,123.33-116.51,123.33-116.51s32.76-18.27,36-54.89c2.81-32-18.34-58.41-18.34-58.41s4.55-41.16-24-68.62c-59.57-57.27-181.32-76.94-282.52,12.63-36.16,32-78.12,45.37-121.62,37.42Z"/><g class="cls-2"><path class="cls-3" d="M1835.89,1618.87a69.24,69.24,0,0,1-.26,7.15c-3.21,36.59-36,54.87-36,54.87s28.46,105.77-123.32,116.51c-137.22,9.72-166.54,73.92-358.81,61.29-119.38-7.83-180-83.25-210.63-161.19,35.69,52.48,91.51,94.29,178.74,100,192.27,12.63,221.29-65.45,358.77-61.29,143.69,4.32,117.5-75.51,117.5-75.51S1812.47,1656.88,1835.89,1618.87Z"/></g><path class="cls-3" d="M1389.63,1546.44a182.46,182.46,0,0,0,31.24-3.5,150.67,150.67,0,0,0,28.6-9.19c18.15-7.89,34.28-19.3,48.65-32.84,32.39-30.86,74.61-55,120.4-64.65a228.73,228.73,0,0,1,70.07-3.71,213.92,213.92,0,0,1,68.06,18.78,189.85,189.85,0,0,1,30.93,18.08c4.85,3.55,9.58,7.32,14.1,11.37a102.53,102.53,0,0,1,13.49,14.25,98.19,98.19,0,0,1,17.29,35.67,109.36,109.36,0,0,1,3.32,18.92c.31,3.18.47,6.35.51,9.57,0,1.6,0,3.25,0,4.88-.08,1.79-.12,3.1-.36,5.57l-4-13.74c1.49,1.94,2.26,3.07,3.24,4.53s1.79,2.76,2.64,4.14c1.67,2.77,3.22,5.57,4.66,8.44a111.28,111.28,0,0,1,7.24,18c3.82,12.46,5.66,26.27,3.65,40.1a82.65,82.65,0,0,1-5.34,20.16,92.64,92.64,0,0,1-10,17.88,101.12,101.12,0,0,1-13.19,14.9c-2.42,2.23-4.91,4.36-7.55,6.36-1.31,1-2.67,2-4.07,2.94s-2.64,1.79-4.86,3.08l8.49-20.14a88,88,0,0,1,1.85,10.33c.28,3.19.67,6.37.7,9.54a110.28,110.28,0,0,1-1,19,116.08,116.08,0,0,1-4.27,18.8l-3.59,9.09c-1.1,3.06-3,5.79-4.49,8.68-2.9,5.9-7.32,10.75-11.18,16-2.2,2.35-4.54,4.56-6.82,6.81a51.12,51.12,0,0,1-7.17,6.3c-5.12,3.62-10,7.8-15.57,10.39-5.42,2.83-10.76,6.1-16.41,7.94-22.29,9.15-45.22,13.22-67.72,15-2.91.21-5.47.45-8,.72l-7.68.76c-5.1.61-10.28.79-15.32,1.73L1635,1819.8c-5.07.8-10,2.07-15.08,3.08a542.54,542.54,0,0,0-59.89,17.3c-20.1,6.85-40.74,14.07-62.08,20a448.11,448.11,0,0,1-65.35,13.18c-11,1.21-22.09,2.6-33.13,3l-16.56.9-16.51.07c-5.49,0-11,.17-16.5.08l-16.42-.62-16.42-.63-17-1.65-8.48-.89-8.44-1.51c-5.62-1.1-11.3-1.84-16.87-3.28l-16.68-4.54c-5.55-1.56-10.89-3.87-16.35-5.8a226.09,226.09,0,0,1-60.09-34.87,233.11,233.11,0,0,1-46.14-51.27c-25.48-38.09-40.48-81.1-48.8-124.27-1-5.42-2-10.82-2.75-16.27s-1.62-10.85-2.21-16.29c-1.27-10.89-2-21.81-2.54-32.69-.73-21.81-.46-43.53,2.43-65.19a2.63,2.63,0,0,1,5.23.1v.11A639.55,639.55,0,0,0,1102.57,1642c12.18,39.85,29.21,77.93,53.09,110.07,12,16,25.41,30.66,40.78,42.83a211,211,0,0,0,50.41,29.73c18,7.83,37.57,12.43,57.44,15l15,1.66,15.68.78,15.68.79c5.22.15,10.42.06,15.63.1,41.71,0,82.76-4.49,122.51-15.85,20-5.52,39.78-12.44,60.23-19.41a576.88,576.88,0,0,1,63.51-18.31c5.47-1.11,10.89-2.47,16.4-3.35l16.55-2.59c5.5-1,11.06-1.24,16.6-1.89l8.31-.82c2.81-.29,5.57-.55,8-.71,20.14-1.53,39.85-5.59,57.19-12.85s32.2-17.93,40-32.79c.91-1.88,2.24-3.55,2.87-5.57l2.29-5.87a82.57,82.57,0,0,0,2.7-12.51,73.32,73.32,0,0,0,.59-13c0-2.18-.34-4.34-.52-6.48-.26-2-.71-4.56-1-5.48a17.89,17.89,0,0,1,7.37-19.39l1.13-.74,2-1.34c.83-.58,1.67-1.2,2.51-1.87,1.67-1.31,3.3-2.74,4.86-4.22a65.36,65.36,0,0,0,8.26-9.61,56.65,56.65,0,0,0,5.75-10.63,46.17,46.17,0,0,0,2.78-11.35c1.06-7.74-.06-16.07-2.71-24.3a75.53,75.53,0,0,0-5.12-12.18c-1-2-2.14-3.92-3.31-5.79l-1.79-2.71c-.53-.8-1.35-1.88-1.51-2.1a19.26,19.26,0,0,1-4-12.57l0-1.16.09-2.5c0-1.07,0-2.11,0-3.21-.06-2.16-.2-4.37-.45-6.55a75.57,75.57,0,0,0-2.43-12.85,60.17,60.17,0,0,0-10.8-22c-4.45-5.74-12.37-12.46-19.94-17.88a158.59,158.59,0,0,0-24.81-14.5c-35.08-16.38-75.91-20.94-114.53-13.44a216.6,216.6,0,0,0-81.85,34.65c-4.22,2.74-8.2,5.86-12.31,8.79l-12.26,9.64c-18.15,14.65-39.71,26-62.79,30.95s-47.18,3.35-68-5a2.68,2.68,0,0,1,.92-5.16Z"/><path class="cls-1" d="M1873.27,1303.88s-8.7,68.58,48.19,95.77c21.87,10.45,58.88-3.14,58.88-3.14s15.48,25,69.49,19.26c33.83-3.62,69.87-33.85,69.87-33.85s31.34,9.3,57.87-7.15c37.23-23.08,44.74-99.3,1.09-133C2136.62,1209.35,1907.3,1174.34,1873.27,1303.88Z"/><g class="cls-2"><path class="cls-3" d="M2177.58,1374.77c-26.54,16.43-57.87,7.14-57.87,7.14s-36,30.22-69.89,33.86c-54,5.78-69.47-19.26-69.47-19.26s-37,13.61-58.9,3.13c-56.88-27.18-48.2-95.75-48.2-95.75a106,106,0,0,1,7.15-19.48c3.6,22,14.77,50.85,47.09,66.3,21.87,10.45,58.89-3.17,58.89-3.17s15.5,25,69.47,19.27c33.86-3.6,69.9-33.82,69.9-33.82s31.33,9.29,57.87-7.15c10.61-6.59,18.79-17.46,24.09-30.43C2211.82,1327.17,2200.18,1360.77,2177.58,1374.77Z"/></g><path class="cls-3" d="M2034.24,1433.76c-30.75,0-49-9.72-58.84-17.82-14.82,4-41.35,8.71-61.32-.84-67.28-32.15-58.21-110.07-57.8-113.37a17.82,17.82,0,0,1,.43-2.2c11.34-43.17,43.1-74.77,91.84-91.37,87.46-29.8,208.35-4.78,240.57,20.08,24.56,19,38.16,51.07,36.38,85.91-1.67,32.52-16.58,61.33-38.91,75.17-23.38,14.5-49.22,13.11-62.62,11-13,9.63-42.74,29.35-72.33,32.5A164.51,164.51,0,0,1,2034.24,1433.76Zm-39.49-46.55c1.81,2.18,14.7,15.65,53.26,11.53,23.5-2.51,51.77-22.46,60.68-29.93a17.11,17.11,0,0,1,15.88-3.31c.15,0,24.56,6.76,44-5.28,12.75-7.9,21.68-26.67,22.76-47.83,1.21-23.62-7.43-45-23.1-57-22.25-17.17-129.56-41.71-208.6-14.78-37.42,12.74-60.77,35.1-69.44,66.44-.72,8-3.25,57.15,38.68,77.2,11.6,5.55,35.73-.15,45.6-3.77C1982.47,1377.49,1990.75,1379.75,1994.75,1387.21Z"/><g class="cls-6"><path class="cls-1" d="M2479.2,1541c5.19-55.4,65.32-157,233.73-178.58,173.63-22.26,349.49,117.24,284.94,150.63-33.95,17.56-132.82-10.39-327.23,50.46C2567,1596,2472.59,1611.46,2479.2,1541Z"/></g></g></g></svg>