<svg xmlns="http://www.w3.org/2000/svg" viewBox="0 0 2516.59 2596.53"><defs><style>.cls-1{fill:#fff;}.cls-2{opacity:0.2;}.cls-3{fill:#000072;}.cls-4{opacity:0.3;}.cls-5{fill:#f9744b;}.cls-6{opacity:0.5;}.cls-7{fill:#fa508e;}.cls-8{fill:#f27e80;}.cls-9{fill:#ff0660;}.cls-10{opacity:0.7;}</style></defs><g id="Camada_2" data-name="Camada 2"><g id="Layer_1" data-name="Layer 1"><path class="cls-1" d="M2082.78,1763.14c-98.25,248.33-307.59,230.41-428,154.75-38.82-24.38-68.39-54.79-82-84.19l55.26-309.58L1653,1384.37l5.77-32.45s18.57,73.61,56.12,140.81c41.29,73.66,105.47,139.58,193.14,91.88C1908.06,1584.61,2139.91,1618.72,2082.78,1763.14Z"/><g class="cls-2"><path class="cls-3" d="M2082.78,1763.14c-129.94,328.4-454.13,191.16-510,70.56l37.85-275.88c113.58,134.83,241,586,462.12,106.35C2091.74,1689.28,2099.17,1721.64,2082.78,1763.14Z"/></g><path class="cls-3" d="M1822.66,1984.69c-54,0-111-15.21-161.29-43.19-49.1-27.31-87-64-104-100.68a17,17,0,1,1,30.84-14.27c28.28,61.11,134.43,127.12,241.5,124.06,74.08-2.1,175.37-37.4,237.21-193.7,11.13-28.14,10.5-52.28-1.93-73.78-18.56-32.12-60.41-52.57-92.24-64.06a401.79,401.79,0,0,0-62-16.74c-37.32,18.73-73.84,20.5-108.64,5.26-107.22-47-157.79-243.18-159.89-251.51a17,17,0,0,1,33-8.31h0c.48,1.88,48.59,188.43,140.6,228.7,26.7,11.69,54.2,9.47,84.07-6.77l5-2.71,5.61.83c5.67.83,139.43,21.3,183.93,98.3,17.72,30.65,19.1,65.4,4.11,103.29-28.67,72.45-68.45,127.74-118.26,164.31-43.82,32.18-94.14,49.29-149.59,50.86C1828,1984.65,1825.35,1984.69,1822.66,1984.69Z"/><path class="cls-1" d="M1525.25,1882.08s153.81,60.93,170.2,211.52c22.84,209.89-153.2,328.33-153.2,328.33H1188.76V1865.72"/><g class="cls-2"><path class="cls-3" d="M1693.51,2182.15c-24.3,154.36-151.27,239.79-151.27,239.79h-353.5v-60h227.53c116.39,0,224.12-65.73,273.37-171.19Q1691.64,2186.51,1693.51,2182.15Z"/></g><path class="cls-3" d="M1547.43,2438.92H1171.77v-573.2a17,17,0,0,1,34,0v539.22h331c11.48-8.56,45.72-35.88,77.66-79.5,51.5-70.34,73.07-147.72,64.12-230-6.27-57.63-34.7-108.22-84.48-150.38-38-32.16-74.74-47-75.11-47.19a17,17,0,0,1,12.53-31.58c1.68.66,41.51,16.65,83.64,52.07,24.88,20.93,45.48,44.37,61.23,69.68a245.29,245.29,0,0,1,36,103.72,348.39,348.39,0,0,1-15,147c-12.33,37.66-31.23,73.94-56.21,107.82-42.41,57.56-87.46,88.2-89.35,89.48Z"/><path class="cls-1" d="M1497.87,2407.81c50.48-28.91,132.85-10.8,145.75,22.69,10.32,26.82,6.83,75.33-28.15,97.39-28,17.66-68.61,17.62-169.15,17.32H947.89V2152.34Z"/><g class="cls-4"><path class="cls-3" d="M1615.48,2527.88c-28,17.67-68.6,17.62-169.15,17.33H947.89V2152.33l6,2.76v329.76h498.44c100.54.29,141.15.34,169.15-17.29a67.16,67.16,0,0,0,24.76-28.34C1652.94,2466.83,1646.91,2508,1615.48,2527.88Z"/></g><path class="cls-3" d="M1496.47,2405.35a97.26,97.26,0,0,1,27.09-14.66,134,134,0,0,1,30.41-6.94c5.2-.55,10.44-.86,15.69-.91s10.53.23,15.81.74a154.27,154.27,0,0,1,15.83,2.46,128.7,128.7,0,0,1,15.75,4.44,97.3,97.3,0,0,1,15.54,7,69.89,69.89,0,0,1,14.88,11,53.49,53.49,0,0,1,6.65,7.87c.51.74,1,1.48,1.48,2.29s1,1.58,1.38,2.43.87,1.68,1.26,2.57c.18.42.42.92.56,1.27l.42,1.08a91.62,91.62,0,0,1,4.68,17.21,112.77,112.77,0,0,1,.63,34.35,102.38,102.38,0,0,1-10.45,33.58,84.81,84.81,0,0,1-23.61,28.22,80.66,80.66,0,0,1-7.69,5.21c-2.59,1.57-5.27,3-8,4.31a110.4,110.4,0,0,1-16.43,6.24,154.27,154.27,0,0,1-16.23,3.74q-8,1.43-15.76,2.21c-10.37,1.09-20.51,1.69-30.54,2-40,1.22-78.94.16-118.14-.1l-58.72-.53c-19.58-.17-39.16-.15-58.73-.23l-58.73.15-58.73.38c-78.3.62-156.6,1.71-234.91,1l-18.65-.17.15-18.33.4-49.11.6-49.11c.45-32.74,1-65.48,2.06-98.22s2.49-65.47,4.49-98.21q1.47-24.55,3.43-49.11c1.33-16.37,2.79-32.74,4.69-49.11a2.85,2.85,0,0,1,5.66,0c1.91,16.37,3.37,32.74,4.69,49.11s2.46,32.74,3.44,49.11q3,49.11,4.49,98.21c1,32.74,1.6,65.48,2,98.22l.61,49.11.4,49.11-18.51-18.5c78.31-.73,156.63.36,234.94,1l58.73.38,58.73.14c19.58-.08,39.16-.05,58.74-.22l58.73-.53,29.37-.3,29.35-.18c19.5-.07,39-.29,58-.92,9.53-.36,19-.82,28.06-1.73a154.89,154.89,0,0,0,25.75-4.37,75,75,0,0,0,11.09-3.9,56.79,56.79,0,0,0,9.54-5.47,49.26,49.26,0,0,0,14.16-16.12,68.1,68.1,0,0,0,7.59-22,82.28,82.28,0,0,0,.55-24.16,61.8,61.8,0,0,0-2.5-11.22l-.35-1.07a7.77,7.77,0,0,0-.26-.77c-.09-.26-.21-.53-.34-.81s-.27-.56-.42-.84a22.27,22.27,0,0,0-2.48-3.61,45,45,0,0,0-8-7.26,82.45,82.45,0,0,0-10.61-6.29,112.38,112.38,0,0,0-12-5.08,128.72,128.72,0,0,0-12.83-3.89c-4.36-1.14-8.82-2-13.33-2.76s-9.07-1.27-13.65-1.6c-18.35-1.32-37.21.4-55.17,7.17h0a2.86,2.86,0,0,1-2.77-4.93Z"/><path class="cls-1" d="M2013.23,1509c0-17.38,16.43-91.45,65.33-74.92,63.84,21.58-5.46,137.67-9,167.83"/><path class="cls-3" d="M2069.59,1618.92a16.73,16.73,0,0,1-2-.12,17,17,0,0,1-14.9-18.85c1.14-9.74,6.38-23.26,13-40.39,12-30.82,30-77.39,19.9-99-2.36-5-6.21-8.23-12.5-10.35-7.42-2.51-13.18-1.88-18.64,2-15.76,11.3-24.26,45.36-24.26,56.78a17,17,0,1,1-34,0c0-15.17,9.11-63.35,38.43-84.39,14.44-10.36,31.5-12.65,49.33-6.63,14.95,5.06,26.15,14.79,32.4,28.15,16.26,34.77-4.12,87.33-19,125.7-5.07,13.08-10.32,26.61-11,32.05A17,17,0,0,1,2069.59,1618.92Z"/><path class="cls-1" d="M51.53,1993.66A729.33,729.33,0,0,0,77,2065.44c189.25,456.33,750.62,446,750.62,446l17.11-128.61c-17.48-3-35.09-6.24-52.8-9.91-214.75-43.84-438.86-136.68-531.46-309.33-42-78.34-57-170-50.69-251.71,9.41-121.78,66.19-221.64,151.64-222.83,54.13-.73,61,62,61.79,78.16,4.26,94.53,42.47,148.29,128.24,139.48,26.79-2.75,57.52-26.1,77.38-64.49,25-48.34,32.79-120.58-6.24-205.8C473.79,1211.39-132.85,1373.44,51.53,1993.66Z"/><path class="cls-5" d="M130.41,1470.81c-16.77,62.62-35.79,198.9,109.64,215.88,26.49-58.25,68.41-96.89,121.36-97.63,54.13-.73,61,62,61.79,78.16,4.26,94.53,42.47,148.29,128.24,139.48,26.79-2.75,57.52-26.1,77.38-64.49,25-48.34,32.79-120.58-6.24-205.8C533.38,1341.56,279.63,1321.78,130.41,1470.81Z"/><g class="cls-6"><path class="cls-1" d="M622.58,1576.41c14.66,32,22.72,62.19,25.74,90,4.53-40-1.73-87.54-25.74-140C490.66,1238.24-1.14,1333,17.53,1790.41,35.28,1376.39,495.61,1299.06,622.58,1576.41Z"/></g><g class="cls-2"><path class="cls-3" d="M209.77,1811.89c9.41-121.78,66.19-221.64,151.64-222.83,54.13-.73,61,62,61.79,78.16,4.26,94.53,42.47,148.29,128.24,139.48,26.79-2.75,57.52-26.1,77.38-64.49-25,13.12-54.22,16.84-83,14.45-66.1-5.37-79.44-86.18-88.75-171-10.88-98.89-172.42-105.49-218.84,25.37C212.39,1683.78,207.85,1757,209.77,1811.89Z"/></g><g class="cls-2"><path class="cls-3" d="M77,2065.44c189.25,456.33,750.62,446,750.62,446l17.11-128.61c-17.48-3-35.09-6.24-52.8-9.91-82.51,19.18-255.57,36-474.91-72.88C219.54,2251.71,140,2163.05,77,2065.44Z"/></g><path class="cls-3" d="M824.32,2528.48c-11.11,0-46.73-.54-97.84-6.63-56.06-6.68-142.11-21.62-233.7-54.87-103.34-37.53-192.53-90.22-265.08-156.64C136.77,2227.12,72,2122.19,35.25,1998.49c-24.38-82-36.22-160-35.19-231.92,1-66.43,12.84-127.72,35.32-182.17,40.48-98,114.62-171.43,208.77-206.77,74-27.81,153.92-29.31,224.91-4.24a288.62,288.62,0,0,1,97.7,57.87c29.83,26.9,53.82,59.88,71.29,98,20,43.78,29.66,87.1,28.59,128.77-.92,36-10.06,70.14-26.41,98.74-21.67,37.9-55,63.48-87,66.77-40.59,4.17-73.6-4.43-98.11-25.56-29.68-25.58-46.13-69.33-48.89-130-.23-5.17-1.59-23.24-9.16-38.78-7.82-16-19.07-23.39-35.4-23.17-46.75.66-77.33,36-94.74,65.62-50.08,85-64.11,248.47,8.51,383.88,109.54,204.22,405.5,282.23,572.16,310.55a17,17,0,1,1-5.69,33.5c-130.47-22.17-249.9-58.72-345.37-105.7-118.83-58.46-203.29-133.25-251-222.29-34.65-64.6-53.87-143.46-54.1-222-.22-74.83,16.2-144.13,46.24-195.15,14.79-25.1,32.4-44.91,52.35-58.87,21.76-15.22,45.72-23.12,71.21-23.48h1.23c54.19,0,75.76,50.69,77.75,94.38,2.32,51,14.81,86.59,37.13,105.83,17.39,15,41.09,20.72,72.44,17.5,21-2.16,44.93-21.72,61-49.84,14.42-25.22,42.95-94.86-3.58-196.49-68.18-148.92-228.21-180.14-351.06-134-149.6,56.17-288.68,241.61-188.27,579.37,63.53,213.68,210.06,363.69,435.54,445.86,169.51,61.77,322.44,59.85,324,59.81a17,17,0,0,1,.62,34C827.68,2528.46,826.45,2528.48,824.32,2528.48Z"/><path class="cls-1" d="M1688.75,1673.09a1498.05,1498.05,0,0,1-33.94,244.8c-35.09,158.19-87.5,279.85-117.07,345.56-77.77,173.14-117.07,209.12-184.52,251.38-72.47,45.37-283.12,60.2-283.12,60.2H908.47c-65,0-177.09-18.61-199-37.64s-29.57-49.91-49.28-71.79c-168.25-186.82-73.7-385.91,34.45-598.51,65.59-129,126-267.19,171-376,48.81-117.92,79.64-201.39,79.64-201.39s642.44-80.83,676.38,0q14.6,34.86,25.74,69.12l5.57,25.57,26.46,122.08,5.35,24.59A865.84,865.84,0,0,1,1688.75,1673.09Z"/><g class="cls-2"><path class="cls-3" d="M1610.68,2077.82c-26.72,80.79-54.33,144.26-72.94,185.63-77.77,173.14-117.07,209.12-184.52,251.38-72.47,45.37-283.12,60.2-283.12,60.2H934.47l47.87-261h87.76s203.56-421.17,213.24-336.25C1323.31,2327.76,1526.49,2207.76,1610.68,2077.82Z"/></g><path class="cls-3" d="M1645,1359.6c-6.34-14.55-12.75-29-19.44-43.27-3.36-7.13-6.73-14.25-10.23-21.3l-.64-1.32c-.21-.42-.47-1-.58-1.13a11.28,11.28,0,0,0-1-1.45,17.71,17.71,0,0,0-2.81-2.8,38.41,38.41,0,0,0-8.13-4.84,103.91,103.91,0,0,0-20.57-6.43c-7.27-1.61-14.79-2.78-22.38-3.7-15.19-1.88-30.68-2.86-46.22-3.47s-31.18-.78-46.84-.74-31.34.31-47,.7c-31.41.82-62.86,2.15-94.33,3.78s-62.94,3.82-94.41,6.26S1167.46,1285,1136,1288s-62.88,6.14-94.28,9.56q-23.57,2.57-47.09,5.25c-15.67,1.81-31.41,3.68-46.95,5.64l15.41-12.23c-6.33,17.11-12.76,33.93-19.26,50.82s-13.06,33.71-19.72,50.5q-20,50.39-40.76,100.45c-27.76,66.72-56.47,133.07-86.61,198.8q-22.57,49.32-46.22,98.18-11.85,24.4-24,48.7c-8.1,16.18-16.38,32.36-24.53,48.32-16.32,32-32.38,64.06-47.28,96.45s-28.69,65.12-40.19,98.43-20.5,67.26-25.29,101.56-5.15,68.91.52,102.51c1.46,8.39,3.13,16.74,5.33,25l.8,3.09.88,3.07c.6,2,1.14,4.1,1.79,6.12,1.3,4.05,2.57,8.11,4,12.11s3,8,4.54,11.94c.8,2,1.67,3.92,2.5,5.88l1.25,2.94,1.35,2.9,2.7,5.81,2.88,5.72,1.44,2.86,1.53,2.82,3,5.65a364.5,364.5,0,0,0,28.54,42.92c5.32,6.8,10.75,13.53,16.52,20l4.37,5c1.78,2,3.48,4,5.07,6.13a146.83,146.83,0,0,1,8.61,12.54c5.2,8.37,9.47,16.57,13.73,24.09s8.47,14.39,13.16,20c1.16,1.42,2.38,2.72,3.59,4,.62.63,1.24,1.23,1.87,1.82l.95.87.24.21.18.17a1.33,1.33,0,0,1,.19.14,21.63,21.63,0,0,0,3.18,2c1.41.77,3,1.55,4.75,2.3,3.46,1.51,7.27,2.91,11.2,4.22s8,2.51,12.11,3.66c16.51,4.54,33.79,8,51.13,11s34.89,5.31,52.42,7.09,35.1,3,52.26,3h162.14l-1.19,0,9.29-.74,9.39-.82q9.39-.86,18.8-1.83,18.8-1.93,37.55-4.29c25-3.16,49.89-6.85,74.53-11.38s49-9.91,72.57-16.89a299.62,299.62,0,0,0,34-12.15,157.13,157.13,0,0,0,15.37-7.64c1.21-.68,2.33-1.41,3.5-2.1l3.93-2.51c2.65-1.66,5.21-3.37,7.81-5.05,5.13-3.42,10.23-6.84,15.12-10.41,2.49-1.75,4.86-3.6,7.29-5.39s4.76-3.68,7-5.6c4.66-3.76,9.08-7.74,13.45-11.77,2.12-2.08,4.31-4.09,6.37-6.24l3.12-3.19,3-3.27a296.52,296.52,0,0,0,22.74-28c7.11-9.84,13.81-20.11,20.22-30.65s12.49-21.38,18.43-32.35c3-5.46,5.85-11,8.75-16.56s5.71-11.14,8.46-16.79l4.17-8.45,4.09-8.5c2.76-5.65,5.41-11.37,8.12-17.06l8-17.16,7.85-17.25c20.82-46.1,40.31-92.54,57.79-139.85q6.57-17.72,12.77-35.58c2.06-6,4.16-11.9,6.13-17.88s4-11.94,5.94-18q11.64-36,21.83-72.41t18.61-73.34q8.55-36.88,15.39-74.15t11.9-74.85c1.57-12.54,3.28-25.08,4.56-37.66,1.5-12.57,2.55-25.17,3.76-37.78l0-.19a8.21,8.21,0,0,1,16.38,1.07c-.44,12.79-.7,25.61-1.45,38.4-.57,12.81-1.57,25.59-2.45,38.38q-3.19,38.34-8.26,76.52a1490.08,1490.08,0,0,1-28.67,151.35q-9.14,37.45-20.06,74.44c-1.79,6.18-3.69,12.31-5.57,18.46s-3.82,12.27-5.78,18.39q-5.91,18.36-12.25,36.57c-16.86,48.56-36.22,96.31-57.16,143.06l-7.9,17.53-8.11,17.47c-5.49,11.63-11,23.24-16.87,34.75-2.85,5.78-5.87,11.51-8.82,17.26s-6,11.45-9.17,17.14c-6.23,11.39-12.71,22.7-19.65,33.84s-14.24,22.14-22.15,32.85a330,330,0,0,1-25.71,31l-3.49,3.68-3.6,3.6c-2.37,2.42-4.89,4.7-7.34,7-5,4.56-10.11,9.05-15.4,13.23a392.31,392.31,0,0,1-32.48,23.22c-2.75,1.76-5.5,3.55-8.25,5.26l-4.15,2.6c-1.56.92-3.12,1.9-4.69,2.77a189.37,189.37,0,0,1-18.87,9.22,351.85,351.85,0,0,1-37.91,13.36c-25.31,7.45-50.71,12.87-76.15,17.57s-50.91,8.44-76.42,11.66q-19.14,2.41-38.32,4.39-9.58,1-19.2,1.86l-9.63.84-9.74.78-.53,0H907.9c-18.88-.08-37.28-1.37-55.63-3.2s-36.53-4.32-54.7-7.4-36.26-6.75-54.5-11.76c-4.57-1.27-9.14-2.62-13.76-4.17s-9.28-3.23-14.09-5.32c-2.41-1.06-4.85-2.21-7.4-3.59a55,55,0,0,1-8.16-5.33l-1.11-.92c-.21-.17-.32-.27-.45-.39l-.39-.35-1.55-1.41c-1-.95-2-1.92-3-2.9-1.91-2-3.75-4-5.44-6.05-6.85-8.24-12-16.87-16.61-25s-8.69-15.94-13-22.88a115.77,115.77,0,0,0-6.67-9.73c-1.15-1.51-2.34-2.93-3.54-4.29l-4.54-5.17c-6.2-7-12.1-14.28-17.87-21.67a397.82,397.82,0,0,1-31.26-47l-3.39-6.24-1.68-3.12-1.6-3.17-3.19-6.35-3-6.45-1.49-3.23-1.4-3.28c-.93-2.18-1.88-4.35-2.78-6.55-1.72-4.43-3.53-8.82-5.07-13.32-3.24-8.93-6-18.05-8.42-27.25s-4.37-18.51-6-27.87l-1.13-7-.94-7.05c-.33-2.36-.57-4.72-.81-7.08s-.52-4.71-.67-7.08c-.82-9.44-1.13-18.91-1.21-28.36s.35-18.87,1-28.26,1.67-18.72,2.93-28c5.14-37.13,14.75-73.13,26.51-108s25.93-68.71,41-101.86,31.14-65.68,47.34-98c8.13-16.18,16.17-32.14,24.11-48.23s15.74-32.24,23.48-48.43q23.18-48.6,45.27-97.74,44.18-98.28,85.23-198,20.49-49.86,40.42-100,9.91-25.05,19.69-50.17c6.49-16.72,12.94-33.56,19.18-50.23l4.07-10.85,11.33-1.38c15.91-1.93,31.64-3.72,47.46-5.46s31.6-3.43,47.4-5q47.43-4.79,94.92-8.86t95.12-7.15q47.61-3.09,95.35-5c31.83-1.29,63.72-2,95.68-1.61s64,1.71,96.1,5.14a477.75,477.75,0,0,1,48.17,7.45c8,1.76,16,3.78,24,6.36a118.2,118.2,0,0,1,23.79,10.38,52.74,52.74,0,0,1,11.26,8.77,34.14,34.14,0,0,1,4.79,6.3,26.8,26.8,0,0,1,1.85,3.76c.31.74.41,1.1.59,1.59l.5,1.42c2.6,7.57,5.12,15.16,7.48,22.8,4.74,15.27,9,30.69,12.48,46.25a2.62,2.62,0,0,1-5,1.62Z"/><path class="cls-3" d="M1988.75,1240.75c-.17.33-.37.62-.54,1l.7-1.16A.9.9,0,0,0,1988.75,1240.75Z"/><path class="cls-3" d="M1988.21,1241.7l-20.33,32.62C1974.89,1263.76,1981.74,1253,1988.21,1241.7Z"/><path class="cls-3" d="M1988.78,1230.25l-.33.36-.49.68Z"/><path class="cls-3" d="M1968.24,1255.45c6.81-7.8,13.41-15.82,19.72-24.16Z"/><path class="cls-3" d="M615.49,1255.45l-19.67-24C602.08,1239.72,608.64,1247.7,615.49,1255.45Z"/><path class="cls-3" d="M2003.44,1221.1c-.27.32-.55.68-.83,1l1-1.1A1.53,1.53,0,0,1,2003.44,1221.1Z"/><path class="cls-3" d="M2002.61,1222.09l-20.24,22.62c.08,0,.12-.12.2-.16Q1993,1233.68,2002.61,1222.09Z"/><path class="cls-1" d="M1333.88,1933.63c-45.88,231.82-44.33,531.29-42.58,536.23.6,1.68,74.64,31,34.29,72.9-56.2,58.4-238,36-256,9.55-26.3-38.73-100.28-493.75-77.06-704.43"/><path class="cls-3" d="M1339.43,1934.73a77.93,77.93,0,0,1,2.89,13.36c.61,4.37.92,8.68,1.09,13s.09,8.5-.13,12.7-.63,8.36-1,12.52q-1.2,12.49-3.16,24.86c-1.28,8.25-2.84,16.46-4.26,24.71l-1.08,6.18-1,6.19q-1,6.2-1.84,12.42c-1.1,8.29-2.06,16.61-3,24.92q-2.9,25-5.28,50c-6.41,66.74-10.57,133.77-13,200.85-1.18,33.53-2,67.11-2,100.54,0,8.34,0,16.73.23,24.84l.09,3c0,.94.08,1.92.12,2.55,0,.1,0,.27,0,.1,0,.09-.06-.47-.12-.75,2.25,1.55-5.78-11.56-6.16-10.08a9.72,9.72,0,0,0-1.15-.79c-.13-.09-.14-.09-.13-.08l.33.18,2.62,1.37c3.9,2,8,4.28,12,6.72a113.33,113.33,0,0,1,23.4,18.35,63.53,63.53,0,0,1,10.13,13.84,46.37,46.37,0,0,1,5.51,19,43.64,43.64,0,0,1-.61,10.36,47.32,47.32,0,0,1-2.81,9.51,59,59,0,0,1-9.23,15,93.64,93.64,0,0,1-23.46,19.93,142.22,142.22,0,0,1-26,12.25,209.06,209.06,0,0,1-26.49,7.49,317.68,317.68,0,0,1-53,6.48,426,426,0,0,1-52.65-1,372,372,0,0,1-52.42-7.78,194.54,194.54,0,0,1-26.62-7.93c-2.27-.89-4.57-1.87-6.92-3a70,70,0,0,1-7.28-4,46.94,46.94,0,0,1-3.91-2.7,39.36,39.36,0,0,1-4.2-3.7l-1.1-1.2c-.37-.42-.76-.89-1.12-1.34s-.76-1-1.13-1.52-.54-.83-.81-1.25l-.38-.62-.32-.55-.62-1.1c-.39-.7-.71-1.35-1.06-2-1.27-2.59-2.21-4.9-3.09-7.18s-1.67-4.48-2.4-6.65c-1.46-4.35-2.75-8.61-4-12.84-2.41-8.46-4.53-16.84-6.53-25.2-4-16.73-7.49-33.41-10.8-50.11-6.57-33.39-12.28-66.82-17.52-100.31s-9.94-67-14.19-100.65-8-67.29-11.35-101l-2.57-25.3-2.45-25.33c-1.58-16.89-3.07-33.81-4.18-50.76a962.85,962.85,0,0,1-1.6-102.11c.75-17.06,2.19-34.13,4.53-51.14,1.17-8.5,2.57-17,4.3-25.43s3.73-16.84,6.28-25.13a5.77,5.77,0,0,1,11.26,1.21v0c.73,8.48,1.26,16.87,1.8,25.25l1.56,25.07q1.51,25,2.89,50l5.35,100.08c1.74,33.41,3.7,66.88,6.75,100.28s7,66.74,11.14,100,8.89,66.54,14.06,99.68,10.83,66.19,17.28,99c3.24,16.38,6.68,32.7,10.51,48.78,1.92,8,3.94,16,6.15,23.76,1.11,3.87,2.27,7.68,3.49,11.32.61,1.82,1.25,3.59,1.89,5.25s1.3,3.24,1.89,4.43l.4.77.16.28.07.14,0,0a.59.59,0,0,1,.05.08,2.93,2.93,0,0,0-.19-.26.65.65,0,0,0-.11-.12s0,0,0,0a12.27,12.27,0,0,0,1.85,1.35,37.36,37.36,0,0,0,3.83,2.07c1.45.69,3,1.37,4.68,2a160.13,160.13,0,0,0,21.83,6.46,339.34,339.34,0,0,0,47.56,7,391.67,391.67,0,0,0,48.43,1,283.14,283.14,0,0,0,47.29-5.75,175.83,175.83,0,0,0,22.16-6.24,107.74,107.74,0,0,0,19.72-9.26,60,60,0,0,0,15-12.56,25.48,25.48,0,0,0,4-6.39,10.66,10.66,0,0,0,.92-4.82,12.43,12.43,0,0,0-1.6-5.1,30.12,30.12,0,0,0-4.82-6.46,80.66,80.66,0,0,0-16.38-12.66c-3.2-1.95-6.49-3.76-10.06-5.62l-3-1.56-1.06-.58-.81-.48c-.32-.21-.78-.47-1.8-1.23-.63,1.34-8.76-12-6.55-10.74-.1-.53-.21-1.36-.22-1.53-.08-.69-.11-1-.14-1.48-.1-1.47-.15-2.59-.19-3.76l-.1-3.35c-.21-8.75-.24-17.21-.24-25.74,0-34,.83-67.86,2-101.73,2.43-67.71,6.62-135.36,13.1-202.89q2.43-25.33,5.35-50.62l3-25.29q.75-6.33,1.39-12.67t1.32-12.68c.87-8.46,1.72-16.94,3-25.36s2.77-16.8,4.7-25.11c1-4.15,2-8.3,3.18-12.41a129.11,129.11,0,0,1,4.25-12.22,114.5,114.5,0,0,1,5.69-11.91,71.54,71.54,0,0,1,7.68-11.47,6.46,6.46,0,0,1,11.09,2.14Z"/><path class="cls-3" d="M1192.47,2475.56a213.74,213.74,0,0,1,23.8-9.57,233.86,233.86,0,0,1,25.14-6.9l6.49-1.3,6.57-1c2.2-.39,4.43-.57,6.67-.82s4.47-.54,6.74-.6l6.84-.32c2.29-.08,4.61,0,6.93.05l3.49.06c1.17,0,2.34.18,3.51.27l7.08.64a15.21,15.21,0,1,1-7,29.26l-.63-.26-5.2-2.12c-.88-.34-1.74-.74-2.64-1.05l-2.73-.89c-1.83-.57-3.65-1.24-5.53-1.74l-5.71-1.46a166.18,166.18,0,0,0-23.84-3.72,219.56,219.56,0,0,0-24.8-.69A209.62,209.62,0,0,0,1192.47,2475.56Z"/><path class="cls-1" d="M1967.86,1263.84c6.84-7.86,13.51-16,19.92-24.34Z"/><path class="cls-1" d="M616.81,1263.84,597,1239.54C603.3,1247.91,610,1256,616.81,1263.84Z"/><g class="cls-2"><path class="cls-3" d="M1714.92,1492.73q-17.65,7.2-35.43,13.72-25.6,9.49-51.4,17.67c-251.25,79.77-513.47,69-762.39-33,48.81-117.92,79.64-201.39,79.64-201.39s642.44-80.83,676.38,0q14.6,34.86,25.74,69.12l5.57,25.57,5.77-32.45S1677.37,1425.53,1714.92,1492.73Z"/></g><path class="cls-1" d="M431,1097.92c3.82,33.26,71.7,1.74,86.48-5.52,1.19-.6,2.46.63,2.12,2.08-1.36,5.73-5,18.65-14.27,39.29-11.47,25.49-20.81,45.24-15.63,58.62,5.56,14.19,28.63,19.67,57.39,16.44,16.1-1.83,33.34,12.23,48.72,29.22l0,0,.13.12,1,1.32c-.26-.38-.55-.72-.81-1.1,7.52,8.32,14.57,17.37,20.82,25.57a524.69,524.69,0,0,0,86.74,78.8c41,28.8,86.18,51.52,133.84,69.32v-.34s65.38,24.13,162.06,46.26c0,0,86.4,18.48,165.36,28.67a1215.62,1215.62,0,0,0,126.89,7.18,1248.23,1248.23,0,0,0,127.86-7.18c78.92-10.19,165.36-28.67,165.36-28.67,96.64-22.13,162.06-46.26,162.06-46.26v.34c47.66-17.8,92.85-40.52,133.84-69.32a526.84,526.84,0,0,0,86.7-78.8c6.33-8.28,13.42-17.38,21-25.79-.3.43-.64.85-.94,1.28l1.15-1.45a1.92,1.92,0,0,1-.17.13c15.42-17,32.71-31.18,48.85-29.35,28.76,3.23,51.82-2.25,57.39-16.44,5.22-13.38-4.16-33.13-15.59-58.62-9.3-20.64-13-33.56-14.32-39.29-.29-1.45.94-2.68,2.13-2.08,14.78,7.26,82.66,38.78,86.48,5.52,2.17-18.44-27.74-74.17-38.14-131.26-30.2-165.45-39-198.11-39-198.11-.21-1.11-29.47-119.71-73.23-207,43.71-116.48,72.34-456.17-.8-527.11-58.71-57-279.47,62.57-362.3,146.21-125.27-52.34-319.56-60.19-347.94-60.15-9.77,0-39.16.89-78.62,4.25-75.27,6.37-187.16,21.58-269.27,55.9C861.61,97,640.85-22.56,582.1,34.4,509,105.34,537.58,445,581.29,561.51,553.64,616.69,531.77,684.35,519.4,727c-7.22,24.85-11.25,41.16-11.34,41.59,0,0-8.71,32.66-38.91,198.11C458.75,1023.75,428.84,1079.48,431,1097.92Z"/><path class="cls-1" d="M565.29,506.18c-19.07-82.58-31.64-204.58-27.06-305.59,4.21,105.39,21.88,214.43,43.08,271C575.74,482.69,570.39,494.33,565.29,506.18Z"/><g class="cls-2"><path class="cls-3" d="M2079.42,1133.79c11.43,25.49,20.82,45.24,15.59,58.62-5.56,14.19-28.63,19.67-57.39,16.44-16.14-1.83-33.43,12.32-48.85,29.35a1.09,1.09,0,0,0,.17-.13l-1.14,1.45c.29-.43.63-.85.93-1.28-7.6,8.41-14.7,17.51-21,25.79a525.86,525.86,0,0,1-86.69,78.79c-41,28.8-86.19,51.53-133.85,69.33v-.34s-65.42,24.13-162.05,46.26c0,0-86.45,18.48-165.37,28.67a1248.23,1248.23,0,0,1-127.86,7.18,1215.29,1215.29,0,0,1-126.88-7.18c-79-10.19-165.37-28.67-165.37-28.67-96.68-22.13-162-46.26-162-46.26v.34c-47.66-17.8-92.86-40.53-133.85-69.33A525,525,0,0,1,617,1264c-6.25-8.2-13.3-17.25-20.81-25.57.25.38.55.72.8,1.1l-1-1.32-.12-.12-.05,0c-15.37-17-32.62-31-48.72-29.22-28.76,3.23-51.82-2.25-57.39-16.44-5.18-13.38,4.17-33.13,15.63-58.62,2.68-6,4.89-11.34,6.72-16,9.68,2.21,21.75,2.59,35,1.1,16.1-1.83,33.35,12.23,48.72,29.23l.05,0,.12.13,1,1.31c-.25-.38-.55-.72-.8-1.1,7.51,8.32,14.56,17.37,20.81,25.57a525.49,525.49,0,0,0,86.74,78.8c41,28.8,86.19,51.52,133.85,69.32v-.34s65.37,24.13,162,46.26c0,0,86.4,18.48,165.37,28.67a1215.29,1215.29,0,0,0,126.88,7.18,1248.23,1248.23,0,0,0,127.86-7.18c78.92-10.19,165.37-28.67,165.37-28.67,96.63-22.13,162.05-46.26,162.05-46.26v.34c47.66-17.8,92.86-40.52,133.85-69.32a526.36,526.36,0,0,0,86.69-78.8c6.33-8.28,13.43-17.37,21-25.78-.3.42-.64.85-.93,1.27l1.14-1.44s-.12.08-.17.12c15.42-17,32.71-31.18,48.85-29.35,13.3,1.49,25.36,1.11,35.05-1.1C2074.49,1122.45,2076.7,1127.8,2079.42,1133.79Z"/></g><path class="cls-5" d="M519.4,727a620.82,620.82,0,0,0,76.34,4.67c337.61,0,612-270.71,618-606.92-75.27,6.37-187.16,21.58-269.27,55.9C861.61,97,640.85-22.56,582.1,34.4,509,105.34,537.58,445,581.29,561.51,553.64,616.69,531.77,684.35,519.4,727Z"/><path class="cls-3" d="M1987.64,1239.64l-19.77,24.18C1974.7,1256,1981.31,1248,1987.64,1239.64Z"/><path class="cls-3" d="M616.8,1263.82,597,1239.64C603.36,1248,610,1256,616.8,1263.82Z"/><path class="cls-7" d="M1839.22,330.51c57.93,58.8,94.34,141,99.53,131.41a29.2,29.2,0,0,0,1.51-3.3c11.06-26.88,29.45-133.48,29.4-228.47,0-15.32-.46-28.85-1.28-40.77-2.2-32.2-7-52.84-12.94-66-7.34-16.15-23.85-21.1-38.48-15.69-38.89,14.45-149.39,83.25-185.39,127.37C1725.14,242.86,1781.24,271.71,1839.22,330.51Z"/><g class="cls-2"><path class="cls-3" d="M1839.22,330.51c57.93,58.8,94.34,141,99.53,131.41a29.2,29.2,0,0,0,1.51-3.3c-12.89-49.86-48.43-118.75-75.68-168.56-37.24-68,14.13-122.06,58.66-138.2,15.28-5.55,33.4,18.25,45.14,37.52-2.2-32.2-7-52.84-12.94-66-7.34-16.15-23.85-21.1-38.48-15.69-38.89,14.45-149.39,83.25-185.39,127.37C1725.14,242.86,1781.24,271.71,1839.22,330.51Z"/></g><path class="cls-3" d="M1937.61,477.68c-9.86,0-15.93-8.56-20-14.27-3.85-5.43-8.65-13.05-14.2-21.87-17-27-42.64-67.71-74.94-100.5-29.33-29.77-57.85-51.4-78.67-67.2-22.91-17.39-32.4-24.59-33.67-35.32a17.14,17.14,0,0,1,3.75-13c38.25-46.84,152.12-117.2,191.84-131.92,23.14-8.58,47.25,1.32,57.33,23.54,10.43,23.19,15.51,60.15,15.55,113,.08,98.35-19.72,214.91-32.69,238.89a16.15,16.15,0,0,1-13.77,8.63ZM1750.43,236.31c4.71,3.89,11.38,8.95,17.55,13.63,20.33,15.43,51,38.74,81.9,70.05,34.59,35.1,61.29,77.51,79,105.57l3.86,6.13c9.53-40,22-121.92,21.94-201.51h0c0-47.87-4.37-81.75-12.89-100.69-4.3-9.48-13.23-10.11-19.57-7.76C1888.19,134.33,1791.06,193.81,1750.43,236.31Z"/><path class="cls-7" d="M750,330.51c-57.93,58.8-94.35,141-99.54,131.41a29.2,29.2,0,0,1-1.51-3.3c-11.05-26.88-29.45-133.48-29.4-228.47,0-15.32.46-28.85,1.28-40.77,2.2-32.2,7-52.84,12.94-66,7.34-16.15,23.85-21.1,38.48-15.69,38.9,14.45,149.39,83.25,185.4,127.37C864.09,242.86,808,271.71,750,330.51Z"/><g class="cls-2"><path class="cls-3" d="M750,330.51c-57.93,58.8-94.35,141-99.54,131.41a29.2,29.2,0,0,1-1.51-3.3c12.89-49.86,48.44-118.75,75.68-168.56C761.9,222,710.52,168,666,151.86c-15.28-5.55-33.39,18.25-45.14,37.52,2.2-32.2,7-52.84,12.94-66,7.34-16.15,23.85-21.1,38.48-15.69,38.9,14.45,149.39,83.25,185.4,127.37C864.09,242.86,808,271.71,750,330.51Z"/></g><path class="cls-3" d="M651.62,477.68h-.57A16.14,16.14,0,0,1,637.28,469c-13-24-32.77-140.54-32.69-238.89h0c0-52.87,5.12-89.82,15.54-113C630.22,94.92,654.33,85,677.47,93.6c39.72,14.72,153.59,85.08,191.84,131.92a17.19,17.19,0,0,1,3.76,13c-1.28,10.73-10.77,17.93-33.68,35.32-20.82,15.8-49.34,37.44-78.67,67.2-32.3,32.78-58,73.54-74.94,100.5-5.55,8.82-10.35,16.44-14.19,21.87C667.55,469.12,661.48,477.68,651.62,477.68Zm12-22.9h0Zm-2.89-334.2c-5.06,0-10.31,2.32-13.31,9-8.51,18.9-12.85,52.78-12.88,100.65h0c-.06,79.6,12.41,161.52,21.94,201.51l3.86-6.13c17.67-28.07,44.38-70.47,79-105.57,30.85-31.31,61.57-54.62,81.91-70.05,6.16-4.68,12.83-9.74,17.54-13.63-40.63-42.5-137.76-102-171.75-114.58A18.27,18.27,0,0,0,660.78,120.58Z"/><path class="cls-3" d="M1418.62,1478.3c27.37-5.63,54.7-11.28,82-17.22l40.89-9,20.41-4.61,10.19-2.33,5.08-1.17,2.53-.59,2.38-.57,20.07-5.19c6.7-1.8,13.43-3.52,20.12-5.39,13.41-3.59,26.75-7.44,40.08-11.28s26.6-7.91,39.8-12.08q9.91-3.11,19.74-6.39l9.79-3.32,4.85-1.69,4.71-1.69,22.91-8.21,0,24.21v.33l-23-16a643.67,643.67,0,0,0,60-26,547.73,547.73,0,0,0,56.48-32.37c2.24-1.5,4.53-3,6.74-4.5l6.57-4.55,6.43-4.77c2.15-1.65,4.34-3.26,6.46-5q12.86-10,25.08-20.72t23.66-22.23q2.88-2.86,5.68-5.79c1.89-1.93,3.73-3.92,5.58-5.88s3.66-4,5.49-6c.91-1,1.79-2,2.69-3l1.34-1.51.68-.76.33-.38.17-.19s-1.55,2-1.29,1.67c-.07.12.11-.17.47-.66a17.63,17.63,0,0,1,5.45-4.85l-4.46,3.65c7-8,13.72-16.25,20-24.67l.42-.56.38-.43a17.72,17.72,0,0,1,2.07-2l.57-.45-.49.38a18.41,18.41,0,0,0-2,1.94l26.68,22.56-21.18,26-27.5-21.71c9-11.8,18.42-23.82,29.77-35.21a128.81,128.81,0,0,1,19.41-16.26,73.8,73.8,0,0,1,12.59-6.82,51.72,51.72,0,0,1,16-4,42.89,42.89,0,0,1,4.55-.1c.77,0,1.54.06,2.32.13l1.75.17c1.61.17,3.21.32,4.81.42,3.19.22,6.34.32,9.42.27a77.29,77.29,0,0,0,8.94-.62,49.22,49.22,0,0,0,7.87-1.6,22.92,22.92,0,0,0,5.56-2.39,5.22,5.22,0,0,0,1.67-1.46,5.09,5.09,0,0,0,.28-2,28.13,28.13,0,0,0-.94-6.45,82.62,82.62,0,0,0-2.67-8.54c-1.1-3-2.37-6.14-3.72-9.31-2.7-6.38-5.7-12.9-8.74-19.68-3.12-7-6.07-14.06-8.75-21.41-1.35-3.67-2.62-7.41-3.81-11.27-.59-2-1.16-3.91-1.7-6l-.39-1.56-.2-.79-.09-.4c0,.15-.18-.79-.24-1.2s-.17-1-.22-1.59a19.82,19.82,0,0,1,3.67-13.42,19.28,19.28,0,0,1,24.13-6.08l.64.31,1.14.55,2.32,1.1q2.33,1.1,4.68,2.15,4.71,2.1,9.46,4c6.33,2.56,12.71,4.86,19,6.71a90.93,90.93,0,0,0,17.73,3.63,26.08,26.08,0,0,0,6.3-.15,4.39,4.39,0,0,0,1.11-.3,3.11,3.11,0,0,0-.71.53,4.4,4.4,0,0,0-.87,1.23c-.13.26-.05.22,0-.22,0,.34,0-.25-.11-1.23s-.34-2.24-.64-3.6c-.61-2.74-1.49-5.86-2.49-9s-2.12-6.48-3.28-9.81c-4.7-13.34-10-27.15-14.83-41.25s-9.42-28.57-13.07-43.51q-1.38-5.61-2.55-11.31c-.4-1.9-.77-3.81-1.13-5.72l-1-5.41-4-21.48q-8-43-16.32-85.81-4.18-21.42-8.55-42.74-2.19-10.65-4.47-21.23l-2.31-10.52-1.19-5.18-.6-2.52-.55-2.22-.3-1.32-3.15-12q-1.76-6.53-3.59-13-3.66-13.05-7.58-26.05-7.83-26-16.69-51.6t-18.94-50.58Q2003.43,606.24,1998,594t-11.41-24.09l-3.65-7.33,2.86-7.7c3.19-8.6,6-17.61,8.58-26.77s4.88-18.49,7-27.89c4.27-18.82,7.82-37.94,10.91-57.16,6.15-38.47,10.43-77.38,13.09-116.34A1136.12,1136.12,0,0,0,2027.65,210c-.72-19.36-2-38.65-4.31-57.66s-5.48-37.75-10.38-55.49a184,184,0,0,0-8.86-25.32c-3.5-7.85-7.67-15.08-12.36-20.45-.59-.67-1.18-1.32-1.77-1.92l-.89-.89-.74-.69a24.09,24.09,0,0,0-3.36-2.47,35.75,35.75,0,0,0-8.77-3.77c-6.72-1.94-14.89-2.62-23.39-2.32a167.25,167.25,0,0,0-26.37,3.25c-9,1.76-18,4.1-26.94,6.8a473.32,473.32,0,0,0-53.37,20.06c-17.56,7.74-34.85,16.33-51.83,25.55s-33.63,19.09-49.89,29.53-32.13,21.47-47.36,33.12a426.2,426.2,0,0,0-42.89,37.09l-9.26,9.34-12.19-5.05c-13-5.39-26.42-10.16-40-14.47-3.42-1-6.8-2.19-10.26-3.15l-10.34-3c-7-1.86-13.88-3.76-20.9-5.45-28-6.93-56.56-12.34-85.29-16.85s-57.74-7.93-86.8-10.58q-21.8-2-43.63-3.31-10.9-.68-21.77-1.13-5.45-.24-10.83-.39c-3.57-.1-7.17-.19-10.51-.19s-6.94.1-10.51.19-7.2.24-10.82.4q-10.86.47-21.78,1.13-21.81,1.34-43.62,3.32-43.59,4-86.79,10.61c-28.74,4.52-57.29,9.93-85.29,16.87-7,1.69-13.95,3.59-20.9,5.45l-10.33,3c-3.46,1-6.84,2.11-10.26,3.15-13.63,4.32-27,9.09-40,14.48l-12.24,5.07-9.31-9.37a424.76,424.76,0,0,0-42.89-37.07c-15.23-11.65-31.1-22.67-47.36-33.11S807.28,104,790.31,94.76,756,77,738.48,69.23a475.54,475.54,0,0,0-53.35-20c-9-2.69-18-5-26.93-6.79a167.13,167.13,0,0,0-26.34-3.24c-8.49-.3-16.64.38-23.34,2.32a35.34,35.34,0,0,0-8.72,3.75,24.32,24.32,0,0,0-3.33,2.46l-.73.67-.88.89c-.6.61-1.18,1.25-1.77,1.92-4.68,5.35-8.83,12.57-12.33,20.4a184.91,184.91,0,0,0-8.84,25.29c-4.89,17.73-8.08,36.5-10.36,55.47S558,190.61,557.27,210a1138.4,1138.4,0,0,0,2.29,116.75c2.67,38.95,7,77.86,13.12,116.31,3.09,19.22,6.66,38.33,10.92,57.14,2.14,9.4,4.46,18.72,7,27.88s5.4,18.15,8.59,26.74l2.91,7.83-3.72,7.46q-5.91,11.86-11.39,24.08c-3.62,8.15-7.14,16.37-10.5,24.68q-10.11,24.93-18.93,50.57T540.92,721q-3.92,13-7.58,26-1.82,6.53-3.58,13.05l-3.13,12-.31,1.35-.55,2.21-.6,2.52L524,783.32l-2.32,10.51q-2.26,10.57-4.45,21.24-4.38,21.3-8.54,42.73-8.35,42.83-16.29,85.81l-4,21.49-1,5.4c-.35,1.92-.73,3.83-1.12,5.74q-1.19,5.7-2.55,11.32c-3.65,15-8.2,29.43-13.07,43.56s-10.13,27.93-14.82,41.25c-1.16,3.33-2.27,6.61-3.27,9.79s-1.87,6.28-2.48,9c-.3,1.35-.52,2.6-.63,3.54s-.07,1.52-.11,1.12c0,.4.1.4,0,.08a4.83,4.83,0,0,0-1-1.39,3.53,3.53,0,0,0-.85-.63l.24.09c.08,0,.22,0,.32.09l.43.09a26.17,26.17,0,0,0,6.17.13,89.76,89.76,0,0,0,17.63-3.61c6.23-1.83,12.59-4.13,18.91-6.69q4.74-1.92,9.45-4c1.56-.7,3.12-1.42,4.67-2.14l2.31-1.1,1.15-.56.63-.3a19.82,19.82,0,0,1,24.76,6.23,20.32,20.32,0,0,1,3.77,13.76c0,.57-.13,1.1-.22,1.64s-.28,1.38-.25,1.22l-.1.4-.19.8-.4,1.56c-.54,2-1.11,4-1.7,6-1.19,3.88-2.47,7.62-3.82,11.31-2.69,7.36-5.65,14.46-8.76,21.43-3,6.79-6,13.31-8.75,19.67-1.34,3.17-2.61,6.29-3.7,9.29a82.52,82.52,0,0,0-2.66,8.49,27.82,27.82,0,0,0-.92,6.33,5.53,5.53,0,0,0,.21,1.74,1.62,1.62,0,0,0,.28.33,7.91,7.91,0,0,0,1.22,1,22.5,22.5,0,0,0,5.43,2.32,48.07,48.07,0,0,0,7.8,1.6,78.54,78.54,0,0,0,8.88.61c3.06,0,6.21,0,9.38-.27,1.59-.1,3.19-.25,4.79-.42l1.77-.17c.78-.07,1.56-.1,2.34-.13a43.78,43.78,0,0,1,4.6.1,52.61,52.61,0,0,1,16.19,4A75.08,75.08,0,0,1,582,1201.5a130,130,0,0,1,19.49,16.32c11.37,11.42,20.8,23.46,29.81,35.27L603,1275.42l-21.19-26,27.45-23.2a17.12,17.12,0,0,0-2-2l-.5-.4.58.46a18.8,18.8,0,0,1,2.13,2.07l.39.44.43.57q9.5,12.63,20,24.65l-4.59-3.76a18.15,18.15,0,0,1,3.73,2.83,18.36,18.36,0,0,1,1.87,2.16c.38.51.56.8.48.68.27.31-1.27-1.72-1.32-1.72l.17.19.33.38.67.76,1.34,1.51c.9,1,1.78,2,2.69,3,1.83,2,3.62,4,5.48,6s3.69,3.94,5.58,5.87,3.76,3.88,5.68,5.78q11.45,11.47,23.64,22.22t25,20.7c2.13,1.68,4.31,3.29,6.46,4.94l6.42,4.77,6.56,4.54c2.21,1.51,4.5,3,6.74,4.5a547.53,547.53,0,0,0,56.43,32.34,643,643,0,0,0,60,26L820,1412.11v-.33l0-24.91,23.58,8.45,4.7,1.68,4.85,1.69L863,1402q9.82,3.27,19.73,6.39c13.21,4.15,26.49,8.12,39.81,12s26.67,7.64,40.08,11.23c6.69,1.85,13.41,3.58,20.12,5.37l20,5.19,1.12.28,1.25.29,2.53.59,5.08,1.18,10.18,2.33,20.4,4.63,40.87,9.12c27.26,6.05,54.56,11.82,81.89,17.69h0a8.52,8.52,0,0,1-2.22,16.84c-28.28-1.41-56.38-4.41-84.36-8.06q-21-2.77-41.87-6.08-10.45-1.66-20.88-3.45l-10.43-1.83-5.22-1-2.62-.49-1.32-.24-1.45-.28c-7-1.49-14-2.94-20.88-4.51s-13.81-3.12-20.69-4.82c-13.77-3.28-27.47-6.9-41.14-10.65s-27.25-7.81-40.8-12q-10.17-3.15-20.31-6.51l-10.14-3.41-5.09-1.75-5.2-1.85,23.61-16.46v.33l0,25.26-23.71-8.82A677.37,677.37,0,0,1,768,1401.3,582.64,582.64,0,0,1,707.83,1367c-2.41-1.61-4.82-3.17-7.25-4.82l-7.26-5-7.09-5.23c-2.3-1.75-4.62-3.46-6.9-5.25q-13.71-10.59-26.8-22T627.14,1301q-3.09-3.06-6.11-6.19c-2-2.07-4-4.19-6-6.29s-3.94-4.26-5.91-6.39l-2.91-3.25-1.44-1.62-.73-.82-.36-.4-.18-.21a22.45,22.45,0,0,1-1.41-1.82c-.1-.16.06.1.41.58a18.67,18.67,0,0,0,1.79,2.06,18,18,0,0,0,3.62,2.74l-4.59-3.76c-7.51-8.56-14.79-17.41-21.74-26.6l.83,1a16.58,16.58,0,0,0,2,2l.5.4-.58-.46a17.89,17.89,0,0,1-2.13-2.07l27.44-23.2,21.26,25.93-28.28,22.33c-4.35-5.69-8.69-11.24-13.11-16.54s-8.94-10.36-13.56-15a94.88,94.88,0,0,0-14-11.75,39.49,39.49,0,0,0-6.53-3.56,16.43,16.43,0,0,0-5-1.3,6.25,6.25,0,0,0-.86,0c-.13,0-.27,0-.39,0l-.19,0-.76.08q-3,.33-6.11.55c-4.1.29-8.25.43-12.48.38a113.09,113.09,0,0,1-12.94-.87,84,84,0,0,1-13.61-2.79,58.13,58.13,0,0,1-14.54-6.45,44.23,44.23,0,0,1-7.35-5.81,38.13,38.13,0,0,1-6.38-8.3,39.85,39.85,0,0,1-5-19.27,62.64,62.64,0,0,1,1.91-15.31,118.38,118.38,0,0,1,3.8-12.41c1.4-3.86,2.88-7.5,4.37-11,3-7.07,6.07-13.82,9-20.35,2.81-6.35,5.44-12.73,7.74-19.08,1.15-3.17,2.22-6.33,3.16-9.43.46-1.54.9-3.08,1.28-4.56l.28-1.09.13-.53.06-.26c.06-.27-.14.58-.18.89s-.13.85-.17,1.3a16.45,16.45,0,0,0,3.07,11.17,16.73,16.73,0,0,0,5.22,4.69,17,17,0,0,0,15.93.55l-.6.3-1.32.64-2.62,1.25c-1.75.83-3.5,1.64-5.27,2.43q-5.28,2.39-10.66,4.59c-7.2,2.92-14.56,5.63-22.31,7.94a126.15,126.15,0,0,1-25.19,5.07,61.6,61.6,0,0,1-15.64-.57,40.73,40.73,0,0,1-9.46-2.86,34.15,34.15,0,0,1-9.92-6.64,32.26,32.26,0,0,1-7.15-10.34,37,37,0,0,1-2.8-10.47,41.83,41.83,0,0,1,.07-9.8c.32-2.68.76-5,1.24-7.23,1-4.4,2.1-8.31,3.27-12.1s2.4-7.4,3.64-11c5-14.2,10.08-27.64,14.68-41.14s8.77-26.87,12-40.26c.81-3.34,1.56-6.69,2.24-10,.34-1.67.66-3.34,1-5l1-5.35,3.93-21.56q7.92-43.1,16.17-86.19,4.16-21.55,8.51-43.11,2.19-10.78,4.49-21.61l2.36-10.86,1.25-5.49.66-2.8.77-3.1-.31,1.35.28-1.3.13-.5.22-.91.44-1.74.87-3.43,1.78-6.78c1.19-4.51,2.42-9,3.66-13.47q3.74-13.44,7.73-26.78,8-26.69,17-53.1c6.06-17.6,12.51-35.1,19.51-52.47q5.25-13,11-25.94t12.07-25.65l-.81,15.29c-3.73-10-6.85-19.88-9.65-29.79s-5.28-19.81-7.56-29.72c-4.54-19.82-8.28-39.67-11.5-59.56-6.42-39.77-10.87-79.7-13.68-119.79a1176.73,1176.73,0,0,1-2.5-120.78c.71-20.22,2.06-40.5,4.46-60.85s5.81-40.76,11.41-61.25a224.7,224.7,0,0,1,10.76-30.75c4.59-10.2,10.18-20.5,18.49-30.15,1-1.2,2.12-2.39,3.26-3.56l1.74-1.74,2-1.85a62.83,62.83,0,0,1,8.59-6.38A74.39,74.39,0,0,1,597.62,4C610,.43,621.87-.26,633.14.08A205.12,205.12,0,0,1,665.72,4c10.51,2.05,20.69,4.69,30.69,7.68a511.56,511.56,0,0,1,57.87,21.62c18.7,8.23,36.92,17.28,54.76,27s35.3,20,52.38,31,33.79,22.54,50,35a463.85,463.85,0,0,1,46.94,40.61l-21.55-4.31c14.3-5.93,28.78-11.08,43.33-15.7,3.65-1.11,7.28-2.33,10.94-3.36l11-3.17c7.33-2,14.66-4,22-5.76,29.41-7.29,59-12.9,88.68-17.57s59.44-8.2,89.26-10.94q22.38-2,44.82-3.42,11.22-.7,22.51-1.18c3.76-.16,7.53-.3,11.33-.42s7.61-.19,11.66-.2,7.84.1,11.66.21,7.58.25,11.34.42c7.53.32,15,.71,22.51,1.18q22.45,1.38,44.81,3.44,44.73,4.11,89.26,11c29.67,4.69,59.27,10.3,88.66,17.6,7.36,1.78,14.68,3.78,22,5.76l11,3.17c3.66,1,7.29,2.25,10.94,3.37,14.55,4.62,29,9.77,43.32,15.71l-21.45,4.28a463.8,463.8,0,0,1,46.94-40.59c16.24-12.41,33-24,50-34.94S1757.87,70,1775.7,60.37s36.06-18.72,54.77-26.94a510.59,510.59,0,0,1,57.86-21.6c10-3,20.17-5.63,30.66-7.67a205,205,0,0,1,32.56-3.9c11.26-.33,23.11.35,35.46,3.89a74.43,74.43,0,0,1,18.38,8.07,63.1,63.1,0,0,1,8.56,6.37l2,1.84,1.74,1.74c1.13,1.16,2.21,2.35,3.25,3.55,8.29,9.63,13.87,19.91,18.45,30.1a222.87,222.87,0,0,1,10.74,30.72c5.6,20.48,9,40.89,11.4,61.23s3.73,40.61,4.44,60.83a1176.4,1176.4,0,0,1-2.53,120.76c-2.81,40.08-7.27,80-13.69,119.76-3.23,19.88-7,39.72-11.53,59.53-2.28,9.9-4.76,19.8-7.56,29.7s-5.92,19.81-9.65,29.76l-.8-15q6.32,12.74,12.06,25.64t11,25.93c7,17.36,13.44,34.86,19.49,52.46s11.69,35.3,17,53.09q4,13.35,7.71,26.77c1.24,4.48,2.47,9,3.66,13.47l1.77,6.78.87,3.42.44,1.74.22.91.13.5.28,1.28-.3-1.32.76,3.09.66,2.8,1.24,5.49,2.36,10.86q2.31,10.82,4.48,21.6,4.38,21.57,8.5,43.11,8.3,43.1,16.14,86.2l3.93,21.55,1,5.36q.45,2.5,1,5,1,5,2.24,10c3.23,13.41,7.4,26.83,12,40.31s9.7,27,14.66,41.15c1.24,3.56,2.46,7.18,3.63,11s2.29,7.68,3.26,12.06a72.17,72.17,0,0,1,1.22,7.18,40.76,40.76,0,0,1,.08,9.68,36.58,36.58,0,0,1-2.77,10.33,31.78,31.78,0,0,1-7,10.17,33.61,33.61,0,0,1-9.78,6.55,40.92,40.92,0,0,1-9.35,2.82,61.47,61.47,0,0,1-15.51.57,125.46,125.46,0,0,1-25.08-5.06c-7.73-2.3-15.08-5-22.26-7.92q-5.39-2.21-10.65-4.58-2.64-1.18-5.26-2.42l-2.62-1.26-1.31-.64-.6-.29a16.54,16.54,0,0,0,15.45-.54,16.08,16.08,0,0,0,8-15.38c0-.43-.09-.84-.16-1.26s-.24-1.12-.18-.86l.07.27.12.53.28,1.1c.39,1.49.83,3,1.29,4.58.95,3.11,2,6.28,3.17,9.45,2.3,6.37,4.94,12.76,7.76,19.12,2.9,6.53,6,13.27,9,20.33,1.49,3.54,3,7.18,4.36,11a118.14,118.14,0,0,1,3.79,12.36,62.76,62.76,0,0,1,1.89,15.18,39.34,39.34,0,0,1-4.89,19,37.56,37.56,0,0,1-6.3,8.18,44.18,44.18,0,0,1-7.26,5.75,57.91,57.91,0,0,1-14.42,6.39,83.86,83.86,0,0,1-13.53,2.77,114.2,114.2,0,0,1-12.88.87c-4.21.05-8.35-.09-12.44-.38q-3.06-.23-6.09-.55l-.76-.08-.21,0c-.13,0-.27,0-.41,0s-.59,0-.92,0a16.77,16.77,0,0,0-5.1,1.34,39.23,39.23,0,0,0-6.61,3.6,95.06,95.06,0,0,0-14.06,11.82c-4.64,4.61-9.16,9.68-13.59,15s-8.77,10.86-13.13,16.56l-27.49-21.71,21.26-25.94,26.67,22.56a17.08,17.08,0,0,1-2.06,2l-.57.45.48-.38a16.58,16.58,0,0,0,2-1.94l.8-1c-6.93,9.17-14.21,18-21.71,26.57l-4.46,3.66a17.18,17.18,0,0,0,3.51-2.67,16,16,0,0,0,1.74-2c.34-.46.5-.71.4-.56.24-.26-1.29,1.74-1.37,1.78l-.18.2-.36.41-.73.81-1.44,1.62-2.91,3.24c-2,2.13-3.9,4.29-5.9,6.39s-4,4.22-6,6.28-4,4.15-6.1,6.19q-12.3,12.25-25.36,23.7t-26.78,22c-2.27,1.78-4.6,3.49-6.89,5.24l-7.08,5.22-7.26,5c-2.42,1.65-4.83,3.21-7.24,4.81a581.6,581.6,0,0,1-60.15,34.26,677.55,677.55,0,0,1-63.34,27.22l-23,8.58,0-24.55v-.33l23,16-5.2,1.85-5.08,1.76-10.14,3.4q-10.14,3.35-20.3,6.51-20.33,6.3-40.81,12c-13.67,3.73-27.37,7.31-41.14,10.6-6.88,1.68-13.79,3.23-20.69,4.8s-13.92,3-20.87,4.51c-.4.09-1,.19-1.43.28l-1.32.25-2.62.48-5.22.95L1567.8,1477c-7,1.22-13.92,2.34-20.87,3.47s-13.93,2.2-20.91,3.23-14,2-20.94,3c-27.95,3.76-56,6.87-84.27,8.53a8.51,8.51,0,0,1-2.22-16.84Z"/><ellipse class="cls-8" cx="850.73" cy="1140.93" rx="80.09" ry="38.45"/><ellipse class="cls-8" cx="1733.94" cy="1140.93" rx="80.09" ry="38.45"/><path class="cls-1" d="M1412.4,1081.2s-21,55.15-70.24,42.41c-56-14.49-49.29-81.3-49.29-81.3"/><path class="cls-1" d="M1171.27,1081.2s21,55.15,70.24,42.41c56-14.49,49.29-81.3,49.29-81.3"/><path class="cls-3" d="M1420.34,1084.22l-.54,1.84-.53,1.63c-.37,1.08-.73,2.14-1.14,3.18-.81,2.09-1.71,4.13-2.66,6.16a87.66,87.66,0,0,1-6.76,11.73,73.08,73.08,0,0,1-20,20,59.61,59.61,0,0,1-28.5,9.63,66.62,66.62,0,0,1-15-.79c-1.23-.15-2.4-.47-3.6-.71s-2.41-.49-3.53-.86l-3.42-1-1.71-.52-1.69-.64-3.37-1.3c-1.12-.44-2.21-1-3.31-1.54s-2.21-1-3.26-1.65l-3.18-1.85a67.06,67.06,0,0,1-11.65-9,69,69,0,0,1-5-5.37c-1.49-1.93-3.05-3.81-4.35-5.85s-2.54-4.08-3.74-6.15-2.18-4.23-3-6.4a90.17,90.17,0,0,1-6.65-26.47,101.58,101.58,0,0,1-.51-13.26c.06-2.2.18-4.4.38-6.6.11-1.1.23-2.2.37-3.31l.24-1.69.31-1.85a8.45,8.45,0,0,1,16.68.15l.22,1.56c0,.23.06.76.09,1.17l.09,1.34c.07.91.15,1.82.24,2.74.2,1.84.38,3.68.66,5.51.57,3.66,1.18,7.29,2.07,10.83a84.14,84.14,0,0,0,7.3,19.77c.78,1.52,1.68,2.92,2.52,4.36s1.83,2.75,2.87,4,2.06,2.48,3.1,3.7,2.21,2.29,3.44,3.28a49.35,49.35,0,0,0,16.42,9.49l1.14.43,1.19.34,2.39.7a22.94,22.94,0,0,0,2.36.55c.78.15,1.56.41,2.33.49l2.32.35c.78.15,1.54.12,2.3.2,1.54.17,3,.09,4.54.12a39.53,39.53,0,0,0,17.26-4.81,61.88,61.88,0,0,0,15.63-12.44,96.19,96.19,0,0,0,6.88-8.28c1.1-1.45,2.17-2.94,3.17-4.46.5-.76,1-1.52,1.49-2.28l.71-1.12c.22-.34.49-.8.63-1l1.31-1.61a8.4,8.4,0,0,1,14.57,7.66Z"/><path class="cls-3" d="M1179.21,1078.17c.14.17.41.63.63,1l.7,1.12c.48.76,1,1.52,1.5,2.28,1,1.52,2.07,3,3.16,4.46a98.16,98.16,0,0,0,6.89,8.28,61.7,61.7,0,0,0,15.63,12.44,39.53,39.53,0,0,0,17.26,4.81c1.51,0,3,0,4.54-.12.76-.08,1.52-.05,2.29-.2l2.33-.35c.77-.08,1.55-.34,2.33-.49a22.94,22.94,0,0,0,2.36-.55l2.38-.7,1.2-.34,1.14-.43a49.35,49.35,0,0,0,16.42-9.49c1.23-1,2.29-2.18,3.44-3.28s2.16-2.37,3.1-3.7,1.92-2.64,2.87-4,1.74-2.84,2.51-4.36a84.16,84.16,0,0,0,7.31-19.77c.89-3.54,1.5-7.17,2.06-10.83.29-1.83.47-3.67.67-5.51.09-.92.17-1.83.24-2.74l.09-1.34c0-.41,0-.94.09-1.17l.22-1.55a8.44,8.44,0,0,1,16.68-.16l.31,1.85.24,1.69c.14,1.11.26,2.21.37,3.31q.3,3.3.37,6.6a101.57,101.57,0,0,1-.5,13.26,90.17,90.17,0,0,1-6.65,26.47c-.87,2.17-2,4.28-3.05,6.4s-2.35,4.17-3.74,6.15-2.86,3.92-4.35,5.85a69,69,0,0,1-5,5.37,67.06,67.06,0,0,1-11.65,9l-3.18,1.85c-1.05.64-2.17,1.1-3.26,1.65s-2.19,1.1-3.31,1.54l-3.37,1.3-1.69.64-1.71.52-3.42,1c-1.13.37-2.36.57-3.54.86s-2.36.56-3.59.71a66.7,66.7,0,0,1-15,.79,59.61,59.61,0,0,1-28.49-9.63,73.08,73.08,0,0,1-20-20,86.59,86.59,0,0,1-6.76-11.73c-1-2-1.85-4.07-2.66-6.16-.41-1-.78-2.1-1.14-3.18l-.53-1.63-.54-1.84a8.39,8.39,0,0,1,14.56-7.66Z"/><path class="cls-3" d="M1224.35,1007.3c0,15.8,20.62,29.76,39.54,39.25a67.8,67.8,0,0,0,61.76,0c18.93-9.49,39.54-23.45,39.54-39.25C1365.19,959.63,1224.35,959.63,1224.35,1007.3Z"/><g class="cls-6"><path class="cls-1" d="M1266.85,998c0,4.56,8.17,8.58,15.68,11.32a36,36,0,0,0,24.49,0c7.5-2.74,15.67-6.76,15.67-11.32C1322.69,984.2,1266.85,984.2,1266.85,998Z"/></g><path class="cls-1" d="M1901.74,1866.56c41,2.64,133.07-2.7,181-103.4s-21.84-297.59-113.14-322.32c-13.23-3.58-37.84,2.28-45.22,22.77C1909.84,1504,1948.5,1569,1948.5,1569S1807,1609.42,1807.34,1702C1807.55,1763.62,1818.13,1861.16,1901.74,1866.56Z"/><g class="cls-2"><path class="cls-3" d="M2082.78,1763.14c-48,100.72-140,106.07-181,103.4-83.6-5.4-94.18-102.93-94.39-164.52a85.09,85.09,0,0,1,2.42-20.77c6.16,55.35,35.74,85.47,100.39,93,51.72,6,142.43-6,172.62-77a185.69,185.69,0,0,0,13.5-47.45C2101.17,1691.44,2097.64,1731.92,2082.78,1763.14Z"/></g><path class="cls-3" d="M1916.14,1884c-5.59,0-10.78-.19-15.49-.5h0c-43.24-2.79-75.45-27.63-93.16-71.83-11.38-28.41-17-64.26-17.14-109.6-.28-82.66,92.41-127.06,134-142.81-3-6.24-6.23-13.74-9.26-22-11.83-32.11-14.06-58.84-6.63-79.46,4.94-13.69,15.58-24.48,30-30.37,11.69-4.79,25-5.92,35.7-3,40.77,11,80,51.87,107.66,112,17.22,37.44,28.7,80.06,32.33,120,4,44.22-1.51,83.64-16,114-22.71,47.69-57.09,81-102.17,98.93C1967,1880.92,1938.43,1884,1916.14,1884Zm-13.3-34.41c43.45,2.8,122.63-5.65,164.58-93.74,23.3-48.94,16.49-133.32-16.56-205.21-23.09-50.21-55.12-85.13-85.68-93.41-5.4-1.45-20.78,1-24.8,12.14-9.62,26.68,13.77,75.8,22.72,90.91l11.23,18.94-21.16,6.07c-1.28.37-129.11,38.08-128.84,116.67.14,40.4,5.09,73.06,14.71,97.08,12.85,32.07,33.72,48.61,63.8,50.55Z"/><path class="cls-1" d="M926.84,1903s153.81,60.92,170.2,211.52c22.84,209.89-153.2,328.32-153.2,328.32"/><path class="cls-3" d="M930,1895.12l2.72.89c.87.28,1.74.59,2.58.9,1.72.6,3.4,1.24,5.08,1.88,3.37,1.27,6.65,2.69,9.94,4.1,6.58,2.84,13,6,19.33,9.34a312.61,312.61,0,0,1,36.61,22.67,279.85,279.85,0,0,1,62.23,60.86c2.27,2.9,4.3,6,6.38,9,1,1.54,2.08,3,3.08,4.6l2.89,4.74,2.88,4.74.72,1.19.66,1.22,1.32,2.44,2.62,4.91c.88,1.63,1.76,3.26,2.52,5l4.72,10.1,4.17,10.35c.34.87.7,1.72,1,2.6l.9,2.64,1.79,5.3c.58,1.76,1.2,3.52,1.76,5.3l1.48,5.38,1.48,5.4.73,2.69.58,2.74,2.31,10.93c.63,3.67,1.13,7.36,1.69,11,.26,1.83.59,3.7.78,5.51l.57,5.42a344.86,344.86,0,0,1,1.67,43.62,354.09,354.09,0,0,1-3.87,43.6c-.5,3.62-1.21,7.21-1.82,10.81s-1.4,7.17-2.16,10.74-1.59,7.14-2.55,10.66l-1.38,5.3-1.51,5.27a359.72,359.72,0,0,1-34.26,80.16c-3.61,6.29-7.42,12.46-11.38,18.53s-8.07,12-12.34,17.86a420.15,420.15,0,0,1-27.38,33.55,410.23,410.23,0,0,1-30.63,30.52c-2.68,2.42-5.41,4.79-8.15,7.14s-5.56,4.64-8.4,6.9-5.72,4.48-8.67,6.68c-1.46,1.09-3,2.18-4.47,3.26l-2.32,1.63-2.56,1.74a17,17,0,0,1-19.66-27.69l.69-.5,1.67-1.24,1.88-1.43c1.26-1,2.53-2,3.79-3,2.54-2,5-4.13,7.55-6.27q7.47-6.42,14.69-13.25c9.61-9.08,18.76-18.69,27.48-28.64s16.92-20.34,24.58-31.08c3.85-5.35,7.57-10.8,11.11-16.35s7-11.16,10.2-16.89c1.65-2.84,3.17-5.75,4.75-8.62s3-5.81,4.48-8.77c3-5.84,5.67-11.81,8.29-17.8a322.5,322.5,0,0,0,21.94-75,315.26,315.26,0,0,0,3.9-38.94,343,343,0,0,0-1-39.25l-.41-4.9c-.13-1.64-.39-3.18-.57-4.78-.43-3.16-.78-6.33-1.25-9.49l-1.78-9.4-.44-2.35-.59-2.31-1.17-4.64-1.16-4.64c-.45-1.53-.95-3-1.43-4.57l-1.43-4.56-.71-2.29c-.26-.75-.56-1.49-.84-2.24l-3.39-9-3.88-8.78c-.61-1.48-1.35-2.9-2.09-4.33l-2.17-4.28-1.08-2.16-.54-1.07-.59-1-2.38-4.2-2.37-4.2c-.84-1.38-1.72-2.73-2.57-4.09-1.75-2.72-3.36-5.51-5.27-8.13-14.47-21.46-32.39-40.91-52.45-58.27-10-8.69-20.61-16.81-31.54-24.55q-8.25-5.73-16.78-11.08l-4.28-2.63-4.31-2.56c-1.44-.85-2.89-1.69-4.33-2.5l-4.21-2.32-.49-.27a8.5,8.5,0,0,1,6.75-15.53Z"/><path class="cls-1" d="M769.47,2391.54c102.8-11.33,221.78,8.09,237.16,59.9,14.75,49.68,46.89,149.51-197.29,114.7"/><path class="cls-3" d="M769.47,2434c9-7.17,19.48-12.62,30.23-17.12a223,223,0,0,1,33.38-10.61,307.1,307.1,0,0,1,69.82-8,276.69,276.69,0,0,1,35.57,2.19,188,188,0,0,1,35.71,8,114.82,114.82,0,0,1,17.74,7.69,71.35,71.35,0,0,1,16.9,12.58A51.21,51.21,0,0,1,1016,2438a46.52,46.52,0,0,1,2.81,5.55c.42,1,.8,2,1.14,3l.78,2.37c1.84,5.61,3.56,11.43,5,17.43a160.36,160.36,0,0,1,3.49,18.61c.39,3.2.65,6.47.8,9.78s.07,6.7-.12,10.11a97.83,97.83,0,0,1-1.26,10.34,83.13,83.13,0,0,1-2.64,10.41,76.61,76.61,0,0,1-4.2,10.14,71.19,71.19,0,0,1-5.78,9.44,77.13,77.13,0,0,1-15.14,15.61,94,94,0,0,1-17.66,10.81,131.81,131.81,0,0,1-18.39,7.1,180.56,180.56,0,0,1-18.46,4.45,252.15,252.15,0,0,1-36.5,3.93c-12,.52-24,.42-35.82-.21s-23.57-1.58-35.22-3-23.21-3-34.69-5a17,17,0,0,1,5-33.61h.12c11.13,1.41,22.25,2.73,33.35,3.84s22.16,2,33.18,2.5l8.25.31,8.22.16c5.46.06,10.92.07,16.32-.12l4-.14,4-.23c2.69-.13,5.34-.39,8-.6,1.33-.11,2.64-.27,4-.41s2.64-.27,3.94-.46l3.9-.51,3.86-.61a121,121,0,0,0,28.7-8.07c8.65-3.81,15.87-8.86,20.85-15.23a41.33,41.33,0,0,0,6-10.62,55.35,55.35,0,0,0,1.87-6.13,66.13,66.13,0,0,0,1.11-6.64c1-9.16.15-19.29-1.84-29.61-1-5.17-2.24-10.41-3.62-15.76l-.46-1.74a10.1,10.1,0,0,0-.32-1.07,17.39,17.39,0,0,0-.92-2.17,22.74,22.74,0,0,0-3-4.45,44.5,44.5,0,0,0-10.12-8.36,90.4,90.4,0,0,0-13.32-6.81,176.87,176.87,0,0,0-30.61-9.22,289.84,289.84,0,0,0-32.64-5,356.56,356.56,0,0,0-67-.21,258.28,258.28,0,0,0-33.33,5.21,167.1,167.1,0,0,0-16.35,4.52A127.75,127.75,0,0,0,769.47,2434Z"/><g class="cls-2"><path class="cls-3" d="M660.24,2465.59c19.67,21.87,27.43,52.74,49.26,71.78s134,37.66,199,37.66h80.09l9.17-94.12s-146.5,57.15-233.92,0c-61.51-40.23-24.86-80.13-38-106.78C708.86,2340,610.06,2376,570.11,2205.7,562,2294.91,584.51,2381.51,660.24,2465.59Z"/></g><ellipse class="cls-3" cx="1012.5" cy="874.66" rx="165.72" ry="119.63" transform="translate(15.4 1766.83) rotate(-82.64)"/><ellipse class="cls-1" cx="1057.89" cy="846.53" rx="57.16" ry="32.07" transform="translate(100.88 1805.64) rotate(-83.73)"/><ellipse class="cls-1" cx="950.19" cy="911.85" rx="28.59" ry="16.03" transform="translate(-104.19 1700.91) rotate(-80.63)"/><ellipse class="cls-3" cx="1590.92" cy="874.66" rx="119.63" ry="165.72" transform="translate(-98.9 210.9) rotate(-7.36)"/><ellipse class="cls-1" cx="1545.53" cy="846.53" rx="32.07" ry="57.16" transform="translate(-83.21 173.87) rotate(-6.27)"/><ellipse class="cls-1" cx="1653.24" cy="911.85" rx="16.03" ry="28.59" transform="translate(-126.4 281.32) rotate(-9.37)"/><path class="cls-9" d="M2491.43,1261.18h0c-24.76-40.27-78.87-47-119.14-22.25l-6.27,3.85-3.85-6.26c-24.76-40.27-76.09-58.67-116.36-33.91h0a85.6,85.6,0,0,0-28.08,117.75l3.85,6.27,77.86,126.61a22.57,22.57,0,0,0,31,7.4l126.61-77.85,6.26-3.86A85.6,85.6,0,0,0,2491.43,1261.18Z"/><g class="cls-4"><path class="cls-3" d="M2491.43,1261.18h0a75.85,75.85,0,0,0-10.78-13.73,85.61,85.61,0,0,1-39.72,86.3l-6.27,3.85-126.6,77.86a22.58,22.58,0,0,1-31-7.41l-69.83-113.57a85.11,85.11,0,0,0,10.55,25.88l3.85,6.27,77.86,126.61a22.57,22.57,0,0,0,31,7.4l126.61-77.85,6.26-3.86A85.6,85.6,0,0,0,2491.43,1261.18Z"/></g><g class="cls-10"><path class="cls-1" d="M2253.13,1227.6h0c40.27-24.77,91.6-6.37,116.36,33.9l3.86,6.27,6.26-3.86c40.27-24.76,94.38-18,119.14,22.26h0a85.82,85.82,0,0,1,4.62,8.58,85.31,85.31,0,0,0-11.94-33.57h0c-24.76-40.27-78.87-47-119.14-22.25l-6.27,3.85-3.85-6.26c-24.76-40.27-76.09-58.67-116.36-33.91h0a85.59,85.59,0,0,0-32.69,109.17A85.57,85.57,0,0,1,2253.13,1227.6Z"/></g><path class="cls-3" d="M2318.72,1476.47a35.08,35.08,0,0,1-29.93-16.68l-81.71-132.88a98.21,98.21,0,0,1,32.18-135c22.18-13.64,48.56-16.73,74.27-8.72a107.29,107.29,0,0,1,56.56,42.5,107.16,107.16,0,0,1,69.65-12.4c26.56,4.45,48.7,19.11,62.34,41.29h0a98.21,98.21,0,0,1-32.18,134.95L2337,1471.29A34.9,34.9,0,0,1,2318.72,1476.47Zm-33.22-272.56a62.86,62.86,0,0,0-33.14,9.35,73.09,73.09,0,0,0-24,100.56l81.71,132.87a10.06,10.06,0,0,0,13.84,3.3l132.88-81.71a73.17,73.17,0,0,0,24-100.55c-9.8-15.94-25.84-26.5-45.17-29.73-19-3.17-39.64,1-56.77,11.58l-6.27,3.85a12.49,12.49,0,0,1-17.19-4.1l-3.86-6.27c-10.53-17.12-27.09-30.23-45.44-36A69.16,69.16,0,0,0,2285.5,1203.91Z"/></g></g></svg>