<svg xmlns="http://www.w3.org/2000/svg" viewBox="0 0 593.3 456.29"><defs><style>.cls-1{fill:#e8e8ff;}.cls-2{fill:#b9b9f3;}.cls-3{fill:#9898dc;}.cls-10,.cls-11,.cls-4,.cls-6,.cls-7{fill:none;}.cls-4{stroke:#9b93ff;}.cls-10,.cls-11,.cls-4,.cls-7{stroke-linecap:round;stroke-linejoin:round;}.cls-5{fill:#fcc8ca;}.cls-6,.cls-7{stroke:#fff;}.cls-6{stroke-miterlimit:10;}.cls-8{fill:#fff;}.cls-9{fill:#9b93ff;}.cls-10{stroke:#ae2c54;}.cls-11{stroke:#003a6a;}.cls-12{fill:#17152c;}.cls-13{fill:#c06705;}.cls-14{fill:#d37600;}.cls-15{fill:#e9ae7a;}.cls-16{fill:#ae2c54;}.cls-17{fill:#003a6a;}.cls-18{fill:#d0905d;}.cls-19{fill:#84603c;}.cls-20{fill:#881f47;}.cls-21{fill:#02304f;}.cls-22{fill:#826ec2;}.cls-23{fill:#6555aa;}.cls-24{fill:#db901b;}.cls-25{fill:#c07c21;}.cls-26{fill:#fcffea;}.cls-27{fill:#6d4c2e;}</style></defs><g id="Camada_2" data-name="Camada 2"><g id="OBJECT"><path class="cls-1" d="M212,56.88C147.82,66.83,50.42,114.57,47.24,240s91,165.18,91,165.18,269,59.08,389.68,0c36-17.61,70-52.53,57.3-149.62s-156.81-80.08-202.85-145S287.72,45.16,212,56.88Z"/><path class="cls-2" d="M144.08,377.94H479a29,29,0,0,1,29,29v11.82a0,0,0,0,1,0,0H115.12a0,0,0,0,1,0,0V406.9A29,29,0,0,1,144.08,377.94Z"/><path class="cls-3" d="M70.77,418.72h484a25.43,25.43,0,0,1,25.43,25.43v12.14a0,0,0,0,1,0,0H45.34a0,0,0,0,1,0,0V444.15A25.43,25.43,0,0,1,70.77,418.72Z"/><rect class="cls-2" x="5.1" y="218.48" width="25.62" height="25.62" rx="5.29"/><rect class="cls-4" x="198.6" y="49.7" width="19.81" height="19.81" rx="2.69"/><polygon class="cls-5" points="538.02 156.53 528.25 148.77 516.32 152.43 520.67 140.73 513.51 130.51 525.97 131.04 533.48 121.07 536.83 133.09 548.63 137.15 538.23 144.05 538.02 156.53"/><path class="cls-5" d="M126.42,163.94H117.1c-.31-.53-.64-1-1-1.54l5-7.25a4,4,0,0,0-1-5.61l-6.54-4.5a4,4,0,0,0-5.61,1l-6,8.66c-.25,0-.5,0-.76,0-.51,0-1,0-1.52.08l-6-8.7a4,4,0,0,0-5.61-1l-6.55,4.5a4,4,0,0,0-1,5.61L85.87,163c-.21.32-.4.65-.59,1H75.69a4,4,0,0,0-4,4v10.15a4,4,0,0,0,4,4h9.59a17.7,17.7,0,0,0,1.13,1.73l-4.51,5.7a4,4,0,0,0,.67,5.66L88,199.52a4,4,0,0,0,5.66-.67l6-7.54c.53,0,1.05.08,1.59.08a17.92,17.92,0,0,0,2-.11l6,7.57a4,4,0,0,0,5.66.67l5.42-4.28a4,4,0,0,0,.66-5.66l-4.7-6c.33-.48.65-1,.94-1.48h9.32a4,4,0,0,0,4-4V168A4,4,0,0,0,126.42,163.94Z"/><circle class="cls-6" cx="101.19" cy="172.84" r="13.81"/><path class="cls-2" d="M574,233.86h-9.33c-.3-.53-.63-1-1-1.54l5-7.25a4,4,0,0,0-1-5.6l-6.55-4.5a4,4,0,0,0-5.6,1l-6,8.65c-.26,0-.51,0-.77,0-.51,0-1,0-1.52.08l-6-8.69a4,4,0,0,0-5.6-1l-6.55,4.5a4,4,0,0,0-1,5.6l5.37,7.82c-.21.31-.4.64-.59,1h-9.59a4,4,0,0,0-4,4V248a4,4,0,0,0,4,4h9.59A18.27,18.27,0,0,0,534,253.8l-4.5,5.7a4,4,0,0,0,.66,5.66l5.41,4.28a4,4,0,0,0,5.66-.66l6-7.55c.52,0,1.05.08,1.58.08a17.92,17.92,0,0,0,2-.11l6,7.58a4,4,0,0,0,5.66.66l5.41-4.28a4,4,0,0,0,.66-5.66l-4.7-5.95c.34-.48.65-1,.94-1.48H574a4,4,0,0,0,4-4V237.89A4,4,0,0,0,574,233.86Z"/><circle class="cls-7" cx="548.76" cy="242.76" r="13.81"/><rect class="cls-8" x="101.06" y="231.29" width="10.99" height="10.99"/><rect class="cls-9" x="507.91" y="292.72" width="9.86" height="9.86"/><rect class="cls-4" x="426.91" y="62.16" width="9.68" height="9.68" rx="2.14"/><path class="cls-4" d="M244.77,222.43s2.38-4.62,7-6.12,3.5,5.37,6.63,5.12,4-7,8.87-7"/><path class="cls-10" d="M45.34,254.69s2.38-4.62,7-6.12,3.5,5.37,6.63,5.12,4-7,8.87-7"/><path class="cls-11" d="M553.57,357.73s-2.38-4.62-7-6.12-3.5,5.37-6.63,5.12-4-7-8.87-7"/><circle class="cls-5" cx="47.16" cy="337.22" r="13.61" transform="translate(-224.64 132.12) rotate(-45)"/><circle class="cls-4" cx="370.94" cy="192.17" r="10.71" transform="translate(-27.24 318.58) rotate(-45)"/><circle class="cls-4" cx="252.82" cy="321.2" r="4.06"/><path class="cls-10" d="M119.05,116.61s-4.36-10.18-13.08-11.34S94.05,94.8,94.05,94.8"/><path class="cls-4" d="M33,122.15A35.14,35.14,0,0,1,47.9,129"/><path class="cls-10" d="M512.12,98.64s11.93-13.69,30.34-20"/><path class="cls-11" d="M.5,156.69a42.55,42.55,0,0,1,6.77,1c3.09.77,2.9,5.12,6.18,5.12s5.22,1,6.77,4.45,6-1.35,8.9,1.36,1.54,6.38,5.6,6.38,7.16-.78,8.7,4.25,7.35,4.06,7.35,4.06"/><path class="cls-11" d="M563.22,191.65a23.13,23.13,0,0,1,2.91-2.43c1.46-1,3.18.7,4.4-.66a3.54,3.54,0,0,1,4.34-1.14c2,.65,1.66-3,3.85-3.17s3.2,1.73,4.71.05,2.33-3.23,5-2,4.4-1.53,4.4-1.53"/><path class="cls-4" d="M17.91,303s5.43-4,9.15-5.14"/><path class="cls-12" d="M409.88,310.32l3,9.95-5.64,10.39,8.16,2.22s11.58-9.5,11.73-10.39-4.46-15-4.46-15Z"/><path class="cls-13" d="M408.47,326.13l5.67,1.89,13-8.35s2.3,4.9,2.52,6.91-11.24,8.34-13.14,10.13-11.46,6.79-13.91,4.78-1-3.45.66-6S408.47,326.13,408.47,326.13Z"/><path class="cls-12" d="M467.22,332.81l5.6,10.24,2.44,12.47L486.17,354V338.6l-6.68-13.81S465.18,329.06,467.22,332.81Z"/><path class="cls-14" d="M474.74,352.63s-1-.6,1.86-1.86,8.54-1.11,8.54-1.11l.37-12.44a14.75,14.75,0,0,1,4.23,5.68s1.33,9.65,1,15.37-5.42,12.47-9.73,12-4.85-5.66-5.27-9.8C475.35,356.09,474.74,352.63,474.74,352.63Z"/><path class="cls-15" d="M467.69,123.73,478.6,109l.89-47.87,9.36-.89s3.56,40.85,1.55,53.71-11,23.33-11,23.33Z"/><path class="cls-16" d="M484.09,325.76l-19.89,8.31s-18-30-22.58-48.74a40.5,40.5,0,0,1-.87-4.7c-2.08-17.81-.89-44.53-.89-44.53L416.4,267.27,426.79,308l-22.37,4.45s-18.89-44.24-14.73-57c4.09-12.57,28.68-42.26,29.45-43.19l0,0V207l52.92-6.48s6.07,15.38,4.29,36.17-7.72,47.79-7.72,47.79L483.43,324Z"/><path class="cls-15" d="M401.79,138.8s-9.13-5.49-14-15.07S392.88,64,392.88,64l8,1.63L400,116.16l13.36,11.36Z"/><path class="cls-17" d="M468.71,153.61l6.48,50.89s-3,1.2-8.06,2.59a115.63,115.63,0,0,1-25.06,4c-16.27.73-24.92-5-24.92-5l-2.77-51L398.64,141,410,122l16.7,13.64H452.1l15.5-15.72L483.2,132h0l2.29,1.78C477.48,142.29,468.71,153.61,468.71,153.61Z"/><path class="cls-18" d="M445.9,131.07l2.2,10.78s-.84,3.8-6.65,4.56c-6.3.82-7.13-3.18-7.13-3.18l-.38-10.68Z"/><path class="cls-15" d="M434.52,135.46c8.2,1.12,15.19-5.2,15.81-8.83l4.36-13.47a8.47,8.47,0,0,0-6.59-9.24l-11.53-3c-4.06-.69-8.38,3.47-9.07,7.52l-2.71,13.68C424.09,126.24,427.74,134.54,434.52,135.46Z"/><path class="cls-19" d="M428.29,101.77a12.67,12.67,0,0,0-2,4.89,8.1,8.1,0,0,0,.76,4.15l3.77-6.82s3,4.38,7.27,6.16a19.32,19.32,0,0,0,9,1.12s-1.26,5.45.74,7.44l-.44,2.72s1.26-2.15,2.89-2.08,1.47,2.88.56,5.78-2.78,3.8-3.82,3.43l-1-.37-.66,4.61a9.06,9.06,0,0,0,8.82-6c2.38-6.38,5.35-12.47,5.27-15.58a4.93,4.93,0,0,0-2-4.24s.59-4.37-4.16-7.79-8.53-4.23-14-3.86-10.39-.53-11.28-.08.14,2.75.14,2.75-2.44.3-2.89.82S426.07,102.28,428.29,101.77Z"/><path class="cls-15" d="M404.41,62.19,406.23,55s2.3-7.7.68-7c-1.43.66-3.32,5.73-3.76,7h-.61c.49-1.4,2.77-8.1,1.27-7.52-1.34.51-3.32,5.59-4,7.52h-.34c.76-2.27,2.26-7.15,1-6.66-.7.27-1.57,1.76-2.34,3.41.24-1.19.26-2.06-.28-1.86-1.16.45-2.86,4.76-3.52,6.55a17.62,17.62,0,0,0-1.71,9.17l7.72,2.16s3.92-1.89,6.28-3.38,4.05-1.62,4.05-2.7S404.41,62.19,404.41,62.19Z"/><path class="cls-15" d="M478.33,58.12l0-7.45s-.38-8,1-6.92c1.22,1,1.84,6.36,2,7.66l.59.14c-.13-1.47-.73-8.52.58-7.61s1.88,6.23,2.11,8.28l.33.08c-.19-2.39-.48-7.49.65-6.71.61.43,1.09,2.09,1.45,3.88.05-1.21.24-2.07.72-1.74,1,.72,1.63,5.31,1.85,7.2a17.7,17.7,0,0,1-.55,9.31l-8,.25s-3.35-2.78-5.29-4.79-3.55-2.55-3.29-3.59S478.33,58.12,478.33,58.12Z"/><path class="cls-20" d="M439.86,236.1,416.4,267.27,426.79,308l-22.37,4.45s-11.65-27.28-14.64-45.18a33.45,33.45,0,0,1-.48-10.11,10.24,10.24,0,0,1,.39-1.71c4.09-12.57,28.68-42.26,29.45-43.19l0,0,21.89,12.39Z"/><path class="cls-21" d="M468.71,153.61l6.48,50.89s-3,1.2-8.06,2.59l-6.22-50.56,19.89-26.42,2.41,1.86,2.29,1.78C477.48,142.29,468.71,153.61,468.71,153.61Z"/><path class="cls-21" d="M422.2,166.72l32.58,3.57s-1,3.86-12.71,4.14S423.34,170,422.2,166.72Z"/><path class="cls-20" d="M484.09,325.76l-19.89,8.31s-18-30-22.58-48.74l11.76,6.42L483.43,324Z"/><path class="cls-20" d="M441.62,285.33l17.86-.54s-2.11,9-8.93,9.86S441.62,285.33,441.62,285.33Z"/><path class="cls-16" d="M400.48,259.72s-5.43,6.7-10.7,7.5a33.45,33.45,0,0,1-.48-10.11Z"/><polygon class="cls-21" points="283.68 357.16 283.68 363.44 297.06 363.44 298.07 357.16 283.68 357.16"/><path class="cls-13" d="M283.68,363.44s-15.51,9.33-16.42,10.44a1.27,1.27,0,0,0-.18.27,2.62,2.62,0,0,0,2.39,3.79h25.2a2.56,2.56,0,0,0,2.55-2.59l-.16-11.91Z"/><path class="cls-18" d="M298.68,93.54h0a4.93,4.93,0,0,1-4.92-4.93V87.7a4.93,4.93,0,0,1,4.92-4.93h0a1.61,1.61,0,0,1,1.61,1.61v7.55A1.61,1.61,0,0,1,298.68,93.54Z"/><path class="cls-18" d="M324.6,93.54h0a4.93,4.93,0,0,0,4.93-4.93V87.7a4.93,4.93,0,0,0-4.93-4.93h0a1.61,1.61,0,0,0-1.6,1.61v7.55A1.61,1.61,0,0,0,324.6,93.54Z"/><polygon class="cls-21" points="368.1 355.96 369.19 364.91 355.89 365.67 353.92 358.45 368.1 355.96"/><path class="cls-14" d="M368.75,363.44s15.51,9.33,16.42,10.44a1.81,1.81,0,0,1,.18.27,2.62,2.62,0,0,1-2.39,3.79H358.39a3.17,3.17,0,0,1-3.17-3.22l.15-11.28Z"/><path class="cls-22" d="M341.22,181.16c-.45,5.39-.79,8.93-.79,8.93H291s-5.76-25.37-8.91-48.09c-.12-.91-.23-1.8-.31-2.68C279.54,117.55,288.2,104,288.2,104l5.39,1.25,8.38,1.95,7.16,1.67h9.24l3.27-.56L337,105.69a118.36,118.36,0,0,1,6.22,33.24C343.51,150.85,342.15,170,341.22,181.16Z"/><path class="cls-23" d="M322.77,113.24c-.11,2.56-4.4,5.8-10.69,6s-11.17-2-11.71-5.57a9.71,9.71,0,0,1,1.6-6.47l7.16,1.67h9.24l3.27-.56A13.33,13.33,0,0,1,322.77,113.24Z"/><path class="cls-22" d="M288.2,104,256,75.59l-7.22,9.08s11.18,22,19.71,30.77,13.91,11.47,13.91,11.47S288,111.4,288.2,104Z"/><path class="cls-18" d="M303.74,100.54l-1,12.26a11.16,11.16,0,0,0,8.49,4.15,10.28,10.28,0,0,0,8.54-4.15l-1.12-12.26Z"/><path class="cls-15" d="M311.61,105.7c-7.68-.25-13-10.45-13-13.88l-.89-11.92A6.92,6.92,0,0,1,304.61,73h14a6.92,6.92,0,0,1,6.92,6.93l-1.09,12C324.45,95.74,318,105.91,311.61,105.7Z"/><path class="cls-22" d="M332.51,106.45,356,72.91l12.49,7.22s-8.13,36.85-25.93,50.45C342.57,130.58,333.45,115.62,332.51,106.45Z"/><path class="cls-17" d="M370.13,357.77l-17.64,1.42S337.83,312.5,335,295.88c-1-5.75-1.71-10.58-2.26-14.48l-14.41-60-3.14-1.22-7.56,56.74c.14,4.22.3,11.65.11,21.95-.3,16.86-7.86,60.18-7.86,60.18l-18.5-.62s-3.89-57.94,4.39-85.11h.05l3.64-64.69,1.25-15.29.26-3.2h49.46l1.15,13.78L355.25,273C365.79,301.36,370.13,357.77,370.13,357.77Z"/><path class="cls-24" d="M307.08,51.69h6.09a7.88,7.88,0,0,1,7.17,4.6,7.79,7.79,0,0,1,.73,3.31H289.25a7.91,7.91,0,0,1,7.9-7.91h5.27v-11a20.38,20.38,0,0,1-17-20.09V0h40.81V20.61A20.37,20.37,0,0,1,307.08,41Z"/><path class="cls-24" d="M285.2,3.45a13.78,13.78,0,1,0,0,27.56h9.86V3.45ZM292,16.93v9.79h-7a9.8,9.8,0,0,1,0-19.59h7Z"/><path class="cls-24" d="M317.53,3.45V31h9.86a13.78,13.78,0,1,0,0-27.56Zm3.11,3.68h7a9.8,9.8,0,0,1,0,19.59h-7V7.13Z"/><path class="cls-15" d="M280.6,25.71a4.28,4.28,0,0,0-.45-.24,30.84,30.84,0,0,1-1.37,4.61,8.62,8.62,0,0,1-1.87,2.67c-1,4.17-6.13,24.22-11,35.44a32.93,32.93,0,0,1-3,5.64,28.77,28.77,0,0,1-14.21,10.84c-2-1.23-3.25-5-2.41-10.81a38.65,38.65,0,0,1,2.41-8.61c3.9-9.81,19.49-32.22,21.76-35.45L272,19.21s4.18-3.4,5.08-3,.49,1.85-.65,2.57c.2-.05,1.45-.4,2.1.11s-.35,1.93-.35,1.93a2.4,2.4,0,0,1,1.65.18c.58.43,0,1.9,0,1.9a2.1,2.1,0,0,1,1.37.17C281.77,23.44,281.3,25,280.6,25.71Z"/><path class="cls-21" d="M315.19,220.13l-7.56,56.74c.14,4.22.3,11.65.11,21.95-.3,16.86-7.86,60.18-7.86,60.18l-18.5-.62s-3.89-57.94,4.39-85.11h.05l3.64-64.69,1.25-15.29h10.48l17.14,28.06Z"/><path class="cls-15" d="M368.75,77.26c0,3.79-1.12,6.29-2.67,7.24a28.72,28.72,0,0,1-14.2-10.84c-2.43-3.44-5.26-11.09-7.78-19-3.11-9.82-5.74-20-6.54-23.2a8.34,8.34,0,0,1-1.85-2.64,30.84,30.84,0,0,1-1.37-4.61,4.28,4.28,0,0,0-.45.24c-.69-.71-1.17-2.27-.61-2.63a2.07,2.07,0,0,1,1.36-.17s-.58-1.47,0-1.9a2.34,2.34,0,0,1,1.65-.18s-1.06-1.37-.35-1.93,1.91-.16,2.1-.11c-1.14-.72-1.54-2.17-.65-2.57s5.08,3,5.08,3l1.59,11.32c.57.8,17.89,25.41,22,35.82A33.25,33.25,0,0,1,368.75,77.26Z"/><path class="cls-19" d="M299,67.7s1-3.1,7.37-5.06,15.79,2.83,19.18,2,3.72,1.62,2.1,3c0,0,3.17-1.24,3.31,2,.1,2.16-2.16,3.65-2.16,3.65a16.88,16.88,0,0,1,.41,6c-.48,2.5-2.44,7-4.4,8.76,0,0-.13-9-1.48-11.33-1-1.63-10.71-2.07-16.45-2.07A8.42,8.42,0,0,0,299,79.81l-.05.12c-1.62,4.12-.6,9.41-.6,9.41s-6.08-7.92-5.07-14.47S299,67.7,299,67.7Z"/><path class="cls-23" d="M281.39,126.32l1.67-8.24s-14.89-5.51-19.27-8.33C263.79,109.75,268.65,117.35,281.39,126.32Z"/><path class="cls-23" d="M342.57,130.58,340.06,121l17.67-10.59S349.94,126,342.57,130.58Z"/><path class="cls-17" d="M287.42,278.68,301.2,281s-2.14,4.72-7.14,5.15S287.42,278.68,287.42,278.68Z"/><path class="cls-21" d="M352,277.25l-13.77,2.33s2.14,4.71,7.14,5.14S352,277.25,352,277.25Z"/><polygon class="cls-21" points="290.63 194.26 340.78 194.26 340.43 190.09 290.97 190.09 290.63 194.26"/><path class="cls-25" d="M302.42,51.69v-11a20.38,20.38,0,0,1-17-20.09V0l29.68,38.77A20.37,20.37,0,0,1,307.08,41v2.89L303.91,45V56.29h16.43a7.79,7.79,0,0,1,.73,3.31H289.25a7.91,7.91,0,0,1,7.9-7.91Z"/><polygon class="cls-26" points="305.86 7.31 308.98 13.64 315.97 14.66 310.91 19.58 312.11 26.54 305.86 23.26 299.61 26.54 300.8 19.58 295.75 14.66 302.74 13.64 305.86 7.31"/><path class="cls-23" d="M290.06,147.05s8.09,4.24,21.18,4.67,24.24-6.43,24.24-6.43Z"/><path class="cls-18" d="M368.75,77.26c0,3.79-1.12,6.29-2.67,7.24a28.72,28.72,0,0,1-14.2-10.84c-2.43-3.44-5.26-11.09-7.78-19C348.64,62.72,357,74.18,368.75,77.26Z"/><path class="cls-18" d="M265.94,68.19a32.93,32.93,0,0,1-3,5.64,28.77,28.77,0,0,1-14.21,10.84c-2-1.23-3.25-5-2.41-10.81C253.3,74.31,260.32,71.46,265.94,68.19Z"/><path class="cls-15" d="M247.05,154.72h-.11c-.43,4.41-2.24,20.52-5.89,26.44-3.39,5.49-6.71,6-9.28,5.07A8.67,8.67,0,0,1,229.6,185l-.12.16-1-1.12a18.09,18.09,0,0,1-1.54-1.73l-17.77-19.88v-.19l-1.39-25.4s4.06.4,7.46,5.22c2.43,3.45,12.25,19.36,17.6,28,3-6.19,6.25-13.07,7.71-16.33a9.21,9.21,0,0,1-1.35-3.12,13.09,13.09,0,0,1,0-3.11,2,2,0,0,1-1.12-1.13,4.14,4.14,0,0,1,0-3,1.61,1.61,0,0,1,1.33-.64,2.61,2.61,0,0,1,1.19-1.28,2.22,2.22,0,0,1,1.77,0,2,2,0,0,1,1.44-1.08,2.22,2.22,0,0,1,1.77.38s1.55-.59,2.84,1.29S247.05,154.72,247.05,154.72Z"/><path class="cls-27" d="M186.6,94.94s-1.71-6.82-7.61-6.25-8.4,5.79-8.74,12.15-7.61,12-6.93,14.64,3.64,0,3.64,0-4.32,10-1.14,13.53,7,2.93,9.12-1.49,1.89-1.93,4.56-5.23.28-18.27,2.33-22.13A12.44,12.44,0,0,1,186.6,94.94Z"/><path class="cls-18" d="M179.65,121.38h-1a3.73,3.73,0,0,1-3.73-3.72h0a3.73,3.73,0,0,1,3.73-3.73h1a.75.75,0,0,1,.74.75v6A.74.74,0,0,1,179.65,121.38Z"/><path class="cls-18" d="M203.77,122.12h1a3.72,3.72,0,0,0,3.72-3.72h0a3.72,3.72,0,0,0-3.72-3.72h-1a.74.74,0,0,0-.74.74v6A.74.74,0,0,0,203.77,122.12Z"/><path class="cls-18" d="M231.77,186.22A8.67,8.67,0,0,1,229.6,185l-.12.16-1-1.12a18.09,18.09,0,0,1-1.54-1.73l-17.77-19.88v-.19l5.18.59,18.49,7.28-1.35,9.9A16,16,0,0,0,231.77,186.22Z"/><path class="cls-18" d="M186.29,128.73l-.72,10s1.21,3.33,6.55,3.33c5.78,0,6-3.71,6-3.71l-.9-9.69Z"/><path class="cls-15" d="M192.12,133.27c-7.53-.25-12.77-10.23-12.77-13.59L178.48,108a6.79,6.79,0,0,1,6.78-6.79H199a6.79,6.79,0,0,1,6.78,6.79l-1.06,11.75C204.7,123.51,198.34,133.48,192.12,133.27Z"/><path class="cls-19" d="M177.69,102.12s2.58-8.14,14.89-8.53,16.48,8.14,17.08,12.31-2.08,6-1.89,8-1.11,4.16-2.74,4.46c0,0-.14-7.94-3.91-8.73s-14.19,1.09-18.36-2.28c0,0-.74,8-3.75,10.14C179,117.53,172.73,112.75,177.69,102.12Z"/><path class="cls-17" d="M213.76,176.33l-.83,19.53H175.78l-.21-5.77-.47-13.31a49.52,49.52,0,0,1-6.22-21.09c-.41-9,4.49-17.61,5.76-19.66.18-.31.29-.47.29-.47l1.74.13,15.2,1.14h15.9A33.52,33.52,0,0,1,215.05,155C215.83,164.4,213.76,176.33,213.76,176.33Z"/><path class="cls-15" d="M224,249a2.28,2.28,0,0,1,0,.37c0,1.54,0,3.09,0,4.63-.08,8.77-.52,17.36-1,23.75s-.83,10.59-.83,10.59v78.41l-11.88,1.91s-5.38-38.24-6.29-55.19c-.15-2.68-.24-5.21-.31-7.56-.24-9,0-15.41.18-18.34l-.78-4.5-5.62-32.38-4.44-25.62h-3.56l-13.95,63.27a13.93,13.93,0,0,1-1.61,5.19,11.83,11.83,0,0,1-2,2.68c-1.66,1.66-15.36,10.06-28.64,18.05l-2.48,1.49-2.46,1.47-1.21.72-2.38,1.42c-2.34,1.4-4.57,2.73-6.62,3.94l-3.29,2-7.71,4.55L112,322.55a50.24,50.24,0,0,1,5.63-8.13c1.24-1.5,2.58-3,4-4.4l.07-.07a123.34,123.34,0,0,1,15.76-13.36,167.48,167.48,0,0,1,17.26-11c0-.09-.31-21.71,1-40.17a131.11,131.11,0,0,1,2.38-19,58.88,58.88,0,0,1,14.23-26.81l3.3-9.09h37.56l4.19,15.15s4.29,7.87,6.11,29.66c.24,2.88.4,5.92.49,9,0,.25,0,.5,0,.74v.11l0,1.53c0,.18,0,.35,0,.52C224,247.9,224,248.47,224,249Z"/><path class="cls-17" d="M117.67,314.42l7.23,10.84-7.71,4.55s2.26,15.87,0,16.28-6.85-3.79-7.66-6.63-2.57-7.4-3.38-9.65a11.11,11.11,0,0,1-.81-2.91l5.27-3.92Z"/><path class="cls-17" d="M208.82,357.27l13.42-1.59v11.07s11.61,6,15.4,7.31,3.51,4.76-3.25,5.22S218.58,377.44,216,378a15.87,15.87,0,0,1-6.08-.41l.3-9.8Z"/><path class="cls-21" d="M212.19,164.15l-26.62,25.94h-10l-.47-13.31a49.52,49.52,0,0,1-6.22-21.09c-.41-9,4.49-17.61,5.76-19.66.18-.31.29-.47.29-.47l1.74.13,9.92,26.74Z"/><path class="cls-15" d="M174.93,135.79s-.24,2.05-.67,4.87c-.11.7-.22,1.45-.35,2.23-1.18,7.1-3.25,16.56-5.6,13.59-1.27-1.62-5.31-6.23-10-11.54-8.67-9.79-19.61-21.94-19.61-21.94a13.27,13.27,0,0,1-1.22-1.67A25,25,0,0,1,134,105.42c1-10.68,6.42-34.21,7.06-37-.2-2.12-.81-8.91-.59-10.48.27-1.88,4-2.89,5-2.89s1.45,1.44,1.45,1.44a4.52,4.52,0,0,1,1.23.11,1.24,1.24,0,0,1,1,1.23s1.48.18,1.71.63a4.36,4.36,0,0,1,.27,1.3s.8.05,1,1.5-.49,3.48-1,3.75a2.7,2.7,0,0,1-.91.32s.1,5.39-2,7.15l-2.51,39.66Z"/><path class="cls-14" d="M224,254h0l-26.48-3.31-7.68-1-5.6-.7-28.58-3.57a131.11,131.11,0,0,1,2.38-19,58.88,58.88,0,0,1,14.23-26.81l1.46-4,1.84-5.08h37.56l4.19,15.15s4.29,7.87,6.11,29.66c.24,2.88.4,5.92.49,9,0,.25,0,.5,0,.74v.11l0,1.53c0,.18,0,.35,0,.52,0,.6,0,1.17,0,1.7a2.28,2.28,0,0,1,0,.37C224.06,252.27,224,254,224,254Z"/><path class="cls-13" d="M224,254h0l-26.48-3.31-7.68-1,18.91-45.86-35-8.23,1.84-5.08h37.56l4.19,15.15s4.29,7.87,6.11,29.66c.24,2.88.4,5.92.49,9,0,.25,0,.5,0,.74v.11l0,1.53c0,.18,0,.35,0,.52,0,.6,0,1.17,0,1.7a2.28,2.28,0,0,1,0,.37C224.06,252.27,224,254,224,254Z"/><polygon class="cls-18" points="199.74 263.37 223.34 273.44 224.02 254 197.54 250.69 199.74 263.37"/><path class="cls-18" d="M211.77,293.58l-8,12.33c-.24-9,0-15.41.18-18.34l-.78-4.5Z"/><path class="cls-18" d="M174,293.53a11.83,11.83,0,0,1-2,2.68c-1.66,1.66-15.36,10.06-28.64,18.05l-2.48,1.49-2.46,1.47-1.21.72-2.38,1.42-6.62,3.94-3.29,2-7.23-10.84,4-4.4.07-.07,43.44-11.77c-2-2.44-2.46-8.3-2.46-8.3Z"/><path class="cls-18" d="M174.26,140.66c-.11.7-.22,1.45-.35,2.23-1.18,7.1-3.25,16.56-5.6,13.59-1.27-1.62-5.31-6.23-10-11.54a20.66,20.66,0,0,0,9.55-.61A15.63,15.63,0,0,0,174.26,140.66Z"/></g></g></svg>