<svg xmlns="http://www.w3.org/2000/svg" viewBox="0 0 206.67 182.07"><defs><style>.cls-1{isolation:isolate;}.cls-2{fill:#dcefec;}.cls-3,.cls-5{fill:#bfd1cf;}.cls-13,.cls-3{opacity:0.5;}.cls-13,.cls-4{fill:#fff;}.cls-6{fill:#e5ddca;}.cls-7{fill:#354e77;}.cls-8{fill:#4c87a5;}.cls-9{fill:#2a2a2b;}.cls-10{fill:#f3658b;}.cls-11{fill:#e05f87;}.cls-12{fill:#bfb9b2;mix-blend-mode:multiply;opacity:0.6;}</style></defs><g class="cls-1"><g id="Camada_2" data-name="Camada 2"><g id="OBJECTS"><path class="cls-2" d="M106.49,44.44c-3,7.61.4,22.4,16.57,33.91,27.68,19.71,51.56,10,68.79-22.74,0,0,19-6.84,11.18-13.78-4.6-4.06-17.45,4.59-17.45,4.59s.63-4.93-1.59-5-2.05,9.45-2.05,9.45-9.39,10-27.65,10.12C143.28,61,134,49.83,128.21,42,122.17,33.86,109.8,35.9,106.49,44.44Z"/><path class="cls-3" d="M152.38,83.15c0-1.94-4.13-2.43-5.58-2.67,1.94-1,7-1.7,8-3.4,1.21-2.43-2.19-2.18-4.13-2.43,2.91-1,9.71-1.7,11.41-4.37,2.19-2.91-2.43-2.42-4.61-2.18,4.37-3.4,11.65-2.67,16-6.07-1-1-2.91-.73-4.37-1,1.7-.49,6.56-1.46,7.29-3.16.47-1.65-.66-2.15-2.06-1.73A43.8,43.8,0,0,1,154.29,61C143.28,61,134,49.83,128.21,42c-6-8.16-18.41-6.12-21.72,2.42-3,7.61.4,22.4,16.57,33.91,9.61,6.84,18.76,10.13,27.33,10.15a7.4,7.4,0,0,0-3.11-1C148.25,86.55,152.62,84.61,152.38,83.15Z"/><path class="cls-4" d="M107,50.41c.2,6.06,0,11.85,1.69,17.76.18.66,1.27.36,1.15-.3-.57-3.39-1-6.79-1.28-10.21-.19-2.31,0-5.25-1.08-7.37a.25.25,0,0,0-.48.12Z"/><path class="cls-4" d="M110,60.14c0,4.84,1.65,11.46,6.27,13.83.72.36,1.13-.65.65-1.12-3.7-3.64-5-7.94-6.35-12.79a.3.3,0,0,0-.57.08Z"/><path class="cls-4" d="M114.53,66.68c.31,4,1.83,10.41,6.61,11.16a.66.66,0,0,0,.48-1.17,16.83,16.83,0,0,1-6.1-10.11.5.5,0,0,0-1,.12Z"/><path class="cls-4" d="M122.7,74.64c.94,3.78,3.58,11.5,8.62,11a.76.76,0,0,0,.2-1.44c-4.22-1.41-6.47-5.89-8.15-9.72-.15-.35-.77-.22-.67.17Z"/><path class="cls-4" d="M128.52,79c.94,4,4.19,10.82,9.32,9.67.77-.17.88-1.34,0-1.44-4.24-.51-7.07-4.77-8.33-8.49-.19-.56-1.14-.32-1,.26Z"/><path class="cls-4" d="M134.86,84.26c2.58,4.11,6.91,6.76,11.88,6.2.72-.08.75-1.24,0-1.29-4.69-.32-8.44-1.39-11.41-5.28-.24-.31-.68,0-.48.37Z"/><path class="cls-4" d="M147.28,87.14c2.7,1.66,4,4.31,5,7.17.26.72,1.21.35,1.2-.32,0-3.38-2.88-6.24-5.82-7.53-.41-.19-.79.44-.4.68Z"/><path class="cls-4" d="M150.89,88.59a31.45,31.45,0,0,0,2.46,5c.65,1,2.16-.26,1.39-1.07a.92.92,0,0,1-.32-.52.53.53,0,0,0-1-.14,2.11,2.11,0,0,0-.23,1.08l1.67-.22a27.06,27.06,0,0,0-3.14-4.62.48.48,0,0,0-.82.48Z"/><path class="cls-4" d="M152.94,88.4c2.45-1.74,2.42,3.33,3.46,4.34a.71.71,0,0,0,1.08-.29c.45-1.28-.78-3.15-1.58-4.08-.94-1.08-2.18-1.32-3.14-.15a.13.13,0,0,0,.18.18Z"/><path class="cls-4" d="M159.31,86.21c3.36,1.53,8.13-.14,11.14-1.75.81-.44.32-1.73-.55-1.35-3.37,1.46-6.7,2.53-10.38,2.33a.4.4,0,0,0-.21.77Z"/><path class="cls-4" d="M170.05,81c3.64,1.08,6.56-1.17,9.33-3.25.6-.45-.11-1.35-.7-.91-2.45,1.8-5.2,4.12-8.45,3.49-.38-.07-.56.56-.18.67Z"/><path class="cls-4" d="M194.36,54.55c3.76.89,7.42-1,9.82-3.85.52-.61-.37-1.46-1-1-2.51,2-5.34,4.11-8.71,3.87a.48.48,0,0,0-.13.95Z"/><path class="cls-4" d="M202,50.18a7.12,7.12,0,0,0,4.61-4,.66.66,0,0,0-1.21-.5,8.48,8.48,0,0,1-3.78,3.62.5.5,0,0,0,.38.93Z"/><path class="cls-4" d="M202.69,47.4c.7-.44,1.1-1.7,1.4-2.42a7.5,7.5,0,0,0,.65-3.12c0-.75-1.11-.67-1.24,0-.19.95-.42,1.92-.68,2.85-.22.78-.68,1.51-.86,2.28-.1.43.43.6.73.42Z"/><path class="cls-4" d="M197.72,52.52c2.89-1,5.64-2.14,7.25-4.86.33-.55-.28-1.31-.84-.84a35.33,35.33,0,0,1-6.83,4.68.55.55,0,0,0,.42,1Z"/><path class="cls-4" d="M185.26,63.74c-.3,1.85,1.46,2,2.78,1.43a9.09,9.09,0,0,0,4.27-3.79c.41-.73-.71-1.58-1.31-1-.79.76-1.64,1.51-2.49,2.22-.55.47-2.2,2.23-2.67,1.06a.31.31,0,0,0-.58.08Z"/><path class="cls-4" d="M181.22,70.74a10.67,10.67,0,0,0,6.92-4.62c.3-.5-.28-1.23-.78-.77-2,1.79-3.7,3.82-6.36,4.57-.46.14-.25.91.22.82Z"/><path class="cls-4" d="M176.79,76.25c2.55.34,4.71-1.92,6.2-3.69.56-.67-.5-1.45-1.08-.82a18.64,18.64,0,0,1-2.21,2.05,10.47,10.47,0,0,1-3,1.55.48.48,0,0,0,.12.91Z"/><path class="cls-4" d="M182.89,67.14a12.53,12.53,0,0,0,6.65-3.64.55.55,0,0,0-.68-.87c-2,1.38-3.82,3-6.17,3.74-.44.13-.24.84.2.77Z"/><path class="cls-4" d="M178.53,70.2c2.62.65,5.23-.88,7.41-2.17.68-.4,0-1.56-.7-1.2-2.11,1.08-4.23,2.56-6.7,2.58-.49,0-.41.69,0,.79Z"/><path class="cls-4" d="M137.34,80.08a16.94,16.94,0,0,0,2.23,2,28.17,28.17,0,0,1,2.54,2.7.6.6,0,0,0,.95-.74,9.71,9.71,0,0,0-2.42-2.65,8.13,8.13,0,0,0-3-1.78.3.3,0,0,0-.28.48Z"/><path class="cls-4" d="M145.19,82.43A18.47,18.47,0,0,0,149,85.67a5.67,5.67,0,0,0,4.56.4c.41-.11.22-.8-.19-.72C150,86,147.84,84,145.53,82c-.28-.24-.58.19-.34.44Z"/><path class="cls-4" d="M154.58,83.74a6.38,6.38,0,0,0,3.24.33.42.42,0,0,0-.1-.84,5.46,5.46,0,0,1-2.8-.33.45.45,0,0,0-.34.84Z"/><path class="cls-4" d="M133.76,80.16A9.62,9.62,0,0,0,137,84.59a.45.45,0,0,0,.63-.63,22.9,22.9,0,0,1-3-4.16.48.48,0,0,0-.88.36Z"/><path class="cls-4" d="M120,67.37c.25,1.94,1.13,4.46,3.22,5.07a.35.35,0,0,0,.35-.6,8.52,8.52,0,0,1-2.92-4.55.33.33,0,0,0-.65.08Z"/><path class="cls-4" d="M115.3,58.1c1.12,2.11,2.21,4.25,3.41,6.32.22.36.83,0,.65-.38-1-2.11-2.24-4.16-3.36-6.23-.23-.42-.92-.14-.7.29Z"/><path class="cls-4" d="M128.27,72.1a5.63,5.63,0,0,0,2.28,3.84.43.43,0,0,0,.52-.68A7.73,7.73,0,0,1,128.84,72c-.1-.33-.64-.18-.57.15Z"/><path class="cls-4" d="M111,61.47a26,26,0,0,0,1.57,3.82.35.35,0,0,0,.65-.27,26.37,26.37,0,0,0-1.58-3.81.35.35,0,0,0-.64.26Z"/><path class="cls-4" d="M106,45.31a8,8,0,0,0-1.78,5.92c.06.5.86.52.9,0a10.58,10.58,0,0,1,1.44-5.51.35.35,0,0,0-.56-.42Z"/><path class="cls-4" d="M132.55,74.36c.63,1.84,1.18,3.69,2.56,5.1.31.31,1,0,.74-.42-.93-1.62-1.84-3.26-2.65-5a.35.35,0,0,0-.65.27Z"/><path class="cls-4" d="M124.8,75.25A6.08,6.08,0,0,0,126.15,79c.34.47,1.19,0,.9-.52s-.55-1-.8-1.49-.42-1.25-.73-1.82c-.16-.3-.68-.32-.72.09Z"/><path class="cls-4" d="M139.64,84.39c1.28,2.16,3.11,4.48,5.86,4.51.48,0,.81-.75.24-.91a10.8,10.8,0,0,1-5.62-4c-.25-.31-.67,0-.48.37Z"/><path class="cls-4" d="M110.37,56.46a44.35,44.35,0,0,0,5.75,10.39c.42.59,1.22-.08.87-.68-2-3.33-4.13-6.56-5.83-10a.43.43,0,0,0-.79.33Z"/><path class="cls-4" d="M161.45,79.09c4.52.93,8.88-.32,13.08-1.94.76-.3.28-1.39-.48-1.16-4.07,1.24-8.16,2.85-12.49,2.31a.4.4,0,0,0-.11.79Z"/><path class="cls-5" d="M120.71,37.73c1.77.75,3.58,1.39,5.33,2.19a18.72,18.72,0,0,1,5.62,4.25.6.6,0,0,0,1-.6c-1.82-4.48-7.66-5.21-11.73-6.44a.33.33,0,0,0-.25.6Z"/><path class="cls-5" d="M124.43,42.22c3.67,1.5,7.23,2.79,10.14,5.61.49.47,1.19-.3.81-.81-2.53-3.38-6.91-4.16-10.73-5.36a.3.3,0,0,0-.22.56Z"/><path class="cls-5" d="M129.82,48.17a13.83,13.83,0,0,0,9.55,4,.61.61,0,0,0,.16-1.16c-3.25-1-6.42-1.44-9.14-3.64-.49-.4-1,.34-.57.76Z"/><path class="cls-5" d="M136.43,53.85c1.65,4.25,7.62,6,11.6,4.29.64-.27.4-1.34-.31-1.2-3.46.66-8.77,0-10.64-3.36a.35.35,0,0,0-.65.27Z"/><path class="cls-5" d="M135.52,54.05c2.18,2.31,6.71,3.19,9.49,1.51.47-.29.07-.91-.37-.9-3.07.09-5.95.88-8.7-1-.26-.19-.66.16-.42.43Z"/><path class="cls-5" d="M116.9,39a21.66,21.66,0,0,0,4.55.27,21.65,21.65,0,0,1,5.37.79c.54.15.9-.62.35-.83a19.85,19.85,0,0,0-10.26-.62.2.2,0,0,0,0,.39Z"/><path class="cls-5" d="M149,60.82c4.36.5,8.73.49,12.86-1.12.65-.25.24-1.15-.4-1a36.61,36.61,0,0,1-12.36,1.4c-.45,0-.55.64-.1.69Z"/><path class="cls-5" d="M154.87,62.83c3.4-.73,7.35-1.22,10-3.74a.4.4,0,0,0-.49-.63,39.93,39.93,0,0,1-9.62,3.8c-.32.09-.18.64.15.57Z"/><path class="cls-5" d="M163.84,61.25c2.76.14,5.24-2.25,6.86-4.25.38-.46-.29-1.13-.74-.73-2,1.77-3.65,3.38-6.21,4.31a.35.35,0,0,0,.09.67Z"/><path class="cls-5" d="M172.28,58.34c2-1.07,3.31-3,4.57-4.76a.42.42,0,0,0-.67-.51,53.74,53.74,0,0,1-4.25,4.67c-.26.25,0,.8.35.6Z"/><path class="cls-5" d="M182.26,50.45c-.16-.87-.63-1.69-.81-2.59a19.56,19.56,0,0,1-.57-3.56.46.46,0,0,0-.87-.12,6.85,6.85,0,0,0,0,4.06c.23.79.7,2.66,1.76,2.68a.44.44,0,0,0,.49-.47Z"/><path class="cls-5" d="M182.44,49.36a13.42,13.42,0,0,1,0-7.69c.1-.33-.35-.66-.56-.33a7.77,7.77,0,0,0-1,4.33c0,1.19.13,3.12,1.22,3.88.13.08.37,0,.32-.19Z"/><path class="cls-5" d="M187,46.67c3.52-3.13,7.54-5,11.73-7a.43.43,0,0,0-.33-.79,33.93,33.93,0,0,0-11.74,7.38c-.25.24.07.68.34.44Z"/><path class="cls-5" d="M193.4,44.36c2.48-1.51,4.66-2.83,7.62-3.17.64-.08.67-1.13,0-1.15a10.79,10.79,0,0,0-8.12,3.83c-.27.33.17.68.49.49Z"/><path class="cls-5" d="M189.25,48.25c.81-.67,1.47-1.54,2.23-2.27s1.44-1.4,2.13-2.15c.36-.41-.26-1-.67-.67a15.43,15.43,0,0,0-4.34,4.59.43.43,0,0,0,.65.5Z"/><path class="cls-5" d="M190.28,48.85a44.19,44.19,0,0,1,7.2-4.56c.41-.23.16-.9-.29-.69a30.34,30.34,0,0,0-7.4,4.62c-.38.34.1,1,.49.63Z"/><path class="cls-5" d="M176.61,55.91c.38.86,1.48-.44,1.73-.73,1-1.12,1.61-2.45,2.51-3.61a.6.6,0,0,0-.85-.83,10.87,10.87,0,0,0-2,2.54c-.34.52-.62,1.08-.95,1.61a3.23,3.23,0,0,0-.33.49c-.1.24-.09.32.05.29a.18.18,0,0,0-.14.24Z"/><path class="cls-5" d="M144.16,60.37c.48.92,2.26.36,3,.17a10.48,10.48,0,0,0,4.12-1.93.63.63,0,0,0-.77-1,22.81,22.81,0,0,1-3.3,1.69,8,8,0,0,1-1.82.5c-.44.07-.79-.08-1.15.21a.3.3,0,0,0-.1.35Z"/><path class="cls-5" d="M122.84,44.92c2,1.91,4.69,3.64,7.55,3.3a.53.53,0,0,0,0-1,14.63,14.63,0,0,1-7.17-2.77c-.34-.26-.69.24-.39.52Z"/><path class="cls-5" d="M127.44,52.56c1.42,2.71,4.12,4.19,6.92,5.11a.45.45,0,0,0,.35-.83c-2.46-1.26-5.11-2.18-6.58-4.67-.23-.39-.9,0-.69.39Z"/><path class="cls-5" d="M137.93,60.69a8,8,0,0,0,5.87,3.62c.43,0,.66-.63.2-.77a10.33,10.33,0,0,1-5.48-3.31.37.37,0,0,0-.59.46Z"/><path class="cls-5" d="M142.85,68.08c2.08,0,4.15-.08,6.23-.15.48,0,.38-.76-.09-.75-2.08.07-4.15.17-6.22.26-.42,0-.33.65.08.64Z"/><path class="cls-5" d="M147.33,65A7,7,0,0,0,151,64a.35.35,0,0,0-.27-.65,18.94,18.94,0,0,1-3.46.9c-.5,0-.38.74.09.74Z"/><path class="cls-5" d="M153.3,65.48a26.94,26.94,0,0,0,7.35-2.23.45.45,0,0,0-.35-.83c-2.36.75-4.7,1.6-7.11,2.16-.56.13-.47,1,.11.9Z"/><path class="cls-5" d="M162.62,65.73c2.53-.44,4.44-1.8,6.59-3.09.48-.29,0-1.12-.5-.86-2.07,1.11-4,2.62-6.26,3.28-.39.11-.21.73.17.67Z"/><path class="cls-5" d="M173.82,62.17a21.33,21.33,0,0,0,1.44-2.2c.26-.4-.32-.86-.6-.45a21.15,21.15,0,0,1-1.48,2.16c-.34.39.31.89.64.49Z"/><path class="cls-5" d="M168.37,61.59a13.14,13.14,0,0,0,2.85-1.67c.47-.35-.08-1.06-.55-.71a14.09,14.09,0,0,1-2.61,1.63.41.41,0,0,0,.31.75Z"/><path class="cls-5" d="M178.66,59.91a21.06,21.06,0,0,0,2.73-4.37c.19-.38-.42-.74-.64-.37A32.66,32.66,0,0,1,178,59.42c-.33.39.31.88.64.49Z"/><path class="cls-5" d="M165.34,66.35c.79.39,1.77-.18,2.45-.58a10.44,10.44,0,0,0,2.62-2.56c.47-.58-.42-1.23-.92-.69s-1.29,1.31-2,1.95a7.14,7.14,0,0,1-2.2,1.23.35.35,0,0,0,0,.65Z"/><path class="cls-5" d="M116.62,44a4.39,4.39,0,0,1,4.45,1.62.5.5,0,0,0,.79-.62,4.72,4.72,0,0,0-5.42-1.67c-.38.11-.2.75.18.67Z"/><path class="cls-2" d="M65.6,162.78s-21.48,3.54-38.49-3.58l-3.57,8.87c-5.12-10.13-3.9-22.94-3.9-22.94,2.67-.75,13.16-2.32,18.43-10.5C38.07,134.63,68.1,147.29,65.6,162.78Z"/><path class="cls-3" d="M38.07,134.63s30,12.66,27.53,28.15c0,0-5.9.67-10.84.86a10.18,10.18,0,0,0,2.26-.33,10.18,10.18,0,0,1-2.26.33c-.3,0-.59,0-.9,0-3.57.05-8.34-.77-9.4-3,1.2-1.11,3.06-1.27,4.64-1.73-2.59-.39-11.48-2.17-5.15-4.59-2-.19-5.47-.5-6.63-1.87a2.79,2.79,0,0,1,2.18-1c-1.68.11-4.64.4-6.1-.7-.78-.69-1-1.33-.6-1.87.62-.32,1.17-.65,1.51-.86a2.82,2.82,0,0,0-1.51.86c-1.41.75-3.23,1.5-4,.94a1,1,0,0,1-.49-.94A13.22,13.22,0,0,0,30,147.77c-.84.11-1.67.57-1.78,1.14-1.68.9-3.77,1.57-4.85.57A13.83,13.83,0,0,0,25.35,148a3.65,3.65,0,0,0-2.07,1.36c0,.05.09.08.13.13a17.39,17.39,0,0,1-3.83,1.87,48.06,48.06,0,0,1,.06-6.22C22.31,144.38,32.8,142.81,38.07,134.63Z"/><path class="cls-4" d="M53.91,161.43c-3.72,3.38-10.26,6.51-14.93,3.22a.75.75,0,0,1,.73-1.31c4.55,2,10,.44,13.89-2.3.23-.16.52.2.31.39Z"/><path class="cls-4" d="M46.93,161.61a17.74,17.74,0,0,1-11.74,2.45.6.6,0,0,1,0-1.16c3.94-.68,7.65-.12,11.44-1.8.34-.15.66.31.32.51Z"/><path class="cls-4" d="M38.23,162.29c-2,1.18-5,2.85-7.25,1.3a.4.4,0,0,1,.29-.74,10.32,10.32,0,0,0,6.57-1.2c.43-.21.81.39.39.64Z"/><path class="cls-4" d="M26.44,160.4c.2,2.83.09,6.12-1.36,8.64-.26.43-1.1.32-1-.26.32-2.83,1.36-5.5,1.55-8.37a.43.43,0,0,1,.85,0Z"/><path class="cls-4" d="M24.11,165.3c.47,1.78.45,4.71-1.57,5.52-.59.24-1.09-.51-.81-1,.37-.66.93-1.17,1.28-1.85a5.91,5.91,0,0,0,.56-2.58.28.28,0,0,1,.54-.08Z"/><path class="cls-4" d="M23.73,164.11c-.35,1.65-.35,3.71-1.83,4.8-.55.39-1-.39-.69-.85a18.09,18.09,0,0,0,2-4.15c.12-.3.57-.09.51.2Z"/><path class="cls-4" d="M23.17,162.65c-.5,1.63-1,3.94-2.92,4.45a.65.65,0,0,1-.52-1.18,9.77,9.77,0,0,0,2.7-3.56.4.4,0,0,1,.74.29Z"/><path class="cls-4" d="M22.64,159.31a5.59,5.59,0,0,1-3.74,4,.55.55,0,0,1-.44-1,8.09,8.09,0,0,0,3-3.28c.28-.74,1.46-.49,1.21.3Z"/><path class="cls-4" d="M20.86,147.64c-1.14,1.49-2.71,2.84-3.08,4.77a.4.4,0,0,1-.77,0c-.43-2.32,1.83-3.87,3.16-5.45.4-.47,1.06.18.69.66Z"/><path class="cls-4" d="M21.51,149.91a14.75,14.75,0,0,0-1.63,5.91.5.5,0,0,1-1,0c-.25-2.32.88-4.33,2.06-6.25a.33.33,0,0,1,.57.32Z"/><path class="cls-4" d="M21.56,153.82a4,4,0,0,1-.75,1.31,6.73,6.73,0,0,0-.67,2c-.22,1.07.25,2.35-.22,3.34a.55.55,0,0,1-.75.22c-1.19-.86-.69-2.71-.27-3.87.35-1,1.34-3.05,2.54-3.11a.13.13,0,0,1,.12.16Z"/><path class="cls-4" d="M37.75,162.09c-2.22.29-4.89,1.08-7.07.26a.45.45,0,0,1,.22-.88,37.21,37.21,0,0,0,6.84.06c.36,0,.35.51,0,.56Z"/><path class="cls-4" d="M35,160.29c-2.28,1.13-5.2,2.69-7.14.23-.45-.58.43-1.13.93-.75,1.85,1.4,4,.57,5.95-.07.34-.11.59.43.26.59Z"/><path class="cls-4" d="M27.09,163.56A12.23,12.23,0,0,0,24.22,160c-.5-.41.1-1,.62-.84,1.66.66,2.29,2.58,2.84,4.14a.33.33,0,0,1-.59.26Z"/><path class="cls-4" d="M27.48,161.77a6.46,6.46,0,0,0-3.05-3.24c-.45-.21-.15-.9.31-.78,1.81.44,2.74,2.12,3.42,3.72.16.39-.49.68-.68.3Z"/><path class="cls-5" d="M25.85,143.75c-3,1.64-6.62,4.05-9.76,1.38a.73.73,0,0,1,.85-1.17c2.89,1.79,5.8.2,8.59-.94.42-.17.72.52.32.73Z"/><path class="cls-5" d="M28.61,144.49a55.63,55.63,0,0,1-7.78,1.11c-.61,0-.78-.95-.16-1.08a72.87,72.87,0,0,1,7.8-1c.53,0,.67.86.14.94Z"/><path class="cls-5" d="M31,143.37c-2.89-.35-6-1.07-8.74.33a.5.5,0,0,1-.52-.86c2.7-2,6.45-.7,9.43-.15.46.09.27.74-.17.68Z"/><path class="cls-5" d="M33,142.55c-3.49.31-7-.28-10.17,1.62-.48.29-.86-.4-.45-.73,3.07-2.43,7-1.41,10.61-1.54a.33.33,0,0,1,0,.65Z"/><path class="cls-5" d="M34.6,141.4c-1.3.18-2.61.26-3.92.41a20,20,0,0,0-4.6,1.46c-.46.16-.7-.42-.45-.75,1.9-2.43,6.28-1.66,9-1.82.46,0,.44.63,0,.7Z"/><path class="cls-5" d="M36.9,139c-3,.85-6.08.63-8.88,2.19a.43.43,0,0,1-.45-.73c2.67-2,6-1.37,9.15-2.09a.33.33,0,0,1,.18.63Z"/><path class="cls-5" d="M38.36,136.62a23.17,23.17,0,0,0-6.06,2.7c-.56.35-1-.47-.52-.85,1.79-1.35,4.2-2.56,6.5-2.39a.28.28,0,0,1,.08.54Z"/><path class="cls-2" d="M128.19,133.61s5.12,18.38-.46,36l9.16,2.76c-9.63,6-22.51,5.94-22.51,5.94-1-2.6-3.48-12.9-12.1-17.43C102.28,160.84,112.54,132.5,128.19,133.61Z"/><path class="cls-3" d="M119.32,171.58c-.11.83-.23,1.65-.3,2.44a3.29,3.29,0,0,1,.09-2.78l.21.34a13.24,13.24,0,0,0-.11-5.58,3.56,3.56,0,0,1-.29-.77,7.15,7.15,0,0,1,.29.77c.4.74,1,.83,1.91.34,1.46-.77,1.39-4.47,1.43-5.86,2.41,4.16,3.14-6.52,3.08-7.68,3.15,3.78,4.29-.15,4.65-4.17a72.36,72.36,0,0,0-2.09-15c-15.65-1.11-25.91,27.23-25.91,27.23,8.62,4.53,11.12,14.83,12.1,17.43a47.74,47.74,0,0,0,6-.47A12.42,12.42,0,0,0,119.32,171.58Z"/><path class="cls-4" d="M127.56,142.68c3.7,3.4,7.4,9.64,4.55,14.57a.75.75,0,0,1-1.38-.6c1.59-4.71-.45-10-3.53-13.63-.18-.21.15-.53.36-.34Z"/><path class="cls-4" d="M128.36,149.62a17.7,17.7,0,0,1,3.49,11.46c0,.58-1,.71-1.15.13-1-3.87-.8-7.61-2.82-11.23-.18-.33.25-.69.48-.36Z"/><path class="cls-4" d="M129.81,158.22c1.37,1.88,3.3,4.75,1.95,7.1a.4.4,0,0,1-.76-.23,10.24,10.24,0,0,0-1.79-6.42c-.24-.41.32-.85.6-.45Z"/><path class="cls-4" d="M129,170.13c2.8-.45,6.09-.64,8.72.59.46.21.42,1.06-.16,1.05-2.85-.06-5.6-.87-8.47-.79a.43.43,0,0,1-.09-.85Z"/><path class="cls-4" d="M134.07,172c1.73-.62,4.66-.87,5.65,1.07.28.57-.42,1.13-.94.9-.69-.31-1.25-.82-2-1.11a5.82,5.82,0,0,0-2.62-.33.28.28,0,0,1-.13-.53Z"/><path class="cls-4" d="M132.92,172.5c1.68.2,3.73,0,4.94,1.4.45.51-.29,1.06-.78.76a17.68,17.68,0,0,0-4.31-1.64c-.31-.09-.14-.55.15-.52Z"/><path class="cls-4" d="M131.52,173.18c1.67.36,4,.69,4.69,2.51a.66.66,0,0,1-1.13.63A9.66,9.66,0,0,0,131.3,174a.41.41,0,0,1,.22-.77Z"/><path class="cls-4" d="M128.24,174a5.55,5.55,0,0,1,4.3,3.37.56.56,0,0,1-1,.53,8,8,0,0,0-3.54-2.67c-.75-.2-.61-1.4.2-1.23Z"/><path class="cls-4" d="M122.87,175.58a4,4,0,0,1,1.37.62,6.6,6.6,0,0,0,2,.5c1.09.12,2.32-.46,3.35-.08a.56.56,0,0,1,.28.73c-.75,1.26-2.63.93-3.83.61-1-.26-3.16-1.06-3.32-2.25a.13.13,0,0,1,.15-.13Z"/><path class="cls-4" d="M129.66,158.71c.49,2.19,1.52,4.78.89,7a.45.45,0,0,1-.89-.14,38,38,0,0,0-.55-6.82c-.05-.36.47-.4.55-.06Z"/><path class="cls-4" d="M128.12,161.63c1.32,2.16,3.14,4.93.86,7.08-.53.51-1.16-.33-.83-.85,1.23-2,.21-4-.6-5.92-.14-.33.37-.63.57-.31Z"/><path class="cls-4" d="M132.08,169.2a12.15,12.15,0,0,0-3.29,3.18c-.37.53-1,0-.9-.54.52-1.72,2.37-2.52,3.87-3.2a.33.33,0,0,1,.32.56Z"/><path class="cls-4" d="M130.26,169a6.42,6.42,0,0,0-2.95,3.32c-.17.47-.89.24-.82-.23.28-1.84,1.88-2.92,3.41-3.74.37-.2.72.43.36.65Z"/><path class="cls-5" d="M112.46,172.2c1.9,2.86,4.62,6.23,2.24,9.6a.73.73,0,0,1-1.24-.75c1.52-3-.31-5.79-1.7-8.47-.21-.4.45-.75.7-.38Z"/><path class="cls-5" d="M116.77,176.82c1.59,1,3.08,2.45,5,2.64.39,0,.47.67.09.77-2.27.64-4-1.47-5.71-2.66-.51-.36.09-1.07.59-.75Z"/><path class="cls-5" d="M119,176a14.72,14.72,0,0,0,6,1.1.5.5,0,0,1,.1,1c-2.29.46-4.39-.48-6.4-1.49a.33.33,0,0,1,.26-.6Z"/><path class="cls-5" d="M112.94,169.39a54.83,54.83,0,0,1,1.81,7.65c.06.6-.88.86-1.06.26a71.57,71.57,0,0,1-1.66-7.69c-.1-.52.79-.74.91-.22Z"/><path class="cls-5" d="M111.62,167.12c-.09,2.91-.53,6.07,1.1,8.67a.5.5,0,0,1-.8.6c-2.18-2.52-1.27-6.37-1-9.38,0-.46.7-.33.69.11Z"/><path class="cls-5" d="M110.63,165.17c.61,3.45.34,7,2.51,10,.33.46-.31.9-.68.51-2.7-2.83-2-6.83-2.48-10.42-.06-.42.57-.48.65-.07Z"/><path class="cls-5" d="M109.33,163.7c.3,1.28.5,2.58.76,3.86A19.79,19.79,0,0,0,112,172c.2.44-.36.74-.7.52-2.6-1.67-2.22-6.1-2.63-8.76-.07-.46.6-.5.7-.07Z"/><path class="cls-5" d="M106.77,161.62c1.11,2.91,1.17,6,3,8.65a.43.43,0,0,1-.68.51c-2.26-2.47-1.91-5.9-2.9-8.92-.13-.4.46-.64.61-.24Z"/><path class="cls-5" d="M104.24,160.38a23.19,23.19,0,0,0,3.23,5.79c.39.53-.38,1.07-.8.6-1.5-1.67-2.92-4-3-6.27a.27.27,0,0,1,.53-.12Z"/><path class="cls-2" d="M31.19,87.28c-3.9,5.44-6.55,12.35-6.46,19.1,0,1,1.56,1.24,1.72.23,1.06-6.59,2-13.06,5.43-18.93C32.15,87.23,31.49,86.87,31.19,87.28Z"/><path class="cls-2" d="M29.9,98.5c-2,6.71-3.38,13.59-1.83,20.53a.91.91,0,0,0,1.78-.24,80.06,80.06,0,0,1,.73-20.1A.35.35,0,0,0,29.9,98.5Z"/><path class="cls-2" d="M34.31,110.37a.38.38,0,0,0-.73-.2c-1.9,7.43-2.65,15.75,0,23.08a.73.73,0,0,0,1.4-.39A54.32,54.32,0,0,1,34.31,110.37Z"/><path class="cls-2" d="M36.91,127.13a.56.56,0,0,0-1.11,0c-.16,6.4,0,13,3.57,18.56a.8.8,0,0,0,1.38-.81C37.92,139.27,37.12,133.34,36.91,127.13Z"/><path class="cls-2" d="M41.24,137.32a.25.25,0,0,0-.5,0c-.39,6.35-.07,13.25,4.48,18.18a.83.83,0,0,0,1.3-1C43.17,149.12,42,143.52,41.24,137.32Z"/><path class="cls-2" d="M58,159.52c-4.57-2.76-8.5-7.57-8.6-13.12a.45.45,0,0,0-.9,0,15,15,0,0,0,.87,6.06c-4.36-5.06-7.36-12.79-5-19.16.09-.24-.3-.4-.41-.17-3.07,6.57-.66,18.33,5.92,22.09a.7.7,0,0,0,.74,0,10.82,10.82,0,0,0,6.88,5.55A.68.68,0,0,0,58,159.52Z"/><path class="cls-2" d="M56.8,150.84c-.08-.78-1.28-.82-1.25,0,.17,4.88,3.07,10.9,7.65,13.09a.78.78,0,0,0,.94-1.22C61,158.93,57.4,156.07,56.8,150.84Z"/><path class="cls-2" d="M62.56,155.66a.45.45,0,0,0-.9,0c0,3.72,2.51,8.16,6,9.62.85.35,1.19-.91.58-1.38C65.6,161.91,62.88,159.11,62.56,155.66Z"/><path class="cls-2" d="M27,74.7a46.07,46.07,0,0,1,6.14-13.59c.44-.65-.59-1.22-1-.61a35.55,35.55,0,0,0-6.46,13.83A.71.71,0,0,0,27,74.7Z"/><path class="cls-2" d="M28.87,59.71C32,53.27,34.76,46.78,40.19,41.85c.38-.33-.13-1-.54-.7a33.74,33.74,0,0,0-12.2,18C27.25,59.94,28.48,60.53,28.87,59.71Z"/><path class="cls-2" d="M31.2,49.34a32.08,32.08,0,0,1,8.16-12.58c.26-.25-.09-.74-.39-.51-4.24,3.24-8.79,7.25-9.35,12.88C29.53,50.08,30.92,50.15,31.2,49.34Z"/><path class="cls-2" d="M33.23,38.91c2.69-3.89,5.89-7.58,10.29-9.57.27-.12.08-.53-.19-.46-4.76,1.3-9.32,4.74-11.26,9.35A.67.67,0,0,0,33.23,38.91Z"/><path class="cls-2" d="M34.88,33.34c3.19-4.82,8.47-9,14.15-10.41.33-.08.26-.62-.08-.59-6.19.56-12.69,4.5-15.2,10.35A.65.65,0,0,0,34.88,33.34Z"/><path class="cls-2" d="M43.77,22.55c4.14-2.05,8-5.14,12.78-5.46a.38.38,0,0,0,0-.76c-4.8-.35-10.08,2-13.69,5C42.18,22,43.05,22.91,43.77,22.55Z"/><path class="cls-2" d="M82.86,9A40.83,40.83,0,0,0,70.28,8.9a.59.59,0,0,0-.35.88,23.29,23.29,0,0,0-12.51,3.05c-.83.46-.27,1.89.65,1.55,5.26-1.9,10.65-3.61,16.32-2.74a.5.5,0,0,0,.26-1A16.35,16.35,0,0,0,71.87,10a100.66,100.66,0,0,1,11-.42C83.22,9.59,83.2,9.07,82.86,9Z"/><path class="cls-2" d="M92.81,10.65C89.52,6.93,83.58,6.52,79,7.06a.58.58,0,0,0,0,1.15c4.35.51,9.71-.09,13.2,3.08A.45.45,0,0,0,92.81,10.65Z"/><path class="cls-2" d="M52,17.15C36.43,29.44,24.56,62.58,27.7,95.08s11.75,68.85,54.82,68.49,52.08-33.28,57.17-73.21-3.13-63.81-14.49-73.21S68.81,3.84,52,17.15Z"/><path class="cls-3" d="M125.2,17.15c-5.09-4.21-17-7.32-30-8.27,4.85,5.84,9,13.77,10.51,19.68.72,2.85.36,10-4.63,6.76,2.85,5,6.42,15,4.28,20.32a5.6,5.6,0,0,1-3.92-3.57c2.49,5.71,6.77,14.26,4.27,20.67l-1.06-1.07c.71,5,2.49,10.69,1.78,15.68-.36,2.5-1.78,5.7-3.57,1.43,1.07,2.85,4.64,29.57-2.85,22.45-1.07,6,1.43,13.54-2.14,18.52a5.34,5.34,0,0,1-1.06-2.49c0,4.28-.36,12.83-4.28,15.68-.36-.35-.36-.71-.71-1.07.35,4.28-2.5,12.83-6.06,14.61,0-.35-.36-1.07-.36-1.42a28.92,28.92,0,0,1-2.45,8.5c42.71-.57,51.68-33.4,56.75-73.2S136.56,26.55,125.2,17.15Z"/><path class="cls-4" d="M40,34.58C33.27,43.07,31.13,54,27.58,64c-.23.65.78.91,1,.28,3.73-9.81,5.49-20.78,11.87-29.37.18-.25-.24-.58-.44-.33Z"/><path class="cls-4" d="M32.12,65.94c-3.45,7.43-6.48,15-6.72,23.26,0,1,1.37.92,1.46,0,.77-8,3.06-15.53,5.85-23,.13-.35-.44-.59-.59-.25Z"/><path class="cls-4" d="M28.88,92.23a64,64,0,0,0-2.54,20.08.58.58,0,0,0,1.15,0C27.7,105.6,28,99,29.65,92.44a.4.4,0,0,0-.77-.21Z"/><path class="cls-4" d="M30.49,102.82c-1.53,7.25-2.58,15.72-.68,23,.22.84,1.37.46,1.26-.34-1.06-7.64.08-14.93.11-22.54,0-.39-.61-.49-.69-.09Z"/><path class="cls-4" d="M32,111.52c-.2,7.4-1.3,15.29,1.93,22.21.27.58,1.16.16,1-.42C33,126,33,119,32.85,111.52a.45.45,0,0,0-.9,0Z"/><path class="cls-4" d="M31.44,80.49c-3.68,7.69-8.08,16.08-8.23,24.77a.58.58,0,0,0,1.13.15C26,96.78,29.3,89,31.81,80.64c.06-.21-.27-.36-.37-.15Z"/><path class="cls-4" d="M35,115.05c-1.37,11.15-1,22.83,4.77,32.79.37.65,1.33.08,1-.58-5.08-10-6.28-21.1-5.42-32.21,0-.23-.32-.22-.35,0Z"/><path class="cls-4" d="M41.84,135c-.87,7.08.27,15,6.17,19.63a.63.63,0,0,0,.88-.89c-5-5.26-6.82-11.59-6.35-18.74,0-.46-.65-.44-.7,0Z"/><path class="cls-4" d="M48.92,90.05c-2,7-2.58,14.13.25,21.1.16.4,1,.23.92-.18a35.88,35.88,0,0,1-.54-20.8c.07-.28-.55-.41-.63-.12Z"/><path class="cls-4" d="M53.94,108a21.39,21.39,0,0,0,.27,14.63c.17.45,1.12.25,1-.19-1.19-4.8-1.86-9.48-.51-14.29.1-.34-.66-.49-.77-.15Z"/><path class="cls-4" d="M41.46,106.34c-.86,6.22-1.43,12.39-.52,18.62.08.54,1,.41.94-.12a96,96,0,0,1,.26-18.41c0-.39-.63-.48-.68-.09Z"/><path class="cls-4" d="M45.13,121.31c0,5.22.1,10.45.32,15.67a.65.65,0,0,0,1.3,0c.17-5.22-.37-10.45-.46-15.67a.58.58,0,0,0-1.16,0Z"/><path class="cls-4" d="M42.67,58.75c-5.83,6.44-6.24,15.56-6.54,23.8,0,.75,1.1.73,1.15,0,.53-7.85.66-16.89,6-23.19.35-.42-.23-1-.6-.61Z"/><path class="cls-4" d="M32.55,58.91c-3.74,6.37-7.34,13-7.78,20.5,0,.76,1.08.73,1.15,0,.76-7.25,3.73-13.84,7.11-20.22a.28.28,0,0,0-.48-.28Z"/><path class="cls-4" d="M35.29,38.16C31.43,44,28,51.18,27.54,58.27a.55.55,0,0,0,1.08.14c1.5-7,3.5-13.75,7.15-20,.18-.31-.28-.57-.48-.28Z"/><path class="cls-4" d="M44.81,29.49c-5.4,3.38-11.17,7.26-14.5,12.81-.41.68.59,1.21,1,.61,3.87-5.16,9.38-8.44,13.74-13.07a.23.23,0,0,0-.28-.35Z"/><path class="cls-4" d="M47.9,22.75A41.23,41.23,0,0,0,34.37,33.62c-.43.51.27,1.23.75.74,4.05-4.12,8-8.21,13.1-11,.38-.21.05-.74-.32-.56Z"/><path class="cls-4" d="M87.67,10.67c-7.36-2.34-15.39-3.14-23-1.19-.83.21-.46,1.38.35,1.25a62.9,62.9,0,0,1,22.48.37.22.22,0,0,0,.12-.43Z"/><path class="cls-4" d="M68.06,11.55c-1.87-.52-4.26.11-6.15.41a25.94,25.94,0,0,0-8.32,2.65c-.66.36-.19,1.53.52,1.24,2.4-1,4.86-1.79,7.33-2.55,2.16-.67,4.5-.81,6.62-1.51a.12.12,0,0,0,0-.24Z"/><path class="cls-4" d="M44.52,77.34c-2.49,6-4.83,12-5.26,18.52,0,.75,1.09.73,1.15,0,.59-6.41,2.64-12.33,4.93-18.29.2-.52-.62-.72-.82-.23Z"/><path class="cls-4" d="M57.81,94.43a31.1,31.1,0,0,0-2.94,10.44c0,.7,1.11.86,1.23.16.63-3.43,2.16-6.77,2.62-10.21.07-.51-.65-.95-.91-.39Z"/><path class="cls-4" d="M67,100.6c-2.32,4.1-2.57,8.66-2.39,13.27a.65.65,0,0,0,1.3,0c.17-4.32.17-8.67,2.3-12.57a.7.7,0,0,0-1.21-.7Z"/><path class="cls-4" d="M65,151.07c-.17,5.15-.78,11.52,4.3,14.53.57.34,1-.49.51-.86-4.39-3.13-4.18-8.84-4.31-13.67a.25.25,0,0,0-.5,0Z"/><path class="cls-4" d="M61.1,153.81c-.37,4.24.85,8.9,4.26,11.68.45.36,1-.21.64-.64a14.46,14.46,0,0,1-4.35-11c0-.36-.52-.34-.55,0Z"/><path class="cls-4" d="M55.14,152c1,3.32,2.18,6.74,4.72,9.24a.48.48,0,0,0,.68-.67,25.11,25.11,0,0,1-4.68-8.77c-.16-.46-.87-.27-.72.2Z"/><path class="cls-4" d="M73.16,156.56c0,3.39,0,7.45,1.94,10.39a.43.43,0,0,0,.78-.33,35.55,35.55,0,0,1-2-10.06.35.35,0,0,0-.7,0Z"/><path class="cls-4" d="M71.17,124a48.68,48.68,0,0,0-2.42,16.94.46.46,0,0,0,.91,0c.17-5.69.51-11.27,2.28-16.73.16-.49-.61-.7-.77-.21Z"/><path class="cls-4" d="M56.65,137.13a16,16,0,0,0-1.58,8.07.43.43,0,0,0,.85,0,22.12,22.12,0,0,1,1.56-7.59c.25-.55-.55-1-.83-.48Z"/><path class="cls-4" d="M60.6,137.65a15.84,15.84,0,0,0,.46,8,.33.33,0,0,0,.63-.17,22,22,0,0,1-.31-7.75c.06-.45-.72-.55-.78-.11Z"/><path class="cls-5" d="M112,91.94a28.56,28.56,0,0,1-1.18,12.75.68.68,0,0,0,1.24.52c2.28-4.39,2.16-8.68,1.22-13.44-.14-.71-1.37-.56-1.28.17Z"/><path class="cls-5" d="M114.52,104.87a19.31,19.31,0,0,1-1.11,8.88c-.19.51.55.74.82.35,1.94-2.75,1.72-6.18,1.27-9.37-.08-.56-1-.42-1,.14Z"/><path class="cls-5" d="M122.79,92.73a19.5,19.5,0,0,1-1.13,8.89c-.17.45.58.77.78.33a17.74,17.74,0,0,0,1.25-9.22c-.06-.57-1-.58-.9,0Z"/><path class="cls-5" d="M97.89,78.32c.53,3.74-1.23,6.86-3.14,9.92-.21.34.3.75.55.43,2.4-3,3.88-6.58,3.17-10.51-.07-.39-.63-.21-.58.16Z"/><path class="cls-5" d="M102.64,68.52a28,28,0,0,1,.46,3.55c0,1.41-.2,2.8-.2,4.21a.37.37,0,0,0,.73.1c.62-2.26.74-6-.53-8.06a.25.25,0,0,0-.46.2Z"/><path class="cls-5" d="M110,62.58a39.3,39.3,0,0,0,0,5.09.35.35,0,0,0,.7,0,37.59,37.59,0,0,0,0-5.09.38.38,0,0,0-.75,0Z"/><path class="cls-5" d="M114,55.68A18.59,18.59,0,0,1,115.5,63a.3.3,0,0,0,.6,0,16.16,16.16,0,0,0-1.6-7.59c-.17-.35-.69-.05-.52.3Z"/><path class="cls-5" d="M109.54,79.13A10.8,10.8,0,0,1,108,87.42c-.29.49.42.86.74.43a10.09,10.09,0,0,0,1.59-8.93c-.13-.51-.88-.29-.78.21Z"/><path class="cls-5" d="M129.56,71.28a34.09,34.09,0,0,1,2.55,16.36c-.05.58.95.72,1,.14.91-5.82-.47-11.49-3-16.77-.17-.35-.79-.09-.64.27Z"/><path class="cls-5" d="M138.22,84.59c1.95,6.72,2.61,13,.52,19.73-.19.62.79,1.05,1.06.45,3-6.81,1.44-13.6-1-20.34-.13-.36-.69-.22-.58.16Z"/><path class="cls-5" d="M134.69,101.13c3.31,5.23,1.74,11.37.21,16.92-.15.53.67.91.91.38,2.54-5.47,3.15-12.55-.52-17.66-.25-.36-.85,0-.6.36Z"/><path class="cls-5" d="M133,116.73c1.68,5,1.62,9.79-.87,14.47a.58.58,0,0,0,1,.59c3-4.67,2.6-10.27.69-15.29-.19-.5-1-.3-.82.23Z"/><path class="cls-5" d="M128.45,128.75c.5,5.45-1.85,10.74-4.57,15.35-.43.71.61,1.26,1.08.63,2.88-3.85,6-11.23,4-16-.1-.27-.57-.26-.54.07Z"/><path class="cls-5" d="M119.7,142.57c1.14,4.72-.24,8.75-2.48,12.89a.63.63,0,0,0,1.08.63c2.68-4.28,3.71-8.83,2.22-13.75a.43.43,0,0,0-.82.23Z"/><path class="cls-5" d="M114.49,151.71a12.66,12.66,0,0,1-4.2,8.34c-.53.44.16,1.32.73.94,3.09-2.11,4.18-5.55,4.55-9.13.06-.62-1-.76-1.08-.15Z"/><path class="cls-5" d="M137.86,76A31.33,31.33,0,0,1,140,90.38c-.06.53.85.65.93.13.81-5.23-.48-10-2.57-14.76-.12-.28-.61-.08-.5.21Z"/><path class="cls-5" d="M138.69,65.44c2.56,4.3,3.25,8.69,3.83,13.58,0,.38.62.4.6,0a27.08,27.08,0,0,0-4-13.83c-.17-.27-.6,0-.43.25Z"/><path class="cls-5" d="M136.34,54.57c3.08,3.57,5.54,6.94,5.2,11.92a.5.5,0,0,0,1,.13c.82-4.69-2-9.82-5.81-12.53-.3-.21-.58.23-.37.48Z"/><path class="cls-5" d="M129.23,53.34a24.45,24.45,0,0,1,3.62,15.11.58.58,0,0,0,1.13.15c.91-5-.29-12.11-4.24-15.65-.27-.24-.71.07-.51.39Z"/><path class="cls-5" d="M131.19,44.65a14,14,0,0,1,6,8.68.55.55,0,0,0,1.08-.15c-.3-4-3.23-7.38-6.54-9.48-.6-.39-1.14.55-.55.95Z"/><path class="cls-5" d="M133.57,33.06c4.18,4,7.52,9,8.35,14.78.09.59,1.08.44,1-.14-.44-6-4.57-11.25-8.9-15.13-.33-.3-.82.18-.49.49Z"/><path class="cls-5" d="M121.89,17.46c5.38,2.42,10.94,5,14.19,10.15a.55.55,0,0,0,.95-.55c-3-5.54-9.34-8-14.87-10.24-.37-.16-.63.47-.27.64Z"/><path class="cls-5" d="M130,25.25c2.9,2.27,7.22,6,6,10.16a.55.55,0,0,0,1,.42c2.56-4.51-3.28-9-6.55-11.17-.35-.24-.79.33-.45.59Z"/><path class="cls-5" d="M106.83,9.59c-.78-.21-.63-.18-1.42.16a.41.41,0,0,0,0,.71c3.63,1.55,9.6-.18,11.83,3.86a.6.6,0,0,0,1.1-.46c-1.63-5-8.57-3.47-12.61-4.15,0,.25.07.5.1.75a2.84,2.84,0,0,1,1-.64.13.13,0,0,0,0-.23Z"/><path class="cls-5" d="M99.45,12c5.13-2,9.59-3.34,15.18-2.92.61.05.76-1,.14-1.08a22.72,22.72,0,0,0-15.59,3.36c-.31.21-.12.79.27.64Z"/><path class="cls-5" d="M97.18,12.37a60.75,60.75,0,0,1,8.63-5.07c.39-.19.11-.82-.29-.69-3.23,1-6,3.16-8.69,5.15-.36.26,0,.87.35.61Z"/><path class="cls-5" d="M117.39,27.55c.81,1.44,1.86,2.74,2.69,4.18a18.73,18.73,0,0,1,2.17,7c.1.75,1.26.79,1.2,0A18.8,18.8,0,0,0,118.06,27a.43.43,0,0,0-.67.52Z"/><path class="cls-5" d="M123.65,33.58c2.2,2.84,2.71,6.31,2.52,9.81,0,.79,1.1.75,1.2,0a13.65,13.65,0,0,0-3-10.56c-.44-.52-1.15.23-.75.75Z"/><path class="cls-5" d="M117.1,80.27c.76,3,1.7,6,2.18,9,.08.5,1,.39.89-.12a47,47,0,0,0-2.54-9.07.27.27,0,0,0-.53.14Z"/><path class="cls-5" d="M123.79,116.61a29.67,29.67,0,0,1-2.13,15.82c-.24.55.52,1,.82.48,2.76-5.2,3.27-10.5,2.56-16.3-.09-.79-1.35-.8-1.25,0Z"/><path class="cls-5" d="M100.93,134.74c.8,5.79-1.84,11.25-4.79,16.06-.32.52.47,1.16.87.66,3.73-4.72,5.91-10.93,4.69-16.94-.1-.52-.84-.28-.77.22Z"/><path class="cls-5" d="M105.12,144.91a35.19,35.19,0,0,0-2.67,7.22c-.12.48.61.83.82.35,1-2.32,1.74-4.72,2.85-7,.32-.66-.67-1.25-1-.58Z"/><path class="cls-5" d="M94.65,126c-.08,2.7-1.2,5.18-1.54,7.83-.06.42.65.52.74.1.52-2.64,1.52-5.21,1.6-7.93,0-.51-.79-.51-.8,0Z"/><path class="cls-5" d="M81.6,119.75c.3,4.34-.49,8.59-.66,12.92,0,.45.72.56.79.11a57.57,57.57,0,0,0,.92-13c-.05-.67-1.1-.68-1.05,0Z"/><path class="cls-5" d="M86.15,101.06c-1.63,1.72-2.37,4.65-2.54,6.94,0,.55.79.63.93.13l.93-3.22c.35-1.2,1-2.27,1.35-3.46a.4.4,0,0,0-.67-.39Z"/><path class="cls-5" d="M86.64,111.13c.23,4.06-.46,8.09-.71,12.14,0,.56.9.7,1,.13.62-4.12,1.25-8.08.87-12.27-.06-.73-1.19-.75-1.15,0Z"/><path class="cls-5" d="M85.88,157.58c-.83,2.72-1.58,5.48-2.33,8.23a.55.55,0,0,0,1,.42c1.43-2.56,1.73-5.54,2.43-8.35a.58.58,0,0,0-1.11-.3Z"/><path class="cls-5" d="M89.77,157.57a17,17,0,0,1-1.89,3.88,35.62,35.62,0,0,0-2.31,3.44c-.22.44.27,1.12.75.76,2.37-1.79,3.84-5,4.61-7.76a.6.6,0,0,0-1.16-.32Z"/><path class="cls-5" d="M92.69,157.73a19.45,19.45,0,0,1-5.38,11.05.43.43,0,0,0,.6.61c3.53-2.91,5.18-7.18,5.58-11.66.05-.52-.73-.5-.8,0Z"/><path class="cls-5" d="M102.1,155.94c-1.25,2.4-2.19,4.69-4.31,6.49-.48.41.14,1.18.67.87,2.48-1.47,3.29-4.44,4.42-6.91.24-.52-.51-1-.78-.45Z"/><path class="cls-5" d="M108.78,155.17a50,50,0,0,1-5.85,9.41c-.28.36.32.81.63.48a34.17,34.17,0,0,0,6-9.47c.22-.49-.5-.93-.73-.42Z"/><path class="cls-6" d="M86,37.19s-.77,3.11-1,4.6q-.14,1.18-.3,2.37a18.3,18.3,0,0,0,5.69,1.47,20.4,20.4,0,0,0-1-1.93C88.25,41.58,87.14,39.42,86,37.19Z"/><path class="cls-4" d="M86.12,40.26a2,2,0,0,0-.32,1.5.4.4,0,0,0,.73.06,1.41,1.41,0,0,0,.1-.76,2.72,2.72,0,0,1,0-.7c0-.27-.36-.29-.47-.1Z"/><path class="cls-4" d="M85.67,42.87c0,.13,0,.26,0,.39,0,.45.75.33.6-.11,0-.12-.05-.25-.1-.37a.25.25,0,0,0-.49.09Z"/><path class="cls-6" d="M95.47,41a19.59,19.59,0,0,0-2.09,3.21A9.87,9.87,0,0,0,92.72,46a31.26,31.26,0,0,0,6,1.33c-.25-.64-.48-1.29-.72-1.82C97.26,43.93,96.19,42.56,95.47,41Z"/><path class="cls-4" d="M94.7,42.33c-.44.77-1.13,1.48-.76,2.42a.48.48,0,0,0,.63.25,2.8,2.8,0,0,0,1.23-2.38.58.58,0,0,0-1.1-.29Z"/><path class="cls-6" d="M104.39,42.38c-.72,1.09-1.44,2.19-2.09,3.3-.38.62-.7,1.38-1.08,2.1a28.54,28.54,0,0,0,6.2.38c-.17-.31-.34-.63-.49-.94C106.11,45.57,105.29,43.91,104.39,42.38Z"/><path class="cls-4" d="M103.76,43.67c-.26.28-.52.53-.41.95a.43.43,0,0,0,.7.16,1.64,1.64,0,0,0,.32-.68c.14-.37-.29-.76-.61-.43Z"/><path class="cls-4" d="M103,46.58a.27.27,0,0,0,.12-.52.27.27,0,0,0-.12.52Z"/><path class="cls-6" d="M116,45.78c-.17-1.35-.28-4.39-.28-4.39a49.91,49.91,0,0,0-3.91,4.06c-.67.72-1.38,1.56-2.11,2.37a21.57,21.57,0,0,0,6.41-1.17C116.05,46.36,116,46.06,116,45.78Z"/><path class="cls-4" d="M114.7,42.78a10.16,10.16,0,0,0-1.18,1.09,3.14,3.14,0,0,0-.92,1.26.4.4,0,0,0,.53.43,2.54,2.54,0,0,0,.87-1,9.9,9.9,0,0,1,1-1.38.25.25,0,0,0-.33-.36Z"/><path class="cls-6" d="M120.42,52c.9-1.35.8-3.65,1-5.18.11-.68.15-1.46.24-2.23a37.89,37.89,0,0,1-5.12,2.2c.44.75,1,1.5,1.36,2.13C118.55,49.81,119.37,51.49,120.42,52Z"/><path class="cls-4" d="M118,47.3c-.08.26.08.49.2.72s.22.54.53.64a.31.31,0,0,0,.38-.18c.13-.29,0-.5-.22-.71s-.39-.51-.64-.58a.19.19,0,0,0-.25.11Z"/><path class="cls-4" d="M119.39,49.55s0,.05,0,.07a.3.3,0,0,0,.58,0l0-.07c.18-.51-.73-.57-.62,0Z"/><path class="cls-6" d="M80,51c-1.25-1.41-1.48-4.06-2-5.79-.24-.75-.4-1.65-.62-2.52a43.09,43.09,0,0,0,6.22,1.75c-.4.94-.89,1.88-1.24,2.66C81.8,48.23,81.11,50.28,80,51Z"/><path class="cls-4" d="M82.07,45.27a1.11,1.11,0,0,1-.12.85c-.13.33-.17.66-.51.82a.36.36,0,0,1-.47-.15c-.19-.32,0-.58.15-.84s.37-.65.65-.78a.23.23,0,0,1,.3.1Z"/><path class="cls-4" d="M80.8,48.06v.09a.35.35,0,0,1-.66.13l0-.08c-.29-.55.75-.76.7-.14Z"/><path class="cls-7" d="M101.36,16.09c1.42,0,6.9,9.35,6.1,13.54-.51,2.69-3.83,3.92-5.89,3.94s-5.41-1.12-6-3.8C94.69,25.6,99.94,16.11,101.36,16.09Z"/><path class="cls-8" d="M100.9,30.87a16.29,16.29,0,0,1-.64-6.54c.17-2.76.6-5.5,1-8.22-1.52.31-6.59,9.55-5.71,13.66.58,2.68,3.92,3.83,6,3.8a6,6,0,0,0,1.07-.11A6,6,0,0,1,100.9,30.87Z"/><path class="cls-9" d="M67.43,26.15C64,31.8,64.6,36.59,70.08,40.4c6.49,4.49,15.43,5.59,23,7.21,9.28,2,35.54,4.48,30.76-12.17-.22-.74-1.34-.33-1.14.41,4.22,15.54-22.08,11.52-30.26,9.66C86.68,44.21,80.8,43,75.34,40.77c-3.12-1.28-6.88-3.1-8.22-6.38-1.07-2.62,0-5.55.6-8.15,0-.18-.2-.23-.29-.09Z"/><path class="cls-10" d="M66.88,34.63c-.67-2.25,1.23-7.66,4.77-8.17s4.15,3.89,2.41,7-2.14,5.14-1.87,6.26C72.19,39.76,67.43,36.65,66.88,34.63Z"/><path class="cls-11" d="M74.06,33.5c1.22-2.21,1.28-5,0-6.35a5.3,5.3,0,0,1-1.38,4.18,18.1,18.1,0,0,0-2.43,4c-1.3-1.19.52-4.83,1.34-5.92-.87.42-3.92,5.09-3.63,6.71.54,1.49,4.24,3.62,4.24,3.62C71.92,38.64,72.32,36.66,74.06,33.5Z"/><path class="cls-9" d="M80.88,21.57c.23,2.9,1.75,5.94,5,6.3,2.55.29,2-3.12,2-4.62,0-.13-.22-.17-.25,0-.22,1.26-.07,3.88-2,3.41a6.42,6.42,0,0,1-2.68-2,11.48,11.48,0,0,1-1.81-3.15c0-.11-.24-.06-.23.06Z"/><path class="cls-9" d="M111.49,24.47c.53,2.1,1,5.16,3.31,6.08,2.74,1.09,4.16-2.62,3.39-4.7a.25.25,0,0,0-.48,0c-.34.89-.26,1.87-.68,2.75-.55,1.15-1.78.81-2.5.1a16.21,16.21,0,0,1-2.59-4.43c-.12-.26-.52-.07-.45.2Z"/><path class="cls-6" d="M117.79,15.67s8-5.19,7.66-8.84-5-6-4.52-6.59,5.23.67,8.22,4.79-.42,12.42-6,16.24C123.11,21.27,119.51,20.48,117.79,15.67Z"/><path class="cls-4" d="M119.74,14.27l-.4.3a18.13,18.13,0,0,0,5.82,5c.26-.25.51-.52.75-.79A18.42,18.42,0,0,1,119.74,14.27Z"/><path class="cls-4" d="M125.59,15.83a28.59,28.59,0,0,1-4.15-2.95l-.41.35a22,22,0,0,0,3.61,2.88A26.78,26.78,0,0,0,127,17.49c.17-.22.33-.44.48-.67A19,19,0,0,1,125.59,15.83Z"/><path class="cls-4" d="M123.11,11.28l-.42.44A17.41,17.41,0,0,0,128.55,15q.18-.33.33-.66A18.52,18.52,0,0,1,123.11,11.28Z"/><path class="cls-4" d="M124.86,9c-.1.18-.21.35-.33.53a41.66,41.66,0,0,0,4.1,1.83c.4.16.8.31,1.21.45.08-.3.15-.59.21-.89-.52-.17-1.05-.37-1.59-.59C127.26,9.82,126,9.46,124.86,9Z"/><path class="cls-4" d="M125.37,6.31c0,.17.06.34.08.52a1.71,1.71,0,0,1,0,.32,14.28,14.28,0,0,0,4.69.32,5.86,5.86,0,0,0-.23-.94A17.27,17.27,0,0,1,125.37,6.31Z"/><path class="cls-4" d="M124.6,4.44c.09.14.17.29.25.44A9.28,9.28,0,0,0,128.32,4c-.18-.21-.37-.41-.56-.6A15.14,15.14,0,0,1,124.6,4.44Z"/><path class="cls-4" d="M125.66,1.74c-.28-.18-.56-.35-.83-.5A10.89,10.89,0,0,1,123,2.47l.52.53A8.26,8.26,0,0,0,125.66,1.74Z"/><path class="cls-12" d="M129.15,5c-2.68-3.69-6.81-5.12-7.94-4.91,3.77,2.51,7.72,5.53,7,10.47-.44,3.69-2.47,7.19-4.79,10.43C128.87,17.09,132.08,9.06,129.15,5Z"/><path class="cls-6" d="M58.11,16s-6.94-6.5-6-10S58,1,57.69.28,52.42,0,48.76,3.57,47,15.88,51.9,20.61C51.9,20.61,55.59,20.46,58.11,16Z"/><path class="cls-4" d="M56.43,14.29l.35.38a18.18,18.18,0,0,1-6.6,3.94c-.21-.29-.41-.6-.61-.9A18.3,18.3,0,0,0,56.43,14.29Z"/><path class="cls-4" d="M50.41,14.82A30.25,30.25,0,0,0,55,12.64c.11.14.22.28.34.41a21.77,21.77,0,0,1-4.06,2.21,26.59,26.59,0,0,1-2.56,1q-.19-.37-.36-.75A17.23,17.23,0,0,0,50.41,14.82Z"/><path class="cls-4" d="M53.63,10.77l.34.5a17.21,17.21,0,0,1-6.35,2.26l-.21-.71A18.16,18.16,0,0,0,53.63,10.77Z"/><path class="cls-4" d="M52.31,8.21a4.66,4.66,0,0,0,.23.58,39,39,0,0,1-4.35,1.1c-.42.09-.85.16-1.27.23,0-.31-.05-.61-.06-.91.55-.08,1.1-.19,1.68-.31C49.8,8.62,51.07,8.47,52.31,8.21Z"/><path class="cls-4" d="M52.27,5.48c-.06.17-.12.33-.17.51A1.7,1.7,0,0,0,52,6.3a14.09,14.09,0,0,1-4.67-.5,6.35,6.35,0,0,1,.39-.88A17.21,17.21,0,0,0,52.27,5.48Z"/><path class="cls-4" d="M53.35,3.77,53,4.16a9.18,9.18,0,0,1-3.27-1.44c.22-.18.44-.34.66-.49A15.15,15.15,0,0,0,53.35,3.77Z"/><path class="cls-4" d="M52.78.93c.3-.13.61-.24.9-.35a11.14,11.14,0,0,0,1.61,1.54l-.59.43A8.1,8.1,0,0,1,52.78.93Z"/><path class="cls-12" d="M52.1,6c.82-3.11,4.76-4.63,5.49-5.42-3.84,1.37-8.82,3.13-8.82,7.31s2.7,8.4,5.46,12A9.43,9.43,0,0,0,58.11,16S51.17,9.52,52.1,6Z"/><path class="cls-2" d="M39,47.06C30.9,45.84,17.21,52.33,9.49,70.62c-13.21,31.31,1.5,52.5,37.18,62.19,0,0,10.81,17.09,15.88,7.91,3-5.37-8.28-16-8.28-16s4.95-.46,4.57-2.65-9.67.06-9.67.06-11.8-7-15.9-24.78C30.8,86.59,39.7,75.09,46.07,67.74,52.72,60.06,48,48.44,39,47.06Z"/><path class="cls-13" d="M51.9,135.72a2,2,0,0,0,.94-.35c-2.33-1.63-5.83-1.55-7.7-3.8.55,0,1-.18,1.42-.15-3.29-1.36-8.37-2.16-10.29-4.9a3.88,3.88,0,0,1,2.88-.54c-3.14-2-11.54-3.78-12.49-7.26,1.59-1.11,3.3.06,5.19.22-2.94-2.09-13.58-5-13.41-9,1.48-.43,3.11.2,4.6.64-2-3.32-11.16-7.9-10-12.23,2.23.22,4,2.26,6.19,2.48-1.45-1.65-7.44-7.24-6.69-9.54,1.16-2.59,4.74.83,5.71,2.22-1-2.26-4.71-8.85-2.88-11.31,1.59-2.15,3.13.44,3.63,2.44a18.94,18.94,0,0,1,1.56-11.12c1.41-3.06,3.1-2.76,3.18.74a15.12,15.12,0,0,1,2.74-9.63c2.23-2.74,3.46-1.83,2.87,1.55.67-2.84,3.51-11.06,6.6-11.74.51,2-.18,4-.54,6a26.07,26.07,0,0,1,7.55-12A11.46,11.46,0,0,0,39,47.06C30.9,45.84,17.21,52.33,9.49,70.62c-13.21,31.31,1.5,52.5,37.18,62.19,0,0,10.09,15.94,15.34,8.76C57.89,140.47,52.74,139.12,51.9,135.72Z"/><path class="cls-4" d="M33.27,48.89c-5.87,1.5-11.57,2.61-17,5.51-.6.33-.07,1.32.55,1.06q4.77-2,9.68-3.47c2.21-.69,5.12-1.15,7-2.66a.25.25,0,0,0-.22-.44Z"/><path class="cls-4" d="M24.42,53.88C19.68,54.88,13.59,58,12.28,63c-.2.78.88,1,1.24.38,2.74-4.4,6.66-6.58,11.09-9,.26-.13.09-.6-.19-.54Z"/><path class="cls-4" d="M19,59.75c-3.87,1.19-9.76,4.06-9.45,8.89a.65.65,0,0,0,1.24.21,16.9,16.9,0,0,1,8.55-8.15.5.5,0,0,0-.34-1Z"/><path class="cls-4" d="M13,69.46c-3.48,1.75-10.44,6-8.85,10.81a.76.76,0,0,0,1.45-.12c.46-4.43,4.34-7.6,7.72-10.07.3-.22,0-.8-.32-.62Z"/><path class="cls-4" d="M10,76.1C6.31,77.89.38,82.54,2.62,87.3A.73.73,0,0,0,4,87c-.42-4.24,3.11-7.93,6.48-10,.5-.31.05-1.19-.48-.93Z"/><path class="cls-4" d="M6.29,83.43C2.84,86.84,1.2,91.65,2.83,96.37c.24.69,1.38.47,1.26-.27-.71-4.64-.48-8.54,2.67-12.29.25-.3-.2-.65-.47-.38Z"/><path class="cls-4" d="M6.18,96.18c-1,3-3.33,4.81-5.9,6.46-.64.41-.07,1.25.57,1.1,3.3-.76,5.46-4.17,6.09-7.32.09-.44-.61-.67-.76-.24Z"/><path class="cls-4" d="M5.56,100a31.32,31.32,0,0,0-4.36,3.49c-.78.84.73,2,1.35,1.12a.9.9,0,0,1,.44-.42.54.54,0,0,0-.09-1,2.16,2.16,0,0,0-1.1,0l.58,1.59a27.36,27.36,0,0,0,3.82-4.08.48.48,0,0,0-.64-.69Z"/><path class="cls-4" d="M6.19,102c2.23,2-2.72,3.09-3.48,4.33a.7.7,0,0,0,.51,1c1.35.17,2.9-1.44,3.64-2.42.85-1.16.82-2.41-.54-3.1a.13.13,0,0,0-.13.21Z"/><path class="cls-4" d="M9.72,107.72c-.77,3.61,1.9,7.9,4.13,10.49.6.69,1.75-.06,1.19-.84a22.71,22.71,0,0,1-4.53-9.62.4.4,0,0,0-.79,0Z"/><path class="cls-4" d="M17.19,117.05c-.27,3.79,2.57,6.15,5.21,8.4.56.49,1.29-.4.73-.89-2.29-2-5.16-4.17-5.25-7.48,0-.39-.67-.43-.69,0Z"/><path class="cls-4" d="M48.25,135c0,3.87,2.59,7,5.89,8.75.71.37,1.35-.68.74-1.18-2.48-2-5.18-4.31-5.68-7.65a.48.48,0,0,0-1,.08Z"/><path class="cls-4" d="M54.18,141.54a7.08,7.08,0,0,0,5,3.62.66.66,0,0,0,.23-1.29A8.49,8.49,0,0,1,55,141a.5.5,0,0,0-.82.57Z"/><path class="cls-4" d="M57,141.6c.58.59,1.9.7,2.67.84a7.62,7.62,0,0,0,3.19,0c.72-.18.41-1.23-.26-1.22-1,0-2,0-2.94,0-.81,0-1.62-.33-2.41-.34-.44,0-.49.55-.25.8Z"/><path class="cls-4" d="M51,137.87c1.59,2.6,3.31,5,6.32,6,.61.2,1.22-.56.64-1a35.63,35.63,0,0,1-6.06-5.64.55.55,0,0,0-.9.63Z"/><path class="cls-4" d="M37.3,128.15c-1.87.11-1.62,1.85-.8,3a9.16,9.16,0,0,0,4.63,3.35.86.86,0,0,0,.7-1.5c-.92-.61-1.84-1.27-2.72-1.94-.57-.44-2.65-1.67-1.61-2.39a.3.3,0,0,0-.2-.54Z"/><path class="cls-4" d="M29.58,125.73a10.75,10.75,0,0,0,6,5.75c.55.18,1.13-.54.58-.93-2.18-1.53-4.54-2.78-5.85-5.21-.23-.42-.94,0-.75.39Z"/><path class="cls-4" d="M23.24,122.6c.23,2.57,2.89,4.18,5,5.25.78.41,1.31-.8.56-1.23a19.06,19.06,0,0,1-2.47-1.71,10.28,10.28,0,0,1-2.17-2.62.48.48,0,0,0-.87.31Z"/><path class="cls-4" d="M33.47,126.57a12.35,12.35,0,0,0,5,5.7.55.55,0,0,0,.7-.85c-1.78-1.64-3.78-3.08-5-5.21-.23-.4-.87,0-.7.36Z"/><path class="cls-4" d="M29.52,123c-.06,2.69,2,4.91,3.74,6.76.54.57,1.52-.34,1-.95-1.52-1.82-3.42-3.57-4-6-.11-.47-.77-.25-.78.17Z"/><path class="cls-4" d="M10.91,84.94a16.62,16.62,0,0,0-1.46,2.61,30,30,0,0,1-2.07,3.07.6.6,0,0,0,.92.76,9.76,9.76,0,0,0,2.06-2.94,8,8,0,0,0,1.08-3.33.3.3,0,0,0-.53-.17Z"/><path class="cls-4" d="M10.33,93.11A18.12,18.12,0,0,0,8,97.49a5.7,5.7,0,0,0,.6,4.54c.2.38.83,0,.66-.34-1.36-3.07.11-5.65,1.58-8.35.18-.32-.31-.52-.5-.23Z"/><path class="cls-4" d="M11.1,102.56a6.3,6.3,0,0,0,.38,3.24.43.43,0,0,0,.8-.29,5.44,5.44,0,0,1-.29-2.8c.09-.57-.81-.73-.89-.15Z"/><path class="cls-4" d="M10.05,81.46a9.62,9.62,0,0,0-3.62,4.12.46.46,0,0,0,.76.48,23.4,23.4,0,0,1,3.41-3.82.48.48,0,0,0-.55-.78Z"/><path class="cls-4" d="M19.54,65.23c-1.84.66-4.11,2.07-4.25,4.24a.35.35,0,0,0,.66.21,8.53,8.53,0,0,1,3.81-3.84.32.32,0,0,0-.22-.61Z"/><path class="cls-4" d="M27.57,58.64c-1.82,1.56-3.67,3.08-5.43,4.71-.31.29.18.81.51.54,1.84-1.47,3.57-3.09,5.35-4.63.36-.31-.06-.93-.43-.62Z"/><path class="cls-4" d="M16.72,74.34a5.63,5.63,0,0,0-3.24,3.07.43.43,0,0,0,.77.36A7.66,7.66,0,0,1,17,74.87c.29-.17,0-.66-.28-.53Z"/><path class="cls-4" d="M23.32,55.12a28.45,28.45,0,0,0-3.38,2.37.36.36,0,0,0,.41.58,27,27,0,0,0,3.38-2.37.36.36,0,0,0-.41-.58Z"/><path class="cls-4" d="M38,46.82a8.09,8.09,0,0,0-6.16-.45c-.48.16-.33,1,.18.88a10.57,10.57,0,0,1,5.69.2.35.35,0,0,0,.29-.63Z"/><path class="cls-4" d="M15.45,79C13.8,80,12.1,81,11,82.63c-.24.37.19,1,.57.62,1.38-1.26,2.79-2.5,4.25-3.66a.35.35,0,0,0-.4-.58Z"/><path class="cls-4" d="M12.9,71.65a6.09,6.09,0,0,0-3.36,2.12c-.38.44.25,1.17.7.77s.85-.75,1.28-1.1,1.13-.68,1.62-1.11c.26-.22.16-.74-.24-.68Z"/><path class="cls-4" d="M7.21,88.12c-1.84,1.72-3.7,4-3.13,6.7.1.48.91.63,1,0A10.77,10.77,0,0,1,7.67,88.5c.25-.3-.19-.64-.46-.38Z"/><path class="cls-4" d="M28.09,53.47a44.72,44.72,0,0,0-8.89,7.87c-.48.55.35,1.18.85.71,2.83-2.64,5.51-5.46,8.53-7.88a.43.43,0,0,0-.49-.7Z"/><path class="cls-4" d="M17.13,108.25c.07,4.62,2.24,8.6,4.74,12.34.46.69,1.42,0,1-.71-2.1-3.71-4.56-7.35-5-11.69a.4.4,0,0,0-.8.06Z"/><path class="cls-5" d="M48.63,59.49c-.35,1.89-.59,3.8-1,5.68a18.88,18.88,0,0,1-2.92,6.4c-.36.54.21,1.29.8.88,4-2.75,3.42-8.61,3.74-12.85,0-.41-.57-.54-.64-.11Z"/><path class="cls-5" d="M45.05,64.09c-.66,3.91-1.15,7.67-3.27,11.13-.35.57.56,1.08,1,.6,2.74-3.2,2.56-7.65,2.89-11.63a.3.3,0,0,0-.59-.1Z"/><path class="cls-5" d="M40.42,70.64a13.85,13.85,0,0,0-1.86,10.21.61.61,0,0,0,1.16-.09c.24-3.39,0-6.58,1.57-9.72.28-.56-.55-.9-.87-.4Z"/><path class="cls-5" d="M36.32,78.34c-3.8,2.53-4.17,8.74-1.67,12.26.41.56,1.39.09,1.11-.57-1.4-3.23-1.94-8.55,1-11.12.33-.3,0-.83-.4-.57Z"/><path class="cls-5" d="M35.93,77.49c-1.79,2.63-1.66,7.25.59,9.59.38.4.9-.13.79-.55-.76-3-2.15-5.61-.88-8.72.13-.3-.3-.61-.5-.32Z"/><path class="cls-5" d="M46.58,56a21.66,21.66,0,0,0,.73,4.5,21.37,21.37,0,0,1,.4,5.41c0,.56.8.75.89.16A20,20,0,0,0,47,56a.2.2,0,0,0-.39.08Z"/><path class="cls-5" d="M32.23,92.08c.47,4.35,1.43,8.62,3.9,12.3.39.58,1.18,0,.86-.6A36.44,36.44,0,0,1,32.93,92c-.07-.44-.75-.4-.7.06Z"/><path class="cls-5" d="M31.56,98.29c1.46,3.16,2.79,6.91,5.82,8.91a.4.4,0,0,0,.51-.62A40.19,40.19,0,0,1,32.09,98c-.16-.3-.67,0-.53.27Z"/><path class="cls-5" d="M35.06,106.7c.46,2.73,3.34,4.62,5.64,5.78.53.26,1-.54.56-.89-2.17-1.56-4.1-2.83-5.56-5.12a.35.35,0,0,0-.64.23Z"/><path class="cls-5" d="M39.74,114.31c1.47,1.68,3.62,2.57,5.64,3.42a.42.42,0,0,0,.35-.77,56.08,56.08,0,0,1-5.48-3.13c-.3-.2-.79.16-.51.48Z"/><path class="cls-5" d="M49.61,122.32c.82-.34,1.52-1,2.35-1.35a21.16,21.16,0,0,1,3.36-1.33c.44-.11.35-.81-.08-.87a6.8,6.8,0,0,0-4,.88c-.72.39-2.45,1.26-2.23,2.3a.42.42,0,0,0,.56.37Z"/><path class="cls-5" d="M50.72,122.27a13.35,13.35,0,0,1,7.51-1.66c.34,0,.57-.49.19-.62A7.8,7.8,0,0,0,54,120c-1.16.26-3,.8-3.51,2-.06.14.08.35.25.27Z"/><path class="cls-5" d="M54.33,126.11c3.82,2.76,6.52,6.28,9.42,9.92a.43.43,0,0,0,.7-.49,33.84,33.84,0,0,0-9.77-9.85c-.29-.2-.64.21-.35.42Z"/><path class="cls-5" d="M58,131.88c2,2.09,3.77,3.93,4.75,6.74.21.6,1.25.41,1.12-.24a10.83,10.83,0,0,0-5.5-7.09c-.39-.19-.63.32-.37.59Z"/><path class="cls-5" d="M53.28,128.67c.83.65,1.82,1.1,2.7,1.69s1.68,1.1,2.57,1.6c.48.27.91-.47.5-.8a15.33,15.33,0,0,0-5.42-3.24.43.43,0,0,0-.35.75Z"/><path class="cls-5" d="M52.92,129.81a43.43,43.43,0,0,1,6,6c.31.35.92,0,.61-.43a30.58,30.58,0,0,0-6.12-6.22c-.41-.3-.93.31-.51.62Z"/><path class="cls-5" d="M43.05,118c-.75.56.75,1.35,1.09,1.53,1.3.69,2.74,1,4.07,1.66a.6.6,0,0,0,.63-1,10.41,10.41,0,0,0-2.92-1.42c-.58-.23-1.19-.37-1.78-.59a4.48,4.48,0,0,0-.55-.21c-.26,0-.33,0-.28.11a.17.17,0,0,0-.26-.08Z"/><path class="cls-5" d="M31.63,87.31c-.8.66.14,2.28.49,3a10.53,10.53,0,0,0,2.79,3.59c.65.51,1.34-.39.8-1a22.26,22.26,0,0,1-2.37-2.85,8.11,8.11,0,0,1-.89-1.67c-.16-.41-.1-.79-.45-1.08a.3.3,0,0,0-.37,0Z"/><path class="cls-5" d="M42.07,63.13c-1.43,2.37-2.53,5.36-1.57,8.09a.53.53,0,0,0,1-.22,14.77,14.77,0,0,1,1.14-7.6c.18-.39-.38-.62-.59-.27Z"/><path class="cls-5" d="M35.61,69.28c-2.33,2-3.19,4.93-3.47,7.87a.45.45,0,0,0,.88.16c.69-2.67,1-5.46,3.13-7.44.33-.31-.2-.88-.54-.59Z"/><path class="cls-5" d="M30,81.29a8,8,0,0,0-2.25,6.52c.06.42.76.51.79,0a10.35,10.35,0,0,1,2-6.07c.31-.38-.25-.83-.58-.48Z"/><path class="cls-5" d="M23.82,87.7c.5,2,1,4,1.51,6,.12.47.82.21.71-.25-.52-2-1.07-4-1.6-6-.11-.41-.72-.19-.62.21Z"/><path class="cls-5" d="M27.83,91.4a7.25,7.25,0,0,0,1.76,3.34.36.36,0,0,0,.58-.41,18.35,18.35,0,0,1-1.63-3.18c-.14-.48-.81-.21-.71.25Z"/><path class="cls-5" d="M28.64,97.33A27,27,0,0,0,32.41,104a.45.45,0,0,0,.74-.51c-1.25-2.14-2.59-4.24-3.66-6.48-.25-.51-1.08-.24-.85.3Z"/><path class="cls-5" d="M30.42,106.49c1,2.37,2.73,3.94,4.45,5.75.39.41,1.1-.24.73-.67-1.53-1.78-3.42-3.32-4.56-5.4-.19-.35-.76,0-.62.32Z"/><path class="cls-5" d="M36.34,116.64a21.43,21.43,0,0,0,2.46.93c.44.17.76-.51.31-.68a21.42,21.42,0,0,1-2.44-1c-.45-.24-.79.49-.33.73Z"/><path class="cls-5" d="M35.72,111.19A13,13,0,0,0,38,113.62c.44.38,1-.32.57-.7a14,14,0,0,1-2.16-2.19c-.31-.41-1,0-.66.46Z"/><path class="cls-5" d="M39.6,120.87a21,21,0,0,0,4.86,1.72c.41.1.63-.57.22-.71a32.72,32.72,0,0,1-4.74-1.73c-.46-.24-.8.49-.34.72Z"/><path class="cls-5" d="M30.41,109.27c-.21.86.56,1.69,1.1,2.27a10.38,10.38,0,0,0,3.06,2c.68.33,1.11-.68.49-1.05-.8-.47-1.57-1-2.33-1.47A7.22,7.22,0,0,1,31,109.13a.35.35,0,0,0-.63.14Z"/><path class="cls-5" d="M41.61,56.86A4.37,4.37,0,0,1,41,61.55a.5.5,0,0,0,.78.64,4.72,4.72,0,0,0,.45-5.65c-.19-.34-.78,0-.62.32Z"/></g></g></g></svg>