<svg xmlns="http://www.w3.org/2000/svg" viewBox="0 0 400.01 346.36"><defs><style>.cls-1,.cls-10{fill:#c6ff00;}.cls-12,.cls-2,.cls-4,.cls-8{fill:#fff;}.cls-2{opacity:0.75;}.cls-3,.cls-8{opacity:0.5;}.cls-5,.cls-9{fill:#263238;}.cls-10,.cls-11,.cls-12,.cls-13,.cls-5,.cls-7{stroke:#263238;}.cls-10,.cls-11,.cls-12,.cls-13,.cls-5,.cls-6,.cls-7{stroke-linecap:round;stroke-linejoin:round;}.cls-6,.cls-7{fill:none;}.cls-6{stroke:#fff;}.cls-11{fill:#d9d9d9;}.cls-13{fill:#707070;}</style></defs><g id="Camada_2" data-name="Camada 2"><g id="Background_Simple" data-name="Background Simple"><path class="cls-1" d="M347.52,26.52S310-8.58,255.53,2,174.4,55.2,140.91,83.45c-17.54,14.8-41.65,19-61.81,29.94C14.64,148.31,14.69,237,58,273.53c37.48,31.61,87.64,38.17,155.45,21.57s116.11-26,163-83.94S393.32,73.79,347.52,26.52Z"/><path class="cls-2" d="M347.52,26.52S310-8.58,255.53,2,174.4,55.2,140.91,83.45c-17.54,14.8-41.65,19-61.81,29.94C14.64,148.31,14.69,237,58,273.53c37.48,31.61,87.64,38.17,155.45,21.57s116.11-26,163-83.94S393.32,73.79,347.52,26.52Z"/></g><g id="Clouds"><path class="cls-1" d="M366.73,115.46c-5.16-2.81-7.5-.47-9.37-2.81s5.15-8.44-8.91-14.53c0,0-.94-13.12-20.15-13.59s-14.06,13.12-19.22,16.4-6.56-1.87-11.71,1.41-2.82,9.84-7,10.78-9.85-4.22-15-.94-5.16,6.09-7.5,6.09-7-1.87-9.84,0-6.09,4.22-6.09,4.22H370.48S371.88,118.27,366.73,115.46Z"/><g class="cls-3"><path class="cls-4" d="M366.73,115.46c-5.16-2.81-7.5-.47-9.37-2.81s5.15-8.44-8.91-14.53c0,0-.94-13.12-20.15-13.59s-14.06,13.12-19.22,16.4-6.56-1.87-11.71,1.41-2.82,9.84-7,10.78-9.85-4.22-15-.94-5.16,6.09-7.5,6.09-7-1.87-9.84,0-6.09,4.22-6.09,4.22H370.48S371.88,118.27,366.73,115.46Z"/></g><path class="cls-1" d="M289.5,256.46c-8.33-4.54-12.12-.75-15.15-4.54s8.33-13.63-14.38-23.47c0,0-1.52-21.2-32.56-22s-22.72,21.2-31,26.5-10.6-3-18.93,2.27-4.54,15.9-11.35,17.42-15.91-6.82-24.23-1.52S133.52,261,129.73,261s-11.36-3-15.9,0-9.84,6.81-9.84,6.81H295.55S297.82,261,289.5,256.46Z"/><g class="cls-3"><path class="cls-4" d="M289.5,256.46c-8.33-4.54-12.12-.75-15.15-4.54s8.33-13.63-14.38-23.47c0,0-1.52-21.2-32.56-22s-22.72,21.2-31,26.5-10.6-3-18.93,2.27-4.54,15.9-11.35,17.42-15.91-6.82-24.23-1.52S133.52,261,129.73,261s-11.36-3-15.9,0-9.84,6.81-9.84,6.81H295.55S297.82,261,289.5,256.46Z"/></g><path class="cls-1" d="M104.9,168.31c-2.86-1.55-4.15-.26-5.19-1.55s2.85-4.67-4.93-8c0,0-.52-7.26-11.16-7.52s-7.78,7.27-10.64,9.08-3.63-1-6.48.78-1.56,5.45-3.89,6-5.45-2.34-8.31-.52-2.85,3.37-4.15,3.37-3.89-1-5.45,0-3.37,2.34-3.37,2.34H107S107.75,169.87,104.9,168.31Z"/><g class="cls-3"><path class="cls-4" d="M104.9,168.31c-2.86-1.55-4.15-.26-5.19-1.55s2.85-4.67-4.93-8c0,0-.52-7.26-11.16-7.52s-7.78,7.27-10.64,9.08-3.63-1-6.48.78-1.56,5.45-3.89,6-5.45-2.34-8.31-.52-2.85,3.37-4.15,3.37-3.89-1-5.45,0-3.37,2.34-3.37,2.34H107S107.75,169.87,104.9,168.31Z"/></g></g><g id="Plants"><path class="cls-5" d="M120.22,320.85s7.4-15.28,2-25.42-12.17-.67-21.63-12.84-9.47-25.69-17.58-27-12.84,2-18.93,0,1.36-19.6-11.49-23.66S31.63,238,22.84,228.51,1.21,215,.53,219.72s10.14,4.06,14.2,10.82S31,249.47,31,262.31s11.49,6.76,19.6,10.14,7.44,10.82,8.12,21,18.25,0,21,4.73-3.38,6.08-1.35,16.9,21.9,11.34,21.9,11.34"/><path class="cls-6" d="M107.34,323.15S93.14,290,72.19,269.07,37,246.76,28.25,239.33"/><polyline class="cls-6" points="40.43 260.32 56.71 256.75 49.96 241.26"/><polyline class="cls-6" points="69.02 283.35 83.24 282.43 82.13 270.25"/><polyline class="cls-6" points="90.86 310.75 102.38 312.73 104.36 296.06"/><path class="cls-1" d="M64.11,215.12s-5.49.73-11.34-13.18C48,190.5,54.53,181.29,57,178.38a.91.91,0,0,1,1.5.15c1.91,3.43,7.56,14,8.16,20.12C67.41,206,64.11,215.12,64.11,215.12Z"/><path class="cls-1" d="M119.38,263.06s-3.3-2.93-4-9.15,4.39-18.3,7.32-16.47,4,15.37,2.93,20.13S119.38,263.06,119.38,263.06Z"/><path class="cls-1" d="M136.94,284.29s-3.29-2.93-4-9.15,4.39-18.3,7.32-16.47,4,15.37,2.93,20.13S136.94,284.29,136.94,284.29Z"/><path class="cls-1" d="M146.18,298.72s-1.43-4.17,1-10S160,275,161.64,278s-4,15.36-7.34,19S146.18,298.72,146.18,298.72Z"/><path class="cls-1" d="M122.13,277.69s-3.11,3.13-9.36,3.51-18-5.4-16-8.22,15.57-3.16,20.26-1.8S122.13,277.69,122.13,277.69Z"/><path class="cls-1" d="M136.94,300.39s-3.1,3.13-9.36,3.51-18-5.4-16-8.23,15.57-3.16,20.26-1.8S136.94,300.39,136.94,300.39Z"/><path class="cls-1" d="M97.05,238.54s-3.66,0-5.85-8.78,2.19-18.3,4.39-16.47,6.58,13.17,5.85,18.66S97.05,238.54,97.05,238.54Z"/><path class="cls-1" d="M75.46,236.35a11,11,0,0,0-7-8.06c-6.22-2.56-17.56.74-17.56,2.2s4.75,5.86,13.17,7.68S75.46,236.35,75.46,236.35Z"/><path class="cls-1" d="M101.81,259.4s-.37-2.93-7.69-6.95-15.42-1.69-15-.11,7.71,5.23,13.94,7.79S101.81,259.4,101.81,259.4Z"/><path class="cls-1" d="M74.36,222.44s-3.29-2.93-4-9.15,4.4-18.3,7.32-16.47,4,15.37,2.93,20.13S74.36,222.44,74.36,222.44Z"/><path class="cls-7" d="M145,315.48s3.74-9.35-15-34.28-65.42-49.84-71-79.75"/><line class="cls-7" x1="83.88" y1="237.81" x2="62.65" y2="233.05"/><line class="cls-7" x1="98.15" y1="250.98" x2="95.22" y2="227.2"/><line class="cls-7" x1="112.79" y1="263.43" x2="90.46" y2="255.74"/><line class="cls-7" x1="73.99" y1="227.93" x2="75.09" y2="210.36"/><line class="cls-7" x1="119.01" y1="268.55" x2="120.11" y2="250.98"/><line class="cls-7" x1="136.58" y1="289.78" x2="137.68" y2="272.21"/><line class="cls-7" x1="143.17" y1="303.32" x2="152.75" y2="288.56"/><line class="cls-7" x1="127.59" y1="278.37" x2="110.11" y2="276.29"/><line class="cls-7" x1="142.4" y1="301.06" x2="124.93" y2="298.99"/><path class="cls-5" d="M337.21,322.83S348.28,314.2,348,304.7s-8.78-4.94-11.36-17.42,2.34-22.52-3.18-26.48-10.27-3.18-14.05-6.9,8.16-14.06.11-21.75-17.77-3.13-20.84-13.36-11.12-17.92-13.35-14.66,6,6.71,6.59,13.21,5.13,20,.45,29.49,6.06,9.21,10.85,14.68,1.57,10.73-1.63,18.5,13.55,6.66,13.83,11.16-4.73,3.28-7.17,12.05,12.11,16.4,12.11,16.4"/><path class="cls-6" d="M326.82,319.84s1.55-29.76-6.36-52.95-17.94-29.38-21.75-38.1"/><polyline class="cls-6" points="300.09 248.81 313.48 252.1 314.12 238.15"/><polyline class="cls-6" points="312.9 276.33 323.79 280.83 327.41 271.39"/><polyline class="cls-6" points="319.12 304.63 326.94 310.3 334.49 298.65"/><path class="cls-1" d="M351.74,229.61c-3.48-4.1-2.71-9.05-1.17-15,1.26-4.85,7.21-12.44,13.64-13.27,1.08-.14,1.09,0,1,.8-.38,5.14-1.62,12.86-3.88,17.09C358.63,224.38,355.67,226.05,351.74,229.61Z"/><path class="cls-1" d="M368.39,284.25c-.81-2.73.06-5.59,1-8.1s9.21-12.25,11.75-8.55-3.77,12.49-5.95,15S371,284.65,368.39,284.25Z"/><path class="cls-1" d="M371.81,306.71c-.73-2.77.17-5.75,1.15-8.25s9.25-12,11.74-8.26-3.83,12.54-6.07,15.06S374.36,307.2,371.81,306.71Z"/><path class="cls-1" d="M371.8,320.94c.78-2.79,3.08-4.89,5.2-6.58s14-5.63,14.29-1.15-9.62,8.84-12.82,9.9S373.76,322.65,371.8,320.94Z"/><path class="cls-1" d="M364.22,295.68c-2.81.67-5.64-.39-8.13-1.44s-11.42-9.73-7.65-12,12.17,4.41,14.62,6.64S364.8,293.21,364.22,295.68Z"/><path class="cls-1" d="M364.66,318c-2.82.56-5.65-.54-8.08-1.71s-11.17-10.16-7.29-12.36,12.1,4.77,14.45,7.17S365.34,315.5,364.66,318Z"/><path class="cls-1" d="M363,259.2c-2.48-.9-.52-6.52-.06-8.36s8-12.93,10.17-9-2.12,12.34-4,14.84S365.5,260.09,363,259.2Z"/><path class="cls-1" d="M349.38,249.08c1.37-2.8.65-6-.94-8.59s-9.78-9-12.45-6.48,3.14,9,4.93,11S346.29,250,349.38,249.08Z"/><path class="cls-1" d="M357.22,275c1-2.43-1.56-5.84-2.41-7.73s-8.32-9.26-10-6.33,4.38,8.73,5.85,10.94S354.75,275.57,357.22,275Z"/><path class="cls-1" d="M355.27,239.31c-.59-2.81.48-5.67,1.63-8.11S367,220,369.19,223.82s-4.64,12.11-7,14.47S357.78,239.94,355.27,239.31Z"/><path class="cls-7" d="M363.4,333c6.16-14,6.93-14.22,4.5-33.79S343.66,242.25,355,218.75"/><path class="cls-7" d="M354.35,253.56c-4.19-4.06-8.12-8.35-12.06-12.65"/><path class="cls-7" d="M358.26,267.89c2.8-5.69,5.8-11.28,8.66-16.94"/><path class="cls-7" d="M363.53,281.81c-4.16-4.72-8.6-9.16-12.74-13.9"/><path class="cls-7" d="M352.42,242.82l9.06-11.35"/><path class="cls-7" d="M365.83,287.92c2.72-4,5.47-7.95,8.17-11.95"/><path class="cls-7" d="M369.13,310.4c2.86-4,5.64-8,8.41-12"/><path class="cls-7" d="M367.64,322.8q6.67-3,13.33-6.14"/><path class="cls-7" d="M367.79,298.46q-5.73-4.44-11.55-8.72"/><path class="cls-7" d="M368.13,320.88q-5.6-4.61-11.24-9.17"/></g><g id="Floor"><path class="cls-7" d="M51.68,345.86s160.89-86.53,343.41,0"/></g><g id="Character"><path class="cls-1" d="M279.92,315.92c0,3.95-22.52,7.15-50.3,7.15s-50.29-3.2-50.29-7.15,22.51-7.16,50.29-7.16S279.92,312,279.92,315.92Z"/><path class="cls-8" d="M279.92,315.92c0,3.95-22.52,7.15-50.3,7.15s-50.29-3.2-50.29-7.15,22.51-7.16,50.29-7.16S279.92,312,279.92,315.92Z"/><path class="cls-9" d="M239.91,90.93c5.27-1.12,9.12-2.83,8.6-7.66s-6.39-8-7-10.51,3.43-6.18,2.56-10.9-5.58-10-10.3-9.16c0,0-.78,1.55-1.56-1.8S229,43.4,224.31,45c-4.87,1.7-4.87,4.53-6.3,5a123.81,123.81,0,0,0-11.62,5.71c-3.74,2.06-4.35,8.56-4.91,10.83s-2.35,2.81-5,2.36-5.43-.94-6,1.66-.89,5.1-2.72,5-3.91-2.88-5.32-.58-4.21,6.72-7.19,5.36S168.8,73.39,164,75.61s-5.7,8.49-3.84,9.49,2.78,2.51,2.33,4.13-6.12.13-7.89,3.54,2.43,6.52,2.44,8.38-.95,3.56-4.33,4.5-5.7,3.58-3.46,5.33,1.92-.35,2.48-1.61,2.28-1.46,4.31-.44,3.24-1.13,3.24-1.13-.29,2.66,1.95,3.38,2.67,3.17,0,3.9-4.5,4.47-2.51,6.67,5.13,3.6,10.46,2.15,16.79-10,24.17-5.64,20.59,4.24,27.08,2,8.17-9.08,13.27-10.23,3.76-4.09,2.9-6.94S234.64,92.05,239.91,90.93Zm3.7-4.78A5,5,0,0,0,245,83.34a2.29,2.29,0,0,1,.8,3.18C244.69,88.71,242,87.9,242,87.9Zm-75.41-4.4c-1.15-.2-3.56,4-4.18,2.66s.81-6.63,3.39-6.86,5.29,4.64,5.29,4.64C172.36,84.16,169.35,82,168.2,81.75ZM223.77,50a3.22,3.22,0,0,0-2.61.39,3.15,3.15,0,0,1,3.56-2.94c2.13.37,2.61,3.5,2.61,3.5A23.36,23.36,0,0,0,223.77,50Z"/><path class="cls-5" d="M110.82,191.22,125.71,184a14,14,0,0,1,.06,6c-.64,3.73-1.66,7.82-5,7.75S110.82,191.22,110.82,191.22Z"/><path class="cls-5" d="M161.29,217.29S166.8,204,168,201.94s9.59-2.6,8.14,4.28-6.21,10.53-9.21,11A18.82,18.82,0,0,1,161.29,217.29Z"/><path class="cls-5" d="M91.33,135.13a21.56,21.56,0,0,0-4.54,6c-1.37,3.15-3,7-3,7s16.19-14.25,25-14.81,11-.51,11-.51-10.92-5.09-16.75-3.53A37.77,37.77,0,0,0,92,134.91Z"/><path class="cls-10" d="M207.19,111.56S186.07,116.78,165,121s-41.33-.54-53.07,2.55-20.58,11.57-20.58,11.57,11.15-6.77,18-.95,6.13,9.46,1.32,16.36-9,17.15-1.78,21,14.31,17.3,14.25,20.3-1.07,3-1.07,3l-11.26-3.57s6.37,14.14,20.67,16.1,21.41-3.55,30.4-3,8.49,8.51,8.49,8.51-8.72,2.48-9.09,4.48,2.25,3.71,12.65.93,15.56-11,20.46-5.91,7.79,9.84,13.12,9.95,8.8-6.15,15.46-21.68,30.77-36,31.81-53.68S246,107,246,107Z"/><path class="cls-7" d="M200.36,119.09s-15.75,3.67-28.25,11.4-36.55,9.9-43.27,12.76a51.91,51.91,0,0,0-9.78,5.13"/><path class="cls-7" d="M122.08,194.79a61.92,61.92,0,0,0,12.37-17.41,68.12,68.12,0,0,1,27-29.44c12.83-7.4,19.16-7.6,31-15.35"/><path class="cls-7" d="M170.38,212.81s9-29.82,16.18-40"/><path class="cls-11" d="M195.6,282a55.2,55.2,0,0,1-6.37,17.2c-5.19,9.23-6.58,11.87-7.93,12.84s-4.06,2.58-1.41,3.31,10,.87,12.67-.07,2.4-2.95,3.48-6.6a5.07,5.07,0,0,1,4.08-3.91l-.23,11,2,0,.86-9.32s1.41-3.64,1.13-6-2.91-4.39-2.91-4.39l3.29-13.6Z"/><path class="cls-5" d="M201.89,315.83l.86-9.32s1.41-3.64,1.13-6c-.22-1.81-1.84-3.45-2.57-4.1-2.17,2.71-4.81,9.78-8.62,12.87a11,11,0,0,1-9.71,1.8l-.54-.24a5.56,5.56,0,0,1-1.14,1.2c-1.36,1-4.06,2.58-1.41,3.31s10,.87,12.67-.07,2.4-2.95,3.48-6.6a5.07,5.07,0,0,1,4.08-3.91l-.23,11Z"/><path class="cls-11" d="M270.16,283.59a55.31,55.31,0,0,0,5.63,17.46c4.81,9.43,6.08,12.13,7.4,13.15s3.94,2.75,1.26,3.36-10,.46-12.66-.59-2.27-3.05-3.19-6.74a5.06,5.06,0,0,0-3.91-4.08l-.24,11-2,0-.47-9.34s-1.25-3.7-.87-6,3.09-4.27,3.09-4.27l-2.71-13.73Z"/><path class="cls-5" d="M262.45,317.1l-.47-9.34s-1.25-3.7-.87-6c.3-1.81,2-3.37,2.73-4,2.06,2.8,4.41,10,8.08,13.22a10.94,10.94,0,0,0,9.62,2.2l.56-.21a5.18,5.18,0,0,0,1.09,1.24c1.31,1,3.94,2.75,1.26,3.36s-10,.46-12.66-.59-2.27-3.05-3.19-6.74a5.06,5.06,0,0,0-3.91-4.08l-.24,11Z"/><path class="cls-5" d="M216.75,154.73S202.94,186.49,201,198.78s-8.14,85.85-8.14,85.85l13.32.62L226,200.64l3.67-15.59,30.82,103.67,11.35-.76s-12-78.27-16.63-97a271.93,271.93,0,0,0-12.26-36.71Z"/><path class="cls-11" d="M222.67,86.39s.05,14.7,0,16.49-16.63,6.64-16.63,6.64l10.7,45.21s14,1.19,26.18-.52l8-48.23-15-3,.61-11.82S227.05,91,222.67,86.39Z"/><path class="cls-12" d="M241.13,104c-1.09,4.09-4.66,14.35-12.84,13.32-7.08-.9-11.4-7.89-12.92-10.82-4.47,1.58-9.32,3-9.32,3l10.7,45.21s14,1.19,26.18-.52l8-48.23Z"/><path class="cls-13" d="M218.35,104.22s4,21.77,5,34,1,20.64.79,22.24S213,204.84,213,204.84l-19-8.29,19.17-42.43s-11-41.27-10.93-42.71S218.35,104.22,218.35,104.22Z"/><path class="cls-7" d="M214.74,105.76,213,122.21l4,3.13-3,5.32,10,26s-.09-12.73-.81-21.17-4.9-31.29-4.9-31.29Z"/><path class="cls-13" d="M238.27,103.21s-2.77,54.78-2.78,55.32,15,46.2,15,46.2l14.8-4.71-19.61-47.55s9.36-44.61,9.2-45.51S238.27,103.21,238.27,103.21Z"/><polygon class="cls-13" points="242.56 104.38 244.54 123.26 239.56 126.04 244.23 130.04 235.49 158.53 238.27 103.21 242.56 104.38"/><path class="cls-11" d="M238.28,66.44a5.24,5.24,0,0,0-.14-.56c-.35-1.08-1.39-3.26-4-2-3.37,1.6-5.28,5.23-7.8,5.67a21.84,21.84,0,0,1-3.18.44s-3.84,8.42-5.71,9.89a11.29,11.29,0,0,1-4.38,1.91s.55,5.85,2.2,6.72a3.55,3.55,0,0,0,3.34-.27s4.72,5.77,7.85,7.34,6.64,2,8.49,1,7.16-7,7.23-10.35-1.43-11.71-1.69-15A6.37,6.37,0,0,0,238.28,66.44Z"/><path class="cls-4" d="M227.5,63.71s.49.34-.2,1.5a11.22,11.22,0,0,1-2.05,2.29s3.34-.27,4.73-2.74S229.54,61.92,227.5,63.71Z"/><path class="cls-9" d="M228.4,75.48c.15.86-.13,1.63-.63,1.72s-1-.54-1.18-1.41.13-1.63.63-1.71S228.25,74.62,228.4,75.48Z"/><path class="cls-9" d="M236.93,74.32c.15.87-.13,1.64-.63,1.72s-1-.54-1.17-1.4.13-1.63.63-1.72S236.78,73.46,236.93,74.32Z"/><line class="cls-7" x1="224.64" y1="72.82" x2="229.5" y2="71.76"/><path class="cls-7" d="M233.7,70.34s1.55-2.63,3.71-1.92"/><path class="cls-7" d="M233.56,84.86s-5.53,1-7-2.15"/><path class="cls-7" d="M234.41,77.31s.89,3.11-1.92,3.41"/><path class="cls-11" d="M257.82,161.87s-8.37,6.28-8.41,7.89,1.53,4,2.06,4.52,2.11,2,2.11,2,4.32-1,4.18-2.78-.68-1.81-.68-1.81l3.53-6Z"/><line class="cls-7" x1="257.08" y1="171.71" x2="255.07" y2="173.64"/><path class="cls-13" d="M250.25,121.56l20.53,20.69-14.2,19.06,4.55,5.29s22.72-23.54,22.76-25.51S258.58,109,257,107.9s-5.16-1.72-5.16-1.72"/><path class="cls-11" d="M202.48,160.92s8.94,5.44,9.13,7-1.14,4.1-1.61,4.7-1.9,2.21-1.9,2.21-4.4-.56-4.43-2.36.5-1.87.5-1.87l-4.1-5.64Z"/><line class="cls-7" x1="204.17" y1="170.64" x2="206.36" y2="172.37"/><path class="cls-13" d="M209.17,123.39l-20.65,18.92,15.14,17.93-4,5.71s-24-21.57-24.28-23.52,26-31.93,27.65-33,5.23-1.51,5.23-1.51"/><path class="cls-10" d="M219.87,113.55s2.93-7.32,2.51-9.64-4.34-1.71-6.67-.83-5.63,4.26-5.63,4.26,6.24-.33,7.17-.77S219.66,112.62,219.87,113.55Z"/><path class="cls-10" d="M235.94,103l1.68,11.86s1.72-5,3.85-7.53a12.81,12.81,0,0,1,3.53-3.16S240,102.08,235.94,103Z"/></g></g></svg>